<?xml version="1.0" encoding="UTF-8" standalone="no"?>
<!-- Created with Inkscape (http://www.inkscape.org/) -->

<svg
   version="1.1"
   id="svg182"
   width="576"
   height="576"
   viewBox="0 0 576 576"
   sodipodi:docname="Unit_Insignia copy1.svg"
   inkscape:version="1.2.2 (b0a84865, 2022-12-01)"
   inkscape:export-filename="../../../prj/k3jph.github.io/assets/images/mddf-dui.png"
   inkscape:export-xdpi="300"
   inkscape:export-ydpi="300"
   xmlns:inkscape="http://www.inkscape.org/namespaces/inkscape"
   xmlns:sodipodi="http://sodipodi.sourceforge.net/DTD/sodipodi-0.dtd"
   xmlns="http://www.w3.org/2000/svg"
   xmlns:svg="http://www.w3.org/2000/svg">
  <defs
     id="defs186">
    <clipPath
       clipPathUnits="userSpaceOnUse"
       id="clipPath202">
      <path
         d="M 0,432 H 432 V 0 H 0 Z"
         id="path200" />
    </clipPath>
  </defs>
  <sodipodi:namedview
     id="namedview184"
     pagecolor="#505050"
     bordercolor="#ffffff"
     borderopacity="1"
     inkscape:showpageshadow="0"
     inkscape:pageopacity="0"
     inkscape:pagecheckerboard="1"
     inkscape:deskcolor="#505050"
     showgrid="false"
     inkscape:zoom="1.5677083"
     inkscape:cx="68.890367"
     inkscape:cy="289.91363"
     inkscape:window-width="1920"
     inkscape:window-height="1027"
     inkscape:window-x="2460"
     inkscape:window-y="25"
     inkscape:window-maximized="0"
     inkscape:current-layer="g198">
    <inkscape:page
       x="0"
       y="0"
       id="page188"
       width="576"
       height="576" />
  </sodipodi:namedview>
  <g
     id="g190"
     inkscape:groupmode="layer"
     inkscape:label="Page 1"
     transform="matrix(1.3333333,0,0,-1.3333333,0,576)">
    <g
       id="g192"
       transform="translate(214.7241,388.9653)">
      <path
         d="m 0,0 0.345,-133.103 -123.793,2.414 -1.035,-101.38 123.104,-61.723 126.551,61.723 -1.379,231.035 z"
         style="fill:#ffffff;fill-opacity:1;fill-rule:nonzero;stroke:none"
         id="path194" />
    </g>
    <g
       id="g196">
      <g
         id="g198"
         clip-path="url(#clipPath202)">
        <g
           id="g204"
           transform="translate(91.8848,194.1211)">
          <path
             d="m 0,0 h 15.496 44.676 l -1.111,48.466 0.084,12.361 c -4.161,-0.395 -7.66,-3.62 -8.863,-7.762 l -0.028,-0.003 c -0.095,-0.308 -0.176,-0.617 -0.223,-0.917 -0.397,0.056 -0.798,0.096 -1.211,0.096 -5.62,0 -10.176,-4.556 -10.176,-10.176 0,-1.165 0.263,-2.663 0.623,-3.705 l 1.503,-3.006 c 1.852,-1.931 5.648,-3.968 8.185,-3.759 0.895,0.074 1.618,0.447 2.447,0.665 V 30.926 30.542 7.312 h -0.026 -1.6 -21.392 c 0.212,0.815 0.361,1.654 0.361,2.536 0,5.62 -4.556,10.175 -10.176,10.175 -5.62,0 -10.176,-4.555 -10.176,-10.175 0,-0.413 0.039,-0.815 0.096,-1.211 C 8.188,8.59 7.879,8.509 7.571,8.413 L 7.569,8.386 C 3.557,7.22 0.546,3.981 0,0 M -0.539,3.934 C -0.716,3.801 -0.851,3.711 -0.906,3.7 l 0.048,-0.469 c 0.106,0.235 0.198,0.477 0.319,0.703"
             style="fill:#862633;fill-opacity:1;fill-rule:nonzero;stroke:none"
             id="path206" />
        </g>
        <g
           id="g208"
           transform="translate(92.9785,183.6367)">
          <path
             d="m 0,0 v -26.157 l 48.979,-24.286 c -0.515,0.856 -0.95,1.775 -1.261,2.762 -6.521,0.005 -11.806,5.292 -11.806,11.814 0,6.525 5.289,11.814 11.814,11.814 0.323,0 0.639,-0.029 0.956,-0.054 V -2.693 H 29.234 c 0.026,-0.318 0.055,-0.634 0.055,-0.956 0,-6.526 -5.289,-11.815 -11.814,-11.815 -6.522,0 -11.808,5.285 -11.813,11.806 C 3.416,-2.95 1.477,-1.66 0,0 m 60.642,71.553 v -0.76 c 4.104,-0.444 7.464,-3.491 8.656,-7.593 l 0.027,-0.002 c 0.096,-0.308 0.177,-0.617 0.224,-0.917 0.396,0.056 0.798,0.095 1.211,0.095 5.62,0 10.176,-4.555 10.176,-10.176 0,-5.62 -4.556,-10.176 -10.176,-10.176 -0.898,0 -1.753,0.153 -2.582,0.372 v -1.718 c 0.007,-0.002 0.016,-0.002 0.023,-0.004 V 19.608 h 0.275 v -0.77 h 1.328 v -0.014 h -1.328 v -0.037 h 1.328 v -0.754 h -1.603 v -0.051 h 20.49 0.813 0.905 c -0.218,0.83 -0.372,1.684 -0.372,2.582 0,5.621 4.556,10.176 10.176,10.176 5.62,0 10.176,-4.555 10.176,-10.176 0,-0.413 -0.039,-0.814 -0.095,-1.21 0.3,-0.047 0.609,-0.128 0.917,-0.225 l 0.002,-0.027 c 4.087,-1.187 7.111,-4.532 7.571,-8.618 h 0.928 v 61.069 z"
             style="fill:#862633;fill-opacity:1;fill-rule:nonzero;stroke:none"
             id="path210" />
        </g>
        <g
           id="g212"
           transform="translate(328.9258,333.457)">
          <path
             d="M 0,0 C 0.218,-0.063 0.418,-0.159 0.629,-0.235 0.68,-0.274 0.762,-0.292 0.84,-0.313 0.56,-0.208 0.291,-0.084 0,0 m -50.018,51.588 v -10e-4 c 1.747,-0.294 3.35,-1.036 4.677,-2.155 -1.326,1.128 -2.929,1.864 -4.677,2.156 m 58.815,1.113 h -56.262 c 3.298,-1.326 5.885,-4.189 7.02,-7.789 6.521,-0.004 11.805,-5.291 11.805,-11.813 0,-6.525 -5.289,-11.814 -11.813,-11.814 -0.324,0 -0.64,0.028 -0.956,0.055 V 0.506 h 18.651 c -0.027,0.317 -0.056,0.633 -0.056,0.956 0,6.525 5.29,11.814 11.814,11.814 6.521,0 11.809,-5.285 11.813,-11.805 C 4.568,0.286 7.546,-2.47 8.797,-5.97 Z M -30.266,33.54 c 0.023,0.364 0.069,0.516 0.078,0.654 -0.009,-0.138 -0.027,0.01 -0.049,-0.353 z m 0.074,0.796 c 0.043,-0.14 0.01,-0.049 0.004,-0.142 0.006,0.093 0.039,0.002 -0.004,0.142"
             style="fill:#862633;fill-opacity:1;fill-rule:nonzero;stroke:none"
             id="path214" />
        </g>
        <g
           id="g216"
           transform="translate(216.3643,316.7798)">
          <path
             d="m 0,0 v -57.581 h 55.342 c -2.718,1.496 -4.819,4.094 -5.812,7.243 -6.52,0.005 -11.805,5.292 -11.805,11.814 0,6.525 5.289,11.814 11.813,11.814 0.323,0 0.641,-0.029 0.956,-0.055 V -5.351 H 31.046 c 0.026,-0.317 0.056,-0.633 0.056,-0.956 0,-6.525 -5.29,-11.814 -11.815,-11.814 -6.521,0 -11.808,5.285 -11.812,11.805 C 4.138,-5.263 1.444,-2.954 0,0"
             style="fill:#862633;fill-opacity:1;fill-rule:nonzero;stroke:none"
             id="path218" />
        </g>
        <g
           id="g220"
           transform="translate(394.9287,214.3604)">
          <path
             d="m 0,0 c -11.063,41.855 -13.271,77.911 -0.631,108.186 -5.23,3.3 -27.82,17.541 -35.88,22.354 -0.49,-7.339 -2.691,-15.708 -7.533,-25.217 -6.527,-13.372 -9.113,-25.42 -9.385,-36.001 h -0.117 l -0.004,-25.676 0.045,0.003 c 0.272,-13.474 3.435,-30.708 9.962,-47.736 19.462,-45.974 -1.413,-73.51 -11.419,-83.664 l 27.854,-25.967 c 6.567,-2.32 13.94,7.673 15.299,9.486 C 19.17,-66.777 2.61,-12.026 0,0 m -20.497,126.449 c 0.511,1.141 1.196,2.755 1.768,4.427 2.171,6.347 5.679,12.528 0.166,16.203 -9.243,5.406 -30.149,19.987 -34.969,22.182 l -0.005,-36.923 c 5.667,5.96 10.681,6.419 14.898,5.125 l 2.024,-1.228 c 0.055,-0.028 0.116,-0.05 0.172,-0.078 10e-4,-0.009 0,-0.018 10e-4,-0.027 z m -33.034,-0.42 c 0,0 -0.004,0.025 -0.007,0.043 l -0.004,-30.107 c 1.051,3.007 2.295,6.015 3.952,9.271 5.411,10.625 7.66,20.129 7.775,28.022 -6.481,0.789 -11.716,-7.229 -11.716,-7.229 m -225.671,-230.791 -21.85,-34.606 c 9.853,-14.433 66.723,-28.279 121.155,-27.922 52.28,0.343 120.174,18.051 119.99,28.109 l -19.464,34.785 c -27.477,-11.949 -70.409,-21.074 -102.338,-21.074 -36.271,0 -71.997,7.911 -97.493,20.708 m 244.313,-10.37 -23.766,22.844 c -3.788,-3.334 -9.11,-6.613 -15.557,-9.738 l 17.891,-31.485 c 2.977,4.448 10.74,14.641 21.432,18.379 m -264.875,23.678 -28.659,-24.557 c 4.9,-1.452 18.3,-6.255 24.188,-16.669 l 19.981,30.596 c -5.866,3.278 -11.08,6.837 -15.51,10.63 m -6.233,262.382 h -0.51 l -39.189,-25.056 c 0,0 -0.419,-17.455 3.765,-23.386 0.348,-1.103 -14.04,-9.189 -18.907,-11.887 0.725,-0.124 1.447,-0.249 2.155,-0.312 12.81,-30.93 10.621,-67.801 -0.486,-110.628 -2.611,-12.257 -19.171,-68.054 11.807,-106.224 0.997,-1.355 5.229,-7.192 10.005,-9.278 l 34.387,29.45 c -10.205,10.682 -30.14,39.082 -12.555,83.058 6.526,17.029 9.112,32.372 9.384,45.847 h 0.144 v 32.933 c -0.901,9.236 -3.577,19.464 -9.027,30.629 -6.017,11.816 -8.258,20.424 -7.892,28.864 -0.208,-0.435 -0.327,-0.647 0.007,0.445 -0.008,-0.148 0,-0.297 -0.007,-0.445 0.178,0.373 0.419,0.906 0.508,0.946 0.004,0.079 1.165,0.088 1.169,0.167 1.719,0.866 1.941,1.64 3.842,1.671 -0.813,-8.639 1.799,-17.985 8.251,-30.656 1.217,-2.389 2.232,-4.754 3.149,-7.101 z"
             style="fill:#110f0d;fill-opacity:1;fill-rule:nonzero;stroke:none"
             id="path222" />
        </g>
        <g
           id="g224"
           transform="translate(236.5928,209.1641)">
          <path
             d="m 0,0 v -101.548 l 17.325,8.591 v 77.396 z m 17.324,-10.763 10e-4,56.789 H 0 V 4.786 Z m 21,47.669 v 9.12 H 28.14 Z M 38.323,-29.61 38.324,31.58 22.21,46.026 H 21 l -0.016,-60.074 z m -17.34,10.764 -0.017,-72.305 17.358,8.607 -10e-4,48.124 z M -3.675,3.301 -4.048,3.636 -20.229,18.167 v -74.523 -55.221 l 16.554,8.207 z M -20.229,22.941 -3.675,8.084 V 46.026 H -20.228 Z M 84.265,-9.604 84.25,-59.771 l 16.88,8.37 v 26.678 z m 16.865,-9.737 V 46.026 H 84.282 L 84.266,-4.239 Z M 59.356,12.725 41.994,28.29 41.978,-32.89 59.356,-48.487 Z M 80.607,-0.962 V 46.026 H 63.366 L 63.355,14.488 Z M 59.356,18.069 v 27.957 h -13.75 -3.607 l -0.003,-12.409 7.045,-6.309 z m 16.957,-81.776 4.294,2.129 V -6.325 L 63.354,9.141 63.335,-52.058 Z m -3.467,-1.719 -9.512,8.543 -0.004,-13.262 z m -30.869,27.725 -0.011,-43.038 17.39,8.624 v 18.804 z"
             style="fill:#ff9e1b;fill-opacity:1;fill-rule:nonzero;stroke:none"
             id="path226" />
        </g>
        <g
           id="g228"
           transform="translate(337.7227,255.1899)">
          <path
             d="M 0,0 H -16.848 L -16.864,-50.265 0,-65.367 Z"
             style="fill:#110f0d;fill-opacity:1;fill-rule:nonzero;stroke:none"
             id="path230" />
        </g>
        <g
           id="g232"
           transform="translate(253.918,116.207)">
          <path
             d="M 0,0 V 77.396 L -17.325,92.957 V -8.591 Z"
             style="fill:#110f0d;fill-opacity:1;fill-rule:nonzero;stroke:none"
             id="path234" />
        </g>
        <g
           id="g236"
           transform="translate(282.1992,255.1899)">
          <path
             d="M 0,0 H -3.607 L -3.61,-12.408 13.75,-27.957 V 0 Z"
             style="fill:#110f0d;fill-opacity:1;fill-rule:nonzero;stroke:none"
             id="path238" />
        </g>
        <g
           id="g240"
           transform="translate(216.3652,232.105)">
          <path
             d="M 0,0 16.553,-14.856 V 23.085 H 0 Z"
             style="fill:#110f0d;fill-opacity:1;fill-rule:nonzero;stroke:none"
             id="path242" />
        </g>
        <g
           id="g244"
           transform="translate(295.9492,155.8535)">
          <path
             d="M 0,0 -17.38,15.61 -17.391,-27.429 0,-18.805 Z"
             style="fill:#110f0d;fill-opacity:1;fill-rule:nonzero;stroke:none"
             id="path246" />
        </g>
        <g
           id="g248"
           transform="translate(317.2002,202.8389)">
          <path
             d="M 0,0 -17.254,15.466 -17.272,-45.732 -4.295,-57.382 0,-55.253 Z"
             style="fill:#110f0d;fill-opacity:1;fill-rule:nonzero;stroke:none"
             id="path250" />
        </g>
        <g
           id="g252"
           transform="translate(258.8027,255.1899)">
          <path
             d="m 0,0 h -1.21 l -0.016,-60.074 17.339,-15.562 0.001,61.19 z"
             style="fill:#110f0d;fill-opacity:1;fill-rule:nonzero;stroke:none"
             id="path254" />
        </g>
        <path
           d="m 195.7485,386.1582 -0.019,-69.252 16.961,-15.191 v 28.129 56.314 z m -0.034,-126.959 h 16.975 l 10e-4,38.034 -16.962,15.11 z m -3.641,61.003 v 32.978 32.978 h -17.409 l -0.013,-50.352 z m 0,-4.603 -8.711,7.76 -8.712,7.761 -0.017,-61.669 11.423,-10.252 h 6.017 v 28.2 z m -11.4,-56.4 -6.041,5.427 -0.001,-5.427 z m -9.683,75.181 -17.369,15.473 -0.018,-61.527 17.387,-15.604 z m -17.359,51.778 -0.009,-31.518 17.368,-15.555 v 47.073 z m -0.036,-126.959 h 17.395 v 8.699 l -17.388,15.62 z m -21.163,0 h 17.19 v 13.947 13.946 l -17.179,15.433 z m 17.19,32.7 v 61.516 l -16.164,14.399 c 0.001,10e-4 0.002,0.002 0.002,0.002 l -1,0.897 -0.016,-61.396 z m -17.161,81.694 17.161,-15.37 v 27.935 h -17.157 z m -20.995,-52.224 v -62.17 h 17.324 v 46.608 z m -3.675,3.302 -14.813,13.306 v -78.778 h 12.184 2.629 z m -14.813,61.487 v -43.418 l 14.813,-13.296 v 56.714 z m 35.812,-14.155 -15.79,14.155 h -1.534 v -60.012 l 17.324,-15.549 z m 0,14.155 h -10.357 l 10.357,-9.276 z"
           style="fill:#ff9e1b;fill-opacity:1;fill-rule:nonzero;stroke:none"
           id="path258" />
        <g
           id="g260"
           transform="translate(212.6904,386.1582)">
          <path
             d="m 0,0 h -16.785 l -0.16,-9.224 -0.016,-60.028 L 0,-84.443 v 28.129 z"
             style="fill:#110f0d;fill-opacity:1;fill-rule:nonzero;stroke:none"
             id="path262" />
        </g>
        <path
           d="m 111.4668,321.3696 v -62.17 h 17.324 v 46.607 z"
           style="fill:#110f0d;fill-opacity:1;fill-rule:nonzero;stroke:none"
           id="path266" />
        <g
           id="g268"
           transform="translate(153.6318,386.1582)">
          <path
             d="M 0,0 -0.009,-31.518 17.359,-47.073 V 0 Z"
             style="fill:#110f0d;fill-opacity:1;fill-rule:nonzero;stroke:none"
             id="path270" />
        </g>
        <g
           id="g272"
           transform="translate(107.7915,386.1582)">
          <path
             d="M 0,0 H -14.813 V -43.418 L 0,-56.714 Z"
             style="fill:#110f0d;fill-opacity:1;fill-rule:nonzero;stroke:none"
             id="path274" />
        </g>
        <g
           id="g276"
           transform="translate(153.6025,283.5181)">
          <path
             d="m 0,0 -0.007,-24.319 h 17.395 v 8.699 z"
             style="fill:#110f0d;fill-opacity:1;fill-rule:nonzero;stroke:none"
             id="path278" />
        </g>
        <g
           id="g280"
           transform="translate(192.0737,304.0259)">
          <path
             d="m 0,0 -0.128,11.688 -17.295,15.406 -0.016,-61.669 11.422,-10.252 H 0 Z"
             style="fill:#110f0d;fill-opacity:1;fill-rule:nonzero;stroke:none"
             id="path282" />
        </g>
        <g
           id="g284"
           transform="translate(149.6226,353.415)">
          <path
             d="m 0,0 -16.163,14.399 c 0,0.001 0.001,0.002 0.001,0.002 l -1,0.897 -0.016,-61.396 L 0,-61.516 Z"
             style="fill:#110f0d;fill-opacity:1;fill-rule:nonzero;stroke:none"
             id="path286" />
        </g>
        <g
           id="g288"
           transform="translate(128.7905,386.1582)">
          <path
             d="M 0,0 H -10.357 L 0,-9.277 Z"
             style="fill:#110f0d;fill-opacity:1;fill-rule:nonzero;stroke:none"
             id="path290" />
        </g>
        <g
           id="g292"
           transform="translate(161.1567,157.5752)">
          <path
             d="M 0,0 V 1.717 C 0.007,1.719 0.016,1.72 0.023,1.722 v 21.065 h 0.275 v 1.387 h 1.328 v 0.013 H 0.298 v 0.038 h 1.328 v 0.137 H 0.023 v 0.051 h 20.49 0.813 0.905 c -0.218,-0.829 -0.372,-1.684 -0.372,-2.581 0,-5.621 4.556,-10.176 10.176,-10.176 5.62,0 10.176,4.555 10.176,10.176 0,0.412 -0.039,0.814 -0.095,1.21 0.3,0.047 0.609,0.128 0.917,0.224 l 0.002,0.028 c 4.407,1.28 7.629,5.055 7.675,9.577 H -7.382 C -7.446,32.87 -7.487,32.869 -7.536,32.868 v -49.907 -11.929 c 4.104,0.444 7.464,4.061 8.656,8.162 l 0.027,0.003 c 0.096,0.308 0.177,0.616 0.224,0.918 0.396,-0.057 0.798,-0.096 1.211,-0.096 5.62,0 10.176,4.556 10.176,10.175 0,5.62 -4.556,10.177 -10.176,10.177 C 1.684,0.371 0.829,0.218 0,0"
             style="fill:#862633;fill-opacity:1;fill-rule:nonzero;stroke:none"
             id="path294" />
        </g>
        <g
           id="g296"
           transform="translate(287.5166,312.7222)">
          <path
             d="M 0,0 V 0 -0.014 Z M 49.05,8.292 H -8.608 v -49.011 -11.827 c 3.853,0.647 6.964,3.626 8.102,7.544 L -0.479,-45 c 0.096,0.308 0.177,0.617 0.224,0.918 0.396,-0.057 0.798,-0.096 1.21,-0.096 5.621,0 10.177,4.556 10.177,10.176 0,5.62 -4.556,10.176 -10.177,10.176 -0.897,0 -1.752,-0.153 -2.581,-0.372 v 1.425 l -0.008,0.007 c 0.003,0 0.006,-0.001 0.008,-0.002 v 0.288 c 0.008,0.002 0.016,0.003 0.023,0.005 V 0 h -0.031 v 0.038 h 0.031 V 0.166 H 0 V 0.038 0.177 h -1.603 v 0.039 h 20.49 0.813 0.905 c -0.218,-0.829 -0.372,-1.684 -0.372,-2.581 0,-5.62 4.556,-10.177 10.176,-10.177 5.62,0 10.176,4.557 10.176,10.177 0,0.412 -0.039,0.814 -0.095,1.21 0.3,0.047 0.609,0.128 0.917,0.224 l 0.002,0.028 C 45.69,0.34 48.83,3.943 49.05,8.292"
             style="fill:#862633;fill-opacity:1;fill-rule:nonzero;stroke:none"
             id="path298" />
        </g>
        <g
           id="g300"
           transform="translate(216.875,324.6895)">
          <path
             d="m 0,0 h 14.368 43.99 v 60.946 c -0.025,-0.005 -0.049,-0.015 -0.075,-0.02 -0.355,-0.072 -0.7,-0.171 -1.041,-0.282 C 56.89,60.523 56.545,60.383 56.207,60.228 56.06,60.16 55.911,60.093 55.766,60.022 55.721,59.999 55.671,59.982 55.626,59.957 55.39,59.83 55.168,59.678 54.942,59.531 54.74,59.399 54.538,59.269 54.346,59.122 54.145,58.97 53.953,58.803 53.764,58.636 53.566,58.46 53.374,58.281 53.189,58.09 53.023,57.919 52.862,57.744 52.708,57.562 52.532,57.354 52.368,57.137 52.209,56.916 52.196,56.899 52.183,56.883 52.171,56.867 52.044,56.689 51.914,56.514 51.797,56.328 51.615,56.04 51.454,55.736 51.299,55.43 51.217,55.269 51.125,55.115 51.051,54.95 50.833,54.466 50.641,53.966 50.489,53.446 l -0.027,-0.002 c -0.096,-0.308 -0.177,-0.617 -0.224,-0.917 -0.396,0.056 -0.798,0.096 -1.211,0.096 -4.214,0 -7.831,-2.563 -9.376,-6.215 v -0.001 c -0.514,-1.218 -0.799,-2.555 -0.799,-3.961 0,-2.107 0.64,-4.065 1.738,-5.689 1.097,-1.625 2.65,-2.915 4.476,-3.687 1.218,-0.515 2.557,-0.8 3.961,-0.8 0.45,0 0.888,0.039 1.318,0.104 0.428,0.066 0.849,0.159 1.264,0.268 v -1.334 0 -0.384 -0.022 l 0.112,-0.13 c -0.033,-0.008 -0.076,0.007 -0.112,0.003 V 7.694 H 51.584 49.983 28.592 c 0.105,0.408 0.195,0.821 0.26,1.243 0.064,0.422 0.101,0.852 0.101,1.292 0,0.629 -0.075,1.239 -0.184,1.836 -0.025,0.126 -0.045,0.254 -0.074,0.379 -0.127,0.572 -0.296,1.129 -0.514,1.66 -0.037,0.09 -0.084,0.175 -0.123,0.263 -0.215,0.481 -0.465,0.942 -0.749,1.38 -0.052,0.08 -0.097,0.164 -0.152,0.242 -0.321,0.468 -0.686,0.904 -1.081,1.31 -0.086,0.089 -0.176,0.174 -0.264,0.259 -0.846,0.812 -1.829,1.479 -2.915,1.961 -0.14,0.063 -0.288,0.115 -0.432,0.171 -0.444,0.174 -0.903,0.317 -1.375,0.428 -0.141,0.032 -0.279,0.07 -0.422,0.097 -0.614,0.116 -1.243,0.191 -1.892,0.191 -2.809,0 -5.353,-1.139 -7.194,-2.981 v 0 H 11.581 C 9.739,15.583 8.601,13.04 8.601,10.229 8.601,9.817 8.64,9.415 8.696,9.019 v 0 C 8.396,8.972 8.088,8.891 7.778,8.795 L 7.776,8.767 C 7.766,8.764 7.756,8.758 7.744,8.755 7.259,8.612 6.793,8.432 6.338,8.231 6.295,8.211 6.245,8.2 6.201,8.18 6.131,8.148 6.067,8.105 5.997,8.072 5.578,7.87 5.174,7.649 4.789,7.401 4.698,7.345 4.617,7.278 4.528,7.219 2.095,5.548 0.284,2.967 0,0"
             style="fill:#862633;fill-opacity:1;fill-rule:nonzero;stroke:none"
             id="path302" />
        </g>
        <g
           id="g304"
           transform="translate(59.0327,125.123)">
          <path
             d="M 0,0 C 5.394,2.003 12.094,7.738 8.632,17.063 5.169,26.39 -3.65,26.362 -9.044,24.359 -14.438,22.357 -21.139,16.622 -17.676,7.296 -14.213,-2.03 -5.394,-2.002 0,0 m -1.292,3.479 c -5.881,-2.182 -11.376,-0.501 -13.392,4.928 -2.015,5.429 1.051,10.289 6.932,12.473 5.881,2.182 11.376,0.501 13.391,-4.927 C 7.655,10.524 4.589,5.664 -1.292,3.479 m 5.556,31.997 -0.352,3.583 -26.525,-2.606 0.352,-3.583 z m -8.401,13.011 c 4.48,0.206 8.988,3.461 9.47,10.311 0.544,7.739 -4.793,12.803 -12.977,13.379 -10.219,0.719 -14.561,-4.93 -14.985,-10.965 -0.141,-2 -0.27,-10.177 9.661,-12.364 l 0.245,3.48 c -6.098,1.657 -6.925,5.771 -6.761,8.104 0.463,6.591 5.433,8.474 11.692,8.034 6.998,-0.492 10.279,-4.63 9.94,-9.445 -0.179,-2.554 -1.304,-6.382 -6.04,-7.053 z m 13.049,30.971 1.297,3.359 -24.86,9.606 -1.298,-3.36 z m -6.367,33.648 -2.634,-12.798 3.127,-0.643 2.634,12.798 7.999,-1.647 -2.994,-14.543 3.127,-0.643 3.719,18.069 -26.105,5.374 -0.726,-3.527 z m 2.264,31.341 -0.422,-13.06 3.19,-0.103 0.422,13.06 8.162,-0.264 -0.479,-14.84 3.191,-0.103 0.595,18.439 -26.638,0.86 -0.117,-3.599 z m 0.754,14.688 c 5.713,0.684 13.571,4.69 12.388,14.568 -1.182,9.877 -9.763,11.916 -15.476,11.232 -5.713,-0.684 -13.57,-4.691 -12.388,-14.568 1.183,-9.878 9.764,-11.916 15.476,-11.232 m -0.44,3.685 c -6.229,-0.745 -11.178,2.177 -11.866,7.926 -0.688,5.75 3.43,9.757 9.659,10.503 6.229,0.746 11.177,-2.176 11.865,-7.926 0.689,-5.749 -3.43,-9.757 -9.658,-10.503"
             style="fill:#bfa060;fill-opacity:1;fill-rule:nonzero;stroke:none"
             id="path306" />
        </g>
        <g
           id="g308"
           transform="translate(317.7402,74.4609)">
          <path
             d="m 0,0 -15.479,-4.328 -2.399,8.58 14.05,3.928 -0.859,3.075 -14.049,-3.928 -2.2,7.864 15.229,4.258 -0.859,3.075 -18.698,-5.228 7.177,-25.668 18.947,5.298 z m -54.117,7.858 8.836,1.813 4.715,-22.981 3.527,0.724 -4.716,22.982 8.836,1.812 -0.642,3.127 -21.199,-4.35 z m -9.284,-19.556 -0.075,-0.008 -15.659,19.896 -4.242,-0.479 2.993,-26.484 3.467,0.392 -2.418,21.394 0.074,0.008 15.881,-19.872 4.022,0.455 -2.995,26.483 -3.466,-0.392 z m -43.348,3.091 4.02,11.818 0.073,0.002 4.183,-11.644 z m 9.643,-2.988 2.799,-7.7 3.934,0.083 -10.215,26.442 -4.081,-0.087 -9.456,-26.859 3.711,0.079 2.62,7.815 z m -24.599,11.037 c -0.183,4.48 -3.414,9.006 -10.262,9.523 -7.736,0.585 -12.827,-4.726 -13.446,-12.906 -0.773,-10.216 4.853,-14.587 10.888,-15.043 1.997,-0.151 10.174,-0.322 12.413,9.597 l -3.48,0.263 c -1.688,-6.09 -5.806,-6.895 -8.138,-6.719 -6.589,0.498 -8.446,5.478 -7.974,11.733 0.529,6.996 4.684,10.256 9.496,9.892 2.554,-0.193 6.376,-1.338 7.023,-6.077 z m -31.954,-2.203 c 1.054,5.657 -0.424,14.351 -10.205,16.171 -9.781,1.82 -14.288,-5.761 -15.34,-11.418 -1.053,-5.656 0.425,-14.351 10.206,-16.171 9.78,-1.82 14.288,5.761 15.339,11.418 m -3.649,0.679 c -1.148,-6.168 -5.413,-10.018 -11.106,-8.959 -5.692,1.061 -8.288,6.187 -7.141,12.354 1.148,6.168 5.414,10.018 11.107,8.959 5.694,-1.06 8.288,-6.187 7.14,-12.354 m -41.327,0.3 -0.071,0.022 -0.452,23.954 -3.824,1.202 1.292,-28.342 3.647,-1.146 17.265,22.512 -3.86,1.213 z"
             style="fill:#bfa060;fill-opacity:1;fill-rule:nonzero;stroke:none"
             id="path310" />
        </g>
        <g
           id="g312"
           transform="translate(352.0635,300.6401)">
          <path
             d="m 0,0 -0.457,-3.572 26.437,-3.382 0.457,3.571 z m 2.063,-41.883 -0.198,9.018 23.454,0.515 -0.079,3.6 -23.454,-0.516 -0.198,9.018 -3.192,-0.07 0.475,-21.635 z m 16.44,-22.672 -12.281,2.23 -0.013,0.073 10.899,5.856 z m 1.532,9.978 7.203,3.906 -0.663,3.878 -24.644,-14.006 0.689,-4.025 27.96,-5.386 -0.626,3.659 -8.116,1.437 z m -5.16,-49.626 -2.101,8.734 c -0.417,1.733 -0.795,4.734 3.211,5.698 3.826,0.92 5.126,-1.63 5.743,-4.193 l 1.953,-8.12 z m 11.801,2.839 -2.04,8.482 c -1.007,4.186 1.379,5.217 3.51,5.73 0.973,0.235 4.881,1.289 6.347,2.177 l -1.033,4.294 -0.577,-0.139 c -0.353,-1.23 -0.851,-1.54 -2.286,-1.924 l -4.64,-1.345 c -3.574,-1.012 -3.868,-2.648 -4.126,-4.276 -1.373,1.426 -3.25,3.035 -7.075,2.115 -5.485,-1.318 -5.941,-5.933 -4.917,-10.192 l 2.882,-11.982 25.913,6.233 -0.842,3.501 z m 3.789,-30.192 -11.973,3.533 -0.004,0.074 11.463,4.655 z m 2.591,9.757 7.579,3.112 -0.244,3.927 -26.001,-11.287 0.254,-4.076 27.222,-8.348 -0.23,3.705 -7.916,2.297 z m -7.564,-40.454 1.847,8.183 c 1.276,5.648 -2.35,8.636 -5.971,9.454 -4.2,0.948 -7.968,-1.246 -9.055,-6.061 l -2.641,-11.697 25.998,-5.869 0.793,3.513 z m -12.022,2.713 1.611,7.134 c 0.654,2.897 2.211,4.905 5.506,4.16 3.512,-0.793 4.189,-3.19 3.477,-6.34 l -1.578,-6.989 z"
             style="fill:#bfa060;fill-opacity:1;fill-rule:nonzero;stroke:none"
             id="path314" />
        </g>
        <path
           d="m 383.1201,110.1279 c -1.359,-1.812 -8.733,-11.806 -15.3,-9.485 l -27.853,25.966 c 10.006,10.156 30.881,37.691 11.419,83.665 -6.528,17.028 -9.691,34.261 -9.962,47.736 l -0.045,-0.003 0.004,25.675 h 0.117 c 0.271,10.581 2.857,22.629 9.385,36.001 4.841,9.509 7.043,17.879 7.533,25.217 8.059,-4.813 30.649,-19.054 35.879,-22.354 -12.64,-30.275 -10.433,-66.33 0.632,-108.186 2.61,-12.026 19.17,-66.777 -11.809,-104.232 m -6.922,235.108 c -0.57,-1.671 -1.256,-3.286 -1.766,-4.427 l -15.946,9.681 c -0.001,0.009 0,0.018 -0.001,0.027 -0.055,0.028 -0.116,0.05 -0.172,0.078 l -2.023,1.229 c -4.218,1.293 -9.232,0.835 -14.899,-5.126 l 0.005,36.924 c 4.821,-2.195 25.727,-16.776 34.969,-22.183 5.514,-3.675 2.006,-9.855 -0.167,-16.203 m -34.807,-4.804 c 0.002,-0.018 0.006,-0.043 0.006,-0.043 0,0 5.236,8.018 11.716,7.229 -0.114,-7.892 -2.363,-17.397 -7.774,-28.022 -1.658,-3.255 -2.902,-6.264 -3.952,-9.271 z m -0.017,-114.812 c 1.093,-5.324 2.605,-10.701 4.713,-15.969 19.054,-47.651 -3.5,-73.084 -11.742,-80.981 l 0.003,-0.002 c -0.304,-0.279 -0.613,-0.557 -0.936,-0.835 l -0.527,-0.451 c -19.269,-15.967 -70.845,-29.922 -111.407,-31.679 l 120.038,59.466 -0.153,0.233 z m -3.651,-67.857 -16.881,-8.37 0.015,50.167 16.866,-15.117 z m 0,32.06 -16.865,15.102 0.017,50.265 h 16.848 z m -28.285,-46.085 -9.515,-4.716 0.004,13.26 z m -9.49,79.914 0.011,31.538 h 17.241 v -46.988 z m 17.252,-20.813 v -55.253 l -4.295,-2.129 -12.977,11.65 0.018,61.198 z m 20.523,114.949 v -58.589 h -55.524 -0.549 c 3.201,1.368 5.717,4.179 6.83,7.707 6.522,0.005 11.805,5.292 11.805,11.814 0,6.525 -5.288,11.814 -11.813,11.814 -0.324,0 -0.639,-0.029 -0.956,-0.055 v 20.833 1.576 h -1.602 v -22.641 c -0.008,-0.002 -0.017,-0.003 -0.023,-0.005 v -1.718 c 0.829,0.219 1.683,0.372 2.581,0.372 5.62,0 10.176,-4.556 10.176,-10.176 0,-5.62 -4.556,-10.176 -10.176,-10.176 -0.413,0 -0.815,0.039 -1.21,0.096 -0.047,-0.301 -0.128,-0.61 -0.224,-0.918 l -0.028,-0.002 c -1.137,-3.918 -4.248,-6.897 -8.102,-7.544 v 11.827 49.012 h 57.658 c -0.219,-4.35 -3.359,-7.953 -7.64,-9.196 l -0.002,-0.028 c -0.309,-0.096 -0.617,-0.177 -0.917,-0.224 0.055,-0.396 0.094,-0.798 0.094,-1.21 0,-5.62 -4.555,-10.177 -10.175,-10.176 -5.62,0 -10.176,4.556 -10.176,10.176 0,0.897 0.152,1.752 0.372,2.581 h -0.905 -0.814 -20.489 v -0.039 h 1.602 v -1.587 h 18.652 c -0.027,-0.316 -0.057,-0.632 -0.057,-0.956 0,-6.524 5.289,-11.814 11.815,-11.814 6.521,0 11.808,5.286 11.813,11.806 3.755,1.185 6.733,3.941 7.984,7.44 m 0,9.699 c -1.251,3.5 -4.23,6.256 -7.984,7.441 -0.005,6.52 -5.292,11.805 -11.813,11.805 -6.526,0 -11.815,-5.289 -11.815,-11.814 0,-0.323 0.03,-0.639 0.056,-0.956 h -18.651 v 20.834 c 0.317,-0.026 0.632,-0.055 0.956,-0.055 6.525,0 11.813,5.289 11.813,11.814 0,6.522 -5.284,11.809 -11.805,11.813 -1.133,3.595 -3.719,6.452 -7.008,7.789 h 56.251 z m -9.716,6.222 c 0.3,-0.047 0.608,-0.129 0.917,-0.224 l 0.002,-0.028 c 4.138,-1.202 7.203,-4.612 7.602,-8.767 h -57.62 v 60.41 c 3.854,-0.647 6.964,-3.626 8.102,-7.544 l 0.028,-0.002 c 0.095,-0.309 0.177,-0.617 0.224,-0.918 0.395,0.056 0.796,0.096 1.21,0.096 5.62,0 10.175,-4.556 10.175,-10.176 0,-5.62 -4.555,-10.177 -10.175,-10.177 -0.899,0 -1.752,0.154 -2.581,0.373 v -1.719 c 0.006,-0.002 0.014,-0.002 0.023,-0.004 v -22.641 h 1.602 v -0.014 h -1.602 v -0.037 h 20.488 0.815 0.903 c -0.218,0.83 -0.37,1.685 -0.37,2.582 0,5.62 4.556,10.176 10.176,10.176 5.62,0 10.175,-4.556 10.175,-10.176 0,-0.413 -0.039,-0.814 -0.094,-1.21 m -49.415,-78.519 h 3.607 13.75 v -27.957 l -17.36,15.549 z m -0.005,-17.736 17.362,-15.565 v -61.212 l -17.379,15.597 z m -0.019,-65.99 17.381,-15.608 v -18.806 l -17.391,-8.625 z m -3.335,100.539 v -12.247 c -3.745,0.726 -6.754,3.661 -7.869,7.5 l -0.027,0.002 c -0.096,0.308 -0.177,0.617 -0.224,0.917 -0.396,-0.056 -0.798,-0.095 -1.211,-0.095 -5.62,0 -10.176,4.556 -10.176,10.176 0,5.62 4.556,10.176 10.176,10.176 0.899,0 1.753,-0.153 2.582,-0.372 v 1.334 0.384 23.23 h -0.025 -1.601 -21.391 c 0.212,-0.815 0.36,-1.654 0.361,-2.535 -0.001,-5.62 -4.557,-10.176 -10.177,-10.176 -5.62,0 -10.176,4.556 -10.176,10.176 0,0.413 0.04,0.814 0.095,1.21 -0.3,0.048 -0.607,0.129 -0.917,0.224 l -0.002,0.028 c -4.243,1.232 -7.359,4.783 -7.63,9.08 h 14.222 43.99 z m 0,113.633 v -60.946 h -43.99 -14.194 c 0.399,4.155 3.464,7.565 7.602,8.767 l 0.002,0.027 c 0.309,0.096 0.617,0.177 0.918,0.225 -0.056,0.396 -0.096,0.797 -0.096,1.21 0,5.62 4.556,10.176 10.176,10.176 5.621,0 10.177,-4.556 10.177,-10.176 -0.001,-0.881 -0.149,-1.721 -0.361,-2.536 h 21.391 1.6 0.026 v 23.23 0.385 1.333 c -0.83,-0.218 -1.683,-0.371 -2.582,-0.371 -5.62,0 -10.176,4.556 -10.176,10.176 0,5.62 4.556,10.176 10.176,10.176 0.413,0 0.815,-0.039 1.21,-0.096 0.048,0.301 0.129,0.609 0.225,0.918 l 0.027,0.002 c 1.115,3.839 4.124,6.773 7.869,7.5 m -3.599,0.522 c -2.684,-1.502 -4.755,-4.086 -5.741,-7.208 -6.519,-0.005 -11.804,-5.292 -11.804,-11.814 0,-6.525 5.289,-11.814 11.813,-11.814 0.323,0 0.64,0.028 0.956,0.055 v -21.414 h -19.448 c 0.026,0.316 0.056,0.633 0.056,0.956 0,6.525 -5.289,11.814 -11.815,11.814 -6.521,0 -11.808,-5.285 -11.813,-11.806 -3.337,-1.052 -6.03,-3.362 -7.474,-6.317 v 1.234 l 0.001,56.314 z m 3.283,-259.538 -17.359,-8.606 0.017,72.306 17.341,-15.575 z m -10.185,128.57 h 10.185 v -9.12 z m 10.185,-14.446 -0.001,-61.19 -17.339,15.562 0.015,60.074 h 1.21 z m -58.553,18.455 v 57.581 c 1.444,-2.954 4.137,-5.263 7.474,-6.316 0.005,-6.52 5.292,-11.805 11.813,-11.805 6.526,0 11.815,5.289 11.815,11.814 0,0.323 -0.03,0.639 -0.056,0.956 h 19.448 v -21.414 c -0.315,0.026 -0.633,0.055 -0.956,0.055 -6.524,0 -11.813,-5.289 -11.813,-11.814 0,-6.522 5.285,-11.809 11.804,-11.814 0.995,-3.149 3.095,-5.747 5.813,-7.243 z m 37.552,-60.798 -17.323,15.549 v 41.24 h 17.325 z m 0.002,-4.797 v -77.397 l -17.325,-8.59 v 101.547 z m -37.554,38.501 0.001,23.085 h 16.553 v -37.941 z m 0,-79.297 v 74.523 l 16.554,-14.866 v -106.671 l -16.554,-8.207 z m -3.144,-63.917 c 31.928,0 74.861,9.125 102.337,21.073 l 19.464,-34.784 c 0.185,-10.059 -67.71,-27.767 -119.989,-28.11 -54.433,-0.357 -111.303,13.49 -121.156,27.922 l 21.85,34.607 c 25.497,-12.797 61.223,-20.708 97.494,-20.708 m -0.53,297.267 v -56.314 -28.129 l -16.961,15.191 0.019,69.252 z m -16.962,-73.815 16.962,-15.11 -0.001,-38.034 h -16.975 z m -3.653,3.256 -0.001,-56.4 h -6.017 l -11.423,10.252 0.016,61.669 z m 0,4.603 -17.424,15.605 0.013,50.351 h 17.41 z m -17.442,-55.576 6.041,-5.427 h -6.042 z m -3.642,-5.427 h -17.395 l 0.006,24.319 17.389,-15.62 z m 0,13.523 -17.388,15.604 0.018,61.527 17.37,-15.473 z m 0,66.364 -17.369,15.555 0.01,31.517 h 17.359 z m -21.045,-209.791 c -0.096,0.02 -0.184,0.053 -0.279,0.075 l -3.973,1.971 c -1.644,1.361 -2.893,3.247 -3.528,5.429 l -0.026,0.003 c -0.096,0.308 -0.178,0.616 -0.225,0.917 -0.397,-0.056 -0.797,-0.096 -1.211,-0.096 -5.62,0 -10.175,4.556 -10.175,10.176 0,5.62 4.555,10.177 10.175,10.176 0.898,0 1.753,-0.153 2.583,-0.371 v 1.334 0.384 23.23 l -0.026,0.001 -1.6,-0.001 h -21.393 c 0.212,-0.815 0.362,-1.654 0.362,-2.536 0,-5.62 -4.556,-10.176 -10.177,-10.176 -5.62,0 -10.175,4.556 -10.175,10.176 0,0.413 0.038,0.814 0.095,1.211 -0.3,0.047 -0.609,0.128 -0.918,0.223 l -0.002,0.028 c -2.816,0.818 -5.144,2.66 -6.475,5.06 v 3.938 h 14.402 l 42.566,-0.001 v -49.91 z m 0,64.826 h -42.566 -14.402 v 3.326 c 1.331,2.4 3.659,4.241 6.475,5.059 l 0.002,0.028 c 0.31,0.096 0.619,0.177 0.918,0.224 -0.057,0.396 -0.095,0.798 -0.095,1.211 0,5.62 4.555,10.176 10.175,10.176 5.621,0 10.177,-4.556 10.177,-10.176 0,-0.882 -0.15,-1.721 -0.362,-2.536 h 21.393 1.6 0.026 v 23.23 0.384 1.334 c -0.83,-0.218 -1.685,-0.372 -2.583,-0.372 -5.62,0 -10.175,4.556 -10.175,10.177 0,5.62 4.555,10.175 10.175,10.175 0.414,0 0.814,-0.039 1.211,-0.095 0.047,0.3 0.128,0.609 0.225,0.917 l 0.026,0.003 c 1.106,3.806 4.078,6.718 7.78,7.475 z m -0.324,65.078 h -17.189 l 0.01,43.326 17.179,-15.432 z m 0,32.7 -17.177,15.418 0.015,61.396 1,-0.897 c 0,-10e-4 -0.001,-10e-4 -0.001,-0.002 l 16.163,-14.399 z m 0,66.324 -17.161,15.37 0.005,12.565 h 17.156 z m -20.832,-99.024 h -17.323 v 62.171 l 17.323,-15.563 z m 0,51.398 -17.323,15.549 v 60.012 h 1.533 l 15.79,-14.155 z m 0,66.284 -10.357,9.277 h 10.357 z m -20.999,-117.682 h -2.629 -12.184 v 78.779 l 14.813,-13.307 z m 0,70.245 -14.813,13.296 v 43.418 h 14.813 z m -53.192,31.995 c 8.905,5.209 28.588,18.897 34.333,21.859 v -35.958 c -5.404,5.336 -10.2,5.728 -14.256,4.483 l -2.024,-1.228 c -0.056,-0.028 -0.116,-0.05 -0.172,-0.078 -10e-4,-0.009 0,-0.018 -10e-4,-0.027 l -15.945,-9.681 c -0.511,1.141 -1.196,2.756 -1.768,4.427 -2.171,6.348 -5.679,12.528 -0.167,16.203 m 17.514,-16.801 c 0.37,-5.111 1.73,-10.488 4.336,-16.744 1,-2.642 2.185,-5.37 3.632,-8.211 0.799,-1.637 1.536,-3.254 2.22,-4.851 h 0.119 c 3.765,-9.002 5.763,-17.362 6.512,-25.027 v -32.933 h -0.144 c -0.272,-13.475 -2.857,-28.818 -9.385,-45.847 -17.584,-43.974 2.351,-72.376 12.556,-83.057 l -34.387,-29.45 c -4.776,2.088 -9.008,7.922 -10.006,9.277 -30.977,38.172 -14.417,93.968 -11.807,106.225 10.882,41.955 13.165,78.18 1.212,108.716 5.593,3.53 26.893,16.953 35.142,21.902 m 5.739,2.98 c 5.152,0.627 9.506,-4.301 11.08,-6.352 v -26.941 c -0.917,2.347 -1.932,4.712 -3.149,7.101 -3.337,6.554 -5.627,12.206 -6.967,17.343 -0.604,3.129 -0.924,6.093 -0.964,8.849 m 44.415,-143.649 c 0,6.524 -5.289,11.814 -11.814,11.814 -6.521,0 -11.808,-5.285 -11.813,-11.806 -2.24,-0.707 -4.176,-1.994 -5.662,-3.644 v 54.857 h 12.184 41.247 c -2.669,-1.504 -4.731,-4.079 -5.712,-7.191 -6.521,-0.004 -11.806,-5.292 -11.806,-11.813 0,-6.525 5.289,-11.815 11.813,-11.815 0.324,0 0.641,0.029 0.957,0.056 v -21.414 h -19.449 c 0.027,0.316 0.055,0.632 0.055,0.956 m 0,-23.982 c 0,0.324 -0.028,0.64 -0.055,0.956 h 19.449 v -21.414 c -0.316,0.026 -0.633,0.055 -0.957,0.055 -6.523,0 -11.813,-5.289 -11.813,-11.814 0,-6.522 5.285,-11.809 11.806,-11.813 0.312,-0.991 0.761,-1.907 1.277,-2.772 l -48.996,24.295 v 26.142 c 1.486,-1.649 3.422,-2.936 5.662,-3.643 0.005,-6.521 5.292,-11.806 11.813,-11.806 6.525,0 11.814,5.289 11.814,11.814 m 85.774,-84.406 c -46.608,0.799 -84.112,14.031 -108.65,31.835 l 0.097,-0.085 c -9.358,9.986 -31.439,40.478 -14.206,83.574 1.436,3.59 2.614,7.142 3.65,10.659 v -65.918 l 0.006,-0.004 v -1.082 z m 4.649,2.539 -59.07,29.29 v 0.01 c 4.742,0.441 8.653,3.868 10.126,8.536 6.521,0.005 11.807,5.292 11.807,11.814 0,6.525 -5.289,11.815 -11.814,11.815 -0.325,-0.001 -0.64,-0.029 -0.956,-0.056 v 22.463 h -1.603 l 10e-4,-22.695 c -0.009,-0.002 -0.017,-0.002 -0.024,-0.004 v -1.718 c 0.829,0.218 1.684,0.371 2.582,0.371 5.619,0 10.175,-4.556 10.175,-10.176 0,-5.62 -4.556,-10.176 -10.175,-10.176 -0.413,0 -0.815,0.039 -1.211,0.096 -0.048,-0.301 -0.129,-0.609 -0.224,-0.917 l -0.028,-0.003 c -1.192,-4.102 -4.552,-7.148 -8.656,-7.593 v 11.359 49.911 l 58.246,0.001 c -0.044,-4.523 -3.267,-8.299 -7.675,-9.579 l -0.002,-0.028 c -0.309,-0.095 -0.616,-0.176 -0.917,-0.223 0.056,-0.397 0.096,-0.798 0.096,-1.211 0,-5.62 -4.557,-10.175 -10.177,-10.175 -5.619,0 -10.175,4.555 -10.175,10.175 0,0.898 0.153,1.752 0.372,2.582 h -0.906 -0.813 -20.488 v -0.051 h 1.602 v -1.576 h 18.65 c -0.026,-0.316 -0.056,-0.63 -0.056,-0.955 0,-6.525 5.29,-11.814 11.814,-11.814 6.521,0 11.809,5.285 11.814,11.806 3.51,1.107 6.307,3.603 7.684,6.78 l 0.001,-33.371 z m -49.907,103.529 v 22.43 c 0.316,-0.027 0.631,-0.056 0.956,-0.056 6.524,0 11.813,5.29 11.813,11.815 0,6.521 -5.285,11.808 -11.806,11.813 -1.069,3.391 -3.437,6.115 -6.459,7.539 h 55.403 v -57.761 c -1.377,3.178 -4.175,5.673 -7.686,6.78 -0.004,6.522 -5.291,11.806 -11.813,11.806 -6.524,0 -11.814,-5.289 -11.814,-11.814 0,-0.324 0.03,-0.64 0.056,-0.956 h -18.65 v -1.575 h -1.603 v -0.051 h 20.489 0.813 0.906 c -0.219,0.829 -0.372,1.684 -0.372,2.582 0,5.62 4.556,10.176 10.175,10.176 5.62,0 10.177,-4.556 10.177,-10.176 0,-0.413 -0.04,-0.814 -0.097,-1.211 0.302,-0.047 0.611,-0.128 0.918,-0.224 l 0.002,-0.027 c 4.09,-1.188 7.131,-4.531 7.59,-8.618 h -58.161 v 60.309 c 4.104,-0.444 7.464,-3.491 8.655,-7.592 l 0.029,-0.003 c 0.095,-0.308 0.176,-0.617 0.224,-0.917 0.396,0.056 0.798,0.095 1.211,0.095 5.619,0 10.175,-4.555 10.175,-10.175 0,-5.621 -4.556,-10.177 -10.176,-10.177 -0.897,0 -1.752,0.154 -2.581,0.372 v -1.718 c 0.006,-0.002 0.015,-0.002 0.024,-0.004 v -22.662 z m -96.277,-103.299 28.659,24.556 c 4.431,-3.793 9.643,-7.351 15.51,-10.63 l -19.981,-30.594 c -5.888,10.413 -19.288,15.216 -24.188,16.668 m 272.101,-17.5 -17.89,31.484 c 6.447,3.125 11.768,6.404 15.556,9.738 l 23.767,-22.843 c -10.692,-3.739 -18.455,-13.932 -21.433,-18.379 m 63.891,128.875 c -1.49,9.128 -22.635,66.607 -2.35,112.376 0.093,0.878 0.209,2.009 -0.494,3.063 -0.729,0.729 -1.902,1.631 -3.717,2.588 l -16.987,10.313 c 6.313,18.082 7.973,21.159 1.927,26.715 -28.732,17.873 -39.35,25.22 -39.35,25.22 l -0.241,-0.167 h -226.956 l -0.028,0.025 c -0.008,-0.008 -0.015,-0.016 -0.022,-0.025 h -24.601 l -0.241,0.167 c 0,0 -0.099,-0.068 -0.244,-0.167 h -0.295 v -0.202 c -2.469,-1.68 -13.743,-9.257 -38.81,-24.851 -6.046,-5.557 -4.386,-8.633 1.927,-26.715 l -16.988,-10.313 c -1.686,-0.89 -2.802,-1.726 -3.538,-2.426 -0.077,0.008 -0.152,0.026 -0.228,0.032 -0.321,-0.307 -0.89,0.064 -0.723,-1.538 0.08,-0.182 0.145,-0.368 0.223,-0.55 -0.01,-0.415 0.018,-0.815 0.055,-1.169 1.06,-2.391 1.97,-4.823 2.812,-7.269 h 0.278 c 14.316,-44.876 -4.322,-96.822 -5.717,-105.536 -19.797,-86.145 23.101,-115.256 27.61,-118.047 -0.079,-0.117 -0.143,-0.2 -0.187,-0.238 0.162,0.026 0.315,0.038 0.475,0.061 0.067,-0.04 0.119,-0.069 0.119,-0.069 0,0 0.048,0.041 0.117,0.099 25.998,3.601 32.7,-22.317 32.7,-22.317 23.492,-17.288 71.513,-28.336 124.667,-28.336 48.234,0 103.49,12.35 126.207,26.996 0.456,0.199 0.73,0.39 0.73,0.463 0.019,0.014 0.044,0.028 0.064,0.042 0.074,0.223 0.109,0.421 0.159,0.63 10.989,28.384 31.687,25.438 33.594,25.1 0.006,-0.006 0.034,-0.029 0.034,-0.029 0,0 0.027,0.015 0.032,0.017 0.054,-0.01 0.09,-0.017 0.09,-0.017 l -0.025,0.055 c 2.006,1.15 48.352,28.781 27.922,116.019"
           style="fill:#bfa060;fill-opacity:1;fill-rule:nonzero;stroke:none"
           id="path318" />
        <g
           id="g320"
           transform="translate(251.3652,284.2588)">
          <path
             d="m 0,0 -75.529,-26.801 c 0,0 -8.477,7.478 -8.222,0 0.608,0 -7.631,-0.213 -1.844,-6.913 0,-0.914 -15.212,-12.273 -15.212,-12.273 0,0 -27.335,-4.656 -34.414,-10.355 -0.913,-0.781 -3.654,-3.046 -1.827,-6.7 2.726,-3.545 5.177,-10.66 5.177,-10.66 0,0 3.046,-4.568 8.832,0 0.914,2.133 41.103,31.065 41.103,31.065 l 140.922,55.354 -0.207,3.729 c 0,0 -0.369,2.895 -6.489,0.303 C 47.683,15.525 0,0 0,0"
             style="fill:#bfa060;fill-opacity:1;fill-rule:nonzero;stroke:none"
             id="path322" />
        </g>
        <g
           id="g324"
           transform="translate(310.1445,300.7051)">
          <path
             d="m 0,0 0.105,-1.907 -9.69,-3.721 -1.72,4.471 c 2.393,0.749 4.112,1.273 4.816,1.46 C -0.369,2.895 0,0 0,0 m -12.36,-1.488 1.602,-6.548 -7.888,-3.099 c -2.046,2.999 0.493,7.766 0.493,7.766 l -0.925,-0.25 c 2.51,0.801 4.787,1.524 6.718,2.131 m -8.469,-2.69 -0.413,-3.02 -35.898,-12.814 c -0.609,2.282 -1.799,3.137 -2.197,3.368 l 0.558,0.198 c 0,0 22.373,7.285 37.95,12.268 m -113.479,-39.069 71.918,25.52 c -0.26,-0.516 -0.941,-2.124 -0.569,-4.355 l -72.112,-25.148 -2.476,-0.985 c -0.07,0.118 -0.406,0.663 -0.486,0.782 0.75,0.853 0.72,3.456 -0.402,3.905 -2.639,2.199 -3.248,0.854 -3.358,-0.324 -0.298,0.076 -0.728,0.155 -1.338,0.235 -1.056,-0.135 -1.827,-0.385 -2.406,-0.697 1.251,1.001 3.323,1.067 3.006,1.067 -0.253,7.478 8.223,0 8.223,0 m -4.611,-3.208 c -0.547,0.541 -1.22,1.07 -2.032,1.569 0.258,0.691 0.728,1.358 0.846,1.358 1.962,-0.436 1.644,-1.935 1.186,-2.927 m 0.802,-7.293 c -0.783,-0.914 -4.679,-1.119 -4.787,1.522 1.314,3.104 -2.096,4.255 -3.079,4.514 -0.996,3.194 2.636,3.015 2.636,3.015 0,0 0.028,0.003 0.069,0.008 2.125,-1.236 7.288,-4.781 5.161,-9.059 m 1.458,3.423 0.065,-0.103 20.824,7.504 c -0.419,-2.305 -2.255,-6.919 -10.317,-4.519 -0.598,0.897 -4.326,-7.91 -10.419,-5.234 0.021,0.101 0.034,0.178 0.034,0.178 0,0 0.129,0.9 -0.187,2.174 m -40.592,-24.163 c -2.285,-1.218 -0.762,1.675 -0.762,1.675 l 7.462,5.178 2.588,1.218 c 0,0 -8.832,-7.918 -9.288,-8.071 m 32.607,23.937 c 0.615,-0.951 1.121,-2.342 1.245,-4.458 0.324,-0.529 4.214,-1.247 5.695,0.177 1.159,-0.098 7.636,-0.329 12.007,6.012 -0.072,0.051 -0.073,0.089 0.067,0.089 -0.022,-0.032 -0.045,-0.057 -0.067,-0.089 0.632,-0.45 8.645,-2.358 10.422,3.366 l 0.914,3.038 51.846,18.683 c 0.406,-1.112 1.078,-2.378 2.132,-3.796 l -80.332,-31.554 c 0,0 -40.189,-28.933 -41.103,-31.064 -5.786,-4.569 -8.832,0 -8.832,0 0,0 -2.451,7.114 -5.177,10.659 -1.827,3.654 0.915,5.919 1.827,6.7 4.53,3.647 17.348,6.864 25.997,8.71 -2.306,-1.752 -12.159,-9.263 -12.294,-9.801 -1.523,-2.131 2.284,-2.055 2.284,-2.055 l 16.125,13.083 c 1.439,0.27 2.303,0.418 2.303,0.418 0,0 12.982,9.697 14.941,11.882 m 4.014,-10.067 c -0.174,-1.111 -0.927,-1.412 -0.927,-1.412 l -0.696,0.487 c 0.47,0.284 1.019,0.595 1.623,0.925 m -4.84,-3.302 c 0.274,0.301 0.918,0.899 2.284,1.793 0.781,-0.457 1.876,-1.217 2.162,-2.027 1.476,0.308 1.891,2.65 2.238,4.497 1.132,0.568 2.448,1.186 3.974,1.857 0.065,-0.194 0.125,-0.396 0.153,-0.643 0.384,-3.35 -2.954,-7.874 -6.049,-7.874 -2.02,0 -3.777,0.964 -4.762,2.397 m 87.941,37.912 c -1.19,-0.46 -1.818,-0.655 -2.146,-0.742 -1.127,1.903 -4.016,7.395 -0.771,8.767 2.663,0.519 2.906,-5.992 2.917,-8.025 m 27.78,12.431 v -1.918 l -26.952,-10.587 c 0.096,1.783 0.035,3.22 -0.117,4.387 l 35.385,12.975 -0.245,-1.964 z m 16.492,12.872 c -3.225,-1.152 -19.718,-6.216 -39.816,-12.96 -30.147,-10.116 -68.313,-23.457 -81.252,-28.62 -0.18,-0.54 -7.11,8.46 -9.18,0 0.18,0 -8.64,-3.937 -1.943,-7.38 0,-0.72 -14.257,-11.481 -14.257,-11.481 0,0 -27.495,-6.519 -30.96,-8.319 -0.72,-0.36 -9.72,-3.6 -5.76,-11.16 0,0.09 3.528,-5.328 4.68,-9.36 0.045,-0.577 4.037,-7.56 11.379,0 l 33.71,25.094 c 1.29,-1.711 3.467,-2.841 5.948,-2.841 3.969,0 6.496,2.986 7.37,6.426 0.492,1.936 0.551,3.298 0.324,4.277 2.016,0.848 4.309,1.761 7.005,2.756 6.309,2.304 126.864,49.608 126.864,49.608 v 5.112 c 0,0 1.584,4.896 -14.112,-1.152"
             style="fill:#68501b;fill-opacity:1;fill-rule:nonzero;stroke:none"
             id="path326" />
        </g>
        <g
           id="g328"
           transform="translate(295.7725,222.2002)">
          <path
             d="m 0,0 c 0.007,0.273 -6.302,2.648 -7.685,5.669 -1.971,1.418 -10.061,5.694 -10.061,5.694 l -0.844,0.763 c 0,0 12.039,9.142 18.966,2.24 C 1.196,14.344 6.073,4.467 0,0 m 5.458,-2.866 c 11.479,20.75 -17.411,30.698 -19.816,31.411 -10.994,3.022 -15.598,-5.742 -15.871,-5.735 -1.01,0.504 -2.174,0.297 -3.084,0.082 l -2.291,0.764 -0.139,-0.127 c -43.026,29.832 -100.021,53.519 -101.545,54.15 0.823,4.116 -2.167,4.707 -2.167,4.707 0,0 -4.504,0.676 -7.041,0.437 -0.563,0.245 -1.232,0.782 -1.861,1.025 -1.822,3.934 -7.961,6.005 -11.3,5.881 -5.383,-0.953 -12.812,-6.936 -4.413,-15.288 0.989,-0.642 6.756,-4.824 14.214,-2.991 3.213,-4.643 7.681,-3.31 8.954,-1.341 16.169,-7.551 36.399,-18.824 36.591,-18.829 10.872,-6.696 65.395,-36.581 65.359,-37.947 -5.99,-9.548 9.397,-6.534 9.944,-6.548 -0.608,-2.308 6.013,-6.172 7.477,-6.757 7.197,-1.829 12.669,-6.893 12.382,-7.432 1.307,-3.668 7.634,-0.747 7.62,-1.293 -3.18,-3.959 2.116,-2.728 2.116,-2.728 l 4.175,2.837 C 7.674,-12.219 8.86,-8.696 8.86,-8.696 l -1.084,4.949 c 0,0 -2.325,0.608 -2.318,0.881"
             style="fill:#bfa060;fill-opacity:1;fill-rule:nonzero;stroke:none"
             id="path330" />
        </g>
        <g
           id="g332"
           transform="translate(275.7217,244.1729)">
          <path
             d="m 0,0 c -0.334,-0.112 -0.623,-0.189 -0.832,-0.208 -4.742,-0.345 -3.834,1.764 -3.913,1.999 0.695,1.302 2.014,1.891 3.495,2.087 0.256,0.034 0.521,0.038 0.785,0.05 C -0.37,2.971 -0.119,0.948 0,0 M 0.394,3.939 C 3.196,3.854 5.989,2.861 5.989,2.861 c 0,0 -3.122,-1.721 -5.258,-2.586 z m -1.062,-4.731 c 1.918,0.169 8.249,3.885 8.249,3.885 0,0 -10.431,3.99 -13.268,-1.321 0.103,-0.302 -1.062,-3.006 5.019,-2.564 M 14.1,-2.682 C 8.758,-2.679 3.614,-5.346 3.614,-5.346 l -1.253,-0.873 0.07,2.652 c 1.238,0.64 7.882,3.887 12.778,2.524 0,0 1.463,-1.542 -1.109,-1.639 M 1.634,-3.721 1.554,-6.781 -1.398,-8.837 c 0,0 -1.987,0.325 -2.286,2.274 -0.066,0.849 -0.713,2.233 2.029,2.517 0.562,0.125 2.359,0.261 3.289,0.325 m 14.345,2.794 C 12.526,2.259 1.647,-3.173 1.647,-3.173 c 0,0 -3.498,0.007 -4.08,-0.279 -3.03,-0.741 -2.196,-3.496 -1.937,-4.05 0.731,-2.353 2.947,-2.291 2.947,-2.291 l 2.953,2.109 c 0,0 1.073,0.246 1.08,0.519 3.511,3.599 11.96,3.654 12.739,4.15 1.412,0.701 0.904,1.999 0.63,2.088 m 12.521,-27.864 0.411,-1.878 c 0,0 -1.083,-3.191 -3.712,-0.333 0.638,0.417 2.518,1.649 3.301,2.211 m -0.132,0.603 c -0.861,-0.584 -3.283,-2.222 -3.602,-2.385 -0.009,-0.008 -0.003,-0.019 -0.01,-0.027 l -4.118,-2.797 c 0,0 -3.94,-1.04 -2.354,2.259 1.12,0.382 3.988,2.451 7.777,5.971 0.686,-0.268 1.766,-0.553 1.766,-0.553 z m -26.623,12.467 0.002,-0.93 c -0.938,1.056 -0.461,1.06 -0.002,0.93 m 23.764,-9.117 c 0,-0.015 0.029,-0.033 0.041,-0.049 -0.673,-0.619 -5.604,-5.11 -7.279,-5.641 -0.272,-0.009 -0.747,-0.113 -1.334,-0.23 l -0.012,3.337 c 0.239,-0.147 0.406,-0.251 0.406,-0.251 l 0.038,1.462 2.51,-0.066 0.41,-0.011 c 0.432,0.85 -0.795,0.964 -0.795,0.964 l -2.086,0.598 0.017,0.649 -0.514,0.325 -0.009,2.365 c 1.183,-0.767 2.404,-1.381 3.472,-1.555 0.144,0 7.056,4.445 1.8,14.616 0,0 -3.888,7.301 -13.68,2.808 -0.144,0 -7.013,-3.264 -7.344,-4.032 -0.311,0 -0.029,-0.328 0.584,-0.832 l 0.008,-3.928 c -0.626,-0.223 -2.713,-1.208 0.007,-3.602 l -0.022,-5.051 c -1.017,0.383 -2.085,0.732 -3.207,1.017 -1.464,0.585 -8.085,4.449 -7.477,6.757 -0.491,0.013 -12.945,-2.411 -11.138,4.012 1.544,-0.998 4.676,-1.832 4.676,-1.832 0,0 3.653,-0.424 5.565,4.801 0.953,2.229 0.206,9.027 0.139,9.616 1.41,1.878 6.123,7.715 15.407,5.163 2.406,-0.713 31.296,-10.661 19.817,-31.41 M -10.43,-7.881 c -1.648,-4.501 -4.794,-4.136 -4.794,-4.136 0,0 -4.259,1.157 -4.362,1.748 -0.019,0.137 0.165,0.604 0.47,1.261 0.073,0.123 0.134,0.24 0.215,0.368 0,0.007 -0.021,0.025 -0.023,0.033 1.399,2.902 4.56,8.506 4.742,8.502 0.875,1.06 3.74,-0.084 3.74,-0.084 0,0 0.72,-6.12 0.012,-7.692 m -3.603,8.84 c -0.055,-0.048 -0.13,-0.082 -0.176,-0.138 -0.263,0.006 -5.062,-8.195 -5.415,-8.799 -1.122,0.822 -3.513,2.317 -6.777,4.269 0.624,0.985 4.333,6.838 5.522,8.786 2.043,-1.361 4.068,-2.73 6.057,-4.118 0.14,-0.101 0.424,-0.069 0.789,0 m -8.113,4.666 -5.157,-8.527 c -0.039,-0.051 -0.096,-0.119 -0.145,-0.181 -0.596,0.354 -1.222,0.724 -1.864,1.102 0.658,0.975 5.258,7.803 5.261,7.93 0.363,0.458 0.668,0.611 0.927,0.62 0.256,-0.168 0.508,-0.338 0.764,-0.507 0.138,-0.224 0.214,-0.437 0.214,-0.437 m -2.336,1.821 -5.953,-8.327 -0.171,-0.34 c -2.906,1.704 -6.191,3.605 -9.691,5.614 0.246,0.406 4.972,8.218 5.65,9.439 3.422,-2.083 6.818,-4.213 10.165,-6.386 m -11.723,6.46 -5.053,-8.154 c -0.047,-0.095 -0.195,-0.312 -0.39,-0.584 -0.532,0.305 -1.073,0.614 -1.612,0.923 1.185,1.85 5.148,8.043 5.15,8.138 1.272,1.607 1.905,-0.323 1.905,-0.323 m -2.089,2.122 c -0.027,-0.01 -0.042,-0.016 -0.042,-0.016 l -5.733,-8.579 -0.415,-0.642 c -15.653,8.941 -33.789,19.08 -39.776,22.516 -0.192,0.005 -20.422,11.278 -36.591,18.829 -0.008,-0.012 -0.02,-0.024 -0.028,-0.036 -3.255,1.616 -19.316,10.113 -19.81,10.607 -1.963,5.76 8.351,2.304 8.351,2.304 l 15.544,-5.49 c 4.504,-1.884 42.203,-17.856 78.5,-39.493 m -78.875,40.338 -14.809,5.509 c 0,0 -11.964,3.977 -9.967,-3.265 2.719,-3.271 18.403,-10.267 20.467,-11.178 -1.756,-1.506 -5.519,-2.011 -8.327,2.045 -7.458,-1.832 -13.225,2.349 -14.214,2.991 -8.399,8.352 -0.97,14.335 4.413,15.288 3.339,0.124 9.478,-2.019 11.3,-5.953 0.629,-0.243 1.298,-0.708 1.861,-0.953 2.537,0.239 7.041,-0.437 7.041,-0.437 0,0 2.604,-0.562 2.235,-4.047 m 72.412,-52.974 0.972,1.906 0.016,0.024 c 0.518,-0.293 1.03,-0.585 1.542,-0.877 -0.23,-0.328 -1.493,-2.034 -1.528,-2.077 -1.631,-0.982 -1.002,1.024 -1.002,1.024 m 0.825,-2.588 c 0.339,-0.438 0.544,-0.985 0.528,-1.582 -0.036,-1.375 -1.18,-2.461 -2.556,-2.425 -1.375,0.036 -2.461,1.18 -2.425,2.556 0.036,1.375 1.181,2.461 2.556,2.425 0.08,-0.002 0.156,-0.021 0.234,-0.03 0.209,-0.73 0.675,-1.289 1.663,-0.944 m -1.691,3.215 -0.111,-0.277 c 0,0 -0.174,-0.451 -0.132,-1.051 -0.021,0.001 0.081,-0.048 0.06,-0.047 -1.854,0.049 -3.396,-1.415 -3.445,-3.269 -0.049,-1.854 1.415,-3.396 3.269,-3.444 1.854,-0.049 3.396,1.415 3.444,3.269 0.019,0.748 -0.228,1.429 -0.629,1.997 0.279,0.18 0.575,0.394 0.916,0.691 0.05,0.052 0.114,0.112 0.185,0.18 0.604,-0.803 0.956,-1.785 0.927,-2.905 -0.069,-2.626 -2.255,-4.7 -4.881,-4.631 -2.626,0.069 -4.698,2.254 -4.629,4.88 0.068,2.626 2.253,4.699 4.878,4.63 0.052,-10e-4 0.097,-0.02 0.148,-0.023 m 14.63,-9.25 c 0.408,-0.146 0.798,-0.328 1.145,-0.574 -0.161,-0.177 -0.278,-0.307 -0.293,-0.325 -0.864,-0.305 -0.917,0.382 -0.852,0.899 m 0.886,-4.52 c -0.037,-1.376 -1.18,-2.462 -2.555,-2.426 -1.376,0.036 -2.461,1.181 -2.425,2.556 0.036,1.375 1.18,2.461 2.555,2.425 1.376,-0.036 2.462,-1.18 2.425,-2.555 m 1.364,5.172 c -0.497,0.375 -0.975,0.643 -1.571,0.862 l 0.547,0.977 c 0.6,-0.353 1.183,-0.696 1.741,-1.027 -0.227,-0.26 -0.472,-0.538 -0.717,-0.812 m -3.192,-1.824 c -0.186,0.038 -0.378,0.068 -0.574,0.074 -1.854,0.048 -3.396,-1.415 -3.445,-3.269 -0.048,-1.854 1.415,-3.396 3.268,-3.445 1.855,-0.048 3.397,1.415 3.446,3.269 0.024,0.931 -0.333,1.783 -0.93,2.407 0.336,0.133 0.732,0.372 1.196,0.735 0.725,-0.86 1.163,-1.966 1.132,-3.179 -0.069,-2.626 -2.253,-4.699 -4.879,-4.63 -2.627,0.068 -4.7,2.253 -4.632,4.879 0.07,2.627 2.255,4.7 4.881,4.631 0.143,-0.004 0.277,-0.037 0.417,-0.053 -0.013,-0.357 -0.005,-0.912 0.12,-1.419 M 2.736,-18.627 c 0.231,-0.144 0.508,-0.317 0.863,-0.537 v -4.566 c -0.259,0.117 -0.528,0.229 -0.796,0.342 z m 0.868,0.656 c -0.345,0.214 -0.627,0.391 -0.868,0.542 l 10e-4,1.216 0.871,-0.546 z m 0.009,2.634 -0.875,0.554 10e-4,3.63 c 0.275,-0.201 0.57,-0.412 0.887,-0.634 z m 1.019,2.856 c 0.326,-0.222 0.659,-0.446 0.999,-0.672 l 0.021,-3.474 -0.997,0.63 z m 0.033,-4.941 0.996,-0.625 0.007,-1.203 c -0.347,0.214 -0.683,0.422 -0.995,0.615 z m 0.015,-2.413 c 0.312,-0.194 0.646,-0.401 0.995,-0.617 l 0.077,-4.351 c -0.336,0.183 -0.683,0.365 -1.043,0.545 z m 1.893,6.058 c 0.35,-0.23 0.695,-0.456 1.037,-0.678 l 0.009,-3.417 -1.017,0.644 z m 0.041,-4.868 1.008,-0.632 0.003,-1.18 c -0.34,0.209 -0.673,0.415 -1,0.616 z m 0.009,-6.653 0.012,4.251 c 0.324,-0.201 0.654,-0.405 0.993,-0.616 l 0.011,-4.27 c -0.322,0.211 -0.658,0.422 -1.016,0.635 m 2.004,10.186 c 0.333,-0.214 0.647,-0.415 0.943,-0.604 v -3.39 l -0.902,0.571 z m 0.058,-4.831 0.885,-0.555 v -1.156 c -0.291,0.179 -0.581,0.357 -0.871,0.536 z m 0.028,-2.392 c 0.285,-0.176 0.57,-0.353 0.857,-0.531 v -4.479 c -0.241,0.202 -0.514,0.412 -0.804,0.628 z M 3.238,-9.972 c 0,0 0.25,0.342 0.512,0.342 0.262,0.603 5.571,3.182 5.685,3.182 7.732,3.526 11.256,-2.372 11.256,-2.372 4.15,-7.98 -0.275,-12.609 -0.389,-12.609 -2.785,0.452 -7.911,5.773 -7.911,5.773 z m 7.331,-6.378 c 0.673,-0.425 1.093,-0.687 1.093,-0.687 0,0 0.062,-0.062 0.151,-0.153 l -0.011,-3.328 -1.19,0.753 z m 0.06,-4.813 1.167,-0.732 -0.004,-1.124 c -0.375,0.23 -0.756,0.464 -1.148,0.705 z m 0.093,-7.292 -0.062,4.914 c 0.381,-0.236 0.755,-0.468 1.127,-0.698 l -0.023,-5.935 c -0.249,0.255 -0.462,0.567 -0.606,0.969 -0.023,0.189 -0.198,0.468 -0.485,0.801 0.019,-0.021 0.029,-0.029 0.049,-0.051 m 2.026,-2.348 0.036,5.946 c 0.363,-0.225 0.724,-0.448 1.062,-0.657 l -0.024,-5.522 c -0.377,0.035 -0.739,0.108 -1.074,0.233 m 1.103,6.52 c -0.333,0.204 -0.685,0.42 -1.059,0.65 l 0.007,1.11 1.056,-0.663 z m 0.011,2.462 -1.055,0.667 0.019,2.999 c 0.305,-0.281 0.656,-0.595 1.047,-0.931 z m 0.948,-9.237 0.018,4.936 c 0.383,-0.237 0.735,-0.456 1.046,-0.648 l -0.005,-4.176 c -0.344,-0.051 -0.7,-0.093 -1.059,-0.112 m 1.066,5.533 c -0.261,0.16 -0.62,0.38 -1.043,0.639 l 0.004,1.084 1.04,-0.652 z m 0.002,2.428 -1.036,0.656 0.01,2.545 c 0.33,-0.264 0.675,-0.528 1.029,-0.786 z m 13.033,-2.031 -1.985,0.891 c 0,0 7.704,12.384 -4.896,23.04 0.144,-0.27 -17.37,14.976 -28.557,7.2 0.045,0 -3.699,-3.275 -3.843,-4.157 -0.144,0 -1.728,1.026 -3.744,0 0,0 -2.666,1.709 -6.417,4.098 -0.243,2.258 -2.092,2.188 -3.1,1.971 -3.529,2.241 -7.532,4.771 -11.101,7 -0.389,1.172 -1.37,1.416 -2.214,1.378 -4.077,2.528 -7.204,4.408 -7.697,4.542 -0.287,-0.144 -14.696,8.037 -14.696,8.037 0,0 -49.527,25.947 -57.015,27.387 0,0.144 1.44,5.616 -5.616,5.472 0,-0.144 -4.176,0.144 -4.176,0.144 l -1.584,0.747 c 0,0 -6.768,9.546 -15.552,5.013 0,-0.288 -8.352,-4.005 -4.176,-12.384 0,0 3.681,-8.64 17.28,-7.056 0,0 5.329,-5.328 9.793,-1.152 -0.145,-0.288 37.727,-19.512 44.927,-23.904 -0.079,0 15.833,-8.816 30.604,-17.2 l -0.114,-0.286 c -0.239,0.019 -0.473,0.036 -0.759,0.043 -3.539,0.093 -6.484,-2.701 -6.576,-6.241 -0.093,-3.54 2.7,-6.484 6.24,-6.577 3.54,-0.092 6.485,2.702 6.578,6.241 0.043,1.657 -0.505,3.131 -1.482,4.269 0.052,0.075 0.109,0.163 0.164,0.245 3.514,-2.006 6.856,-3.929 9.797,-5.648 l -0.676,-1.342 c -0.292,0.049 -0.443,0.072 -0.747,0.08 -3.54,0.093 -6.484,-2.702 -6.577,-6.241 -0.093,-3.54 2.702,-6.485 6.241,-6.577 3.54,-0.093 6.485,2.701 6.577,6.241 0.043,1.655 -0.561,3.165 -1.561,4.329 0.24,0.262 0.524,0.609 0.851,1.086 3.571,-2.133 6.031,-3.69 6.592,-4.246 0.03,0.03 -0.12,-0.264 -0.3,-0.739 -0.145,-0.28 -0.244,-0.555 -0.264,-0.797 -0.599,-2.12 -0.77,-5.74 5.028,-6.24 1.296,-0.144 3.744,-0.363 6.048,0 0,0 3.023,-4.464 8.064,-6.48 0.432,0 10.512,-3.474 11.664,-6.768 0,-0.144 1.395,-3.563 6.696,-2.304 0.694,0.432 -0.792,-4.536 5.112,-1.872 0.432,0.144 2.88,2.16 2.88,2.16 0,0 3.456,-3.671 5.184,0.972 0,-0.467 -0.895,5.625 -0.895,5.625"
             style="fill:#68501b;fill-opacity:1;fill-rule:nonzero;stroke:none"
             id="path334" />
        </g>
      </g>
    </g>
  </g>
</svg>
