<?xml version="1.0" encoding="UTF-8" standalone="no"?>
<!-- Created with Inkscape (http://www.inkscape.org/) -->

<svg
   version="1.1"
   id="svg182"
   width="331.672"
   height="331.672"
   viewBox="0 0 331.672 331.672"
   sodipodi:docname="MDDF-SSI.svg"
   inkscape:version="1.3.2 (091e20e, 2023-11-25)"
   inkscape:export-filename="../../../prj/k3jph.github.io/assets/images/mddf-ssi.png"
   inkscape:export-xdpi="300"
   inkscape:export-ydpi="300"
   xmlns:inkscape="http://www.inkscape.org/namespaces/inkscape"
   xmlns:sodipodi="http://sodipodi.sourceforge.net/DTD/sodipodi-0.dtd"
   xmlns="http://www.w3.org/2000/svg"
   xmlns:svg="http://www.w3.org/2000/svg">
  <defs
     id="defs186" />
  <sodipodi:namedview
     id="namedview184"
     pagecolor="#505050"
     bordercolor="#ffffff"
     borderopacity="1"
     inkscape:showpageshadow="0"
     inkscape:pageopacity="0"
     inkscape:pagecheckerboard="1"
     inkscape:deskcolor="#505050"
     showgrid="false"
     inkscape:zoom="1.5677083"
     inkscape:cx="58.684385"
     inkscape:cy="149.26246"
     inkscape:window-width="3200"
     inkscape:window-height="1333"
     inkscape:window-x="1728"
     inkscape:window-y="0"
     inkscape:window-maximized="0"
     inkscape:current-layer="g190">
    <inkscape:page
       x="0"
       y="0"
       id="page188"
       width="331.672"
       height="331.672"
       margin="0"
       bleed="0" />
  </sodipodi:namedview>
  <g
     id="g190"
     inkscape:groupmode="layer"
     inkscape:label="Page 1"
     transform="matrix(1.3333333,0,0,-1.3333333,-121.33373,453.33385)">
    <circle
       style="vector-effect:non-scaling-stroke;fill:#f8f8f8;fill-opacity:1;stroke:none;stroke-width:2.31276;stroke-linecap:round;stroke-linejoin:round;-inkscape-stroke:hairline"
       id="path1"
       cx="215.3773"
       cy="-215.6234"
       transform="scale(1,-1)"
       r="118.125" />
    <g
       id="g204"
       transform="translate(336.1367,215.8242)"
       clip-path="none"
       style="display:inline">
      <path
         d="m 0,0 c 0,10.216 -1.094,20.068 -3.649,29.555 -4.379,18.607 -13.5,35.387 -26.632,50.344 -1.824,1.825 -3.285,3.286 -5.109,5.11 -11.309,11.675 -23.715,19.702 -36.848,25.538 -1.083,0.476 -2.175,0.936 -3.27,1.388 -14.345,5.313 -25.862,7.647 -35.061,8.305 -2.508,0.092 -5.242,0.14 -8.257,0.154 -5.863,-0.227 -10.491,-1.173 -14.085,-2.284 -23.363,-8.33 -38.194,-30.213 -38.194,-55.435 0,-25.934 16.524,-48.001 39.615,-56.268 l -0.286,-1.746 -10.114,1.246 c 0.435,-0.103 0.878,-0.193 1.319,-0.288 0.526,-0.113 1.045,-0.235 1.579,-0.336 1.083,-0.204 2.182,-0.386 3.3,-0.539 5.236,-0.97 10.221,-2.356 14.977,-4.113 v 1.361 9.16 74.361 h -0.002 v 29.689 c 8.198,0 14.845,-6.646 14.845,-14.845 0,-2.839 -0.813,-5.482 -2.194,-7.737 1.729,0.712 3.616,1.115 5.603,1.115 8.198,0 14.844,-6.646 14.844,-14.844 0,-8.199 -6.646,-14.845 -14.844,-14.845 -2.765,0 -5.339,0.774 -7.555,2.09 V 11.152 h 55.03 c -1.378,2.252 -2.189,4.89 -2.189,7.723 0,8.198 6.646,14.844 14.844,14.844 8.199,0 14.845,-6.646 14.845,-14.844 0,-2.073 -0.438,-4.039 -1.209,-5.829 2.275,1.418 4.953,2.25 7.831,2.25 8.198,0 14.844,-6.646 14.844,-14.844 H -24.927 V 0.378 h -95.077 c 5.114,-1.94 9.951,-4.329 14.508,-7.156 19.953,-10.708 33.529,-31.758 33.529,-55.988 0,-25.436 -14.988,-47.317 -36.583,-57.458 12.219,1.085 23.768,3.821 34.487,8.218 14.231,6.203 27,14.959 38.673,26.634 C -12.039,-62.021 0,-33.565 0,0"
         style="fill:#ff9e1b;fill-opacity:1;fill-rule:nonzero;stroke:none"
         id="path206" />
    </g>
    <g
       id="g208"
       transform="translate(332.4873,245.3794)"
       clip-path="none"
       style="display:inline">
      <path
         d="m 0,0 c 2.556,-9.487 3.649,-19.338 3.649,-29.555 0,-33.566 -12.039,-62.022 -35.389,-85.372 -11.673,-11.675 -24.443,-20.431 -38.673,-26.634 -10.731,-4.402 -22.292,-7.14 -34.524,-8.222 21.598,10.14 36.59,32.023 36.59,57.462 0,24.23 -13.576,45.279 -33.529,55.988 -8.981,5.572 -19.041,9.456 -30.196,11.522 -2.144,0.294 -4.219,0.692 -6.236,1.171 l 10.182,-1.254 0.285,1.746 c -23.091,8.267 -39.615,30.334 -39.615,56.268 0,25.222 14.831,47.105 38.194,55.435 9.881,3.055 27.525,4.891 57.404,-6.176 1.094,-0.451 2.186,-0.911 3.269,-1.387 13.133,-5.836 25.539,-13.863 36.849,-25.538 1.823,-1.825 3.284,-3.286 5.108,-5.11 C -13.5,35.388 -4.379,18.606 0,0 m -204.128,-29.177 h 76.319 5.394 5.304 v -85.775 h 0.002 v -29.689 c -8.199,0 -14.844,6.646 -14.844,14.844 0,2.839 0.811,5.482 2.193,7.738 -1.729,-0.712 -3.615,-1.116 -5.602,-1.116 -8.199,0 -14.845,6.646 -14.845,14.845 0,8.198 6.646,14.844 14.845,14.844 2.763,0 5.339,-0.773 7.553,-2.09 v 55.701 h -57.001 c 1.352,-2.237 2.148,-4.849 2.148,-7.653 0,-8.199 -6.646,-14.845 -14.844,-14.845 -8.199,0 -14.845,6.646 -14.845,14.845 0,2.037 0.424,3.97 1.171,5.736 -2.267,-1.404 -4.931,-2.228 -7.793,-2.228 -8.198,0 -14.844,6.646 -14.844,14.844 h 29.689 z M 7.267,-29.756 c 0,66.983 -52.955,121.59 -119.282,124.264 l -0.069,0.113 -0.643,-0.086 c -1.456,0.051 -2.916,0.086 -4.384,0.086 -0.669,0 -1.334,-0.018 -2,-0.03 -0.132,0.018 -0.218,0.03 -0.218,0.03 l -0.417,-0.04 c -5.104,-0.124 -10.124,-0.612 -15.048,-1.425 l -0.06,-0.006 c 0,0 -0.009,-0.005 -0.01,-0.005 -60.778,-10.077 -106.623,-70.266 -106.623,-122.901 0,-68.691 55.685,-124.377 124.376,-124.377 68.691,0 124.378,55.686 124.378,124.377"
         style="fill:#000000;fill-opacity:1;fill-rule:nonzero;stroke:none"
         id="path210" />
    </g>
    <g
       id="g212"
       transform="translate(300.4258,216.2764)"
       clip-path="none"
       style="display:inline">
      <path
         d="m 0,0 c 0,-0.025 0.004,-0.049 0.004,-0.074 h -74.356 v 0.001 h -10.697 v -100.621 h 0.002 v -14.844 c 8.197,0 14.844,6.646 14.844,14.844 0,2.901 -0.845,5.598 -2.283,7.884 1.824,-0.806 3.835,-1.262 5.957,-1.262 8.199,0 14.844,6.646 14.844,14.845 0,8.198 -6.645,14.844 -14.844,14.844 -2.874,0 -5.549,-0.832 -7.823,-2.247 v 55.934 h 54.679 c -1.138,-2.097 -1.793,-4.492 -1.793,-7.045 0,-8.198 6.646,-14.845 14.844,-14.845 8.199,0 14.845,6.647 14.845,14.845 0,1.732 -0.307,3.39 -0.856,4.933 2.197,-1.286 4.747,-2.036 7.478,-2.036 8.198,0 14.843,6.646 14.843,14.844 z"
         style="fill:#862633;fill-opacity:1;fill-rule:nonzero;stroke:none"
         id="path214" />
    </g>
    <g
       id="g216"
       transform="translate(215.4214,216.2026)"
       clip-path="none"
       style="display:inline">
      <path
         d="m 0,0 v 95.918 h -0.002 v 18.905 c -8.198,0 -14.844,-6.646 -14.844,-14.844 0,-2.916 0.853,-5.628 2.306,-7.923 -1.847,0.832 -3.892,1.301 -6.05,1.301 -8.198,0 -14.844,-6.646 -14.844,-14.844 0,-8.199 6.646,-14.845 14.844,-14.845 2.904,0 5.604,0.847 7.892,2.288 V 10.698 h -57.145 c 1.415,2.273 2.247,4.947 2.247,7.822 0,8.198 -6.646,14.844 -14.844,14.844 -8.199,0 -14.845,-6.646 -14.845,-14.844 0,-2.122 0.456,-4.134 1.262,-5.957 -2.286,1.438 -4.983,2.283 -7.884,2.283 -8.198,0 -14.844,-6.646 -14.844,-14.845 h 18.904 V 0 h 87.149 7.156 z"
         style="fill:#862633;fill-opacity:1;fill-rule:nonzero;stroke:none"
         id="path218" />
    </g>
  </g>
</svg>
