<?xml version="1.0" encoding="UTF-8" standalone="no"?>
<!-- Created with Inkscape (http://www.inkscape.org/) -->

<svg
   width="170mm"
   height="104mm"
   viewBox="0 0 170 103.99999"
   version="1.1"
   id="svg4873"
   inkscape:version="1.2.2 (b0a84865, 2022-12-01)"
   sodipodi:docname="SMEMS-Flash.svg"
   inkscape:export-filename="SMEMS-Flash.png"
   inkscape:export-xdpi="300"
   inkscape:export-ydpi="300"
   xmlns:inkscape="http://www.inkscape.org/namespaces/inkscape"
   xmlns:sodipodi="http://sodipodi.sourceforge.net/DTD/sodipodi-0.dtd"
   xmlns:xlink="http://www.w3.org/1999/xlink"
   xmlns="http://www.w3.org/2000/svg"
   xmlns:svg="http://www.w3.org/2000/svg">
  <sodipodi:namedview
     id="namedview4875"
     pagecolor="#ffffff"
     bordercolor="#000000"
     borderopacity="1"
     inkscape:showpageshadow="true"
     inkscape:pageopacity="0"
     inkscape:pagecheckerboard="true"
     inkscape:deskcolor="#d1d1d1"
     inkscape:document-units="mm"
     showgrid="false"
     showguides="false"
     inkscape:zoom="1.4142136"
     inkscape:cx="328.45109"
     inkscape:cy="45.608386"
     inkscape:window-width="1920"
     inkscape:window-height="1027"
     inkscape:window-x="2056"
     inkscape:window-y="25"
     inkscape:window-maximized="0"
     inkscape:current-layer="layer2"
     showborder="true"
     shape-rendering="auto"
     borderlayer="true" />
  <defs
     id="defs4870">
    <radialGradient
       inkscape:collect="always"
       xlink:href="#linearGradient9138"
       id="radialGradient9140"
       cx="93.118179"
       cy="133.18372"
       fx="93.118179"
       fy="133.18372"
       r="29.421675"
       gradientTransform="matrix(0.28124732,0.35136461,-1.0489554,0.83962895,203.75957,3.6077951)"
       gradientUnits="userSpaceOnUse" />
    <linearGradient
       inkscape:collect="always"
       id="linearGradient9138">
      <stop
         style="stop-color:#e7e7e7;stop-opacity:1;"
         offset="0"
         id="stop9134" />
      <stop
         style="stop-color:#9e9e9e;stop-opacity:1;"
         offset="1"
         id="stop9136" />
    </linearGradient>
  </defs>
  <g
     inkscape:label="Embroidery"
     inkscape:groupmode="layer"
     id="layer1"
     style="display:inline">
    <path
       id="path4994"
       style="fill:#c3c5c5;fill-opacity:1;stroke:#000000;stroke-width:0;stroke-linejoin:bevel;stroke-dasharray:none"
       d="m 52.099927,3.9997559 v 0.00103 A 48.029629,48 0 0 0 4.0997559,51.999927 48.029629,48 0 0 0 52.099927,99.999064 v 9.96e-4 h 0.02945 64.970713 v -0.03721 a 48,48 0 0 0 0.99993,0.03721 48,48 0 0 0 48.00017,-48.000169 48,48 0 0 0 -48.00017,-48.0001711 48,48 0 0 0 -0.99993,0.037207 V 3.9997559 H 52.129382 Z" />
  </g>
  <g
     inkscape:groupmode="layer"
     id="layer2"
     inkscape:label="Interior"
     style="display:inline">
    <path
       id="path4994-2"
       style="fill:#1b439c;fill-opacity:1;stroke:#000000;stroke-width:0;stroke-linejoin:bevel;stroke-dasharray:none"
       d="M 52.099927,8.0000285 A 44,44 0 0 0 8.1000285,51.999927 44,44 0 0 0 52.099927,95.999825 h 65.000163 v -0.03721 a 44,44 0 0 0 0.99994,0.03721 44,44 0 0 0 43.9999,-43.999898 44,44 0 0 0 -43.9999,-43.9998985 44,44 0 0 0 -0.99994,0.037207 v -0.037207 z" />
  </g>
  <g
     inkscape:groupmode="layer"
     id="layer3"
     inkscape:label="Pin">
    <g
       id="g194"
       transform="matrix(2.0766379,0,0,2.0766379,-123.46029,-254.45011)"
       style="display:inline">
      <path
         style="fill:url(#radialGradient9140);fill-opacity:1;stroke-width:0.264583"
         d="m 84.514876,166.81466 c -1.30762,-0.12171 -3.02729,-0.84907 -2.884875,-1.22019 0.08186,-0.21333 -0.284529,-0.45631 -1.006754,-0.66766 -2.136255,-0.62513 -3.929906,-1.67106 -3.763705,-2.19471 0.109581,-0.34526 0.0098,-0.47377 -0.368012,-0.47377 -1.205669,0 -4.726423,-4.10436 -3.800584,-4.43057 0.277851,-0.0979 0.269575,-0.20893 -0.04158,-0.55781 -1.001116,-1.12248 -2.151098,-6.38871 -1.395098,-6.38871 0.310335,0 0.379798,-0.18362 0.275248,-0.7276 -0.150997,-0.78566 -0.212715,-2.31518 -0.150466,-3.72894 0.02727,-0.61931 0.186462,-0.92324 0.530734,-1.01327 0.348598,-0.0912 0.589088,-0.56341 0.825993,-1.62201 0.504976,-2.25648 1.362891,-3.89909 1.755799,-3.36175 0.268256,0.36686 0.386775,0.29598 0.903758,-0.54052 0.929103,-1.50332 2.690933,-2.68815 2.992451,-2.01242 0.229666,0.5147 0.239232,0.51474 1.103017,0.005 0.479238,-0.28276 1.388988,-0.53897 2.021667,-0.56937 l 1.150325,-0.0553 0.0075,1.19063 c 0.01601,2.5426 -1.024541,4.83439 -2.424903,5.34076 -0.746998,0.27012 -0.81543,0.37688 -0.601781,0.93882 0.343274,0.90288 0.276547,3.76787 -0.108774,4.67027 -0.288686,0.67609 -0.241932,0.93 0.408809,2.2201 0.404126,0.80119 0.734775,1.68588 0.734775,1.96598 0,0.71249 0.480643,1.53282 0.8981,1.53282 0.501499,0 2.754833,2.04387 3.197865,2.9006 0.402059,0.77749 0.242918,0.76313 4.502993,0.40648 1.571546,-0.13157 2.777958,-0.46127 2.769323,-0.75684 -0.02128,-0.72817 -1.01182,-1.51146 -1.694656,-1.34008 -0.580717,0.14576 -0.677792,0.0826 -0.677792,-0.44065 0,-0.47504 -0.07056,-0.54021 -0.3175,-0.29326 -0.594556,0.59455 -1.346261,0.39278 -1.168929,-0.31377 0.122296,-0.48726 0.03583,-0.66332 -0.379062,-0.77182 -0.434007,-0.11349 -0.506671,-0.0434 -0.377389,0.3639 0.08844,0.27865 -0.02803,0.77219 -0.260193,1.10255 l -0.420304,0.5981 -0.160583,-0.61028 c -0.09998,-0.37996 -0.297243,-0.5547 -0.522687,-0.46302 -1.276561,0.51914 -1.233598,0.53234 -1.10561,-0.3397 0.0851,-0.57984 0.01514,-0.83596 -0.228359,-0.83596 -0.193078,0 -0.351051,-0.25658 -0.351051,-0.57018 0,-0.54592 -0.02165,-0.55058 -0.509109,-0.10943 -0.59328,0.53691 -0.657968,-0.11123 -0.0698,-0.6994 0.347511,-0.34751 -0.81567,-1.61513 -1.75589,-1.91354 -0.457437,-0.14519 -0.617191,-1.81804 -0.279346,-2.92516 0.04441,-0.14552 -0.05256,-0.50398 -0.215472,-0.79657 -0.310849,-0.55827 -0.171786,-1.98156 0.19361,-1.98156 0.116994,0 0.291168,-0.35718 0.387053,-0.79375 0.206031,-0.93805 0.407599,-0.98363 1.077297,-0.24363 l 0.497853,0.55013 0.450066,-0.55581 c 0.533032,-0.65827 0.696009,-0.46973 0.651991,0.75426 -0.02353,0.65426 0.09482,0.93511 0.431118,1.02305 0.309078,0.0808 0.472339,0.39749 0.489924,0.95026 0.0294,0.9241 0.430509,2.37722 0.484465,1.75508 0.02761,-0.31839 0.08775,-0.30531 0.304104,0.0661 0.288389,0.49514 1.03714,0.6384 1.03714,0.19844 0,-0.67722 0.489766,-0.16069 0.648151,0.68357 0.142164,0.7578 0.267594,0.91033 0.624758,0.75973 0.245786,-0.10364 0.73726,-0.25083 1.092164,-0.3271 l 0.645282,-0.13866 -0.570212,0.96644 c -0.313617,0.53154 -0.455166,0.96644 -0.314553,0.96644 0.140613,0 0.25566,0.12474 0.25566,0.27721 0,0.36032 1.313307,1.57699 1.692281,1.56775 0.160652,-0.004 0.574652,-0.46549 0.92,-1.02574 0.345348,-0.56024 1.086286,-1.30118 1.646529,-1.64653 0.560243,-0.34534 1.020897,-0.74696 1.023676,-0.89248 0.0072,-0.37643 -1.278977,-0.93176 -1.464132,-0.63217 -0.08291,0.13416 -0.291353,0.15268 -0.463198,0.0412 -0.171846,-0.11152 -0.550572,-0.20275 -0.841614,-0.20275 -0.291042,0 -0.498576,-0.15131 -0.461187,-0.33623 0.04699,-0.23242 -0.157246,-0.2932 -0.661459,-0.19686 -0.40119,0.0767 -0.584097,0.0704 -0.406459,-0.014 0.440331,-0.20906 -0.18488,-0.89378 -0.652315,-0.71441 -0.198215,0.0761 -0.332122,-0.0859 -0.332122,-0.40172 0,-0.29104 -0.18614,-0.6006 -0.413644,-0.6879 -0.227505,-0.0873 -0.334645,-0.28655 -0.238089,-0.44279 0.09656,-0.15623 -0.0049,-0.42496 -0.225493,-0.59718 -0.220578,-0.17222 -0.447931,-0.55125 -0.505229,-0.84229 -0.0573,-0.29104 -0.245937,-0.4994 -0.419196,-0.46302 -0.173258,0.0364 -0.315015,-0.17198 -0.315015,-0.46302 0,-0.29104 -0.127086,-0.52917 -0.282413,-0.52917 -0.156083,0 -0.211733,-0.22269 -0.124407,-0.49783 0.102381,-0.32257 0.0058,-0.55622 -0.274205,-0.66369 -0.266782,-0.10237 -0.369322,-0.32974 -0.267904,-0.59403 0.09037,-0.2355 0.03741,-0.58109 -0.117687,-0.76797 -0.200172,-0.24119 -0.197768,-0.39184 0.0083,-0.51918 0.207308,-0.12813 0.19906,-0.28932 -0.02886,-0.56394 -0.230918,-0.27824 -0.239171,-0.4645 -0.02986,-0.67381 0.209315,-0.20932 0.179572,-0.39898 -0.107597,-0.68615 -0.236152,-0.23616 -0.300123,-0.49363 -0.157964,-0.63579 0.43467,-0.43467 -0.271317,-1.96319 -1.182682,-2.56061 -0.513057,-0.33631 -0.874295,-0.79459 -0.874295,-1.10915 0,-0.29483 -0.194721,-0.83323 -0.432714,-1.19645 -0.237994,-0.36323 -0.357814,-0.73531 -0.266267,-0.82686 0.09155,-0.0915 -0.07092,-0.33271 -0.361035,-0.53591 -2.002214,-1.40241 0.475969,-1.36131 2.98954,0.0496 5.099029,2.86212 7.639011,5.24101 7.443331,6.97125 -0.350533,3.09948 -0.300299,3.48349 0.518667,3.96491 0.577361,0.3394 0.792286,0.36816 0.881944,0.11803 0.0652,-0.1819 0.438552,-0.33073 0.829668,-0.33073 0.671239,0 1.315833,-0.47539 2.361572,-1.74169 0.250298,-0.30309 0.775322,-0.75856 1.166722,-1.01216 0.647132,-0.41929 0.780282,-1.2149 0.203322,-1.2149 -0.120478,0 -0.554225,-0.13767 -0.96388,-0.30594 -0.409657,-0.16827 -0.953187,-0.27985 -1.207849,-0.24795 -0.508614,0.0637 -0.647163,-0.74364 -0.203719,-1.18708 0.825381,-0.82538 0.600107,-3.4674 -0.379147,-4.44665 -0.52587,-0.52587 -0.922393,-0.96498 -0.881161,-0.97579 0.04123,-0.0108 0.372621,-0.0797 0.736423,-0.15308 0.363802,-0.0734 0.840052,-0.17449 1.058333,-0.22468 0.218281,-0.0502 0.524478,-0.10037 0.68044,-0.1115 0.155961,-0.0111 0.561062,-0.63425 0.900223,-1.3847 l 0.616657,-1.36446 0.6534,1.29831 c 0.35937,0.71407 0.6838,1.33331 0.72096,1.37609 0.11136,0.12819 1.55361,0.38936 2.04551,0.37041 0.2518,-0.01 0.53808,0.11224 0.63619,0.27099 0.10681,0.17281 0.0558,0.21287 -0.12708,0.0998 -0.168,-0.10384 -0.30546,-0.0688 -0.30546,0.0778 0,0.14661 -0.28914,0.57855 -0.64253,0.95986 -0.76853,0.82925 -0.80517,3.84799 -0.0596,4.9124 0.30402,0.43404 0.38756,1.05393 0.31469,2.33489 -0.10907,1.91714 0.25795,2.67001 1.3016,2.67001 0.31214,0 0.69673,0.12919 0.85463,0.2871 0.63009,0.63009 1.9354,-0.44983 1.9354,-1.6012 0,-0.56975 -0.11906,-1.1095 -0.26458,-1.19944 -1.91305,-1.18233 1.31144,-4.7947 7.35326,-8.23778 2.53506,-1.44467 4.75202,-1.49004 2.98741,-0.0611 -0.3253,0.26341 -0.51259,0.60653 -0.4162,0.76249 0.0964,0.15596 0.0163,0.47504 -0.17788,0.70906 -0.19422,0.23402 -0.47236,0.79103 -0.61809,1.23779 -0.1587,0.48653 -0.63633,1.02747 -1.191,1.34885 -0.92796,0.53768 -1.22374,1.61115 -0.68438,2.48386 0.10529,0.17035 0.003,0.37673 -0.23164,0.46672 -0.31818,0.12209 -0.34889,0.24749 -0.12629,0.51571 0.16176,0.19491 0.20334,0.50126 0.0924,0.68077 -0.11095,0.17951 -0.22142,0.79113 -0.24549,1.35916 -0.0241,0.56802 -0.18571,1.12049 -0.35919,1.22771 -0.17348,0.10722 -0.23911,0.39378 -0.14585,0.63681 0.11236,0.29281 0.0345,0.44186 -0.23086,0.44186 -0.27015,0 -0.35539,0.17215 -0.26203,0.52917 0.10571,0.40423 0.008,0.52917 -0.41334,0.52917 -0.40328,0 -0.5068,0.11707 -0.38475,0.43513 0.10074,0.26252 -0.018,0.57041 -0.29938,0.77615 -0.25649,0.18755 -0.38735,0.46883 -0.2908,0.62506 0.0966,0.15624 -0.0174,0.35812 -0.25329,0.44863 -0.23587,0.0905 -0.36622,0.32779 -0.28966,0.52729 0.12338,0.32153 -0.14417,0.47687 -0.68797,0.39944 -0.10027,-0.0143 -0.25871,0.21473 -0.35207,0.50889 -0.12105,0.38141 -0.31544,0.48861 -0.67758,0.37368 -0.35935,-0.11406 -0.50783,-0.0347 -0.50783,0.27135 0,0.3058 -0.14853,0.38539 -0.5069,0.27165 -0.2788,-0.0885 -0.58705,-0.0312 -0.68501,0.12731 -0.12831,0.20761 -0.27592,0.20702 -0.52788,-0.002 -0.23022,-0.19107 -0.40593,-0.19941 -0.51409,-0.0244 -0.0904,0.14623 -0.3391,0.19881 -0.55272,0.11683 -0.83786,-0.32152 -0.37628,0.8521 0.5263,1.33817 0.50308,0.27093 1.23365,0.95285 1.62348,1.51537 0.74298,1.07213 1.76479,1.38328 2.05542,0.62591 0.0838,-0.21828 0.33462,-0.39688 0.55747,-0.39688 0.22285,0 0.41429,-0.20836 0.42542,-0.46302 0.0111,-0.25466 0.0749,-0.70114 0.14165,-0.99219 0.0668,-0.29104 0.16103,-1.07495 0.20947,-1.74203 0.0484,-0.66708 0.29605,-1.53028 0.55025,-1.91823 0.49644,-0.75766 0.81247,-0.9398 0.58014,-0.33435 -0.26589,0.69288 0.17604,0.6949 0.63,0.003 0.25546,-0.38943 0.52469,-0.57077 0.61955,-0.41729 0.0923,0.14928 0.0519,0.343 -0.0896,0.43047 -0.14155,0.0875 -0.18808,0.33955 -0.10343,0.56016 0.0847,0.22062 -0.0248,0.54423 -0.24336,0.71914 -0.34791,0.27849 -0.56598,0.78994 -1.3765,3.22843 -0.0967,0.29104 0.38188,-0.5424 1.06361,-1.85208 0.68172,-1.30969 1.23044,-2.60931 1.21938,-2.88804 -0.0301,-0.75852 1.02592,-2.14763 1.29799,-1.7074 0.16726,0.27062 0.36071,0.21156 0.86799,-0.265 l 0.65276,-0.61324 -0.35877,1.01705 c -0.19732,0.55937 -0.48479,0.98728 -0.63882,0.9509 -0.15403,-0.0364 -0.28843,0.0827 -0.29866,0.26458 -0.0102,0.1819 -0.11233,0.0926 -0.2269,-0.19844 -0.15159,-0.38509 -0.20874,-0.22118 -0.20991,0.602 -7.9e-4,0.62214 0.13099,1.20677 0.29305,1.29919 0.16206,0.0924 0.21528,0.0795 0.11826,-0.0287 -0.097,-0.10822 0.0518,-0.42497 0.33073,-0.70388 0.7071,-0.70709 0.91487,-0.63274 0.40526,0.14503 -0.62582,0.95512 -0.55028,1.34606 0.16801,0.86954 0.60699,-0.40268 0.90064,-1.80573 0.35724,-1.70692 -0.63852,0.11612 -0.23741,-0.66392 0.62083,-1.20732 0.57506,-0.36409 0.82215,-0.43345 0.6689,-0.18773 -0.13367,0.21431 -0.26464,0.50872 -0.29105,0.65424 -0.0264,0.14552 -0.1318,0.47294 -0.23419,0.7276 -0.13112,0.32612 -0.0604,0.46302 0.23902,0.46302 0.23385,10e-6 0.42518,-0.11905 0.42518,-0.26457 0,-0.14552 0.1867,-0.26459 0.41489,-0.26459 0.33631,0 0.29892,0.16288 -0.1974,0.8599 -0.33677,0.47294 -0.583,0.88966 -0.54719,0.92604 0.21285,0.21621 -0.0421,0.68257 -0.85966,1.57278 -0.50862,0.5538 -0.92534,0.86511 -0.92604,0.69179 -7.9e-4,-0.17331 0.1126,-0.38548 0.25177,-0.47149 0.13916,-0.086 0.19145,-0.31683 0.1162,-0.51293 -0.0753,-0.1961 0.18625,-0.61067 0.58112,-0.92127 0.39486,-0.3106 0.65889,-0.62377 0.58672,-0.69594 -0.25408,-0.25408 -1.58498,1.21964 -1.44079,1.59539 0.0799,0.2081 0.0313,0.44874 -0.10784,0.53475 -0.13916,0.086 -0.25303,0.034 -0.25303,-0.11551 0,-0.14955 -0.17994,-0.20285 -0.39987,-0.11845 -0.27293,0.10473 -0.35311,0.0316 -0.25254,-0.2305 0.26331,-0.68619 -1.25419,-1.55183 -1.63637,-0.93344 -0.10275,0.16624 -0.0489,0.20444 0.13124,0.0931 0.168,-0.10384 0.30546,-0.12783 0.30546,-0.0533 0,0.30969 -0.62802,1.48327 -0.79375,1.48327 -0.32859,0 -0.78862,1.29486 -0.51919,1.46137 0.14003,0.0865 0.25461,0.0243 0.25461,-0.13835 0,-0.37756 1.63402,-2.42302 1.80169,-2.25535 0.0692,0.0692 -0.0271,0.30999 -0.21391,0.53512 -0.29056,0.35009 -0.2673,0.38214 0.16073,0.22144 0.44208,-0.16598 0.4581,-0.13583 0.13732,0.25852 -0.21483,0.26411 -0.24822,0.44642 -0.0818,0.44642 0.15475,0 0.35495,-0.11907 0.44489,-0.26459 0.24527,-0.39686 0.58382,-0.31935 0.7744,0.17729 0.21102,0.54992 -0.37311,0.94951 -0.83168,0.56893 -0.18678,-0.15501 -0.34382,-0.17797 -0.34898,-0.051 -0.005,0.12696 -0.16886,-0.057 -0.3638,-0.40888 l -0.35442,-0.63972 -0.35108,0.63972 c -0.51166,0.93231 -0.52239,1.28977 -0.0331,1.10201 0.27679,-0.10622 0.31301,-0.19938 0.10455,-0.26887 -0.17545,-0.0585 -0.2515,-0.21554 -0.16901,-0.34903 0.0901,-0.14581 0.34097,-0.1405 0.62832,0.0133 0.26308,0.14079 0.55351,0.1808 0.6454,0.0889 0.0919,-0.0919 0.16708,-0.0995 0.16708,-0.0168 0,0.27825 -1.89027,1.26849 -2.13395,1.11789 -0.2652,-0.16391 -0.0313,0.63368 0.32065,1.09336 0.27965,0.36525 0.0164,0.63711 -0.61708,0.63711 -0.39614,0 -0.45689,0.13237 -0.31684,0.69037 0.16437,0.6549 0.13191,0.68129 -0.63167,0.51358 -0.78541,-0.1725 -0.8115,-0.14601 -1.07559,1.0922 -0.32997,1.54713 -0.50774,1.39974 1.83675,1.52287 1.07595,0.0565 2.15042,0.18013 2.38771,0.27471 0.30651,0.12218 0.59675,-0.0955 1.00233,-0.75175 0.69281,-1.12097 2.05594,-2.35039 3.13625,-2.82858 0.63033,-0.27901 0.82582,-0.5586 0.92913,-1.32885 0.072,-0.53653 0.42109,-1.5548 0.77584,-2.26284 0.49827,-0.99449 0.59593,-1.4679 0.42933,-2.08108 -0.30149,-1.1097 -0.34885,-3.22041 -0.10388,-4.63021 0.11379,-0.65485 0.11705,-1.10447 0.007,-0.99916 -0.94394,0.90528 -2.75753,-1.98447 -2.96472,-4.72396 l -0.14747,-1.9498 0.89809,0.006 c 0.49394,0.003 1.41984,0.24255 2.05754,0.53189 1.02327,0.46429 1.19421,0.47915 1.45521,0.1265 0.43599,-0.58906 1.70385,0.26344 2.75746,1.8541 0.64164,0.9687 0.87243,1.15917 1.00041,0.82565 0.3884,-1.01215 1.58607,1.16752 1.93405,3.51984 0.13669,0.92402 0.28135,1.18855 0.61868,1.13138 0.5987,-0.10148 0.84439,1.31861 0.65694,3.79713 -0.10148,1.34176 -0.0529,1.96748 0.15828,2.03786 0.4439,0.14797 -0.20797,3.67626 -0.99805,5.40203 -0.34635,0.75654 -0.51318,1.41437 -0.37072,1.46185 0.65178,0.21726 -2.28866,3.91221 -3.11334,3.91221 -0.19998,0 -0.36359,0.11906 -0.36359,0.26458 0,0.14552 -0.0893,0.25049 -0.19843,0.23325 -0.66439,-0.1049 -0.9518,0.0453 -0.65489,0.34218 0.51663,0.51663 -2.73783,2.33499 -4.17911,2.33499 -0.34398,0 -0.52382,0.17816 -0.52382,0.51892 0,1.09603 -3.8553,1.67584 -6.52994,0.98205 -0.74447,-0.19312 -1.63362,-0.28242 -1.97589,-0.19846 -1.21595,0.2983 -6.70296,0.15408 -7.95238,-0.20903 -1.1042,-0.3209 -1.29296,-0.31344 -1.67254,0.0662 -0.53164,0.53163 -1.02975,0.54415 -1.535329,0.0386 -0.342668,-0.34267 -0.574673,-0.33935 -1.937129,0.0277 -1.806321,0.48664 -6.619324,0.56883 -7.444658,0.12713 -0.388945,-0.20816 -0.762658,-0.21425 -1.271653,-0.0207 -0.916671,0.34852 -3.438539,0.67448 -4.473189,0.57818 z m 11.094873,-9.81828 c 0.135826,-0.23139 0.753695,-0.96246 1.37304,-1.62459 0.619347,-0.66213 1.043998,-1.32401 0.943668,-1.47084 -0.322659,-0.47222 -1.473528,-0.36579 -1.98536,0.1836 -0.689897,0.74051 -1.423783,0.9732 -3.102392,0.98363 -0.794564,0.005 -1.52465,0.0174 -1.622412,0.0277 -0.09776,0.0103 0.289191,0.51945 0.859896,1.13148 0.570705,0.61203 1.037645,1.20874 1.037645,1.32604 0,0.37817 2.240475,-0.12183 2.495915,-0.55701 z m 10.733251,0.28778 c 0,-0.11642 -0.12823,-0.3399 -0.28497,-0.49663 -0.20357,-0.20357 -0.0596,-0.44542 0.50387,-0.84667 0.93591,-0.66643 2.03308,-0.76678 1.80209,-0.16482 -0.0838,0.21828 -0.0287,0.39687 0.12238,0.39687 0.15108,0 0.23664,-0.26304 0.19014,-0.58453 -0.0718,-0.49649 -0.24396,-0.58085 -1.14288,-0.5601 -1.15586,0.0267 -2.88846,-0.71761 -3.12887,-1.3441 -0.13358,-0.34809 -0.24818,-0.34633 -0.9723,0.0149 l -0.82088,0.4095 1.33655,1.4132 c 0.73509,0.77725 1.33654,1.53938 1.33654,1.69361 0,0.15424 0.23812,0.28043 0.52916,0.28043 0.29105,0 0.52917,-0.0953 0.52917,-0.21167 z m 3.43958,-2.02168 c 0,-0.0642 -0.11906,-0.19026 -0.26458,-0.28019 -0.14552,-0.0899 -0.26458,-0.0374 -0.26458,0.11667 0,0.15411 0.11906,0.2802 0.26458,0.2802 0.14552,0 0.26458,-0.0525 0.26458,-0.11668 z m 2.85932,-2.93303 c -0.0815,-0.0815 -0.22941,0.0654 -0.32876,0.32632 -0.14359,0.37708 -0.1132,0.40747 0.14811,0.14811 0.18082,-0.17947 0.26211,-0.39297 0.18065,-0.47443 z m -0.87813,0.13414 c -0.0917,-0.14836 0.0849,-0.99666 0.39233,-1.88512 0.54594,-1.57753 0.56144,-2.02381 0.0595,-1.7136 -0.48535,0.29996 -1.02854,3.86846 -0.58885,3.86846 0.16705,0 0.2287,-0.12139 0.13701,-0.26974 z m 1.93646,-2.77997 c -0.0815,-0.0815 -0.2294,0.0654 -0.32876,0.32632 -0.14359,0.37708 -0.1132,0.40747 0.14811,0.14811 0.18082,-0.17948 0.26212,-0.39297 0.18065,-0.47443 z m 1.36592,-2.63883 c 0,-0.14553 -0.11542,-0.086 -0.25648,0.13229 -0.14107,0.21828 -0.25648,0.51593 -0.25648,0.66146 0,0.14552 0.11541,0.086 0.25648,-0.1323 0.14106,-0.21828 0.25648,-0.51593 0.25648,-0.66145 z m -12.92179,-10.80612 c -0.16208,-0.19529 -0.20642,-0.4525 -0.0985,-0.57159 0.10787,-0.11908 0.0508,-0.13302 -0.12682,-0.031 -0.17763,0.10204 -0.66589,0.008 -1.08503,-0.20855 -0.67798,-0.3506 -0.82618,-0.34919 -1.34296,0.0128 -0.319487,0.22378 -0.76014,0.33808 -0.979231,0.25401 -0.219091,-0.0841 -0.331888,-0.0453 -0.250664,0.0861 0.08123,0.13143 -0.0019,0.29926 -0.184695,0.37296 -0.182808,0.0737 -0.01199,0.1434 0.379611,0.15489 0.391594,0.0115 0.785574,-0.0982 0.875512,-0.24369 0.232476,-0.37616 1.208797,-0.31107 1.984377,0.13229 0.84066,0.48057 1.20796,0.4991 0.82844,0.0418 z"
         id="path198" />
      <path
         style="display:inline;fill:#000000;stroke-width:0.264583"
         d="m 84.514876,166.81466 c -1.30762,-0.12171 -3.02729,-0.84907 -2.884875,-1.22019 0.08186,-0.21333 -0.284529,-0.45631 -1.006754,-0.66766 -2.136255,-0.62513 -3.929906,-1.67106 -3.763705,-2.19471 0.109581,-0.34526 0.0098,-0.47377 -0.368012,-0.47377 -1.205669,0 -4.726423,-4.10436 -3.800584,-4.43057 0.277851,-0.0979 0.269575,-0.20893 -0.04158,-0.55781 -1.001116,-1.12248 -2.151098,-6.38871 -1.395098,-6.38871 0.310335,0 0.379798,-0.18362 0.275248,-0.7276 -0.150997,-0.78566 -0.212715,-2.31518 -0.150466,-3.72894 0.02727,-0.61931 0.186462,-0.92324 0.530734,-1.01327 0.348598,-0.0912 0.589088,-0.56341 0.825993,-1.62201 0.504976,-2.25648 1.362891,-3.89909 1.755799,-3.36175 0.268256,0.36686 0.386775,0.29598 0.903758,-0.54052 0.929103,-1.50332 2.690933,-2.68815 2.992451,-2.01242 0.229666,0.5147 0.239232,0.51474 1.103017,0.005 0.479238,-0.28276 1.388988,-0.53897 2.021667,-0.56937 l 1.150325,-0.0553 0.0075,1.19063 c 0.01601,2.5426 -1.024541,4.83439 -2.424903,5.34076 -0.746998,0.27012 -0.81543,0.37688 -0.601781,0.93882 0.343274,0.90288 0.276547,3.76787 -0.108774,4.67027 -0.288686,0.67609 -0.241932,0.93 0.408809,2.2201 0.404126,0.80119 0.734775,1.68588 0.734775,1.96598 0,0.71249 0.480643,1.53282 0.8981,1.53282 0.501499,0 2.754833,2.04387 3.197865,2.9006 0.402059,0.77749 0.242918,0.76313 4.502993,0.40648 1.571546,-0.13157 2.777958,-0.46127 2.769323,-0.75684 -0.02128,-0.72817 -1.01182,-1.51146 -1.694656,-1.34008 -0.580717,0.14576 -0.677792,0.0826 -0.677792,-0.44065 0,-0.47504 -0.07056,-0.54021 -0.3175,-0.29326 -0.594556,0.59455 -1.346261,0.39278 -1.168929,-0.31377 0.122296,-0.48726 0.03583,-0.66332 -0.379062,-0.77182 -0.434007,-0.11349 -0.506671,-0.0434 -0.377389,0.3639 0.08844,0.27865 -0.02803,0.77219 -0.260193,1.10255 l -0.420304,0.5981 -0.160583,-0.61028 c -0.09998,-0.37996 -0.297243,-0.5547 -0.522687,-0.46302 -1.276561,0.51914 -1.233598,0.53234 -1.10561,-0.3397 0.0851,-0.57984 0.01514,-0.83596 -0.228359,-0.83596 -0.193078,0 -0.351051,-0.2311 -0.351051,-0.51355 0,-0.28246 -0.137458,-0.59851 -0.305463,-0.70234 -0.177393,-0.10964 -0.23408,-0.0733 -0.135205,0.0867 0.09364,0.15152 0.0025,0.41469 -0.202459,0.58482 -0.475129,0.39432 -0.417651,-0.35276 0.06421,-0.83463 0.347511,-0.34751 -0.81567,-1.61513 -1.75589,-1.91354 -0.457437,-0.14519 -0.617191,-1.81804 -0.279346,-2.92516 0.04441,-0.14552 -0.05256,-0.50398 -0.215472,-0.79657 -0.310849,-0.55827 -0.171786,-1.98156 0.19361,-1.98156 0.116994,0 0.291168,-0.35718 0.387053,-0.79375 0.206031,-0.93805 0.407599,-0.98363 1.077297,-0.24363 l 0.497853,0.55013 0.450066,-0.55581 c 0.533032,-0.65827 0.696009,-0.46973 0.651991,0.75426 -0.02353,0.65426 0.09482,0.93511 0.431118,1.02305 0.309078,0.0808 0.472339,0.39749 0.489924,0.95026 0.0294,0.9241 0.430509,2.37722 0.484465,1.75508 0.02761,-0.31839 0.08775,-0.30531 0.304104,0.0661 0.148327,0.25466 0.429276,0.46302 0.624331,0.46302 0.248233,0 0.31952,0.26066 0.23758,0.8687 -0.09673,0.71776 -0.02684,0.87549 0.402259,0.90781 0.530168,0.0399 0.509798,-0.35313 -0.09549,-1.84265 -0.10441,-0.25694 -0.0709,-0.46302 0.07529,-0.46302 0.144895,0 0.343489,0.42667 0.441321,0.94815 0.142164,0.7578 0.267594,0.91033 0.624758,0.75973 0.245786,-0.10364 0.73726,-0.25083 1.092164,-0.3271 l 0.645282,-0.13866 -0.570212,0.96644 c -0.313617,0.53154 -0.455166,0.96644 -0.314553,0.96644 0.140613,0 0.25566,0.12474 0.25566,0.27721 0,0.36032 1.313307,1.57699 1.692281,1.56775 0.160652,-0.004 0.574652,-0.46549 0.92,-1.02574 0.345348,-0.56024 1.086286,-1.30118 1.646529,-1.64653 0.560243,-0.34534 1.020897,-0.74696 1.023676,-0.89248 0.0072,-0.37643 -1.278977,-0.93176 -1.464132,-0.63217 -0.08291,0.13416 -0.291353,0.15268 -0.463198,0.0412 -0.171846,-0.11152 -0.550572,-0.20275 -0.841614,-0.20275 -0.291042,0 -0.498576,-0.15131 -0.461187,-0.33623 0.04699,-0.23242 -0.157246,-0.2932 -0.661459,-0.19686 -0.40119,0.0767 -0.584097,0.0704 -0.406459,-0.014 0.440331,-0.20906 -0.18488,-0.89378 -0.652315,-0.71441 -0.198215,0.0761 -0.332122,-0.0859 -0.332122,-0.40172 0,-0.29104 -0.18614,-0.6006 -0.413644,-0.6879 -0.227505,-0.0873 -0.334645,-0.28655 -0.238089,-0.44279 0.09656,-0.15623 -0.0049,-0.42496 -0.225493,-0.59718 -0.220578,-0.17222 -0.447931,-0.55125 -0.505229,-0.84229 -0.0573,-0.29104 -0.245937,-0.4994 -0.419196,-0.46302 -0.173258,0.0364 -0.315015,-0.17198 -0.315015,-0.46302 0,-0.29104 -0.127086,-0.52917 -0.282413,-0.52917 -0.156083,0 -0.211733,-0.22269 -0.124407,-0.49783 0.102381,-0.32257 0.0058,-0.55622 -0.274205,-0.66369 -0.266782,-0.10237 -0.369322,-0.32974 -0.267904,-0.59403 0.09037,-0.2355 0.03741,-0.58109 -0.117687,-0.76797 -0.200172,-0.24119 -0.197768,-0.39184 0.0083,-0.51918 0.207308,-0.12813 0.19906,-0.28932 -0.02886,-0.56394 -0.230918,-0.27824 -0.239171,-0.4645 -0.02986,-0.67381 0.209315,-0.20932 0.179572,-0.39898 -0.107597,-0.68615 -0.236152,-0.23616 -0.300123,-0.49363 -0.157964,-0.63579 0.43467,-0.43467 -0.271317,-1.96319 -1.182682,-2.56061 -0.513057,-0.33631 -0.874295,-0.79459 -0.874295,-1.10915 0,-0.29483 -0.194721,-0.83323 -0.432714,-1.19645 -0.237994,-0.36323 -0.357814,-0.73531 -0.266267,-0.82686 0.09155,-0.0915 -0.07092,-0.33271 -0.361035,-0.53591 -2.002214,-1.40241 0.475969,-1.36131 2.98954,0.0496 5.099029,2.86212 7.639011,5.24101 7.443331,6.97125 -0.350533,3.09948 -0.300299,3.48349 0.518667,3.96491 0.577361,0.3394 0.792286,0.36816 0.881944,0.11803 0.0652,-0.1819 0.438552,-0.33073 0.829668,-0.33073 0.671239,0 1.315833,-0.47539 2.361572,-1.74169 0.250298,-0.30309 0.775322,-0.75856 1.166722,-1.01216 0.64713,-0.41929 0.78028,-1.2149 0.203322,-1.2149 -0.120478,0 -0.554225,-0.13767 -0.96388,-0.30594 -0.409657,-0.16827 -0.953187,-0.27985 -1.207849,-0.24795 -0.508614,0.0637 -0.647163,-0.74364 -0.203719,-1.18708 0.825381,-0.82538 0.600107,-3.4674 -0.379147,-4.44665 -0.52587,-0.52587 -0.922393,-0.96498 -0.881161,-0.97579 0.04123,-0.0108 0.372621,-0.0797 0.736423,-0.15308 0.363802,-0.0734 0.840052,-0.17449 1.058333,-0.22468 0.218281,-0.0502 0.524478,-0.10037 0.68044,-0.1115 0.155961,-0.0111 0.561062,-0.63425 0.900223,-1.3847 l 0.616655,-1.36446 0.6534,1.29831 c 0.35937,0.71407 0.6838,1.33331 0.72096,1.37609 0.11136,0.12819 1.55361,0.38936 2.04551,0.37041 0.2518,-0.01 0.53808,0.11224 0.63619,0.27099 0.10681,0.17281 0.0558,0.21287 -0.12708,0.0998 -0.168,-0.10384 -0.30546,-0.0688 -0.30546,0.0778 0,0.14661 -0.28914,0.57855 -0.64253,0.95986 -0.76853,0.82925 -0.80517,3.84799 -0.0596,4.9124 0.30402,0.43404 0.38756,1.05393 0.31469,2.33489 -0.10907,1.91714 0.25795,2.67001 1.3016,2.67001 0.31214,0 0.69673,0.12919 0.85463,0.2871 0.63009,0.63009 1.9354,-0.44983 1.9354,-1.6012 0,-0.56975 -0.11906,-1.1095 -0.26458,-1.19944 -1.91305,-1.18233 1.31144,-4.7947 7.35326,-8.23778 2.53506,-1.44467 4.75202,-1.49004 2.98741,-0.0611 -0.3253,0.26341 -0.51259,0.60653 -0.4162,0.76249 0.0964,0.15596 0.0163,0.47504 -0.17788,0.70906 -0.19422,0.23402 -0.47236,0.79103 -0.61809,1.23779 -0.1587,0.48653 -0.63633,1.02747 -1.191,1.34885 -0.92796,0.53768 -1.22374,1.61115 -0.68438,2.48386 0.10529,0.17035 0.003,0.37673 -0.23164,0.46672 -0.31818,0.12209 -0.34889,0.24749 -0.12629,0.51571 0.16176,0.19491 0.20334,0.50126 0.0924,0.68077 -0.11095,0.17951 -0.22142,0.79113 -0.24549,1.35916 -0.0241,0.56802 -0.18571,1.12049 -0.35919,1.22771 -0.17348,0.10722 -0.23911,0.39378 -0.14585,0.63681 0.11236,0.29281 0.0345,0.44186 -0.23086,0.44186 -0.27015,0 -0.35539,0.17215 -0.26203,0.52917 0.10571,0.40423 0.008,0.52917 -0.41334,0.52917 -0.40328,0 -0.5068,0.11707 -0.38475,0.43513 0.10074,0.26252 -0.018,0.57041 -0.29938,0.77615 -0.25649,0.18755 -0.38735,0.46883 -0.2908,0.62506 0.0966,0.15624 -0.0174,0.35812 -0.25329,0.44863 -0.23587,0.0905 -0.36622,0.32779 -0.28966,0.52729 0.12338,0.32153 -0.14417,0.47687 -0.68797,0.39944 -0.10027,-0.0143 -0.25871,0.21473 -0.35207,0.50889 -0.12105,0.38141 -0.31544,0.48861 -0.67758,0.37368 -0.35935,-0.11406 -0.50783,-0.0347 -0.50783,0.27135 0,0.3058 -0.14853,0.38539 -0.5069,0.27165 -0.2788,-0.0885 -0.58705,-0.0312 -0.68501,0.12731 -0.12831,0.20761 -0.27592,0.20702 -0.52788,-0.002 -0.23022,-0.19107 -0.40593,-0.19941 -0.51409,-0.0244 -0.0904,0.14623 -0.3391,0.19881 -0.55272,0.11683 -0.83786,-0.32152 -0.37628,0.8521 0.5263,1.33817 0.50308,0.27093 1.23365,0.95285 1.62348,1.51537 0.74298,1.07213 1.76479,1.38328 2.05542,0.62591 0.0838,-0.21828 0.33462,-0.39688 0.55747,-0.39688 0.22285,0 0.41429,-0.20836 0.42542,-0.46302 0.0111,-0.25466 0.0749,-0.70114 0.14165,-0.99219 0.0668,-0.29104 0.16103,-1.07495 0.20947,-1.74203 0.0484,-0.66708 0.29605,-1.53028 0.55025,-1.91823 0.49644,-0.75766 0.81247,-0.9398 0.58014,-0.33435 -0.26589,0.69288 0.17604,0.6949 0.63,0.003 0.25546,-0.38943 0.52469,-0.57077 0.61955,-0.41729 0.0923,0.14928 0.0519,0.343 -0.0896,0.43047 -0.14155,0.0875 -0.18808,0.33955 -0.10343,0.56016 0.0847,0.22062 -0.0248,0.54423 -0.24336,0.71914 -0.34791,0.27849 -0.56598,0.78994 -1.3765,3.22843 -0.0967,0.29104 0.38188,-0.5424 1.06361,-1.85208 0.68172,-1.30969 1.23044,-2.60931 1.21938,-2.88804 -0.0301,-0.75852 1.02592,-2.14763 1.29799,-1.7074 0.16726,0.27062 0.36071,0.21156 0.86799,-0.265 l 0.65276,-0.61324 -0.35877,1.01705 c -0.19732,0.55937 -0.4721,0.99151 -0.61062,0.9603 -0.42186,-0.095 -0.96635,1.49734 -0.61324,1.79346 0.16531,0.13864 0.25195,0.18162 0.19253,0.0955 -0.11617,-0.16834 0.79905,-1.17078 1.06892,-1.17078 0.0895,0 -0.009,0.26789 -0.21822,0.59531 -0.8286,1.2949 -0.81174,1.60972 0.0532,0.99382 0.76321,-0.54345 1.07319,-1.88355 0.40915,-1.76885 -0.62267,0.10756 -0.2111,-0.67561 0.63736,-1.21283 0.57506,-0.36409 0.82215,-0.43345 0.6689,-0.18773 -0.13367,0.21431 -0.26464,0.50872 -0.29105,0.65424 -0.0264,0.14552 -0.1318,0.47294 -0.23419,0.7276 -0.13112,0.32612 -0.0604,0.46302 0.23902,0.46302 0.23385,1e-5 0.42518,-0.11905 0.42518,-0.26457 0,-0.14552 0.1867,-0.26459 0.41489,-0.26459 0.33631,0 0.29892,0.16288 -0.1974,0.8599 -0.33677,0.47294 -0.583,0.88966 -0.54719,0.92604 0.21677,0.2202 0.0118,0.59357 -0.24034,0.43776 -0.19268,-0.11908 -0.2335,-0.0724 -0.11057,0.12656 0.11489,0.1859 -0.13986,0.65776 -0.62058,1.14944 -0.44851,0.45875 -0.81547,0.69945 -0.81547,0.5349 0,-0.16456 0.11386,-0.36957 0.25303,-0.45558 0.13916,-0.086 0.19145,-0.31683 0.1162,-0.51293 -0.0753,-0.1961 0.18625,-0.61067 0.58112,-0.92127 0.39486,-0.3106 0.65889,-0.62377 0.58672,-0.69594 -0.25408,-0.25408 -1.58498,1.21964 -1.44079,1.59539 0.0799,0.2081 0.0313,0.44874 -0.10784,0.53475 -0.13916,0.086 -0.25303,0.034 -0.25303,-0.11551 0,-0.14955 -0.17994,-0.20285 -0.39987,-0.11845 -0.27293,0.10473 -0.35311,0.0316 -0.25254,-0.2305 0.26331,-0.68619 -1.25419,-1.55183 -1.63637,-0.93344 -0.10275,0.16624 -0.0489,0.20444 0.13124,0.0931 0.168,-0.10384 0.30546,-0.12783 0.30546,-0.0533 0,0.30969 -0.62802,1.48327 -0.79375,1.48327 -0.32859,0 -0.78862,1.29486 -0.51919,1.46137 0.14003,0.0865 0.25461,0.0243 0.25461,-0.13835 0,-0.37756 1.63402,-2.42302 1.80169,-2.25535 0.0692,0.0692 -0.0271,0.30999 -0.21391,0.53512 -0.29056,0.35009 -0.2673,0.38214 0.16073,0.22144 0.44208,-0.16598 0.4581,-0.13583 0.13732,0.25852 -0.21483,0.26411 -0.24822,0.44642 -0.0818,0.44642 0.15475,0 0.35495,-0.11907 0.44489,-0.26459 0.24527,-0.39686 0.58382,-0.31935 0.7744,0.17729 0.21102,0.54992 -0.37311,0.94951 -0.83168,0.56893 -0.18678,-0.15501 -0.34382,-0.17797 -0.34898,-0.051 -0.005,0.12696 -0.16886,-0.057 -0.3638,-0.40888 l -0.35442,-0.63972 -0.35108,0.63972 c -0.51166,0.93231 -0.52239,1.28977 -0.0331,1.10201 0.27679,-0.10622 0.31301,-0.19938 0.10455,-0.26887 -0.17545,-0.0585 -0.2515,-0.21554 -0.16901,-0.34903 0.0901,-0.14581 0.34097,-0.1405 0.62832,0.0133 0.26308,0.14079 0.55351,0.1808 0.6454,0.0889 0.0919,-0.0919 0.16708,-0.0995 0.16708,-0.0168 0,0.27825 -1.89027,1.26849 -2.13395,1.11789 -0.2652,-0.16391 -0.0313,0.63368 0.32065,1.09336 0.27965,0.36525 0.0164,0.63711 -0.61708,0.63711 -0.39614,0 -0.45689,0.13237 -0.31684,0.69037 0.16437,0.6549 0.13191,0.68129 -0.63167,0.51358 -0.78541,-0.1725 -0.8115,-0.14601 -1.07559,1.0922 -0.32997,1.54713 -0.50774,1.39974 1.83675,1.52287 1.07595,0.0565 2.15042,0.18013 2.38771,0.27471 0.30651,0.12218 0.59675,-0.0955 1.00233,-0.75175 0.69281,-1.12097 2.05594,-2.35039 3.13625,-2.82858 0.63033,-0.27901 0.82582,-0.5586 0.92913,-1.32885 0.072,-0.53653 0.42109,-1.5548 0.77584,-2.26284 0.49827,-0.99449 0.59593,-1.4679 0.42933,-2.08108 -0.30149,-1.1097 -0.34885,-3.22041 -0.10388,-4.63021 0.11379,-0.65485 0.11705,-1.10447 0.007,-0.99916 -0.94394,0.90528 -2.75753,-1.98447 -2.96472,-4.72396 l -0.14747,-1.9498 0.89809,0.006 c 0.49394,0.003 1.41984,0.24255 2.05754,0.53189 1.02327,0.46429 1.19421,0.47915 1.45521,0.1265 0.43599,-0.58906 1.70385,0.26344 2.75746,1.8541 0.64164,0.9687 0.87243,1.15917 1.00041,0.82565 0.3884,-1.01215 1.58607,1.16752 1.93405,3.51984 0.13669,0.92402 0.28135,1.18855 0.61868,1.13138 0.5987,-0.10148 0.84439,1.31861 0.65694,3.79713 -0.10148,1.34176 -0.0529,1.96748 0.15828,2.03786 0.4439,0.14797 -0.20797,3.67626 -0.99805,5.40203 -0.34635,0.75654 -0.51318,1.41437 -0.37072,1.46185 0.65178,0.21726 -2.28866,3.91221 -3.11334,3.91221 -0.19998,0 -0.36359,0.11906 -0.36359,0.26458 0,0.14552 -0.0893,0.25049 -0.19843,0.23325 -0.66439,-0.1049 -0.9518,0.0453 -0.65489,0.34218 0.51663,0.51663 -2.73783,2.33499 -4.17911,2.33499 -0.34398,0 -0.52382,0.17816 -0.52382,0.51892 0,1.09603 -3.8553,1.67584 -6.52994,0.98205 -0.74447,-0.19312 -1.63362,-0.28242 -1.97589,-0.19846 -1.21595,0.2983 -6.70296,0.15408 -7.95238,-0.20903 -1.1042,-0.3209 -1.29296,-0.31344 -1.67254,0.0662 -0.53164,0.53163 -1.02975,0.54415 -1.535327,0.0386 -0.342668,-0.34267 -0.574673,-0.33935 -1.937129,0.0277 -1.806321,0.48664 -6.619324,0.56883 -7.444658,0.12713 -0.388945,-0.20816 -0.762658,-0.21425 -1.271653,-0.0207 -0.916671,0.34852 -3.438539,0.67448 -4.473189,0.57818 z m 3.517392,-0.64154 c 1.219269,-0.26178 1.502041,-0.45086 2.182813,-1.45957 0.928002,-1.37504 0.931958,-1.39689 0.25292,-1.39689 -0.291042,0 -0.529167,-0.11118 -0.529167,-0.24706 0,-0.13589 0.303359,-0.19206 0.674131,-0.12482 2.096561,0.38018 2.742641,-1.34111 1.122864,-2.99154 -0.612382,-0.62397 -0.977017,-1.1345 -0.810301,-1.1345 0.166716,0 0.865469,0.63783 1.552785,1.41741 1.190264,1.35002 3.016771,1.75209 3.016771,0.66408 0,-0.33974 -1.623084,-2.09072 -1.823299,-1.96699 -0.10037,0.062 -0.577658,-0.0786 -1.060642,-0.31251 -0.693319,-0.33579 -1.038534,-0.36476 -1.640141,-0.13768 -0.419094,0.15819 -0.999594,0.22548 -1.29,0.14954 -0.290405,-0.076 -0.699762,-0.0722 -0.90968,0.008 -0.446498,0.17133 1.786235,2.55901 2.392951,2.55901 0.199134,0 0.362061,0.0893 0.362061,0.19844 0,0.10914 -0.773906,0.19844 -1.719791,0.19844 -1.037997,0 -1.719792,-0.11149 -1.719792,-0.28123 0,-1.18158 -2.96627,-2.63513 -4.178964,-2.04781 -1.112493,0.5388 -1.06992,0.73303 0.171078,0.78052 0.560284,0.0214 1.409157,0.25957 1.886385,0.52917 1.897846,1.07215 1.996823,1.1437 1.592334,1.15109 -2.566384,0.0469 -6.43658,3.93779 -4.43177,4.45548 2.101651,0.54269 2.330123,0.54218 4.906454,-0.011 z m -3.120517,-1.50057 c 0,-0.30466 2.86694,-1.47177 3.49845,-1.4242 0.264955,0.02 0.428374,-0.0501 0.363152,-0.15559 -0.06522,-0.10553 0.110799,-0.19187 0.391157,-0.19187 0.871606,0 0.559529,0.38183 -0.482446,0.59028 -0.545704,0.10917 -1.051719,0.21384 -1.12448,0.2326 -0.383995,0.099 -1.78045,0.68639 -2.182812,0.91816 -0.254662,0.14669 -0.463021,0.16047 -0.463021,0.0306 z m 6.879167,-3.22359 c 0,-0.15411 0.119062,-0.20661 0.264583,-0.11667 0.145521,0.0899 0.264583,0.21602 0.264583,0.28019 0,0.0642 -0.119062,0.11668 -0.264583,0.11668 -0.145521,0 -0.264583,-0.12609 -0.264583,-0.2802 z m 4.564763,4.65938 c 0.181515,-0.0394 0.836044,-0.16314 1.454507,-0.27489 1.317303,-0.23801 1.284899,-0.15586 0.529167,-1.34153 -0.588317,-0.92301 -2.05559,-1.16476 -3.110894,-0.51254 -0.143305,0.0886 -0.494693,0.20612 -0.780862,0.26123 -0.286169,0.0551 -0.945718,0.30208 -1.465663,0.54881 -0.519946,0.24673 -1.004254,0.3897 -1.076239,0.31771 -0.158915,-0.15891 2.346633,-1.2613 2.866735,-1.2613 0.203431,0 0.459171,-0.0893 0.568312,-0.19844 0.223402,-0.2234 0.359635,-0.25098 1.470642,-0.29766 0.741707,-0.0312 0.777481,-0.0827 0.619853,-0.89297 -0.253373,-1.30243 -0.91272,-1.46879 -2.870798,-0.72433 -0.383494,0.1458 -0.806334,0.19769 -0.939643,0.1153 -0.133309,-0.0824 -0.24238,-0.0518 -0.24238,0.0679 0,0.11976 -0.454311,0.49852 -1.009579,0.84169 -0.579685,0.35827 -1.316636,1.1702 -1.730684,1.90677 l -0.721105,1.28281 0.606204,0.13569 c 1.371808,0.30706 4.47463,0.32074 5.832427,0.0257 z m 21.251739,0.0862 c 0.649,-0.16341 1.23825,-0.39139 1.30946,-0.5066 0.23715,-0.38372 -2.24031,-2.58968 -3.72319,-3.31519 -1.92176,-0.94023 -1.48347,-1.66175 1.46806,-2.41674 l 0.92604,-0.23688 -0.72916,-0.48164 c -0.88817,-0.58667 -1.73516,-0.31862 -3.2491,1.02827 -0.90429,0.80451 -0.94205,0.89367 -0.48647,1.14862 0.3669,0.20533 0.0761,0.23853 -1.13082,0.12909 -2.36571,-0.21451 -4.36238,0.11224 -3.65941,0.59887 0.28804,0.19939 0.64277,0.4563 0.7883,0.5709 0.14552,0.11459 0.85989,0.2249 1.5875,0.24512 1.92403,0.0534 2.77812,0.18135 2.77812,0.41602 0,0.11378 0.0893,0.17952 0.19844,0.14609 0.30186,-0.0925 2.53295,0.85717 2.37796,1.01216 -0.0745,0.0745 -0.84933,-0.15459 -1.72182,-0.50911 -1.07579,-0.43714 -2.10133,-0.6446 -3.18643,-0.6446 -1.54581,0 -2.898,-0.57296 -3.55108,-1.50471 -0.10691,-0.15253 -0.19621,-0.19881 -0.19844,-0.10284 -0.002,0.096 -0.56959,0.031 -1.26082,-0.14444 -1.15148,-0.29221 -1.47915,-0.3205 -2.34743,-0.20264 -0.1633,0.0222 -0.3691,0.48678 -0.45732,1.03248 -0.0882,0.54571 -0.45967,1.43096 -0.82544,1.96722 -0.60135,0.88165 -0.6209,0.98835 -0.20415,1.11409 1.25703,0.37926 2.26837,0.50451 4.70566,0.58277 3.91849,0.12581 4.42325,-0.12022 3.26571,-1.59181 -0.30764,-0.39109 -0.4977,-0.7727 -0.42238,-0.84802 0.0753,-0.0753 0.49768,0.38735 0.93857,1.02817 0.4409,0.64081 0.95839,1.17922 1.14999,1.19646 0.1916,0.0172 0.76507,0.14395 1.2744,0.28159 1.30331,0.35222 3.00422,0.35505 4.38525,0.007 z m -10.33838,-1.69269 c -0.7276,-0.34258 -1.88846,-0.70519 -2.57969,-0.80582 -1.32813,-0.19334 -1.76979,-0.60819 -0.52916,-0.49704 0.40018,0.0359 0.7276,0.0858 0.7276,0.1111 0,0.0252 0.26671,0.0957 0.59269,0.15647 0.81594,0.15222 4.00016,1.65651 3.50835,1.65742 -0.21828,5.3e-4 -0.99218,-0.27956 -1.71979,-0.62213 z m -7.1411,0.99763 c -0.077,-0.40018 -0.145073,-1.50151 -0.15129,-2.44739 -0.01482,-2.25306 -0.166339,-2.7786 -0.678572,-2.35348 -0.285361,0.23683 -0.463201,0.24285 -0.682916,0.0231 -0.702797,-0.7028 -1.223772,0.92255 -0.720228,2.24697 0.15575,0.40966 0.264645,0.79105 0.241986,0.84754 -0.02265,0.0565 0.06456,0.17555 0.193823,0.26458 0.129262,0.089 0.570283,0.60836 0.980043,1.15406 0.889524,1.18463 1.001124,1.22076 0.817154,0.26459 z m 2.53346,-2.05052 c 0.73153,-1.56412 0.2206,-4.02778 -0.57002,-2.74854 -0.16476,0.26659 -0.2894,0.26402 -0.623,-0.0129 -0.35053,-0.29089 -0.41705,-0.27763 -0.41705,0.0832 0,0.2361 -0.18658,0.42927 -0.41462,0.42927 -0.41703,0 -0.51274,2.62137 -0.16258,4.4531 l 0.12962,0.67803 0.78133,-0.91191 c 0.42974,-0.50156 1.00408,-1.38817 1.27632,-1.97026 z m -19.862455,0.65733 c 0.409934,-0.43884 1.082781,-0.97389 1.495216,-1.189 0.741572,-0.38678 0.733023,-0.39113 -0.771472,-0.39274 -0.836745,-7.9e-4 -1.521355,-0.0961 -1.521355,-0.21153 0,-0.11544 0.781638,-0.17522 1.736972,-0.13284 1.106572,0.0491 1.990882,-0.056 2.436582,-0.28951 l 0.699611,-0.36656 -0.915228,-0.55794 c -0.503376,-0.30687 -1.093822,-0.57307 -1.312103,-0.59155 -1.747281,-0.148 -2.685434,-0.0671 -3.770313,0.32527 -0.691224,0.24997 -1.25677,0.39672 -1.25677,0.32611 0,-0.0706 -0.175436,0.0471 -0.389858,0.26148 -0.214421,0.21442 -0.820885,0.65625 -1.347695,0.98183 l -0.957838,0.59198 0.796232,0.50414 c 0.851074,0.53886 3.384783,1.51339 3.975817,1.52919 0.196278,0.005 0.692268,-0.3495 1.102202,-0.78833 z m 37.699265,0.37572 c 2.78022,-0.63996 3.66246,-1.58802 2.3133,-2.48589 -0.54471,-0.36251 -1.06323,-0.75963 -1.15226,-0.8825 -0.089,-0.12287 -0.26762,-0.21745 -0.39687,-0.21019 -0.12925,0.007 -0.82216,-0.16116 -1.5398,-0.37428 -1.52796,-0.45375 -2.31709,-0.48089 -3.60222,-0.12387 -1.6384,0.45515 -2.35284,1.25324 -1.26879,1.41733 0.19524,0.0296 0.49792,0.14308 0.67264,0.25227 0.17472,0.1092 0.6212,0.1435 0.99219,0.0762 0.37098,-0.0673 0.67452,0.002 0.67452,0.15306 0,0.15145 -0.1786,0.20683 -0.39688,0.12307 -0.21828,-0.0838 -0.39687,-0.037 -0.39687,0.10398 0,0.14096 0.10139,0.25628 0.22531,0.25628 0.12393,0 0.68947,0.46903 1.25677,1.04228 0.5673,0.57326 1.21005,0.99563 1.42833,0.93861 0.21829,-0.057 0.75407,-0.18589 1.19063,-0.28638 z m -3.04271,-2.19326 c 0,-0.10933 0.35719,-0.19878 0.79375,-0.19878 0.43656,0 0.79375,0.0793 0.79375,0.17621 0,0.0969 -0.35719,0.18637 -0.79375,0.19878 -0.43656,0.0124 -0.79375,-0.0669 -0.79375,-0.17621 z m -39.687499,-0.29662 c 0,-0.0979 0.327422,-0.33144 0.727604,-0.51894 l 0.727605,-0.34093 -0.79375,-0.30359 c -1.520039,-0.58138 -3.28033,-1.57491 -3.153615,-1.77994 0.07017,-0.11353 0.734706,0.15156 1.476755,0.58909 1.935988,1.1415 6.042484,1.10746 6.042484,-0.0501 0,-0.11306 0.416719,-0.35625 0.926042,-0.54043 1.341426,-0.48506 -0.300519,-3.23527 -2.233298,-3.74071 -0.887495,-0.23208 -0.784183,1.70714 0.116631,2.18924 0.363803,0.1947 0.661459,0.51711 0.661459,0.71647 0,0.25299 -0.174899,0.19953 -0.579057,-0.177 -0.733937,-0.68377 -0.928898,-0.67774 -1.15533,0.0357 -0.189037,0.5956 0.410423,1.27693 1.123498,1.27693 0.190468,0 0.346305,0.11906 0.346305,0.26458 0,0.42313 -0.303136,0.31975 -1.918229,-0.65415 -0.836744,-0.50456 -1.521354,-0.87707 -1.521354,-0.82781 0,0.0493 -0.626854,-0.0561 -1.39301,-0.23424 -1.372961,-0.31915 -2.970646,-0.27949 -4.368472,0.10846 -0.04012,0.0111 0.113782,0.38132 0.341998,0.82265 0.240827,0.4657 0.538383,0.7261 0.709133,0.62057 0.164882,-0.1019 0.220588,-0.0627 0.126734,0.0891 -0.0921,0.14902 0.12748,0.6139 0.487964,1.03306 0.360483,0.41916 0.657392,0.64305 0.659798,0.49753 0.0024,-0.14552 0.09457,-0.12273 0.204801,0.0506 0.42158,0.66308 2.437304,1.38571 2.437304,0.87377 z m 48.450299,-1.26464 c 0.29954,-0.24944 0.89779,-0.96076 1.32944,-1.58072 0.86064,-1.23607 0.80195,-1.33283 -0.8919,-1.47047 -1.2275,-0.0998 -1.44392,-0.30177 -0.90286,-0.84282 0.23263,-0.23264 0.86459,-1.21267 1.40436,-2.17786 0.53976,-0.96519 1.03295,-1.60019 1.09598,-1.41111 0.063,0.18908 0.0108,0.4193 -0.11609,0.51161 -0.12688,0.0923 -0.51627,0.70362 -0.86531,1.35847 -0.34904,0.65484 -0.80328,1.38716 -1.00942,1.62737 -0.4337,0.50539 -0.25331,0.63878 0.85029,0.62878 1.00692,-0.009 1.78832,-1.42797 2.26961,-4.12116 0.39376,-2.20331 0.26146,-2.40331 -1.09735,-1.65902 -0.57198,0.31331 -1.03997,0.4544 -1.03997,0.31354 0,-0.14085 0.40083,-0.42357 0.89073,-0.62827 1.01816,-0.42541 1.22842,-1.05673 1.22189,-3.6688 -0.006,-2.29784 -1.58542,-2.77239 -2.25074,-0.67614 -0.0892,0.28093 -0.25927,0.51078 -0.37801,0.51078 -0.11875,0 -0.28222,0.20836 -0.36328,0.46302 -0.081,0.25466 -0.43268,1.24396 -0.78139,2.19843 -0.34871,0.95448 -0.59883,1.96651 -0.55582,2.24896 0.19296,1.26727 0.19092,1.90319 -0.009,2.82865 -0.11793,0.54571 -0.31064,0.99219 -0.42823,0.99219 -0.1176,0 -0.0922,-0.44055 0.0565,-0.97901 0.43088,-1.56051 0.0534,-3.43368 -0.94352,-4.68245 -0.75062,-0.94022 -0.85237,-1.24469 -0.76061,-2.27604 0.0583,-0.65484 -0.009,-1.69572 -0.14891,-2.31305 -0.14016,-0.61734 -0.159,-1.0632 -0.0419,-0.9908 0.11714,0.0724 0.29726,0.63046 0.40027,1.24016 0.16295,0.96452 0.22988,1.05027 0.51521,0.66007 0.18034,-0.24665 0.45833,-0.44846 0.61773,-0.44846 0.19487,0 0.16422,-0.356 -0.0935,-1.08651 -0.21084,-0.59758 -0.30355,-1.21562 -0.20603,-1.37342 0.23361,-0.37797 0.12707,-2.28704 -0.18916,-3.38967 -0.13817,-0.48177 -0.15853,-0.96862 -0.0453,-1.0819 0.11328,-0.11327 0.22939,9.8e-4 0.25803,0.25392 0.0286,0.25293 0.10429,0.69799 0.16811,0.98904 0.0638,0.29104 0.12516,0.91611 0.13629,1.38906 0.0265,1.12403 0.28744,1.08299 0.99501,-0.15648 l 0.57789,-1.01229 -0.75611,-1.14212 c -0.41586,-0.62816 -1.11561,-1.36974 -1.55501,-1.64794 l -0.79889,-0.50582 -0.15627,0.87633 c -0.0859,0.48199 -0.18203,1.38228 -0.21351,2.00065 -0.0315,0.61837 -0.15123,1.12438 -0.26611,1.12448 -0.23989,1.9e-4 0.20581,0.57949 1.06877,1.38914 0.32742,0.3072 0.59531,0.67688 0.59531,0.82153 0,0.14464 -0.27556,0.004 -0.61236,-0.3123 -0.81388,-0.7646 -0.84726,-0.75129 -1.36582,0.54472 -0.72829,1.82018 -0.51507,5.96028 0.29103,5.65095 0.20033,-0.0769 0.36423,-0.0244 0.36423,0.11651 0,0.14096 -0.11231,0.25628 -0.24958,0.25628 -1.1303,0 -2.2872,5.46598 -1.59854,7.55264 0.56341,1.70712 1.50804,0.59569 1.53449,-1.80542 0.0243,-2.20171 0.25337,-4.71681 0.44735,-4.9108 0.0731,-0.0731 0.0555,1.4381 -0.0391,3.35833 -0.14413,2.92308 -0.11201,3.47233 0.19737,3.37456 1.08256,-0.34211 1.93776,-0.44396 1.69244,-0.20157 -0.14552,0.14378 -0.65472,0.32091 -1.13154,0.39363 -0.47683,0.0727 -1.2729,0.37171 -1.76906,0.66445 l -0.90211,0.53226 -0.16952,-0.77184 c -0.23094,-1.05144 -0.58746,-1.20098 -1.28993,-0.54104 -0.32603,0.30629 -0.70295,0.55689 -0.83761,0.55689 -0.13465,0 0.0762,-0.29766 0.46853,-0.66146 0.39234,-0.3638 0.8257,-0.66146 0.96303,-0.66146 0.13731,0 0.24967,-0.41672 0.24967,-0.92604 0,-1.37341 -1.00831,-1.01703 -2.92365,1.03335 -1.01456,1.08609 -1.20508,1.48019 -0.71558,1.48019 0.15214,0 0.56475,0.28813 0.91691,0.6403 0.8714,0.8714 1.44559,0.92817 2.2112,0.21863 0.35583,-0.32978 0.70471,-0.54186 0.77528,-0.4713 0.0706,0.0706 -0.14426,0.34902 -0.4774,0.61877 l -0.60569,0.49046 1.22135,0.34196 c 1.33074,0.37258 2.61803,0.0447 4.174,-1.06329 0.83586,-0.59519 1.22812,-0.66829 0.79672,-0.14848 -0.16545,0.19936 -1.01809,0.68435 -1.89475,1.07778 l -1.59394,0.71531 0.87017,0.601 c 0.94122,0.65007 1.90341,0.41121 3.41526,-0.84782 z m -0.8253,-7.1509 c 0,-0.17275 0.0934,-0.31409 0.20754,-0.31409 0.31815,0 1.16583,-1.55639 0.99672,-1.83002 -0.0821,-0.1328 -0.0592,-0.28138 0.0509,-0.33019 0.30244,-0.13414 1.40997,-3.41542 1.24364,-3.68453 -0.0798,-0.12904 0.0277,-0.16832 0.23889,-0.0873 0.32252,0.12376 0.28958,0.38795 -0.20609,1.65273 -0.62361,1.59127 -1.05143,2.98156 -0.99997,3.24961 0.017,0.0885 -0.32066,0.49773 -0.75035,0.90939 -0.42968,0.41167 -0.78124,0.60714 -0.78124,0.4344 z m -17.72708,7.61078 c 0,-0.15247 0.30354,-0.55853 0.67453,-0.90235 0.60783,-0.56331 0.51665,-1.21395 -0.11539,-0.82334 -0.56427,0.34875 -0.8622,-0.59481 -0.44347,-1.40453 0.58345,-1.12827 0.25317,-1.41639 -0.70864,-0.61816 -0.20997,0.17426 -0.4664,0.2322 -0.56984,0.12876 -0.10344,-0.10344 -0.10395,0.0312 -0.001,0.29913 0.1735,0.45213 0.2217,0.44202 0.66956,-0.14036 0.26543,-0.34516 0.48525,-0.49331 0.48848,-0.32922 0.003,0.16408 -0.1714,0.44546 -0.38807,0.62529 -0.21668,0.17982 -0.33772,0.41797 -0.26897,0.5292 0.0687,0.11123 -0.28975,0.642 -0.79666,1.17949 -1.03695,1.09947 -1.1773,1.59729 -0.3925,1.39206 0.29105,-0.0761 0.52917,-0.0305 0.52917,0.10143 0,0.1319 0.29766,0.23982 0.66146,0.23982 0.3638,0 0.66146,-0.12475 0.66146,-0.27722 z m 2.02051,-0.0161 c 0.35218,0.0111 0.88886,-0.37913 1.42351,-1.03507 0.47201,-0.57908 0.98512,-1.05288 1.14024,-1.05288 0.15512,0 -0.12186,0.41672 -0.61551,0.92604 -0.49366,0.50932 -0.84444,0.93489 -0.77951,0.9457 0.0649,0.0108 0.40947,0.0732 0.76565,0.13862 0.44587,0.0819 0.81677,-0.0714 1.19063,-0.49203 0.29866,-0.33603 0.90021,-0.88573 1.33677,-1.22155 l 0.79375,-0.61058 -1.11321,0.08 c -0.61226,0.044 -1.19765,-0.004 -1.30087,-0.10769 -0.28905,-0.28904 -2.21613,-0.22215 -2.21613,0.0769 0,0.14552 -0.17859,0.26459 -0.39687,0.26459 -0.21829,0 -0.39688,0.11802 -0.39688,0.26228 0,0.14425 -0.35719,0.60363 -0.79375,1.02083 -0.94533,0.90341 -1.01151,1.22804 -0.19844,0.97344 0.32743,-0.10253 0.8497,-0.1784 1.16062,-0.1686 z m -20.59209,-1.16803 c -1.023139,-0.97626 -1.417671,-1.1845 -2.244232,-1.1845 h -1.002861 l 0.921314,0.63631 c 0.506723,0.34996 1.128509,0.88574 1.381746,1.19062 0.297927,0.35868 0.764837,0.55216 1.322917,0.54819 l 0.862485,-0.006 z m 8.517411,1.0861 c 0,-0.0609 0.06627,-0.28333 0.147256,-0.49439 0.09201,-0.23977 -0.0569,-0.43713 -0.396875,-0.52604 -0.327215,-0.0856 -0.544131,-0.35981 -0.544131,-0.68793 0,-0.37403 -0.123656,-0.49818 -0.393197,-0.39474 -0.257623,0.0988 -0.483438,-0.0865 -0.654911,-0.53747 -0.285173,-0.75007 -1.026645,-0.89239 -2.241959,-0.43032 -0.565174,0.21487 -0.67998,0.18168 -0.686439,-0.19844 -0.0077,-0.4514 -1.522101,-2.3221 -1.719808,-2.1244 -0.05631,0.0563 0.234479,0.49708 0.646202,0.97948 0.411724,0.48241 0.734165,1.07082 0.716538,1.3076 -0.0221,0.29682 0.192439,0.43564 0.690945,0.44707 0.761295,0.0175 2.203341,1.19302 2.461599,2.00671 0.08139,0.25643 0.469708,0.51528 0.86294,0.57524 0.393232,0.0599 0.804262,0.12684 0.913402,0.14864 0.109141,0.0218 0.198438,-0.0102 0.198438,-0.071 z m 7.722469,-0.78162 c 0.16395,-0.30961 0.52846,-0.76498 0.81002,-1.01191 0.52939,-0.46429 0.40317,-1.1594 -0.15025,-0.82747 -0.178,0.10676 -0.15619,-0.005 0.0507,-0.26027 0.3198,-0.39425 0.29534,-0.44766 -0.20499,-0.44766 -0.36845,0 -0.66009,0.24192 -0.82982,0.68836 -0.17148,0.451 -0.39729,0.63632 -0.65491,0.53747 -0.2671,-0.1025 -0.3932,0.0188 -0.3932,0.37828 0,0.659 -0.66967,0.94491 -1.19399,0.50976 -0.66098,-0.54856 -0.43736,-0.0126 0.26716,0.64035 0.7906,0.73271 1.85232,0.63717 2.2993,-0.20691 z m -4.50995,0.16467 c 0.0716,-0.88375 0.0465,-1.52659 -0.0984,-2.51354 -0.0801,-0.54571 -0.055,-0.99219 0.0558,-0.99219 0.11073,0 0.27954,0.68461 0.37513,1.52135 0.2313,2.02448 0.55961,2.55572 0.94806,1.53404 0.20403,-0.53666 0.20854,-0.99721 0.0152,-1.55187 -0.15122,-0.4338 -0.26299,-1.09839 -0.24837,-1.47686 0.0212,-0.54782 0.0746,-0.48407 0.26224,0.31267 0.31995,1.3588 1.00086,2.62286 1.30995,2.43183 0.33633,-0.20786 0.32509,-1.37265 -0.0153,-1.58301 -0.25916,-0.16017 -1.0665,-1.8735 -1.04263,-2.21265 0.006,-0.0914 0.2344,0.25059 0.50659,0.75992 0.55692,1.04212 1.58667,2.21657 1.77679,2.02645 0.19233,-0.19233 -0.58693,-1.57068 -1.20341,-2.12858 -0.30251,-0.27377 -0.47982,-0.61134 -0.39402,-0.75017 0.0858,-0.13882 0.55924,0.31477 1.05209,1.00798 0.63226,0.88927 0.8961,1.10881 0.8961,0.74561 0,-0.28312 -0.49347,-1.08256 -1.0966,-1.77653 l -1.0966,-1.26177 -0.61709,0.57973 c -0.89052,0.8366 -2.399333,0.87201 -3.448826,0.0809 l -0.83516,-0.62952 -1.083069,1.2462 c -0.595688,0.68541 -1.069258,1.48665 -1.052378,1.78054 0.02562,0.44593 0.05071,0.45773 0.151693,0.0713 0.06655,-0.25466 0.219639,-0.46302 0.340199,-0.46302 0.12056,0 0.467014,-0.38695 0.769893,-0.85989 0.337439,-0.52691 0.552418,-0.69314 0.555149,-0.42927 0.0024,0.23684 -0.181986,0.58536 -0.409864,0.77447 -0.495093,0.4109 -1.26431,1.83467 -1.087001,2.01198 0.357182,0.35718 2.163723,-2.31746 1.8215,-2.69679 -0.103338,-0.11454 -0.04426,-0.12582 0.131289,-0.0251 0.340022,0.19515 0.216437,0.73033 -0.386294,1.67283 -0.567026,0.88666 -0.735383,2.30832 -0.251362,2.12258 0.21246,-0.0815 0.53585,-0.009 0.71864,0.16182 0.264287,0.24655 0.275484,0.20308 0.05468,-0.21228 -0.190495,-0.35834 -0.192595,-0.68131 -0.0067,-1.02867 0.149037,-0.27848 0.328726,-0.87686 0.399307,-1.32974 0.07058,-0.45289 0.19305,-0.88296 0.272155,-0.95572 0.137113,-0.12611 -0.03066,1.38979 -0.278183,2.51354 -0.178072,0.80845 0.317379,1.96963 0.614934,1.44121 0.259155,-0.46022 0.473509,-1.60255 0.506265,-2.69798 0.01196,-0.40018 0.121944,-0.7276 0.244393,-0.7276 0.12245,0 0.14332,0.52269 0.04636,1.16153 -0.180063,1.18647 -0.156467,1.76477 0.09919,2.43101 0.20223,0.52699 0.68256,0.46969 0.72765,-0.0868 z m 8.5783,-2.63036 c 0.0505,-0.69974 0.0972,-1.31659 0.10366,-1.37079 0.006,-0.0542 0.19036,0.0497 0.40865,0.23084 0.43801,0.36351 0.55166,0.92064 0.13532,0.66333 -0.14606,-0.0903 -0.19651,0.008 -0.11426,0.2222 0.081,0.21112 0.0201,0.46246 -0.13532,0.55853 -0.32277,0.19948 -0.3823,0.67364 -0.0842,0.67054 0.76339,-0.008 1.06825,-2.37424 0.33073,-2.56711 -0.29104,-0.0761 -0.52917,-0.24355 -0.52917,-0.3721 0,-0.12855 -0.0974,-0.23373 -0.2165,-0.23373 -0.11908,0 -0.17827,0.48343 -0.13153,1.07429 0.0467,0.59087 -0.0399,1.3077 -0.1926,1.59297 -0.15268,0.28528 -0.20063,0.6432 -0.10657,0.7954 0.27954,0.4523 0.43435,0.0842 0.53177,-1.26437 z m -0.7056,0.3814 c 0.24625,-0.76074 0.19158,-2.62897 -0.0903,-3.08502 -0.0569,-0.092 -0.55625,-0.14605 -1.10969,-0.12002 -1.09698,0.0516 -2.85085,-0.70515 -3.09224,-1.33421 -0.13358,-0.34809 -0.24818,-0.34633 -0.9723,0.0149 l -0.82088,0.4095 1.33655,1.4132 c 0.73509,0.77725 1.33654,1.53938 1.33654,1.69361 0,0.15424 0.23812,0.28043 0.52916,0.28043 0.58557,0 0.67964,-0.27286 0.2442,-0.7083 -0.20357,-0.20357 -0.0596,-0.44542 0.50387,-0.84667 0.93591,-0.66643 2.03308,-0.76678 1.80209,-0.16483 -0.0838,0.21829 -0.0299,0.39688 0.1196,0.39688 0.14954,0 0.18438,0.14159 0.0774,0.31465 -0.1324,0.21422 -0.27696,0.12977 -0.45292,-0.26459 -0.14216,-0.31857 -0.37917,-0.57923 -0.52671,-0.57923 -0.14754,0 -0.18991,0.0784 -0.0942,0.1741 0.22211,0.2221 -0.31959,0.88694 -0.7136,0.87582 -0.16409,-0.005 -0.0672,-0.18322 0.21525,-0.39687 0.28248,-0.21366 0.38635,-0.38846 0.23084,-0.38846 -0.43941,0 -0.86787,0.64455 -0.65616,0.98709 0.12475,0.20186 0.32456,0.22298 0.58017,0.0613 1.07868,-0.68215 1.81648,-0.006 1.09667,1.00461 -0.5144,0.72241 -0.52215,1.12197 -0.0217,1.12197 0.10999,0 0.32523,-0.38696 0.47832,-0.8599 z m -28.167739,-2.72329 c 6.53e-4,-3.84321 -1.868369,-6.74747 -3.196275,-4.96668 -0.413913,0.55508 -0.812778,1.06877 -0.886366,1.14153 -0.297005,0.29367 -0.396065,2.70769 -0.163786,3.99134 0.196088,1.08365 -0.230945,0.30118 -0.48852,-0.89514 -0.249533,-1.15896 -3.24594,-3.62536 -4.404413,-3.62536 -0.569583,0 0.707676,4.96373 1.503553,5.84317 1.600573,1.76861 2.169098,0.51453 0.793739,-1.75088 -0.643732,-1.06031 -1.102583,-1.99568 -1.01967,-2.07859 0.08291,-0.0829 0.667247,0.73158 1.29852,1.80998 1.399006,2.38993 1.125765,2.19299 3.725524,2.6851 l 0.849577,0.16082 -0.122258,-2.47491 c -0.06724,-1.36119 -0.171037,-2.93458 -0.230657,-3.4964 -0.05962,-0.56182 -0.009,-0.91901 0.112448,-0.79375 0.254616,0.26257 0.488267,2.6193 0.510407,5.14826 0.01354,1.54606 0.0833,1.77637 0.610593,2.01571 0.86658,0.39335 1.107155,-0.1962 1.107584,-2.7142 z m 15.080518,1.49624 c 0.135826,-0.23139 0.753695,-0.96246 1.37304,-1.62459 0.619347,-0.66213 1.043998,-1.32401 0.943668,-1.47084 -0.322659,-0.47222 -1.473528,-0.36579 -1.98536,0.1836 -0.689897,0.74051 -1.423783,0.9732 -3.102392,0.98363 -0.794564,0.005 -1.52465,0.0174 -1.622412,0.0277 -0.09776,0.0103 0.289191,0.51945 0.859896,1.13148 0.570705,0.61203 1.037645,1.20874 1.037645,1.32604 0,0.37817 2.240475,-0.12183 2.495915,-0.55701 z m -4.903405,-1.41878 c 0.12171,-0.32742 0.157171,-0.76367 0.0788,-0.96945 -0.09834,-0.25823 -0.03393,-0.30704 0.207921,-0.15757 0.629399,0.38899 1.591601,0.37644 1.591601,-0.0208 0,-0.23742 -0.284915,-0.37358 -0.781724,-0.37358 -0.787025,0 -2.107472,-1.02319 -2.149581,-1.66567 -0.01545,-0.23577 -0.05562,-0.23264 -0.15434,0.012 -0.0734,0.1819 -0.255332,0.33073 -0.404295,0.33073 -0.148963,0 -0.195847,-0.19544 -0.104186,-0.4343 0.131241,-0.34201 0.0904,-0.37101 -0.192178,-0.13649 -0.273356,0.22686 -0.358835,0.20846 -0.358835,-0.0773 0,-0.20628 0.263585,-0.44121 0.585745,-0.52207 0.539046,-0.13529 1.12522,-1.21113 0.659888,-1.21113 -1.191415,0 -2.111066,2.37358 -0.982437,2.53563 0.869405,0.12482 1.236109,0.35128 1.236109,0.76335 0,0.22285 0.192287,0.40518 0.427305,0.40518 0.393351,0 0.393351,0.0518 0,0.65215 -0.484603,0.7396 -0.560928,1.46452 -0.154195,1.46452 0.15021,0 0.37269,-0.26789 0.4944,-0.59531 z m -1.896399,-4.4646 c 0.179476,-0.18083 0.39297,-0.26212 0.474432,-0.18066 0.08146,0.0815 -0.06538,0.22941 -0.326319,0.32877 -0.377084,0.14358 -0.407475,0.11319 -0.148113,-0.14811 z m 22.030975,4.58366 c 0,-0.45038 -0.46419,-1.11125 -0.78052,-1.11125 -0.08,0 -0.14552,0.28629 -0.14552,0.63619 0,0.34991 0.0893,0.58101 0.19843,0.51355 0.10914,-0.0675 0.19844,0.003 0.19844,0.15756 0,0.15411 0.11906,0.2802 0.26458,0.2802 0.14552,0 0.26459,-0.21431 0.26459,-0.47625 z m -23.710917,-0.96357 c -0.220749,-0.57526 -1.077316,-1.02455 -1.291768,-0.67756 -0.09018,0.14591 -0.03168,0.2653 0.129998,0.2653 0.161679,0 0.423615,0.37192 0.582081,0.8265 0.228511,0.6555 0.33523,0.74232 0.515825,0.41961 0.125238,-0.22379 0.153977,-0.59902 0.06386,-0.83385 z m -1.552429,-0.0827 c -0.04459,-0.39956 0.02967,-0.93483 0.165024,-1.18949 0.135357,-0.25466 0.165744,-0.46302 0.06753,-0.46302 -0.09822,0 -0.33461,0.20836 -0.525316,0.46302 -0.315391,0.42116 -0.333178,0.4092 -0.196747,-0.13229 0.0825,-0.32742 0.32462,-0.59531 0.538056,-0.59531 0.213435,0 0.341923,-0.13843 0.285527,-0.30761 -0.174092,-0.52228 -0.940604,-0.4619 -1.445418,0.11387 -0.449452,0.51262 -0.450372,0.53705 -0.01422,0.37794 0.383315,-0.13984 0.438667,-0.06 0.311047,0.44844 -0.102378,0.40791 -0.02453,0.66871 0.228608,0.76585 0.257929,0.099 0.338599,0.38404 0.245904,0.86894 -0.08948,0.4681 -0.03975,0.66094 0.141572,0.54888 0.153737,-0.095 0.243036,-0.49967 0.198442,-0.89922 z m 3.931225,0.44297 c 0.744395,-0.58554 0.71772,-1.12829 -0.04146,-0.84355 -0.470572,0.1765 -1.092864,0.84816 -1.107591,1.19547 -0.01483,0.34983 0.4302,0.21353 1.149051,-0.35192 z m 11.674831,0.2976 c 0.46495,-0.0504 1.10819,-0.65822 1.28456,-1.21391 0.22635,-0.71318 -1.09533,-0.74486 -1.68228,-0.0403 -0.38333,0.46013 -0.41681,0.46013 -0.92604,0 -0.509553,-0.46042 -1.718952,-0.72038 -1.718952,-0.3695 0,0.78085 1.534493,1.89569 2.381252,1.73004 0.21828,-0.0427 0.51593,-0.0905 0.66146,-0.1063 z m 11.24479,0.007 c 0,-0.55811 -0.97982,-1.21496 -1.65365,-1.10856 -0.27015,0.0427 -0.24929,-0.17303 0.0755,-0.77981 0.33201,-0.62037 -0.0683,-0.68141 -0.56264,-0.0858 -0.30589,0.36857 -0.22161,0.5469 0.62517,1.32292 0.97081,0.88968 1.51566,1.12379 1.51566,0.65125 z M 109.518,154.9822 c -0.22757,-0.27421 -0.23758,-0.39688 -0.0324,-0.39688 0.16333,0 0.29697,-0.16811 0.29697,-0.37358 0,-0.36227 -1.14574,-0.42095 -1.49036,-0.0763 -0.23247,0.23247 0.17243,0.74265 0.45218,0.56975 0.13649,-0.0844 0.3196,0.0328 0.4069,0.26027 0.0873,0.2275 0.27963,0.41364 0.4274,0.41364 0.15487,0 0.12915,-0.16812 -0.0607,-0.39687 z m -23.283332,-0.1323 c 0,-0.14552 -0.0525,-0.26458 -0.116677,-0.26458 -0.06417,0 -0.190261,0.11906 -0.280198,0.26458 -0.08994,0.14552 -0.03743,0.26459 0.116676,0.26459 0.154109,0 0.280199,-0.11907 0.280199,-0.26459 z m 7.540625,-0.26458 c 0.08994,-0.14552 0.05132,-0.26458 -0.08582,-0.26458 -0.137136,0 -0.31161,-0.23813 -0.387719,-0.52917 -0.07611,-0.29104 -0.328121,-0.52917 -0.560025,-0.52917 -0.527266,0 -0.533336,0.19069 -0.02234,0.70169 0.219619,0.21962 0.331654,0.50877 0.248968,0.64256 -0.08269,0.13379 0.02826,0.24325 0.246537,0.24325 0.218281,0 0.47046,-0.11906 0.560397,-0.26458 z m 2.153877,-0.9276 c 0.07825,-0.20393 -0.04694,-0.64091 -0.278196,-0.97108 -0.23126,-0.33017 -0.420473,-0.87148 -0.420473,-1.2029 0,-0.33142 -0.09257,-0.60259 -0.205712,-0.60259 -0.432116,0 -1.383188,0.84202 -1.230368,1.08929 0.100961,0.16336 0.29843,0.14467 0.533594,-0.0505 0.225648,-0.18727 0.373319,-0.20355 0.373319,-0.0412 0,0.35077 -0.694379,0.6114 -1.156482,0.43407 -0.199503,-0.0765 -0.433891,0.0463 -0.520863,0.27289 -0.110152,0.28705 -9.7e-5,0.41208 0.362733,0.41208 0.286474,0 0.520862,0.12609 0.520862,0.2802 0,0.15411 -0.117699,0.20745 -0.261553,0.11855 -0.147595,-0.0912 -0.195694,0.01 -0.110395,0.23226 0.08314,0.21665 0.311211,0.33249 0.506832,0.25743 0.254878,-0.0978 0.312959,0.0268 0.204947,0.43989 -0.17854,0.68274 1.404744,0.0534 1.681755,-0.66843 z m -1.138715,0.28324 c 0.08016,-0.20888 0.03718,-0.41724 -0.0955,-0.46302 -0.142685,-0.0492 -0.138268,-0.24538 0.01081,-0.48012 0.213196,-0.33569 0.252677,-0.32309 0.256104,0.0818 0.0024,0.28008 0.124761,0.40403 0.295032,0.2988 0.20451,-0.12639 0.201743,-0.0131 -0.0093,0.38126 -0.337406,0.63045 -0.681918,0.76709 -0.457134,0.18132 z m 11.734995,0.35888 c -0.10745,-0.4109 -0.0439,-0.51173 0.25103,-0.39854 0.30193,0.11586 0.35313,0.02 0.21751,-0.40728 -0.12848,-0.40483 -0.0786,-0.52439 0.18114,-0.43391 0.38526,0.13422 0.33582,1.07036 -0.0643,1.21708 -0.3571,0.13095 -0.007,0.57271 0.45398,0.57271 0.21829,0 0.32923,-0.10946 0.24654,-0.24325 -0.0827,-0.13379 0.0487,-0.44225 0.29188,-0.68547 0.26601,-0.26601 0.33836,-0.51172 0.18157,-0.61664 -0.14336,-0.0959 -0.34226,-0.39514 -0.44201,-0.6649 -0.10939,-0.2958 -0.33801,-0.43037 -0.57602,-0.33903 -0.47496,0.18226 -1.18839,-0.0571 -1.18839,-0.39874 0,-0.13852 0.2307,-0.12212 0.52916,0.0376 0.73251,0.39202 0.68542,-0.12514 -0.0589,-0.64646 -0.7966,-0.55796 -0.99946,-0.51925 -0.99946,0.19071 0,0.79133 -0.74317,1.83731 -1.14258,1.60813 -0.17195,-0.0987 -0.0321,0.12888 0.31085,0.50563 0.38019,0.41771 0.78429,0.6233 1.03559,0.52687 0.25651,-0.0984 0.34515,-0.0498 0.23477,0.12881 -0.14685,0.2376 0.0879,0.46893 0.58442,0.57584 0.0533,0.0115 0.0323,-0.22665 -0.0468,-0.52918 z m -1.24078,-0.80186 c -0.33904,-0.24389 -0.33181,-0.26471 0.0496,-0.14291 0.27942,0.0892 0.49065,-0.0252 0.56462,-0.30577 0.0842,-0.31966 0.12698,-0.27748 0.14887,0.14696 0.0338,0.65588 -0.16271,0.73358 -0.76306,0.30172 z m -16.122192,0.54886 c 0.74979,-0.40127 0.624302,-0.72926 -0.25053,-0.65482 -0.868864,0.0739 -1.354364,0.3176 -1.354364,0.67975 0,0.33207 0.965869,0.31707 1.604894,-0.0249 z m 24.059692,0.0417 c 0,-0.38144 -0.62872,-0.76348 -1.12448,-0.68329 -0.25466,0.0412 -0.46485,-0.0634 -0.46707,-0.23241 -0.002,-0.17361 -0.11527,-0.13464 -0.25965,0.0896 -0.18231,0.28308 -0.12872,0.49171 0.18691,0.72761 0.50582,0.37804 1.66429,0.44664 1.66429,0.0985 z M 87.588564,153.555 c 0.295912,-0.27568 0.425963,-0.5705 0.289004,-0.65514 -0.13696,-0.0846 -0.1924,-0.45008 -0.123201,-0.81207 0.106102,-0.55504 0.03835,-0.64133 -0.432358,-0.55067 -0.61846,0.1191 -0.736231,-0.35796 -0.292876,-1.18638 0.177343,-0.33137 0.177343,-0.55008 0,-0.65968 -0.145914,-0.0902 -0.265299,0.0574 -0.265299,0.3279 0,0.27053 -0.148828,0.64302 -0.330729,0.82777 -0.265396,0.26955 -0.184083,0.46294 0.411629,0.97896 0.408298,0.35368 0.66161,0.64305 0.562916,0.64305 -0.09869,0 -0.03122,0.1786 0.149934,0.39688 0.268137,0.32308 0.254827,0.39687 -0.07159,0.39687 -0.22053,0 -0.469497,0.1786 -0.553259,0.39688 -0.204713,0.53347 0.0074,0.49971 0.655826,-0.10437 z m 13.160466,0.0382 c 0.13502,-0.25466 0.2285,-1.98111 0.20775,-3.83656 -0.024,-2.14788 0.0584,-3.34146 0.22685,-3.28525 0.15732,0.0525 0.26946,1.47371 0.27662,3.50583 0.0113,3.20176 0.0444,3.41755 0.52531,3.41755 0.48214,0 0.51459,-0.22147 0.53486,-3.65062 0.0209,-3.53351 0.004,-3.64926 -0.52532,-3.60873 -0.30079,0.023 -0.84455,0.006 -1.20835,-0.0386 -0.3638,-0.0443 0.52917,-0.15347 1.98438,-0.24263 2.05789,-0.12608 1.52873,-0.1614 -2.38125,-0.15893 -2.7649,0.002 -4.0026,0.0426 -2.750448,0.0908 l 2.276639,0.0876 -0.02768,0.78341 c -0.01521,0.43087 -0.121166,0.78367 -0.235426,0.78401 -0.114261,3.3e-4 -0.08031,0.23873 0.07545,0.52977 0.201212,0.37597 0.201212,0.52916 0,0.52916 -0.201213,0 -0.201213,0.1532 0,0.52917 0.201212,0.37597 0.201212,0.52917 0,0.52917 -0.201213,0 -0.201213,0.15319 0,0.52916 0.214831,0.40142 0.201109,0.53015 -0.05684,0.53322 -0.208815,0.002 -0.237935,0.0791 -0.07545,0.19844 0.145521,0.10691 0.264583,0.43251 0.264583,0.72355 0,0.29104 -0.119062,0.61664 -0.264583,0.72355 -0.161586,0.11872 -0.12976,0.19597 0.08176,0.19844 0.19049,0.002 0.272101,0.12418 0.181359,0.271 -0.209764,0.33941 0.09252,1.32055 0.406856,1.32055 0.1306,0 0.34791,-0.20836 0.48293,-0.46302 z m -24.934114,-1.1906 c -0.03594,-0.76399 -0.374599,-2.16297 -0.752584,-3.10886 -0.532579,-1.33274 -0.695084,-2.22355 -0.722069,-3.95819 -0.06154,-3.95603 0.337685,-2.19213 0.491653,2.17226 0.02391,0.67772 0.554835,1.08719 0.554835,0.42791 0,-0.16484 0.20836,-0.49226 0.463021,-0.72761 1.085943,-1.00359 0.630457,-3.54107 -1.068222,-5.95097 l -0.5361,-0.76056 -0.374501,0.71476 c -0.205975,0.39312 -0.418682,0.94418 -0.472682,1.22458 -0.054,0.2804 -0.152689,0.59866 -0.219309,0.70726 -0.503633,0.82094 -0.394762,2.20125 0.226497,2.8716 0.362109,0.39072 0.65838,0.82467 0.65838,0.96433 0,0.13966 -0.345426,-0.11585 -0.767612,-0.5678 -1.018272,-1.09007 -1.602257,-1.07657 -1.652043,0.0382 -0.135231,3.0279 0.312149,4.96094 1.14815,4.96094 0.167088,0 0.52153,0.19705 0.78765,0.43788 0.656571,0.59419 0.614177,0.28508 -0.307115,-2.23932 -0.435034,-1.19202 -0.702924,-2.167 -0.595313,-2.16662 0.182131,6.3e-4 1.639885,3.8388 1.75444,4.61931 0.04087,0.27849 1.199477,1.70646 1.399949,1.72543 0.02657,0.003 0.01891,-0.62051 -0.01702,-1.38449 z m 11.213502,0.47674 c 0,-0.17509 -0.28567,-0.58673 -0.634822,-0.91474 -0.583538,-0.5482 -0.605044,-0.65346 -0.266214,-1.30289 0.423956,-0.81259 0.478021,-1.36797 0.133169,-1.36797 -0.131286,0 -0.363217,0.35719 -0.515403,0.79375 -0.152187,0.43657 -0.338239,0.79375 -0.413449,0.79375 -0.293671,0 -0.674081,-1.04228 -0.523566,-1.43452 0.231935,-0.60441 0.602651,-0.25548 0.470223,0.4426 -0.105222,0.55466 -0.09582,0.55913 0.138535,0.0659 0.363134,-0.7643 0.370728,-1.98399 0.0091,-1.45521 -0.192767,0.28184 -0.220112,0.0134 -0.09434,-0.92604 0.173086,-1.29287 -0.05619,-1.59835 -0.289674,-0.38595 -0.06479,0.33643 -0.246704,0.73949 -0.404253,0.8957 -0.204973,0.20322 -0.236313,0.1523 -0.110179,-0.17902 0.110211,-0.28949 0.05114,-0.46302 -0.157623,-0.46302 -0.226292,0 -0.187225,-0.16207 0.12122,-0.5029 0.286881,-0.317 0.354145,-0.5653 0.181965,-0.67172 -0.150234,-0.0928 -0.202639,-0.52139 -0.116455,-0.95231 0.164672,-0.82336 -0.257682,-1.10745 -0.542598,-0.36497 -0.253088,0.65953 -0.187416,1.48137 0.103984,1.30128 0.145521,-0.0899 0.264583,-0.0445 0.264583,0.10106 0,0.43721 -0.451087,0.57736 -0.729791,0.22675 -0.143321,-0.1803 -0.223709,-0.55777 -0.17864,-0.83882 0.09599,-0.59861 -0.317638,-1.47337 -0.696682,-1.47337 -0.559026,0 -0.558042,0.86547 0.0019,1.62276 0.375537,0.50794 0.459265,0.77382 0.234074,0.7433 -1.559426,-0.21132 -1.707666,-0.002 -0.677467,0.95549 0.925529,0.86042 0.611699,1.85774 -0.397705,1.26385 -0.107473,-0.0632 -0.128033,0.0606 -0.04569,0.27519 0.208773,0.54406 0.79528,0.71996 1.497571,0.44916 0.534822,-0.20623 0.547664,-0.24902 0.125834,-0.41936 -0.363622,-0.14682 -0.401773,-0.27162 -0.168838,-0.55229 0.328625,-0.39597 0.121396,-1.28348 -0.246582,-1.05605 -0.125117,0.0773 -0.45338,-0.0304 -0.729479,-0.2394 -0.2761,-0.20899 -0.376985,-0.38377 -0.224188,-0.3884 0.152797,-0.005 0.438155,0.14041 0.634128,0.32231 0.286517,0.26594 0.317596,0.26248 0.158657,-0.0177 -0.137563,-0.24249 -0.04881,-0.32294 0.291914,-0.26459 0.738925,0.12655 1.150763,0.78059 0.847882,1.34653 -0.321921,0.60151 0.810266,2.74982 1.381312,2.62102 0.312447,-0.0705 0.317165,-0.0251 0.02754,0.26458 -0.289671,0.28977 -0.43283,0.24771 -0.836161,-0.24568 -0.500959,-0.61282 -1.063288,-0.79212 -1.063288,-0.33903 0,0.34331 -0.838698,0.0118 -1.276391,-0.50447 -0.192693,-0.2273 -0.274963,-0.26444 -0.182823,-0.0825 0.09214,0.1819 0.01167,0.33435 -0.178816,0.33877 -0.787017,0.0183 0.693794,0.57404 1.529525,0.57404 0.629999,0 0.902255,0.12108 0.902255,0.40126 0,0.28426 0.19094,0.36476 0.654807,0.27609 0.697626,-0.13336 1.892591,0.8297 1.29151,1.04087 -0.166453,0.0585 -0.241207,0.34124 -0.16612,0.62838 0.14837,0.56737 0.865637,0.23476 0.865637,-0.40142 z m -4.630209,-3.5856 c -0.08994,-0.14552 -0.04446,-0.26458 0.101062,-0.26458 0.145521,0 0.338168,0.11906 0.428105,0.26458 0.08994,0.14552 0.04446,0.26459 -0.101062,0.26459 -0.145521,0 -0.338168,-0.11907 -0.428105,-0.26459 z m 1.892123,-0.12336 c -0.201741,-0.52572 -0.07978,-0.77852 0.304805,-0.6318 0.135094,0.0515 0.163355,0.32312 0.0628,0.60353 -0.173712,0.48441 -0.19203,0.48582 -0.367608,0.0283 z m -1.627539,-3.84539 c -0.09933,-0.31297 -0.121077,-0.62857 -0.04832,-0.70133 0.07276,-0.0728 0.213565,0.12378 0.312899,0.43675 0.09933,0.31297 0.121077,0.62858 0.04832,0.70134 -0.07276,0.0728 -0.213565,-0.12378 -0.312899,-0.43676 z m 16.557955,7.95955 c 0.329065,-2.36247 0.04539,-7.16582 -0.423193,-7.16581 -0.442182,1e-5 -0.849013,7.00396 -0.423918,7.2981 0.140171,0.097 0.830183,-0.0108 0.847111,-0.13229 z m 4.837802,-0.50951 c 0.0643,-0.24122 0.0953,-1.6292 0.0688,-3.08441 -0.0265,-1.45521 0.0487,-2.85419 0.16702,-3.10886 0.17848,-0.38403 0.0842,-0.46302 -0.55253,-0.46302 h -0.76771 l 0.059,3.63802 c 0.0325,2.00092 0.0761,3.66405 0.0969,3.69587 0.12978,0.19807 0.83152,-0.31406 0.92845,-0.6776 z m -6.182216,-3.06236 v -3.54983 h -1.190625 -1.190625 v 2.8378 c 0,1.8952 0.113034,2.99238 0.340302,3.30319 0.284036,0.38844 0.338227,-0.0627 0.327761,-2.72855 -0.008,-2.04069 0.08406,-3.16173 0.25501,-3.10475 0.158308,0.0528 0.281057,1.40357 0.300625,3.30828 0.0393,3.82537 -0.02233,3.48368 0.628386,3.48368 0.502872,0 0.529166,-0.17639 0.529166,-3.54982 z m 14.765566,2.61678 c -0.0815,-0.0815 -0.22941,0.0654 -0.32876,0.32632 -0.14359,0.37708 -0.1132,0.40747 0.14811,0.14811 0.18082,-0.17947 0.26211,-0.39297 0.18065,-0.47443 z m -7.524,-0.19144 c 0.27133,-1.01246 0.18997,-6.01927 -0.0978,-6.01927 -0.31599,0 -0.30613,-0.10044 -0.35694,3.63802 -0.0388,2.85484 0.11376,3.6537 0.45476,2.38125 z m 6.64587,0.32558 c -0.0917,-0.14836 0.0799,-0.98227 0.38126,-1.85314 0.65804,-1.90146 0.65086,-1.74978 0.093,-1.96384 -0.25022,-0.096 -0.38016,-0.0998 -0.28876,-0.008 0.0914,0.0914 0.0575,0.54418 -0.0752,1.00617 -0.44569,1.55059 -0.56795,3.08894 -0.2455,3.08894 0.16608,0 0.22693,-0.12139 0.13524,-0.26974 z m -27.18826,-0.41928 c -0.08792,-0.0879 -0.316122,-0.0973 -0.507118,-0.0209 -0.211067,0.0845 -0.148372,0.14716 0.159852,0.15985 0.278915,0.0115 0.435185,-0.051 0.347266,-0.13896 z m -0.553362,-0.55336 c -0.285964,-0.28597 -0.96248,-0.32612 -0.96248,-0.0571 0,0.13265 0.257969,0.24117 0.573264,0.24117 0.315295,0 0.490442,-0.0828 0.389216,-0.18404 z m -6.911488,-1.14481 c 1.28569,-1.85526 0.170506,-4.31267 -1.196833,-2.63733 -0.769042,0.94226 -0.656847,2.46556 0.221321,3.00491 0.314616,0.19323 0.316341,0.26551 0.01095,0.45897 -0.204615,0.12962 -0.234111,0.23138 -0.06773,0.23367 0.16211,0.002 0.62664,-0.47487 1.032288,-1.06022 z m -0.959446,0.0721 c -0.06973,-0.4725 0.0899,-1.53724 0.256816,-1.71289 0.100108,-0.10535 0.136893,0.2816 0.08174,0.85989 -0.09013,0.9451 -0.261313,1.3764 -0.33856,0.853 z m 48.614256,0.51792 c -0.21704,-0.35118 -0.39869,-2.44753 -0.20152,-2.32567 0.10135,0.0626 0.21396,0.50364 0.25026,0.98003 0.0971,1.2742 0.25309,1.23861 0.59942,-0.13678 0.16997,-0.67502 0.41346,-1.29184 0.54108,-1.37071 0.12762,-0.0789 0.23204,-1.21498 0.23204,-2.52466 0,-1.30969 0.0974,-2.32107 0.21639,-2.24752 0.11901,0.0735 0.17684,1.00332 0.12852,2.06614 -0.0876,1.92712 -0.0866,1.93041 0.37406,1.20479 0.25406,-0.40018 0.61295,-0.7276 0.79752,-0.7276 0.60965,0 0.50093,-1.73306 -0.23654,-3.77031 -0.67146,-1.85489 -0.78986,-1.86851 -1.72771,-0.19871 -0.40857,0.72746 -0.83919,1.32277 -0.95692,1.32292 -0.11773,1.5e-4 -0.14047,0.11933 -0.0505,0.26485 0.0899,0.14552 0.0604,0.26458 -0.0657,0.26458 -0.44786,0 0.0777,3.09251 0.61725,3.63207 0.20597,0.20596 0.37128,0.5148 0.36737,0.68631 -0.004,0.17151 -0.33134,-0.0692 -0.72761,-0.53488 -1.31605,-1.54662 -2.27051,0.95566 -1.04896,2.75005 0.49321,0.7245 1.30046,1.3267 0.89157,0.6651 z M 83.588834,150.0958 c 0,-0.14096 -0.178593,-0.18775 -0.396875,-0.10399 -0.218281,0.0838 -0.396875,0.19909 -0.396875,0.25628 0,0.0572 0.178594,0.10399 0.396875,0.10399 0.218282,0 0.396875,-0.11533 0.396875,-0.25628 z m 30.111396,-0.41218 c -0.0815,-0.0815 -0.2294,0.0654 -0.32876,0.32632 -0.14359,0.37708 -0.1132,0.40747 0.14811,0.14811 0.18082,-0.17948 0.26212,-0.39297 0.18065,-0.47443 z m -34.123778,-2.34921 c 0.132731,-2.62847 -0.69404,-4.76288 -1.546197,-3.99168 -0.28976,0.26223 -0.526837,0.34601 -0.526837,0.18619 0,-0.15982 0.250031,-0.46572 0.555625,-0.67976 0.666813,-0.46706 0.706532,-3.64075 0.05926,-4.73478 -0.285915,-0.48325 -2.016384,0.97953 -2.724877,2.30336 -0.325443,0.60809 1.153509,3.71614 1.628594,3.42252 0.11925,-0.0737 0.216819,0.0587 0.216819,0.29411 0,0.25622 -0.122641,0.35231 -0.305464,0.23932 -0.180711,-0.11169 -0.233967,-0.0731 -0.130399,0.0945 0.09629,0.15579 0.05729,0.59304 -0.08667,0.97167 -0.212711,0.55947 -0.162387,0.78775 0.268692,1.21883 0.559303,0.5593 0.692258,0.44638 0.861301,-0.73154 0.04645,-0.32367 0.178089,-0.68086 0.29253,-0.79375 0.11444,-0.11289 0.149956,0.15194 0.07892,0.5885 -0.210238,1.29212 -0.303334,1.57712 -0.582042,1.78188 -0.17446,0.12818 -0.171585,0.19577 0.0084,0.19844 0.150162,0.002 0.299036,0.31838 0.330832,0.70256 0.189887,2.29436 1.474933,1.43549 1.601472,-1.07034 z m -2.973715,-4.08505 c -0.302949,-0.49018 0.262474,-3.7452 0.650571,-3.7452 0.136323,0 0.131105,0.27856 -0.01228,0.6557 -0.137112,0.36063 -0.282993,1.25309 -0.32418,1.98324 -0.07913,1.40274 -0.09542,1.46011 -0.314108,1.10626 z m 18.623712,4.79592 c 0.0031,-0.6555 -0.08889,-0.81593 -0.399576,-0.69671 -0.281447,0.108 -0.323399,0.25156 -0.138587,0.47424 0.178585,0.21518 0.169327,0.41507 -0.02838,0.61278 -0.161381,0.16138 -0.211674,0.50644 -0.111763,0.76681 0.259298,0.67572 0.672943,-0.0299 0.678306,-1.15712 z m -2.046469,0.33655 c 0.819714,-1.02734 0.8957,-1.25265 0.352104,-1.04405 -0.412204,0.15818 -1.741166,-0.60319 -1.741166,-0.99752 0,-0.13573 -0.267891,-0.50942 -0.595313,-0.83042 -0.760304,-0.74538 -1.314516,-1.72944 -1.136356,-2.01771 0.07609,-0.12312 -0.02634,-0.36052 -0.227611,-0.52756 -0.220899,-0.18333 -0.344412,-0.72563 -0.311607,-1.36814 0.02989,-0.58544 -0.04042,-1.123 -0.156251,-1.19459 -0.115829,-0.0716 -0.209534,-0.39215 -0.208234,-0.71235 0.0013,-0.32022 -0.05013,-0.87986 -0.114292,-1.24366 -0.06416,-0.36381 -0.126578,-0.73631 -0.138704,-0.8278 -0.02378,-0.17941 -1.520986,-0.84693 -2.087547,-0.93073 -0.654776,-0.0968 -0.1402,0.56911 0.895442,1.15886 0.570771,0.32503 0.859171,0.5911 0.640889,0.59126 -0.218281,1.7e-4 -0.564671,-0.10592 -0.769756,-0.23575 -0.205085,-0.12983 -0.535546,-0.17363 -0.734358,-0.0973 -0.536587,0.20591 0.04719,0.79919 0.990196,1.0063 0.424838,0.0933 0.84824,0.29232 0.940893,0.44223 0.108951,0.17629 -0.05354,0.20507 -0.459987,0.0815 -0.345645,-0.10511 -0.687977,-0.1915 -0.760738,-0.19197 -1.177327,-0.008 -1.015874,0.46405 0.33073,0.9662 l 1.124479,0.41932 -0.992188,-0.14468 c -1.347288,-0.19646 -1.411135,0.57048 -0.06846,0.82237 0.50805,0.0953 0.861022,0.27475 0.784383,0.39875 -0.07664,0.12401 -0.420541,0.11855 -0.764229,-0.0121 -0.724814,-0.27557 -1.061051,-0.0699 -0.665292,0.40697 0.156485,0.18855 0.637767,0.28257 1.122184,0.21921 l 0.848186,-0.11093 -0.878556,0.39552 c -1.026519,0.46213 -0.926521,1.05446 0.111397,0.65984 0.834592,-0.31731 0.899451,-0.31658 0.899451,0.0101 0,0.14552 -0.238125,0.26458 -0.529167,0.26458 -0.305813,0 -0.529167,0.17639 -0.529167,0.4179 0,0.32666 0.187742,0.38429 0.859896,0.26398 0.777654,-0.13919 0.802959,-0.12468 0.264584,0.1517 -0.616812,0.31666 -0.861278,1.43966 -0.264584,1.21541 0.965008,-0.36265 1.668692,-0.47206 1.081299,-0.16811 -0.690629,0.35736 -0.967033,1.20521 -0.456748,1.40102 0.2022,0.0776 0.367637,0.32086 0.367637,0.54059 0,0.33012 0.114883,0.34716 0.661458,0.0981 0.363802,-0.16576 0.661458,-0.42117 0.661458,-0.56759 0,-0.14642 0.07864,-0.18757 0.174767,-0.0914 0.09612,0.0961 -0.0307,0.4018 -0.281819,0.67928 -0.344835,0.38104 -0.377122,0.55364 -0.131917,0.70518 0.196822,0.12164 0.533465,-0.0503 0.854908,-0.43675 0.43963,-0.52849 0.496235,-0.54698 0.331247,-0.10824 -0.621737,1.65334 -0.347516,1.86423 0.70646,0.54329 z m -2.712378,-1.85394 c 0.363583,-0.20121 0.717322,-0.30958 0.786088,-0.24082 0.178,0.178 -0.577679,0.61834 -1.050272,0.612 -0.230088,-0.003 -0.119064,-0.15908 0.264184,-0.37118 z m 3.753217,2.10328 c 0.166039,-0.36442 0.221761,-0.74271 0.123825,-0.84064 -0.25255,-0.25255 -1.161114,0.78626 -1.03047,1.17819 0.175307,0.52592 0.582252,0.37441 0.906645,-0.33755 z m 12.122181,0.51289 c 0,-0.0823 -0.12325,-0.37999 -0.27389,-0.66146 -0.15064,-0.28148 -0.16975,-0.51177 -0.0425,-0.51177 0.12728,0 0.36704,0.29765 0.5328,0.66146 0.16576,0.3638 0.48672,0.66145 0.71324,0.66145 0.3252,0 0.35423,-0.10767 0.13796,-0.51177 -0.49734,-0.92929 -0.28258,-1.22552 0.25238,-0.34812 0.68673,1.12632 0.90274,1.08699 0.7055,-0.12846 l -0.16039,-0.98835 0.61216,0.76772 c 0.43253,0.54245 0.67113,0.67229 0.81314,0.44251 0.11434,-0.185 2.7e-4,-0.54686 -0.26428,-0.83932 -0.2559,-0.28277 -0.40359,-0.5758 -0.3282,-0.65118 0.0754,-0.0754 0.28767,0.0444 0.47174,0.2662 0.18408,0.2218 0.4987,0.40327 0.69916,0.40327 0.55277,0 0.43585,-0.62189 -0.19045,-1.01302 -0.30521,-0.19061 -0.49413,-0.40735 -0.41983,-0.48166 0.0743,-0.0743 0.44309,0.0667 0.81952,0.31335 0.81775,0.53581 0.95222,0.0736 0.22139,-0.76093 -0.47784,-0.54564 -0.46829,-0.54611 0.79375,-0.0392 0.69284,0.27829 0.59066,-0.54253 -0.13229,-1.06274 -0.57888,-0.41654 -0.56698,-0.42327 0.43086,-0.24376 0.81231,0.14612 1.00074,0.1082 0.90412,-0.18195 -0.0671,-0.20161 -0.35032,-0.40788 -0.6293,-0.45838 -1.0356,-0.18748 -0.92834,-0.52253 0.12218,-0.38162 1.30996,0.1757 1.40483,-0.0718 0.23047,-0.60123 l -0.85989,-0.38767 0.84818,0.11093 c 0.48442,0.0634 0.9657,-0.0307 1.12219,-0.21921 0.40644,-0.48974 0.075,-0.65888 -0.79966,-0.40804 -0.42561,0.12206 -0.77384,0.12443 -0.77384,0.005 0,-0.11917 0.42437,-0.29628 0.94303,-0.39358 1.20062,-0.22524 1.05906,-0.82979 -0.1755,-0.74951 -0.89856,0.0584 -0.89825,0.058 0.22466,-0.35277 1.15783,-0.4235 1.47794,-0.87245 0.66146,-0.9277 -0.61803,-0.0418 -0.64656,-0.0376 -1.25677,0.18618 -0.31269,0.11466 -0.44022,0.0956 -0.31174,-0.0465 0.11958,-0.13232 0.59583,-0.37028 1.05833,-0.52878 0.4625,-0.1585 0.84091,-0.45616 0.84091,-0.66146 0,-0.38755 -0.41645,-0.42612 -1.32292,-0.12254 -0.29104,0.0975 -0.0827,-0.0707 0.46302,-0.3738 0.5457,-0.30306 0.99219,-0.72678 0.99219,-0.94158 0,-0.46602 -0.12832,-0.4821 -0.83381,-0.10454 -0.29394,0.15732 -0.59487,0.22559 -0.66873,0.15172 -0.0739,-0.0739 0.53191,-0.44948 1.34617,-0.83468 1.64488,-0.77816 2.27303,-1.2989 2.27303,-1.88438 0,-0.29379 -0.21451,-0.23086 -0.85989,0.25225 -1.02191,0.76496 -2.58499,1.5828 -2.73617,1.43162 -0.059,-0.059 0.21994,-0.27206 0.6199,-0.47343 1.23045,-0.61948 3.48695,-2.21804 3.62372,-2.56714 0.19777,-0.50476 -0.21804,-0.40252 -1.75574,0.43169 -0.77295,0.41933 -1.70301,0.84175 -2.06682,0.93871 -0.3638,0.0969 0.29105,-0.33916 1.45521,-0.96914 2.60473,-1.40954 3.30729,-1.85958 3.30729,-2.11855 0,-1.06434 -6.0908,2.347 -9.05206,5.06988 -1.38131,1.27012 -1.92201,2.80311 -1.26704,3.5923 0.31491,0.37945 0.51641,2.12651 0.28262,2.45058 -0.24853,0.34452 -1.72301,1.24369 -1.93591,1.18056 -0.10914,-0.0324 -0.19844,0.22036 -0.19844,0.56161 0,0.81044 0.8026,1.55321 1.32767,1.2287 0.33066,-0.20436 0.30975,-0.30559 -0.13833,-0.66968 -0.52728,-0.42843 -0.52728,-0.42872 10e-4,-0.25225 1.48638,0.49625 2.13069,0.0296 0.8599,-0.62281 -0.53838,-0.27638 -0.51307,-0.29089 0.26458,-0.1517 0.8893,0.15918 1.09361,-0.0777 0.5424,-0.62896 -0.30974,-0.30973 -0.2762,-0.34838 0.36159,-0.41672 0.40591,-0.0435 0.61862,-0.69453 0.22692,-0.69453 -0.16623,0 -0.22322,-0.12787 -0.12663,-0.28416 0.37636,-0.60896 0.29088,-1.83218 -0.12922,-1.84928 -0.25531,-0.0104 -0.1856,-0.10779 0.18327,-0.25605 0.32742,-0.13161 0.59532,-0.42591 0.59532,-0.654 0,-0.33272 -0.10462,-0.35872 -0.52917,-0.13151 -0.29758,0.15926 -0.52917,0.17589 -0.52917,0.038 0,-0.13486 0.29766,-0.31991 0.66146,-0.41122 0.3638,-0.0913 0.66146,-0.34234 0.66146,-0.55785 0,-0.42829 -0.41221,-0.53054 -0.64172,-0.15919 -0.14611,0.23641 -1.21036,0.59641 -1.21036,0.40942 0,-0.0562 0.49956,-0.357 1.11014,-0.6685 1.04125,-0.5312 1.07916,-0.58901 0.61089,-0.93142 -0.42411,-0.31009 -0.43427,-0.36506 -0.0675,-0.36506 0.68647,0 0.72693,0.31967 0.28703,2.26815 -0.22759,1.00809 -0.41119,2.39844 -0.40799,3.08966 0.003,0.69122 -0.10221,1.25677 -0.23425,1.25677 -0.45449,0 -0.23922,0.77558 0.29457,1.06126 0.78355,0.41934 1.18456,0.052 0.62191,-0.56975 -0.39042,-0.43141 -0.39751,-0.48822 -0.044,-0.35257 0.63624,0.24415 0.90091,-0.42491 0.33251,-0.84054 -0.41991,-0.30704 -0.42772,-0.35673 -0.056,-0.35673 0.67071,0 0.84677,-0.54756 0.22807,-0.70935 -0.30405,-0.0795 -0.48639,-0.25203 -0.40521,-0.38338 0.0812,-0.13135 0.24494,-0.17866 0.36392,-0.10513 0.11897,0.0735 0.36246,-0.0424 0.54108,-0.25762 0.26675,-0.32141 0.22099,-0.4297 -0.25621,-0.60623 -0.57474,-0.21261 -0.57342,-0.21836 0.12288,-0.53561 0.73516,-0.33496 0.78091,-1.02839 0.0595,-0.9014 -0.22859,0.0402 -0.50253,-0.0674 -0.60875,-0.23931 -0.10621,-0.17187 -0.0854,-0.24854 0.0462,-0.17038 0.32096,0.19059 1.42994,-0.24289 1.42994,-0.55894 0,-0.13808 -0.32742,-0.37064 -0.7276,-0.5168 -0.64063,-0.23398 -0.65831,-0.26824 -0.14791,-0.28663 0.63266,-0.0228 1.1221,-0.53057 0.5604,-0.58139 -0.19049,-0.0172 -0.43564,-0.0172 -0.54479,0 -0.10914,0.0172 -0.19843,-0.0877 -0.19843,-0.23325 0,-0.30772 0.54222,-0.34408 0.92604,-0.0621 0.3161,0.23223 0.45027,2.17876 0.15017,2.17876 -0.11499,0 -0.15218,0.29765 -0.0826,0.66146 0.0748,0.39147 0.004,0.66145 -0.17402,0.66145 -0.18515,0 -0.23922,0.24403 -0.14088,0.63586 0.11378,0.45332 0.0203,0.71685 -0.32569,0.918 -0.2669,0.15517 -0.34214,0.28576 -0.16719,0.29018 0.38666,0.01 0.28172,1.76303 -0.13019,2.17494 -0.15336,0.15336 -0.21937,0.43379 -0.1467,0.62318 0.21158,0.55136 -0.84173,0.98724 -1.23643,0.51166 -0.46632,-0.56188 -0.76666,-0.48489 -1.05372,0.27014 -0.13832,0.3638 -0.42711,0.66146 -0.64177,0.66146 -0.21465,0 -0.50149,0.19874 -0.63742,0.44164 -0.26476,0.4731 -1.89581,0.0584 -1.89581,-0.48203 0,-0.13242 -0.41251,-0.21299 -0.91669,-0.17903 -0.50418,0.034 -1.0102,-0.0332 -1.12448,-0.14916 -0.11429,-0.11599 -0.0292,-0.18547 0.18908,-0.15439 1.14086,0.16242 1.73869,-0.0217 1.73869,-0.53536 0,-0.29104 -0.12331,-0.53099 -0.27403,-0.53322 -0.15072,-0.002 -0.0954,-0.11947 0.12284,-0.26053 0.30586,-0.19766 0.21484,-0.25988 -0.39687,-0.27129 -0.49622,-0.009 -1.14087,-0.32157 -1.71979,-0.8332 -0.50933,-0.45012 -0.71768,-0.74667 -0.46302,-0.65901 0.30314,0.10435 0.46302,0.0252 0.46302,-0.22918 0,-0.21372 -0.11907,-0.38857 -0.26459,-0.38857 -0.14552,0 -0.26458,-0.11533 -0.26458,-0.25628 0,-0.14096 0.17859,-0.18775 0.39688,-0.10399 0.29126,0.11177 0.39687,-0.0343 0.39687,-0.54907 0,-0.50622 -0.12119,-0.67973 -0.43557,-0.62362 -0.23957,0.0428 -0.48449,-0.0617 -0.54428,-0.23216 -0.069,-0.1967 0.0866,-0.25885 0.42584,-0.17013 0.44031,0.11515 0.5142,0.0342 0.4192,-0.4591 -0.21462,-1.11441 -1.78133,-2.29953 -2.97404,-2.24968 -0.770158,0.0322 -0.27218,0.56006 0.71412,0.75699 0.58949,0.11771 1.07181,0.31776 1.07181,0.44455 0,0.12904 -0.3407,0.13284 -0.77383,0.009 -0.42561,-0.12206 -0.83666,-0.1591 -0.91344,-0.0823 -0.0768,0.0768 -0.332378,-0.0532 -0.567984,-0.28876 -0.495385,-0.49539 -1.008353,-0.54117 -1.730885,-0.15449 -0.95711,0.51223 -0.614514,0.99504 0.612706,0.86347 0.775737,-0.0832 1.288595,0.009 1.653643,0.29863 0.50476,0.39984 0.49481,0.40691 -0.215659,0.15306 -0.409655,-0.14637 -0.945436,-0.25673 -1.190625,-0.24524 -0.245187,0.0115 -0.08861,0.14653 0.347953,0.30011 1.765661,0.62111 1.852691,1.1099 0.379167,2.12934 -0.580779,0.4018 -1.17135,1.03404 -1.312381,1.40498 -0.141031,0.37094 -0.367477,0.6058 -0.503217,0.52191 -0.135736,-0.0839 -0.321582,-0.0315 -0.412985,0.11637 -0.105587,0.17084 0.418404,0.2689 1.436925,0.2689 0.881714,0 1.573352,-0.10716 1.536972,-0.23812 -0.0364,-0.13097 0.0529,-0.22027 0.19844,-0.19844 0.14552,0.0218 0.23481,0.12898 0.19843,0.23812 -0.0364,0.10914 0.10872,0.19844 0.32243,0.19844 0.23669,0 0.32904,-0.15512 0.23628,-0.39687 -0.16897,-0.44033 -0.0804,-0.47594 0.56632,-0.22777 0.35155,0.1349 0.36931,0.21437 0.0878,0.39283 -0.25158,0.15947 -0.1775,0.22487 0.25802,0.22776 0.34067,0.002 0.53859,-0.11299 0.4474,-0.26053 -0.25138,-0.40674 0.2914,-0.31361 0.64327,0.11037 0.25934,0.31249 0.14351,0.37409 -0.69521,0.36975 -6.094704,-0.0316 -6.846123,0.0331 -6.846123,0.58918 0,0.39422 0.145507,0.51761 0.538617,0.45674 0.296238,-0.0459 0.50885,-0.2294 0.472469,-0.40785 -0.03638,-0.17844 0.06565,-0.32444 0.226746,-0.32444 0.161089,0 0.22838,0.16811 0.149532,0.37358 -0.119375,0.31109 0.499467,0.37401 3.699189,0.37611 2.1134,0.001 3.91142,0.0714 3.9956,0.15558 0.0842,0.0842 -1.95037,0.15306 -4.52124,0.15306 -2.749991,0 -4.674306,0.10267 -4.674306,0.24939 0,0.13717 0.241306,0.20292 0.536234,0.14612 0.29864,-0.0575 0.466386,0.01 0.378592,0.1518 -0.0867,0.14029 -0.260249,0.19166 -0.385659,0.11415 -0.12541,-0.0775 -0.303738,-0.0184 -0.396283,0.13133 -0.113219,0.18319 1.389224,0.26216 4.592682,0.24139 4.974,-0.0323 5.3286,0.0205 5.3286,0.79251 0,0.2599 0.25545,0.69936 0.56766,0.97657 0.56675,0.50323 0.56743,0.50285 0.43085,-0.23777 l -0.13681,-0.74181 0.58097,0.54579 c 0.6869,0.64531 1.04498,0.44147 0.62137,-0.35374 -0.26826,-0.50359 -0.25422,-0.52392 0.13823,-0.20019 0.24026,0.19818 0.62688,0.2874 0.85918,0.19826 0.24332,-0.0934 0.38214,-0.0414 0.32748,0.12253 -0.0522,0.15653 -0.19203,0.26775 -0.31079,0.24715 -0.11875,-0.0206 -0.3656,0.16725 -0.54855,0.41745 -0.18842,0.25767 -0.46979,0.37015 -0.64896,0.25942 -0.17397,-0.10752 -0.48969,-0.0516 -0.70159,0.12427 -0.30171,0.25039 -0.47138,0.24831 -0.78216,-0.01 -0.34187,-0.28372 -0.39688,-0.17819 -0.39688,0.76135 0,0.79315 0.10828,1.09073 0.39688,1.09073 0.21828,0 0.39687,-0.0674 0.39687,-0.14968 z m 2.01024,-3.21994 c -0.3017,-0.30169 -0.15619,-0.58176 0.22605,-0.43509 0.64313,0.2468 1.03064,-0.17077 0.51106,-0.5507 -0.40512,-0.29623 -0.36023,-0.33225 0.38044,-0.30533 0.98575,0.0358 0.9794,0.0244 0.35773,0.64606 -0.56912,0.56911 -1.25244,0.8679 -1.47528,0.64506 z m -10.317359,-1.0842 c -0.07495,-0.12126 0.03185,-0.22048 0.237328,-0.22048 0.205478,0 0.312277,0.0992 0.237329,0.22048 -0.07495,0.12127 -0.181745,0.22049 -0.237329,0.22049 -0.05558,0 -0.162383,-0.0992 -0.237328,-0.22049 z m 1.5875,0 c -0.07495,-0.12126 0.03185,-0.22048 0.237328,-0.22048 0.205481,0 0.312281,0.0992 0.237331,0.22048 -0.075,0.12127 -0.181747,0.22049 -0.237331,0.22049 -0.05558,0 -0.162383,-0.0992 -0.237328,-0.22049 z m 1.139759,-0.0587 c -0.16854,-0.10417 0.11986,-0.17804 0.64089,-0.16415 0.52103,0.0139 0.89052,0.0821 0.82109,0.15148 -0.20778,0.20778 -1.1333,0.2158 -1.46198,0.0127 z m -3.283681,-1.30833 c -0.08994,-0.14552 -0.03743,-0.26458 0.116676,-0.26458 0.154109,0 0.280199,0.11906 0.280199,0.26458 0,0.14552 -0.0525,0.26458 -0.116676,0.26458 -0.06417,0 -0.190262,-0.11906 -0.280199,-0.26458 z m 1.852084,0 c -0.08994,-0.14552 -0.03743,-0.26458 0.116675,-0.26458 0.15411,0 0.2802,0.11906 0.2802,0.26458 0,0.14552 -0.0525,0.26458 -0.116676,0.26458 -0.06417,0 -0.190262,-0.11906 -0.280199,-0.26458 z m 1.322917,0 -0.793751,-0.20197 0.859901,-0.0313 c 0.47294,-0.0172 0.85989,0.0878 0.85989,0.23328 0,0.14552 -0.0298,0.2505 -0.0662,0.23328 -0.0364,-0.0172 -0.42333,-0.12219 -0.85989,-0.23328 z m 1.45521,0 c -0.33917,-0.21919 -0.32955,-0.25707 0.0661,-0.26053 0.25466,-0.002 0.46302,0.11501 0.46302,0.26053 0,0.32269 -0.0298,0.32269 -0.52916,0 z m 1.45521,0 -0.79375,-0.20197 0.85989,-0.0313 c 0.47294,-0.0172 0.8599,0.0878 0.8599,0.23328 0,0.14552 -0.0298,0.2505 -0.0662,0.23328 -0.0364,-0.0172 -0.42333,-0.12219 -0.85989,-0.23328 z m -4.458059,-1.71132 c -0.08197,-0.21362 -0.03518,-0.45877 0.103984,-0.54478 0.139166,-0.086 0.253029,-0.0996 0.253029,-0.0301 0,0.0694 0.07227,0.3146 0.1606,0.54478 0.08833,0.23018 0.04154,0.41851 -0.103984,0.41851 -0.145521,0 -0.331653,-0.17478 -0.413629,-0.3884 z m 1.055379,-0.32435 c -0.271455,-0.27145 -0.194901,-0.87475 0.111,-0.87475 0.15411,0 0.2129,0.1089 0.13064,0.24199 -0.0823,0.13309 -0.006,0.28989 0.16979,0.34843 0.21547,0.0718 0.22801,0.1629 0.0386,0.27999 -0.15444,0.0954 -0.35694,0.0974 -0.44999,0.004 z m 0.91002,-0.54402 c 0.0133,-0.29445 0.0708,-0.33859 0.15802,-0.12125 0.10531,0.26245 0.22328,0.27028 0.50828,0.0337 0.22536,-0.18703 0.37115,-0.20249 0.37115,-0.0394 0,0.14777 -0.18833,0.34094 -0.41852,0.42927 -0.60159,0.23086 -0.64209,0.21107 -0.61893,-0.30242 z m 0.48804,-0.66146 c -0.29513,-0.96432 -0.12847,-1.23526 0.28482,-0.46302 0.19201,0.35878 0.19501,0.52917 0.009,0.52917 -0.15064,0 -0.283,-0.0298 -0.29414,-0.0661 z m -18.765176,8.16425 c 0,-0.0572 -0.178593,-0.17252 -0.396875,-0.25628 -0.218281,-0.0838 -0.396875,-0.037 -0.396875,0.10398 0,0.14096 0.178594,0.25628 0.396875,0.25628 0.218282,0 0.396875,-0.0468 0.396875,-0.10398 z m 32.271066,-1.35122 c 0,-0.14553 -0.11542,-0.086 -0.25648,0.13229 -0.14107,0.21828 -0.25648,0.51593 -0.25648,0.66146 0,0.14552 0.11541,0.086 0.25648,-0.1323 0.14106,-0.21828 0.25648,-0.51593 0.25648,-0.66145 z M 95.195836,145.3156 c -0.02026,-1.43896 -0.05017,-1.49681 -1.125723,-2.17726 -1.130807,-0.7154 -1.445022,-2.29248 -0.652637,-3.27564 0.854706,-1.06049 -0.883795,-4.05586 -2.094139,-3.60812 -0.698866,0.25853 -0.484739,0.64541 0.690606,1.24778 0.486466,0.24931 0.824952,0.51283 0.752192,0.58559 -0.07276,0.0728 -0.500544,-0.0581 -0.95063,-0.29089 -0.733668,-0.37939 -0.818337,-0.38073 -0.818337,-0.013 0,0.22562 0.297656,0.52339 0.661458,0.66171 0.802431,0.30508 0.889076,0.63707 0.100988,0.38694 -0.406644,-0.12907 -0.525909,-0.0795 -0.434544,0.1806 0.06926,0.19718 0.312056,0.34353 0.539547,0.32524 0.248343,-0.02 0.358041,0.11158 0.274528,0.32921 -0.0765,0.19936 -0.245679,0.29659 -0.375952,0.21608 -0.130272,-0.0805 -0.236859,-0.0203 -0.236859,0.13381 0,0.15411 0.148828,0.28202 0.330729,0.28425 0.229647,0.003 0.21463,0.0775 -0.04913,0.24442 -0.322745,0.20422 -0.325303,0.3061 -0.01701,0.67757 0.298058,0.35914 0.300779,0.47557 0.01523,0.65204 -0.191187,0.11816 -0.264601,0.34916 -0.163142,0.51332 0.101459,0.16417 0.312671,0.21925 0.46936,0.12241 0.192113,-0.11873 0.225685,0.0598 0.10309,0.54827 -0.176569,0.70351 -0.156749,0.71891 0.689017,0.5353 l 0.870816,-0.18904 -0.661459,0.53972 c -0.805807,0.65751 -0.529176,1.05535 0.429948,0.61835 0.383222,-0.17461 0.758199,-0.25604 0.833282,-0.18096 0.07508,0.0751 -0.129365,0.23487 -0.454327,0.35508 -0.529571,0.1959 -0.547273,0.25473 -0.170705,0.56725 0.336248,0.27906 0.499379,0.28291 0.817011,0.0193 0.246653,-0.2047 0.396875,-0.22371 0.396875,-0.0502 0,0.50589 -1.11427,0.67824 -1.374829,0.21265 -0.131431,-0.23486 -0.485061,-0.42701 -0.785844,-0.42701 -0.416616,0 -0.513917,-0.12604 -0.408498,-0.52917 0.08994,-0.34392 0.0081,-0.52916 -0.233725,-0.52916 -0.220522,0 -0.372104,-0.26946 -0.372104,-0.66146 0,-0.3638 -0.09803,-0.66146 -0.217838,-0.66146 -0.11981,0 -0.235209,-0.66029 -0.256443,-1.4673 -0.02123,-0.80702 -0.128593,-1.61069 -0.238579,-1.78594 -0.109986,-0.17525 -0.165697,-0.52699 -0.123801,-0.78166 0.04189,-0.25466 -0.02061,-0.46369 -0.138896,-0.46451 -0.118287,-8.2e-4 -0.232939,-0.47708 -0.254781,-1.05834 -0.03291,-0.87586 0.04638,-1.05683 0.463021,-1.05683 0.75809,0 0.60679,-0.32522 -0.491262,-1.05597 -0.544709,-0.36251 -1.049911,-0.73219 -1.122671,-0.82152 -0.322184,-0.39556 -5.19836,-3.1496 -5.576541,-3.1496 -1.362651,0 -0.522291,0.7738 2.533832,2.33314 1.164167,0.594 1.964867,1.08595 1.779333,1.09322 -0.185534,0.007 -1.164828,-0.40349 -2.176208,-0.91281 -2.078237,-1.04659 -2.154613,-1.06821 -1.957374,-0.55422 0.140466,0.36605 2.187953,1.79582 3.610621,2.52132 0.399964,0.20397 0.679392,0.41866 0.620953,0.4771 -0.143071,0.14307 -2.289507,-0.9478 -2.871134,-1.45917 -0.66159,-0.58169 -0.910809,-0.1734 -0.305437,0.50038 0.458293,0.51008 3.548205,2.19207 3.548205,1.93146 0,-0.0603 0.242468,0.13288 0.538817,0.42923 0.296349,0.29635 0.653537,0.46792 0.79375,0.38126 0.140213,-0.0866 0.254933,-0.0315 0.254933,0.12265 0,0.1541 -0.248047,0.28019 -0.551216,0.28019 -0.70785,0 -0.533916,0.55897 0.307526,0.98829 0.638514,0.32578 0.638659,0.32684 0.04525,0.33073 -0.327422,0.002 -0.595312,0.11877 -0.595312,0.25917 0,0.3564 0.943614,0.8252 1.198256,0.59532 0.115224,-0.10402 0.123853,-0.0403 0.01917,0.1416 -0.104679,0.1819 -0.361893,0.33073 -0.571586,0.33073 -0.571914,0 -0.458934,0.55839 0.144931,0.71631 0.289405,0.0757 0.459771,0.24507 0.378592,0.37642 -0.08118,0.13135 -0.245957,0.17803 -0.366174,0.10373 -0.120218,-0.0743 -0.286847,0.0428 -0.370289,0.26026 -0.15001,0.39092 0.120243,0.51259 0.888883,0.40018 0.321069,-0.047 0.308588,0.0384 -0.06615,0.45251 -0.62647,0.69224 -0.581534,0.85224 0.199568,0.7106 0.363802,-0.066 0.661458,0.001 0.661458,0.14981 0,0.14837 -0.178593,0.26976 -0.396875,0.26976 -0.218281,0 -0.396875,0.11204 -0.396875,0.24897 0,0.38288 0.47201,0.58673 0.658791,0.28451 0.0914,-0.14789 0.296678,-0.2689 0.456165,-0.2689 0.159486,0 0.06316,0.25545 -0.214053,0.56766 -0.502912,0.5664 -0.502417,0.56736 0.223576,0.43357 0.725082,-0.13363 1.025552,0.16835 0.396875,0.39886 -0.260037,0.0953 -0.261891,0.19435 -0.0087,0.46317 0.26162,0.27774 0.353821,0.25912 0.491329,-0.0992 0.0931,-0.24262 0.279785,-0.44112 0.414857,-0.44112 0.144279,0 0.136442,0.20394 -0.019,0.49438 -0.145521,0.27191 -0.197601,0.56136 -0.115734,0.64323 0.250089,0.25009 0.890864,-0.11275 0.890864,-0.50446 0,-0.20271 0.102552,-0.36857 0.227893,-0.36857 0.125342,0 0.168892,0.30865 0.09678,0.68588 -0.122356,0.64007 -0.09386,0.66261 0.426638,0.33756 0.464104,-0.28984 0.554257,-0.59652 0.536942,-1.82656 z m -6.340234,-9.03299 c -0.155407,-0.29037 -0.210312,-0.6002 -0.122011,-0.6885 0.293185,-0.29319 1.205243,-0.32455 1.205243,-0.0414 0,0.15319 -0.09498,0.21983 -0.21107,0.14808 -0.116089,-0.0717 -0.380642,-0.0256 -0.587897,0.10245 -0.396356,0.24496 -0.353418,0.27699 0.792144,0.5909 0.262121,0.0718 0.195902,0.15765 -0.201901,0.26168 -0.423605,0.11077 -0.672308,0.005 -0.874508,-0.37317 z m 26.688728,9.98748 c -0.0293,-0.35331 -0.1358,-0.59132 -0.23679,-0.5289 -0.17863,0.1104 -0.005,1.17128 0.19148,1.17128 0.0542,0 0.0745,-0.28907 0.0453,-0.64238 z m -33.182732,-0.28366 c -0.08376,-0.21828 -0.258619,-0.39687 -0.388571,-0.39687 -0.129952,0 -0.236276,0.17859 -0.236276,0.39687 0,0.21828 0.174857,0.39688 0.388571,0.39688 0.236695,0 0.329045,-0.15513 0.236276,-0.39688 z m -1.576106,-2.91022 c 0.916311,-0.8492 1.471839,-2.19335 1.591185,-3.84999 0.117914,-1.63675 -0.08828,-1.7851 -0.878407,-0.63199 -0.340021,0.49623 -0.72212,0.83802 -0.84911,0.75954 -0.126989,-0.0785 0.06577,-0.43936 0.428351,-0.80194 0.86313,-0.86313 0.839029,-1.21677 -0.06836,-1.00312 -1.340837,0.31571 -2.481875,1.1654 -2.306601,1.71764 0.08754,0.2758 0.169316,0.85884 0.181736,1.29566 0.0283,0.99545 0.04059,0.99304 0.744404,-0.14575 0.319509,-0.51697 0.641532,-0.87935 0.715606,-0.80527 0.07408,0.0741 -0.237163,0.69606 -0.691638,1.38219 -0.916135,1.38311 -0.944869,1.49924 -0.552427,2.23252 0.36689,0.68554 0.828429,0.6446 1.685265,-0.14949 z m 41.078018,0.004 c 0.20444,-0.34953 0.22244,-0.68274 0.0539,-0.99765 -0.13918,-0.26006 -0.17859,-0.59333 -0.0876,-0.7406 0.091,-0.14727 0.22914,-0.85988 0.30694,-1.58359 l 0.14146,-1.31582 -1.23181,-0.54488 c -1.85846,-0.82209 -2.22798,-0.58926 -1.06884,0.67347 1.02002,1.11118 1.83975,2.48003 1.61796,2.70182 -0.0728,0.0728 -0.31185,-0.2062 -0.53132,-0.6199 -0.21946,-0.41371 -0.90071,-1.34751 -1.51388,-2.07511 l -1.11485,-1.32292 0.17565,1.94346 c 0.0966,1.0689 0.30806,2.19088 0.46991,2.49329 0.41396,0.7735 1.46197,1.78023 1.65366,1.58854 0.0882,-0.0882 0.16035,-0.0214 0.16035,0.14832 0,0.4683 0.62152,0.24469 0.96843,-0.34843 z m -19.62389,-6.755 c -0.60335,-0.97624 -2.08895,-1.25867 -3.304952,-0.62832 -1.070661,0.55501 -1.118886,0.61794 -0.478637,0.62465 0.391594,0.004 0.785574,-0.11161 0.875512,-0.25713 0.232476,-0.37616 1.208797,-0.31107 1.984377,0.13229 0.785,0.44875 1.15329,0.49999 0.9237,0.12851 z m -2.246619,-2.14628 c 0,-0.91541 -0.309706,-1.11359 -1.145297,-0.73287 -0.634632,0.28916 -1.177708,1.8246 -0.645348,1.8246 0.128905,0 0.159542,0.12108 0.06808,0.26907 -0.09146,0.14799 0.258697,0.0664 0.778135,-0.1813 0.745426,-0.35547 0.94443,-0.604 0.94443,-1.1795 z m -1.576671,0.95944 c 0.0045,-0.14553 0.300985,-0.62178 0.658831,-1.05834 0.357844,-0.43656 0.646938,-0.67469 0.642427,-0.52916 -0.0045,0.14552 -0.300985,0.62177 -0.658831,1.05833 -0.357844,0.43656 -0.646938,0.67469 -0.642427,0.52917 z m 3.7933,-0.67712 c -0.12447,-0.76702 -0.30445,-0.9772 -1.03172,-1.20483 l -0.88096,-0.27574 0.90636,1.10609 c 1.18352,1.44433 1.17164,1.89768 -0.0137,0.52243 -0.8173,-0.94827 -0.9132,-0.99602 -0.9221,-0.45913 -0.007,0.39749 0.27725,0.77385 0.84319,1.11802 1.02828,0.62533 1.29907,0.42652 1.09892,-0.80684 z m -2.422684,-1.6897 c 0.06909,0.0691 0.141422,-0.73933 0.160734,-1.79649 l 0.03511,-1.92211 -0.433845,1.02673 c -0.354007,0.83778 -0.373414,1.12349 -0.105466,1.55254 0.503997,0.80703 0.01466,1.08271 -1.295616,0.72989 -0.615284,-0.16568 -1.053225,-0.3667 -0.973204,-0.44673 0.08002,-0.08 0.526526,-0.0127 0.992232,0.14969 1.185379,0.41322 1.349661,0.37261 0.968452,-0.2394 -0.310227,-0.49806 -1.824143,-0.57599 -2.282626,-0.11751 -0.482638,0.48264 1.399836,1.66627 2.085858,1.31152 0.397513,-0.20557 0.779277,-0.31722 0.848368,-0.24813 z m 3.092974,-0.25401 0.59791,-0.63645 -0.61793,-0.20728 c -1.11491,-0.37399 -1.34999,-0.34314 -1.83792,0.24122 -0.26521,0.31763 -0.48617,0.4357 -0.49101,0.26239 -0.005,-0.17332 0.11026,-0.3887 0.25578,-0.47864 0.37714,-0.23308 0.31248,-0.97279 -0.13697,-1.56681 -0.35158,-0.46468 -0.38205,-0.38982 -0.35368,0.86925 0.0462,2.05242 1.35734,2.82185 2.58382,1.51632 z m -1.29942,-0.28959 c 1.20801,-0.4652 1.6833,-0.45834 0.66146,0.01 -0.43656,0.19989 -0.97234,0.35976 -1.19063,0.35525 -0.21828,-0.005 0.0199,-0.16867 0.52917,-0.36481 z"
         id="path196" />
    </g>
  </g>
</svg>
