<?xml version="1.0" encoding="UTF-8" standalone="no"?>
<!-- Created with Inkscape (http://www.inkscape.org/) -->

<svg
   width="29.207172mm"
   height="4.425241mm"
   viewBox="0 0 32.452413 4.9169345"
   version="1.1"
   id="svg1"
   inkscape:version="1.3.2 (091e20e, 2023-11-25)"
   sodipodi:docname="jameshoward-wordmark.svg"
   xmlns:inkscape="http://www.inkscape.org/namespaces/inkscape"
   xmlns:sodipodi="http://sodipodi.sourceforge.net/DTD/sodipodi-0.dtd"
   xmlns="http://www.w3.org/2000/svg"
   xmlns:svg="http://www.w3.org/2000/svg">
  <sodipodi:namedview
     id="namedview1"
     pagecolor="#010101"
     bordercolor="#000000"
     borderopacity="0.25"
     inkscape:showpageshadow="2"
     inkscape:pageopacity="0.0"
     inkscape:pagecheckerboard="true"
     inkscape:deskcolor="#d1d1d1"
     inkscape:document-units="mm"
     showguides="false"
     inkscape:zoom="16"
     inkscape:cx="32.6875"
     inkscape:cy="-10.0625"
     inkscape:window-width="1920"
     inkscape:window-height="1027"
     inkscape:window-x="2232"
     inkscape:window-y="34"
     inkscape:window-maximized="0"
     inkscape:current-layer="svg1"
     showgrid="false" />
  <defs
     id="defs1">
    <rect
       x="148.06676"
       y="148.71333"
       width="223.71658"
       height="109.27197"
       id="rect2" />
    <inkscape:path-effect
       is_visible="true"
       id="path-effect13098"
       effect="spiro"
       lpeversion="0" />
    <inkscape:path-effect
       is_visible="true"
       id="path-effect13095"
       effect="spiro"
       lpeversion="0" />
    <inkscape:path-effect
       effect="spiro"
       id="path-effect3463-1"
       is_visible="true"
       lpeversion="0" />
    <inkscape:path-effect
       effect="spiro"
       id="path-effect3465-7"
       is_visible="true"
       lpeversion="0" />
    <inkscape:path-effect
       effect="spiro"
       id="path-effect3467-4"
       is_visible="true"
       lpeversion="0" />
    <inkscape:path-effect
       is_visible="true"
       id="path-effect3469-0"
       effect="spiro"
       lpeversion="0" />
    <inkscape:path-effect
       effect="spiro"
       id="path-effect3471-9"
       is_visible="true"
       lpeversion="0" />
    <inkscape:path-effect
       effect="spiro"
       id="path-effect3473-4"
       is_visible="true"
       lpeversion="0" />
    <inkscape:path-effect
       is_visible="true"
       id="path-effect3475-8"
       effect="spiro"
       lpeversion="0" />
    <inkscape:path-effect
       effect="spiro"
       id="path-effect3477-8"
       is_visible="true"
       lpeversion="0" />
    <inkscape:path-effect
       is_visible="true"
       id="path-effect3479-2"
       effect="spiro"
       lpeversion="0" />
    <inkscape:path-effect
       is_visible="true"
       id="path-effect3481-4"
       effect="spiro"
       lpeversion="0" />
    <inkscape:path-effect
       effect="spiro"
       id="path-effect3483-5"
       is_visible="true"
       lpeversion="0" />
    <inkscape:path-effect
       is_visible="true"
       id="path-effect3427-5"
       effect="spiro"
       lpeversion="0" />
    <inkscape:path-effect
       is_visible="true"
       id="path-effect3424-1"
       effect="spiro"
       lpeversion="0" />
    <inkscape:path-effect
       is_visible="true"
       id="path-effect3420-7"
       effect="spiro"
       lpeversion="0" />
    <inkscape:path-effect
       is_visible="true"
       id="path-effect3417-1"
       effect="spiro"
       lpeversion="0" />
    <inkscape:path-effect
       is_visible="true"
       id="path-effect3414-1"
       effect="spiro"
       lpeversion="0" />
    <inkscape:path-effect
       is_visible="true"
       id="path-effect3411-5"
       effect="spiro"
       lpeversion="0" />
    <inkscape:path-effect
       is_visible="true"
       id="path-effect3408-2"
       effect="spiro"
       lpeversion="0" />
    <inkscape:path-effect
       is_visible="true"
       id="path-effect3405-7"
       effect="spiro"
       lpeversion="0" />
    <inkscape:path-effect
       is_visible="true"
       id="path-effect3402-6"
       effect="spiro"
       lpeversion="0" />
    <inkscape:path-effect
       is_visible="true"
       id="path-effect3399-1"
       effect="spiro"
       lpeversion="0" />
    <path
       id="path_63"
       d="m -145.70702,-0.65677633 c 0.12588,0.42047 0.64688,0.6826 1.66128,0.74384 9.36446,0.56535 52.918221,-12.93078967 76.926731,-16.19028967 24.00851,-3.2595 44.56804,-3.45753 67.12434039,-3.36668 22.55629961,0.09084 44.20496961,0.65207 68.21345961,3.91174 24.00849,3.25966 66.121299,15.88730967 75.837469,15.64624967 1.19267,-0.02959 1.78657,-0.28712 1.91585,-0.71893" />
    <inkscape:path-effect
       effect="spiro"
       id="path-effect2989"
       is_visible="true"
       lpeversion="0" />
    <inkscape:path-effect
       effect="spiro"
       id="path-effect3007"
       is_visible="true"
       lpeversion="0" />
    <inkscape:path-effect
       is_visible="true"
       id="path-effect3011"
       effect="spiro"
       lpeversion="0" />
    <inkscape:path-effect
       effect="spiro"
       id="path-effect3015"
       is_visible="true"
       lpeversion="0" />
    <inkscape:path-effect
       effect="spiro"
       id="path-effect3236"
       is_visible="true"
       lpeversion="0" />
    <inkscape:path-effect
       is_visible="true"
       id="path-effect3240"
       effect="spiro"
       lpeversion="0" />
    <inkscape:path-effect
       effect="spiro"
       id="path-effect3244"
       is_visible="true"
       lpeversion="0" />
    <inkscape:path-effect
       is_visible="true"
       id="path-effect3248"
       effect="spiro"
       lpeversion="0" />
    <inkscape:path-effect
       effect="spiro"
       id="path-effect3252"
       is_visible="true"
       lpeversion="0" />
    <inkscape:path-effect
       is_visible="true"
       id="path-effect3256"
       effect="spiro"
       lpeversion="0" />
    <inkscape:path-effect
       effect="spiro"
       id="path-effect3260"
       is_visible="true"
       lpeversion="0" />
    <inkscape:path-effect
       is_visible="true"
       id="path-effect3264"
       effect="spiro"
       lpeversion="0" />
    <inkscape:path-effect
       effect="spiro"
       id="path-effect3268"
       is_visible="true"
       lpeversion="0" />
    <inkscape:path-effect
       is_visible="true"
       id="path-effect3272"
       effect="spiro"
       lpeversion="0" />
    <inkscape:path-effect
       effect="spiro"
       id="path-effect3276"
       is_visible="true"
       lpeversion="0" />
    <inkscape:path-effect
       is_visible="true"
       id="path-effect3280"
       effect="spiro"
       lpeversion="0" />
    <inkscape:path-effect
       effect="spiro"
       id="path-effect3284"
       is_visible="true"
       lpeversion="0" />
    <inkscape:path-effect
       is_visible="true"
       id="path-effect3288"
       effect="spiro"
       lpeversion="0" />
    <inkscape:path-effect
       effect="spiro"
       id="path-effect3294"
       is_visible="true"
       lpeversion="0" />
    <inkscape:path-effect
       is_visible="true"
       id="path-effect3298"
       effect="spiro"
       lpeversion="0" />
    <inkscape:path-effect
       effect="spiro"
       id="path-effect3302"
       is_visible="true"
       lpeversion="0" />
    <inkscape:path-effect
       is_visible="true"
       id="path-effect3306"
       effect="spiro"
       lpeversion="0" />
    <inkscape:path-effect
       effect="spiro"
       id="path-effect3310"
       is_visible="true"
       lpeversion="0" />
    <inkscape:path-effect
       is_visible="true"
       id="path-effect3314"
       effect="spiro"
       lpeversion="0" />
    <inkscape:path-effect
       effect="spiro"
       id="path-effect3318"
       is_visible="true"
       lpeversion="0" />
    <inkscape:path-effect
       is_visible="true"
       id="path-effect3322"
       effect="spiro"
       lpeversion="0" />
    <inkscape:path-effect
       effect="spiro"
       id="path-effect3326"
       is_visible="true"
       lpeversion="0" />
    <inkscape:path-effect
       is_visible="true"
       id="path-effect3330"
       effect="spiro"
       lpeversion="0" />
    <inkscape:path-effect
       effect="spiro"
       id="path-effect3334"
       is_visible="true"
       lpeversion="0" />
    <inkscape:path-effect
       is_visible="true"
       id="path-effect3338"
       effect="spiro"
       lpeversion="0" />
    <inkscape:path-effect
       effect="spiro"
       id="path-effect3027"
       is_visible="true"
       lpeversion="0" />
    <inkscape:path-effect
       effect="spiro"
       id="path-effect3032"
       is_visible="true"
       lpeversion="0" />
    <inkscape:path-effect
       effect="spiro"
       id="path-effect3036"
       is_visible="true"
       lpeversion="0" />
    <inkscape:path-effect
       effect="spiro"
       id="path-effect3040"
       is_visible="true"
       lpeversion="0" />
    <inkscape:path-effect
       is_visible="true"
       id="path-effect11774"
       effect="spiro"
       lpeversion="0" />
    <inkscape:path-effect
       is_visible="true"
       id="path-effect11771"
       effect="spiro"
       lpeversion="0" />
    <inkscape:path-effect
       is_visible="true"
       id="path-effect11768"
       effect="spiro"
       lpeversion="0" />
    <inkscape:path-effect
       effect="spiro"
       id="path-effect11765"
       is_visible="true"
       lpeversion="0" />
    <inkscape:path-effect
       is_visible="true"
       id="path-effect11762"
       effect="spiro"
       lpeversion="0" />
    <inkscape:path-effect
       is_visible="true"
       id="path-effect11759"
       effect="spiro"
       lpeversion="0" />
    <inkscape:path-effect
       effect="spiro"
       id="path-effect11756"
       is_visible="true"
       lpeversion="0" />
    <inkscape:path-effect
       is_visible="true"
       id="path-effect11753"
       effect="spiro"
       lpeversion="0" />
    <inkscape:path-effect
       effect="spiro"
       id="path-effect11750"
       is_visible="true"
       lpeversion="0" />
    <inkscape:path-effect
       effect="spiro"
       id="path-effect11747"
       is_visible="true"
       lpeversion="0" />
    <inkscape:path-effect
       is_visible="true"
       id="path-effect11744"
       effect="spiro"
       lpeversion="0" />
    <inkscape:path-effect
       effect="spiro"
       id="path-effect5278-7"
       is_visible="true"
       lpeversion="0" />
    <inkscape:path-effect
       effect="spiro"
       id="path-effect5286-4"
       is_visible="true"
       lpeversion="0" />
    <inkscape:path-effect
       effect="spiro"
       id="path-effect5282-0"
       is_visible="true"
       lpeversion="0" />
    <inkscape:path-effect
       is_visible="true"
       id="path-effect5312-9"
       effect="spiro"
       lpeversion="0" />
    <inkscape:path-effect
       effect="spiro"
       id="path-effect4330-4"
       is_visible="true"
       lpeversion="0" />
    <inkscape:path-effect
       effect="spiro"
       id="path-effect5228-8"
       is_visible="true"
       lpeversion="0" />
    <inkscape:path-effect
       effect="spiro"
       id="path-effect5156-8"
       is_visible="true"
       lpeversion="0" />
    <inkscape:path-effect
       effect="spiro"
       id="path-effect5220-2"
       is_visible="true"
       lpeversion="0" />
    <inkscape:path-effect
       effect="spiro"
       id="path-effect5224-4"
       is_visible="true"
       lpeversion="0" />
    <inkscape:path-effect
       effect="spiro"
       id="path-effect5232-5"
       is_visible="true"
       lpeversion="0" />
    <inkscape:path-effect
       effect="spiro"
       id="path-effect5244-5"
       is_visible="true"
       lpeversion="0" />
    <inkscape:path-effect
       effect="spiro"
       id="path-effect5236-1"
       is_visible="true"
       lpeversion="0" />
    <inkscape:path-effect
       effect="spiro"
       id="path-effect5248-7"
       is_visible="true"
       lpeversion="0" />
    <inkscape:path-effect
       effect="spiro"
       id="path-effect5240-1"
       is_visible="true"
       lpeversion="0" />
    <path
       id="path2"
       d="m -145.70702,-0.65677633 c 0.12588,0.42047 0.64688,0.6826 1.66128,0.74384 9.36446,0.56535 52.918221,-12.93078967 76.926731,-16.19028967 24.00851,-3.2595 44.56804,-3.45753 67.12434039,-3.36668 22.55629961,0.09084 44.20496961,0.65207 68.21345961,3.91174 24.00849,3.25966 66.121299,15.88730967 75.837469,15.64624967 1.19267,-0.02959 1.78657,-0.28712 1.91585,-0.71893" />
  </defs>
  <g
     id="g5"
     transform="translate(-20.662889,-14.76042)"
     inkscape:label="Wordmark">
    <text
       xml:space="preserve"
       transform="matrix(0.29398147,0,0,0.29398147,30.236106,15.199433)"
       id="text2"
       style="font-style:normal;font-variant:normal;font-weight:normal;font-stretch:normal;font-size:18.6667px;line-height:0;font-family:Quattrocento;-inkscape-font-specification:'Quattrocento, Normal';font-variant-ligatures:normal;font-variant-caps:normal;font-variant-numeric:normal;font-variant-east-asian:normal;text-align:center;letter-spacing:-1px;word-spacing:0px;white-space:pre;shape-inside:url(#rect2);display:none;fill:#f8f8f8;fill-opacity:1;stroke:none;stroke-width:0.48;stroke-linecap:round;paint-order:markers fill stroke" />
    <path
       style="font-size:5.48765px;line-height:0;font-family:Quattrocento;-inkscape-font-specification:'Quattrocento, Normal';text-align:center;letter-spacing:-0.293981px;word-spacing:0px;text-anchor:middle;fill:#f8f8f8;stroke-width:0.141111;stroke-linecap:round;paint-order:markers fill stroke"
       d="m 22.122604,15.221383 -0.01646,0.09878 -0.02195,0.02195 c -0.05853,0 -0.115239,0.0037 -0.170117,0.01098 -0.05122,0.0037 -0.09329,0.0183 -0.126216,0.0439 -0.02927,0.02561 -0.05671,0.05853 -0.08232,0.09878 -0.02561,0.04024 -0.04207,0.111579 -0.04939,0.214018 -0.0037,0.05122 -0.0073,0.09878 -0.01098,0.142679 0,0.0439 -0.0018,0.09512 -0.0055,0.153654 v 0.214018 0.323772 1.009727 0.334747 c 0,0.0878 -0.0018,0.162801 -0.0055,0.224994 v 0.164629 0.126216 c 0,0.146337 -0.01646,0.290845 -0.04939,0.433524 -0.03293,0.142679 -0.08049,0.270725 -0.142679,0.384136 -0.05853,0.11707 -0.133531,0.214018 -0.224994,0.290845 -0.0878,0.07683 -0.18841,0.126216 -0.301821,0.148167 -0.02927,0.0073 -0.06219,0.01097 -0.09878,0.01097 -0.03659,0.0037 -0.06951,0.0055 -0.09878,0.0055 l -0.0439,-0.01646 -0.01098,-0.120728 0.02195,-0.02744 c 0.04756,0 0.08963,-0.0018 0.126216,-0.0055 0.03659,0 0.07317,-0.0073 0.109753,-0.02195 0.0439,-0.02561 0.08597,-0.05853 0.126216,-0.09878 0.102436,-0.102436 0.160971,-0.292674 0.175605,-0.570715 0.01829,-0.278041 0.02744,-0.662177 0.02744,-1.152407 v -1.113993 -0.323771 c 0,-0.0878 -0.0018,-0.162801 -0.0055,-0.224994 0,-0.06219 -0.0018,-0.11524 -0.0055,-0.159141 0,-0.0439 -0.0018,-0.0878 -0.0055,-0.131704 -0.0073,-0.09878 -0.02378,-0.168288 -0.04939,-0.208531 -0.02561,-0.0439 -0.05304,-0.07866 -0.08231,-0.104265 -0.03293,-0.02561 -0.075,-0.04024 -0.126216,-0.0439 -0.05122,-0.0073 -0.106096,-0.01098 -0.164629,-0.01098 l -0.02744,-0.02195 -0.01646,-0.09878 0.01098,-0.02195 c 0.02561,0 0.06768,0.0018 0.126216,0.0055 0.05853,0.0037 0.118897,0.0073 0.181092,0.01098 0.06219,0.0037 0.122558,0.0073 0.181093,0.01098 0.05853,0.0037 0.100605,0.0055 0.126216,0.0055 h 0.104265 c 0.02561,0 0.06768,-0.0018 0.126216,-0.0055 0.05853,-0.0037 0.118898,-0.0073 0.181093,-0.01098 0.06219,-0.0037 0.122557,-0.0073 0.181092,-0.01098 0.05853,-0.0037 0.100605,-0.0055 0.126216,-0.0055 z m 2.180917,3.605394 c -0.07683,-0.0037 -0.151825,-0.0055 -0.224994,-0.0055 -0.13902,0 -0.265236,0.0055 -0.378648,0.01646 l -0.03289,-0.05487 c 0.01097,-0.04024 0.01829,-0.100604 0.02195,-0.181093 0.0073,-0.08048 0.01647,-0.155483 0.02744,-0.224993 l -0.0055,-0.01646 c -0.04756,0.06585 -0.104266,0.129876 -0.170117,0.192068 -0.06585,0.06219 -0.139022,0.118899 -0.219506,0.170117 -0.07683,0.04756 -0.160971,0.08597 -0.252432,0.11524 -0.0878,0.02927 -0.181093,0.0439 -0.27987,0.0439 -0.113412,0 -0.214019,-0.02012 -0.301821,-0.06037 -0.0878,-0.04024 -0.160971,-0.09329 -0.219506,-0.159141 -0.05853,-0.06585 -0.102435,-0.142681 -0.131704,-0.230482 -0.02927,-0.0878 -0.0439,-0.179263 -0.0439,-0.274382 0,-0.135362 0.0311,-0.252432 0.09329,-0.35121 0.06219,-0.102436 0.144508,-0.18658 0.246944,-0.252432 0.09512,-0.05853 0.206702,-0.106093 0.334747,-0.142679 0.131703,-0.03659 0.257919,-0.0622 0.378648,-0.07683 0.124387,-0.01829 0.235969,-0.02927 0.334746,-0.03293 0.09878,-0.0073 0.16463,-0.01097 0.197556,-0.01097 h 0.07683 c -0.0037,-0.135362 -0.01098,-0.241457 -0.02195,-0.318284 -0.01097,-0.08048 -0.02561,-0.146337 -0.0439,-0.197555 -0.04024,-0.109753 -0.10975,-0.188409 -0.208531,-0.235969 -0.09878,-0.05122 -0.217676,-0.07683 -0.356697,-0.07683 -0.05853,0 -0.122556,0.0055 -0.192068,0.01646 -0.06585,0.01097 -0.129876,0.03109 -0.192067,0.06036 -0.05853,0.02927 -0.109752,0.07134 -0.153655,0.126216 -0.0439,0.05122 -0.06951,0.118901 -0.07683,0.203043 l -0.02195,0.01646 h -0.120728 l -0.04939,-0.406086 0.01646,-0.03293 c 0.01829,-0.02195 0.05671,-0.04573 0.11524,-0.07134 0.05853,-0.02561 0.126214,-0.04939 0.203043,-0.07134 0.08049,-0.02561 0.168288,-0.04573 0.263407,-0.06036 0.09878,-0.01829 0.195727,-0.02744 0.290846,-0.02744 0.131703,0 0.254261,0.01829 0.367672,0.05488 0.113412,0.03293 0.210361,0.08414 0.290846,0.153654 0.08414,0.06951 0.149996,0.157313 0.197555,0.263408 0.04756,0.102436 0.07134,0.223164 0.07134,0.362185 0,0.153654 -0.0018,0.290845 -0.0055,0.411573 0,0.11707 -0.0018,0.226823 -0.0055,0.329259 -0.0037,0.09878 -0.0073,0.197556 -0.01098,0.296333 v 0.307309 c 0.0073,0.08414 0.01647,0.146337 0.02744,0.18658 0.01097,0.03659 0.02927,0.06403 0.05488,0.08232 0.02927,0.02927 0.07134,0.04756 0.126216,0.05488 0.05853,0.0037 0.117068,0.0055 0.175605,0.0055 l 0.02444,-10e-7 c 0.05853,0 0.115239,-0.0018 0.170117,-0.0055 0.05853,-0.0073 0.102435,-0.02561 0.131704,-0.05488 0.02927,-0.02561 0.04756,-0.05853 0.05488,-0.09878 0.01097,-0.04024 0.02012,-0.09695 0.02744,-0.170117 0.0037,-0.05853 0.0073,-0.117068 0.01098,-0.175605 0.0037,-0.06219 0.0055,-0.159142 0.0055,-0.290846 v -0.67498 -0.192068 c 0,-0.05488 -0.0018,-0.10244 -0.0055,-0.142679 0,-0.04024 -0.0018,-0.07682 -0.0055,-0.109753 0,-0.03293 -0.0018,-0.06768 -0.0055,-0.104265 -0.0073,-0.04025 -0.0183,-0.075 -0.03293,-0.104266 -0.01463,-0.03293 -0.02744,-0.05488 -0.03841,-0.06585 -0.03659,-0.0439 -0.08232,-0.06951 -0.137191,-0.07683 -0.05487,-0.01097 -0.111579,-0.01646 -0.170117,-0.01646 l -0.02195,-0.02195 -8.8e-5,-0.07681 0.02195,-0.01646 h 0.09878 0.235969 c 0.09512,-0.0037 0.177434,-0.01098 0.246944,-0.02195 l 0.192068,-0.02744 0.03293,0.04939 c -0.0073,0.02195 -0.01464,0.05122 -0.02195,0.0878 -0.0037,0.03293 -0.0092,0.07134 -0.01646,0.115241 -0.0037,0.04024 -0.0073,0.08048 -0.01098,0.120728 -0.0037,0.04024 -0.0055,0.075 -0.0055,0.104265 l 0.01646,0.01098 c 0.04024,-0.07317 0.08597,-0.142679 0.137191,-0.208531 0.05487,-0.06951 0.117067,-0.128045 0.18658,-0.175605 0.06951,-0.05122 0.148166,-0.09146 0.235969,-0.120728 0.0878,-0.02927 0.188409,-0.0439 0.301821,-0.0439 0.09512,0 0.188409,0.0128 0.27987,0.03841 0.09146,0.02195 0.175605,0.05854 0.252432,0.109753 0.08049,0.04756 0.149995,0.111583 0.20853,0.192068 0.06219,0.07683 0.109753,0.170117 0.142679,0.27987 0.0439,-0.08048 0.09146,-0.157312 0.142679,-0.230481 0.05487,-0.07683 0.117067,-0.142679 0.18658,-0.197556 0.07317,-0.05853 0.155484,-0.104264 0.246945,-0.137191 0.09512,-0.03659 0.203042,-0.05488 0.323771,-0.05488 0.106095,0 0.208531,0.01463 0.307308,0.0439 0.102436,0.02927 0.193897,0.075 0.274383,0.137191 0.08414,0.06219 0.155483,0.14085 0.214018,0.235969 0.06219,0.09512 0.104265,0.21036 0.126216,0.345722 0.01829,0.09512 0.02744,0.195726 0.02744,0.301821 0.0037,0.106095 0.0055,0.212189 0.0055,0.318284 v 0.795709 c 0,0.08414 0.0073,0.146337 0.02195,0.18658 0.01463,0.03659 0.03475,0.06403 0.06036,0.08232 0.02927,0.02927 0.07134,0.04756 0.126216,0.05488 0.05853,0.0037 0.117068,0.0055 0.175604,0.0055 l 0.02195,0.02195 0.01097,0.07683 -0.01097,0.02195 c -0.06585,-0.0073 -0.137193,-0.01281 -0.214018,-0.01646 -0.07317,-0.0037 -0.148167,-0.0055 -0.224994,-0.0055 -0.135362,0 -0.259749,0.0055 -0.37316,0.01646 l -0.03841,-0.05488 c 0.01463,-0.04756 0.02561,-0.109753 0.03293,-0.18658 0.0073,-0.07683 0.0128,-0.144508 0.01646,-0.203043 0.0037,-0.05488 0.0055,-0.122561 0.0055,-0.203043 0.0037,-0.08049 0.0055,-0.160972 0.0055,-0.241457 0.0037,-0.08414 0.0055,-0.1628 0.0055,-0.235969 v -0.170117 c 0,-0.07317 -0.0037,-0.164629 -0.01098,-0.274382 -0.0037,-0.113412 -0.01464,-0.208531 -0.03293,-0.285358 -0.03659,-0.149996 -0.111585,-0.263408 -0.224994,-0.340235 -0.109753,-0.07683 -0.234139,-0.11524 -0.37316,-0.11524 -0.102436,0 -0.197555,0.02012 -0.285358,0.06036 -0.08414,0.03659 -0.159142,0.08415 -0.224993,0.142679 -0.06585,0.05488 -0.122559,0.117073 -0.170118,0.18658 -0.0439,0.06951 -0.07683,0.135362 -0.09878,0.197555 0.0073,0.08049 0.01097,0.160972 0.01097,0.241457 0.0037,0.08049 0.0055,0.160971 0.0055,0.241457 v 0.795709 c 0,0.07683 0.0073,0.135362 0.02195,0.175605 0.01463,0.03659 0.03658,0.06768 0.06585,0.09329 0.02927,0.02561 0.06951,0.04207 0.120728,0.04939 0.05488,0.0073 0.109757,0.01098 0.16463,0.01098 l 0.02744,0.02744 0.01097,0.07134 -0.01097,0.02195 c -0.02561,0 -0.06402,-0.0018 -0.11524,-0.0055 -0.05122,-0.0037 -0.106097,-0.0073 -0.16463,-0.01098 -0.05853,0 -0.11341,-0.0018 -0.164629,-0.0055 h -0.115241 -0.07683 -0.120729 c -0.05122,0.0037 -0.106096,0.0055 -0.164629,0.0055 -0.05488,0.0037 -0.109757,0.0073 -0.16463,0.01098 -0.05122,0.0037 -0.08963,0.0055 -0.11524,0.0055 l -0.01098,-0.02195 0.01098,-0.07683 0.02195,-0.02195 c 0.05853,0 0.115239,-0.0018 0.170118,-0.0055 0.05853,-0.0073 0.102434,-0.02561 0.131703,-0.05488 0.02927,-0.02561 0.04756,-0.05853 0.05488,-0.09878 0.0073,-0.04024 0.01464,-0.09695 0.02195,-0.170117 0.0037,-0.05488 0.0055,-0.122561 0.0055,-0.203043 0.0037,-0.08049 0.0055,-0.160972 0.0055,-0.241457 0.0037,-0.08414 0.0055,-0.1628 0.0055,-0.235969 0.0037,-0.07317 0.0055,-0.129874 0.0055,-0.170117 v -0.126216 c 0,-0.05122 -0.0018,-0.102438 -0.0055,-0.153654 -0.0037,-0.05122 -0.0092,-0.100609 -0.01646,-0.148167 -0.0037,-0.04756 -0.01098,-0.09146 -0.02195,-0.131703 -0.04024,-0.149996 -0.115238,-0.263408 -0.224994,-0.340235 -0.109753,-0.07683 -0.234139,-0.11524 -0.37316,-0.11524 -0.120729,0 -0.230482,0.02744 -0.329259,0.08232 -0.09878,0.05122 -0.184751,0.115242 -0.25792,0.192067 -0.06951,0.07317 -0.124386,0.151825 -0.164629,0.235969 -0.03659,0.08049 -0.05488,0.149996 -0.05488,0.208531 v 0.614617 0.197555 c 0.0037,0.05122 0.0055,0.09512 0.0055,0.131704 0.0037,0.03659 0.0055,0.07134 0.0055,0.104265 0.0037,0.02927 0.0073,0.06219 0.01098,0.09878 0.0073,0.07683 0.01463,0.135362 0.02195,0.175605 0.01097,0.03659 0.0311,0.06768 0.06037,0.09329 0.02927,0.02561 0.06951,0.04207 0.120728,0.04939 0.05488,0.0073 0.109756,0.01098 0.164629,0.01098 l 0.02744,0.02744 0.01097,0.07134 -0.01097,0.02195 c -0.02561,0 -0.06402,-0.0018 -0.115241,-0.0055 -0.05122,-0.0037 -0.106096,-0.0073 -0.164629,-0.01098 -0.05853,0 -0.11341,-0.0018 -0.16463,-0.0055 h -0.115241 -0.07683 -0.120728 c -0.05122,0.0037 -0.106096,0.0055 -0.164629,0.0055 M 23.66699,18.190202 c 0.01097,-0.01829 0.02195,-0.04024 0.03293,-0.06585 0.01463,-0.02561 0.02378,-0.0567 0.02744,-0.09329 l 0.02744,-0.548765 h -0.04939 c -0.146337,0 -0.292675,0.0091 -0.439012,0.02744 -0.146337,0.01463 -0.278041,0.04573 -0.395111,0.09329 -0.113411,0.04756 -0.206701,0.113412 -0.27987,0.197556 -0.07317,0.08414 -0.109753,0.192067 -0.109753,0.323771 0,0.139021 0.04024,0.250603 0.120728,0.334747 0.08049,0.08048 0.184751,0.120728 0.312796,0.120728 0.07683,0 0.153655,-0.0128 0.230482,-0.03841 0.07683,-0.02561 0.148166,-0.05853 0.214018,-0.09878 0.06951,-0.04025 0.129874,-0.08232 0.181093,-0.126216 0.05487,-0.0439 0.09695,-0.08597 0.126216,-0.126216 z m 8.060574,-0.845098 -0.0878,0.03841 c -0.197555,0 -0.400598,0.0018 -0.609129,0.0055 -0.208531,0.0037 -0.413403,0.0055 -0.614617,0.0055 h -0.647542 c -0.0037,0.02561 -0.0055,0.05122 -0.0055,0.07683 v 0.06585 c 0,0.139021 0.02012,0.272554 0.06036,0.400599 0.04024,0.124387 0.102433,0.23414 0.18658,0.329259 0.0878,0.09512 0.199385,0.171946 0.334747,0.230481 0.135362,0.05488 0.299991,0.08232 0.493888,0.08232 0.113412,0 0.23414,-0.01098 0.362185,-0.03293 0.131704,-0.02561 0.252432,-0.06951 0.362185,-0.131704 l 0.05488,0.03293 v 0.09878 l -0.05488,0.06036 c -0.0878,0.06951 -0.212189,0.133533 -0.37316,0.192068 -0.160971,0.05488 -0.340235,0.08232 -0.53779,0.08232 -0.193897,0 -0.371331,-0.0311 -0.532302,-0.09329 -0.157313,-0.06585 -0.294504,-0.157314 -0.411573,-0.274383 -0.113412,-0.11707 -0.203044,-0.25609 -0.268895,-0.417061 -0.06219,-0.160971 -0.09329,-0.340235 -0.09329,-0.53779 0,-0.201214 0.03293,-0.384136 0.09878,-0.548765 0.06585,-0.164629 0.155485,-0.305479 0.268895,-0.422549 0.11707,-0.11707 0.252432,-0.208531 0.406086,-0.274383 0.157313,-0.06585 0.325601,-0.09878 0.504864,-0.09878 0.09512,0 0.201214,0.0128 0.318284,0.03841 0.120728,0.02561 0.235969,0.075 0.345722,0.148167 0.109753,0.06951 0.20853,0.170117 0.296333,0.301821 0.0878,0.128045 0.148166,0.298162 0.181092,0.510351 z m -1.09753,-0.883512 c -0.11707,0 -0.223165,0.02012 -0.318284,0.06036 -0.09146,0.03659 -0.173775,0.0878 -0.246944,0.153654 -0.06951,0.06219 -0.128046,0.137191 -0.175605,0.224994 -0.0439,0.08414 -0.075,0.173776 -0.09329,0.268895 h 0.214018 c 0.197555,0 0.389623,-0.0018 0.576204,-0.0055 0.18658,-0.0073 0.382306,-0.01646 0.587178,-0.02744 0.04756,-0.0037 0.07866,-0.01647 0.09329,-0.03841 0.01829,-0.02195 0.02744,-0.04756 0.02744,-0.07683 0,-0.02195 -0.0018,-0.04207 -0.0055,-0.06036 -0.0037,-0.01829 -0.0092,-0.03659 -0.01646,-0.05488 -0.04024,-0.139021 -0.115238,-0.246945 -0.224994,-0.323772 -0.109753,-0.08048 -0.248773,-0.120728 -0.417061,-0.120728 z m 2.532157,0.905462 c 0.153654,0.03293 0.276211,0.07866 0.367672,0.137191 0.09512,0.05487 0.168288,0.115238 0.219506,0.181093 0.05122,0.06585 0.08415,0.133534 0.09878,0.203043 0.01829,0.06585 0.02744,0.128047 0.02744,0.18658 0,0.11707 -0.02378,0.224994 -0.07134,0.323771 -0.04756,0.09878 -0.11707,0.184751 -0.208531,0.25792 -0.0878,0.06951 -0.195726,0.124386 -0.323771,0.164629 -0.128045,0.04025 -0.272554,0.06037 -0.433525,0.06037 -0.179263,0 -0.347551,-0.02012 -0.504864,-0.06037 -0.153654,-0.0439 -0.276211,-0.08963 -0.367672,-0.137191 l -0.01098,-0.04939 0.08231,-0.565228 h 0.126216 l 0.01646,0.02195 c 0,0.175605 0.05488,0.314625 0.16463,0.417061 0.109753,0.09878 0.268894,0.148167 0.477425,0.148167 0.124387,0 0.228652,-0.01463 0.312796,-0.0439 0.08414,-0.02927 0.149996,-0.06768 0.197556,-0.115241 0.05122,-0.04756 0.0878,-0.09878 0.109753,-0.153654 0.02195,-0.05487 0.03293,-0.107921 0.03293,-0.159142 0,-0.03293 -0.0018,-0.06951 -0.0055,-0.109753 -0.0037,-0.0439 -0.0183,-0.08597 -0.0439,-0.126216 -0.02561,-0.0439 -0.06402,-0.08414 -0.115241,-0.120728 -0.05122,-0.04024 -0.124389,-0.07317 -0.219506,-0.09878 l -0.526814,-0.131703 c -0.120729,-0.02927 -0.219506,-0.06768 -0.296333,-0.115241 -0.07683,-0.04756 -0.137192,-0.09878 -0.181093,-0.153654 -0.0439,-0.05853 -0.075,-0.118898 -0.09329,-0.181093 -0.01829,-0.06585 -0.02744,-0.131705 -0.02744,-0.197555 0,-0.120729 0.02378,-0.226823 0.07134,-0.318284 0.04756,-0.09512 0.111583,-0.171946 0.192068,-0.230481 0.08414,-0.06219 0.181092,-0.107924 0.290845,-0.137191 0.109753,-0.03293 0.228653,-0.04939 0.356698,-0.04939 0.171946,0 0.329259,0.02195 0.471938,0.06585 0.146337,0.0439 0.259749,0.0878 0.340234,0.131703 l 0.01646,0.04939 -0.06036,0.422549 h -0.115241 l -0.02195,-0.01646 c 0,-0.08414 -0.02378,-0.153654 -0.07134,-0.208531 -0.0439,-0.05853 -0.09878,-0.104264 -0.164629,-0.137191 -0.06585,-0.03659 -0.135364,-0.0622 -0.208531,-0.07683 -0.07317,-0.01463 -0.137191,-0.02195 -0.192068,-0.02195 -0.182921,0 -0.314625,0.04573 -0.395111,0.137192 -0.08049,0.09146 -0.120728,0.193897 -0.120728,0.307308 0,0.08414 0.02744,0.16463 0.08232,0.241457 0.05853,0.07317 0.170115,0.129874 0.334746,0.170117 z m 5.58015,1.487153 c -0.02561,0 -0.06768,-0.0018 -0.126216,-0.0055 -0.05853,-0.0037 -0.118897,-0.0073 -0.181092,-0.01098 -0.06219,-0.0037 -0.122558,-0.0073 -0.181093,-0.01098 -0.05853,-0.0037 -0.100605,-0.0055 -0.126216,-0.0055 h -0.104265 c -0.02561,0 -0.06768,0.0018 -0.126216,0.0055 -0.05853,0.0037 -0.118897,0.0073 -0.181092,0.01098 -0.06219,0.0037 -0.122558,0.0073 -0.181093,0.01098 -0.05853,0.0037 -0.100605,0.0055 -0.126216,0.0055 l -0.01098,-0.02195 0.01646,-0.09878 0.02195,-0.02195 c 0.05853,0 0.11341,-0.0018 0.16463,-0.0055 0.05488,-0.0073 0.09878,-0.02378 0.131704,-0.04939 0.02927,-0.02561 0.05488,-0.05853 0.07683,-0.09878 0.02561,-0.04024 0.0439,-0.111579 0.05488,-0.214018 0.0037,-0.02561 0.0055,-0.05487 0.0055,-0.0878 0.0037,-0.03659 0.0055,-0.08049 0.0055,-0.131703 0.0037,-0.05122 0.0055,-0.113413 0.0055,-0.18658 v -0.274383 -0.631079 h -1.953603 v 0.521326 0.323772 0.203043 c 0.0037,0.05487 0.0055,0.102433 0.0055,0.142679 0.0037,0.03659 0.0073,0.07683 0.01098,0.120728 0.0073,0.102436 0.02378,0.173775 0.04939,0.214018 0.02561,0.04024 0.05304,0.07317 0.08231,0.09878 0.03293,0.02561 0.075,0.04207 0.126216,0.04939 0.05487,0.0037 0.111579,0.0055 0.170117,0.0055 l 0.02195,0.02195 0.01646,0.09878 -0.01097,0.02195 c -0.02561,0 -0.06768,-0.0018 -0.126216,-0.0055 -0.05853,-0.0037 -0.118898,-0.0073 -0.181093,-0.01098 -0.06219,-0.0037 -0.122557,-0.0073 -0.181092,-0.01098 -0.05853,-0.0037 -0.100605,-0.0055 -0.126216,-0.0055 h -0.104266 c -0.02561,0 -0.06768,0.0018 -0.126215,0.0055 -0.05853,0.0037 -0.118898,0.0073 -0.181093,0.01098 -0.06219,0.0037 -0.122557,0.0073 -0.181092,0.01098 -0.05853,0.0037 -0.100605,0.0055 -0.126216,0.0055 l -0.01098,-0.02195 0.01646,-0.09878 0.02744,-0.02195 c 0.05853,0 0.11341,-0.0018 0.164629,-0.0055 0.05122,-0.0073 0.09329,-0.02378 0.126216,-0.04939 0.02927,-0.02561 0.05671,-0.05853 0.08232,-0.09878 0.02927,-0.04024 0.04756,-0.111579 0.05488,-0.214018 v -0.0878 c 0.0037,-0.03659 0.0055,-0.08049 0.0055,-0.131703 0.0037,-0.05122 0.0055,-0.113413 0.0055,-0.18658 v -0.274383 -1.113993 -0.323771 c 0,-0.0878 -0.0018,-0.162801 -0.0055,-0.224994 0,-0.06219 -0.0018,-0.11524 -0.0055,-0.159141 0,-0.0439 -0.0018,-0.0878 -0.0055,-0.131704 -0.0073,-0.09878 -0.02378,-0.168288 -0.04939,-0.208531 -0.02561,-0.0439 -0.05305,-0.07865 -0.08232,-0.104265 -0.03293,-0.02561 -0.075,-0.04024 -0.126216,-0.0439 -0.05122,-0.0073 -0.106096,-0.01098 -0.164629,-0.01098 l -0.02744,-0.02195 -0.01646,-0.09878 0.01098,-0.02195 c 0.02561,0 0.06768,0.0018 0.126216,0.0055 0.05853,0.0037 0.118897,0.0073 0.181092,0.01098 0.06219,0.0037 0.122558,0.0073 0.181093,0.01098 0.05853,0.0037 0.100605,0.0055 0.126215,0.0055 h 0.104266 c 0.02561,0 0.06768,-0.0018 0.126216,-0.0055 0.05853,-0.0037 0.118897,-0.0073 0.181092,-0.01098 0.06219,-0.0037 0.122558,-0.0073 0.181093,-0.01098 0.05853,-0.0037 0.100605,-0.0055 0.126216,-0.0055 l 0.01097,0.02195 -0.01646,0.09878 -0.02195,0.02195 c -0.05853,0 -0.115239,0.0037 -0.170117,0.01098 -0.05122,0.0037 -0.09329,0.0183 -0.126216,0.0439 -0.02927,0.02561 -0.0567,0.05853 -0.08231,0.09878 -0.02561,0.04024 -0.04207,0.111579 -0.04939,0.214018 -0.0037,0.05122 -0.0073,0.09878 -0.01098,0.142679 0,0.0439 -0.0018,0.09512 -0.0055,0.153654 v 0.214018 0.323772 0.246944 h 1.953603 v -0.241457 -0.323771 c 0,-0.0878 -0.0018,-0.162801 -0.0055,-0.224994 0,-0.06219 -0.0018,-0.11524 -0.0055,-0.159141 0,-0.0439 -0.0018,-0.0878 -0.0055,-0.131704 -0.0073,-0.102436 -0.02378,-0.173775 -0.04939,-0.214018 -0.02561,-0.04024 -0.05304,-0.07317 -0.08231,-0.09878 -0.03293,-0.02561 -0.07683,-0.04024 -0.131704,-0.0439 -0.05122,-0.0073 -0.106097,-0.01098 -0.16463,-0.01098 l -0.02195,-0.02195 -0.01646,-0.09878 0.01098,-0.02195 c 0.02561,0 0.06768,0.0018 0.126216,0.0055 0.05853,0.0037 0.118898,0.0073 0.181093,0.01098 0.06219,0.0037 0.122557,0.0073 0.181092,0.01098 0.05853,0.0037 0.100605,0.0055 0.126216,0.0055 h 0.104265 c 0.02561,0 0.06768,-0.0018 0.126216,-0.0055 0.05853,-0.0037 0.118898,-0.0073 0.181093,-0.01098 0.06219,-0.0037 0.122557,-0.0073 0.181092,-0.01098 0.05853,-0.0037 0.100605,-0.0055 0.126216,-0.0055 l 0.01097,0.02195 -0.01646,0.09878 -0.02744,0.02195 c -0.05853,0 -0.11341,0.0037 -0.164629,0.01098 -0.05122,0.0037 -0.09329,0.0183 -0.126216,0.0439 -0.02927,0.02561 -0.05853,0.05853 -0.0878,0.09878 -0.02561,0.04024 -0.04207,0.111579 -0.04939,0.214018 -0.0037,0.05122 -0.0073,0.09878 -0.01098,0.142679 v 0.153654 0.214018 0.323772 1.009727 0.323772 0.203043 0.142679 c 0.0037,0.03659 0.0073,0.07683 0.01098,0.120728 0.0073,0.102436 0.02378,0.173775 0.04939,0.214018 0.02927,0.04024 0.05853,0.07317 0.0878,0.09878 0.03293,0.02561 0.075,0.04207 0.126216,0.04939 0.05122,0.0037 0.106096,0.0055 0.164629,0.0055 l 0.02744,0.02195 0.01646,0.09878 z m 1.429146,-2.639559 c 0.215848,0 0.407916,0.03841 0.576204,0.11524 0.168288,0.07317 0.309138,0.173776 0.422549,0.301821 0.11707,0.124387 0.204872,0.268895 0.263407,0.433524 0.06219,0.16463 0.09329,0.334747 0.09329,0.510352 0,0.168288 -0.02744,0.331088 -0.08231,0.488401 -0.05487,0.157313 -0.139017,0.296333 -0.252432,0.417061 -0.113411,0.120729 -0.254261,0.217677 -0.422549,0.290846 -0.168288,0.07317 -0.364014,0.109753 -0.587178,0.109753 -0.230481,0 -0.431695,-0.03841 -0.603642,-0.115241 -0.171946,-0.07683 -0.314625,-0.177434 -0.428036,-0.301821 -0.109753,-0.124387 -0.192068,-0.265236 -0.246945,-0.422549 -0.05487,-0.160971 -0.08231,-0.3256 -0.08231,-0.493888 0,-0.179263 0.0311,-0.349381 0.09329,-0.510352 0.06219,-0.160971 0.149996,-0.30182 0.263407,-0.422549 0.11707,-0.124387 0.25792,-0.221335 0.422549,-0.290845 0.168288,-0.07317 0.358526,-0.109753 0.570715,-0.109753 z m 0.0055,2.452979 c 0.153654,0 0.289016,-0.0311 0.406086,-0.09329 0.11707,-0.06219 0.214019,-0.144508 0.290846,-0.246944 0.07683,-0.102436 0.133532,-0.217677 0.170117,-0.345722 0.04024,-0.131703 0.06036,-0.267065 0.06036,-0.406086 0,-0.131703 -0.02195,-0.265236 -0.06585,-0.400599 -0.04024,-0.135362 -0.100604,-0.25609 -0.181092,-0.362184 -0.08049,-0.109753 -0.179264,-0.197556 -0.296333,-0.263408 -0.11707,-0.06951 -0.252432,-0.104265 -0.406086,-0.104265 -0.160971,0 -0.299992,0.03293 -0.417062,0.09878 -0.113411,0.06219 -0.208531,0.144508 -0.285358,0.246944 -0.07317,0.102436 -0.128045,0.219506 -0.164629,0.35121 -0.03659,0.131703 -0.05488,0.263407 -0.05488,0.39511 0,0.135362 0.02012,0.270724 0.06036,0.406086 0.0439,0.131704 0.106094,0.252432 0.186581,0.362185 0.08049,0.106095 0.179263,0.193897 0.296333,0.263408 0.117069,0.06585 0.250602,0.09878 0.400598,0.09878 z m 4.151019,0.153654 -0.647542,-1.668245 c -0.04024,0.102436 -0.08048,0.204872 -0.120729,0.307308 -0.03659,0.102436 -0.07134,0.199385 -0.104265,0.290846 -0.03293,0.0878 -0.06219,0.164629 -0.0878,0.230481 -0.02561,0.06585 -0.0439,0.111584 -0.05488,0.137191 l -0.27987,0.702419 -0.334747,0.02744 -0.05488,-0.02744 -0.329259,-0.878024 c -0.01097,-0.02927 -0.03475,-0.08597 -0.07134,-0.170117 -0.03293,-0.0878 -0.07134,-0.18658 -0.11524,-0.296333 -0.0439,-0.109753 -0.08963,-0.221335 -0.137191,-0.334746 -0.0439,-0.11707 -0.08414,-0.219506 -0.120729,-0.307309 -0.03659,-0.0878 -0.06951,-0.157312 -0.09878,-0.208531 -0.03659,-0.05853 -0.07866,-0.104264 -0.126216,-0.137191 -0.0439,-0.03293 -0.104264,-0.05305 -0.181093,-0.06036 l -0.03293,-0.02744 V 16.3244 l 0.02195,-0.02195 c 0.06219,0.0073 0.128045,0.01463 0.197555,0.02195 0.06951,0.0073 0.133533,0.01097 0.192068,0.01097 h 0.214018 c 0.05853,0 0.128044,-0.0037 0.208531,-0.01097 0.08414,-0.0073 0.1628,-0.01464 0.235969,-0.02195 l 0.02195,0.02195 v 0.06585 l -0.02195,0.02195 c -0.08048,0.0073 -0.148166,0.02926 -0.203043,0.06585 -0.05122,0.03293 -0.07683,0.08232 -0.07683,0.148166 0,0.02927 0.0073,0.075 0.02195,0.137192 0.01829,0.06219 0.04024,0.131703 0.06585,0.20853 0.02561,0.07683 0.05304,0.159142 0.08231,0.246945 0.02927,0.08414 0.05853,0.164629 0.0878,0.241456 0.02927,0.07683 0.05488,0.144508 0.07683,0.203043 0.02195,0.05853 0.03658,0.09878 0.0439,0.120729 l 0.268895,0.713394 0.263407,-0.63108 c 0.02195,-0.05487 0.05122,-0.126213 0.0878,-0.214018 0.04024,-0.0878 0.07865,-0.182922 0.115241,-0.285358 0.04024,-0.102436 0.07682,-0.206701 0.109753,-0.312796 0.03659,-0.106095 0.0622,-0.203043 0.07683,-0.290845 -0.01829,-0.06951 -0.04756,-0.137192 -0.0878,-0.203043 -0.03659,-0.06951 -0.111584,-0.113412 -0.224993,-0.131704 l -0.03293,-0.02744 v -0.07683 l 0.02195,-0.02195 c 0.06219,0.0073 0.118899,0.01463 0.170117,0.02195 0.05487,0.0073 0.111579,0.01097 0.170117,0.01097 h 0.214018 c 0.120729,0 0.250603,-0.01098 0.389623,-0.03293 l 0.02195,0.02195 v 0.06585 l -0.02195,0.02195 c -0.160971,0.01829 -0.241456,0.08963 -0.241456,0.214018 0,0.02927 0.0073,0.075 0.02195,0.137192 0.01829,0.06219 0.04024,0.131703 0.06585,0.20853 0.02561,0.07683 0.05305,0.159142 0.08232,0.246945 0.02927,0.08414 0.05853,0.164629 0.0878,0.241456 0.02927,0.07683 0.05488,0.144508 0.07683,0.203043 0.02195,0.05853 0.03659,0.09878 0.0439,0.120729 l 0.268894,0.713394 0.263408,-0.63108 c 0.02561,-0.06219 0.06036,-0.146337 0.104265,-0.252432 0.0439,-0.106094 0.0878,-0.219505 0.131704,-0.340234 0.0439,-0.120728 0.08048,-0.237798 0.109753,-0.351209 0.03293,-0.11707 0.04939,-0.215848 0.04939,-0.296334 0,-0.08048 -0.02927,-0.133532 -0.0878,-0.159141 -0.05853,-0.02927 -0.124385,-0.04756 -0.197555,-0.05488 l -0.02195,-0.02195 v -0.06585 l 0.02195,-0.02195 c 0.146337,0.02195 0.27987,0.03293 0.400598,0.03293 h 0.224994 c 0.06219,0 0.120728,-0.0037 0.175605,-0.01097 0.05853,-0.0073 0.124385,-0.01464 0.197555,-0.02195 l 0.01646,0.02195 v 0.07683 l -0.02744,0.02744 c -0.06585,0.0073 -0.122559,0.02561 -0.170118,0.05488 -0.0439,0.02927 -0.08597,0.07683 -0.126215,0.142678 -0.03659,0.05853 -0.075,0.131702 -0.115241,0.219506 -0.04024,0.0878 -0.08231,0.182922 -0.126216,0.285358 -0.04024,0.102436 -0.08048,0.206701 -0.120728,0.312796 -0.04025,0.106095 -0.07866,0.204872 -0.115241,0.296333 -0.03293,0.09146 -0.06219,0.171947 -0.0878,0.241457 -0.02561,0.06585 -0.0439,0.111584 -0.05488,0.137191 l -0.27987,0.702419 -0.334747,0.02744 z m 3.695516,0.0055 c -0.07683,-0.0037 -0.151825,-0.0055 -0.224994,-0.0055 -0.139021,0 -0.265237,0.0055 -0.378648,0.01646 l -0.03289,-0.05487 c 0.01097,-0.04024 0.01829,-0.100604 0.02195,-0.181093 0.0073,-0.08048 0.01647,-0.155483 0.02744,-0.224993 l -0.0055,-0.01646 c -0.04756,0.06585 -0.104266,0.129876 -0.170117,0.192068 -0.06585,0.06219 -0.139022,0.118899 -0.219506,0.170117 -0.07683,0.04756 -0.160971,0.08597 -0.252432,0.11524 -0.0878,0.02927 -0.181092,0.0439 -0.27987,0.0439 -0.113411,0 -0.214018,-0.02012 -0.301821,-0.06037 -0.0878,-0.04024 -0.160971,-0.09329 -0.219506,-0.159141 -0.05853,-0.06585 -0.102434,-0.142681 -0.131703,-0.230482 -0.02927,-0.0878 -0.0439,-0.179263 -0.0439,-0.274382 0,-0.135362 0.0311,-0.252432 0.09329,-0.35121 0.06219,-0.102436 0.144508,-0.18658 0.246944,-0.252432 0.09512,-0.05853 0.206702,-0.106093 0.334747,-0.142679 0.131703,-0.03659 0.257919,-0.0622 0.378647,-0.07683 0.124387,-0.01829 0.23597,-0.02927 0.334747,-0.03293 0.09878,-0.0073 0.16463,-0.01097 0.197556,-0.01097 h 0.07683 c -0.0037,-0.135362 -0.01098,-0.241457 -0.02195,-0.318284 -0.01097,-0.08048 -0.02561,-0.146337 -0.0439,-0.197555 -0.04024,-0.109753 -0.10975,-0.188409 -0.208531,-0.235969 -0.09878,-0.05122 -0.217676,-0.07683 -0.356697,-0.07683 -0.05853,0 -0.122556,0.0055 -0.192068,0.01646 -0.06585,0.01097 -0.129876,0.03109 -0.192068,0.06036 -0.05853,0.02927 -0.109751,0.07134 -0.153654,0.126216 -0.0439,0.05122 -0.06951,0.118901 -0.07683,0.203043 l -0.02195,0.01646 H 46.0864 l -0.04939,-0.406086 0.01646,-0.03293 c 0.01829,-0.02195 0.05671,-0.04573 0.115241,-0.07134 0.05853,-0.02561 0.126214,-0.04939 0.203043,-0.07134 0.08048,-0.02561 0.168288,-0.04573 0.263407,-0.06036 0.09878,-0.01829 0.195727,-0.02744 0.290846,-0.02744 0.131703,0 0.254261,0.01829 0.367672,0.05488 0.113411,0.03293 0.21036,0.08414 0.290846,0.153654 0.08414,0.06951 0.149996,0.157313 0.197555,0.263408 0.04756,0.102436 0.07134,0.223164 0.07134,0.362185 0,0.153654 -0.0018,0.290845 -0.0055,0.411573 0,0.11707 -0.0018,0.226823 -0.0055,0.329259 -0.0037,0.09878 -0.0073,0.197556 -0.01097,0.296333 v 0.307309 c 0.0073,0.08414 0.01646,0.146337 0.02744,0.18658 0.01097,0.03659 0.02927,0.06403 0.05488,0.08232 0.02927,0.02927 0.07134,0.04756 0.126216,0.05488 0.05853,0.0037 0.117068,0.0055 0.175604,0.0055 l 0.02442,-1e-6 c 0.05853,0 0.115239,-0.0018 0.170117,-0.0055 0.05853,-0.0073 0.102435,-0.02561 0.131704,-0.05488 0.02927,-0.02561 0.04756,-0.05853 0.05488,-0.09878 0.01097,-0.04024 0.02012,-0.09695 0.02744,-0.170117 l 0.0055,-0.04939 c 0.0037,-0.03659 0.0055,-0.08232 0.0055,-0.137191 0.0037,-0.05488 0.0055,-0.14817 0.0055,-0.279871 V 17.2518 17.059732 c 0,-0.05488 -0.0018,-0.10244 -0.0055,-0.142679 0,-0.04024 -0.0018,-0.07682 -0.0055,-0.109753 0,-0.03293 -0.0018,-0.06768 -0.0055,-0.104265 -0.0073,-0.04025 -0.0183,-0.075 -0.03293,-0.104266 -0.01463,-0.03293 -0.02744,-0.05488 -0.03841,-0.06585 -0.03659,-0.0439 -0.08232,-0.06951 -0.137191,-0.07683 -0.05488,-0.01097 -0.111586,-0.01646 -0.170117,-0.01646 l -0.02195,-0.02195 v -0.07683 l 0.02195,-0.01646 h 0.09878 0.235969 c 0.09512,-0.0037 0.177433,-0.01098 0.246944,-0.02195 l 0.192068,-0.02744 0.03292,0.04939 c -0.02195,0.07683 -0.03841,0.164629 -0.04939,0.263407 -0.0073,0.09878 -0.01098,0.193897 -0.01098,0.285358 l 0.01638,0.0055 c 0.03659,-0.06951 0.07683,-0.142679 0.120729,-0.219506 0.04756,-0.07683 0.100607,-0.148166 0.159141,-0.214018 0.05853,-0.06585 0.124385,-0.12073 0.197556,-0.164629 0.07683,-0.0439 0.1628,-0.06585 0.257919,-0.06585 0.06585,0 0.139022,0.01098 0.219506,0.03293 0.08414,0.01829 0.14085,0.0439 0.170118,0.07683 l 0.0439,0.04939 -0.06585,0.422549 H 49.93012 c -0.01097,-0.05122 -0.04024,-0.09695 -0.0878,-0.137192 -0.0439,-0.0439 -0.11341,-0.06585 -0.208531,-0.06585 -0.09146,0 -0.175605,0.02744 -0.252432,0.08231 -0.07683,0.05122 -0.144508,0.117072 -0.203043,0.197556 -0.05487,0.08048 -0.09877,0.166458 -0.131703,0.257919 -0.02927,0.0878 -0.0439,0.168288 -0.0439,0.241457 v 0.488401 0.197555 c 0.0037,0.04756 0.0055,0.08963 0.0055,0.126216 0.0037,0.03293 0.0055,0.06219 0.0055,0.0878 0.0037,0.02195 0.0055,0.04573 0.0055,0.07134 l 0.0055,0.04939 c 0.0073,0.05487 0.01464,0.107921 0.02195,0.159142 0.01097,0.04756 0.03109,0.08414 0.06036,0.109753 0.01829,0.01463 0.0439,0.02561 0.07683,0.03292 0.03659,0.0073 0.07317,0.01281 0.109753,0.01646 0.04024,0.0037 0.07865,0.0073 0.115241,0.01098 h 0.0878 l 0.02744,0.02744 0.01098,0.07134 -0.01098,0.02195 c -0.02561,0 -0.06768,-0.0018 -0.126216,-0.0055 -0.05487,-0.0037 -0.113408,-0.0073 -0.175604,-0.01098 -0.06219,0 -0.122558,-0.0018 -0.181093,-0.0055 H 48.920444 48.78874 48.668012 m -1.281028,-0.631054 c 0.01097,-0.01829 0.02195,-0.04024 0.03293,-0.06585 0.01463,-0.02561 0.02378,-0.0567 0.02744,-0.09329 l 0.02744,-0.548765 h -0.04939 c -0.146337,0 -0.292675,0.0091 -0.439012,0.02744 -0.146337,0.01463 -0.278041,0.04573 -0.395111,0.09329 -0.113411,0.04756 -0.206701,0.113412 -0.27987,0.197556 -0.07317,0.08414 -0.109753,0.192067 -0.109753,0.323771 0,0.139021 0.04024,0.250603 0.120728,0.334747 0.08049,0.08048 0.184751,0.120728 0.312796,0.120728 0.07683,0 0.153654,-0.0128 0.230481,-0.03841 0.07683,-0.02561 0.148167,-0.05853 0.214019,-0.09878 0.06951,-0.04025 0.129874,-0.08232 0.181092,-0.126216 0.05488,-0.0439 0.09695,-0.08597 0.126216,-0.126216 z m 4.866767,0.592666 c 0.01097,-0.04024 0.02012,-0.100604 0.02744,-0.181093 0.01097,-0.08048 0.02012,-0.151825 0.02744,-0.214018 l -0.0055,-0.02195 c -0.102436,0.153655 -0.228652,0.278042 -0.378648,0.373161 -0.149996,0.09512 -0.321942,0.142679 -0.515839,0.142679 -0.208531,0 -0.389623,-0.03658 -0.543277,-0.109753 -0.149996,-0.07317 -0.274383,-0.170117 -0.373161,-0.290846 -0.09512,-0.120728 -0.166458,-0.257919 -0.214018,-0.411574 -0.04756,-0.157313 -0.07134,-0.320113 -0.07134,-0.4884 0,-0.248774 0.03841,-0.459134 0.11524,-0.63108 0.07683,-0.175605 0.173776,-0.316454 0.290846,-0.422549 0.11707,-0.109753 0.245115,-0.18841 0.384135,-0.235969 0.142679,-0.05122 0.278041,-0.07683 0.406086,-0.07683 0.175605,0 0.343893,0.04024 0.504864,0.120728 0.160971,0.07683 0.298163,0.208531 0.411574,0.395111 l 0.01098,-0.02195 c -0.0073,-0.08414 -0.01098,-0.164629 -0.01098,-0.241456 V 16.220137 15.84149 c 0,-0.106095 -0.0018,-0.197556 -0.0055,-0.274383 0,-0.07683 -0.0018,-0.144508 -0.0055,-0.203043 0,-0.05853 -0.0018,-0.117068 -0.0055,-0.175605 -0.0037,-0.04024 -0.01464,-0.07499 -0.03293,-0.104265 -0.01463,-0.02927 -0.02744,-0.05122 -0.03841,-0.06585 -0.03659,-0.04024 -0.08232,-0.06585 -0.137191,-0.07683 -0.05488,-0.01097 -0.111586,-0.01646 -0.170117,-0.01646 l -0.02195,-0.02195 v -0.07134 l 0.02195,-0.02195 h 0.09878 0.235969 c 0.09512,-0.0037 0.177434,-0.01098 0.246944,-0.02195 l 0.192068,-0.02744 0.03293,0.04939 c -0.0073,0.01463 -0.01464,0.04207 -0.02195,0.08232 -0.0037,0.03659 -0.0073,0.07683 -0.01098,0.120728 0,0.0439 -0.0018,0.08597 -0.0055,0.126216 v 0.09329 c 0,0.05853 -0.0018,0.11341 -0.0055,0.16463 v 0.181092 c 0,0.06951 -0.0018,0.153655 -0.0055,0.252432 v 0.378648 1.196308 0.378648 c 0.0037,0.09878 0.0055,0.182921 0.0055,0.252431 0.0037,0.06951 0.0055,0.129875 0.0055,0.181093 0.0037,0.05122 0.0073,0.109755 0.01098,0.175605 0.0073,0.08414 0.01647,0.146337 0.02744,0.18658 0.01097,0.03659 0.02744,0.06403 0.04939,0.08232 0.03293,0.02927 0.07683,0.04756 0.131704,0.05488 0.05488,0.0037 0.111586,0.0055 0.170117,0.0055 l 0.02195,0.02195 0.01098,0.07683 -0.01098,0.02195 c -0.06585,-0.0073 -0.137193,-0.01281 -0.214019,-0.01646 -0.07317,-0.0037 -0.148166,-0.0055 -0.224993,-0.0055 -0.135362,0 -0.259749,0.0055 -0.37316,0.01646 z M 50.62392,17.5701 c 0,0.124387 0.01646,0.246944 0.04939,0.367673 0.03293,0.120728 0.08232,0.228652 0.148166,0.323771 0.06585,0.09146 0.149997,0.166459 0.252432,0.224994 0.102437,0.05488 0.224994,0.08232 0.367673,0.08232 0.135362,0 0.25609,-0.02561 0.362185,-0.07683 0.109753,-0.05122 0.201213,-0.113413 0.274382,-0.18658 0.07317,-0.07317 0.129874,-0.149996 0.170117,-0.230481 0.0439,-0.08048 0.06768,-0.149996 0.07134,-0.208531 v -0.609129 c -0.0073,-0.05853 -0.0311,-0.129873 -0.07134,-0.214018 -0.03659,-0.08414 -0.09146,-0.16463 -0.164629,-0.241457 -0.06951,-0.08048 -0.157312,-0.148166 -0.263407,-0.203043 -0.102436,-0.05488 -0.224994,-0.08232 -0.367673,-0.08232 -0.146337,0 -0.272553,0.0311 -0.378648,0.09329 -0.102436,0.05853 -0.188409,0.137189 -0.257919,0.235968 -0.06585,0.09878 -0.115242,0.21219 -0.148167,0.340235 -0.02927,0.124387 -0.0439,0.252432 -0.0439,0.384135 z"
       id="text1"
       aria-label="James Howard"
       sodipodi:nodetypes="ccccccccccccsccssccccccccccccscscccccccccccccssccccccscccccsccscscscccccsccccsccccccccsccscccsccccccccccccccscscccccccccccccccccccccccscccccccscccccssccccccccsccccccsscccscccccsscscccccscccccccccccccsccccssscccscccsccccccccccccsccccccccccsccsscssccccccsscsscccsccccccscccssccsccccccccccscccssccccccccssccscccccccssccscccccsccscccsccccccccssssccccsccsssccccccccccccscccccccccccccccsccsssccccccccccccsccsccccccccccsccssscccccccccccccccccscccsccccccsccsssccccccccccccccccccccccccccccccssssssccsscccccsscscccsccsscccccccccsccccccscscccccccssccccccscscsccccccccccccccssccccscscsscccsscscccccsscccccccscscccccccscccccsccscssscccccsccccsccccccccsccscccscccccccccccccccscscccccccccccccccccccscscsccccscccscccccccccccccccccccccccccsccsscssccccccccsscccscccscccscsccccccccccccccccccscscccccccccccccccsccssccscsccccccscccss" />
  </g>
</svg>
