<svg xmlns="http://www.w3.org/2000/svg" width="130.693" height="14.589" viewBox="0 0 38.421 4.289"><path d="M-.586-.247v3.293q0 .198-.066.367-.066.174-.183.3-.118.128-.273.198-.155.076-.334.076v-.043q.155-.056.278-.197.127-.137.197-.325.075-.188.075-.39V-.247zm-.291.344h-.015Q-.896-.026-.986-.11-1.07-.2-1.193-.2h-.061v-.047h.377zm.277 0v-.344h.376V-.2h-.061q-.122 0-.211.09-.085.084-.09.207zm2.462.06 1.294 2.86h-.372L1.782.578ZM.955 2.704q-.052.14.014.22.066.076.15.076h.038v.047H.258V3h.038q.099 0 .202-.066.104-.07.18-.23zM1.862.158l.033.324-1.077 2.55H.522L1.637.642 1.66.586Q1.688.53 1.721.45q.038-.085.066-.165T1.82.158zm.555 1.792v.141H1.171V1.95Zm.24.753h.358q.07.16.174.23.103.066.197.066h.038v.047H2.46v-.047h.037q.08 0 .146-.075.066-.08.014-.221M6.977.158l.043.306-1.1 2.168-.038.08q-.033.08-.07.193-.038.108-.057.207h-.047l-.066-.296ZM4.222 2.73v.315h-.489v-.047h.071q.122 0 .211-.07.094-.071.109-.198zm.141.07q-.004.071.033.137.038.061.141.066h.066v.042h-.268V2.8ZM4.49.158h.047l.095.277-.292 2.611h-.26Zm.047 0 1.28 2.46-.108.494L4.448.675Zm2.484 0 .423 2.888h-.357L6.78.68l.198-.522Zm.282 2.573h.094q.02.127.113.197.094.071.212.071h.07v.047h-.489Zm-.249.07h.033v.245h-.273v-.042h.07q.109-.005.142-.07.037-.067.028-.133M9.017.224v2.822h-.301V.224zM10.282 2.9l-.01.146H9.008V2.9Zm-.221-1.336v.141H9.007v-.14Zm.216-1.34V.37h-1.27V.224Zm.268 2.15-.258.672h-.715l.16-.146q.235 0 .376-.066.146-.07.235-.188.09-.122.155-.273zm-.484-.678v.268h-.052v-.061q0-.08-.047-.136-.047-.062-.146-.062v-.009zm0-.39v.268h-.245v-.01q.1 0 .146-.056.047-.061.047-.141v-.061zm.216-.95V.68h-.051V.61q0-.1-.066-.17-.061-.07-.17-.07V.355zm0-.207V.27L9.741.224q.146 0 .31-.024.165-.028.226-.051M8.725 2.745l.061.301h-.409v-.047h.066q.117 0 .193-.075.075-.076.08-.179zm0-2.225h-.01q-.004-.108-.08-.179-.075-.07-.192-.07h-.066V.224h.41Zm3.356-.362q.132 0 .23.01.1.009.17.023.075.01.127.028.056.014.099.028l.005.466h-.057q0-.193-.132-.301-.131-.113-.409-.113-.235 0-.404.132-.165.127-.16.315 0 .061.014.127.019.061.056.122.043.061.113.122l.95.734q.108.09.16.23.052.137.057.274.004.207-.109.38-.112.175-.305.278-.188.099-.419.099-.136 0-.296-.024-.155-.023-.292-.07-.136-.052-.226-.127-.014-.066-.014-.165 0-.103.014-.216.02-.113.047-.202h.057q-.019.211.061.362.08.15.235.23.155.075.362.07.292-.009.457-.145.169-.141.169-.372 0-.113-.042-.202-.038-.094-.127-.174l-.941-.724q-.132-.113-.179-.25-.047-.136-.047-.258 0-.193.104-.348.103-.156.277-.245.179-.094.395-.094m.621.042.005.085h-.334V.2zm5.395-.447v3.293h-.305V-.247zm-2.23 0v3.293h-.305V-.247Zm1.967 1.595v.141H15.82v-.141Zm-2.258 1.355v.343H15.2v-.047h.061q.122 0 .207-.085.09-.09.094-.211zm0-2.606h-.014q-.005-.123-.094-.207-.085-.09-.207-.09H15.2v-.047h.376zm.278 2.606h.014q.004.122.09.211.088.085.21.085h.062v.047h-.376Zm0-2.606v-.344h.376V-.2h-.061q-.123 0-.212.09-.085.084-.09.207zm1.952 2.606v.343h-.377v-.047h.061q.123 0 .212-.085.09-.09.09-.211zm0-2.606h-.014q0-.123-.09-.207-.09-.09-.212-.09h-.061v-.047h.377zm.277 2.606h.014q.005.122.09.211.089.085.211.085h.061v.047h-.376zm0-2.606v-.344h.376V-.2h-.061q-.122 0-.211.09-.085.084-.09.207zm2.679.06q.33 0 .616.11.292.103.508.3.221.198.343.47.123.269.123.598 0 .33-.123.602-.122.268-.343.466-.216.197-.508.305-.287.104-.616.104-.33 0-.616-.104-.287-.108-.508-.305-.217-.198-.339-.466-.122-.273-.122-.602 0-.33.122-.597.122-.273.339-.47.22-.198.508-.302.287-.108.616-.108m0 2.814q.348 0 .63-.17.282-.169.447-.47t.165-.696q0-.4-.165-.696-.165-.301-.447-.47-.282-.17-.63-.17-.343 0-.626.17-.282.169-.447.47-.164.296-.164.696 0 .395.164.696.165.301.447.47.283.17.626.17m2.335-2.72h.377l.762 2.319-.043.531zM25.03.149l.038.38-.729 2.051-.023.085q-.024.08-.052.202-.024.118-.028.235h-.043l-.09-.418.88-2.535Zm0 .004.904 2.3-.109.65L24.871.66zm1.731.099-.78 2.328-.029.085q-.023.085-.051.207-.024.118-.029.23h-.047l-.056-.465.724-2.385ZM26.4.553q.052-.15-.01-.216-.056-.066-.13-.066h-.038V.224h.86V.27h-.033q-.145 0-.244.08t-.141.202zM23.572.548l-.357.005q-.047-.122-.141-.202t-.245-.08h-.037V.224h.968V.27h-.037q-.075 0-.137.066-.06.06-.014.211m4.937-.39 1.293 2.86h-.371L28.429.577ZM27.6 2.703q-.052.14.014.22.066.076.15.076h.038v.047h-.898v-.047h.038q.098 0 .202-.066.103-.07.179-.23zm.91-2.545.033.324-1.077 2.55h-.297l1.115-2.39.024-.056q.028-.056.06-.136.038-.085.067-.165.028-.08.033-.127zm.555 1.792v.141h-1.247V1.95Zm.24.753h.357q.07.16.174.23.104.066.198.066h.038v.047h-.965v-.047h.038q.08 0 .146-.075.066-.08.014-.221m1.87-2.48h.606q.221 0 .395.053.18.051.301.15.127.099.193.24t.066.32q0 .197-.094.367t-.263.277q-.165.108-.377.132.08.033.184.146.108.113.183.22l.061.085.156.203q.098.117.193.225.098.109.178.189.085.08.179.127.099.042.226.042v.047h-.146q-.259 0-.428-.066-.165-.066-.268-.16-.104-.099-.179-.188-.019-.023-.09-.118-.065-.098-.145-.211t-.146-.202q-.066-.095-.08-.113-.094-.123-.216-.217-.123-.098-.259-.098v-.048l.075.005q.076 0 .193-.005.132-.004.264-.018.131-.02.244-.104.118-.084.184-.282.018-.052.028-.122t.005-.146q-.005-.132-.052-.235-.043-.104-.127-.18-.08-.074-.193-.117-.113-.042-.254-.047-.221-.01-.386-.004-.164.004-.164 0 0-.005-.015-.038-.009-.038-.023-.07zm.056 0v2.823h-.301V.224zm-.287 2.522.056.301h-.4v-.047h.067q.112 0 .188-.075.075-.076.08-.179zm0-2.225h-.01q-.004-.108-.08-.179-.075-.07-.187-.07H30.6V.224h.4zm.273 2.225h.014q.005.103.08.179.075.075.188.075h.061l.005.047h-.405zM35.414.224q.466 0 .804.17.339.168.522.488.184.315.184.753 0 .437-.184.752-.183.316-.522.49-.338.169-.804.169h-1.002l-.01-.141h1.012q.546 0 .856-.339.315-.343.315-.931T36.27.708q-.31-.343-.856-.343h-1.058V.224Zm-.936 0v2.822h-.306V.224zm-.296 2.516v.306h-.34v-.047h.062q.113 0 .188-.075.075-.08.08-.184zm0-2.21h-.01q-.005-.113-.085-.184-.075-.075-.188-.075h-.056V.224h.339z" aria-label="James Howard" style="font-size:4.7037px;line-height:0;font-family:Cinzel;-inkscape-font-specification:&quot;Cinzel, Normal&quot;;text-align:center;letter-spacing:.293981px;word-spacing:0;text-anchor:middle;fill:#f8f8f8;stroke:#fff;stroke-width:.0555556;stroke-linecap:round;stroke-linejoin:round;paint-order:stroke fill markers" transform="translate(1.47 .274)"/></svg>