<?xml version="1.0" encoding="UTF-8" standalone="no"?>
<!-- Created with Inkscape (http://www.inkscape.org/) -->

<svg
   width="34.579178mm"
   height="3.8599997mm"
   viewBox="0 0 38.421307 4.2888885"
   version="1.1"
   id="svg1"
   inkscape:version="1.3.2 (091e20e, 2023-11-25)"
   sodipodi:docname="jameshoward-wordmark.svg"
   xmlns:inkscape="http://www.inkscape.org/namespaces/inkscape"
   xmlns:sodipodi="http://sodipodi.sourceforge.net/DTD/sodipodi-0.dtd"
   xmlns="http://www.w3.org/2000/svg"
   xmlns:svg="http://www.w3.org/2000/svg">
  <sodipodi:namedview
     id="namedview1"
     pagecolor="#010101"
     bordercolor="#000000"
     borderopacity="0.25"
     inkscape:showpageshadow="2"
     inkscape:pageopacity="0.0"
     inkscape:pagecheckerboard="true"
     inkscape:deskcolor="#000000"
     inkscape:document-units="mm"
     showguides="false"
     inkscape:zoom="5.6568543"
     inkscape:cx="74.246212"
     inkscape:cy="5.8336309"
     inkscape:window-width="1920"
     inkscape:window-height="1027"
     inkscape:window-x="1728"
     inkscape:window-y="25"
     inkscape:window-maximized="0"
     inkscape:current-layer="g2"
     showgrid="false" />
  <defs
     id="defs1">
    <rect
       x="148.06676"
       y="148.71333"
       width="223.71658"
       height="109.27197"
       id="rect2" />
    <inkscape:path-effect
       is_visible="true"
       id="path-effect13098"
       effect="spiro"
       lpeversion="0" />
    <inkscape:path-effect
       is_visible="true"
       id="path-effect13095"
       effect="spiro"
       lpeversion="0" />
    <inkscape:path-effect
       effect="spiro"
       id="path-effect3463-1"
       is_visible="true"
       lpeversion="0" />
    <inkscape:path-effect
       effect="spiro"
       id="path-effect3465-7"
       is_visible="true"
       lpeversion="0" />
    <inkscape:path-effect
       effect="spiro"
       id="path-effect3467-4"
       is_visible="true"
       lpeversion="0" />
    <inkscape:path-effect
       is_visible="true"
       id="path-effect3469-0"
       effect="spiro"
       lpeversion="0" />
    <inkscape:path-effect
       effect="spiro"
       id="path-effect3471-9"
       is_visible="true"
       lpeversion="0" />
    <inkscape:path-effect
       effect="spiro"
       id="path-effect3473-4"
       is_visible="true"
       lpeversion="0" />
    <inkscape:path-effect
       is_visible="true"
       id="path-effect3475-8"
       effect="spiro"
       lpeversion="0" />
    <inkscape:path-effect
       effect="spiro"
       id="path-effect3477-8"
       is_visible="true"
       lpeversion="0" />
    <inkscape:path-effect
       is_visible="true"
       id="path-effect3479-2"
       effect="spiro"
       lpeversion="0" />
    <inkscape:path-effect
       is_visible="true"
       id="path-effect3481-4"
       effect="spiro"
       lpeversion="0" />
    <inkscape:path-effect
       effect="spiro"
       id="path-effect3483-5"
       is_visible="true"
       lpeversion="0" />
    <inkscape:path-effect
       is_visible="true"
       id="path-effect3427-5"
       effect="spiro"
       lpeversion="0" />
    <inkscape:path-effect
       is_visible="true"
       id="path-effect3424-1"
       effect="spiro"
       lpeversion="0" />
    <inkscape:path-effect
       is_visible="true"
       id="path-effect3420-7"
       effect="spiro"
       lpeversion="0" />
    <inkscape:path-effect
       is_visible="true"
       id="path-effect3417-1"
       effect="spiro"
       lpeversion="0" />
    <inkscape:path-effect
       is_visible="true"
       id="path-effect3414-1"
       effect="spiro"
       lpeversion="0" />
    <inkscape:path-effect
       is_visible="true"
       id="path-effect3411-5"
       effect="spiro"
       lpeversion="0" />
    <inkscape:path-effect
       is_visible="true"
       id="path-effect3408-2"
       effect="spiro"
       lpeversion="0" />
    <inkscape:path-effect
       is_visible="true"
       id="path-effect3405-7"
       effect="spiro"
       lpeversion="0" />
    <inkscape:path-effect
       is_visible="true"
       id="path-effect3402-6"
       effect="spiro"
       lpeversion="0" />
    <inkscape:path-effect
       is_visible="true"
       id="path-effect3399-1"
       effect="spiro"
       lpeversion="0" />
    <path
       id="path_63"
       d="m -145.70702,-0.65677633 c 0.12588,0.42047 0.64688,0.6826 1.66128,0.74384 9.36446,0.56535 52.918221,-12.93078967 76.926731,-16.19028967 24.00851,-3.2595 44.56804,-3.45753 67.12434039,-3.36668 22.55629961,0.09084 44.20496961,0.65207 68.21345961,3.91174 24.00849,3.25966 66.121299,15.88730967 75.837469,15.64624967 1.19267,-0.02959 1.78657,-0.28712 1.91585,-0.71893" />
    <inkscape:path-effect
       effect="spiro"
       id="path-effect2989"
       is_visible="true"
       lpeversion="0" />
    <inkscape:path-effect
       effect="spiro"
       id="path-effect3007"
       is_visible="true"
       lpeversion="0" />
    <inkscape:path-effect
       is_visible="true"
       id="path-effect3011"
       effect="spiro"
       lpeversion="0" />
    <inkscape:path-effect
       effect="spiro"
       id="path-effect3015"
       is_visible="true"
       lpeversion="0" />
    <inkscape:path-effect
       effect="spiro"
       id="path-effect3236"
       is_visible="true"
       lpeversion="0" />
    <inkscape:path-effect
       is_visible="true"
       id="path-effect3240"
       effect="spiro"
       lpeversion="0" />
    <inkscape:path-effect
       effect="spiro"
       id="path-effect3244"
       is_visible="true"
       lpeversion="0" />
    <inkscape:path-effect
       is_visible="true"
       id="path-effect3248"
       effect="spiro"
       lpeversion="0" />
    <inkscape:path-effect
       effect="spiro"
       id="path-effect3252"
       is_visible="true"
       lpeversion="0" />
    <inkscape:path-effect
       is_visible="true"
       id="path-effect3256"
       effect="spiro"
       lpeversion="0" />
    <inkscape:path-effect
       effect="spiro"
       id="path-effect3260"
       is_visible="true"
       lpeversion="0" />
    <inkscape:path-effect
       is_visible="true"
       id="path-effect3264"
       effect="spiro"
       lpeversion="0" />
    <inkscape:path-effect
       effect="spiro"
       id="path-effect3268"
       is_visible="true"
       lpeversion="0" />
    <inkscape:path-effect
       is_visible="true"
       id="path-effect3272"
       effect="spiro"
       lpeversion="0" />
    <inkscape:path-effect
       effect="spiro"
       id="path-effect3276"
       is_visible="true"
       lpeversion="0" />
    <inkscape:path-effect
       is_visible="true"
       id="path-effect3280"
       effect="spiro"
       lpeversion="0" />
    <inkscape:path-effect
       effect="spiro"
       id="path-effect3284"
       is_visible="true"
       lpeversion="0" />
    <inkscape:path-effect
       is_visible="true"
       id="path-effect3288"
       effect="spiro"
       lpeversion="0" />
    <inkscape:path-effect
       effect="spiro"
       id="path-effect3294"
       is_visible="true"
       lpeversion="0" />
    <inkscape:path-effect
       is_visible="true"
       id="path-effect3298"
       effect="spiro"
       lpeversion="0" />
    <inkscape:path-effect
       effect="spiro"
       id="path-effect3302"
       is_visible="true"
       lpeversion="0" />
    <inkscape:path-effect
       is_visible="true"
       id="path-effect3306"
       effect="spiro"
       lpeversion="0" />
    <inkscape:path-effect
       effect="spiro"
       id="path-effect3310"
       is_visible="true"
       lpeversion="0" />
    <inkscape:path-effect
       is_visible="true"
       id="path-effect3314"
       effect="spiro"
       lpeversion="0" />
    <inkscape:path-effect
       effect="spiro"
       id="path-effect3318"
       is_visible="true"
       lpeversion="0" />
    <inkscape:path-effect
       is_visible="true"
       id="path-effect3322"
       effect="spiro"
       lpeversion="0" />
    <inkscape:path-effect
       effect="spiro"
       id="path-effect3326"
       is_visible="true"
       lpeversion="0" />
    <inkscape:path-effect
       is_visible="true"
       id="path-effect3330"
       effect="spiro"
       lpeversion="0" />
    <inkscape:path-effect
       effect="spiro"
       id="path-effect3334"
       is_visible="true"
       lpeversion="0" />
    <inkscape:path-effect
       is_visible="true"
       id="path-effect3338"
       effect="spiro"
       lpeversion="0" />
    <inkscape:path-effect
       effect="spiro"
       id="path-effect3027"
       is_visible="true"
       lpeversion="0" />
    <inkscape:path-effect
       effect="spiro"
       id="path-effect3032"
       is_visible="true"
       lpeversion="0" />
    <inkscape:path-effect
       effect="spiro"
       id="path-effect3036"
       is_visible="true"
       lpeversion="0" />
    <inkscape:path-effect
       effect="spiro"
       id="path-effect3040"
       is_visible="true"
       lpeversion="0" />
    <inkscape:path-effect
       is_visible="true"
       id="path-effect11774"
       effect="spiro"
       lpeversion="0" />
    <inkscape:path-effect
       is_visible="true"
       id="path-effect11771"
       effect="spiro"
       lpeversion="0" />
    <inkscape:path-effect
       is_visible="true"
       id="path-effect11768"
       effect="spiro"
       lpeversion="0" />
    <inkscape:path-effect
       effect="spiro"
       id="path-effect11765"
       is_visible="true"
       lpeversion="0" />
    <inkscape:path-effect
       is_visible="true"
       id="path-effect11762"
       effect="spiro"
       lpeversion="0" />
    <inkscape:path-effect
       is_visible="true"
       id="path-effect11759"
       effect="spiro"
       lpeversion="0" />
    <inkscape:path-effect
       effect="spiro"
       id="path-effect11756"
       is_visible="true"
       lpeversion="0" />
    <inkscape:path-effect
       is_visible="true"
       id="path-effect11753"
       effect="spiro"
       lpeversion="0" />
    <inkscape:path-effect
       effect="spiro"
       id="path-effect11750"
       is_visible="true"
       lpeversion="0" />
    <inkscape:path-effect
       effect="spiro"
       id="path-effect11747"
       is_visible="true"
       lpeversion="0" />
    <inkscape:path-effect
       is_visible="true"
       id="path-effect11744"
       effect="spiro"
       lpeversion="0" />
    <inkscape:path-effect
       effect="spiro"
       id="path-effect5278-7"
       is_visible="true"
       lpeversion="0" />
    <inkscape:path-effect
       effect="spiro"
       id="path-effect5286-4"
       is_visible="true"
       lpeversion="0" />
    <inkscape:path-effect
       effect="spiro"
       id="path-effect5282-0"
       is_visible="true"
       lpeversion="0" />
    <inkscape:path-effect
       is_visible="true"
       id="path-effect5312-9"
       effect="spiro"
       lpeversion="0" />
    <inkscape:path-effect
       effect="spiro"
       id="path-effect4330-4"
       is_visible="true"
       lpeversion="0" />
    <inkscape:path-effect
       effect="spiro"
       id="path-effect5228-8"
       is_visible="true"
       lpeversion="0" />
    <inkscape:path-effect
       effect="spiro"
       id="path-effect5156-8"
       is_visible="true"
       lpeversion="0" />
    <inkscape:path-effect
       effect="spiro"
       id="path-effect5220-2"
       is_visible="true"
       lpeversion="0" />
    <inkscape:path-effect
       effect="spiro"
       id="path-effect5224-4"
       is_visible="true"
       lpeversion="0" />
    <inkscape:path-effect
       effect="spiro"
       id="path-effect5232-5"
       is_visible="true"
       lpeversion="0" />
    <inkscape:path-effect
       effect="spiro"
       id="path-effect5244-5"
       is_visible="true"
       lpeversion="0" />
    <inkscape:path-effect
       effect="spiro"
       id="path-effect5236-1"
       is_visible="true"
       lpeversion="0" />
    <inkscape:path-effect
       effect="spiro"
       id="path-effect5248-7"
       is_visible="true"
       lpeversion="0" />
    <inkscape:path-effect
       effect="spiro"
       id="path-effect5240-1"
       is_visible="true"
       lpeversion="0" />
    <path
       id="path2"
       d="m -145.70702,-0.65677633 c 0.12588,0.42047 0.64688,0.6826 1.66128,0.74384 9.36446,0.56535 52.918221,-12.93078967 76.926731,-16.19028967 24.00851,-3.2595 44.56804,-3.45753 67.12434039,-3.36668 22.55629961,0.09084 44.20496961,0.65207 68.21345961,3.91174 24.00849,3.25966 66.121299,15.88730967 75.837469,15.64624967 1.19267,-0.02959 1.78657,-0.28712 1.91585,-0.71893" />
  </defs>
  <g
     id="g2"
     inkscape:label="Wordmark"
     transform="translate(1.4697095,0.27438238)">
    <path
       style="font-size:4.7037px;line-height:0;font-family:Cinzel;-inkscape-font-specification:'Cinzel, Normal';text-align:center;letter-spacing:0.293981px;word-spacing:0px;text-anchor:middle;fill:#f8f8f8;stroke:#ffffff;stroke-width:0.0555556;stroke-linecap:round;stroke-linejoin:round;paint-order:stroke fill markers"
       d="M -0.58585763,-0.24660454 V 3.0459878 q 0,0.1975556 -0.0658518,0.3668889 -0.0658519,0.174037 -0.18344443,0.301037 -0.11759259,0.127 -0.27281484,0.1975556 -0.1552222,0.075259 -0.333963,0.075259 v -0.042333 q 0.1552223,-0.056444 0.2775185,-0.1975555 0.127,-0.1364074 0.19755564,-0.3245556 0.0752593,-0.1881481 0.0752593,-0.3904074 v -3.27848124 z m -0.29162961,0.34337035 h -0.0141111 q -0.004704,-0.12229629 -0.0940741,-0.20696295 -0.0846667,-0.0893704 -0.20696296,-0.0893704 0,0 -0.032926,0 -0.028222,0 -0.028222,0 v -0.047037 h 0.37629624 z m 0.2775185,0 v -0.34337035 h 0.37629627 v 0.047037 q 0,0 -0.0329259,0 -0.0282222,0 -0.0282222,0 -0.12229629,0 -0.21166666,0.0893704 -0.0846667,0.08466666 -0.0893704,0.20696295 z M 1.8624166,0.15791395 3.1559351,3.0177656 H 2.7843425 L 1.7824537,0.57654356 Z M 0.95460189,2.7026175 q -0.0517407,0.1411111 0.0141111,0.2210741 0.0658518,0.075259 0.15051851,0.075259 h 0.03763 v 0.047037 H 0.25845379 v -0.047037 q 0,0 0.0188148,0 0.0188148,0 0.0188148,0 0.0987778,0 0.20225924,-0.065852 0.10348148,-0.070556 0.17874073,-0.2304815 z M 1.8624166,0.15791395 1.8953426,0.48246949 0.81819449,3.0318767 H 0.52186118 L 1.6366389,0.64239541 q 0,0 0.023518,-0.0564444 0.028222,-0.0564444 0.061148,-0.13640739 0.03763,-0.0846667 0.065852,-0.16462962 0.028222,-0.079963 0.032926,-0.127 z M 2.4174537,1.950025 V 2.0911361 H 1.1709722 V 1.950025 Z M 2.6573425,2.7026175 H 3.014824 q 0.070556,0.1599259 0.174037,0.2304815 0.1034815,0.065852 0.1975556,0.065852 0,0 0.018815,0 0.018815,0 0.018815,0 V 3.045988 H 2.459787 V 2.998951 h 0.03763 q 0.079963,0 0.1458148,-0.075259 0.065852,-0.079963 0.014111,-0.2210745 z M 6.9776943,0.15791395 7.0200276,0.46365468 5.919361,2.6320619 q 0,0 -0.03763,0.079963 -0.032926,0.079963 -0.070556,0.1928518 -0.03763,0.1081852 -0.056444,0.206963 H 5.7076943 L 5.6418425,2.8155064 Z M 4.2213241,2.7308397 V 3.0459878 H 3.7321389 v -0.047037 q 0,0 0.032926,0 0.03763,0 0.03763,0 0.1222963,0 0.2116666,-0.070555 0.094074,-0.070556 0.1081852,-0.1975556 z m 0.1411111,0.070556 q -0.0047,0.070556 0.032926,0.1364074 0.03763,0.061148 0.1411111,0.065852 h 0.065852 v 0.042333 H 4.3342129 V 2.8013953 Z m 0.127,-2.64348135 h 0.047037 L 4.6305463,0.43543246 4.3389167,3.0459878 H 4.080213 Z m 0.047037,0 L 5.8158795,2.6179508 5.7076943,3.1118397 4.4471018,0.67532133 Z m 2.4835554,0 0.4233333,2.88807385 H 7.0858794 L 6.7801387,0.68002503 6.9776943,0.15791395 Z M 7.3022498,2.7308397 h 0.094074 q 0.018815,0.127 0.1128888,0.1975556 0.094074,0.070555 0.2116667,0.070555 0,0 0.032926,0 0.03763,0 0.03763,0 v 0.047037 H 7.3022498 Z m -0.2492963,0.070556 h 0.032926 V 3.0459878 H 6.8130646 v -0.042333 h 0.070556 q 0.1081852,-0.0047 0.1411111,-0.070556 0.03763,-0.065852 0.028222,-0.1317031 z M 9.01675,0.2237658 v 2.822222 H 8.715713 v -2.822222 z m 1.265296,2.6764072 -0.0094,0.1458148 H 9.0073426 V 2.900173 Z M 10.060972,1.5643213 V 1.7054324 H 9.0073426 V 1.5643213 Z M 10.277343,0.2237658 V 0.36958061 H 9.0073426 V 0.2237658 Z M 10.545454,2.3733583 10.28675,3.0459878 H 9.571787 L 9.7317129,2.900173 q 0.2351852,0 0.3762961,-0.065852 0.145815,-0.070556 0.235185,-0.1881481 0.08937,-0.1222963 0.155223,-0.2728148 z M 10.060972,1.696025 v 0.2681111 h -0.05174 v -0.061148 q 0,-0.079963 -0.047037,-0.1364074 -0.047037,-0.061148 -0.1458148,-0.061148 v -0.00941 z m 0,-0.3904074 V 1.5737287 H 9.8163796 v -0.00941 q 0.098778,0 0.1458148,-0.056445 0.047037,-0.061148 0.047037,-0.1411111 v -0.061148 z m 0.216371,-0.9501481 v 0.32455553 h -0.05174 v -0.0705556 q 0,-0.0987778 -0.06585,-0.16933332 -0.06115,-0.0705556 -0.1693334,-0.0705556 v -0.014111 z m 0,-0.20696295 V 0.27080284 L 9.7411203,0.2237658 q 0.1458148,0 0.3104447,-0.0235185 0.164629,-0.0282222 0.225778,-0.0517408 z M 8.7251204,2.7449508 8.7862685,3.0459878 H 8.3770463 v -0.047037 q 0,0 0.032926,0 0.032926,0 0.032926,0 0.1175926,0 0.1928518,-0.075259 0.075259,-0.075259 0.079963,-0.1787408 z m 0,-2.22485168 H 8.715713 Q 8.7110093,0.41191394 8.63575,0.34135839 8.5604908,0.27080284 8.4428982,0.27080284 q 0,0 -0.032926,0 -0.032926,0 -0.032926,0 V 0.2237658 H 8.7862685 Z M 12.08121,0.15791395 q 0.131704,0 0.230481,0.009407 0.09878,0.009407 0.169334,0.0235185 0.07526,0.009407 0.127,0.0282222 0.05644,0.0141111 0.09878,0.0282222 l 0.0047,0.46566664 h -0.05644 q 0,-0.19285184 -0.131704,-0.30103702 -0.131704,-0.11288888 -0.409222,-0.11288888 -0.235185,0 -0.404519,0.13170369 -0.164629,0.12699999 -0.159925,0.31514813 0,0.0611481 0.01411,0.12699999 0.01881,0.0611481 0.05644,0.12229629 0.04233,0.0611481 0.112889,0.12229621 l 0.950148,0.7337778 q 0.108185,0.08937 0.159926,0.2304814 0.05174,0.1364074 0.05644,0.2728148 0.0047,0.206963 -0.108185,0.381 -0.112889,0.174037 -0.305741,0.2775185 -0.188148,0.098778 -0.418629,0.098778 -0.136408,0 -0.296333,-0.023518 -0.155223,-0.023519 -0.29163,-0.070556 -0.136407,-0.051741 -0.225778,-0.127 -0.01411,-0.065852 -0.01411,-0.1646296 0,-0.1034815 0.01411,-0.2163703 0.01882,-0.1128889 0.04704,-0.2022593 h 0.05645 q -0.01882,0.2116667 0.06115,0.3621852 0.07996,0.1505185 0.235185,0.2304814 0.155222,0.075259 0.362185,0.070556 0.29163,-0.00941 0.456259,-0.1458148 0.169334,-0.1411111 0.169334,-0.3715926 0,-0.1128889 -0.04233,-0.2022592 -0.03763,-0.094074 -0.127,-0.1740371 l -0.94074,-0.7243703 q -0.131704,-0.1128889 -0.178741,-0.2492963 -0.04704,-0.13640733 -0.04704,-0.25870362 0,-0.19285184 0.103481,-0.34807405 0.103482,-0.15522221 0.277519,-0.24459258 0.178741,-0.0940741 0.395111,-0.0940741 z m 0.620889,0.0423333 0.0047,0.0846667 H 12.37284 v -0.0846667 z m 5.395147,-0.44685183 V 3.0459878 h -0.305741 v -3.29259234 z m -2.229555,0 V 3.0459878 H 15.56195 V -0.24660454 Z M 17.833839,1.3479509 V 1.489062 H 15.820654 V 1.3479509 Z m -2.257778,1.3546666 v 0.3433703 h -0.376296 v -0.047037 q 0,0 0.02822,0 0.03293,0 0.03293,0 0.122296,0 0.206963,-0.084667 0.08937,-0.08937 0.09407,-0.2116666 z m 0,-2.60585169 h -0.01411 q -0.0047,-0.12229629 -0.09407,-0.20696295 -0.08467,-0.0893704 -0.206963,-0.0893704 0,0 -0.03293,0 -0.02822,0 -0.02822,0 v -0.047037 h 0.376296 z M 15.85358,2.7026175 h 0.01411 q 0.0047,0.1222963 0.08937,0.2116666 0.08937,0.084667 0.211667,0.084667 0,0 0.02822,0 0.02822,0 0.03293,0 v 0.047037 H 15.85358 Z m 0,-2.60585169 v -0.34337035 h 0.376296 v 0.047037 q -0.0047,0 -0.03293,0 -0.02822,0 -0.02822,0 -0.122296,0 -0.211667,0.0893704 -0.08467,0.08466666 -0.08937,0.20696295 z M 17.805617,2.7026175 V 3.0459878 H 17.42932 v -0.047037 q 0.0047,0 0.03293,0 0.02822,0 0.02822,0 0.122297,0 0.211667,-0.084667 0.08937,-0.08937 0.08937,-0.2116666 z m 0,-2.60585169 h -0.01411 q 0,-0.12229629 -0.08937,-0.20696295 -0.08937,-0.0893704 -0.211667,-0.0893704 0,0 -0.02822,0 -0.02822,0 -0.03293,0 v -0.047037 h 0.376297 z m 0.277518,2.60585169 h 0.01411 q 0.0047,0.1222963 0.08937,0.2116666 0.08937,0.084667 0.211666,0.084667 0,0 0.02822,0 0.03293,0 0.03293,0 v 0.047037 h -0.376296 z m 0,-2.60585169 v -0.34337035 h 0.376296 v 0.047037 q 0,0 -0.03293,0 -0.02822,0 -0.02822,0 -0.122296,0 -0.211666,0.0893704 -0.08467,0.08466666 -0.08937,0.20696295 z m 2.678754,0.06114814 q 0.32926,0 0.616186,0.10818518 0.291629,0.10348148 0.508,0.30103702 0.221074,0.19755554 0.34337,0.47037035 0.122296,0.2681111 0.122296,0.5973703 0,0.3292593 -0.122296,0.6020741 -0.122296,0.2681111 -0.34337,0.4656666 -0.216371,0.1975555 -0.508,0.3057407 -0.286926,0.1034815 -0.616186,0.1034815 -0.329259,0 -0.616185,-0.1034815 -0.286926,-0.1081852 -0.508,-0.3057407 -0.21637,-0.1975555 -0.338666,-0.4656666 -0.122297,-0.2728148 -0.122297,-0.6020741 0,-0.3292592 0.122297,-0.5973703 0.122296,-0.27281481 0.338666,-0.47037035 0.221074,-0.19755554 0.508,-0.30103702 0.286926,-0.10818518 0.616185,-0.10818518 z m 0,2.81281465 q 0.348075,0 0.630297,-0.1693333 0.282222,-0.1693334 0.446852,-0.4703704 0.164629,-0.301037 0.164629,-0.6961481 0,-0.3998148 -0.164629,-0.69614808 -0.16463,-0.30103702 -0.446852,-0.47037034 -0.282222,-0.16933332 -0.630297,-0.16933332 -0.34337,0 -0.625592,0.16933332 -0.282222,0.16933332 -0.446852,0.47037034 -0.16463,0.29633328 -0.16463,0.69614808 0,0.3951111 0.16463,0.6961481 0.16463,0.301037 0.446852,0.4703704 0.282222,0.1693333 0.625592,0.1693333 z m 2.335388,-2.71874058 h 0.376296 l 0.762,2.31892578 -0.04233,0.5315185 z m 1.933222,-0.10348147 0.03763,0.38099997 -0.729074,2.05081468 q 0,0 -0.02352,0.084667 -0.02352,0.079963 -0.05174,0.2022592 -0.02352,0.1175926 -0.02822,0.2351852 h -0.04233 L 24.103875,2.683803 24.983468,0.14850685 Z m 0,0.004704 0.903111,2.30011095 -0.108185,0.6491111 -0.954852,-2.44122208 z m 1.730963,0.0987778 -0.780815,2.32833315 q 0,0 -0.02822,0.084667 -0.02352,0.084667 -0.05174,0.2069629 -0.02352,0.1175926 -0.02822,0.2304815 h -0.04704 L 25.76898,2.6367656 26.493351,0.25198802 Z m -0.362185,0.30103702 q 0.05174,-0.15051851 -0.0094,-0.21637036 -0.05644,-0.0658518 -0.131704,-0.0658518 h -0.03763 v -0.047037 h 0.860778 v 0.047037 q 0,0 -0.01882,0 -0.01411,0 -0.01411,0 -0.145815,0 -0.244593,0.079963 -0.09878,0.079963 -0.141111,0.20225925 z m -2.826926,-0.004704 -0.357482,0.004704 q -0.04704,-0.12229629 -0.141111,-0.20225925 -0.09407,-0.079963 -0.244592,-0.079963 0,0 -0.01882,0 -0.01882,0 -0.01882,0 v -0.047037 h 0.968963 v 0.047037 h -0.03763 q -0.07526,0 -0.136407,0.0658518 -0.06115,0.0611482 -0.01411,0.21166666 z M 28.508888,0.15791395 29.802406,3.0177656 H 29.430813 L 28.428925,0.57654356 Z M 27.601073,2.7026175 q -0.05174,0.1411111 0.01411,0.2210741 0.06585,0.075259 0.150518,0.075259 h 0.03763 v 0.047037 h -0.898407 v -0.047037 q 0,0 0.01882,0 0.01881,0 0.01881,0 0.09878,0 0.20226,-0.065852 0.103481,-0.070556 0.17874,-0.2304815 z M 28.508888,0.15791395 28.541818,0.48246949 27.46467,3.0318767 H 27.168332 L 28.28311,0.64239541 q 0,0 0.02352,-0.0564444 0.02822,-0.0564444 0.06115,-0.13640739 0.03763,-0.0846667 0.06585,-0.16462962 0.02822,-0.079963 0.03293,-0.127 z M 29.063925,1.950025 V 2.0911361 H 27.817443 V 1.950025 Z m 0.239888,0.7525925 h 0.357482 q 0.07056,0.1599259 0.174037,0.2304815 0.103481,0.065852 0.197555,0.065852 0,0 0.01882,0 0.01882,0 0.01882,0 V 3.045988 H 29.106268 V 2.998951 h 0.03763 q 0.07996,0 0.145814,-0.075259 0.06585,-0.079963 0.01411,-0.2210741 z m 1.869722,-2.4788517 h 0.606778 q 0.221074,0 0.395111,0.0517407 0.178741,0.0517407 0.301037,0.15051851 0.127,0.0987778 0.192852,0.23988887 0.06585,0.1411111 0.06585,0.31985183 0,0.19755559 -0.09407,0.36688889 -0.09407,0.1693333 -0.263408,0.2775185 -0.164629,0.1081852 -0.376296,0.1317037 0.07996,0.032926 0.183445,0.1458148 0.108185,0.1128889 0.183444,0.2210741 0,0 0.06115,0.084667 0.06115,0.079963 0.155222,0.2022593 0.09878,0.1175926 0.192852,0.2257778 0.09878,0.1081851 0.178741,0.1881481 0.08467,0.079963 0.178741,0.127 0.09878,0.042333 0.225777,0.042333 v 0.047037 h -0.145814 q -0.258704,0 -0.428037,-0.065852 Q 32.62228,2.9142839 32.518799,2.82021 32.415317,2.721432 32.340058,2.6320618 32.321238,2.6085428 32.250688,2.5144693 32.184838,2.4156913 32.104874,2.3028026 32.024914,2.1899137 31.959059,2.1005434 31.893209,2.0064694 31.879099,1.9876545 31.785029,1.8653582 31.662728,1.7712841 31.540432,1.6725061 31.404025,1.6725061 v -0.047037 q 0,0 0.07526,0.0047 0.07526,0 0.192852,-0.0047 0.131704,-0.0047 0.263407,-0.018815 0.131704,-0.018815 0.244593,-0.1034815 0.117592,-0.084667 0.183444,-0.2822222 0.01882,-0.051741 0.02822,-0.1222963 0.0094,-0.070556 0.0047,-0.14581481 -0.0047,-0.1317037 -0.05174,-0.23518517 -0.04233,-0.10348148 -0.127,-0.17874073 -0.07996,-0.0752593 -0.192851,-0.11759258 -0.112889,-0.0423333 -0.254,-0.047037 -0.221074,-0.009407 -0.385704,-0.004704 -0.16463,0.004704 -0.16463,0 0,-0.004704 -0.01411,-0.0376296 -0.0094,-0.0376296 -0.02352,-0.0705556 z m 0.05645,0 v 2.822222 h -0.301037 v -2.822222 z m -0.286926,2.521185 0.05644,0.301037 h -0.399814 v -0.047037 q 0,0 0.03292,0 0.03293,0 0.03293,0 0.112889,0 0.188149,-0.075259 0.07526,-0.075259 0.07996,-0.1787408 z m 0,-2.22485168 h -0.0094 q -0.0047,-0.10818518 -0.07996,-0.17874073 -0.07526,-0.0705556 -0.188149,-0.0705556 0,0 -0.03293,0 -0.03292,0 -0.03292,0 v -0.047037 h 0.399814 z m 0.272815,2.22485168 h 0.01411 q 0.0047,0.1034815 0.07996,0.1787408 0.07526,0.075259 0.188148,0.075259 0,0 0.02822,0 0.03293,0 0.03293,0 l 0.0047,0.047037 h -0.404519 z m 4.198059,-2.521185 q 0.465667,0 0.804334,0.16933332 0.338666,0.16933333 0.522111,0.48918516 0.183444,0.31514812 0.183444,0.75259252 0,0.4374444 -0.183444,0.7525926 Q 36.556933,2.7026175 36.218267,2.8766545 35.8796,3.0459878 35.413933,3.0459878 H 34.41204 l -0.0094,-0.1411111 q 0.329259,0 0.550333,0 0.225778,0 0.343371,0 0.117592,0 0.117592,0 0.54563,0 0.856074,-0.3386666 0.315149,-0.3433704 0.315149,-0.9313333 0,-0.5879629 -0.315149,-0.92662955 -0.310444,-0.34337035 -0.856074,-0.34337035 0,0 -0.122296,0 -0.122296,0 -0.357481,0 -0.235186,0 -0.578556,0 V 0.2237658 Z m -0.936037,0 v 2.822222 h -0.30574 v -2.822222 z m -0.296333,2.5164813 v 0.3057407 h -0.338667 v -0.047037 q 0,0 0.02822,0 0.03293,0 0.03293,0 0.112888,0 0.188148,-0.075259 0.07526,-0.079963 0.07996,-0.1834445 z m 0,-2.21074058 h -0.0094 q -0.0047,-0.11288888 -0.08467,-0.18344443 -0.07526,-0.0752593 -0.188148,-0.0752593 0,0 -0.02822,0 -0.02822,0 -0.02822,0 v -0.047037 h 0.338667 z"
       id="text2"
       aria-label="James Howard" />
  </g>
</svg>
