<?xml version="1.0" encoding="UTF-8" standalone="no"?>
<svg xmlns="http://www.w3.org/2000/svg" xmlns:xlink="http://www.w3.org/1999/xlink" viewBox="0 0 792 792" version="1.1" id="tartan-svg" preserveAspectRatio="xMidYMid meet">
  <defs>
    <!-- Tartan color palette -->
    <style>
      .W  { fill: #F2F2F2; }  /* White */
      .LB { fill: #496DA3; }  /* Light Blue */
      .MB { fill: #3F5F8D; }  /* Medium Blue */
      .DB { fill: #324B70; }  /* Dark Blue */
      .Y  { fill: #D4C47F; }  /* Gold */
      .DY { fill: #947F31; }  /* Dark Gold */
      .LY { fill: #E1D8A5; }  /* Light Yellow */
      #threadcounts rect { shape-rendering:crispEdges; }
      #weave rect { shape-rendering:crispEdges; }
    </style>
    <!-- Diagonal weave grain pattern for texture -->
    <pattern id="weaveGrain" patternUnits="userSpaceOnUse" width="8" height="8" patternTransform="scale(0.5)">
      <polygon points="0,4 0,8 8,0 4,0" fill="white"/>
      <polygon points="4,8 8,8 8,4" fill="white"/>
    </pattern>
    <!-- Apply weave grain as a mask over vertical stripes -->
    <mask id="weave">
      <rect width="100%" height="100%" fill="url(#weaveGrain)"/>
    </mask>
    <!-- Full tartan pattern using class-based sett and mask -->
    <g id="threadcounts">
      <rect class="W" y="0" height="8" width="100%"/>
      <rect class="LB" y="8" height="20" width="100%"/>
      <rect class="MB" y="28" height="28" width="100%"/>
      <rect class="DB" y="56" height="36" width="100%"/>
      <rect class="DY" y="92" height="4" width="100%"/>
      <rect class="Y" y="96" height="8" width="100%"/>
      <rect class="DY" y="104" height="4" width="100%"/>
      <rect class="DB" y="108" height="36" width="100%"/>
      <rect class="DY" y="144" height="4" width="100%"/>
      <rect class="Y" y="148" height="8" width="100%"/>
      <rect class="DY" y="156" height="4" width="100%"/>
      <rect class="DB" y="160" height="36" width="100%"/>
      <rect class="MB" y="196" height="28" width="100%"/>
      <rect class="LB" y="224" height="20" width="100%"/>
    </g>
    <pattern id="settHorizontal" patternUnits="userSpaceOnUse" patternContentUnits="userSpaceOnUse" width="244" height="244">
      <use href="#threadcounts" x="0" y="0"/>
    </pattern>
    <pattern id="settVertical" patternUnits="userSpaceOnUse" patternContentUnits="userSpaceOnUse" width="244" height="244">
      <use href="#threadcounts" x="0" y="0" transform="rotate(90 122 122)" mask="url(#weave)"/>
    </pattern>
    <pattern id="fullSett" patternUnits="userSpaceOnUse" patternContentUnits="userSpaceOnUse" width="244" height="244">
      <rect fill="url(#settHorizontal)" width="100%" height="100%"/>
      <rect fill="url(#settVertical)" width="100%" height="100%"/>
    </pattern>
  </defs>
  <!-- Responsive rendering of pattern -->
  <rect fill="url(#fullSett)" width="100%" height="100%"/>
</svg>
