<?xml version="1.0" encoding="UTF-8" standalone="no"?>
<!-- Created using Krita: https://krita.org -->

<svg
   width="1154.1917"
   height="1568.1569"
   viewBox="0 0 865.64374 1176.1177"
   version="1.1"
   id="svg270"
   sodipodi:docname="jhoward-armoji.svg"
   inkscape:version="1.3.2 (091e20e, 2023-11-25)"
   xml:space="preserve"
   inkscape:export-filename="../By me/elmer armoji.png"
   inkscape:export-xdpi="1920"
   inkscape:export-ydpi="1920"
   xmlns:inkscape="http://www.inkscape.org/namespaces/inkscape"
   xmlns:sodipodi="http://sodipodi.sourceforge.net/DTD/sodipodi-0.dtd"
   xmlns="http://www.w3.org/2000/svg"
   xmlns:svg="http://www.w3.org/2000/svg"><sodipodi:namedview
     id="namedview1"
     pagecolor="#f3f3f3"
     bordercolor="#000000"
     borderopacity="0.25"
     inkscape:showpageshadow="2"
     inkscape:pageopacity="0.0"
     inkscape:pagecheckerboard="0"
     inkscape:deskcolor="#d1d1d1"
     inkscape:document-units="px"
     showgrid="false"
     inkscape:zoom="0.5"
     inkscape:cx="336"
     inkscape:cy="617"
     inkscape:window-width="1920"
     inkscape:window-height="1052"
     inkscape:window-x="1710"
     inkscape:window-y="28"
     inkscape:window-maximized="0"
     inkscape:current-layer="g2120" /><defs
     id="defs228" /><g
     id="g2120"
     transform="matrix(0.75000001,0,0,0.75000001,146.02139,605.1689)"
     inkscape:export-xdpi="83.537254"
     inkscape:export-ydpi="83.537254"><g
       inkscape:label="Layer 1"
       id="layer1-8"
       transform="matrix(3.7795275,0,0,3.7795275,-192.18309,-439.93787)"
       style="stroke:#000000;stroke-width:1.3229167;stroke-dasharray:none;stroke-opacity:1"><g
         id="g977"
         transform="matrix(0.26491656,0,0,0.26491656,-60.598106,52.574002)"
         style="display:inline;fill:#dd2e44;fill-opacity:1;stroke:#000000;stroke-width:4.99371086;stroke-dasharray:none;stroke-opacity:1"
         inkscape:label="shield"><path
           id="path1114-7"
           d="m 676.36234,-2.7690154 c 0,0 -221.92266,0.002 -416.1777,83.1972674 -29.56272,148.312978 -38.15109,289.533518 -17.97653,416.173818 3.56221,22.42078 8.05594,44.366 13.45703,65.83204 49.7187,197.60202 179.08218,353.00066 420.6972,433.53903 241.61483,-80.53837 370.97476,-235.93701 420.69346,-433.53903 5.401,-21.46604 9.8947,-43.41126 13.457,-65.83204 20.1746,-126.6403 11.5864,-267.86084 -18.0762,-416.173818 C 898.28147,-2.7668384 676.36224,-2.7690154 676.36234,-2.7690154 Z"
           style="display:inline;fill:#ffffff;fill-opacity:1;stroke:#000000;stroke-width:4.99371086;stroke-dasharray:none;stroke-opacity:1"
           inkscape:connector-curvature="0"
           inkscape:export-xdpi="64"
           inkscape:export-ydpi="64" /></g></g><g
       transform="translate(427.67966,917.02992)"
       id="g2099"><path
         inkscape:connector-curvature="0"
         class="cls-2"
         d="m 525.65041,-1276.1611 c -22.76353,77.5603 -81.70282,178.5754 -231.03682,103.3417 -81.7886,71.6559 -158.88769,65.1832 -238.83371,-47.5446 -85.96067,33.5842 -188.33407,-89.7144 -148.53327,-138.0614 -87.1182,6.7631 -240.3212,-114.9742 -104.4666,-226.741 135.8546,-111.7669 170.8378,-110.5895 170.8378,-110.5895 l 154.07935,383.7716 274.51648,6.3302 70.11853,-22.6168 a 42.147788,42.147788 0 0 1 53.31824,52.1098 z"
         id="path890"
         style="fill:#ffac33;fill-opacity:1;stroke-width:2.059" /><path
         inkscape:connector-curvature="0"
         style="fill:#99aab5;fill-opacity:1;stroke-width:1.79439"
         d="m -426.25859,-1153.905 c 17.4666,-19.9625 44.7753,-41.2421 83.3259,-64.8778 v -119.6909 l -19.0635,-230.026 c -0.1113,-1.3045 -0.084,-2.6216 0.056,-3.9118 3.9799,-32.3133 31.7642,-66.0136 76.2578,-92.4934 42.8123,-25.5 94.1209,-40.1207 140.7463,-40.1207 31.9347,0 60.6718,6.6303 85.4845,19.7239 42.0281,22.1768 73.90542,47.8581 94.70773,76.3296 18.86798,25.78 29.35437,54.7001 31.14875,85.9188 3.22452,55.696 -21.50392,110.4517 -41.38213,154.4428 -14.04645,31.0896 -28.53971,63.2199 -24.13988,78.8938 19.73825,70.4297 73.20378,146.4668 73.73672,147.224 4.31729,6.1117 4.71026,14.1829 0.95281,20.6606 -3.75744,6.4777 -10.93499,10.1777 -18.39245,9.4761 -24.83969,-2.4116 -48.92394,-3.5887 -71.60499,-3.5887 -116.29776,0 -180.89386,31.3461 -228.05216,54.2245 -28.7389,13.9621 -53.5516,26.0186 -80.3526,26.0186 -24.3929,0 -50.0167,-3.6731 -70.2879,-10.0378 -30.5045,-9.5318 -48.8414,-24.7841 -54.4758,-45.2526 -5.3562,-19.4583 1.8213,-40.6518 21.3353,-62.913 z"
         id="path878" /><path
         inkscape:connector-curvature="0"
         style="fill:#292f33;fill-opacity:1;stroke-width:1.79439"
         d="m -342.93269,-1570.0841 210.5282,113.2814 v 38.285 l -191.3785,133.9581 c 0,0 -114.8389,-105.9208 -114.8389,-153.0809 0,-47.1852 95.6892,-132.4436 95.6892,-132.4436 z"
         id="path880" /><path
         inkscape:connector-curvature="0"
         style="fill:#ccd6dd;fill-opacity:1;stroke-width:1.79439"
         d="m -405.14589,-1534.1982 c 24.4198,-27.7699 48.4754,-49.2739 49.4838,-50.171 6.0005,-5.3545 14.7194,-6.3791 21.8126,-2.566 l 115.3718,62.0732 c 0.029,0.029 0.084,0.056 0.1113,0.07 l 95.045,51.14 c 6.1961,3.3357 10.0648,9.8135 10.0648,16.8511 v 38.285 c 0,6.2516 -3.0559,12.1121 -8.1591,15.6721 l -191.4072,133.9869 c -3.3088,2.2986 -7.1488,3.4775 -10.9619,3.4775 -4.6815,0 -9.3362,-1.7388 -12.9806,-5.1033 -1.2058,-1.0927 -29.7455,-27.5043 -58.7643,-60.2231 -26.7202,-30.1368 -62.2437,-74.0149 -62.2437,-106.9311 0,-24.7177 17.2171,-56.3007 52.6275,-96.5613 z m 65.2134,-12.532 c -8.9719,8.5502 -22.9053,22.3724 -36.6988,38.0876 -17.3266,19.7239 -30.1403,37.779 -37.0648,51.8399 h 42.0837 l 57.3899,-76.0928 z m 89.4089,187.5403 -44.551,-59.326 h -26.8853 l 56.4927,69.7854 z m 86.4661,-60.5336 c -2.0743,0.7572 -4.2904,1.2058 -6.6177,1.2058 h -76.5144 l 28.066,37.3447 z m -58.5975,-63.9089 -22.2055,26.8315 h 72.0841 z m -57.476,-30.9119 -43.5407,57.7416 h 29.1569 l 37.4866,-45.3209 z m 128.6055,76.9056 v -7.7374 l -2.2143,-1.1771 c 1.4014,2.6611 2.2143,5.69 2.2143,8.9145 0,4.6816 -1.7101,8.9719 -4.5147,12.3364 l 4.5147,-3.1958 z m -215.5453,81.3072 c 17.0736,19.2861 34.3446,36.6127 45.1378,47.1278 l 25.0353,-17.524 -74.2948,-91.79 h -41.8594 c 6.589,12.785 19.7382,32.5789 45.9811,62.1862 z"
         id="path882" /><path
         inkscape:connector-curvature="0"
         style="fill:#66757f;fill-opacity:1;stroke-width:1.79439"
         d="m -170.67339,-1437.6387 c 0,21.1397 17.1292,38.242 38.2689,38.242 21.1396,0 38.2976,-17.1023 38.2976,-38.242 0,-21.154 -17.158,-38.2976 -38.2976,-38.2976 -21.1397,0 -38.2689,17.1436 -38.2689,38.2976 z"
         id="path884" /><path
         inkscape:connector-curvature="0"
         style="opacity:1;fill:#66757f;fill-opacity:1;stroke-width:1.79439;enable-background:new"
         d="m -342.93269,-1218.7828 v 53.383 l -41.549,-25.6256 c 12.0547,-8.9163 25.8499,-18.1126 41.549,-27.7574 z"
         id="path886" /><g
         id="g2048"
         transform="translate(990.5105,-122.51423)"><path
           style="fill:#50a5e6;fill-opacity:1;stroke-width:2.059"
           id="path908"
           d="m -690.77857,-1103.7221 c -86.3844,71.38 -146.53366,43.7854 -209.95357,-52.2684 -71.69553,41.8202 -174.97036,-51.0909 -128.16496,-123.9242 -101.4573,15.1271 -185.3194,-78.4638 -101.9496,-161.0945 83.3698,-82.6307 44.7928,-139.3535 44.7928,-139.3535 l 116.75708,35.5032 c -7.37096,80.3845 12.63978,197.7617 159.96856,279.969 156.70135,87.4283 270.27995,60.1603 331.67786,29.299 a 42.044837,42.044837 0 0 1 15.61224,51.5716 c -77.02492,181.6329 -228.74041,80.2978 -228.74041,80.2978 z"
           class="cls-5"
           inkscape:connector-curvature="0" /><path
           style="fill:#1c6399;fill-opacity:1;stroke-width:2.059"
           id="path910"
           d="m -477.6504,-1235.5915 c -61.39791,30.8613 -174.97651,58.1293 -331.67786,-29.299 -147.32878,-82.2073 -167.33952,-199.5845 -159.96856,-279.969 l 26.84353,8.1516 c 0,0 129.88986,300.3582 440.70964,294.1724 a 41.674218,41.674218 0 0 1 24.09325,6.944 z"
           class="cls-6"
           inkscape:connector-curvature="0" /></g><ellipse
         style="fill:#ffcc4d;fill-opacity:1;stroke-width:1.62251"
         id="ellipse912"
         ry="50.297878"
         rx="42.266441"
         cy="-1673.6239"
         cx="-9.3972292"
         class="cls-2"
         transform="scale(-1,1)" /><ellipse
         style="fill:#50a5e6;fill-opacity:1;stroke-width:1.62251"
         id="ellipse914"
         ry="50.297878"
         rx="42.266441"
         cy="-1673.6239"
         cx="57.417713"
         class="cls-6"
         transform="scale(-1,1)" /><ellipse
         style="fill:#ffcc4d;fill-opacity:1;stroke-width:1.62251"
         id="ellipse916"
         ry="50.297878"
         rx="42.266441"
         cy="-1673.6239"
         cx="124.23302"
         class="cls-2"
         transform="scale(-1,1)" /><ellipse
         style="fill:#50a5e6;fill-opacity:1;stroke-width:1.62251"
         id="ellipse918"
         ry="50.297878"
         rx="42.266441"
         cy="-1673.6239"
         cx="191.04796"
         class="cls-6"
         transform="scale(-1,1)" /><ellipse
         style="fill:#ffcc4d;fill-opacity:1;stroke-width:1.62251"
         id="ellipse920"
         ry="50.297878"
         rx="42.266441"
         cy="-1673.6239"
         cx="257.86292"
         class="cls-2"
         transform="scale(-1,1)" /><ellipse
         style="fill:#50a5e6;fill-opacity:1;stroke-width:1.62251"
         id="ellipse922"
         ry="50.297878"
         rx="42.266441"
         cy="-1673.6239"
         cx="324.67786"
         class="cls-6"
         transform="scale(-1,1)" /></g><g
       id="g4"
       transform="matrix(33.055369,0,0,33.055369,-190.25297,-168.14965)"><path
         style="font-variation-settings:normal;display:inline;opacity:1;vector-effect:none;fill:#bbddf5;fill-opacity:1;stroke:none;stroke-width:0.75;stroke-linecap:butt;stroke-linejoin:miter;stroke-miterlimit:4;stroke-dasharray:none;stroke-dashoffset:0;stroke-opacity:1;-inkscape-stroke:none;stop-color:#000000;stop-opacity:1"
         d="M 4.3571227,19.074215 13.5,14.343938 l 2e-6,-11.1056522 z"
         id="path2" /><path
         style="font-variation-settings:normal;display:inline;opacity:1;vector-effect:none;fill:#50a5e6;fill-opacity:1;stroke:none;stroke-width:0.75;stroke-linecap:butt;stroke-linejoin:miter;stroke-miterlimit:4;stroke-dasharray:none;stroke-dashoffset:0;stroke-opacity:1;-inkscape-stroke:none;stop-color:#000000;stop-opacity:1"
         d="M 22.642879,19.074215 13.5,14.343938 4.3571227,19.074215 Z"
         id="path3" /><path
         style="font-variation-settings:normal;display:inline;opacity:1;vector-effect:none;fill:#1c6399;fill-opacity:1;stroke:none;stroke-width:0.75;stroke-linecap:butt;stroke-linejoin:miter;stroke-miterlimit:4;stroke-dasharray:none;stroke-dashoffset:0;stroke-opacity:1;-inkscape-stroke:none;stop-color:#000000;stop-opacity:1"
         d="M 22.642879,19.074215 13.5,14.343938 l 2e-6,-11.1056522 z"
         id="path4" /><g
         id="g6614"
         transform="matrix(-0.34612242,0.34612242,0.34659678,0.34659678,5.9444884,2.330776)"
         inkscape:export-xdpi="360.90225"
         inkscape:export-ydpi="360.90225"
         style="display:inline"><path
           id="path5230"
           style="font-variation-settings:normal;opacity:1;vector-effect:none;fill:#ffcc4d;fill-opacity:1;stroke-width:0.987;stroke-linecap:butt;stroke-linejoin:miter;stroke-miterlimit:4;stroke-dasharray:none;stroke-dashoffset:0;stroke-opacity:1;-inkscape-stroke:none;stop-color:#000000;stop-opacity:1"
           d="m 3.5083746,12.205213 h 6.9830564 l -0.0021,7.83779 H 3.5062585 Z M 10.491431,34.457014 V 44.4904 L 6.9999025,47.998281 3.5083746,44.4904 v -3.059887 z" /><path
           id="path5232"
           style="font-variation-settings:normal;opacity:1;vector-effect:none;fill:#ffac33;fill-opacity:1;stroke-width:0.98984;stroke-linecap:butt;stroke-linejoin:miter;stroke-miterlimit:4;stroke-dasharray:none;stroke-dashoffset:0;stroke-opacity:1;-inkscape-stroke:none;stop-color:#000000;stop-opacity:1"
           d="m 6.9999025,12.205213 h 3.4915285 l -0.0021,7.83779 H 7.0020186 Z M 10.491431,34.457014 V 44.4904 L 6.9999025,47.998281 V 37.943764 Z" /><path
           style="font-variation-settings:normal;opacity:1;vector-effect:none;fill:#50a5e6;fill-opacity:1;stroke-width:0.692709;stroke-linecap:butt;stroke-linejoin:miter;stroke-miterlimit:4;stroke-dasharray:none;stroke-dashoffset:0;stroke-opacity:1;-inkscape-stroke:none;stop-color:#000000;stop-opacity:1"
           inkscape:connector-curvature="0"
           id="path5234"
           d="m 6.5750494,2.9177191 c -0.3964546,0 -0.7566156,0.1179135 -1.046279,0.3067155 L 4.8635908,11.25168 4.8628929,12.236399 c 0,0.791704 0.7656891,1.433913 1.7121565,1.433913 l 0.8557294,0.0014 c 0.9450717,0 1.7107608,-0.642208 1.7107608,-1.433913 V 11.197636 L 8.4819439,3.227944 C 8.1908838,3.0363345 7.8293281,2.918421 7.4307788,2.9177191 Z" /><path
           style="font-variation-settings:normal;opacity:1;vector-effect:none;fill:#1c6399;fill-opacity:1;stroke-width:0.692709;stroke-linecap:butt;stroke-linejoin:miter;stroke-miterlimit:4;stroke-dasharray:none;stroke-dashoffset:0;stroke-opacity:1;-inkscape-stroke:none;stop-color:#000000;stop-opacity:1"
           inkscape:connector-curvature="0"
           id="path5236"
           d="m 6.5750494,2.9177191 c -0.3964546,0 -0.7566156,0.1179135 -1.046279,0.3067155 L 5.3584622,5.2794994 8.4442525,3.2110992 C 8.1594753,3.0328252 7.8132749,2.9177191 7.4300809,2.918421 Z M 5.0422755,9.105373 8.761836,6.6116418 8.6264267,4.9791006 5.1923423,7.2812223 Z m -0.1786847,2.146307 -6.979e-4,0.984719 c 0,0.134758 0.029317,0.262498 0.07119,0.386026 L 9.0312578,9.8753203 8.8958485,8.2427792 4.8894163,10.92812 Z m 1.0560513,2.308438 c 0.2024156,0.07019 0.4236769,0.110194 0.6561052,0.109492 l 0.8550315,0.0021 c 0.354576,0 0.6833275,-0.09054 0.9569376,-0.244951 0.4550854,-0.258287 0.754521,-0.694146 0.7538232,-1.188962 v -0.836623 l -3.2218975,2.15894 c -6.979e-4,7.02e-4 -6.979e-4,7.02e-4 0,0 z" /><circle
           style="font-variation-settings:normal;opacity:1;vector-effect:none;fill:#1c6399;fill-opacity:1;stroke-width:0.692709;stroke-linecap:butt;stroke-linejoin:miter;stroke-miterlimit:4;stroke-dasharray:none;stroke-dashoffset:0;stroke-opacity:1;-inkscape-stroke:none;stop-color:#000000;stop-opacity:1"
           transform="rotate(-135)"
           id="circle5238"
           r="2.7295001"
           cy="3.0231569"
           cx="-6.8834214" /><path
           style="font-variation-settings:normal;opacity:1;vector-effect:none;fill:#50a5e6;fill-opacity:1;stroke-width:0.692709;stroke-linecap:butt;stroke-linejoin:miter;stroke-miterlimit:4;stroke-dasharray:none;stroke-dashoffset:0;stroke-opacity:1;-inkscape-stroke:none;stop-color:#000000;stop-opacity:1"
           inkscape:connector-curvature="0"
           id="path5240"
           d="m 1.7281212,12.941774 c 0,-0.567108 0.45718,-1.02683 1.0204535,-1.026128 H 11.25282 c 0.563973,0 1.020455,0.45902 1.020455,1.026128 0,0.567109 -0.456482,1.026129 -1.020455,1.026129 H 2.7485747 c -0.5625756,0.0014 -1.0204535,-0.45902 -1.0204535,-1.026129 z" /><circle
           style="font-variation-settings:normal;opacity:1;vector-effect:none;fill:#50a5e6;fill-opacity:1;stroke-width:0.692709;stroke-linecap:butt;stroke-linejoin:miter;stroke-miterlimit:4;stroke-dasharray:none;stroke-dashoffset:0;stroke-opacity:1;-inkscape-stroke:none;stop-color:#000000;stop-opacity:1"
           transform="rotate(-135)"
           id="circle5242"
           r="1.737"
           cy="-0.47369009"
           cx="-17.829733" /><circle
           style="font-variation-settings:normal;opacity:1;vector-effect:none;fill:#50a5e6;fill-opacity:1;stroke-width:0.692709;stroke-linecap:butt;stroke-linejoin:miter;stroke-miterlimit:4;stroke-dasharray:none;stroke-dashoffset:0;stroke-opacity:1;-inkscape-stroke:none;stop-color:#000000;stop-opacity:1"
           transform="rotate(-135)"
           id="circle5244"
           r="1.737"
           cy="-7.9302397"
           cx="-10.373185" /><circle
           style="font-variation-settings:normal;opacity:1;vector-effect:none;fill:#bbddf5;fill-opacity:1;stroke-width:0.692709;stroke-linecap:butt;stroke-linejoin:miter;stroke-miterlimit:4;stroke-dasharray:none;stroke-dashoffset:0;stroke-opacity:1;-inkscape-stroke:none;stop-color:#000000;stop-opacity:1"
           transform="rotate(-135)"
           id="circle5246"
           r="0.98699999"
           cy="-0.47369009"
           cx="-17.829733" /><circle
           style="font-variation-settings:normal;opacity:1;vector-effect:none;fill:#bbddf5;fill-opacity:1;stroke-width:0.692709;stroke-linecap:butt;stroke-linejoin:miter;stroke-miterlimit:4;stroke-dasharray:none;stroke-dashoffset:0;stroke-opacity:1;-inkscape-stroke:none;stop-color:#000000;stop-opacity:1"
           transform="rotate(-135)"
           id="circle5248"
           r="0.98699999"
           cy="-7.9302397"
           cx="-10.373185" /><path
           style="font-variation-settings:normal;opacity:1;vector-effect:none;fill:#50a5e6;fill-opacity:1;stroke-width:0.692709;stroke-linecap:butt;stroke-linejoin:miter;stroke-miterlimit:4;stroke-dasharray:none;stroke-dashoffset:0;stroke-opacity:1;-inkscape-stroke:none;stop-color:#000000;stop-opacity:1"
           inkscape:connector-curvature="0"
           id="path5250"
           d="m 3.8215,5.014194 c 0,-0.4183124 0.3371271,-0.7573138 0.7524274,-0.7566119 l 4.8516915,7.018e-4 c 0.4159992,0 0.7524281,0.3382995 0.7524281,0.756612 0,0.4183123 -0.3364289,0.7566119 -0.7524281,0.7566119 L 4.5739274,5.7708059 C 4.1586271,5.7715078 3.8215,5.4325063 3.8215,5.014194 Z" /></g></g></g></svg>
