<?xml version="1.0" encoding="UTF-8" standalone="no"?>
<svg xmlns="http://www.w3.org/2000/svg" xmlns:xlink="http://www.w3.org/1999/xlink" viewBox="0 0 2196 2196" version="1.1" id="tartan-svg" preserveAspectRatio="xMidYMid meet">
  <defs>
    <!-- Tartan color palette -->
    <style>
      .W  { fill: #F2F2F2; }  /* White */
      .LB { fill: #496DA3; }  /* Light Blue */
      .MB { fill: #3F5F8D; }  /* Medium Blue */
      .DB { fill: #324B70; }  /* Dark Blue */
      .Y  { fill: #D4C47F; }  /* Gold */
      .DY { fill: #947F31; }  /* Dark Gold */
      .LY { fill: #E1D8A5; }  /* Light Yellow */
    </style>
    <!-- Diagonal weave grain pattern for texture -->
    <pattern id="weaveGrain" patternUnits="userSpaceOnUse" width="8" height="8" patternTransform="scale(0.5)">
      <polygon points="0,4 0,8 8,0 4,0" fill="white"/>
      <polygon points="4,8 8,8 8,4" fill="white"/>
    </pattern>
    <!-- Apply weave grain as a mask over vertical stripes -->
    <mask id="weave">
      <rect width="100%" height="100%" fill="url(#weaveGrain)"/>
    </mask>
    <!-- Full tartan pattern using class-based sett and mask -->
    <pattern id="fullSett" patternUnits="userSpaceOnUse" width="244" height="244" patternTransform="scale(3)">
      <!-- Horizontal stripe layout -->
      <g id="settHorizontal">
        <rect class="W" y="0" height="8" width="100%"/>
        <rect class="LB" y="8" height="20" width="100%"/>
        <rect class="MB" y="28" height="28" width="100%"/>
        <rect class="DB" y="56" height="36" width="100%"/>
        <rect class="DY" y="92" height="4" width="100%"/>
        <rect class="Y" y="96" height="8" width="100%"/>
        <rect class="DY" y="104" height="4" width="100%"/>
        <rect class="DB" y="108" height="36" width="100%"/>
        <rect class="DY" y="144" height="4" width="100%"/>
        <rect class="Y" y="148" height="8" width="100%"/>
        <rect class="DY" y="156" height="4" width="100%"/>
        <rect class="DB" y="160" height="36" width="100%"/>
        <rect class="MB" y="196" height="28" width="100%"/>
        <rect class="LB" y="224" height="20" width="100%"/>
      </g>
      <!-- Vertical stripe layout with diagonal weave grain mask -->
      <g id="settVertical" mask="url(#weave)">
        <rect class="W" x="0" width="8" height="100%"/>
        <rect class="LB" x="8" width="20" height="100%"/>
        <rect class="MB" x="28" width="28" height="100%"/>
        <rect class="DB" x="56" width="36" height="100%"/>
        <rect class="DY" x="92" width="4" height="100%"/>
        <rect class="Y" x="96" width="8" height="100%"/>
        <rect class="DY" x="104" width="4" height="100%"/>
        <rect class="DB" x="108" width="36" height="100%"/>
        <rect class="DY" x="144" width="4" height="100%"/>
        <rect class="Y" x="148" width="8" height="100%"/>
        <rect class="DY" x="156" width="4" height="100%"/>
        <rect class="DB" x="160" width="36" height="100%"/>
        <rect class="MB" x="196" width="28" height="100%"/>
        <rect class="LB" x="224" width="20" height="100%"/>
      </g>
    </pattern>
  </defs>
  <!-- Responsive rendering of pattern -->
  <rect fill="url(#fullSett)" width="100%" height="100%"/>
</svg>
