<?xml version="1.0" encoding="UTF-8" standalone="no"?>
<!-- Created with Inkscape (http://www.inkscape.org/) -->

<svg
   width="77.469971mm"
   height="77.470001mm"
   viewBox="0 0 77.469971 77.470002"
   version="1.1"
   id="svg1"
   inkscape:version="1.3.2 (091e20e, 2023-11-25)"
   sodipodi:docname="test(2).svg"
   xmlns:inkscape="http://www.inkscape.org/namespaces/inkscape"
   xmlns:sodipodi="http://sodipodi.sourceforge.net/DTD/sodipodi-0.dtd"
   xmlns="http://www.w3.org/2000/svg"
   xmlns:svg="http://www.w3.org/2000/svg">
  <sodipodi:namedview
     id="namedview1"
     pagecolor="#ffffff"
     bordercolor="#000000"
     borderopacity="0.25"
     inkscape:showpageshadow="2"
     inkscape:pageopacity="0.0"
     inkscape:pagecheckerboard="0"
     inkscape:deskcolor="#d1d1d1"
     inkscape:document-units="mm"
     inkscape:zoom="3.5764727"
     inkscape:cx="121.90782"
     inkscape:cy="92.968696"
     inkscape:window-width="1472"
     inkscape:window-height="920"
     inkscape:window-x="0"
     inkscape:window-y="36"
     inkscape:window-maximized="0"
     inkscape:current-layer="g158"
     showguides="false" />
  <defs
     id="defs1" />
  <g
     id="g158"
     inkscape:label="Cockade of James Howard"
     transform="translate(26.035493,0.63499833)">
    <g
       id="g157"
       style="display:inline;stroke-width:0.776833;stroke-dasharray:none"
       inkscape:label="Outer Ring"
       transform="matrix(1.2751734,0,0,1.2751738,6.9895603,0)">
      <path
         id="path136"
         style="display:inline;fill:#ffffff;fill-opacity:1;stroke:#808080;stroke-width:0.49797141;stroke-linecap:round;stroke-linejoin:round;stroke-miterlimit:0;stroke-dasharray:none;stroke-opacity:1;paint-order:markers stroke fill"
         inkscape:label="Color"
         d="M 4.4777629,0 C 2.4990127,9.6011088e-5 0.8230874,1.2850683 0.23099365,3.0649292 -0.18647051,2.4987026 -0.72513184,2.0434598 -1.3379028,1.7311605 h -5.168e-4 C -2.1043117,1.340919 -2.9814113,1.1695906 -3.8684977,1.2696899 -4.1641932,1.3030564 -4.4612345,1.3668848 -4.7552653,1.462443 -6.6369902,2.0739534 -7.8337725,3.8135128 -7.8470662,5.6890584 -9.3723827,4.5972121 -11.483632,4.542869 -13.084473,5.7061117 c -1.600644,1.1630546 -2.200912,3.1875615 -1.634008,4.9754073 -0.111921,-0.0355 -0.223937,-0.06976 -0.337448,-0.09612 -0.991646,-0.23031 -2.034002,-0.113641 -2.94659,0.321428 -0.260739,0.124305 -0.510791,0.274468 -0.746207,0.450102 -0.353125,0.26345 -0.673117,0.583911 -0.945679,0.959114 -1.162825,1.600655 -1.108484,3.711753 -0.01705,5.23689 -0.556893,0.004 -1.102299,0.109544 -1.609204,0.309542 -0.266759,0.105248 -0.522867,0.235691 -0.764812,0.38964 -0.557801,0.354928 -1.035815,0.837563 -1.395263,1.417484 -0.03026,0.04882 -0.06349,0.09498 -0.09198,0.145211 -0.146907,0.258944 -0.269787,0.536252 -0.365353,0.83044 -0.611352,1.881861 0.09283,3.872596 1.602486,4.985743 -1.779977,0.592181 -3.065062,2.268373 -3.064929,4.247286 9.6e-5,1.978737 1.285086,3.654148 3.064929,4.246252 -0.56647,0.417581 -1.021415,0.956385 -1.333768,1.569413 -0.06504,0.127649 -0.124109,0.258328 -0.176734,0.391708 -0.368524,0.933761 -0.42649,1.996386 -0.09198,3.025655 0.611511,1.881725 2.35107,3.078507 4.226616,3.091801 -0.324196,0.45291 -0.559397,0.955909 -0.695565,1.48363 -0.07165,0.277676 -0.116695,0.561784 -0.134359,0.84801 -0.05299,0.858679 0.139569,1.736614 0.596346,2.521293 0.07613,0.13078 0.15976,0.258901 0.250631,0.383956 1.163031,1.600613 3.187588,2.201371 4.975407,1.634526 -0.1684,0.530961 -0.236662,1.082247 -0.203089,1.626257 0.01766,0.286226 0.06271,0.570335 0.134359,0.848011 0.250772,0.971865 0.827782,1.865677 1.703255,2.501656 1.600836,1.162956 3.711714,1.108324 5.23689,0.01654 0.00902,1.289744 0.5758812,2.515272 1.5430583,3.353801 0.1098857,0.09527 0.2247892,0.185457 0.3446818,0.270267 0.3597617,0.25454 0.7633756,0.459742 1.2045776,0.603064 1.8818596,0.611353 3.8725951,-0.09283 4.98574219,-1.602486 0.26836967,0.806665 0.75678018,1.512779 1.39836421,2.042253 0.1105896,0.09126 0.2255559,0.177388 0.3446818,0.257865 0.7148232,0.483005 1.5765842,0.764874 2.50424,0.764811 1.9787377,-9.6e-5 3.6541487,-1.285085 4.2462524,-3.064929 0.1567267,0.212608 0.328414,0.411502 0.5172811,0.590662 0.1047827,0.0994 0.2137615,0.19321 0.3271118,0.281636 0.9068468,0.707575 2.0726998,1.056422 3.2556148,0.922941 0.295696,-0.03337 0.592737,-0.09719 0.886768,-0.192753 1.881898,-0.611566 3.078208,-2.351388 3.091284,-4.227132 1.525356,1.092204 3.636386,1.146837 5.237407,-0.01654 1.600651,-1.163061 2.200927,-3.187555 1.634008,-4.975407 0.112077,0.03556 0.224293,0.06972 0.337964,0.09612 0.99149,0.230274 2.033589,0.113472 2.946074,-0.321428 0.130369,-0.06215 0.258359,-0.131121 0.382922,-0.206189 0.498252,-0.30027 0.946064,-0.702756 1.309481,-1.203027 1.162825,-1.600654 1.108484,-3.711753 0.01705,-5.23689 0.556893,-0.004 1.101782,-0.109544 1.608687,-0.309541 0.266759,-0.105249 0.523384,-0.235692 0.765328,-0.389641 0.604743,-0.384796 1.120233,-0.915781 1.487248,-1.562695 v -5.17e-4 c 0.146811,-0.258835 0.269834,-0.53588 0.365352,-0.829923 0.611344,-1.881833 -0.09287,-3.872586 -1.602486,-4.985742 1.779977,-0.592181 3.065062,-2.268374 3.064929,-4.247286 -9.6e-5,-1.978738 -1.285085,-3.654149 -3.064929,-4.246253 0.684295,-0.504437 1.205129,-1.187371 1.510502,-1.96112 v -5.17e-4 c 0.36837,-0.933656 0.426438,-1.996031 0.09198,-3.025139 -0.611566,-1.881898 -2.351388,-3.078724 -4.227132,-3.0918 0.494782,-0.691223 0.779205,-1.501444 0.830441,-2.331641 0.01766,-0.286226 0.0082,-0.574539 -0.02946,-0.860929 -0.0941,-0.715841 -0.363322,-1.419132 -0.817521,-2.04432 v -5.17e-4 h -5.17e-4 c -1.163233,-1.600349 -3.18766,-2.200598 -4.975407,-1.633492 0.03556,-0.112085 0.07023,-0.224284 0.09663,-0.337964 0.0329,-0.141664 0.05869,-0.284685 0.07752,-0.4278806 0.03765,-0.2863903 0.04712,-0.5747032 0.02945,-0.8609294 -0.0088,-0.1429421 -0.02466,-0.2855142 -0.04702,-0.4268473 V 8.6284139 C 23.740941,8.0624153 23.543297,7.5138449 23.243026,7.0155924 23.09289,6.7664662 22.917242,6.5298195 22.716443,6.3102091 22.515731,6.0906951 22.290003,5.8877586 22.039998,5.7061117 20.439262,4.5432266 18.328263,4.5979818 16.803109,5.6895752 c -1.07e-4,-0.015222 -0.0013,-0.030272 -0.0016,-0.045475 C 16.792209,5.1029077 16.68811,4.5730612 16.493518,4.0798546 16.230442,3.4130725 15.809292,2.8120828 15.260001,2.335775 c -1.02e-4,-8.84e-5 -4.14e-4,8.85e-5 -5.16e-4,0 C 14.819991,1.9546973 14.298878,1.6534805 13.710791,1.462443 11.828931,0.85109076 9.8381959,1.5552696 8.7250488,3.0649292 8.6879729,2.9534863 8.6495304,2.8425912 8.604126,2.7352336 8.3209266,2.0656157 7.879494,1.4789674 7.3266846,1.0226766 H 7.3261678 C 6.7733451,0.56645392 6.1091911,0.24010063 5.3805501,0.09095052 H 5.3800334 C 5.0884995,0.03130899 4.7869319,-2.0749979e-5 4.4777629,0 Z m -0.00103,29.876729 h 0.00103 5.167e-4 l 5.168e-4,5.17e-4 h 5.168e-4 v 5.17e-4 5.17e-4 5.16e-4 l -5.168e-4,5.17e-4 v 5.17e-4 h -5.168e-4 -5.167e-4 -5.168e-4 l -5.168e-4,-5.17e-4 h -5.167e-4 v -0.0015 z" />
      <path
         id="path138"
         style="opacity:0.101;fill:#000000;fill-opacity:1;stroke:none;stroke-width:0.776833;stroke-linecap:round;stroke-linejoin:round;stroke-miterlimit:0;stroke-dasharray:none;stroke-opacity:1"
         inkscape:label="Folds"
         d="M 4.4778616,8.2359647e-5 4.4794826,29.877552 16.585928,7.1053325 C 17.350393,4.7530858 16.063027,2.2263748 13.710678,1.4622248 L 4.4798879,29.876336 8.9558768,4.4780961 C 8.9560428,2.0047436 6.9512142,-8.3640187e-5 4.4778616,8.2359647e-5 Z M -3.4265442,1.2421739 c -0.4405362,0.00557 -0.8877693,0.076713 -1.3288156,0.2200509 l 9.2336267,28.4133012 4.052e-4,8.1e-4 L 0.88774979,4.3374743 C 0.26687784,2.4261904 -1.5175542,1.2180193 -3.4265442,1.2421739 Z M 4.4782669,29.875526 -6.8290252,6.6968404 C -8.2826911,4.6957586 -11.083581,4.2524747 -13.084468,5.7064092 Z M 22.039786,5.7064092 4.4794826,29.877957 l -4.052e-4,8.11e-4 v 4.05e-4 L 23.030623,11.961445 C 24.484557,9.9605581 24.040868,7.160075 22.039786,5.7064092 Z M 4.4790774,29.879173 27.658986,18.571479 c 2.001082,-1.453665 2.444771,-4.254148 0.990837,-6.255035 z M -15.91433,10.472556 c -1.436783,-0.04913 -2.871633,0.593211 -3.780175,1.843888 L 4.4778616,29.876336 -13.439062,11.325607 c -0.750332,-0.545225 -1.613199,-0.823573 -2.475268,-0.853051 z M 4.4778616,29.876336 -18.295175,17.7703 c -2.352247,-0.764466 -4.87896,0.5229 -5.64311,2.875249 l 28.4153361,9.231192 h 8.105e-4 z m -8.105e-4,4.05e-4 -25.5400861,3.591327 c -2.352349,0.76415 -3.639716,3.290861 -2.87525,5.643108 z m 0,0 -25.3994641,-4.476797 c -2.473352,-1.66e-4 -4.478181,2.005066 -4.478015,4.478418 z M 32.893603,20.645549 4.4782669,29.879983 30.018353,26.288252 c 2.352349,-0.76415 3.639715,-3.290456 2.87525,-5.642703 z M 4.4782669,29.879983 29.877731,34.356781 v -4.05e-4 c 2.473352,1.66e-4 4.478586,-2.004661 4.47842,-4.478014 z m 0,0 H 4.4778616 4.4774564 4.4766459 L 22.39438,48.431118 c 2.000886,1.453933 4.801777,1.010245 6.255443,-0.990837 L 4.4774564,29.880389 27.250493,41.986425 c 2.352247,0.764466 4.87896,-0.5229 5.64311,-2.875249 z m -0.00162,0 11.3076971,23.179496 c 1.453666,2.001082 4.254556,2.44477 6.255443,0.990837 z m 0,0 v -4.05e-4 l -4.053e-4,-4.05e-4 3.5913276,25.539672 c 0.7641501,2.35235 3.2908628,3.639716 5.6431098,2.87525 z m -4.053e-4,-8.1e-4 -4.47679933161,25.399051 C -7.2473144e-4,57.751576 2.0045091,59.756809 4.4778616,59.756643 Z m 0,0 -12.1068508,22.772219 c -0.7644658,2.352247 0.5229011,4.878553 2.8752504,5.642703 z m -4.052e-4,-0.0016 -23.1795034,11.307289 c -2.001082,1.453665 -2.444771,4.254553 -0.990837,6.25544 l 24.1695299,-17.561919 8.105e-4,-4.05e-4 z m -8.105e-4,8.1e-4 -18.5499239,17.916513 c -1.453935,2.000887 -1.010651,4.801775 0.990431,6.255441 z" />
    </g>
    <g
       id="g58"
       style="display:inline;stroke-width:1.16525;stroke-dasharray:none"
       inkscape:label="Middle Ring"
       transform="matrix(0.85011584,0,0,0.85011584,8.8928703,12.700001)">
      <path
         id="path58"
         style="display:inline;fill:#1353b4;fill-opacity:1;stroke:#162e52;stroke-width:0.74695703;stroke-linecap:round;stroke-linejoin:round;stroke-miterlimit:0;stroke-dasharray:none;stroke-opacity:1;paint-order:markers stroke fill"
         inkscape:label="Color"
         d="M 4.4777629,0 C 2.4990127,9.6011088e-5 0.8230874,1.2850683 0.23099365,3.0649292 -0.18647051,2.4987026 -0.72513184,2.0434598 -1.3379028,1.7311605 h -5.168e-4 C -2.1043117,1.340919 -2.9814113,1.1695906 -3.8684977,1.2696899 -4.1641932,1.3030564 -4.4612345,1.3668848 -4.7552653,1.462443 -6.6369902,2.0739534 -7.8337725,3.8135128 -7.8470662,5.6890584 -9.3723827,4.5972121 -11.483632,4.542869 -13.084473,5.7061117 c -1.600644,1.1630546 -2.200912,3.1875615 -1.634008,4.9754073 -0.111921,-0.0355 -0.223937,-0.06976 -0.337448,-0.09612 -0.991646,-0.23031 -2.034002,-0.113641 -2.94659,0.321428 -0.260739,0.124305 -0.510791,0.274468 -0.746207,0.450102 -0.353125,0.26345 -0.673117,0.583911 -0.945679,0.959114 -1.162825,1.600655 -1.108484,3.711753 -0.01705,5.23689 -0.556893,0.004 -1.102299,0.109544 -1.609204,0.309542 -0.266759,0.105248 -0.522867,0.235691 -0.764812,0.38964 -0.557801,0.354928 -1.035815,0.837563 -1.395263,1.417484 -0.03026,0.04882 -0.06349,0.09498 -0.09198,0.145211 -0.146907,0.258944 -0.269787,0.536252 -0.365353,0.83044 -0.611352,1.881861 0.09283,3.872596 1.602486,4.985743 -1.779977,0.592181 -3.065062,2.268373 -3.064929,4.247286 9.6e-5,1.978737 1.285086,3.654148 3.064929,4.246252 -0.56647,0.417581 -1.021415,0.956385 -1.333768,1.569413 -0.06504,0.127649 -0.124109,0.258328 -0.176734,0.391708 -0.368524,0.933761 -0.42649,1.996386 -0.09198,3.025655 0.611511,1.881725 2.35107,3.078507 4.226616,3.091801 -0.324196,0.45291 -0.559397,0.955909 -0.695565,1.48363 -0.07165,0.277676 -0.116695,0.561784 -0.134359,0.84801 -0.05299,0.858679 0.139569,1.736614 0.596346,2.521293 0.07613,0.13078 0.15976,0.258901 0.250631,0.383956 1.163031,1.600613 3.187588,2.201371 4.975407,1.634526 -0.1684,0.530961 -0.236662,1.082247 -0.203089,1.626257 0.01766,0.286226 0.06271,0.570335 0.134359,0.848011 0.250772,0.971865 0.827782,1.865677 1.703255,2.501656 1.600836,1.162956 3.711714,1.108324 5.23689,0.01654 0.00902,1.289744 0.5758812,2.515272 1.5430583,3.353801 0.1098857,0.09527 0.2247892,0.185457 0.3446818,0.270267 0.3597617,0.25454 0.7633756,0.459742 1.2045776,0.603064 1.8818596,0.611353 3.8725951,-0.09283 4.98574219,-1.602486 0.26836967,0.806665 0.75678018,1.512779 1.39836421,2.042253 0.1105896,0.09126 0.2255559,0.177388 0.3446818,0.257865 0.7148232,0.483005 1.5765842,0.764874 2.50424,0.764811 1.9787377,-9.6e-5 3.6541487,-1.285085 4.2462524,-3.064929 0.1567267,0.212608 0.328414,0.411502 0.5172811,0.590662 0.1047827,0.0994 0.2137615,0.19321 0.3271118,0.281636 0.9068468,0.707575 2.0726998,1.056422 3.2556148,0.922941 0.295696,-0.03337 0.592737,-0.09719 0.886768,-0.192753 1.881898,-0.611566 3.078208,-2.351388 3.091284,-4.227132 1.525356,1.092204 3.636386,1.146837 5.237407,-0.01654 1.600651,-1.163061 2.200927,-3.187555 1.634008,-4.975407 0.112077,0.03556 0.224293,0.06972 0.337964,0.09612 0.99149,0.230274 2.033589,0.113472 2.946074,-0.321428 0.130369,-0.06215 0.258359,-0.131121 0.382922,-0.206189 0.498252,-0.30027 0.946064,-0.702756 1.309481,-1.203027 1.162825,-1.600654 1.108484,-3.711753 0.01705,-5.23689 0.556893,-0.004 1.101782,-0.109544 1.608687,-0.309541 0.266759,-0.105249 0.523384,-0.235692 0.765328,-0.389641 0.604743,-0.384796 1.120233,-0.915781 1.487248,-1.562695 v -5.17e-4 c 0.146811,-0.258835 0.269834,-0.53588 0.365352,-0.829923 0.611344,-1.881833 -0.09287,-3.872586 -1.602486,-4.985742 1.779977,-0.592181 3.065062,-2.268374 3.064929,-4.247286 -9.6e-5,-1.978738 -1.285085,-3.654149 -3.064929,-4.246253 0.684295,-0.504437 1.205129,-1.187371 1.510502,-1.96112 v -5.17e-4 c 0.36837,-0.933656 0.426438,-1.996031 0.09198,-3.025139 -0.611566,-1.881898 -2.351388,-3.078724 -4.227132,-3.0918 0.494782,-0.691223 0.779205,-1.501444 0.830441,-2.331641 0.01766,-0.286226 0.0082,-0.574539 -0.02946,-0.860929 -0.0941,-0.715841 -0.363322,-1.419132 -0.817521,-2.04432 v -5.17e-4 h -5.17e-4 c -1.163233,-1.600349 -3.18766,-2.200598 -4.975407,-1.633492 0.03556,-0.112085 0.07023,-0.224284 0.09663,-0.337964 0.0329,-0.141664 0.05869,-0.284685 0.07752,-0.4278806 0.03765,-0.2863903 0.04712,-0.5747032 0.02945,-0.8609294 -0.0088,-0.1429421 -0.02466,-0.2855142 -0.04702,-0.4268473 V 8.6284139 C 23.740941,8.0624153 23.543297,7.5138449 23.243026,7.0155924 23.09289,6.7664662 22.917242,6.5298195 22.716443,6.3102091 22.515731,6.0906951 22.290003,5.8877586 22.039998,5.7061117 20.439262,4.5432266 18.328263,4.5979818 16.803109,5.6895752 c -1.07e-4,-0.015222 -0.0013,-0.030272 -0.0016,-0.045475 C 16.792209,5.1029077 16.68811,4.5730612 16.493518,4.0798546 16.230442,3.4130725 15.809292,2.8120828 15.260001,2.335775 c -1.02e-4,-8.84e-5 -4.14e-4,8.85e-5 -5.16e-4,0 C 14.819991,1.9546973 14.298878,1.6534805 13.710791,1.462443 11.828931,0.85109076 9.8381959,1.5552696 8.7250488,3.0649292 8.6879729,2.9534863 8.6495304,2.8425912 8.604126,2.7352336 8.3209266,2.0656157 7.879494,1.4789674 7.3266846,1.0226766 H 7.3261678 C 6.7733451,0.56645392 6.1091911,0.24010063 5.3805501,0.09095052 H 5.3800334 C 5.0884995,0.03130899 4.7869319,-2.0749979e-5 4.4777629,0 Z m -0.00103,29.876729 h 0.00103 5.167e-4 l 5.168e-4,5.17e-4 h 5.168e-4 v 5.17e-4 5.17e-4 5.16e-4 l -5.168e-4,5.17e-4 v 5.17e-4 h -5.168e-4 -5.167e-4 -5.168e-4 l -5.168e-4,-5.17e-4 h -5.167e-4 v -0.0015 z" />
      <path
         id="path5"
         style="display:inline;stroke-width:1.16525;stroke-dasharray:none;opacity:0.101;fill:#000000;fill-opacity:1;stroke:none;stroke-linecap:round;stroke-linejoin:round;stroke-miterlimit:0;stroke-opacity:1"
         inkscape:label="Folds"
         d="M 4.4779074 0.00012236316 L 4.4791232 29.877188 L 8.9561239 4.4783388 C 8.9562899 2.0049863 6.95126 -4.3636669e-05 4.4779074 0.00012236316 z M 4.4791232 29.877188 L 0.88779661 4.3373118 C 0.12364652 1.9849625 -2.402862 0.69759634 -4.7551087 1.4620622 L 4.4785153 29.875972 L -13.439214 11.325445 C -15.4401 9.8715111 -18.240584 10.3152 -19.694249 12.316281 L 4.4772996 29.875972 L -18.295528 17.770138 C -20.647775 17.005672 -23.174284 18.293038 -23.938434 20.645387 L 4.4766917 29.87658 L 4.4779074 29.87658 L 4.4785153 29.877188 L 4.4791232 29.877188 z M 4.4766917 29.87658 L -21.063184 33.467906 L -21.063184 33.468514 C -23.415534 34.232664 -24.7029 36.759173 -23.938434 39.11142 L 4.4766917 29.87658 z M 4.4766917 29.87658 L -20.922157 25.400187 C -23.39551 25.400021 -25.40054 27.405051 -25.400374 29.878403 L 4.4766917 29.87658 z M 4.4785153 29.875972 L -6.8291789 6.6970833 C -8.2828447 4.6960015 -11.083328 4.2523123 -13.084215 5.7062467 L 4.4785153 29.875972 z M 13.710316 1.4620622 L 4.4791232 29.878403 L 16.586173 7.1055754 L 16.585565 7.1055754 C 17.350031 4.7533287 16.062665 2.2262123 13.710316 1.4620622 z M 4.4791232 29.878403 L 4.4791232 29.879011 L 4.4785153 29.879619 L 30.018391 26.288293 C 32.370741 25.524142 33.658107 22.997634 32.893641 20.645387 L 4.4797311 29.879011 L 23.030258 11.961282 C 24.484193 9.9603957 24.040503 7.1599126 22.039422 5.7062467 L 4.4791232 29.878403 z M 4.4797311 29.879011 L 27.659228 18.571317 C 29.660309 17.117651 30.103391 14.317168 28.649456 12.316281 L 4.4797311 29.879011 z M 4.4785153 29.879619 L 29.877972 34.35662 C 32.351325 34.356786 34.356355 32.351756 34.356189 29.878403 L 4.4785153 29.879619 z M 4.4785153 29.879619 L 4.4779074 29.879619 L 4.4772996 29.879619 L 4.4772996 29.880227 L 15.784386 53.059724 C 17.238052 55.060805 20.038535 55.504495 22.039422 54.05056 L 4.4785153 29.881443 L 4.4779074 29.880227 L 27.250735 41.986669 C 29.602982 42.751135 32.129491 41.463769 32.893641 39.11142 L 4.4785153 29.879619 z M 4.4785153 29.881443 L 22.394421 48.430754 C 24.395307 49.884688 27.19579 49.441607 28.649456 47.440525 L 4.4785153 29.881443 z M 4.4754759 29.878403 L -7.6303583 52.651231 C -8.3948242 55.003478 -7.1074581 57.529987 -4.7551087 58.294137 L 4.4760838 29.879011 L 4.4760838 29.878403 L 4.4754759 29.878403 z M 4.4754759 29.878403 L -14.075051 47.794917 C -15.528985 49.795803 -15.085296 52.596894 -13.084215 54.05056 L 4.4754759 29.878403 z M 4.4754759 29.878403 L -18.703413 41.184882 C -20.704495 42.638548 -21.148184 45.439639 -19.694249 47.440525 L 4.4754759 29.878403 z M 4.4760838 29.879011 L 8.0674104 55.418887 C 8.8315605 57.771236 11.358069 59.058603 13.710316 58.294137 L 4.4760838 29.879011 z M 4.4760838 29.879011 L -0.00091690844 55.278468 L -0.00030903325 55.278468 C -0.00047503309 57.751821 2.0045549 59.75685 4.4779074 59.756684 L 4.4760838 29.879011 z " />
    </g>
    <circle
       style="opacity:1;fill:#fee46e;fill-opacity:1;stroke:#806600;stroke-width:1.27;stroke-linecap:round;stroke-linejoin:round;stroke-miterlimit:0;stroke-dasharray:none;stroke-opacity:1;paint-order:markers stroke fill"
       id="path157"
       cx="12.699493"
       cy="38.100002"
       r="12.7"
       inkscape:label="Center Ring" />
  </g>
</svg>
