<?xml version="1.0" encoding="UTF-8" standalone="no"?>
<!-- Created using Krita: https://krita.org -->

<svg
   width="896.37555"
   height="1005.1352"
   viewBox="0 0 672.28166 753.85143"
   version="1.1"
   id="svg270"
   sodipodi:docname="jhoward-armoji.svg"
   inkscape:version="1.4 (e7c3feb1, 2024-10-09)"
   xml:space="preserve"
   inkscape:export-filename="../By me/elmer armoji.png"
   inkscape:export-xdpi="1920"
   inkscape:export-ydpi="1920"
   xmlns:inkscape="http://www.inkscape.org/namespaces/inkscape"
   xmlns:sodipodi="http://sodipodi.sourceforge.net/DTD/sodipodi-0.dtd"
   xmlns="http://www.w3.org/2000/svg"
   xmlns:svg="http://www.w3.org/2000/svg"><sodipodi:namedview
     id="namedview1"
     pagecolor="#f3f3f3"
     bordercolor="#000000"
     borderopacity="0.25"
     inkscape:showpageshadow="2"
     inkscape:pageopacity="0.0"
     inkscape:pagecheckerboard="0"
     inkscape:deskcolor="#d1d1d1"
     inkscape:document-units="px"
     showgrid="false"
     inkscape:zoom="0.5"
     inkscape:cx="335"
     inkscape:cy="536"
     inkscape:window-width="1920"
     inkscape:window-height="1027"
     inkscape:window-x="1710"
     inkscape:window-y="25"
     inkscape:window-maximized="0"
     inkscape:current-layer="g2120" /><defs
     id="defs228" /><g
     id="g2120"
     transform="matrix(0.75000001,0,0,0.75000001,144.14497,184.87912)"
     inkscape:export-xdpi="83.537254"
     inkscape:export-ydpi="83.537254"><g
       inkscape:label="Layer 1"
       id="layer1-8"
       transform="matrix(3.7795275,0,0,3.7795275,-192.18309,-439.93787)"
       style="display:inline;stroke:#000000;stroke-width:1.32292;stroke-dasharray:none;stroke-opacity:1"><g
         id="g977"
         transform="matrix(0.26491656,0,0,0.26491656,-60.598106,52.574002)"
         style="display:inline;fill:#dd2e44;fill-opacity:1;stroke:#000000;stroke-width:4.99371;stroke-dasharray:none;stroke-opacity:1"
         inkscape:label="shield"><path
           id="path1114-7"
           d="m 676.36234,-2.7690154 c 0,0 -221.92266,0.002 -416.1777,83.1972674 -29.56272,148.312978 -38.15109,289.533518 -17.97653,416.173818 3.56221,22.42078 8.05594,44.366 13.45703,65.83204 49.7187,197.60202 179.08218,353.00066 420.6972,433.53903 241.61483,-80.53837 370.97476,-235.93701 420.69346,-433.53903 5.401,-21.46604 9.8947,-43.41126 13.457,-65.83204 20.1746,-126.6403 11.5864,-267.86084 -18.0762,-416.173818 C 898.28147,-2.7668384 676.36224,-2.7690154 676.36234,-2.7690154 Z"
           style="display:inline;fill:#ffffff;fill-opacity:1;stroke:#000000;stroke-width:4.99371;stroke-dasharray:none;stroke-opacity:1"
           inkscape:connector-curvature="0"
           inkscape:export-xdpi="64"
           inkscape:export-ydpi="64" /></g></g><g
       id="g4"
       transform="matrix(33.055369,0,0,33.055369,-190.25297,-168.14965)"><path
         style="font-variation-settings:normal;display:inline;opacity:1;vector-effect:none;fill:#bbddf5;fill-opacity:1;stroke:none;stroke-width:0.75;stroke-linecap:butt;stroke-linejoin:miter;stroke-miterlimit:4;stroke-dasharray:none;stroke-dashoffset:0;stroke-opacity:1;-inkscape-stroke:none;stop-color:#000000;stop-opacity:1"
         d="M 4.3571227,19.074215 13.5,14.343938 l 2e-6,-11.1056522 z"
         id="path2" /><path
         style="font-variation-settings:normal;display:inline;opacity:1;vector-effect:none;fill:#50a5e6;fill-opacity:1;stroke:none;stroke-width:0.75;stroke-linecap:butt;stroke-linejoin:miter;stroke-miterlimit:4;stroke-dasharray:none;stroke-dashoffset:0;stroke-opacity:1;-inkscape-stroke:none;stop-color:#000000;stop-opacity:1"
         d="M 22.642879,19.074215 13.5,14.343938 4.3571227,19.074215 Z"
         id="path3" /><path
         style="font-variation-settings:normal;display:inline;opacity:1;vector-effect:none;fill:#1c6399;fill-opacity:1;stroke:none;stroke-width:0.75;stroke-linecap:butt;stroke-linejoin:miter;stroke-miterlimit:4;stroke-dasharray:none;stroke-dashoffset:0;stroke-opacity:1;-inkscape-stroke:none;stop-color:#000000;stop-opacity:1"
         d="M 22.642879,19.074215 13.5,14.343938 l 2e-6,-11.1056522 z"
         id="path4" /><g
         id="g6614"
         transform="matrix(-0.34612242,0.34612242,0.34659678,0.34659678,5.9444884,2.330776)"
         inkscape:export-xdpi="360.90225"
         inkscape:export-ydpi="360.90225"
         style="display:inline"><path
           id="path5230"
           style="font-variation-settings:normal;opacity:1;vector-effect:none;fill:#ffcc4d;fill-opacity:1;stroke-width:0.987;stroke-linecap:butt;stroke-linejoin:miter;stroke-miterlimit:4;stroke-dasharray:none;stroke-dashoffset:0;stroke-opacity:1;-inkscape-stroke:none;stop-color:#000000;stop-opacity:1"
           d="m 3.5083746,12.205213 h 6.9830564 l -0.0021,7.83779 H 3.5062585 Z M 10.491431,34.457014 V 44.4904 L 6.9999025,47.998281 3.5083746,44.4904 v -3.059887 z" /><path
           id="path5232"
           style="font-variation-settings:normal;opacity:1;vector-effect:none;fill:#ffac33;fill-opacity:1;stroke-width:0.98984;stroke-linecap:butt;stroke-linejoin:miter;stroke-miterlimit:4;stroke-dasharray:none;stroke-dashoffset:0;stroke-opacity:1;-inkscape-stroke:none;stop-color:#000000;stop-opacity:1"
           d="m 6.9999025,12.205213 h 3.4915285 l -0.0021,7.83779 H 7.0020186 Z M 10.491431,34.457014 V 44.4904 L 6.9999025,47.998281 V 37.943764 Z" /><path
           style="font-variation-settings:normal;opacity:1;vector-effect:none;fill:#50a5e6;fill-opacity:1;stroke-width:0.692709;stroke-linecap:butt;stroke-linejoin:miter;stroke-miterlimit:4;stroke-dasharray:none;stroke-dashoffset:0;stroke-opacity:1;-inkscape-stroke:none;stop-color:#000000;stop-opacity:1"
           inkscape:connector-curvature="0"
           id="path5234"
           d="m 6.5750494,2.9177191 c -0.3964546,0 -0.7566156,0.1179135 -1.046279,0.3067155 L 4.8635908,11.25168 4.8628929,12.236399 c 0,0.791704 0.7656891,1.433913 1.7121565,1.433913 l 0.8557294,0.0014 c 0.9450717,0 1.7107608,-0.642208 1.7107608,-1.433913 V 11.197636 L 8.4819439,3.227944 C 8.1908838,3.0363345 7.8293281,2.918421 7.4307788,2.9177191 Z" /><path
           style="font-variation-settings:normal;opacity:1;vector-effect:none;fill:#1c6399;fill-opacity:1;stroke-width:0.692709;stroke-linecap:butt;stroke-linejoin:miter;stroke-miterlimit:4;stroke-dasharray:none;stroke-dashoffset:0;stroke-opacity:1;-inkscape-stroke:none;stop-color:#000000;stop-opacity:1"
           inkscape:connector-curvature="0"
           id="path5236"
           d="m 6.5750494,2.9177191 c -0.3964546,0 -0.7566156,0.1179135 -1.046279,0.3067155 L 5.3584622,5.2794994 8.4442525,3.2110992 C 8.1594753,3.0328252 7.8132749,2.9177191 7.4300809,2.918421 Z M 5.0422755,9.105373 8.761836,6.6116418 8.6264267,4.9791006 5.1923423,7.2812223 Z m -0.1786847,2.146307 -6.979e-4,0.984719 c 0,0.134758 0.029317,0.262498 0.07119,0.386026 L 9.0312578,9.8753203 8.8958485,8.2427792 4.8894163,10.92812 Z m 1.0560513,2.308438 c 0.2024156,0.07019 0.4236769,0.110194 0.6561052,0.109492 l 0.8550315,0.0021 c 0.354576,0 0.6833275,-0.09054 0.9569376,-0.244951 0.4550854,-0.258287 0.754521,-0.694146 0.7538232,-1.188962 v -0.836623 l -3.2218975,2.15894 c -6.979e-4,7.02e-4 -6.979e-4,7.02e-4 0,0 z" /><circle
           style="font-variation-settings:normal;opacity:1;vector-effect:none;fill:#1c6399;fill-opacity:1;stroke-width:0.692709;stroke-linecap:butt;stroke-linejoin:miter;stroke-miterlimit:4;stroke-dasharray:none;stroke-dashoffset:0;stroke-opacity:1;-inkscape-stroke:none;stop-color:#000000;stop-opacity:1"
           transform="rotate(-135)"
           id="circle5238"
           r="2.7295001"
           cy="3.0231569"
           cx="-6.8834214" /><path
           style="font-variation-settings:normal;opacity:1;vector-effect:none;fill:#50a5e6;fill-opacity:1;stroke-width:0.692709;stroke-linecap:butt;stroke-linejoin:miter;stroke-miterlimit:4;stroke-dasharray:none;stroke-dashoffset:0;stroke-opacity:1;-inkscape-stroke:none;stop-color:#000000;stop-opacity:1"
           inkscape:connector-curvature="0"
           id="path5240"
           d="m 1.7281212,12.941774 c 0,-0.567108 0.45718,-1.02683 1.0204535,-1.026128 H 11.25282 c 0.563973,0 1.020455,0.45902 1.020455,1.026128 0,0.567109 -0.456482,1.026129 -1.020455,1.026129 H 2.7485747 c -0.5625756,0.0014 -1.0204535,-0.45902 -1.0204535,-1.026129 z" /><circle
           style="font-variation-settings:normal;opacity:1;vector-effect:none;fill:#50a5e6;fill-opacity:1;stroke-width:0.692709;stroke-linecap:butt;stroke-linejoin:miter;stroke-miterlimit:4;stroke-dasharray:none;stroke-dashoffset:0;stroke-opacity:1;-inkscape-stroke:none;stop-color:#000000;stop-opacity:1"
           transform="rotate(-135)"
           id="circle5242"
           r="1.737"
           cy="-0.47369009"
           cx="-17.829733" /><circle
           style="font-variation-settings:normal;opacity:1;vector-effect:none;fill:#50a5e6;fill-opacity:1;stroke-width:0.692709;stroke-linecap:butt;stroke-linejoin:miter;stroke-miterlimit:4;stroke-dasharray:none;stroke-dashoffset:0;stroke-opacity:1;-inkscape-stroke:none;stop-color:#000000;stop-opacity:1"
           transform="rotate(-135)"
           id="circle5244"
           r="1.737"
           cy="-7.9302397"
           cx="-10.373185" /><circle
           style="font-variation-settings:normal;opacity:1;vector-effect:none;fill:#bbddf5;fill-opacity:1;stroke-width:0.692709;stroke-linecap:butt;stroke-linejoin:miter;stroke-miterlimit:4;stroke-dasharray:none;stroke-dashoffset:0;stroke-opacity:1;-inkscape-stroke:none;stop-color:#000000;stop-opacity:1"
           transform="rotate(-135)"
           id="circle5246"
           r="0.98699999"
           cy="-0.47369009"
           cx="-17.829733" /><circle
           style="font-variation-settings:normal;opacity:1;vector-effect:none;fill:#bbddf5;fill-opacity:1;stroke-width:0.692709;stroke-linecap:butt;stroke-linejoin:miter;stroke-miterlimit:4;stroke-dasharray:none;stroke-dashoffset:0;stroke-opacity:1;-inkscape-stroke:none;stop-color:#000000;stop-opacity:1"
           transform="rotate(-135)"
           id="circle5248"
           r="0.98699999"
           cy="-7.9302397"
           cx="-10.373185" /><path
           style="font-variation-settings:normal;opacity:1;vector-effect:none;fill:#50a5e6;fill-opacity:1;stroke-width:0.692709;stroke-linecap:butt;stroke-linejoin:miter;stroke-miterlimit:4;stroke-dasharray:none;stroke-dashoffset:0;stroke-opacity:1;-inkscape-stroke:none;stop-color:#000000;stop-opacity:1"
           inkscape:connector-curvature="0"
           id="path5250"
           d="m 3.8215,5.014194 c 0,-0.4183124 0.3371271,-0.7573138 0.7524274,-0.7566119 l 4.8516915,7.018e-4 c 0.4159992,0 0.7524281,0.3382995 0.7524281,0.756612 0,0.4183123 -0.3364289,0.7566119 -0.7524281,0.7566119 L 4.5739274,5.7708059 C 4.1586271,5.7715078 3.8215,5.4325063 3.8215,5.014194 Z" /></g></g></g></svg>
