<?xml version="1.0" encoding="UTF-8" standalone="no"?>
<!-- Created with Inkscape (http://www.inkscape.org/) -->

<svg
   width="11.000001in"
   height="11in"
   viewBox="0 0 110.00001 110"
   version="1.1"
   id="svg1"
   xml:space="preserve"
   inkscape:version="1.3.2 (091e20e, 2023-11-25)"
   sodipodi:docname="house-kamon.svg"
   xmlns:inkscape="http://www.inkscape.org/namespaces/inkscape"
   xmlns:sodipodi="http://sodipodi.sourceforge.net/DTD/sodipodi-0.dtd"
   xmlns="http://www.w3.org/2000/svg"
   xmlns:svg="http://www.w3.org/2000/svg"><sodipodi:namedview
     id="namedview1"
     pagecolor="#ffffff"
     bordercolor="#000000"
     borderopacity="0.25"
     inkscape:showpageshadow="2"
     inkscape:pageopacity="0.0"
     inkscape:pagecheckerboard="0"
     inkscape:deskcolor="#d1d1d1"
     inkscape:document-units="mm"
     inkscape:zoom="0.85674603"
     inkscape:cx="426.03057"
     inkscape:cy="491.39416"
     inkscape:window-width="1920"
     inkscape:window-height="1027"
     inkscape:window-x="1470"
     inkscape:window-y="25"
     inkscape:window-maximized="0"
     inkscape:current-layer="layer1" /><defs
     id="defs1" /><g
     inkscape:label="Kamon"
     id="layer1"
     transform="translate(-5.0000023,-4.9999989)"><ellipse
       style="fill:#333333;fill-opacity:1;stroke:#303030;stroke-width:0.228691;stroke-linejoin:bevel;stroke-dasharray:none;stroke-opacity:1"
       id="path2"
       cx="60.000004"
       cy="59.999996"
       rx="54.885658"
       ry="54.885654" /><circle
       style="fill:#f8f8f8;fill-opacity:1;stroke:#303030;stroke-width:0.243181;stroke-linejoin:bevel;stroke-dasharray:none;stroke-opacity:1"
       id="path3"
       cx="60"
       cy="59.999996"
       r="49.87841" /><path
       d="M 57.397437,58.235861 31.973098,49.989725 58.484945,44.816858 c 0.01595,0.467129 0.02702,0.919923 0.03288,1.356092 0.09701,6.979879 -0.962923,11.440074 -1.120757,12.062578 z m 37.592759,-1.630843 -1.709014,-2.307932 c -2.7331,-3.689191 -7.748137,-4.712947 -11.675087,-2.526017 L 53.471744,14.999999 c 11.140908,25.068494 5.918957,43.867783 5.918957,43.867783 L 67.586756,61.546799 25.0098,91.421162 47.167451,80.396923 c 2.706102,-1.346013 5.724956,1.158839 4.900117,4.067113 L 46.246528,105 61.734966,73.664796 h 3.661192 c 9.510898,0 19.233463,-5.738954 23.324317,-13.940925 z"
       id="path1"
       style="fill:#333333;fill-opacity:1;stroke-width:0.0833343" /></g></svg>
