<?xml version="1.0" encoding="utf-8"?>
<!-- Generator: Adobe Illustrator 19.2.0, SVG Export Plug-In . SVG Version: 6.00 Build 0)  -->
<svg version="1.1"
	 id="svg2" inkscape:export-filename="/Users/olivier/Desktop/Blason Rouge/Blason_Vide_3D.png" inkscape:export-xdpi="144" inkscape:export-ydpi="144" inkscape:output_extension="org.inkscape.output.svg.inkscape" inkscape:version="0.46" sodipodi:docbase="C:\Documents and Settings\Jimmy\Mes documents\H‚Äö√Ñ√∂‚àö√ë‚àö‚àÇ‚Äö√†√∂‚àö√´‚Äö√†√∂‚Äö√†√á‚Äö√Ñ√∂‚àö‚Ä†‚àö‚àÇ‚Äö√†√∂‚àö¬¥‚Äö√Ñ√∂‚àö‚Ä†‚àö‚àÇ‚Äö√Ñ√∂‚àö‚Ä†‚àö√°‚Äö√Ñ√∂‚àö√ë‚àö‚àÇ‚Äö√†√∂‚Äö√Ñ‚Ä†‚Äö√†√∂‚Äö√†√á‚Äö√Ñ√∂‚àö√ë‚àö‚àÇ‚Äö√†√∂‚àö√´‚Äö√Ñ√∂‚àö√ë‚Äö√Ñ‚Ä†‚Äö√Ñ√∂‚àö√ë‚àö‚àÇ‚Äö√†√∂‚Äö√Ñ‚Ä†‚Äö√†√∂‚Äö√†√á‚Äö√Ñ√∂‚àö√ë‚àö‚àÇ‚Äö√†√∂‚Äö√Ñ‚Ä†‚Äö√†√∂‚àö¬∞¬¨¬®¬¨¬Æ¬¨¬®¬¨√Ü¬¨¬®¬¨¬Æ¬¨¬®‚àö√ú¬¨¬®¬¨¬Æ¬¨¬®¬¨√Ü¬¨¬®¬¨¬Æ¬¨¬®¬¨¬©raldique\R‚Äö√Ñ√∂‚àö√ë‚àö‚àÇ‚Äö√†√∂‚àö√´‚Äö√†√∂‚Äö√†√á‚Äö√Ñ√∂‚àö‚Ä†‚àö‚àÇ‚Äö√†√∂‚àö¬¥‚Äö√Ñ√∂‚àö‚Ä†‚àö‚àÇ‚Äö√Ñ√∂‚àö‚Ä†‚àö√°‚Äö√Ñ√∂‚àö√ë‚àö‚àÇ‚Äö√†√∂‚Äö√Ñ‚Ä†‚Äö√†√∂‚Äö√†√á‚Äö√Ñ√∂‚àö√ë‚àö‚àÇ‚Äö√†√∂‚àö√´‚Äö√Ñ√∂‚àö√ë‚Äö√Ñ‚Ä†‚Äö√Ñ√∂‚àö√ë‚àö‚àÇ‚Äö√†√∂‚Äö√Ñ‚Ä†‚Äö√†√∂‚Äö√†√á‚Äö√Ñ√∂‚àö√ë‚àö‚àÇ‚Äö√†√∂‚Äö√Ñ‚Ä†‚Äö√†√∂‚àö¬∞¬¨¬®¬¨¬Æ¬¨¬®¬¨√Ü¬¨¬®¬¨¬Æ¬¨¬®‚àö√ú¬¨¬®¬¨¬Æ¬¨¬®¬¨√Ü¬¨¬®¬¨¬Æ¬¨¬®¬¨¬©alisations Perso\Blasons\Villes" sodipodi:docname="Blason Bours.svg" sodipodi:version="0.32" xmlns:cc="http://creativecommons.org/ns#" xmlns:dc="http://purl.org/dc/elements/1.1/" xmlns:inkscape="http://www.inkscape.org/namespaces/inkscape" xmlns:rdf="http://www.w3.org/1999/02/22-rdf-syntax-ns#" xmlns:sodipodi="http://sodipodi.sourceforge.net/DTD/sodipodi-0.dtd" xmlns:svg="http://www.w3.org/2000/svg"
	 xmlns="http://www.w3.org/2000/svg" xmlns:xlink="http://www.w3.org/1999/xlink" x="0px" y="0px" viewBox="0 0 604 660"
	 style="enable-background:new 0 0 604 660;" xml:space="preserve">
<style type="text/css">
	.st0{stroke:#000000;stroke-width:3;}
	.st1{fill:#DFDFDE;stroke:#808081;}
	.st2{fill:#F3F3F3;}
	.st3{fill:#DFDFDE;}
	.st4{fill:#808081;}
	.st5{fill:#FFFFFF;}
	.st6{fill:none;stroke:#808081;stroke-width:1.1784;}
	.st7{fill:url(#path2875_2_);}
</style>
<g id="layer2_1_" inkscape:groupmode="layer" inkscape:label="Reflet final" sodipodi:insensitive="true">
	<path id="path2875_1_" inkscape:export-xdpi="144" inkscape:export-ydpi="144" sodipodi:nodetypes="cccccc" class="st0" d="
		M302.1,657.1c0,0,298.5-112.3,298.5-397.8s0-258.6,0-258.6H3.6v258.6C3.6,544.8,302.1,657.1,302.1,657.1z"/>
</g>
<sodipodi:namedview  bordercolor="#666666" borderopacity="1.0" gridtolerance="10.0" guidetolerance="10.0" height="660px" id="base" inkscape:current-layer="g5810" inkscape:cx="300" inkscape:cy="329.99986" inkscape:guide-bbox="true" inkscape:pageopacity="0.0" inkscape:pageshadow="2" inkscape:window-height="968" inkscape:window-width="1280" inkscape:window-x="-4" inkscape:window-y="-4" inkscape:zoom="1.1560601" objecttolerance="10.0" pagecolor="#ffffff" showgrid="false" showguides="true">
	</sodipodi:namedview>
<desc  id="desc4">SVG coat of arms</desc>
<defs>
	
	
		<inkscape:perspective  id="perspective3417" inkscape:persp3d-origin="300 : 220 : 1" inkscape:vp_x="0 : 330 : 1" inkscape:vp_y="0 : 1000 : 0" inkscape:vp_z="600 : 330 : 1" sodipodi:type="inkscape:persp3d">
		</inkscape:perspective>
	
		<inkscape:perspective  id="perspective135" inkscape:persp3d-origin="300 : 220 : 1" inkscape:vp_x="0 : 330 : 1" inkscape:vp_y="0 : 1000 : 0" inkscape:vp_z="600 : 330 : 1" sodipodi:type="inkscape:persp3d">
		</inkscape:perspective>
	
		<inkscape:perspective  id="perspective30" inkscape:persp3d-origin="526.18109 : 248.03149 : 1" inkscape:vp_x="0 : 372.04724 : 1" inkscape:vp_y="0 : 1000 : 0" inkscape:vp_z="1052.3622 : 372.04724 : 1" sodipodi:type="inkscape:persp3d">
		</inkscape:perspective>
	
		<inkscape:perspective  id="perspective9" inkscape:persp3d-origin="271.90549 : 167.9985 : 1" inkscape:vp_x="0 : 251.99776 : 1" inkscape:vp_y="0 : 1000 : 0" inkscape:vp_z="543.81097 : 251.99776 : 1" sodipodi:type="inkscape:persp3d">
		</inkscape:perspective>
	
		<inkscape:perspective  id="perspective32" inkscape:persp3d-origin="300 : 220 : 1" inkscape:vp_x="0 : 330 : 1" inkscape:vp_y="0 : 1000 : 0" inkscape:vp_z="600 : 330 : 1" sodipodi:type="inkscape:persp3d">
		</inkscape:perspective>
	
		<inkscape:perspective  id="perspective36" inkscape:persp3d-origin="300 : 220 : 1" inkscape:vp_x="0 : 330 : 1" inkscape:vp_y="0 : 1000 : 0" inkscape:vp_z="600 : 330 : 1" sodipodi:type="inkscape:persp3d">
		</inkscape:perspective>
</defs>
<g id="g9370" transform="matrix(0.6072994,0,0,0.6935206,-525.20603,251.96104)">
</g>
<g id="g25097" transform="matrix(1.089,0,0,1.089,-143.93995,980.89408)">
	<path id="path25095" inkscape:connector-curvature="0" sodipodi:nodetypes="ccccssccc" class="st1" d="M355-423.6
		c15.9-6.1,22.3-12.1,32.5-18.2l3.3-17.3c32.7,0.3,54.1-8.7,60.4-19.9c-0.4,0.7-11.2,2.3-26.4,2.5c-9.8,0.2-19.9,0.8-26.4-0.8
		c-11.7-2.6-37-1.5-37-1.5l5,30.8C360.5-438.8,358.1-431.4,355-423.6L355-423.6z"/>
	<g id="g25077" transform="translate(53.056611,-8.7616422)">
		<path id="path24912" inkscape:connector-curvature="0" sodipodi:nodetypes="csssssccsssscsscccccsccccc" class="st2" d="
			M325.7-428.2c0,0-15.3-7.1-22.2-14.2c-4.6-4.7-9.1-12-10.9-18.2c-1.4-5.1-1-11.1,1.1-16c2.6-6.3,11.6-9.3,11.6-15.7c0,0,1-1.7,0-4
			c-2.2-5.2-11.3-12.1-11.3-12.1l12.4-2.2c0,0,5.5-3.5,9.5-4.8c4-1.2,8.8-1.4,12.7,0c3.9,1.4,6.4,4.3,8.4,8c2.4,4.6,2,10.2,1.4,15.3
			c-0.7,7.5-7.6,18.9-7.6,18.9s13.5,4.1,21.5,7.3c8.7,3.5,17.7,9.3,29.4,14.9c15,7.2,29.2,10.2,29.2,10.2c-12.4,6-25.7,5.3-38.9,5.1
			c14.9,9.8,31.9,8.8,49.1,8.4c-6.1,8.5-13.8,11-23.7,12.1c5.2,8.4,8.5,15.5,9.5,27.3c0,0-15.8-15.7-25.1-21.5
			c-9.2-5.7-29.9-12.7-29.9-12.7c-0.4,7.7,5.4,18.2,11.6,28.8c-10.9-2.8-20.2-8.5-26.2-20c-12.1,8.6-16.2,8-22.9,9.1
			C321.4-410.6,325.5-418.8,325.7-428.2L325.7-428.2z"/>
		<path id="path24963" inkscape:connector-curvature="0" sodipodi:nodetypes="ccccccccsscsscsscc" class="st3" d="M329.2-445.3
			l12.1,4.1l11.8,3.6l20.7,2.3l16.6-0.2l13.9-2.3l6.1-2.7l-16.6-5c0,0-5.3,3.2-8.4,3.7c-8.5,1.7-17.5,0.7-26-0.7
			c-7.4-1.1-21.4-6.2-21.4-6.2s3.4-3.4,4.6-6.6c0.9-2.2,0.3-5.1-1.2-6.8c-2.3-2.6-5.9-3.9-5.9-3.9s2.1,3.6,2.7,5.9
			c0.4,1.3-0.2,3.5-0.9,4.6c-2.7,4.9-12.5,8.9-12.5,8.9L329.2-445.3L329.2-445.3z"/>
		<path id="path24914" inkscape:connector-curvature="0" sodipodi:nodetypes="cssssssssccssssssssc" class="st4" d="M319.8-471.6
			c0,0-2.3,0-5,0.3s-5.8,1.1-7.3,3c-1.3,1.7-2,3.4-2,5c0,1.6,0.7,3.2,1.5,4.9c1.8,3.5,6.2,6.7,11.8,9.6s12.6,5.5,19.7,7.7
			c7.1,2.2,14.3,3.9,20.8,5.1c3.3,0.5,5.8,0.8,8.4,1c2.5,0.2,5,0.4,6.6,0.3l-0.2-1.7c-1.5,0.1-4-0.1-6.5-0.3c-2.4-0.2-4.9-0.4-7.9-1
			c-6.2-1.1-13.5-2.8-20.5-5s-13.9-4.8-19.3-7.6c-5.4-2.8-9.6-6-11.1-8.8c-0.9-1.5-1.3-2.8-1.4-4.1c0-1.2,0.4-2.4,1.6-3.9
			c1-1.2,3-2.2,5.4-2.8L319.8-471.6z"/>
		<path id="path25028" inkscape:connector-curvature="0" sodipodi:nodetypes="csssssc" class="st3" d="M310.6-489.4
			c0,0,1,3.4,2.3,4.7c1.7,1.8,4.2,3.4,6.7,3.7c2.8,0.3,6.1-0.1,8.4-1.8c2.3-1.6,3.6-4.5,4.5-7.2c1-2.8,1.4-6,0.9-9
			c-0.5-2.6-3.7-7.2-3.7-7.2l0.7-0.7l0.7,9l-1.4,7.5l-3.3,4.2l-4.2,1.4l-4.5-0.9L310.6-489.4L310.6-489.4z"/>
		<path id="path24916" inkscape:connector-curvature="0" sodipodi:nodetypes="ccsscssc" class="st4" d="M329.9-506.6
			c0,4.8,1.6,12.2-3.6,18.8c-1.8,2-4.2,3.3-6.5,2.5c0,0-2.5-0.5-3.6-1.1c-2.1-1-5.5-4-5.5-4c2.7,4.2,5.8,6.4,8.8,6.8s5.9-0.9,8-3
			C331.7-491,333.6-499.3,329.9-506.6z"/>
		
			<path id="path24912-9-3" inkscape:connector-curvature="0" sodipodi:nodetypes="ccccscccccsssscscsscszsccccscssscscsc" class="st3" d="
			M292.7-460.6c1.7,6.3,6.4,13.5,10.9,18.2c6.8,7.1,22.2,14.2,22.2,14.2c-0.2,9.3-4.3,17.6-11.3,24c6.7-1.1,10.9-0.5,22.9-9.1
			c6,11.5,15.3,17.2,26.2,20c-6.2-10.7-12.1-21-11.6-28.8c0,0,20.7,7.1,29.9,12.7c9.3,5.8,25.1,21.5,25.1,21.5
			c-1-11.7-4.2-18.9-9.5-27.3c9.9-1.1,17.6-3.5,23.7-12.1c-17.3,0.4-34.2,1.4-49.1-8.4c0,0,3.4,4.1,5.1,5.4c3.9,3,10,3.4,14.1,6
			c1.8,1.2,5.8,4.8,5.8,4.8s-5.4,0.8-8.2,0.7c-5.3-0.3-13.3-3-13.3-3s9.7,5.5,14.8,9.7c2.9,2.4,5.4,5.3,7.5,8.5c1.3,1.8,3,6,3,6
			s-11-9.9-17.2-13.8c-6-3.8-19-9.3-19-9.3s-7.8-3.3-11.4-5.4c-3.9-2.4-11.2-8.2-11.2-8.2c3.6,11.3,6.3,22.7,12.9,34l-8.5-6
			l-8.7-10.9c0,0-4.1,3-6.3,4.2c-2.4,1.3-7.5,3.3-7.5,3.3s3.8-5.5,4.8-8.5c1.4-3.9,0.9-9.9,0.9-9.9c0.2-3.5-2.1-10.4-3.9-12.6
			c-1.5-1.7-5.1-3.3-5.1-3.3s2.5,4.1,3,5.8c0.4,1.4,0,4.6,0,4.6s-12.4-7.1-17.8-11.7C301-449.8,292.7-460.6,292.7-460.6L292.7-460.6
			z"/>
		<path id="path25026" inkscape:connector-curvature="0" sodipodi:nodetypes="csssc" class="st3" d="M307.2-510.6l-1.8,4.9
			c-0.7,1.8,2.4,2.9,3,4.9c0.4,1.3,0.5,2.9,0,4.2c-0.5,1.3-2.5,2.8-2.5,2.8l-1.2-4.5l-10.4-10.7l7.5-0.9L307.2-510.6z"/>
		<path id="path25030" inkscape:connector-curvature="0" sodipodi:nodetypes="csssssccccc" class="st5" d="M305-488.8
			c0,0-0.8,3.7-0.4,5.5c0.4,2.1,1.7,3.6,2.1,5.8c0.2,1.6,0.8,3.4,0,4.9c-1.2,2.5-2.9,3.3-5.3,4.7c-2,1.2-5.8,0-6.1,2.1l-1.4,9
			l-1.8-7.9v-7.4l2.8-7L305-488.8L305-488.8z"/>
		<path id="path25032" inkscape:connector-curvature="0" sodipodi:nodetypes="ccsssc" class="st5" d="M311.3-513.4l0.9,4.1
			c0,0,6.4-2,9.8-2.1c3,0,6,0.7,8.6,2.3c1.7,1.1,3.2,2.5,4.2,4.2c1.8,3.2,4.5,10,4.5,10l-0.4-9.3l-5.3-8.6l-9.8-3.9l-7.4,1
			L311.3-513.4z"/>
		<path id="path24912-9" inkscape:connector-curvature="0" sodipodi:nodetypes="csssssccsssscsscccccsccccc" class="st6" d="
			M325.7-428.2c0,0-15.3-7.1-22.2-14.2c-4.6-4.7-9.1-12-10.9-18.2c-1.4-5.1-1-11.1,1.1-16c2.6-6.3,12.1-9.3,12.1-15.7
			c0,0,0.5-1.7-0.4-4c-2.2-5.2-11.3-12.1-11.3-12.1l12.4-2.2c0,0,5.5-3.5,9.5-4.8c4-1.2,8.8-1.4,12.7,0c3.9,1.4,6.4,4.3,8.4,8
			c2.4,4.6,2,10.2,1.4,15.3c-0.7,7.5-7.6,18.9-7.6,18.9s13.5,4.1,21.5,7.3c8.7,3.5,17.7,9.3,29.4,14.9c15,7.2,29.2,10.2,29.2,10.2
			c-12.4,6-25.7,5.3-38.9,5.1c14.9,9.8,31.9,8.8,49.1,8.4c-6.1,8.5-13.8,11-23.7,12.1c5.2,8.4,8.5,15.5,9.5,27.3
			c0,0-15.8-15.7-25.1-21.5c-9.2-5.7-29.9-12.7-29.9-12.7c-0.4,7.7,5.4,18.2,11.6,28.8c-10.9-2.8-20.2-8.5-26.2-20
			c-12.1,8.6-16.2,8-22.9,9.1C321.4-410.6,325.5-418.8,325.7-428.2L325.7-428.2z"/>
		<path id="path24965" inkscape:connector-curvature="0" sodipodi:nodetypes="cccc" class="st3" d="M338.6-452.7
			c9.9,4.8,27.1,8.8,38,7.2c-10.3-1.4-26.9-5.2-36.4-9L338.6-452.7z"/>
		<path id="path24965-6" inkscape:connector-curvature="0" sodipodi:nodetypes="cccc" class="st3" d="M339.3-458.4
			c9.9,4.8,24.6,8.2,35.5,6.5c-10.3-1.4-24.4-4.6-33.9-8.5L339.3-458.4z"/>
		<path id="path25024" inkscape:connector-curvature="0" sodipodi:nodetypes="csssssss" class="st5" d="M329.6-467.1
			c2.4,1.8,4,5.4,3.4,8.4c-0.5,2.8-3.4,5.3-6.2,6.2c-2.5,0.8-5.4-0.4-7.8-1.5c-3.5-1.6-6.1-3.2-7.2-6.8c-0.5-1.6,0.3-3.8,1.5-5
			c2.4-2.2,4.2-2.7,7.5-2.8C323.8-468.8,327.3-469,329.6-467.1z"/>
		<g id="g25073">
			
				<path id="path25034" sodipodi:cx="617.4248" sodipodi:cy="235.53224" sodipodi:rx="1.7457818" sodipodi:ry="1.7457818" sodipodi:type="arc" d="
				M320.6-504.6c0,1.7-1.4,3-3,3c-1.7,0-3-1.4-3-3c0-1.7,1.4-3,3-3C319.3-507.7,320.6-506.3,320.6-504.6z"/>
			
				<path id="path25071" inkscape:original="M 617.4375 233.78125 C 616.47333 233.78125 615.6875 234.56708 615.6875 235.53125 C 615.6875 236.49542 616.47333 237.28125 617.4375 237.28125 C 618.40167 237.28125 619.15625 236.49542 619.15625 235.53125 C 619.15625 234.56708 618.40167 233.78125 617.4375 233.78125 z " inkscape:radius="-1.0942917" sodipodi:type="inkscape:offset" class="st5" d="
				M316.9-506.5c-0.7,0-1.2,0.5-1.2,1.2s0.5,1.2,1.2,1.2s1.1-0.4,1.1-1.2C318-506,317.6-506.5,316.9-506.5z"/>
		</g>
	</g>
</g>
<g>
	<g id="g25097_1_" transform="matrix(1.089,0,0,1.089,-143.93995,980.89408)">
		<path id="path25095_1_" inkscape:connector-curvature="0" sodipodi:nodetypes="ccccssccc" class="st1" d="M442.6-587.6
			c15.9-6.1,22.3-12.1,32.5-18.2l3.3-17.3c32.7,0.3,54.1-8.7,60.4-19.9c-0.4,0.7-11.2,2.3-26.4,2.5c-9.8,0.2-19.9,0.8-26.4-0.8
			c-11.7-2.6-37-1.5-37-1.5l5,30.8C448-602.8,445.6-595.4,442.6-587.6L442.6-587.6z"/>
		<g id="g25077_1_" transform="translate(53.056611,-8.7616422)">
			<path id="path24912_1_" inkscape:connector-curvature="0" sodipodi:nodetypes="csssssccsssscsscccccsccccc" class="st2" d="
				M413.3-592.2c0,0-15.3-7.1-22.2-14.2c-4.6-4.7-9.1-12-10.9-18.2c-1.4-5.1-1-11.1,1.1-16c2.6-6.3,11.6-9.3,11.6-15.7
				c0,0,1-1.7,0-4c-2.2-5.2-11.3-12.1-11.3-12.1l12.4-2.2c0,0,5.5-3.5,9.5-4.8c4-1.2,8.8-1.4,12.7,0c3.9,1.4,6.4,4.3,8.4,8
				c2.4,4.6,2,10.2,1.4,15.3c-0.7,7.5-7.6,18.9-7.6,18.9s13.5,4.1,21.5,7.3c8.7,3.5,17.7,9.3,29.4,14.9c15,7.2,29.2,10.2,29.2,10.2
				c-12.4,6-25.7,5.3-38.9,5.1c14.9,9.8,31.9,8.8,49.1,8.4c-6.1,8.5-13.8,11-23.7,12.1c5.2,8.4,8.5,15.5,9.5,27.3
				c0,0-15.8-15.7-25.1-21.5c-9.2-5.7-29.9-12.7-29.9-12.7c-0.4,7.7,5.4,18.2,11.6,28.8c-10.9-2.8-20.2-8.5-26.2-20
				c-12.1,8.6-16.2,8-22.9,9.1C409-574.6,413.1-582.8,413.3-592.2L413.3-592.2z"/>
			<path id="path24963_1_" inkscape:connector-curvature="0" sodipodi:nodetypes="ccccccccsscsscsscc" class="st3" d="M416.8-609.3
				l12.1,4.1l11.8,3.6l20.7,2.3l16.6-0.2l13.9-2.3l6.1-2.7l-16.6-5c0,0-5.3,3.2-8.4,3.7c-8.5,1.7-17.5,0.7-26-0.7
				c-7.4-1.1-21.4-6.2-21.4-6.2s3.4-3.4,4.6-6.6c0.9-2.2,0.3-5.1-1.2-6.8c-2.3-2.6-5.9-3.9-5.9-3.9s2.1,3.6,2.7,5.9
				c0.4,1.3-0.2,3.5-0.9,4.6c-2.7,4.9-12.5,8.9-12.5,8.9L416.8-609.3L416.8-609.3z"/>
			<path id="path24914_1_" inkscape:connector-curvature="0" sodipodi:nodetypes="cssssssssccssssssssc" class="st4" d="
				M407.3-635.6c0,0-2.3,0-5,0.3s-5.8,1.1-7.3,3c-1.3,1.7-2,3.4-2,5s0.7,3.2,1.5,4.9c1.8,3.5,6.2,6.7,11.8,9.6s12.6,5.5,19.7,7.7
				c7.1,2.2,14.3,3.9,20.8,5.1c3.3,0.5,5.8,0.8,8.4,1c2.5,0.2,5,0.4,6.6,0.3l-0.2-1.7c-1.5,0.1-4-0.1-6.5-0.3
				c-2.4-0.2-4.9-0.4-7.9-1c-6.2-1.1-13.5-2.8-20.5-5c-7.1-2.2-13.9-4.8-19.3-7.6c-5.4-2.8-9.6-6-11.1-8.8c-0.9-1.5-1.3-2.8-1.4-4.1
				c0-1.2,0.4-2.4,1.6-3.9c1-1.2,3-2.2,5.4-2.8L407.3-635.6z"/>
			<path id="path25028_1_" inkscape:connector-curvature="0" sodipodi:nodetypes="csssssc" class="st3" d="M398.2-653.4
				c0,0,1,3.4,2.3,4.7c1.7,1.8,4.2,3.4,6.7,3.7c2.8,0.3,6.1-0.1,8.4-1.8c2.3-1.6,3.6-4.5,4.5-7.2c1-2.8,1.4-6,0.9-9
				c-0.5-2.6-3.7-7.2-3.7-7.2l0.7-0.7l0.7,9l-1.4,7.5l-3.3,4.2l-4.2,1.4l-4.5-0.9L398.2-653.4L398.2-653.4z"/>
			<path id="path24916_1_" inkscape:connector-curvature="0" sodipodi:nodetypes="ccsscssc" class="st4" d="M417.4-670.6
				c0,4.8,1.6,12.2-3.6,18.8c-1.8,2-4.2,3.3-6.5,2.5c0,0-2.5-0.5-3.6-1.1c-2.1-1-5.5-4-5.5-4c2.7,4.2,5.8,6.4,8.8,6.8
				c3,0.4,5.9-0.9,8-3C419.3-655,421.1-663.3,417.4-670.6z"/>
			
				<path id="path24912-9-3_1_" inkscape:connector-curvature="0" sodipodi:nodetypes="ccccscccccsssscscsscszsccccscssscscsc" class="st3" d="
				M380.3-624.6c1.7,6.3,6.4,13.5,10.9,18.2c6.8,7.1,22.2,14.2,22.2,14.2c-0.2,9.3-4.3,17.6-11.3,24c6.7-1.1,10.9-0.5,22.9-9.1
				c6,11.5,15.3,17.2,26.2,20c-6.2-10.7-12.1-21-11.6-28.8c0,0,20.7,7.1,29.9,12.7c9.3,5.8,25.1,21.5,25.1,21.5
				c-1-11.7-4.2-18.9-9.5-27.3c9.9-1.1,17.6-3.5,23.7-12.1c-17.3,0.4-34.2,1.4-49.1-8.4c0,0,3.4,4.1,5.1,5.4c3.9,3,10,3.4,14.1,6
				c1.8,1.2,5.8,4.8,5.8,4.8s-5.4,0.8-8.2,0.7c-5.3-0.3-13.3-3-13.3-3s9.7,5.5,14.8,9.7c2.9,2.4,5.4,5.3,7.5,8.5c1.3,1.8,3,6,3,6
				s-11-9.9-17.2-13.8c-6-3.8-19-9.3-19-9.3s-7.8-3.3-11.4-5.4c-3.9-2.4-11.2-8.2-11.2-8.2c3.6,11.3,6.3,22.7,12.9,34l-8.5-6
				l-8.7-10.9c0,0-4.1,3-6.3,4.2c-2.4,1.3-7.5,3.3-7.5,3.3s3.8-5.5,4.8-8.5c1.4-3.9,0.9-9.9,0.9-9.9c0.2-3.5-2.1-10.4-3.9-12.6
				c-1.5-1.7-5.1-3.3-5.1-3.3s2.5,4.1,3,5.8c0.4,1.4,0,4.6,0,4.6s-12.4-7.1-17.8-11.7C388.5-613.8,380.3-624.6,380.3-624.6
				L380.3-624.6z"/>
			<path id="path25026_1_" inkscape:connector-curvature="0" sodipodi:nodetypes="csssc" class="st3" d="M394.7-674.6l-1.8,4.9
				c-0.7,1.8,2.4,2.9,3,4.9c0.4,1.3,0.5,2.9,0,4.2c-0.5,1.3-2.5,2.8-2.5,2.8l-1.2-4.5l-10.4-10.7l7.5-0.9L394.7-674.6z"/>
			<path id="path25030_1_" inkscape:connector-curvature="0" sodipodi:nodetypes="csssssccccc" class="st5" d="M392.5-652.8
				c0,0-0.8,3.7-0.4,5.5c0.4,2.1,1.7,3.6,2.1,5.8c0.2,1.6,0.8,3.4,0,4.9c-1.2,2.5-2.9,3.3-5.3,4.7c-2,1.2-5.8,0-6.1,2.1l-1.4,9
				l-1.8-7.9v-7.4l2.8-7L392.5-652.8L392.5-652.8z"/>
			<path id="path25032_1_" inkscape:connector-curvature="0" sodipodi:nodetypes="ccsssc" class="st5" d="M398.8-677.4l0.9,4.1
				c0,0,6.4-2,9.8-2.1c3,0,6,0.7,8.6,2.3c1.7,1.1,3.2,2.5,4.2,4.2c1.8,3.2,4.5,10,4.5,10l-0.4-9.3l-5.3-8.6l-9.8-3.9l-7.4,1
				L398.8-677.4z"/>
			<path id="path24912-9_1_" inkscape:connector-curvature="0" sodipodi:nodetypes="csssssccsssscsscccccsccccc" class="st6" d="
				M413.3-592.2c0,0-15.3-7.1-22.2-14.2c-4.6-4.7-9.1-12-10.9-18.2c-1.4-5.1-1-11.1,1.1-16c2.6-6.3,12.1-9.3,12.1-15.7
				c0,0,0.5-1.7-0.4-4c-2.2-5.2-11.3-12.1-11.3-12.1l12.4-2.2c0,0,5.5-3.5,9.5-4.8c4-1.2,8.8-1.4,12.7,0c3.9,1.4,6.4,4.3,8.4,8
				c2.4,4.6,2,10.2,1.4,15.3c-0.7,7.5-7.6,18.9-7.6,18.9s13.5,4.1,21.5,7.3c8.7,3.5,17.7,9.3,29.4,14.9c15,7.2,29.2,10.2,29.2,10.2
				c-12.4,6-25.7,5.3-38.9,5.1c14.9,9.8,31.9,8.8,49.1,8.4c-6.1,8.5-13.8,11-23.7,12.1c5.2,8.4,8.5,15.5,9.5,27.3
				c0,0-15.8-15.7-25.1-21.5c-9.2-5.7-29.9-12.7-29.9-12.7c-0.4,7.7,5.4,18.2,11.6,28.8c-10.9-2.8-20.2-8.5-26.2-20
				c-12.1,8.6-16.2,8-22.9,9.1C409-574.6,413.1-582.8,413.3-592.2L413.3-592.2z"/>
			<path id="path24965_1_" inkscape:connector-curvature="0" sodipodi:nodetypes="cccc" class="st3" d="M426.1-616.7
				c9.9,4.8,27.1,8.8,38,7.2c-10.3-1.4-26.9-5.2-36.4-9L426.1-616.7z"/>
			<path id="path24965-6_1_" inkscape:connector-curvature="0" sodipodi:nodetypes="cccc" class="st3" d="M426.9-622.4
				c9.9,4.8,24.6,8.2,35.5,6.5c-10.3-1.4-24.4-4.6-33.9-8.5L426.9-622.4z"/>
			<path id="path25024_1_" inkscape:connector-curvature="0" sodipodi:nodetypes="csssssss" class="st5" d="M417.1-631.1
				c2.4,1.8,4,5.4,3.4,8.4c-0.5,2.8-3.4,5.3-6.2,6.2c-2.5,0.8-5.4-0.4-7.8-1.5c-3.5-1.6-6.1-3.2-7.2-6.8c-0.5-1.6,0.3-3.8,1.5-5
				c2.4-2.2,4.2-2.7,7.5-2.8C411.3-632.8,414.8-633,417.1-631.1z"/>
			<g id="g25073_1_">
				
					<path id="path25034_1_" sodipodi:cx="617.4248" sodipodi:cy="235.53224" sodipodi:rx="1.7457818" sodipodi:ry="1.7457818" sodipodi:type="arc" d="
					M408.2-668.6c0,1.7-1.4,3-3,3c-1.7,0-3-1.4-3-3c0-1.7,1.4-3,3-3C406.9-671.7,408.2-670.3,408.2-668.6z"/>
				
					<path id="path25071_1_" inkscape:original="M 617.4375 233.78125 C 616.47333 233.78125 615.6875 234.56708 615.6875 235.53125 C 615.6875 236.49542 616.47333 237.28125 617.4375 237.28125 C 618.40167 237.28125 619.15625 236.49542 619.15625 235.53125 C 619.15625 234.56708 618.40167 233.78125 617.4375 233.78125 z " inkscape:radius="-1.0942917" sodipodi:type="inkscape:offset" class="st5" d="
					M404.5-670.5c-0.7,0-1.2,0.5-1.2,1.2s0.5,1.2,1.2,1.2c0.7,0,1.1-0.4,1.1-1.2C405.6-670,405.1-670.5,404.5-670.5z"/>
			</g>
		</g>
	</g>
	<g id="g25097_2_" transform="matrix(1.089,0,0,1.089,-143.93995,980.89408)">
		<path id="path25095_2_" inkscape:connector-curvature="0" sodipodi:nodetypes="ccccssccc" class="st1" d="M267.5-587.6
			c15.9-6.1,22.3-12.1,32.5-18.2l3.3-17.3c32.7,0.3,54.1-8.7,60.4-19.9c-0.4,0.7-11.2,2.3-26.4,2.5c-9.8,0.2-19.9,0.8-26.4-0.8
			c-11.7-2.6-37-1.5-37-1.5l5,30.8C272.9-602.8,270.5-595.4,267.5-587.6L267.5-587.6z"/>
		<g id="g25077_2_" transform="translate(53.056611,-8.7616422)">
			<path id="path24912_2_" inkscape:connector-curvature="0" sodipodi:nodetypes="csssssccsssscsscccccsccccc" class="st2" d="
				M238.2-592.2c0,0-15.3-7.1-22.2-14.2c-4.6-4.7-9.1-12-10.9-18.2c-1.4-5.1-1-11.1,1.1-16c2.6-6.3,11.6-9.3,11.6-15.7
				c0,0,1-1.7,0-4c-2.2-5.2-11.3-12.1-11.3-12.1l12.4-2.2c0,0,5.5-3.5,9.5-4.8c4-1.2,8.8-1.4,12.7,0s6.4,4.3,8.4,8
				c2.4,4.6,2,10.2,1.4,15.3c-0.7,7.5-7.6,18.9-7.6,18.9s13.5,4.1,21.5,7.3c8.7,3.5,17.7,9.3,29.4,14.9c15,7.2,29.2,10.2,29.2,10.2
				c-12.4,6-25.7,5.3-38.9,5.1c14.9,9.8,31.9,8.8,49.1,8.4c-6.1,8.5-13.8,11-23.7,12.1c5.2,8.4,8.5,15.5,9.5,27.3
				c0,0-15.8-15.7-25.1-21.5c-9.2-5.7-29.9-12.7-29.9-12.7c-0.4,7.7,5.4,18.2,11.6,28.8c-10.9-2.8-20.2-8.5-26.2-20
				c-12.1,8.6-16.2,8-22.9,9.1C233.8-574.6,238-582.8,238.2-592.2L238.2-592.2z"/>
			<path id="path24963_2_" inkscape:connector-curvature="0" sodipodi:nodetypes="ccccccccsscsscsscc" class="st3" d="M241.7-609.3
				l12.1,4.1l11.8,3.6l20.7,2.3l16.6-0.2l13.9-2.3l6.1-2.7l-16.6-5c0,0-5.3,3.2-8.4,3.7c-8.5,1.7-17.5,0.7-26-0.7
				c-7.4-1.1-21.4-6.2-21.4-6.2s3.4-3.4,4.6-6.6c0.9-2.2,0.3-5.1-1.2-6.8c-2.3-2.6-5.9-3.9-5.9-3.9s2.1,3.6,2.7,5.9
				c0.4,1.3-0.2,3.5-0.9,4.6c-2.7,4.9-12.5,8.9-12.5,8.9L241.7-609.3L241.7-609.3z"/>
			<path id="path24914_2_" inkscape:connector-curvature="0" sodipodi:nodetypes="cssssssssccssssssssc" class="st4" d="
				M232.2-635.6c0,0-2.3,0-5,0.3s-5.8,1.1-7.3,3c-1.3,1.7-2,3.4-2,5s0.7,3.2,1.5,4.9c1.8,3.5,6.2,6.7,11.8,9.6s12.6,5.5,19.7,7.7
				c7.1,2.2,14.3,3.9,20.8,5.1c3.3,0.5,5.8,0.8,8.4,1c2.5,0.2,5,0.4,6.6,0.3l-0.2-1.7c-1.5,0.1-4-0.1-6.5-0.3
				c-2.4-0.2-4.9-0.4-7.9-1c-6.2-1.1-13.5-2.8-20.5-5c-7.1-2.2-13.9-4.8-19.3-7.6c-5.4-2.8-9.6-6-11.1-8.8c-0.9-1.5-1.3-2.8-1.4-4.1
				c0-1.2,0.4-2.4,1.6-3.9c1-1.2,3-2.2,5.4-2.8L232.2-635.6z"/>
			<path id="path25028_2_" inkscape:connector-curvature="0" sodipodi:nodetypes="csssssc" class="st3" d="M223.1-653.4
				c0,0,1,3.4,2.3,4.7c1.7,1.8,4.2,3.4,6.7,3.7c2.8,0.3,6.1-0.1,8.4-1.8c2.3-1.6,3.6-4.5,4.5-7.2c1-2.8,1.4-6,0.9-9
				c-0.5-2.6-3.7-7.2-3.7-7.2l0.7-0.7l0.7,9l-1.4,7.5l-3.3,4.2l-4.2,1.4l-4.5-0.9L223.1-653.4L223.1-653.4z"/>
			<path id="path24916_2_" inkscape:connector-curvature="0" sodipodi:nodetypes="ccsscssc" class="st4" d="M242.3-670.6
				c0,4.8,1.6,12.2-3.6,18.8c-1.8,2-4.2,3.3-6.5,2.5c0,0-2.5-0.5-3.6-1.1c-2.1-1-5.5-4-5.5-4c2.7,4.2,5.8,6.4,8.8,6.8
				c3,0.4,5.9-0.9,8-3C244.2-655,246-663.3,242.3-670.6z"/>
			
				<path id="path24912-9-3_2_" inkscape:connector-curvature="0" sodipodi:nodetypes="ccccscccccsssscscsscszsccccscssscscsc" class="st3" d="
				M205.1-624.6c1.7,6.3,6.4,13.5,10.9,18.2c6.8,7.1,22.2,14.2,22.2,14.2c-0.2,9.3-4.3,17.6-11.3,24c6.7-1.1,10.9-0.5,22.9-9.1
				c6,11.5,15.3,17.2,26.2,20c-6.2-10.7-12.1-21-11.6-28.8c0,0,20.7,7.1,29.9,12.7c9.3,5.8,25.1,21.5,25.1,21.5
				c-1-11.7-4.2-18.9-9.5-27.3c9.9-1.1,17.6-3.5,23.7-12.1c-17.3,0.4-34.2,1.4-49.1-8.4c0,0,3.4,4.1,5.1,5.4c3.9,3,10,3.4,14.1,6
				c1.8,1.2,5.8,4.8,5.8,4.8s-5.4,0.8-8.2,0.7c-5.3-0.3-13.3-3-13.3-3s9.7,5.5,14.8,9.7c2.9,2.4,5.4,5.3,7.5,8.5c1.3,1.8,3,6,3,6
				s-11-9.9-17.2-13.8c-6-3.8-19-9.3-19-9.3s-7.8-3.3-11.4-5.4c-3.9-2.4-11.2-8.2-11.2-8.2c3.6,11.3,6.3,22.7,12.9,34l-8.5-6
				l-8.7-10.9c0,0-4.1,3-6.3,4.2c-2.4,1.3-7.5,3.3-7.5,3.3s3.8-5.5,4.8-8.5c1.4-3.9,0.9-9.9,0.9-9.9c0.2-3.5-2.1-10.4-3.9-12.6
				c-1.5-1.7-5.1-3.3-5.1-3.3s2.5,4.1,3,5.8c0.4,1.4,0,4.6,0,4.6s-12.4-7.1-17.8-11.7C213.4-613.8,205.1-624.6,205.1-624.6
				L205.1-624.6z"/>
			<path id="path25026_2_" inkscape:connector-curvature="0" sodipodi:nodetypes="csssc" class="st3" d="M219.6-674.6l-1.8,4.9
				c-0.7,1.8,2.4,2.9,3,4.9c0.4,1.3,0.5,2.9,0,4.2c-0.5,1.3-2.5,2.8-2.5,2.8l-1.2-4.5l-10.4-10.7l7.5-0.9L219.6-674.6z"/>
			<path id="path25030_2_" inkscape:connector-curvature="0" sodipodi:nodetypes="csssssccccc" class="st5" d="M217.4-652.8
				c0,0-0.8,3.7-0.4,5.5c0.4,2.1,1.7,3.6,2.1,5.8c0.2,1.6,0.8,3.4,0,4.9c-1.2,2.5-2.9,3.3-5.3,4.7c-2,1.2-5.8,0-6.1,2.1l-1.4,9
				l-1.8-7.9v-7.4l2.8-7L217.4-652.8L217.4-652.8z"/>
			<path id="path25032_2_" inkscape:connector-curvature="0" sodipodi:nodetypes="ccsssc" class="st5" d="M223.7-677.4l0.9,4.1
				c0,0,6.4-2,9.8-2.1c3,0,6,0.7,8.6,2.3c1.7,1.1,3.2,2.5,4.2,4.2c1.8,3.2,4.5,10,4.5,10l-0.4-9.3l-5.3-8.6l-9.8-3.9l-7.4,1
				L223.7-677.4z"/>
			<path id="path24912-9_2_" inkscape:connector-curvature="0" sodipodi:nodetypes="csssssccsssscsscccccsccccc" class="st6" d="
				M238.2-592.2c0,0-15.3-7.1-22.2-14.2c-4.6-4.7-9.1-12-10.9-18.2c-1.4-5.1-1-11.1,1.1-16c2.6-6.3,12.1-9.3,12.1-15.7
				c0,0,0.5-1.7-0.4-4c-2.2-5.2-11.3-12.1-11.3-12.1l12.4-2.2c0,0,5.5-3.5,9.5-4.8c4-1.2,8.8-1.4,12.7,0s6.4,4.3,8.4,8
				c2.4,4.6,2,10.2,1.4,15.3c-0.7,7.5-7.6,18.9-7.6,18.9s13.5,4.1,21.5,7.3c8.7,3.5,17.7,9.3,29.4,14.9c15,7.2,29.2,10.2,29.2,10.2
				c-12.4,6-25.7,5.3-38.9,5.1c14.9,9.8,31.9,8.8,49.1,8.4c-6.1,8.5-13.8,11-23.7,12.1c5.2,8.4,8.5,15.5,9.5,27.3
				c0,0-15.8-15.7-25.1-21.5c-9.2-5.7-29.9-12.7-29.9-12.7c-0.4,7.7,5.4,18.2,11.6,28.8c-10.9-2.8-20.2-8.5-26.2-20
				c-12.1,8.6-16.2,8-22.9,9.1C233.8-574.6,238-582.8,238.2-592.2L238.2-592.2z"/>
			<path id="path24965_2_" inkscape:connector-curvature="0" sodipodi:nodetypes="cccc" class="st3" d="M251-616.7
				c9.9,4.8,27.1,8.8,38,7.2c-10.3-1.4-26.9-5.2-36.4-9L251-616.7z"/>
			<path id="path24965-6_2_" inkscape:connector-curvature="0" sodipodi:nodetypes="cccc" class="st3" d="M251.8-622.4
				c9.9,4.8,24.6,8.2,35.5,6.5c-10.3-1.4-24.4-4.6-33.9-8.5L251.8-622.4z"/>
			<path id="path25024_2_" inkscape:connector-curvature="0" sodipodi:nodetypes="csssssss" class="st5" d="M242-631.1
				c2.4,1.8,4,5.4,3.4,8.4c-0.5,2.8-3.4,5.3-6.2,6.2c-2.5,0.8-5.4-0.4-7.8-1.5c-3.5-1.6-6.1-3.2-7.2-6.8c-0.5-1.6,0.3-3.8,1.5-5
				c2.4-2.2,4.2-2.7,7.5-2.8C236.2-632.8,239.7-633,242-631.1z"/>
			<g id="g25073_2_">
				
					<path id="path25034_2_" sodipodi:cx="617.4248" sodipodi:cy="235.53224" sodipodi:rx="1.7457818" sodipodi:ry="1.7457818" sodipodi:type="arc" d="
					M233.1-668.6c0,1.7-1.4,3-3,3c-1.7,0-3-1.4-3-3c0-1.7,1.4-3,3-3C231.8-671.7,233.1-670.3,233.1-668.6z"/>
				
					<path id="path25071_2_" inkscape:original="M 617.4375 233.78125 C 616.47333 233.78125 615.6875 234.56708 615.6875 235.53125 C 615.6875 236.49542 616.47333 237.28125 617.4375 237.28125 C 618.40167 237.28125 619.15625 236.49542 619.15625 235.53125 C 619.15625 234.56708 618.40167 233.78125 617.4375 233.78125 z " inkscape:radius="-1.0942917" sodipodi:type="inkscape:offset" class="st5" d="
					M229.4-670.5c-0.7,0-1.2,0.5-1.2,1.2s0.5,1.2,1.2,1.2c0.7,0,1.1-0.4,1.1-1.2C230.5-670,230-670.5,229.4-670.5z"/>
			</g>
		</g>
	</g>
</g>
<g>
	<g id="g25097_3_" transform="matrix(1.089,0,0,1.089,-143.93995,980.89408)">
		<path id="path25095_3_" inkscape:connector-curvature="0" sodipodi:nodetypes="ccccssccc" class="st1" d="M528.9-750.9
			c15.9-6.1,22.3-12.1,32.5-18.2l3.3-17.3c32.7,0.3,54.1-8.7,60.4-19.9c-0.4,0.7-11.2,2.3-26.4,2.5c-9.8,0.2-19.9,0.8-26.4-0.8
			c-11.7-2.6-37-1.5-37-1.5l5,30.8C534.4-766,532-758.7,528.9-750.9L528.9-750.9z"/>
		<g id="g25077_3_" transform="translate(53.056611,-8.7616422)">
			<path id="path24912_3_" inkscape:connector-curvature="0" sodipodi:nodetypes="csssssccsssscsscccccsccccc" class="st2" d="
				M499.6-755.5c0,0-15.3-7.1-22.2-14.2c-4.6-4.7-9.1-12-10.9-18.2c-1.4-5.1-1-11.1,1.1-16c2.6-6.3,11.6-9.3,11.6-15.7
				c0,0,1-1.7,0-4c-2.2-5.2-11.3-12.1-11.3-12.1l12.4-2.2c0,0,5.5-3.5,9.5-4.8c4-1.2,8.8-1.4,12.7,0c3.9,1.4,6.4,4.3,8.4,8
				c2.4,4.6,2,10.2,1.4,15.3c-0.7,7.5-7.6,18.9-7.6,18.9s13.5,4.1,21.5,7.3c8.7,3.5,17.7,9.3,29.4,14.9c15,7.2,29.2,10.2,29.2,10.2
				c-12.4,6-25.7,5.3-38.9,5.1c14.9,9.8,31.9,8.8,49.1,8.4c-6.1,8.5-13.8,11-23.7,12.1c5.2,8.4,8.5,15.5,9.5,27.3
				c0,0-15.8-15.7-25.1-21.5c-9.2-5.7-29.9-12.7-29.9-12.7c-0.4,7.7,5.4,18.2,11.6,28.8c-10.9-2.8-20.2-8.5-26.2-20
				c-12.1,8.6-16.2,8-22.9,9.1C495.3-737.9,499.4-746,499.6-755.5L499.6-755.5z"/>
			<path id="path24963_3_" inkscape:connector-curvature="0" sodipodi:nodetypes="ccccccccsscsscsscc" class="st3" d="M503.1-772.6
				l12.1,4.1l11.8,3.6l20.7,2.3l16.6-0.2l13.9-2.3l6.1-2.7l-16.6-5c0,0-5.3,3.2-8.4,3.7c-8.5,1.7-17.5,0.7-26-0.7
				c-7.4-1.1-21.4-6.2-21.4-6.2s3.4-3.4,4.6-6.6c0.9-2.2,0.3-5.1-1.2-6.8c-2.3-2.6-5.9-3.9-5.9-3.9s2.1,3.6,2.7,5.9
				c0.4,1.3-0.2,3.5-0.9,4.6c-2.7,4.9-12.5,8.9-12.5,8.9L503.1-772.6L503.1-772.6z"/>
			<path id="path24914_3_" inkscape:connector-curvature="0" sodipodi:nodetypes="cssssssssccssssssssc" class="st4" d="
				M493.6-798.9c0,0-2.3,0-5,0.3s-5.8,1.1-7.3,3c-1.3,1.7-2,3.4-2,5s0.7,3.2,1.5,4.9c1.8,3.5,6.2,6.7,11.8,9.6
				c5.7,2.8,12.6,5.5,19.7,7.7c7.1,2.2,14.3,3.9,20.8,5.1c3.3,0.5,5.8,0.8,8.4,1c2.5,0.2,5,0.4,6.6,0.3l-0.2-1.7
				c-1.5,0.1-4-0.1-6.5-0.3c-2.4-0.2-4.9-0.4-7.9-1c-6.2-1.1-13.5-2.8-20.5-5c-7.1-2.2-13.9-4.8-19.3-7.6c-5.4-2.8-9.6-6-11.1-8.8
				c-0.9-1.5-1.3-2.8-1.4-4.1c0-1.2,0.4-2.4,1.6-3.9c1-1.2,3-2.2,5.4-2.8L493.6-798.9z"/>
			<path id="path25028_3_" inkscape:connector-curvature="0" sodipodi:nodetypes="csssssc" class="st3" d="M484.5-816.7
				c0,0,1,3.4,2.3,4.7c1.7,1.8,4.2,3.4,6.7,3.7c2.8,0.3,6.1-0.1,8.4-1.8c2.3-1.6,3.6-4.5,4.5-7.2c1-2.8,1.4-6,0.9-9
				c-0.5-2.6-3.7-7.2-3.7-7.2l0.7-0.7l0.7,9l-1.4,7.5l-3.3,4.2l-4.2,1.4l-4.5-0.9L484.5-816.7L484.5-816.7z"/>
			<path id="path24916_3_" inkscape:connector-curvature="0" sodipodi:nodetypes="ccsscssc" class="st4" d="M503.8-833.9
				c0,4.8,1.6,12.2-3.6,18.8c-1.8,2-4.2,3.3-6.5,2.5c0,0-2.5-0.5-3.6-1.1c-2.1-1-5.5-4-5.5-4c2.7,4.2,5.8,6.4,8.8,6.8
				c3,0.4,5.9-0.9,8-3C505.6-818.3,507.4-826.6,503.8-833.9z"/>
			
				<path id="path24912-9-3_3_" inkscape:connector-curvature="0" sodipodi:nodetypes="ccccscccccsssscscsscszsccccscssscscsc" class="st3" d="
				M466.6-787.9c1.7,6.3,6.4,13.5,10.9,18.2c6.8,7.1,22.2,14.2,22.2,14.2c-0.2,9.3-4.3,17.6-11.3,24c6.7-1.1,10.9-0.5,22.9-9.1
				c6,11.5,15.3,17.2,26.2,20c-6.2-10.7-12.1-21-11.6-28.8c0,0,20.7,7.1,29.9,12.7c9.3,5.8,25.1,21.5,25.1,21.5
				c-1-11.7-4.2-18.9-9.5-27.3c9.9-1.1,17.6-3.5,23.7-12.1c-17.3,0.4-34.2,1.4-49.1-8.4c0,0,3.4,4.1,5.1,5.4c3.9,3,10,3.4,14.1,6
				c1.8,1.2,5.8,4.8,5.8,4.8s-5.4,0.8-8.2,0.7c-5.3-0.3-13.3-3-13.3-3s9.7,5.5,14.8,9.7c2.9,2.4,5.4,5.3,7.5,8.5c1.3,1.8,3,6,3,6
				s-11-9.9-17.2-13.8c-6-3.8-19-9.3-19-9.3s-7.8-3.3-11.4-5.4c-3.9-2.4-11.2-8.2-11.2-8.2c3.6,11.3,6.3,22.7,12.9,34l-8.5-6
				l-8.7-10.9c0,0-4.1,3-6.3,4.2c-2.4,1.3-7.5,3.3-7.5,3.3s3.8-5.5,4.8-8.5c1.4-3.9,0.9-9.9,0.9-9.9c0.2-3.5-2.1-10.4-3.9-12.6
				c-1.5-1.7-5.1-3.3-5.1-3.3s2.5,4.1,3,5.8c0.4,1.4,0,4.6,0,4.6s-12.4-7.1-17.8-11.7C474.8-777.1,466.6-787.9,466.6-787.9
				L466.6-787.9z"/>
			<path id="path25026_3_" inkscape:connector-curvature="0" sodipodi:nodetypes="csssc" class="st3" d="M481-837.9l-1.8,4.9
				c-0.7,1.8,2.4,2.9,3,4.9c0.4,1.3,0.5,2.9,0,4.2c-0.5,1.3-2.5,2.8-2.5,2.8l-1.2-4.5l-10.4-10.7l7.5-0.9L481-837.9z"/>
			<path id="path25030_3_" inkscape:connector-curvature="0" sodipodi:nodetypes="csssssccccc" class="st5" d="M478.9-816.1
				c0,0-0.8,3.7-0.4,5.5c0.4,2.1,1.7,3.6,2.1,5.8c0.2,1.6,0.8,3.4,0,4.9c-1.2,2.5-2.9,3.3-5.3,4.7c-2,1.2-5.8,0-6.1,2.1l-1.4,9
				l-1.8-7.9v-7.4l2.8-7L478.9-816.1L478.9-816.1z"/>
			<path id="path25032_3_" inkscape:connector-curvature="0" sodipodi:nodetypes="ccsssc" class="st5" d="M485.2-840.7l0.9,4.1
				c0,0,6.4-2,9.8-2.1c3,0,6,0.7,8.6,2.3c1.7,1.1,3.2,2.5,4.2,4.2c1.8,3.2,4.5,10,4.5,10l-0.4-9.3l-5.3-8.6l-9.8-3.9l-7.4,1
				L485.2-840.7z"/>
			<path id="path24912-9_3_" inkscape:connector-curvature="0" sodipodi:nodetypes="csssssccsssscsscccccsccccc" class="st6" d="
				M499.6-755.5c0,0-15.3-7.1-22.2-14.2c-4.6-4.7-9.1-12-10.9-18.2c-1.4-5.1-1-11.1,1.1-16c2.6-6.3,12.1-9.3,12.1-15.7
				c0,0,0.5-1.7-0.4-4c-2.2-5.2-11.3-12.1-11.3-12.1l12.4-2.2c0,0,5.5-3.5,9.5-4.8c4-1.2,8.8-1.4,12.7,0c3.9,1.4,6.4,4.3,8.4,8
				c2.4,4.6,2,10.2,1.4,15.3c-0.7,7.5-7.6,18.9-7.6,18.9s13.5,4.1,21.5,7.3c8.7,3.5,17.7,9.3,29.4,14.9c15,7.2,29.2,10.2,29.2,10.2
				c-12.4,6-25.7,5.3-38.9,5.1c14.9,9.8,31.9,8.8,49.1,8.4c-6.1,8.5-13.8,11-23.7,12.1c5.2,8.4,8.5,15.5,9.5,27.3
				c0,0-15.8-15.7-25.1-21.5c-9.2-5.7-29.9-12.7-29.9-12.7c-0.4,7.7,5.4,18.2,11.6,28.8c-10.9-2.8-20.2-8.5-26.2-20
				c-12.1,8.6-16.2,8-22.9,9.1C495.3-737.9,499.4-746,499.6-755.5L499.6-755.5z"/>
			<path id="path24965_3_" inkscape:connector-curvature="0" sodipodi:nodetypes="cccc" class="st3" d="M512.4-780
				c9.9,4.8,27.1,8.8,38,7.2c-10.3-1.4-26.9-5.2-36.4-9L512.4-780z"/>
			<path id="path24965-6_3_" inkscape:connector-curvature="0" sodipodi:nodetypes="cccc" class="st3" d="M513.2-785.7
				c9.9,4.8,24.6,8.2,35.5,6.5c-10.3-1.4-24.4-4.6-33.9-8.5L513.2-785.7z"/>
			<path id="path25024_3_" inkscape:connector-curvature="0" sodipodi:nodetypes="csssssss" class="st5" d="M503.4-794.4
				c2.4,1.8,4,5.4,3.4,8.4c-0.5,2.8-3.4,5.3-6.2,6.2c-2.5,0.8-5.4-0.4-7.8-1.5c-3.5-1.6-6.1-3.2-7.2-6.8c-0.5-1.6,0.3-3.8,1.5-5
				c2.4-2.2,4.2-2.7,7.5-2.8C497.7-796.1,501.1-796.3,503.4-794.4z"/>
			<g id="g25073_3_">
				
					<path id="path25034_3_" sodipodi:cx="617.4248" sodipodi:cy="235.53224" sodipodi:rx="1.7457818" sodipodi:ry="1.7457818" sodipodi:type="arc" d="
					M494.5-831.9c0,1.7-1.4,3-3,3c-1.7,0-3-1.4-3-3c0-1.7,1.4-3,3-3C493.2-835,494.5-833.6,494.5-831.9z"/>
				
					<path id="path25071_3_" inkscape:original="M 617.4375 233.78125 C 616.47333 233.78125 615.6875 234.56708 615.6875 235.53125 C 615.6875 236.49542 616.47333 237.28125 617.4375 237.28125 C 618.40167 237.28125 619.15625 236.49542 619.15625 235.53125 C 619.15625 234.56708 618.40167 233.78125 617.4375 233.78125 z " inkscape:radius="-1.0942917" sodipodi:type="inkscape:offset" class="st5" d="
					M490.8-833.8c-0.7,0-1.2,0.5-1.2,1.2s0.5,1.2,1.2,1.2s1.1-0.4,1.1-1.2C491.9-833.3,491.5-833.8,490.8-833.8z"/>
			</g>
		</g>
	</g>
	<g id="g25097_4_" transform="matrix(1.089,0,0,1.089,-143.93995,980.89408)">
		<path id="path25095_4_" inkscape:connector-curvature="0" sodipodi:nodetypes="ccccssccc" class="st1" d="M355-752.3
			c15.9-6.1,22.3-12.1,32.5-18.2l3.3-17.3c32.7,0.3,54.1-8.7,60.4-19.9c-0.4,0.7-11.2,2.3-26.4,2.5c-9.8,0.2-19.9,0.8-26.4-0.8
			c-11.7-2.6-37-1.5-37-1.5l5,30.8C360.5-767.4,358.1-760,355-752.3L355-752.3z"/>
		<g id="g25077_4_" transform="translate(53.056611,-8.7616422)">
			<path id="path24912_4_" inkscape:connector-curvature="0" sodipodi:nodetypes="csssssccsssscsscccccsccccc" class="st2" d="
				M325.7-756.9c0,0-15.3-7.1-22.2-14.2c-4.6-4.7-9.1-12-10.9-18.2c-1.4-5.1-1-11.1,1.1-16c2.6-6.3,11.6-9.3,11.6-15.7
				c0,0,1-1.7,0-4c-2.2-5.2-11.3-12.1-11.3-12.1l12.4-2.2c0,0,5.5-3.5,9.5-4.8c4-1.2,8.8-1.4,12.7,0c3.9,1.4,6.4,4.3,8.4,8
				c2.4,4.6,2,10.2,1.4,15.3c-0.7,7.5-7.6,18.9-7.6,18.9s13.5,4.1,21.5,7.3c8.7,3.5,17.7,9.3,29.4,14.9c15,7.2,29.2,10.2,29.2,10.2
				c-12.4,6-25.7,5.3-38.9,5.1c14.9,9.8,31.9,8.8,49.1,8.4c-6.1,8.5-13.8,11-23.7,12.1c5.2,8.4,8.5,15.5,9.5,27.3
				c0,0-15.8-15.7-25.1-21.5c-9.2-5.7-29.9-12.7-29.9-12.7c-0.4,7.7,5.4,18.2,11.6,28.8c-10.9-2.8-20.2-8.5-26.2-20
				c-12.1,8.6-16.2,8-22.9,9.1C321.4-739.3,325.5-747.4,325.7-756.9L325.7-756.9z"/>
			<path id="path24963_4_" inkscape:connector-curvature="0" sodipodi:nodetypes="ccccccccsscsscsscc" class="st3" d="M329.2-774
				l12.1,4.1l11.8,3.6l20.7,2.3l16.6-0.2l13.9-2.3l6.1-2.7l-16.6-5c0,0-5.3,3.2-8.4,3.7c-8.5,1.7-17.5,0.7-26-0.7
				c-7.4-1.1-21.4-6.2-21.4-6.2s3.4-3.4,4.6-6.6c0.9-2.2,0.3-5.1-1.2-6.8c-2.3-2.6-5.9-3.9-5.9-3.9s2.1,3.6,2.7,5.9
				c0.4,1.3-0.2,3.5-0.9,4.6c-2.7,4.9-12.5,8.9-12.5,8.9L329.2-774L329.2-774z"/>
			<path id="path24914_4_" inkscape:connector-curvature="0" sodipodi:nodetypes="cssssssssccssssssssc" class="st4" d="
				M319.8-800.3c0,0-2.3,0-5,0.3s-5.8,1.1-7.3,3c-1.3,1.7-2,3.4-2,5s0.7,3.2,1.5,4.9c1.8,3.5,6.2,6.7,11.8,9.6s12.6,5.5,19.7,7.7
				s14.3,3.9,20.8,5.1c3.3,0.5,5.8,0.8,8.4,1c2.5,0.2,5,0.4,6.6,0.3l-0.2-1.7c-1.5,0.1-4-0.1-6.5-0.3c-2.4-0.2-4.9-0.4-7.9-1
				c-6.2-1.1-13.5-2.8-20.5-5s-13.9-4.8-19.3-7.6s-9.6-6-11.1-8.8c-0.9-1.5-1.3-2.8-1.4-4.1c0-1.2,0.4-2.4,1.6-3.9
				c1-1.2,3-2.2,5.4-2.8L319.8-800.3z"/>
			<path id="path25028_4_" inkscape:connector-curvature="0" sodipodi:nodetypes="csssssc" class="st3" d="M310.6-818.1
				c0,0,1,3.4,2.3,4.7c1.7,1.8,4.2,3.4,6.7,3.7c2.8,0.3,6.1-0.1,8.4-1.8c2.3-1.6,3.6-4.5,4.5-7.2c1-2.8,1.4-6,0.9-9
				c-0.5-2.6-3.7-7.2-3.7-7.2l0.7-0.7l0.7,9l-1.4,7.5l-3.3,4.2l-4.2,1.4l-4.5-0.9L310.6-818.1L310.6-818.1z"/>
			<path id="path24916_4_" inkscape:connector-curvature="0" sodipodi:nodetypes="ccsscssc" class="st4" d="M329.9-835.3
				c0,4.8,1.6,12.2-3.6,18.8c-1.8,2-4.2,3.3-6.5,2.5c0,0-2.5-0.5-3.6-1.1c-2.1-1-5.5-4-5.5-4c2.7,4.2,5.8,6.4,8.8,6.8s5.9-0.9,8-3
				C331.7-819.7,333.6-828,329.9-835.3z"/>
			
				<path id="path24912-9-3_4_" inkscape:connector-curvature="0" sodipodi:nodetypes="ccccscccccsssscscsscszsccccscssscscsc" class="st3" d="
				M292.7-789.3c1.7,6.3,6.4,13.5,10.9,18.2c6.8,7.1,22.2,14.2,22.2,14.2c-0.2,9.3-4.3,17.6-11.3,24c6.7-1.1,10.9-0.5,22.9-9.1
				c6,11.5,15.3,17.2,26.2,20c-6.2-10.7-12.1-21-11.6-28.8c0,0,20.7,7.1,29.9,12.7c9.3,5.8,25.1,21.5,25.1,21.5
				c-1-11.7-4.2-18.9-9.5-27.3c9.9-1.1,17.6-3.5,23.7-12.1c-17.3,0.4-34.2,1.4-49.1-8.4c0,0,3.4,4.1,5.1,5.4c3.9,3,10,3.4,14.1,6
				c1.8,1.2,5.8,4.8,5.8,4.8s-5.4,0.8-8.2,0.7c-5.3-0.3-13.3-3-13.3-3s9.7,5.5,14.8,9.7c2.9,2.4,5.4,5.3,7.5,8.5c1.3,1.8,3,6,3,6
				s-11-9.9-17.2-13.8c-6-3.8-19-9.3-19-9.3s-7.8-3.3-11.4-5.4c-3.9-2.4-11.2-8.2-11.2-8.2c3.6,11.3,6.3,22.7,12.9,34l-8.5-6
				l-8.7-10.9c0,0-4.1,3-6.3,4.2c-2.4,1.3-7.5,3.3-7.5,3.3s3.8-5.5,4.8-8.5c1.4-3.9,0.9-9.9,0.9-9.9c0.2-3.5-2.1-10.4-3.9-12.6
				c-1.5-1.7-5.1-3.3-5.1-3.3s2.5,4.1,3,5.8c0.4,1.4,0,4.6,0,4.6s-12.4-7.1-17.8-11.7C301-778.5,292.7-789.3,292.7-789.3
				L292.7-789.3z"/>
			<path id="path25026_4_" inkscape:connector-curvature="0" sodipodi:nodetypes="csssc" class="st3" d="M307.2-839.3l-1.8,4.9
				c-0.7,1.8,2.4,2.9,3,4.9c0.4,1.3,0.5,2.9,0,4.2c-0.5,1.3-2.5,2.8-2.5,2.8l-1.2-4.5l-10.4-10.7l7.5-0.9L307.2-839.3z"/>
			<path id="path25030_4_" inkscape:connector-curvature="0" sodipodi:nodetypes="csssssccccc" class="st5" d="M305-817.4
				c0,0-0.8,3.7-0.4,5.5c0.4,2.1,1.7,3.6,2.1,5.8c0.2,1.6,0.8,3.4,0,4.9c-1.2,2.5-2.9,3.3-5.3,4.7c-2,1.2-5.8,0-6.1,2.1l-1.4,9
				l-1.8-7.9v-7.4l2.8-7L305-817.4L305-817.4z"/>
			<path id="path25032_4_" inkscape:connector-curvature="0" sodipodi:nodetypes="ccsssc" class="st5" d="M311.3-842.1l0.9,4.1
				c0,0,6.4-2,9.8-2.1c3,0,6,0.7,8.6,2.3c1.7,1.1,3.2,2.5,4.2,4.2c1.8,3.2,4.5,10,4.5,10l-0.4-9.3l-5.3-8.6l-9.8-3.9l-7.4,1
				L311.3-842.1z"/>
			<path id="path24912-9_4_" inkscape:connector-curvature="0" sodipodi:nodetypes="csssssccsssscsscccccsccccc" class="st6" d="
				M325.7-756.9c0,0-15.3-7.1-22.2-14.2c-4.6-4.7-9.1-12-10.9-18.2c-1.4-5.1-1-11.1,1.1-16c2.6-6.3,12.1-9.3,12.1-15.7
				c0,0,0.5-1.7-0.4-4c-2.2-5.2-11.3-12.1-11.3-12.1l12.4-2.2c0,0,5.5-3.5,9.5-4.8c4-1.2,8.8-1.4,12.7,0c3.9,1.4,6.4,4.3,8.4,8
				c2.4,4.6,2,10.2,1.4,15.3c-0.7,7.5-7.6,18.9-7.6,18.9s13.5,4.1,21.5,7.3c8.7,3.5,17.7,9.3,29.4,14.9c15,7.2,29.2,10.2,29.2,10.2
				c-12.4,6-25.7,5.3-38.9,5.1c14.9,9.8,31.9,8.8,49.1,8.4c-6.1,8.5-13.8,11-23.7,12.1c5.2,8.4,8.5,15.5,9.5,27.3
				c0,0-15.8-15.7-25.1-21.5c-9.2-5.7-29.9-12.7-29.9-12.7c-0.4,7.7,5.4,18.2,11.6,28.8c-10.9-2.8-20.2-8.5-26.2-20
				c-12.1,8.6-16.2,8-22.9,9.1C321.4-739.3,325.5-747.4,325.7-756.9L325.7-756.9z"/>
			<path id="path24965_4_" inkscape:connector-curvature="0" sodipodi:nodetypes="cccc" class="st3" d="M338.6-781.4
				c9.9,4.8,27.1,8.8,38,7.2c-10.3-1.4-26.9-5.2-36.4-9L338.6-781.4z"/>
			<path id="path24965-6_4_" inkscape:connector-curvature="0" sodipodi:nodetypes="cccc" class="st3" d="M339.3-787.1
				c9.9,4.8,24.6,8.2,35.5,6.5c-10.3-1.4-24.4-4.6-33.9-8.5L339.3-787.1z"/>
			<path id="path25024_4_" inkscape:connector-curvature="0" sodipodi:nodetypes="csssssss" class="st5" d="M329.6-795.8
				c2.4,1.8,4,5.4,3.4,8.4c-0.5,2.8-3.4,5.3-6.2,6.2c-2.5,0.8-5.4-0.4-7.8-1.5c-3.5-1.6-6.1-3.2-7.2-6.8c-0.5-1.6,0.3-3.8,1.5-5
				c2.4-2.2,4.2-2.7,7.5-2.8C323.8-797.4,327.3-797.7,329.6-795.8z"/>
			<g id="g25073_4_">
				
					<path id="path25034_4_" sodipodi:cx="617.4248" sodipodi:cy="235.53224" sodipodi:rx="1.7457818" sodipodi:ry="1.7457818" sodipodi:type="arc" d="
					M320.6-833.3c0,1.7-1.4,3-3,3c-1.7,0-3-1.4-3-3c0-1.7,1.4-3,3-3C319.3-836.4,320.6-834.9,320.6-833.3z"/>
				
					<path id="path25071_4_" inkscape:original="M 617.4375 233.78125 C 616.47333 233.78125 615.6875 234.56708 615.6875 235.53125 C 615.6875 236.49542 616.47333 237.28125 617.4375 237.28125 C 618.40167 237.28125 619.15625 236.49542 619.15625 235.53125 C 619.15625 234.56708 618.40167 233.78125 617.4375 233.78125 z " inkscape:radius="-1.0942917" sodipodi:type="inkscape:offset" class="st5" d="
					M316.9-835.2c-0.7,0-1.2,0.5-1.2,1.2s0.5,1.2,1.2,1.2s1.1-0.4,1.1-1.2C318-834.7,317.6-835.2,316.9-835.2z"/>
			</g>
		</g>
	</g>
	<g id="g25097_5_" transform="matrix(1.089,0,0,1.089,-143.93995,980.89408)">
		<path id="path25095_5_" inkscape:connector-curvature="0" sodipodi:nodetypes="ccccssccc" class="st1" d="M181.2-750.9
			c15.9-6.1,22.3-12.1,32.5-18.2l3.3-17.3c32.7,0.3,54.1-8.7,60.4-19.9c-0.4,0.7-11.2,2.3-26.4,2.5c-9.8,0.2-19.9,0.8-26.4-0.8
			c-11.7-2.6-37-1.5-37-1.5l5,30.8C186.6-766,184.2-758.7,181.2-750.9L181.2-750.9z"/>
		<g id="g25077_5_" transform="translate(53.056611,-8.7616422)">
			<path id="path24912_5_" inkscape:connector-curvature="0" sodipodi:nodetypes="csssssccsssscsscccccsccccc" class="st2" d="
				M151.9-755.5c0,0-15.3-7.1-22.2-14.2c-4.6-4.7-9.1-12-10.9-18.2c-1.4-5.1-1-11.1,1.1-16c2.6-6.3,11.6-9.3,11.6-15.7
				c0,0,1-1.7,0-4c-2.2-5.2-11.3-12.1-11.3-12.1l12.4-2.2c0,0,5.5-3.5,9.5-4.8c4-1.2,8.8-1.4,12.7,0c3.9,1.4,6.4,4.3,8.4,8
				c2.4,4.6,2,10.2,1.4,15.3c-0.7,7.5-7.6,18.9-7.6,18.9s13.5,4.1,21.5,7.3c8.7,3.5,17.7,9.3,29.4,14.9c15,7.2,29.2,10.2,29.2,10.2
				c-12.4,6-25.7,5.3-38.9,5.1c14.9,9.8,31.9,8.8,49.1,8.4c-6.1,8.5-13.8,11-23.7,12.1c5.2,8.4,8.5,15.5,9.5,27.3
				c0,0-15.8-15.7-25.1-21.5c-9.2-5.7-29.9-12.7-29.9-12.7c-0.4,7.7,5.4,18.2,11.6,28.8c-10.9-2.8-20.2-8.5-26.2-20
				c-12.1,8.6-16.2,8-22.9,9.1C147.5-737.9,151.7-746,151.9-755.5L151.9-755.5z"/>
			<path id="path24963_5_" inkscape:connector-curvature="0" sodipodi:nodetypes="ccccccccsscsscsscc" class="st3" d="M155.4-772.6
				l12.1,4.1l11.8,3.6l20.7,2.3l16.6-0.2l13.9-2.3l6.1-2.7l-16.6-5c0,0-5.3,3.2-8.4,3.7c-8.5,1.7-17.5,0.7-26-0.7
				c-7.4-1.1-21.4-6.2-21.4-6.2s3.4-3.4,4.6-6.6c0.9-2.2,0.3-5.1-1.2-6.8c-2.3-2.6-5.9-3.9-5.9-3.9s2.1,3.6,2.7,5.9
				c0.4,1.3-0.2,3.5-0.9,4.6C160.8-778,151-774,151-774L155.4-772.6L155.4-772.6z"/>
			<path id="path24914_5_" inkscape:connector-curvature="0" sodipodi:nodetypes="cssssssssccssssssssc" class="st4" d="
				M145.9-798.9c0,0-2.3,0-5,0.3s-5.8,1.1-7.3,3c-1.3,1.7-2,3.4-2,5s0.7,3.2,1.5,4.9c1.8,3.5,6.2,6.7,11.8,9.6
				c5.7,2.8,12.6,5.5,19.7,7.7c7.1,2.2,14.3,3.9,20.8,5.1c3.3,0.5,5.8,0.8,8.4,1c2.5,0.2,5,0.4,6.6,0.3l-0.2-1.7
				c-1.5,0.1-4-0.1-6.5-0.3c-2.4-0.2-4.9-0.4-7.9-1c-6.2-1.1-13.5-2.8-20.5-5c-7.1-2.2-13.9-4.8-19.3-7.6c-5.4-2.8-9.6-6-11.1-8.8
				c-0.9-1.5-1.3-2.8-1.4-4.1c0-1.2,0.4-2.4,1.6-3.9c1-1.2,3-2.2,5.4-2.8L145.9-798.9z"/>
			<path id="path25028_5_" inkscape:connector-curvature="0" sodipodi:nodetypes="csssssc" class="st3" d="M136.8-816.7
				c0,0,1,3.4,2.3,4.7c1.7,1.8,4.2,3.4,6.7,3.7c2.8,0.3,6.1-0.1,8.4-1.8c2.3-1.6,3.6-4.5,4.5-7.2c1-2.8,1.4-6,0.9-9
				c-0.5-2.6-3.7-7.2-3.7-7.2l0.7-0.7l0.7,9l-1.4,7.5l-3.3,4.2l-4.2,1.4l-4.5-0.9L136.8-816.7L136.8-816.7z"/>
			<path id="path24916_5_" inkscape:connector-curvature="0" sodipodi:nodetypes="ccsscssc" class="st4" d="M156-833.9
				c0,4.8,1.6,12.2-3.6,18.8c-1.8,2-4.2,3.3-6.5,2.5c0,0-2.5-0.5-3.6-1.1c-2.1-1-5.5-4-5.5-4c2.7,4.2,5.8,6.4,8.8,6.8
				c3,0.4,5.9-0.9,8-3C157.9-818.3,159.7-826.6,156-833.9z"/>
			
				<path id="path24912-9-3_5_" inkscape:connector-curvature="0" sodipodi:nodetypes="ccccscccccsssscscsscszsccccscssscscsc" class="st3" d="
				M118.8-787.9c1.7,6.3,6.4,13.5,10.9,18.2c6.8,7.1,22.2,14.2,22.2,14.2c-0.2,9.3-4.3,17.6-11.3,24c6.7-1.1,10.9-0.5,22.9-9.1
				c6,11.5,15.3,17.2,26.2,20c-6.2-10.7-12.1-21-11.6-28.8c0,0,20.7,7.1,29.9,12.7c9.3,5.8,25.1,21.5,25.1,21.5
				c-1-11.7-4.2-18.9-9.5-27.3c9.9-1.1,17.6-3.5,23.7-12.1c-17.3,0.4-34.2,1.4-49.1-8.4c0,0,3.4,4.1,5.1,5.4c3.9,3,10,3.4,14.1,6
				c1.8,1.2,5.8,4.8,5.8,4.8s-5.4,0.8-8.2,0.7c-5.3-0.3-13.3-3-13.3-3s9.7,5.5,14.8,9.7c2.9,2.4,5.4,5.3,7.5,8.5c1.3,1.8,3,6,3,6
				s-11-9.9-17.2-13.8c-6-3.8-19-9.3-19-9.3s-7.8-3.3-11.4-5.4c-3.9-2.4-11.2-8.2-11.2-8.2c3.6,11.3,6.3,22.7,12.9,34l-8.5-6
				l-8.7-10.9c0,0-4.1,3-6.3,4.2c-2.4,1.3-7.5,3.3-7.5,3.3s3.8-5.5,4.8-8.5c1.4-3.9,0.9-9.9,0.9-9.9c0.2-3.5-2.1-10.4-3.9-12.6
				c-1.5-1.7-5.1-3.3-5.1-3.3s2.5,4.1,3,5.8c0.4,1.4,0,4.6,0,4.6s-12.4-7.1-17.8-11.7C127.1-777.1,118.8-787.9,118.8-787.9
				L118.8-787.9z"/>
			<path id="path25026_5_" inkscape:connector-curvature="0" sodipodi:nodetypes="csssc" class="st3" d="M133.3-837.9l-1.8,4.9
				c-0.7,1.8,2.4,2.9,3,4.9c0.4,1.3,0.5,2.9,0,4.2s-2.5,2.8-2.5,2.8l-1.2-4.5l-10.4-10.7l7.5-0.9L133.3-837.9z"/>
			<path id="path25030_5_" inkscape:connector-curvature="0" sodipodi:nodetypes="csssssccccc" class="st5" d="M131.1-816.1
				c0,0-0.8,3.7-0.4,5.5c0.4,2.1,1.7,3.6,2.1,5.8c0.2,1.6,0.8,3.4,0,4.9c-1.2,2.5-2.9,3.3-5.3,4.7c-2,1.2-5.8,0-6.1,2.1l-1.4,9
				l-1.8-7.9v-7.4l2.8-7L131.1-816.1L131.1-816.1z"/>
			<path id="path25032_5_" inkscape:connector-curvature="0" sodipodi:nodetypes="ccsssc" class="st5" d="M137.4-840.7l0.9,4.1
				c0,0,6.4-2,9.8-2.1c3,0,6,0.7,8.6,2.3c1.7,1.1,3.2,2.5,4.2,4.2c1.8,3.2,4.5,10,4.5,10l-0.4-9.3l-5.3-8.6l-9.8-3.9l-7.4,1
				L137.4-840.7z"/>
			<path id="path24912-9_5_" inkscape:connector-curvature="0" sodipodi:nodetypes="csssssccsssscsscccccsccccc" class="st6" d="
				M151.9-755.5c0,0-15.3-7.1-22.2-14.2c-4.6-4.7-9.1-12-10.9-18.2c-1.4-5.1-1-11.1,1.1-16c2.6-6.3,12.1-9.3,12.1-15.7
				c0,0,0.5-1.7-0.4-4c-2.2-5.2-11.3-12.1-11.3-12.1l12.4-2.2c0,0,5.5-3.5,9.5-4.8c4-1.2,8.8-1.4,12.7,0c3.9,1.4,6.4,4.3,8.4,8
				c2.4,4.6,2,10.2,1.4,15.3c-0.7,7.5-7.6,18.9-7.6,18.9s13.5,4.1,21.5,7.3c8.7,3.5,17.7,9.3,29.4,14.9c15,7.2,29.2,10.2,29.2,10.2
				c-12.4,6-25.7,5.3-38.9,5.1c14.9,9.8,31.9,8.8,49.1,8.4c-6.1,8.5-13.8,11-23.7,12.1c5.2,8.4,8.5,15.5,9.5,27.3
				c0,0-15.8-15.7-25.1-21.5c-9.2-5.7-29.9-12.7-29.9-12.7c-0.4,7.7,5.4,18.2,11.6,28.8c-10.9-2.8-20.2-8.5-26.2-20
				c-12.1,8.6-16.2,8-22.9,9.1C147.5-737.9,151.7-746,151.9-755.5L151.9-755.5z"/>
			<path id="path24965_5_" inkscape:connector-curvature="0" sodipodi:nodetypes="cccc" class="st3" d="M164.7-780
				c9.9,4.8,27.1,8.8,38,7.2c-10.3-1.4-26.9-5.2-36.4-9L164.7-780z"/>
			<path id="path24965-6_5_" inkscape:connector-curvature="0" sodipodi:nodetypes="cccc" class="st3" d="M165.5-785.7
				c9.9,4.8,24.6,8.2,35.5,6.5c-10.3-1.4-24.4-4.6-33.9-8.5L165.5-785.7z"/>
			<path id="path25024_5_" inkscape:connector-curvature="0" sodipodi:nodetypes="csssssss" class="st5" d="M155.7-794.4
				c2.4,1.8,4,5.4,3.4,8.4c-0.5,2.8-3.4,5.3-6.2,6.2c-2.5,0.8-5.4-0.4-7.8-1.5c-3.5-1.6-6.1-3.2-7.2-6.8c-0.5-1.6,0.3-3.8,1.5-5
				c2.4-2.2,4.2-2.7,7.5-2.8C149.9-796.1,153.4-796.3,155.7-794.4z"/>
			<g id="g25073_5_">
				
					<path id="path25034_5_" sodipodi:cx="617.4248" sodipodi:cy="235.53224" sodipodi:rx="1.7457818" sodipodi:ry="1.7457818" sodipodi:type="arc" d="
					M146.8-831.9c0,1.7-1.4,3-3,3c-1.7,0-3-1.4-3-3c0-1.7,1.4-3,3-3C145.5-835,146.8-833.6,146.8-831.9z"/>
				
					<path id="path25071_5_" inkscape:original="M 617.4375 233.78125 C 616.47333 233.78125 615.6875 234.56708 615.6875 235.53125 C 615.6875 236.49542 616.47333 237.28125 617.4375 237.28125 C 618.40167 237.28125 619.15625 236.49542 619.15625 235.53125 C 619.15625 234.56708 618.40167 233.78125 617.4375 233.78125 z " inkscape:radius="-1.0942917" sodipodi:type="inkscape:offset" class="st5" d="
					M143.1-833.8c-0.7,0-1.2,0.5-1.2,1.2s0.5,1.2,1.2,1.2c0.7,0,1.1-0.4,1.1-1.2C144.2-833.3,143.7-833.8,143.1-833.8z"/>
			</g>
		</g>
	</g>
</g>
<g id="layer2" inkscape:groupmode="layer" inkscape:label="Reflet final" sodipodi:insensitive="true">
	
		<radialGradient id="path2875_2_" cx="-47.1462" cy="606.4777" r="300" gradientTransform="matrix(1.3532 0 0 -1.3489 287.9344 1036.1714)" gradientUnits="userSpaceOnUse">
		<stop  offset="0" style="stop-color:#FFFFFF;stop-opacity:0.3137"/>
		<stop  offset="0.19" style="stop-color:#FFFFFF;stop-opacity:0.251"/>
		<stop  offset="0.6" style="stop-color:#6B6B6B;stop-opacity:0.1255"/>
		<stop  offset="1" style="stop-color:#000000;stop-opacity:0.1255"/>
	</radialGradient>
	<path id="path2875" inkscape:export-xdpi="144" inkscape:export-ydpi="144" sodipodi:nodetypes="cccccc" class="st7" d="
		M302.1,657.1c0,0,298.5-112.3,298.5-397.8s0-258.6,0-258.6H3.6v258.6C3.6,544.8,302.1,657.1,302.1,657.1z"/>
</g>
</svg>
