<?xml version="1.0" encoding="UTF-8" standalone="no"?>
<!-- Created with Inkscape (http://www.inkscape.org/) -->

<svg
   width="240"
   height="180"
   id="svg6854"
   version="1.1"
   inkscape:version="1.2.2 (b0a8486541, 2022-12-01)"
   sodipodi:docname="MartletSable_(English)_heavy_cleanup.svg"
   xmlns:inkscape="http://www.inkscape.org/namespaces/inkscape"
   xmlns:sodipodi="http://sodipodi.sourceforge.net/DTD/sodipodi-0.dtd"
   xmlns="http://www.w3.org/2000/svg"
   xmlns:svg="http://www.w3.org/2000/svg"
   xmlns:rdf="http://www.w3.org/1999/02/22-rdf-syntax-ns#"
   xmlns:cc="http://creativecommons.org/ns#"
   xmlns:dc="http://purl.org/dc/elements/1.1/">
  <g
     id="martlet"
     transform="translate(-247.51454,-526.68651)">
    <path
       style="fill:#000000"
       d="m 295.75175,637.3892 c -0.40113,4.01418 0.27583,6.22446 -1.97461,15.64649 l -0.002,0.008 -0.002,0.008 c -1.3974,6.87951 -4.15699,12.28037 -8.14258,17.0293 l 0.66211,0.73633 6.95703,-4.69922 c 2.52606,-1.68995 4.3892,-4.04153 5.87109,-6.07812 0.88696,-1.22251 1.6525,-2.50975 2.33399,-3.71484 1.49338,8.07389 2.35359,16.25603 0.82031,22.96484 l 0.86914,0.43555 c 0,0 2.76542,-3.22958 3.93359,-5.13281 1.00734,-1.64114 2.39649,-4.99805 2.39649,-4.99805 l 0.002,-0.002 v -0.002 c 0.89764,-2.21542 0.92139,-4.77252 0.84766,-7.34765 0.9497,2.46805 2.34598,5.98141 3.67187,8.43945 2.84383,5.27209 9.86524,14.76758 9.86524,14.76758 l 0.8789,-0.45117 c 0,0 -4.88854,-15.21964 -6.4082,-22.95899 -0.92259,-4.69855 -1.6183,-13.28102 -1.73437,-14.73437 1.19637,0.699 6.05496,3.51716 9.27734,4.71679 3.74572,1.39446 10.99826,2.71923 11.5,2.81055 0.15406,0.46174 3.19475,9.59008 3.89453,14.39063 0.95695,6.56214 0.49414,20.16211 0.49414,20.16211 l 0.94531,0.24414 c 0,0 3.9118,-7.64705 5.24024,-11.83985 0.92042,-2.90505 1.63787,-7.57969 1.87109,-9.14648 1.02238,1.33712 5.05839,6.63956 7.07227,9.97851 2.52214,4.18166 6.66601,13.23827 6.66601,13.23829 l 0.95508,-0.23438 c 0,0 -0.5287,-10.62201 -1.86719,-15.88477 -0.71267,-2.80213 -2.22863,-6.43325 -3.54492,-9.39843 0.75019,1.00509 0.78194,1.10367 1.82032,2.41992 2.60529,3.3025 5.84208,7.13411 8.48242,9.32226 2.6553,2.20054 7.04844,4.68448 10.79882,6.64258 3.75041,1.9581 6.85157,3.37891 6.85157,3.37891 l 0.55078,-0.82031 c 0,0 -10.20929,-9.54137 -14.61914,-14.81836 -3.73022,-4.46372 -10.42759,-14.53451 -11.27344,-15.8086 1.45058,-0.0113 10.57877,-0.0649 16.22266,0.77344 6.10132,0.90626 13.76363,2.87443 19.68164,4.69727 7.09209,2.18449 17.08994,7.36241 25.2832,11.99023 14.41765,8.42742 28.60003,17.25579 42.85361,25.95908 l 0.64648,-0.74414 c 0,0 -13.84191,-16.96391 -22.17578,-24.17773 -7.18362,-6.21817 -21.53975,-14.93675 -23.7793,-16.29102 2.5622,-0.0178 16.7791,-0.14746 24.85352,-1.49609 9.51256,-1.58882 27.625,-7.74414 27.625,-7.74414 l -0.15235,-0.97461 c 0,0 -38.92396,-0.65359 -57.60937,-4.93359 -8.9507,-2.05021 -23.68071,-8.41683 -26.01367,-9.43555 7.63458,-2.828 23.58983,-10.43273 23.58983,-10.43273 l 10.27732,-6.01672 -0.33984,-0.92383 c 0,0 -23.10127,4.10611 -34.67969,4.49414 -6.98425,0.23407 -18.62877,-0.94546 -21.87109,-1.2832 3.12976,-1.02748 14.59414,-4.83703 21.12109,-8.27539 10.02033,-5.27866 27.82422,-19.0469 27.82422,-19.04687 l -0.47656,-0.86524 c 0,0 -25.50552,9.19386 -38.66602,11.47656 -9.0108,1.56295 -18.64535,4.52579 -26.99414,1.52344 -2.59136,-0.9319 -5.84888,-3.89059 -8.38476,-6.61914 -5.38568,-6.14719 -10.2801,-12.71351 -15.32823,-19.13881 -1.11258,-2.88539 -1.2191,-5.88846 -0.002,-8.56641 l 5.03234,-11.09079 c 0,0 0.91523,-5.28871 0.74719,-8.14353 -0.0308,-0.52349 -0.26818,-1.37373 -0.72266,-2.57032 -0.45448,-1.19659 -1.13025,-2.68051 -2.05469,-4.23632 -1.84888,-3.1116 -4.68894,-6.51957 -8.72851,-8.4043 -3.20706,-1.4963 -6.70346,-3.01125 -9.69301,-2.9288 -2.98955,0.0824 -4.97322,0.57533 -6.45532,0.97702 -0.74106,0.20084 -1.36065,0.37856 -1.90873,0.51475 -6.15213,3.01264 -9.07449,5.70527 -13.39311,13.2003 l -25.92067,-3.70467 c -1.06291,0.36883 24.1952,14.49357 24.1952,14.49357 l 2.44288,14.52687 c -9.94447,7.01628 -22.74336,21.0603 -15.64915,44.51972 5.36311,11.80966 11.74447,12.00631 22.64158,19.62772 z"
       id="body"
       sodipodi:nodetypes="cccccccccccsccccsccscsccccscsccscsssccscsscccscsccsccccscsccssccccsssscsccccccc" />
    <circle
       style="fill:#ffffff;"
       id="eye"
       cx="304.87274"
       cy="549.28345"
       r="3.879" />
    <circle
       style="fill:#000000;"
       id="pupil"
       cx="304.853"
       cy="549.34784"
       r="1.646" />
    <path
       style="fill:#ffffff"
       d="m 315.80909,581.7583 c -4.75456,0.64958 -10.05272,1.66172 -13.5,5 -4.455,4.31414 -4.66423,11.10075 -2.5,16.5 1.77354,4.42457 4.45099,7.67066 8.5,11.5 4.04901,3.82934 10.28725,7.66118 16,10.5 7.12835,3.54227 14.59283,6.73867 22.34434,8.54842 8.33448,1.94586 17.09822,2.59391 25.65566,2.45158 5.562,-0.0925 11.41161,-0.7572 16.83919,-1.97612 3.39553,-0.76257 10,-3 10,-3 -78.09073,21.27508 -135.31575,-51.81921 -71.33919,-48.52388 0,0 -8.02308,-1.54334 -12,-1 z"
       id="wingline"
       inkscape:connector-curvature="0"
       sodipodi:nodetypes="ssszssssccs" />
    <path
       style="fill:#ffffff;"
       d="m 340.54864,598.3132 c 3.94825,2.30517 18.49082,22.073 30.11716,22.25048 0,0 -3.37068,-0.31367 -4.54099,-0.44384 -10.06187,-1.11916 -25.57617,-21.80664 -25.57617,-21.80664 z"
       id="backline"
       sodipodi:nodetypes="ccsc" />
  </g>
</svg>
