<?xml version="1.0" encoding="utf-8"?>
<!-- Generator: Adobe Illustrator 19.2.0, SVG Export Plug-In . SVG Version: 6.00 Build 0)  -->
<svg version="1.1"
	 id="svg2" xmlns:cc="http://creativecommons.org/ns#" xmlns:dc="http://purl.org/dc/elements/1.1/" xmlns:rdf="http://www.w3.org/1999/02/22-rdf-syntax-ns#" xmlns:svg="http://www.w3.org/2000/svg"
	 xmlns="http://www.w3.org/2000/svg" xmlns:xlink="http://www.w3.org/1999/xlink" x="0px" y="0px" viewBox="0 0 408.9 478.4"
	 style="enable-background:new 0 0 408.9 478.4;" xml:space="preserve">
<style type="text/css">
	.st0{fill:#FFE25C;stroke:#937901;stroke-width:2;}
	.st1{fill:#E94545;stroke:#800000;}
	.st2{fill:#E94545;stroke:#800000;stroke-width:1;}
	.st3{fill:#CD0707;stroke:#800000;}
	.st4{fill:#E94545;}
	.st5{fill:#EE6C6C;}
	.st6{fill:#CD0707;}
	.st7{fill:none;stroke:#800000;}
	.st8{fill:#377BC8;stroke:#2C5AA0;}
	.st9{fill:#FFFFFF;}
	.st10{fill:#2B2200;}
	.st11{fill:#9C0000;}
	.st12{fill:#377BC8;stroke:#2C5AA0;stroke-width:1;}
</style>
<g id="layer1" transform="translate(-421.57438,-34.030188)">
	<g id="g11618-9-0-2" transform="matrix(1.1266249,0,0,1.1266249,186.79382,233.42356)">
	</g>
	<g id="g13998">
	</g>
	<g id="g16963-90-4" transform="matrix(0.80004226,-0.59994365,0.59994365,0.80004226,1070.5064,934.71498)">
	</g>
	<g id="g8812">
		<path id="path8124" class="st0" d="M795.9,394.6c29.3-39.9,32.5-90.8,33.5-156.2V35H626H422.6v203.4c1,65.3,4.2,116.3,33.5,156.2
			c35.3,48,94,82.7,169.9,116.7C702,477.3,760.7,442.7,795.9,394.6L795.9,394.6z"/>
		<path id="path39862-0-2-4-44" class="st1" d="M625.6,41.4c-1.1,1.9-4.5,4.7-4.1,9.7c-2.3-3-4.5-3.4-8.1-4.3c0,0,2.6,5.1,4,8.3
			c0.8,1.8,1.9,5.1,1.9,5.1h12.5c0.6-1.7,1.2-3.4,1.9-5.1c1.3-3.2,4-8.3,4-8.3c-3.6,0.9-5.8,1.3-8.1,4.3
			C630.1,46.2,626.8,43.3,625.6,41.4z M466.1,42.9c-2.5,0-5.1,0.8-7.1,2.6c-2.9,2.5-5.2,8.5-4.1,17.1c4.3-8.7,7.9-11.3,11.1-11.5
			c2-0.1,4.7,0.4,6.5,1.9c3.7,3,4.2,5,8.2,6.3c2.4,0.7,5,0.2,8-3c-9.9,1.9-10.2-7.1-16-11.3C471.1,43.6,468.7,42.9,466.1,42.9z
			 M785.1,42.9c-2.5,0-5,0.7-6.7,1.9c-5.8,4.3-6.1,13.3-16,11.3c3,3.2,5.6,3.8,8,3c4-1.2,4.5-3.3,8.2-6.3c1.8-1.5,4.5-2,6.5-1.9
			c3.2,0.2,6.8,2.7,11.1,11.5c1.1-8.6-1.3-14.5-4.1-17.1C790.2,43.8,787.6,43,785.1,42.9z M448.5,64.2c-6.1,0.1-10.5,2.1-12.5,4.4
			c-3.5,3.9-3.1,10.4-0.6,13.7c4.3,5.8,13.3,6.1,11.3,16c3.2-3,3.8-5.6,3-8c-1.2-4-3.3-4.5-6.3-8.2c-1.5-1.8-2-4.5-1.8-6.5
			c0.2-3.2,2.7-6.8,11.5-11.1C451.5,64.2,449.9,64.2,448.5,64.2z M802.7,64.2c-1.4,0-2.9,0.1-4.5,0.3c8.7,4.3,11.3,7.9,11.5,11.1
			c0.1,2-0.4,4.7-1.9,6.5c-3,3.7-5,4.2-6.3,8.2c-0.7,2.4-0.2,5,3,8c-1.9-9.9,7.1-10.2,11.3-16c2.5-3.4,2.8-9.8-0.6-13.7
			C813.2,66.3,808.9,64.3,802.7,64.2z M482.1,91.1l0.2,9c0.8,1.6,1.5,3.1,2.2,4.7c1.3,3.1,2.9,8.4,2.9,8.4c1.8-3.1,3.1-4.8,2.6-8.4
			c3.1,3.7,7.3,3.3,9.4,3.8c-0.5-2.1-0.2-6.3-3.8-9.4c3.6,0.5,5.3-0.8,8.4-2.6c0,0-5.3-1.7-8.4-2.9c-1.7-0.7-4.7-2.2-4.7-2.2
			S482.1,91.1,482.1,91.1z M769.1,91.1l-8.7,0.5c0,0-3,1.5-4.7,2.2c-3.1,1.2-8.4,2.9-8.4,2.9c3.1,1.8,4.8,3.1,8.4,2.6
			c-3.7,3.1-3.3,7.3-3.8,9.4c2.1-0.5,6.3-0.2,9.4-3.8c-0.5,3.6,0.8,5.3,2.6,8.4c0,0,1.7-5.3,2.9-8.4c0.7-1.6,1.4-3.2,2.2-4.7
			L769.1,91.1z M594.7,92.4c-1.7,0.1-3.6,0.8-5.8,2.6c10.5-0.6,9.5,8.7,14.9,13.9c3.1,3,9.7,4.3,14.3,1.2c3.3-2.2,6.6-8.1,6.6-17
			c-5.7,8.4-9.7,10.6-13,10.3c-2.1-0.2-4.8-1-6.5-2.8c-3.4-3.6-3.7-5.8-7.6-7.6C596.6,92.6,595.7,92.3,594.7,92.4z M656.6,92.4
			c-1,0-2,0.2-2.9,0.6c-4,1.8-4.2,4-7.6,7.6c-1.7,1.8-4.4,2.6-6.5,2.8c-3.3,0.3-7.4-1.9-13-10.3c0.1,9,3.3,14.8,6.6,17
			c4.5,3,11.1,1.8,14.3-1.2c5.4-5.2,4.4-14.5,14.9-13.9C660.2,93.2,658.3,92.4,656.6,92.4z M486,191.6c-2.9,3.5-3.1,6.3-2,8.7
			c1.8,4,4,4.2,7.6,7.6c1.8,1.7,2.6,4.4,2.8,6.5c0.3,3.3-1.9,7.4-10.3,13c9-0.1,14.8-3.3,17-6.6c3-4.5,1.8-11.1-1.2-14.3
			C494.7,201.1,485.4,202.1,486,191.6z M765.2,191.6c0.6,10.5-8.7,9.5-13.9,14.9c-3,3.1-4.3,9.7-1.2,14.3c2.2,3.3,8.1,6.6,17,6.6
			c-8.4-5.7-10.6-9.7-10.3-13c0.2-2.1,1-4.8,2.8-6.5c3.6-3.4,5.8-3.7,7.6-7.6C768.3,197.9,768.1,195.1,765.2,191.6z M437.9,216.2
			c0.9,3.6,1.3,5.8,4.3,8.1c-5-0.4-7.8,2.9-9.7,4.1c1.9,1.1,4.7,4.5,9.7,4.1c-3,2.3-3.4,4.5-4.3,8.1c0,0,5.1-2.6,8.3-4
			c1.8-0.8,5.1-1.9,5.1-1.9v-12.5c-1.7-0.6-3.4-1.2-5.1-1.9C443,218.9,437.9,216.2,437.9,216.2z M813.4,216.2c0,0-5.1,2.7-8.3,4
			c-1.7,0.7-3.4,1.3-5.1,1.9v12.5c0,0,3.3,1.1,5.1,1.9c3.2,1.4,8.3,4,8.3,4c-0.9-3.6-1.3-5.8-4.3-8.1c5,0.4,7.8-2.9,9.7-4.1
			c-1.9-1.1-4.7-4.5-9.7-4.1C812.1,222,812.4,219.8,813.4,216.2L813.4,216.2z M484.1,229.3c8.4,5.7,10.6,9.7,10.3,13
			c-0.2,2.1-1,4.8-2.8,6.5c-3.6,3.4-5.8,3.7-7.6,7.6c-1.1,2.4-0.9,5.2,2,8.7c-0.6-10.5,8.7-9.5,13.9-14.9c3-3.1,4.3-9.7,1.2-14.3
			C498.9,232.7,493.1,229.4,484.1,229.3L484.1,229.3z M767.1,229.3c-9,0.1-14.8,3.3-17,6.6c-3,4.5-1.8,11.1,1.2,14.3
			c5.2,5.4,14.5,4.4,13.9,14.9c2.9-3.5,3.1-6.3,2-8.7c-1.8-4-4-4.2-7.6-7.6c-1.8-1.7-2.6-4.4-2.8-6.5
			C756.5,239,758.7,235,767.1,229.3z M518.9,349.5c0,0-2,5.4-3.4,8.6c-0.8,1.6-4.3,6.7-5.2,8.3l8.4,9.2c0,0,5.9-4.8,7.8-5.5
			c3.3-1.1,8.9-2.6,8.9-2.6c-3.1-2-4.9-3.4-8.6-3.1c4-3,3.8-7.4,4.4-9.6c-2.2,0.4-6.6-0.1-9.9,3.5
			C521.8,354.6,520.6,352.8,518.9,349.5z M732.4,349.5c-1.8,3.3-3,5.1-2.3,8.9c-3.4-3.7-7.7-3.1-9.9-3.5c0.6,2.1,0.5,6.5,4.4,9.6
			c-3.8-0.3-5.5,1.1-8.6,3.1c0,0,5.6,1.5,8.9,2.6c1.8,0.6,7.8,5.5,7.8,5.5l8.4-9.2c-0.9-1.6-4.5-6.6-5.2-8.3
			C734.3,354.9,732.4,349.5,732.4,349.5z M466.7,363.8c7.5,7.4,0,12.9-0.2,20.4c-0.1,4.4,3.4,10.1,8.7,11.4
			c3.9,0.9,10.4-0.6,17.1-6.6c-10,1.5-14.4,0-16.4-2.7c-1.3-1.7-2.5-4.3-2.3-6.7c0.4-4.9,1.8-6.6,0.5-10.7
			C473.3,366.3,471.2,364.4,466.7,363.8z M784.5,363.8c-4.5,0.7-6.5,2.5-7.3,5.1c-1.3,4.2,0.1,5.8,0.5,10.7c0.2,2.4-1,5-2.3,6.7
			c-2,2.6-6.4,4.2-16.4,2.7c6.7,6,13.2,7.5,17.1,6.6c5.3-1.3,8.8-7,8.7-11.4C784.5,376.6,777,371.1,784.5,363.8z M493.5,390.3
			c-6.6,6.1-8.7,12.5-8.1,16.4c0.8,5.4,6.2,9.4,10.5,9.7c7.5,0.5,13.7-6.5,20.3,1.7c-0.3-4.5-1.9-6.7-4.4-7.8
			c-4-1.7-5.8-0.4-10.7-0.5c-2.4,0-4.9-1.5-6.4-2.9C492.3,404.6,491.1,400.2,493.5,390.3z M757.7,390.3c2.4,9.9,1.3,14.3-1.2,16.6
			c-1.5,1.4-4,2.9-6.4,2.9c-5,0.1-6.7-1.2-10.7,0.5c-2.4,1-4.1,3.2-4.4,7.8c6.6-8.2,12.8-1.2,20.3-1.7c4.4-0.3,9.7-4.3,10.5-9.7
			C766.4,402.8,764.3,396.4,757.7,390.3z M609.9,413.2c-0.9,0-1.8,0.2-2.5,0.4c-7.2,2.3-10.4,11.1-19.6,5.8c1.9,4.1,4.3,5.6,6.9,5.7
			c4.4,0.1,5.5-1.7,10.2-3.4c2.3-0.8,5.2-0.6,7.1,0.4c5.4,2.9,12.2,12.6,13.1,18.3c0.2-0.4,0.4-0.9,0.5-1.3c0.2,0.4,0.3,0.9,0.5,1.3
			c0.9-5.7,7.7-15.4,13.1-18.3c1.8-1,4.8-1.2,7.1-0.4c4.6,1.7,5.8,3.5,10.2,3.4c2.6-0.1,5-1.5,6.9-5.7c-9.1,5.2-12.4-3.6-19.6-5.8
			c-4.2-1.3-10.6,0.5-13.3,5.2c-1.1,2-3.7,6.1-4.9,10.7c-1.2-4.6-3.8-8.7-4.9-10.7C618.5,415,613.8,413.1,609.9,413.2z M619.4,473.3
			c0,0-1.1,3.3-1.9,5.1c-1.4,3.2-4,8.3-4,8.3c3.6-0.9,5.8-1.3,8.1-4.3c-0.4,5,2.9,7.8,4.1,9.7c1.1-1.9,4.5-4.7,4.1-9.7
			c2.3,3,4.5,3.4,8.1,4.3c0,0-2.7-5.1-4-8.3c-0.7-1.7-1.3-3.4-1.9-5.1H619.4z"/>
		<path id="path34853-2-9-8-45" class="st2" d="M435.9,44.4c-0.3,0-0.7,0-1,0c-0.4,10.6,10,18.4,19.5,20.1l0.3-0.3l0.3-0.3
			C453.3,54.6,446,44.6,435.9,44.4z M815.4,44.4c-10.1,0.3-17.5,10.3-19.1,19.5l0.3,0.3l0.3,0.3c9.5-1.7,19.8-9.4,19.5-20.1
			C816,44.4,815.7,44.4,815.4,44.4L815.4,44.4z M625.2,92.8c-5.8,8.2-7.7,21.6,0.5,29.1c8.1-7.5,6.2-20.9,0.5-29.1h-0.5H625.2z
			 M498.7,222.9c-5.3,0.2-10.7,2.1-14.8,5v0.5v0.5c8.2,5.8,21.6,7.7,29.1-0.5C509.2,224.3,504,222.8,498.7,222.9z M752.5,222.9
			c-5.3-0.2-10.5,1.4-14.3,5.4c7.5,8.1,20.9,6.2,29.1,0.5v-0.5v-0.5C763.2,225,757.9,223.1,752.5,222.9z M492.8,389.1
			c-10,1.3-21.1,8.9-21.2,20c11,0.9,19.6-9.5,21.8-19.3l-0.3-0.3L492.8,389.1z M758.5,389.1l-0.3,0.3l-0.3,0.3
			c2.2,9.8,10.8,20.2,21.8,19.3C779.6,398,768.4,390.4,758.5,389.1z M625.6,411.6c-8.1,7.5-6.2,20.9-0.5,29.1h0.5h0.5
			C631.8,432.5,633.7,419.1,625.6,411.6z"/>
		<path id="path16120" class="st1" d="M450.4,59.6l-0.1,4.9c-0.6,56.7-0.6,113.3,0.2,170c1,64.6,4.9,108.4,28.1,140
			c28.4,38.7,77.9,70.1,144.8,101.4l2.1,1l2.1-1c66.9-31.2,116.4-62.7,144.8-101.4c23.2-31.6,27.1-75.3,28.1-140
			c0.8-56.7,0.8-113.4,0.2-170l-0.1-4.9h-4.9H455.4L450.4,59.6L450.4,59.6z M460.3,69.6h330.6c0.5,54.9,0.5,109.9-0.3,164.8
			c-1,64.3-5.3,105.8-26.1,134.2c-26.3,35.9-73.7,66.6-138.9,97.2c-65.2-30.6-112.5-61.3-138.9-97.2
			c-20.9-28.4-25.2-69.9-26.1-134.2C459.8,179.5,459.8,124.5,460.3,69.6z M472.4,81.8l0,5c-0.3,49.1-0.3,98.3,0.4,147.5
			c1,64.1,5.4,102.1,23.8,127.1c23.5,32.1,66.3,60.8,126.9,90l2.2,1.1l2.2-1.1c60.5-29.1,103.3-57.9,126.9-90
			c18.4-25,22.8-63,23.8-127.1c0.7-49.2,0.8-98.3,0.4-147.5l0-5h-5H477.4L472.4,81.8L472.4,81.8z M482.4,91.8h286.4
			c0.3,47.4,0.3,94.9-0.4,142.3c-1,63.7-5.9,99.7-21.8,121.3c-21.5,29.3-62.3,57.4-121,85.8c-58.7-28.4-99.5-56.5-121-85.8
			c-15.9-21.7-20.9-57.7-21.8-121.3C482.1,186.7,482.1,139.2,482.4,91.8L482.4,91.8z"/>
		<path id="path42187-6-75" class="st3" d="M549.5,311.7l5.1,12c0,0,8.2-1,12.2-2.2c5.5-1.7,14.1-6.8,14.1-6.8
			c3.9-2.1-4.8-8.3-7.8-11.6c-2.3-2.6-3.9-5.9-3.9-5.9c-2.3-3.8,5.8-9.5,11.6-13.4c7.5-5,16.2-9.7,24-11.1
			c13.4-2.4,45.1-6.3,45.1-6.3l3.2,11.8l-7.3,17.3l-11,7.7c2.1,2.4-15.9,1-29.8,0.6c-4.4-0.1,0.8,13.1,0.8,13.1s3.4,2.6,4.8,4.7
			c1.3,2.1,2,4.4,1,6.6c-1.1,2.2-4.2,3.2-6.9,3.7c-2.6,0.5-6.3-1.1-6.3-1.1c1.1,1.9,2.2,3.9,1.9,6c-0.4,3.7-8,8.2-8,8.2
			s1.5-3.7,1-5.4c-0.6-2.1-2.9-4.6-2.9-4.6s-0.3,3-0.9,4.5c-1.6,4.1-10.4,8.1-10.4,8.1s1.9-4.2,1.9-6.4c0-2.2-2.4-4.3-2.4-4.3
			s-0.8,3.5-2.5,5.6c-2,2.6-8.2,5.4-8.2,5.4s1.3-3.4,1.4-5.3c0.1-1.7-0.8-5.2-0.8-5.2s-3.5,5.7-5.7,7.6c-2.6,2.4-8.2,4.1-8.2,4.1
			s3.3-5.9,2.2-8.7c-1.1-2.7-8.3-4.3-8.3-4.3s-7.8,3.7-12.7,4.5c-2.5,0.4-5.7,0.7-7.4-1.1c-2.3-2.5-2.6-4.7-1.4-7.9
			c0.6-1.6,4.7-4,4.7-4s-3.1-1.8-3.9-2.9c-1.6-2.1-1.5-4.6-0.4-7c1.2-2.5,3.6-3.3,6.3-3.3c2,0,5.4,2.5,5.4,2.5s0.9-6.6,3.5-7.8
			C545.4,308,549.5,311.7,549.5,311.7L549.5,311.7L549.5,311.7z"/>
		<path id="path42189-8-8" class="st4" d="M633.6,297.3l-3-7.7c-1-2.6,4.2-4.5,4-7.2c-0.3-2.9-1.9-5.9-4.5-7.2
			c-3.4-1.7-18.3,1.5-22.1,2.1c-5.8,0.9-11.2,3.4-16.4,6.2c-5.6,3-15.4,11.1-15.4,11.1s0.7,3.5,1.6,5c3.2,5.2,9.8,7.4,9.6,13.5
			c-0.1,3.7-2.6,5.2-5,7c-5.2,3.8-10.4,5.2-16.7,6.5c-4.7,1-12.8,0.6-12.8,0.6s-2.9-8.9-5.9-12.3c-0.7-0.8-1.6-2.1-2.5-1.7
			c-2.4,1.1-1.1,7.9-1.1,7.9s-5.3-2.6-8.1-2.7c-2-0.1-3.5-0.4-4.3,1.3c-0.5,1-0.7,2.4,0,3.2c1.8,1.8,8.2,4.9,8.2,4.9
			s-6.8,2.5-8.1,5.3c-0.7,1.4-1.5,2.8-0.3,3.9c1.1,0.9,3.2,0.7,4.6,0.5c4.9-1,14-5,14-5l11.2,3.8l0.7,4.9l8.1-9.6l3.6,8.8l3.8-8.3
			l7.7,6.3l3.9-8.7l7.2,6l-1.4-9.3c0,0,6,1.4,9,1.4c1.1,0,2.7,0.4,3.3-0.5c0.8-1,0-2.6-0.6-3.8c-0.9-1.9-4.3-4.6-4.3-4.6
			s-4-8-3.4-12.2c0.4-2.5,0.9-5.7,3.4-6.2C608.2,299.3,634.5,302.9,633.6,297.3L633.6,297.3L633.6,297.3z"/>
		<path id="path42191-5-42" class="st5" d="M610.9,279.7c0,0-9.6,1.9-13.9,3.9c-6.6,3.1-17.2,12.8-17.2,12.8l8.8,12l-3.6-11.8
			c0,0,8-4.4,11.6-6.8C601.9,286.1,610.9,279.7,610.9,279.7L610.9,279.7z"/>
		<path id="path13429-8-0-9-5-5-6" class="st3" d="M610,224c0,0-6.1-1.4-8.2-3.5c-2.3-2.3-4.1-8.8-4.1-8.8s-6.9-0.3-9.9-1.7
			c-3.1-1.5-6.9-6.5-6.9-6.5c3.2,0.2,5.6,0.2,9-1.8c0,0-5.9-1.6-9-3.8c-2.7-1.9-6.7-7-6.7-7c2.9-0.1,5.8,0.6,8.5-1.8
			c0,0-5.8-1.2-8.2-2.8c-2.4-1.6-5.8-6.6-5.8-6.6c3.2,0.4,6.4,0.4,9-1.9c0,0-5.9-1.1-8.2-2.7c-3.2-2.2-7.5-8.3-7.5-8.3
			c3.4,0.5,6.7,0.9,9.6-0.6l-1.1-4.5c-1.3-5.5-6.3-4.7-9.2-6.8c-2.8-2-3.9-6.1-3.6-8.2c0.4-3.7,3.1-8.8,10.4-6
			c-2.6-7,2.1-10.6,6.4-11.5c4.1-0.9,7.4,0.3,8.7,7.7c0,0,4.1-2.3,6-2.3c2.7-0.1,5.5,1.5,6,4.4c0.2,1.2-0.1,3.5-1,4.7
			c-1.4,1.9-3.9,2.9-5.3,6c-1.5,3.4,0.4,10.4,0.4,10.4s12.1,15.6,17.5,23.9c2.9,4.4,7.8,13.7,7.8,13.7l0.4-0.1l14.3,3.1l-3.6,26.6
			L610,224L610,224z"/>
		<path id="path5784-15-1-2-82" class="st4" d="M600.2,208.3c0,0,2.9,7.1,4.9,8.8c2,1.6,6.3,1.4,6.3,1.4l-0.8-3.5l-1.8-0.4
			c-3.6-7.2-6.2-15.3-3.4-23.3c0,0-4.1-7.6-6.8-11.5c-3.5-5-13.1-16.7-13.1-16.7s-1.3-7.4-0.8-12.2c0.2-2.1,1-4.2,2.3-5.9
			c1.3-1.7,4-1.8,4.9-3.8c0.3-0.6,0.2-1.5-0.1-2.1c-0.4-0.7-1.1-1.3-1.8-1.4c-2.8-0.4-8.1,3.1-8.1,3.1s-1.8-6-4-7.8
			c-0.9-0.7-2.3-1-3.4-0.7c-1.1,0.2-2.2,0.9-2.7,2c-1.6,3.3,0,11.3,0,11.3s-6.2-3.2-9-2c-1.1,0.5-1.9,1.9-2,3.1
			c-0.1,1.4,0.5,2.9,1.4,3.9c2.4,2.8,9.4,4.9,9.4,4.9l6.1,14.1l-9.3,0.8c3,2.7,5.5,4,14.6,6c-2.7,3.8-5.7,4.7-8.4,6.1l14.9,5.8
			c-2.1,3.9-6.2,3.4-8.4,4.8c3.4,3.7,9.3,6,15.4,8.2c-1.5,3.2-5.6,3.2-9,4.2C589.6,207,593.7,207.2,600.2,208.3L600.2,208.3z"/>
		<path id="path4316-0-8-5-4-4-3" class="st5" d="M603.4,197c-3.9-16.7-14.1-27.6-25.1-38.5C585.3,175.5,594.6,187,603.4,197z"/>
		<path id="path5636-6-8-0-10" class="st1" d="M656,290.7c0,0-7.3,4.3-12,2.3c-2-0.9-3.9-2.7-4.4-4.9c-0.5-2.1,0.4-4.4,1.6-6.2
			c0.8-1.1,6.6-4.6,6.6-4.6s-1.6-5.3-3.4-8.3c-2.8-4.5-16.2-9.1-16.2-9.1c5.5-1.7,11.8-1.9,18.2-0.4l10.9,13.3L656,290.7L656,290.7z
			"/>
		<path id="path41368-3-0" class="st6" d="M656.9,378.1c0,0,2.4-0.6,3.3,0c2.4,1.5,6.3,5.1,6.3,5.1s1-4.5-0.1-8.1
			c-0.6-2.1-4.2-5-4.2-5s4.6-1.2,6.7,0.3c2.1,1.5,4.7,6.7,4.7,6.7s1-5.7,0.3-9.3c-0.5-2.7-5.1-6.6-5.1-6.6s3.8-0.8,5.4,0
			c2.8,1.3,6,7.2,6,7.2s2.4-7.7,0.6-12c-0.8-2-5.1-3.9-5.1-3.9s5.9-1.6,8.1,0c2.7,1.9,3.9,6.6,3.9,6.6s2.8-5.7,1.8-9.9
			c-0.6-2.6-4.8-6.3-4.8-6.3s3.2-2.7,4.2-4.5c0.8-1.5,1.9-3.5,1.2-5.1c-0.7-1.7-2.9-2.4-4.7-2.7c-2.2-0.3-6.4,1.4-6.4,1.4l-2.6-2.3
			c-4.6-4-7.1-10.6-7.8-17.1c-0.7-6.8,4.8-19.5,4.8-19.5s2.5,8.3,6.5,12.9c2.8,3.2,6.7,5.7,10.9,6.6c5.3,1.1,8,1.4,12.8-1
			c4.4-2.2,9.1-5.8,10.2-10.5c4.3-18.7-1.3-49-1-46.7c0,0,3-3.9,3.9-6.6c1.1-3.2,2-11.2,2-11.2c0.7-2.7,3-5.1,5.6-6.3
			c1.6-0.7,3.6-0.6,5.3,0c2.7,1.1,6.2,5.9,6.2,5.9s-0.3-7-2.3-9.5c-2.1-2.6-5.6-4.4-8.9-4.6c-5.1-0.3-10.1,1.6-10.1,1.6
			s5.5-6,8.1-11.9c2.1-4.7,2.4-13.5,2.4-13.5c0-6.4-3.1-13.6-7.4-18.7c-5.5-6.4-15.1-10.8-15.1-10.8s3.5,5.7,5.8,11.3
			c1.6,3.9,2.1,8.9,2.1,8.9s-3.2-3.3-6.1-5.6c-3.9-3.2-11.6-3.4-11.6-3.4s6.7,5.3,8.9,11.4c1,2.8,0.9,5.9,0.5,8.8
			c-0.6,4.6-3.1,11.3-4.1,15.8c-1.5,6.3-3.4,10.1-3,16.6c0.4,6.5,4.9,19,4.9,19s-7.5,1-10.3,2.8c-3.9,2.6-4.6,10.8-4.6,10.8
			s4.3-4.4,7-5c2-0.5,5.9,2,5.9,2s-7.7,3.1-9.8,6.4c-2.1,3.2-2,9.7-2,9.7s2.8-4,5.4-5.3c2.2-1.1,7.4,0,7.4,0s-7.1,4.3-8.8,7.9
			c-1.6,3.2-1,10.8-1,10.8s3.2-5.3,5.8-6.7c1.9-1,4.3-1.4,6.4-0.9c1.9,0.4,3.4,1,4.5,2.7c2,3,1.6,7,0,10.8c-1.2,2.8-2.1,5.2-4.9,6.4
			c-3.5,1.4-7.9,1.7-11.3,0c-4.2-2.1-4.6-4-6.4-8.4c-3.5-8.3-3.1-19.7-6.4-28c-2.7-6.9-9.2-11.5-11.3-18.7c-2.2-7.4,0.1-15.5-1-23.1
			c-0.7-4.7-3.3-12-3.9-16.7c-0.5-3.7,0-8.4,0-8.4l-33.1-1.7l-17.8,15.8c0,0-6.8,1.9-10.3,2.1c-8.5,0.5-18.3-2.1-26.7-2.4
			c-9.1-0.4-26.1-1-26.1-1l-3.3-7.3c-1.2-2.8-1.3-6.1-4.1-7.4c-2.1-1-5.3-1.5-7.1,0c-1.7,1.5-1,6.8-1,6.8s-5.5-1.2-7.8,0
			c-2.5,1.3-4,2.9-4.1,5.7c0,3.3,1.8,6.9,4.7,8.5c1.3,0.7,4.4,0.7,4.4,0.7s-2.7,1.3-3.4,3.4c-0.9,2.6,0,6.2,2,8.1
			c2.4,2.3,5,2.1,8.1,1c2.6-0.9,5.7-4.7,5.7-4.7s4.9-0.6,6.8,0.7c1.5,1,2.2,3,2.7,4.7c0.3,1.3,0.5,2.8,0,4.1
			c-1.4,3.4-7.1,8.6-7.1,8.6s5.5,0.4,8-0.5c5.3-1.8,12.5-8.6,12.5-8.6s-0.4,3.2-1.8,5c-1.7,2.3-6.2,6-6.2,6s8.4-0.9,12.3-2.8
			c3.5-1.7,8.5-7.9,8.5-7.9s-0.1,3-0.9,4.6c-0.9,1.8-2.8,6-2.8,6s7.6-1.7,10.9-3.6c2.6-1.5,5.7-6.3,5.7-6.3s0.1,3.3-0.4,5
			c-0.5,1.6-2.7,4.8-2.7,4.8s7.2-1.3,10.3-3c3.2-1.7,7.6-7.6,7.6-7.6s4.3-1.1,7,0.5c5.4,3.1,7.8,10.3,14.2,13.7
			c10.3,5.4,24,8.6,28.4,20.5c1.5,4.1,1.6,6.9-0.5,10.8c-2.6,4.7-13.4,10.4-16.1,15.6c0,0-4.3,5.9-5.4,11.7
			c-0.7,3.7-0.1,7.8,1.5,11.2c2,4.4,6.1,7.6,9.8,10.8c4.4,3.7,14.7,9.3,14.7,9.3l1.7,3.5c0,0-6.5,4.4-8.9,7.6
			c-3,3.8-7.8,12.3-7.8,12.3s-3-3.1-6.3-4.4c-2.6-0.9-6.2-1.9-8.2,0c-1.9,1.8-2,4-1.1,6.4c0.9,2.2,3.9,3.9,3.9,3.9s-2.6,2.4-3.2,3.9
			c-0.8,1.9-0.8,4.4,0.4,6.1c1.5,2.2,4.1,1.9,6.8,2.1c1.9,0.1,5.7-0.7,5.7-0.7s-0.9,2.2-0.7,3.6c0.2,2.1,0.7,4.6,2.5,5.7
			c2.4,1.5,6.2,1.3,8.6-0.4C655.3,388.4,656.9,378.1,656.9,378.1L656.9,378.1L656.9,378.1z"/>
		<path id="path41979-4-8" class="st4" d="M703,169.3l4.7,10.1l2.6,9.4l-7.5-6.5l-10.4-2.1l6.8,7.3l2.9,8.1v6.5l-3.4,12.5l-3.4,13.5
			v9.1l4.7,12.8l-0.6-0.7l5.2,7.7c0,0,6-8.4,7.4-13.3c1.1-3.9,0.8-8.1,2.6-11.8c1.2-2.4,3.7-4.2,6.3-5.2c3-1.1,4.5-1.7,7.4-0.4
			c3,1.3,6.6,7.4,6.6,7.4L734,227l-6.5-4.4h-11.7l5.7-8.1l3.9-14.1l-2.1-12l-9.6-13L703,169.3L703,169.3z M536.4,202.4
			c-0.6,0-1.2,0.1-1.5,0.5c-1.6,1.6,0,7.1,0,7.1s-6-2.2-9-0.7c-1.2,0.6-2.4,1.8-2.4,3.2c0,1.4,1.3,2.6,2.4,3.4
			c3,2.2,10.7,3.4,10.7,3.4s-6.5,2.3-7.8,5.1c-0.5,1.2-0.9,3,0,3.9c1.2,1.3,3.6,0.8,5.3,0.2c2.5-0.8,6.3-4.9,6.3-4.9
			s7.9,0.1,10.7,2.4c1.9,1.6,2.6,4.4,3.2,6.8c0.4,1.7,0.1,3.4,0,5.1c0,0.9-0.2,2.7-0.2,2.7l13.9-11.2c1.8,4.4,0.1,8.8-1.9,13.1
			l13.4-11.7c3,3.9,1.4,7.8,0,11.7l12.2-10.7c2.9,3.8,2.1,7,1.2,10.2c0,0,3.3-1.6,4.9-2.7c2.9-2,8-7.1,8-7.1s5,1.3,7.3,2.4
			c2.7,1.3,7.5,5.1,7.5,5.1s1.8-5.3,1-7.8c-1-3.2-5.3-4.5-6.8-7.5c-0.6-1.2-0.7-3.9-0.7-3.9s-3.2,2.3-5.1,2.4
			c-2.8,0.3-5.4-2.1-8.3-2.2c-2.5-0.1-7.3,1.2-7.3,1.2s-15.8-2.9-22.1-3.6c-9.7-1.1-27.2,0-27.2,0l-4.6-12.6c0,0,0-2.1-1.2-2.9
			C537.6,202.6,537,202.4,536.4,202.4L536.4,202.4z M651.3,229.2c0,0-1,2.9-2.6,4.4c-5.6,5.2-21.5,9.1-21.5,9.1s1.3,3.2,2.6,4.4
			c5.7,5.1,14.7,5,20.8,9.5c3.4,2.5,6.7,5.6,8.4,9.5c2.2,5.1,3.1,11.2,1.5,16.4c-1.9,5.9-8.3,9.3-12.1,14.2
			c-3.2,4.3-7.2,8.4-8.8,13.5c-1,3.3-1.1,5.7,0.4,8.8c4.1,8.4,16,11.3,21.9,18.6c2,2.4,4,8.4,4,8.4l-13.1,10.6l-7.7,13.5
			c0,0-5.9-5.1-9.5-6.2c-1.5-0.5-3.6-1.1-4.7,0c-0.5,0.5-0.2,1.5,0,2.2c0.8,2.4,4.7,5.8,4.7,5.8s-4.2,4.5-2.9,6.6
			c0.9,1.6,3.7,0.5,5.5,0.4c2.7-0.2,8-1.5,8-1.5v5.8c0,1.5-1.2,3.5,0,4.4c1.2,0.9,3.2-0.4,4.4-1.5c3.1-2.9,5.1-11.7,5.1-11.7
			l6.2-0.4l-6.6-6.9h13.1l-6.9-9.5l12.8-0.4l-6.6-5.8l15.7-3.7l-4.4-4.7c0,0,6.5-4.4,5.1-6.9c-1-1.8-6.2,0.4-6.2,0.4l-4.4-2.2
			c0,0-8.8-9.8-10.2-16.1c-1.1-4.9-1-10.1,0-15c1.2-6.3,7.5-13.1,9.1-19.4c1.1-4.3,1.3-8.8,0.4-13.1c-0.9-4.1-4.7-7-6.9-10.6
			c-2.2-3.5-3.9-6.7-5.1-10.6c-1.7-5.5-1.1-17.2-1.1-17.2L651.3,229.2L651.3,229.2z"/>
		<path id="path4316-0-8-5-4-3-4-0" class="st5" d="M697.8,180.2l-4.4,0.3l3.9,4.2l4.9,7.8l0.5,7.5l-3.4,12.5l-4.4,13v5.2
			c2.7,8.1,5.4,10.2,8.1,11.4c0,0-2.1-5.1-2.3-7.8c-0.5-4.3,0-8.8,1-13c0.9-3.7,3.2-6.9,4.4-10.4c1-2.9,2.5-5.8,2.6-8.8
			c0.2-5.1-0.9-10.4-3.4-14.8C703.7,184.2,697.8,180.2,697.8,180.2z M559.4,219.4c-2.8,0-5.7,0.2-8.6,0.4
			c17.7,4.8,32.5,6.1,45.8,5.2C583.9,221,571.8,219.3,559.4,219.4z M646.8,238.7c0,0-3.4,2.6-5.3,3.4c-3,1.3-9.4,2.3-9.4,2.3
			s2.4,2.2,3.8,3c4.4,2.4,10.3,1.9,14.3,4.9l9,6.8L646.8,238.7L646.8,238.7z M657.4,293.4c0,0-10,7.1-12.8,13.9
			c-1.6,3.9-1.6,7.8,0,11.7c4,9.6,19.2,14.7,19.2,14.7s-10.9-6.5-13.6-15.1c-1-3.2-0.6-6.8,0-10.2
			C651.3,302.4,657.4,293.4,657.4,293.4z"/>
		<path id="path41368-8-1-6" class="st7" d="M656.9,378.1c0,0,2.4-0.6,3.3,0c2.4,1.5,6.3,5.1,6.3,5.1s1-4.5-0.1-8.1
			c-0.6-2.1-4.2-5-4.2-5s4.6-1.2,6.7,0.3c2.1,1.5,4.7,6.7,4.7,6.7s1-5.7,0.3-9.3c-0.5-2.7-5.1-6.6-5.1-6.6s3.8-0.8,5.4,0
			c2.8,1.3,6,7.2,6,7.2s2.4-7.7,0.6-12c-0.8-2-5.1-3.9-5.1-3.9s5.9-1.6,8.1,0c2.7,1.9,3.9,6.6,3.9,6.6s2.8-5.7,1.8-9.9
			c-0.6-2.6-4.8-6.3-4.8-6.3s3.2-2.7,4.2-4.5c0.8-1.5,1.9-3.5,1.2-5.1c-0.7-1.7-2.9-2.4-4.7-2.7c-2.2-0.3-6.4,1.4-6.4,1.4l-2.6-2.3
			c-4.6-4-7.1-10.6-7.8-17.1c-0.7-6.8,4.8-19.5,4.8-19.5s2.5,8.3,6.5,12.9c2.8,3.2,6.7,5.7,10.9,6.6c5.3,1.1,8,1.4,12.8-1
			c4.4-2.2,9.1-5.8,10.2-10.5c4.3-18.7-1.3-49-1-46.7c0,0,3-3.9,3.9-6.6c1.1-3.2,2-11.2,2-11.2c0.7-2.7,3-5.1,5.6-6.3
			c1.6-0.7,3.6-0.6,5.3,0c2.7,1.1,6.2,5.9,6.2,5.9s-0.3-7-2.3-9.5c-2.1-2.6-5.6-4.4-8.9-4.6c-5.1-0.3-10.1,1.6-10.1,1.6
			s5.5-6,8.1-11.9c2.1-4.7,2.4-13.5,2.4-13.5c0-6.4-3.1-13.6-7.4-18.7c-5.5-6.4-15.1-10.8-15.1-10.8s3.5,5.7,5.8,11.3
			c1.6,3.9,2.1,8.9,2.1,8.9s-3.2-3.3-6.1-5.6c-3.9-3.2-11.6-3.4-11.6-3.4s6.7,5.3,8.9,11.4c1,2.8,0.9,5.9,0.5,8.8
			c-0.6,4.6-3.1,11.3-4.1,15.8c-1.5,6.3-3.4,10.1-3,16.6c0.4,6.5,4.9,19,4.9,19s-7.5,1-10.3,2.8c-3.9,2.6-4.6,10.8-4.6,10.8
			s4.3-4.4,7-5c2-0.5,5.9,2,5.9,2s-7.7,3.1-9.8,6.4c-2.1,3.2-2,9.7-2,9.7s2.8-4,5.4-5.3c2.2-1.1,7.4,0,7.4,0s-7.1,4.3-8.8,7.9
			c-1.6,3.2-1,10.8-1,10.8s3.2-5.3,5.8-6.7c1.9-1,4.3-1.4,6.4-0.9c1.9,0.4,3.4,1,4.5,2.7c2,3,1.6,7,0,10.8c-1.2,2.8-2.1,5.2-4.9,6.4
			c-3.5,1.4-7.9,1.7-11.3,0c-4.2-2.1-4.6-4-6.4-8.4c-3.5-8.3-3.1-19.7-6.4-28c-2.7-6.9-9.2-11.5-11.3-18.7c-2.2-7.4,0.1-15.5-1-23.1
			c-0.7-4.7-3.3-12-3.9-16.7c-0.5-3.7,0-8.4,0-8.4l-33.1-1.7l-17.8,15.8c0,0-6.8,1.9-10.3,2.1c-8.5,0.5-18.3-2.1-26.7-2.4
			c-9.1-0.4-26.1-1-26.1-1l-3.3-7.3c-1.2-2.8-1.3-6.1-4.1-7.4c-2.1-1-5.3-1.5-7.1,0c-1.7,1.5-1,6.8-1,6.8s-5.5-1.2-7.8,0
			c-2.5,1.3-4,2.9-4.1,5.7c0,3.3,1.8,6.9,4.7,8.5c1.3,0.7,4.4,0.7,4.4,0.7s-2.7,1.3-3.4,3.4c-0.9,2.6,0,6.2,2,8.1
			c2.4,2.3,5,2.1,8.1,1c2.6-0.9,5.7-4.7,5.7-4.7s4.9-0.6,6.8,0.7c1.5,1,2.2,3,2.7,4.7c0.3,1.3,0.5,2.8,0,4.1
			c-1.4,3.4-7.1,8.6-7.1,8.6s5.5,0.4,8-0.5c5.3-1.8,12.5-8.6,12.5-8.6s-0.4,3.2-1.8,5c-1.7,2.3-6.2,6-6.2,6s8.4-0.9,12.3-2.8
			c3.5-1.7,8.5-7.9,8.5-7.9s-0.1,3-0.9,4.6c-0.9,1.8-2.8,6-2.8,6s7.6-1.7,10.9-3.6c2.6-1.5,5.7-6.3,5.7-6.3s0.1,3.3-0.4,5
			c-0.5,1.6-2.7,4.8-2.7,4.8s7.2-1.3,10.3-3c3.2-1.7,7.6-7.6,7.6-7.6s4.3-1.1,7,0.5c5.4,3.1,7.8,10.3,14.2,13.7
			c10.3,5.4,24,8.6,28.4,20.5c1.5,4.1,1.6,6.9-0.5,10.8c-2.6,4.7-13.4,10.4-16.1,15.6c0,0-4.3,5.9-5.4,11.7
			c-0.7,3.7-0.1,7.8,1.5,11.2c2,4.4,6.1,7.6,9.8,10.8c4.4,3.7,14.7,9.3,14.7,9.3l1.7,3.5c0,0-6.5,4.4-8.9,7.6
			c-3,3.8-7.8,12.3-7.8,12.3s-3-3.1-6.3-4.4c-2.6-0.9-6.2-1.9-8.2,0c-1.9,1.8-2,4-1.1,6.4c0.9,2.2,3.9,3.9,3.9,3.9s-2.6,2.4-3.2,3.9
			c-0.8,1.9-0.8,4.4,0.4,6.1c1.5,2.2,4.1,1.9,6.8,2.1c1.9,0.1,5.7-0.7,5.7-0.7s-0.9,2.2-0.7,3.6c0.2,2.1,0.7,4.6,2.5,5.7
			c2.4,1.5,6.2,1.3,8.6-0.4C655.3,388.4,656.9,378.1,656.9,378.1L656.9,378.1L656.9,378.1z"/>
		<path id="path41257-7-1" class="st8" d="M653,164.8c0,0-12-2.6-16.8-3.7c-5.7-1.3-13.9,1.3-19.4-0.4c-3.3-1-4.1-1.8-5.7-4.8
			c-1-1.9-1.5-5.1-1.5-5.1s-2.7,3.4-2.3,6.4c0.4,2.6,2.2,5.1,4.5,6.4c6.4,3.4,17.5,1.1,24.6,2.8c4.9,1.1,10.9,8.1,10.9,8.1
			L653,164.8L653,164.8z"/>
		<path id="path5213-8-7-1-6-8-7" class="st9" d="M621,154.5c0.9,5.6,2.1,6.2,3.3,8l0.1-7.9L621,154.5L621,154.5z M624.2,163.1
			c-1.2,1.8-2.4,2.4-3.3,8l3.3-0.1L624.2,163.1z"/>
		<path id="path40887-4-34" class="st4" d="M601.6,216.6l5.8-2.5c1.6-0.7,1-3.5,1.7-5.1c0.7-1.8,3.9-4.3,3.9-4.3l-7.6-0.2
			c0,0,5.5-2.6,5.9-6.4c0.1-0.9-0.3-3.9-0.2-4.9c0-3.3,2.9-6,5.6-7.8c1.7-1.1,6.4-1.6,7.3-3.4l1.7-3.2c0,0-2.4,1.6-4.6,1.9
			c-2.2,0.3-5.6-0.7-5.6-0.7l4.9-4.6c0.8-0.7-0.5-3.9-0.2-4.9c0.5-1.9,4.4-2.7,4.4-2.7s8.2,1.5,11.8-0.6c3.4-2,5.1-5.9,4-9.4
			l-0.8-2.3c-1-2.9-11.7,1-14.7,1.4c-2.7,0.4-5.3-0.9-6.7-3.2c-2.6-4.3-0.4-8.6,0-12.9l16.3-0.7c6.1-7.9,23.1-5.3,36-3.5
			c3.3,0.5,1-2.2,7.1-3.9c0,0,1.8,1.6,1.3,4.7c-0.2,1.3-3.4,4-3.3,5c0.1,0.7,2-1.2,4.1-1c2.7,0.2,5.6,2.5,5.6,3.1
			c-0.3,1.9-0.7,5.4-2.5,7.1c-1.4,1.3-4,1.1-5.1,2.1c-1.4,1.1-5.7,1.4-5.7,1.4s5.5,3.4,7,6c2.8,5-0.5,10.6,2.2,15.6
			c1,1.8,3.2,2.9,3.2,2.9s-2.5,2.1-4.8,1.6c-2.1-0.5-4.4-1.3-4.4-1.3s4.2,4.9,4.4,9.2c0.3,4.9-5.3,8.7-5.7,13.7
			c-0.3,3.5,2.2,10.2,2.2,10.2s-3.2-1-4.8-2.2c-1.3-1-3.8-4.1-3.8-4.1l1.3,7c0.6,3.4-6.1,5.5-6.7,9.5c-0.4,2.6,1.9,5.4,1.9,5.4
			s-6.1-1.4-8.6-3.2c-1.9-1.4-4.4-5.7-4.4-5.7s-2.2,5.9-4.1,7.9c-2.1,2.3-6.6,3.5-10.3,5.2c-6.2,2.9-11.7,5.6-11.7,5.6
			s1.1-4.1,0.6-6.3c-0.7-3.5-5.6-7.3-7.3-10.5c-1.7-3.2,0-7.6,0-7.6s-4,3.9-7,4.4C607.8,218.8,601.6,216.6,601.6,216.6L601.6,216.6z
			"/>
		<path id="path40887-7-4-3-99" class="st6" d="M656.2,154.4c0,0-0.6,9.9-3.5,13.5c-2.1,2.7-5.8,3.9-9.2,4.7
			c-3.7,0.9-7.6-0.4-11.4,0c-2.5,0.3-4.9,2.1-7.3,1.7c-1.7-0.3-4.4-2.5-4.4-2.5v3.7l-4.4,4.2l5.1,1.6l4.1-1.6l-1.3,2.4
			c-1,1.8-5.6,2.3-7.3,3.4c-2.7,1.8-5.6,4.6-5.6,7.8c0,1,0.3,3.9,0.2,4.9c-0.4,3.7-5.9,6.4-5.9,6.4l7.6,0.2c0,0-3.2,2.5-3.9,4.3
			c-0.6,1.6,0,4.4-1.7,5.1l-5.8,2.5c0,0,6.3,2.2,9.5,1.5c2.9-0.6,7-4.4,7-4.4s-1.7,4.4,0,7.6c1.7,3.2,6.6,7,7.3,10.5
			c0.5,2.3-0.6,6.3-0.6,6.3s5.5-2.7,11.7-5.6c3.6-1.7,8.1-2.8,10.3-5.2c1.9-2.1,4.1-7.9,4.1-7.9s2.5,4.3,4.4,5.7
			c2.5,1.8,8.6,3.2,8.6,3.2s-2.3-2.8-1.9-5.4c0.6-4,7.3-6.2,6.7-9.5l-1.3-7c0,0,2.5,3.1,3.8,4.1c1.6,1.2,4.8,2.2,4.8,2.2
			s-2.5-6.7-2.2-10.2c0.4-4.9,6-8.7,5.7-13.7c-0.3-4.3-4.4-9.2-4.4-9.2s2.4,0.8,4.4,1.3c2.3,0.6,4.8-1.6,4.8-1.6s-2.2-1.1-3.2-2.9
			c-2.7-5,0.6-10.6-2.2-15.6c-1.5-2.7-7-6-7-6s2.7,5.8,3.5,8.9c1,3.9,1.7,12,1.7,12l-12.9-9.4c0,0,9,16.4,8.3,21.7
			c-0.3,2.3-1.4,3.3-2.3,5.4c-1,2.4-0.9,7.7-0.9,7.7l-12-20.9c0,0,6.6,26,4.9,32c-0.9,3.1-4.3,8.3-4.3,8.3s-1.8-1.6-2.6-2.6
			c-2.6-3.3-6.6-20.9-6.6-20.9s-2.4,21.4-6.6,25.7c-3.1,3.2-12.3,6.9-12.3,6.9s0.1-2.5-0.3-3.7c-1.1-3.4-4.8-5.7-5.7-9.1
			c-1-3.9,9.7-22.6,9.7-22.6s-11.3,11.6-13,12.5c-2.3,1.3-6.2,5.2-6.2,5.2s0.1-2.4,0.6-3.4c1.7-3.6,7.1-11.1,7.1-11.1l-6.9,2.3
			c0.9-2.8,0.9-3.8,0.9-6.9c0-2.3,7.2-3.6,8.9-5.1c1.3-1.2,1.6-3.3,1.7-5.1c0.1-1.3-0.4-2.7-0.7-3.4l0.7-0.3l4.7-2.4h5.2l8.2,0.7
			l6.5-2.1l5.5-4.9l1.6-7.5l-0.6-6.9L656.2,154.4L656.2,154.4z"/>
		<path id="path4045-9-52-54-4-2" class="st9" d="M637.6,143.2c0.1,2.4,2.8,4.9,6.4,4.8c3.5-0.1,5.7-2.1,5.6-4.5
			c-0.1-2.4-2.3-3.6-5.9-3.5C640.2,140.1,637.6,140.8,637.6,143.2z"/>
		
			<ellipse id="path4827-0-2-2-3-8" transform="matrix(0.9996 -2.734107e-02 2.734107e-02 0.9996 -3.6835 17.6446)" class="st10" cx="643.4" cy="143.5" rx="2.4" ry="2.4"/>
		<path id="path4045-8-5-7-1-1-3" class="st11" d="M643.7,139.4c-1.8,0-3.4,0.3-4.6,0.8c-1.2,0.5-2.1,1.6-2.1,3
			c0.1,2.8,3.1,5.5,6.9,5.4c1.9-0.1,3.4-0.6,4.5-1.5c1.1-0.9,1.7-2.2,1.7-3.5s-0.7-2.5-1.9-3.2S645.6,139.3,643.7,139.4z
			 M628.1,140.1l-10.4,0.6l-0.8,5.8c0,0,4.8-0.4,6.7-1.2C626.5,144.2,628.1,140.1,628.1,140.1z M643.8,140.5c1.7,0,3.1,0.2,3.9,0.7
			s1.3,1.2,1.3,2.2c0,1-0.4,2-1.3,2.7s-2.1,1.2-3.8,1.2c-3.3,0.1-5.7-2.3-5.7-4.3c0-1,0.4-1.5,1.4-1.9S642,140.6,643.8,140.5z
			 M677.7,144.6c-4.1,0.1-7.1,1.6-9.8,6.4c9,4,12.1-1.3,14.3-6C680.6,144.7,679.1,144.6,677.7,144.6z M654.5,152.4
			c0,0,1.3,1.1,2,2.7c0.7,1.6,1.4,3.5,1.5,4.6c0.4,3.1-0.4,7.6-1.7,10.1c-1.7,3.3-4.8,5-8.5,6.3c-2.4,0.8-5.1,0.7-7.9,0.5
			c-2.8-0.2-5.9-0.9-8.9-0.3c-1.4,0.3-3,1-4.2,1.7s-2.3,1.7-2.3,1.7l0.2,1.4c0,0,2.1-1.5,3.3-2.1s2.7-1.2,3.5-1.4
			c2.5-0.5,5.4,0.2,8.2,0.4c2.9,0.2,5.9,0.5,8.8-0.5c4-1.4,7.1-2.9,9.2-6.9c1.7-3.2,2.1-7.2,1.7-10.5c-0.2-1.6-1.3-5.6-2.9-6.4
			L654.5,152.4z"/>
		<path id="path41167-6-39" class="st5" d="M676.4,133.2c-0.5,0,0,0.1,0.4,0.6l1.3-0.5C677.2,133.3,676.7,133.2,676.4,133.2z
			 M676.9,133.8l-7.4,3.1l-9.2-1.6l-12-1.1l-4.9,1.1l-5.2,1.7l-4.4,3.5c3.1-0.1,7.1-2.9,12.9-2.8c8.9,0.1,20.4,3.7,24.5,2.7
			c3.7-0.9,6.1-4.5,6.1-5.7C677.2,134.3,677,134,676.9,133.8L676.9,133.8z M658.7,174.2c0,0,4.5,3.4,5.7,7.2c0.6,1.8-0.4,4.8,0,6.6
			c0.4,1.9,4.6,5.6,4.6,5.6c0,0-2.5-4.9-2.5-7c0.1-1.7,1-4.4,0.3-6C665.3,176.3,658.7,174.2,658.7,174.2z M640.1,182.1
			c0,0-7,0.3-9.6,3.9c-1,1.4-0.9,4.2-1.2,5.9c-0.5,2-4.2,6.2-4.2,6.2s5-2.5,5.9-4.2c0.9-1.7,0.7-4.8,1.7-6.4
			C634.9,184.3,640.1,182.1,640.1,182.1L640.1,182.1z M645.3,186.6c0,0-13,14-13.1,22c0,2.6,2.7,4.6,3,7.2c0.3,2.9-1.5,8.6-1.5,8.6
			s5.7-5.8,5.9-9.1c0.2-2.9-2.2-5.5-2.2-8.4C637.2,199.6,645.3,186.6,645.3,186.6L645.3,186.6z M650.6,191.5c0,0,3.9,4,4.6,8
			c0.3,1.9-1.1,4.7-1,6.6c0.1,1.9,3.7,6.2,3.7,6.2s-1.7-5.3-1.3-7.3c0.3-1.7,1.6-4.2,1.3-5.9C656.8,194.7,650.6,191.5,650.6,191.5z"
			/>
		<path id="path40887-7-1-84" class="st7" d="M671.7,155c0,0,5.5,3.4,7,6c2.8,5-0.5,10.6,2.2,15.6c1,1.8,3.2,2.9,3.2,2.9
			s-2.5,2.1-4.8,1.6c-2.1-0.5-4.4-1.3-4.4-1.3s4.2,4.9,4.4,9.2c0.3,4.9-5.3,8.7-5.7,13.7c-0.3,3.5,2.2,10.2,2.2,10.2s-3.2-1-4.8-2.2
			c-1.3-1-3.8-4.1-3.8-4.1l1.3,7c0.6,3.4-6.1,5.5-6.7,9.5c-0.4,2.6,1.9,5.4,1.9,5.4s-6.1-1.4-8.6-3.2c-1.9-1.4-4.4-5.7-4.4-5.7
			s-2.2,5.9-4.1,7.9c-2.1,2.3-6.6,3.5-10.3,5.2c-6.2,2.9-11.7,5.6-11.7,5.6s1.1-4.1,0.6-6.3c-0.7-3.5-5.6-7.3-7.3-10.5
			c-1.7-3.2,0-7.6,0-7.6s-4,3.9-7,4.4c-3.2,0.7-9.5-1.5-9.5-1.5v0l5.8-2.5c1.6-0.7,1-3.5,1.7-5.1c0.7-1.8,3.9-4.3,3.9-4.3l-7.6-0.2
			c0,0,5.5-2.6,5.9-6.4c0.1-0.9-0.3-3.9-0.2-4.9c0-3.3,2.9-6,5.6-7.8c1.7-1.1,6.4-1.6,7.3-3.4l2-2.9c0,0-2.5,1.6-4.7,1.9
			c-2.2,0.3-5.6-0.7-5.6-0.7l4.9-4.6c0.8-0.7-0.5-3.9-0.2-4.9c0.5-1.9,4.4-2.7,4.4-2.7s8.7,1.3,12.2-0.9c3.4-2,4.7-5.3,3.6-8.8
			l-0.8-2.3c-1-2.9-11.4-0.3-14.4,0.1c-2.7,0.4-5.8-0.9-7.2-3.2c-2.6-4.3-0.4-7.8,0-12.1c10.4-1.5,9.3-0.4,16.5-0.7
			c14.2-13.8,29.3-0.1,37.8-4.8l5.3-2.6c1.6,3.9-0.2,6.1-2,9.4c7.8-0.8,8.1,1,9.5,2c0,0-1.1,4.6-3.2,7.2
			C679.4,154.4,671.7,155,671.7,155L671.7,155L671.7,155z"/>
		<path id="path4318-6-3-4-6-98-1-7-3-5-9-5" class="st12" d="M565.4,126.5c3.5,3,4.2,4.6,4.5,9c1.6,1.1,2.9,1.2,3.9,0.6
			c2-1.3,2.6-3.4,1.6-5.8C573.4,129.5,572.5,126.3,565.4,126.5z M586.3,128.5c2,4.3,2,6.1,0.6,10.2c1,1.8,2.2,2.4,3.3,2.3
			c2.3-0.2,3.6-1.9,3.6-4.6C592.5,135,592.9,131.6,586.3,128.5z M557.6,141.8c-1.5-0.1-3.5,0.3-6.3,1.8c4.3,1.1,5.5,2.3,7.5,6.2
			c1.9,0.3,3.1-0.3,3.8-1.3c1.3-2,1.1-4.2-0.8-6C560.6,142.6,559.5,141.9,557.6,141.8z M531.2,195.6c-1.3,0-2.9,0.3-5.1,1.1
			c4.1,1.7,5.2,3,6.7,7.1c1.8,0.5,3.1,0.1,3.9-0.8c1.6-1.9,1.6-4.1-0.1-6.1C535.3,196.9,534,195.6,531.2,195.6L531.2,195.6z
			 M520.6,206.2c-1.7,0.9-4.6-0.7-9.3,4.8c4.4-0.5,6,0.1,9.2,3c1.9-0.4,2.8-1.4,3-2.5C524.1,209.1,523,207.1,520.6,206.2z
			 M526.8,226.6c-0.3,0-0.6,0-0.9,0.1c-1,1.6-4.3,1.8-5.6,8.9c3.5-2.7,5.2-3,9.5-2.1c1.4-1.3,1.7-2.6,1.3-3.7
			C530.4,227.7,528.9,226.6,526.8,226.6L526.8,226.6z M539.3,305.9c-1.2,0-2.6,0.2-4.3,0.7c4,2,5,3.3,6.1,7.6
			c1.8,0.7,3.1,0.4,3.9-0.5c1.7-1.7,1.9-3.9,0.4-6C544,307.5,542.8,305.9,539.3,305.9z M528.1,315.7c-1.6,1.1-4.6,0-8.5,6.1
			c4.3-1.2,5.9-0.8,9.6,1.7c1.8-0.7,2.6-1.7,2.6-3C531.9,318.1,530.6,316.3,528.1,315.7z M529.5,334c-0.6,0-1.1,0-1.8,0.2
			c-0.9,1.7-4.1,2.1-4.8,9.4c3.3-3,4.9-3.4,9.3-3c1.3-1.4,1.5-2.7,1-3.8C532.4,335.1,531.1,334.1,529.5,334z M625.4,359.6
			c-1.6,0-3.7,0.5-6.6,2.6c4.4,0.6,5.8,1.6,8.2,5.2c1.9,0.1,3-0.6,3.6-1.7c1.1-2.2,0.5-4.3-1.6-5.8C628,360,627,359.6,625.4,359.6z
			 M628.6,375.8c-0.3,0-0.6,0-0.9,0.1c-1,1.6-4.3,1.8-5.6,8.9c3.5-2.7,5.2-3,9.5-2.1c1.4-1.3,1.7-2.6,1.3-3.7
			C632.2,376.9,630.7,375.8,628.6,375.8L628.6,375.8z M644,385.2c-0.3,0-0.6,0.1-0.9,0.1c-0.9,1.7-4.2,2-5,9.2
			c3.4-2.9,5-3.3,9.3-2.7c1.3-1.4,1.5-2.7,1.1-3.8C647.7,386.1,646.1,385.1,644,385.2z"/>
	</g>
</g>
</svg>
