<?xml version="1.0" encoding="UTF-8" standalone="no"?>
<!-- Created with Inkscape (http://www.inkscape.org/) -->

<svg
   width="11.000001in"
   height="11in"
   viewBox="0 0 110.00001 110"
   version="1.1"
   id="svg1"
   xml:space="preserve"
   inkscape:version="1.3.2 (091e20e, 2023-11-25)"
   sodipodi:docname="house-kamon.svg"
   xmlns:inkscape="http://www.inkscape.org/namespaces/inkscape"
   xmlns:sodipodi="http://sodipodi.sourceforge.net/DTD/sodipodi-0.dtd"
   xmlns="http://www.w3.org/2000/svg"
   xmlns:svg="http://www.w3.org/2000/svg"><sodipodi:namedview
     id="namedview1"
     pagecolor="#ffffff"
     bordercolor="#000000"
     borderopacity="0.25"
     inkscape:showpageshadow="2"
     inkscape:pageopacity="0.0"
     inkscape:pagecheckerboard="0"
     inkscape:deskcolor="#d1d1d1"
     inkscape:document-units="mm"
     inkscape:zoom="0.85674603"
     inkscape:cx="426.03057"
     inkscape:cy="491.39416"
     inkscape:window-width="1920"
     inkscape:window-height="1027"
     inkscape:window-x="1470"
     inkscape:window-y="25"
     inkscape:window-maximized="0"
     inkscape:current-layer="layer1" /><defs
     id="defs1" /><g
     inkscape:label="Layer 1"
     inkscape:groupmode="layer"
     id="layer1"
     transform="translate(-5.0000023,-4.9999989)"><g
       id="g1"
       transform="matrix(0.08466669,0,0,0.08466666,-1.3414643e-5,1.5987357e-5)"><ellipse
         style="fill:#333333;fill-opacity:1;stroke:#303030;stroke-width:2.70107;stroke-linejoin:bevel;stroke-dasharray:none;stroke-opacity:1"
         id="path2"
         cx="708.66144"
         cy="708.66125"
         rx="648.25562"
         ry="648.2558" /><ellipse
         style="fill:#f8f8f8;fill-opacity:1;stroke:#303030;stroke-width:2.87222;stroke-linejoin:bevel;stroke-dasharray:none;stroke-opacity:1"
         id="path3"
         cx="708.66138"
         cy="708.66125"
         rx="589.11493"
         ry="589.11511" /><path
         d="M 677.92246,687.825 377.63507,590.42968 690.76703,529.33282 c 0.1884,5.51727 0.31912,10.86523 0.38832,16.01684 1.14577,82.43952 -11.37311,135.11899 -13.23729,142.4714 z m 444.00884,-19.26193 -20.1852,-27.25904 C 1069.4654,597.7309 1010.2327,585.6393 963.85141,611.46918 L 631.55602,177.16517 c 131.58549,296.0846 69.90892,518.12346 69.90892,518.12346 l 96.80377,31.64193 -502.87729,352.84684 261.70446,-130.20756 c 31.96183,-15.89779 67.61757,13.68708 57.87538,48.03678 L 546.21884,1240.1574 729.1531,870.05652 h 43.24241 c 112.33341,0 227.16683,-67.78292 275.48399,-164.6566 z"
         id="path1"
         style="fill:#333333;fill-opacity:1;stroke-width:0.984263" /></g></g></svg>
