<?xml version="1.0" encoding="UTF-8" standalone="no"?>
<!-- Generator: Adobe Adobe Illustrator 24.2.0, SVG Export Plug-In . SVG Version: 6.00 Build 0)  -->

<svg
   version="1.1"
   x="0px"
   y="0px"
   width="335.67804"
   height="383.14352"
   viewBox="0 0 335.67804 383.14352"
   xml:space="preserve"
   id="svg17"
   sodipodi:docname="jhoward-arms-pierra.svg"
   inkscape:version="1.3.2 (091e20e, 2023-11-25)"
   xmlns:inkscape="http://www.inkscape.org/namespaces/inkscape"
   xmlns:sodipodi="http://sodipodi.sourceforge.net/DTD/sodipodi-0.dtd"
   xmlns="http://www.w3.org/2000/svg"
   xmlns:svg="http://www.w3.org/2000/svg"><defs
   id="defs17" /><sodipodi:namedview
   id="namedview17"
   pagecolor="#505050"
   bordercolor="#ffffff"
   borderopacity="1"
   inkscape:showpageshadow="0"
   inkscape:pageopacity="0"
   inkscape:pagecheckerboard="1"
   inkscape:deskcolor="#d1d1d1"
   inkscape:zoom="0.46918489"
   inkscape:cx="168.37712"
   inkscape:cy="191.82203"
   inkscape:window-width="1392"
   inkscape:window-height="1041"
   inkscape:window-x="0"
   inkscape:window-y="43"
   inkscape:window-maximized="0"
   inkscape:current-layer="svg17" />
<style
   type="text/css"
   id="style1">
	.st0{display:none;}
	.st1{display:inline;fill:none;stroke:#000000;stroke-width:4;stroke-miterlimit:10;}
	.st2{display:inline;fill:#FFFFFF;}
	.st3{fill:#FFFFFF;stroke:#000000;stroke-width:4;stroke-miterlimit:10;}
	.st4{fill:#306993;stroke:#000000;stroke-width:2;stroke-miterlimit:10;}
	.st5{fill:#78ABB9;stroke:#000000;stroke-width:2;stroke-miterlimit:10;}
	.st6{fill:#22416E;stroke:#000000;stroke-width:2;stroke-miterlimit:10;}
	.st7{fill:none;stroke:#000000;stroke-width:4;stroke-miterlimit:10;}
	.st8{fill:#E3D28F;stroke:#000000;stroke-miterlimit:10;}
	.st9{fill:#FFFFFF;stroke:#000000;stroke-miterlimit:10;}
	.st10{fill:#FFFFFF;}
	.st11{fill:#A1771D;}
	.st12{fill:none;stroke:#000000;stroke-miterlimit:10;}
	.st13{fill:#FFFFFF;stroke:#A1771D;stroke-width:3;stroke-miterlimit:10;}
	.st14{fill:#24426E;stroke:#000000;stroke-miterlimit:10;}
	.st15{fill:#366B94;stroke:#000000;stroke-miterlimit:10;}
	.st16{fill:#E3D28F;stroke:#000000;stroke-width:0.5;stroke-miterlimit:10;}
	.st17{fill:#A07722;stroke:#000000;stroke-width:0.5;stroke-miterlimit:10;}
</style>
<g
   id="Calque_5"
   class="st0"
   transform="translate(-83.66,-60.48)">
	<g
   id="g2">
		<rect
   x="71.25"
   y="73.190002"
   class="st1"
   width="360"
   height="395"
   id="rect1" />
		<circle
   class="st1"
   cx="298.01999"
   cy="247.17"
   r="226.77"
   id="circle1" />
		<circle
   class="st1"
   cx="204.48"
   cy="247.17"
   r="226.77"
   id="circle2" />
	</g>
</g>
<g
   id="Calque_4"
   class="st0"
   transform="translate(-83.66,-60.48)">
</g>
<g
   id="Calque_7"
   transform="translate(-83.66,-60.48)">
</g>
<g
   id="Calque_6"
   transform="translate(-83.66,-60.48)">
	<g
   id="g17">
		<g
   id="g3">
			<path
   class="st3"
   d="m 417.3,219.01 c 0.01,-0.67 0.01,-1.35 0.01,-2.04 V 62.48 H 85.66 v 154.49 c 0,0.68 0,1.35 0.01,2.02 0.01,0.52 0.01,1.02 0.03,1.52 0.03,1.52 0.09,3.03 0.18,4.51 l 0.19,3.37 h -0.13 c 2.51,50.96 21.62,98.79 55.39,138.52 28.97,34.1 67.04,59.87 110.16,74.6 43.1,-14.73 81.17,-40.5 110.15,-74.6 33.77,-39.73 52.88,-87.56 55.38,-138.52 h -0.13 l 0.45,-10.12"
   id="path2" />
		</g>
		<polygon
   class="st4"
   points="250.55,117.17 250.55,254.46 370.51,320.3 "
   id="polygon3" />
		<polygon
   class="st5"
   points="252.09,117.02 251.6,255.03 131.27,320.87 "
   id="polygon4" />
		<polygon
   class="st6"
   points="370.51,320.54 251.6,255.03 132.48,321.35 "
   id="polygon5" />
		<polygon
   class="st7"
   points="371.98,321.35 251.48,116.35 130.98,321.35 "
   id="polygon6" />
		<g
   id="g16">
			<path
   class="st8"
   d="m 235.52,207.01 -50.87,-30.23 -8.2,12.17 50.95,30.24 c 2.74,-4.03 5.44,-8.1 8.12,-12.18 z"
   id="path6" />
			<path
   class="st8"
   d="M 340.36,269.32 298.1,244.2 c 1.56,6.59 3.62,13.18 4.83,19.82 l 29.12,17.28 23.86,5.18 z"
   id="path7" />
			<g
   id="g10">
				<path
   class="st10"
   d="m 339.81,277.18 c -0.03,-0.13 -0.07,-0.26 -0.1,-0.39 -13.07,-7.77 -26.12,-15.44 -39.1,-22.81 z"
   id="path8" />
				<g
   id="g9">
					<path
   class="st11"
   d="m 339.81,277.18 c -0.05,-0.15 -0.11,-0.27 -0.16,-0.37 l 0.03,0.04 c -3.57,-1.38 -7.06,-2.88 -10.52,-4.43 -3.22,-1.96 -6.5,-3.82 -9.75,-5.73 l -19.54,-11.4 1.5,-2.6 c 6.34,3.75 12.56,7.51 18.75,11.4 l 9.33,5.91 c 3.31,2.39 6.74,4.76 10.36,7.18 z m 0,0 c -2.91,-1.45 -6.01,-2.95 -9.25,-4.41 l -10.27,-5.7 c -6.87,-3.85 -13.72,-7.82 -20.45,-11.81 l 1.5,-2.6 19.56,11.41 c 3.27,1.89 6.5,3.84 9.8,5.68 3.05,2.25 6.08,4.55 9.03,6.97 l 0.03,0.02 v 0.02 c 0.03,0.17 0.03,0.31 0.05,0.42 z"
   id="path9" />
				</g>
			</g>
			<path
   class="st12"
   d="M 340.36,269.32 298.1,244.2 c 1.56,6.59 3.62,13.18 4.83,19.82 l 29.12,17.28 23.86,5.18 z"
   id="path10" />
			<path
   class="st13"
   d="m 181.88,183.69 c 17.38,9.43 33.38,19.43 49.09,29.06"
   id="path11" />
			<g
   id="g13">
				<g
   id="g12">
					<path
   class="st14"
   d="m 185.3,177.18 c -0.57,-0.57 -1.53,-0.36 -2.74,0.33 0.49,-0.78 0.6,-1.42 0.15,-1.87 -0.62,-0.62 -1.71,-0.31 -3.09,0.54 0.66,-0.91 0.86,-1.66 0.35,-2.17 -0.61,-0.61 -1.67,-0.32 -3,0.48 0.61,-0.88 0.79,-1.6 0.3,-2.09 -0.57,-0.57 -1.53,-0.36 -2.74,0.33 0.49,-0.78 0.6,-1.42 0.15,-1.87 -0.57,-0.57 -1.53,-0.36 -2.74,0.33 0.49,-0.77 0.59,-1.41 0.15,-1.86 -0.62,-0.62 -1.71,-0.31 -3.09,0.54 0.66,-0.91 0.86,-1.66 0.35,-2.17 -0.61,-0.61 -1.67,-0.32 -3,0.48 0.61,-0.88 0.79,-1.6 0.3,-2.09 -0.57,-0.57 -1.53,-0.36 -2.74,0.33 0.49,-0.78 0.6,-1.42 0.15,-1.87 -0.67,-0.67 -1.88,-0.26 -3.41,0.74 0.8,-1.03 1.09,-1.86 0.54,-2.42 -0.62,-0.62 -1.71,-0.31 -3.09,0.54 0.66,-0.91 0.86,-1.66 0.35,-2.17 -0.61,-0.61 -1.67,-0.32 -3,0.48 0.61,-0.88 0.79,-1.6 0.3,-2.09 -0.49,-0.49 -1.27,-0.4 -2.26,0.08 l -0.27,-0.16 c 0.28,-0.59 0.3,-1.09 -0.07,-1.45 -0.49,-0.49 -1.27,-0.4 -2.26,0.08 l -5.18,-3.07 -1.44,2.1 -1.43,-6.02 -11.84,2.44 2.62,11 6.48,-1.33 -1.13,1.65 2.39,1.42 c -0.4,0.7 -0.47,1.3 -0.06,1.78 0.53,0.62 1.46,0.43 2.65,-0.24 -0.4,0.7 -0.47,1.3 -0.06,1.78 0.53,0.62 1.46,0.43 2.65,-0.24 l 0.13,0.08 c -0.39,0.69 -0.48,1.29 -0.07,1.77 0.57,0.68 1.63,0.39 2.98,-0.43 -0.56,0.82 -0.71,1.52 -0.24,2.07 0.61,0.73 1.78,0.35 3.26,-0.61 -0.68,0.92 -0.9,1.69 -0.4,2.29 0.53,0.62 1.46,0.43 2.65,-0.24 -0.4,0.7 -0.47,1.3 -0.06,1.78 0.56,0.67 1.59,0.4 2.89,-0.38 -0.51,0.79 -0.63,1.46 -0.19,1.98 0.57,0.68 1.63,0.39 2.98,-0.43 -0.56,0.82 -0.71,1.52 -0.24,2.07 0.53,0.63 1.46,0.43 2.66,-0.24 -0.4,0.7 -0.46,1.29 -0.06,1.77 0.53,0.62 1.46,0.43 2.65,-0.24 -0.4,0.7 -0.47,1.3 -0.06,1.78 0.56,0.67 1.59,0.4 2.89,-0.38 -0.51,0.79 -0.63,1.46 -0.19,1.98 0.57,0.68 1.63,0.39 2.98,-0.43 -0.56,0.82 -0.71,1.52 -0.24,2.07 0.53,0.62 1.46,0.43 2.65,-0.24 -0.4,0.7 -0.47,1.3 -0.06,1.78 1.1,1.3 3.95,-0.93 7.23,-3.7 3.27,-2.8 5.77,-5.21 4.62,-6.37 z"
   id="path12" />
				</g>
			</g>
			<g
   id="g15">
				<g
   id="g14">
					<path
   class="st15"
   d="m 200.2,169.55 -1.78,-7.47 -8.04,1.65 1.04,4.37 c -3.49,2.7 -8.39,7.53 -12.68,13.78 -4.31,6.27 -7.03,12.47 -8.2,16.55 l -4.63,0.95 1.78,7.47 8.04,-1.65 -1,-4.2 c 3.48,-2.69 8.32,-7.66 12.67,-13.99 4.32,-6.29 7.15,-12.47 8.32,-16.54 z"
   id="path13" />
				</g>
			</g>
			<polygon
   class="st16"
   points="138.59,155.21 138.9,157.21 141.17,157.86 139.09,158.45 139.39,160.45 137.8,158.81 135.72,159.4 136.82,157.8 135.23,156.16 137.5,156.81 "
   id="polygon15" />
			<ellipse
   class="st17"
   cx="170.75"
   cy="202.39999"
   rx="1.8200001"
   ry="1.6900001"
   id="ellipse15" />
			<ellipse
   class="st17"
   cx="195.28999"
   cy="166.64999"
   rx="1.8200001"
   ry="1.6900001"
   id="ellipse16" />
		</g>
	</g>
</g>
</svg>
