<?xml version="1.0" encoding="UTF-8" standalone="no"?>
<!-- Generator: Adobe Illustrator 18.1.1, SVG Export Plug-In . SVG Version: 6.00 Build 0)  -->

<svg
   version="1.1"
   id="Layer_1"
   x="0px"
   y="0px"
   width="743.90002"
   height="898.79785"
   viewBox="-613 293 743.90002 898.79785"
   enable-background="new -613 293 820 952"
   xml:space="preserve"
   sodipodi:docname="jhoward-arms-wappenwiki.svg"
   inkscape:version="1.3.2 (091e20e, 2023-11-25)"
   xmlns:inkscape="http://www.inkscape.org/namespaces/inkscape"
   xmlns:sodipodi="http://sodipodi.sourceforge.net/DTD/sodipodi-0.dtd"
   xmlns="http://www.w3.org/2000/svg"
   xmlns:svg="http://www.w3.org/2000/svg"
   xmlns:i="&amp;ns_ai;"><defs
   id="defs26">
	
	
</defs><sodipodi:namedview
   id="namedview26"
   pagecolor="#505050"
   bordercolor="#ffffff"
   borderopacity="1"
   inkscape:showpageshadow="0"
   inkscape:pageopacity="0"
   inkscape:pagecheckerboard="1"
   inkscape:deskcolor="#d1d1d1"
   inkscape:zoom="0.74146341"
   inkscape:cx="465.29605"
   inkscape:cy="126.10197"
   inkscape:window-width="1920"
   inkscape:window-height="1080"
   inkscape:window-x="1470"
   inkscape:window-y="0"
   inkscape:window-maximized="0"
   inkscape:current-layer="g26" />
<g
   i:extraneous="self"
   id="g26"
   inkscape:label="Arms of James Howard - Wappenwiki Style"
   transform="translate(-38.6,-28.4)">
		<g
   id="g1"
   inkscape:label="Field">
			<polygon
   fill="#BC2E2E"
   stroke="#000000"
   stroke-width="5"
   stroke-miterlimit="10"
   points="-121,1173.1 -107.6,1163.9 -95.7,1155.4 -83.6,1146.3 -72.8,1137.9 -63.6,1130.3 -50.2,1118.8 -36.6,1106.4 -24.5,1094.8 -11.6,1081.8 -3.7,1073.4 3.5,1065.5 10.9,1057 21.7,1044.1 29.5,1034.3 38.6,1022.4 46,1012.3 54.6,1000 60.9,990.6 67.5,980.2 71.3,974 78.4,962 84.4,951.3 90.4,940.3 98,925.3 103.8,913.2 109.4,900.9 115.9,885.5 120.2,874.6 123.8,865.3 129,850.7 133.4,837.2 137.4,824.6 140.9,811.9 144.3,799.3 147.9,784.6 151.1,770.1 153.4,758.6 155.5,746.9 157.5,734.9 159.5,721.4 161.3,707.9 162.6,696.3 163.7,684.8 164.9,670.7 166,653.4 166.4,642.2 167,625.9 167,323.9 -571.9,323.9 -571.9,625.9 -571.3,642.2 -570.9,653.4 -569.8,670.7 -568.6,684.8 -567.5,696.3 -566.2,707.9 -564.4,721.4 -562.4,734.9 -560.4,746.9 -558.3,758.6 -556,770.1 -552.8,784.6 -549.2,799.3 -545.8,811.9 -542.3,824.6 -538.3,837.2 -533.9,850.7 -528.7,865.3 -525.1,874.6 -520.8,885.5 -514.3,900.9 -508.7,913.2 -502.9,925.3 -495.3,940.3 -489.3,951.3 -483.3,962 -476.2,974 -472.4,980.2 -465.8,990.6 -459.5,1000 -450.9,1012.3 -443.5,1022.4 -434.4,1034.3 -426.6,1044.1 -415.8,1057 -408.4,1065.5 -401.2,1073.4 -393.3,1081.8 -380.4,1094.8 -368.3,1106.4 -354.7,1118.8 -341.3,1130.3 -332.1,1137.9 -321.3,1146.3 -309.2,1155.4 -297.3,1163.9 -283.9,1173.1 -267.1,1183.8 -250.8,1193.4 -234.6,1202.3 -225.1,1207.2 -217.3,1211 -209.6,1214.6 -202.3,1217.5 -195.3,1214.6 -187.6,1211 -179.8,1207.2 -170.3,1202.3 -154.1,1193.4 -137.8,1183.8 "
   id="polygon1"
   style="fill:#ffffff;fill-opacity:1" />
		</g>
		
		<g
   id="g27"
   inkscape:label="Tetrahedron"><path
     fill="#cbcb00"
     d="M -456.23165,908.38629 -200.86717,472.45198 V 763.42501 Z"
     id="path1-3"
     style="display:inline;fill:#0d6793;fill-opacity:1;stroke:#000000;stroke-width:2.5;stroke-linejoin:round;stroke-dasharray:none;stroke-opacity:1"
     inkscape:label="path1-3" /><path
     fill="#7b7b00"
     d="M -200.86717,763.42501 V 472.45198 L 51.331609,908.38629 Z"
     id="path2-8"
     style="display:inline;fill:#0d6793;fill-opacity:1;stroke:#000000;stroke-width:2.5;stroke-linejoin:round;stroke-dasharray:none;stroke-opacity:1" /><path
     fill="#474700"
     d="M -456.23165,908.38629 -200.86717,763.42501 51.331609,908.38629 Z"
     id="path3-2"
     style="display:inline;fill:#0d6793;fill-opacity:1;stroke:#000000;stroke-width:2.5;stroke-linejoin:round;stroke-dasharray:none;stroke-opacity:1"
     inkscape:label="path3-2" /></g><g
   id="Layer_2_2_"
   transform="rotate(180,-246.54976,702.66575)"
   inkscape:label="Sword">
			<path
   fill="#F6F6F6"
   stroke="#000000"
   stroke-width="3"
   stroke-miterlimit="10"
   d="M -330.14333,534.69326 C -361.93584,495.32767 -398.49968,450.4212 -431.766,409.106 c -8.45907,-10.82795 -48.677,-53.028 -56.397,-46.997 -7.72,6.031 22.66682,55.30258 31.462,66.564 0.15048,0.19268 34.23622,45.33181 80.0672,106.06898 0.41653,0.55201 0,0 0,0 z m 117.43815,216.62069 c 51.09007,67.84179 95.33625,127.56194 111.30318,149.10405 l 5.376,1.091 36.203,-28.282 0.222,-5.479 C -77.632569,845.85893 -142.64404,765.99333 -187.73881,710.48767 Z"
   id="path16"
   style="fill:#f2bc51;fill-opacity:1"
   sodipodi:nodetypes="cssssccccccccc" />
			<path
   fill="none"
   stroke="#000000"
   stroke-width="2.5"
   stroke-miterlimit="10"
   d="m -350.20278,534.71428 c -34.98903,-43.37671 -56.95544,-70.20079 -57.74722,-69.58228 -0.77619,0.60633 34.02912,46.52341 51.30754,69.58903 z m 147.09752,201.30585 c 61.77936,80.37967 79.9618,103.94498 117.60826,152.68387 l 10.692,-8.353 c -33.73187,-42.65172 -71.21166,-89.95283 -122.38912,-154.33994 z"
   id="path17"
   style="fill:#f2bc51;fill-opacity:1"
   sodipodi:nodetypes="csccccccc" />
			<path
   fill="#F2BC51"
   stroke="#000000"
   stroke-width="3"
   stroke-miterlimit="10"
   d="M -18.019,983.682 1.008,968.818 c 0,0 -58.017,-91.809 -58.046,-91.164 -4.955,-2.861 -15.295,0.135 -23.428,6.604 -7.691,6.11 -13.359,15.47 -11.962,21.043 -0.15,-0.194 74.409,78.381 74.409,78.381 z"
   id="path18"
   style="fill:#0d6793;fill-opacity:1" />
			<g
   id="g23">
				<path
   fill="none"
   stroke="#000000"
   stroke-width="3"
   stroke-miterlimit="10"
   d="m -84.608282,913.52425 c 4.157,2.076 13.177282,-2.19925 20.771282,-8.22125 7.179,-5.69 13.817063,-13.60899 12.973063,-18.21899"
   id="path19"
   sodipodi:nodetypes="ccc" />
				<path
   fill="none"
   stroke="#000000"
   stroke-width="3"
   stroke-miterlimit="10"
   d="m -71.635949,927.18697 c 3.735,1.865 12.193949,-2.10397 19.015949,-7.51397 6.45,-5.111 12.846248,-12.41453 12.087248,-16.55653"
   id="path20"
   sodipodi:nodetypes="ccc" />
				<path
   fill="none"
   stroke="#000000"
   stroke-width="3"
   stroke-miterlimit="10"
   d="m -58.979843,940.52031 c 3.439,1.717 10.923843,-1.97431 17.205843,-6.95631 5.938,-4.706 11.710217,-11.10065 11.013217,-14.91465"
   id="path21"
   sodipodi:nodetypes="ccc" />
				<path
   fill="none"
   stroke="#000000"
   stroke-width="3"
   stroke-miterlimit="10"
   d="m -46.399654,953.77533 c 3.129,1.563 9.739654,-1.80633 15.455654,-6.33933 5.404,-4.283 10.6249,-9.85294 9.9889,-13.32294"
   id="path22"
   sodipodi:nodetypes="ccc" />
				<path
   fill="none"
   stroke="#000000"
   stroke-width="3"
   stroke-miterlimit="10"
   d="m -33.965629,966.87739 c 2.636,1.316 8.655629,-2.23539 13.470629,-6.05339 4.552,-3.607 9.652413,-8.66429 9.117413,-11.58729"
   id="path23"
   sodipodi:nodetypes="ccc" />
			</g>
			<path
   fill="#F2BC51"
   stroke="#000000"
   stroke-width="3"
   stroke-miterlimit="10"
   d="m -70.424,896.982 c -25.963,20.031 -51.453,38.189 -78.795,56.294 -2.476,-6.534 -8.182,-17.201 -10.658,-23.735 13.806,-6.763 27.436,-9.103 40.637,-16.982 13.877,-8.284 27.504,-24.22 35.172,-33.04 10.413,-5.305 29.174,-14.671 40.57,-26.13 10.84,-10.901 16.41,-23.56 26.312,-35.318 5.74,3.984 14.71,12.101 20.45,16.085 -24.182,22.146 -47.969,42.483 -73.688,62.826 z"
   id="path24"
   style="fill:#0d6793;fill-opacity:1" />
			<path
   fill="#F2BC51"
   stroke="#000000"
   stroke-width="3"
   stroke-miterlimit="10"
   d="m 21.3,1014.397 c -12.187,9.521 -29.158,8.161 -38.679,-4.026 -6.80141,-8.7064 -7.637414,-20.17202 -3.119167,-29.48303 0.251501,-0.51828 -0.284576,0.50409 0,0 3.045,-0.625 7.844167,-4.49297 11.544167,-7.42697 2.986,-2.365 5.779,-5.118 7.412,-7.63 10.252,-2.331 21.396,1.229 28.297,10.063 9.521,12.186 6.733,28.982 -5.455,38.503 z"
   id="path25"
   style="fill:#0d6793;fill-opacity:1"
   sodipodi:nodetypes="ccsccccc" />
			<path
   fill="none"
   stroke="#000000"
   stroke-width="2.5"
   stroke-miterlimit="10"
   d="m 22.191,985.29 c -6.331,-8.104 -18.033,-9.542 -26.138,-3.211 -8.104,6.331 -9.542,18.033 -3.211,26.138 6.331,8.104 17.406,8.739 25.51,2.408 8.104,-6.331 10.17,-17.231 3.839,-25.335 z"
   id="path26" />
			
				<line
   fill="none"
   stroke="#000000"
   stroke-width="3"
   stroke-miterlimit="10"
   x1="-84.068001"
   y1="879.51801"
   x2="-70.424004"
   y2="896.98199"
   id="line26" />
		</g>
	</g>

</svg>
