<?xml version="1.0" encoding="UTF-8" standalone="no"?>
<svg
   width="50cm"
   height="50cm"
   version="1.1"
   viewBox="0 0 1417.3228 1417.3229"
   id="svg1"
   sodipodi:docname="martlet.svg"
   inkscape:version="1.3.2 (091e20e, 2023-11-25)"
   xmlns:inkscape="http://www.inkscape.org/namespaces/inkscape"
   xmlns:sodipodi="http://sodipodi.sourceforge.net/DTD/sodipodi-0.dtd"
   xmlns="http://www.w3.org/2000/svg"
   xmlns:svg="http://www.w3.org/2000/svg">
  <defs
     id="defs1" />
  <sodipodi:namedview
     id="namedview1"
     pagecolor="#ffffff"
     bordercolor="#000000"
     borderopacity="0.25"
     inkscape:showpageshadow="2"
     inkscape:pageopacity="0.0"
     inkscape:pagecheckerboard="0"
     inkscape:deskcolor="#d1d1d1"
     inkscape:document-units="pt"
     inkscape:zoom="0.24155236"
     inkscape:cx="873.51662"
     inkscape:cy="397.42936"
     inkscape:window-width="1920"
     inkscape:window-height="1027"
     inkscape:window-x="2056"
     inkscape:window-y="25"
     inkscape:window-maximized="0"
     inkscape:current-layer="svg1" />
  <path
     d="M 675.87328,686.43608 355.56674,582.54774 689.57415,517.37776 c 0.20096,5.88509 0.34039,11.58958 0.41421,17.08463 1.22215,87.93548 -12.13132,144.12692 -14.11978,151.96949 z m 473.60942,-20.54606 -21.5309,-29.07631 c -34.4327,-46.478 -97.6143,-59.37571 -147.08765,-31.82383 L 626.41574,141.73228 c 140.35785,315.82356 74.56951,552.66501 74.56951,552.66501 L 804.2426,728.14868 267.84018,1104.5186 546.9916,965.63057 c 34.09261,-16.95764 72.1254,14.59955 61.73373,51.23923 l -73.33591,258.7208 195.12987,-394.77424 h 46.12524 c 119.8223,0 242.31127,-72.30178 293.84967,-175.6337 z"
     id="path1"
     style="fill:#0c6793;fill-opacity:1;stroke-width:1.04988" />
</svg>
