<?xml version="1.0" encoding="UTF-8" standalone="no"?>
<!-- Created with Inkscape (http://www.inkscape.org/) -->

<svg
   width="116.41666mm"
   height="116.68125mm"
   viewBox="0 0 116.41666 116.68125"
   version="1.1"
   id="svg1"
   xml:space="preserve"
   inkscape:version="1.3.2 (091e20e, 2023-11-25)"
   sodipodi:docname="ogs-cfo.svg"
   xmlns:inkscape="http://www.inkscape.org/namespaces/inkscape"
   xmlns:sodipodi="http://sodipodi.sourceforge.net/DTD/sodipodi-0.dtd"
   xmlns="http://www.w3.org/2000/svg"
   xmlns:svg="http://www.w3.org/2000/svg"><sodipodi:namedview
     id="namedview1"
     pagecolor="#ffffff"
     bordercolor="#000000"
     borderopacity="0.25"
     inkscape:showpageshadow="2"
     inkscape:pageopacity="0.0"
     inkscape:pagecheckerboard="0"
     inkscape:deskcolor="#d1d1d1"
     inkscape:document-units="mm"
     inkscape:zoom="0.70550336"
     inkscape:cx="57.405822"
     inkscape:cy="189.93531"
     inkscape:window-width="2088"
     inkscape:window-height="1051"
     inkscape:window-x="2536"
     inkscape:window-y="78"
     inkscape:window-maximized="0"
     inkscape:current-layer="layer1" /><defs
     id="defs1" /><g
     inkscape:label="Layer 1"
     inkscape:groupmode="layer"
     id="layer1"
     transform="translate(19.303753,-200.23427)"><g
       id="g4"
       style="display:inline"><path
         style="fill:#fcfcfb"
         d="m -19.303753,258.57489 v -58.34062 h 58.208328 58.208329 v 58.34062 58.34063 H 38.904575 -19.303753 Z"
         id="path7" /><path
         style="fill:#cd9539"
         d="m 34.538951,314.62703 c -0.436563,-0.0509 -1.912563,-0.22245 -3.280001,-0.38125 -5.321094,-0.61791 -12.062188,-2.67453 -17.308759,-5.28067 -17.1891638,-8.53841 -28.773198,-24.87753 -31.124721,-43.90098 -0.356924,-2.88747 -0.356924,-10.62017 0,-13.50764 1.757861,-14.22081 8.9029153,-27.44826 19.6989002,-36.46805 13.3649568,-11.1661 30.7278088,-15.54498 47.8895788,-12.07769 20.827071,4.20782 37.846447,20.38991 43.131098,41.00921 1.265904,4.93922 1.767549,8.99494 1.767549,14.29035 0,15.38832 -5.679429,29.08574 -16.571172,39.96569 -9.32568,9.31558 -21.301176,14.9711 -34.392697,16.24223 -2.694199,0.26159 -7.994848,0.32038 -9.809776,0.1088 z m 7.993665,-16.0623 c 0.491962,-0.46372 1.700023,-4.10977 1.852125,-5.58991 0.09061,-0.88172 0.301046,-1.43476 0.634933,-1.66862 0.274674,-0.19239 0.630775,-0.87151 0.791336,-1.50915 0.160561,-0.63765 0.517765,-1.36374 0.793788,-1.61353 0.276023,-0.2498 0.50186,-0.79292 0.50186,-1.20692 0,-0.62654 0.110901,-0.75275 0.661458,-0.75275 0.363802,0 0.899583,0.23813 1.190625,0.52917 1.019574,1.01957 1.72467,0.54909 2.002268,-1.33604 0.09537,-0.64763 0.457777,-1.62143 0.805355,-2.16402 0.347578,-0.54258 0.63196,-1.10813 0.63196,-1.25677 0,-0.14864 0.230884,-0.27025 0.513075,-0.27025 0.282191,0 1.062389,-0.47543 1.733773,-1.05651 1.538481,-1.33155 1.894769,-1.5185 3.58449,-1.88088 1.646418,-0.35309 3.139823,-1.58969 3.956023,-3.27573 0.306825,-0.63382 0.740737,-1.30417 0.964248,-1.48967 0.848578,-0.70425 2.383567,-5.39317 3.281608,-10.0243 0.183421,-0.94588 0.446491,-1.86522 0.584601,-2.04297 0.266929,-0.34354 0.657875,-31.55911 0.395249,-31.55911 -0.296493,0 -3.24231,1.16889 -3.371401,1.33776 -0.07276,0.0952 -0.598854,0.32523 -1.169097,0.51122 -0.570243,0.186 -2.280164,0.97567 -3.799824,1.75484 -2.147009,1.10082 -3.298194,1.91681 -5.163464,3.66001 -2.125921,1.98679 -2.538605,2.25991 -3.608509,2.38812 -0.664435,0.0796 -2.220094,0.38248 -3.457021,0.67302 -1.236927,0.29054 -2.503481,0.52706 -2.814565,0.5256 -0.311084,-0.001 -1.343425,0.36133 -2.294091,0.8062 l -1.728484,0.80886 -1.335134,-0.67657 c -1.56035,-0.79069 -2.234264,-0.83168 -4.027939,-0.245 -1.202522,0.39333 -1.394482,0.39482 -2.166381,0.0169 -0.465821,-0.22809 -1.063657,-0.48129 -1.328525,-0.56268 -0.318709,-0.0979 -0.452931,-0.3497 -0.396874,-0.74446 0.06491,-0.45713 0.301067,-0.62741 1.010744,-0.72879 l 0.926042,-0.13229 -0.926042,-0.69863 c -0.509323,-0.38425 -1.318182,-0.7818 -1.797465,-0.88345 -0.479283,-0.10165 -1.134127,-0.44454 -1.455209,-0.76197 -0.569898,-0.56341 -0.773518,-0.57913 -8.560253,-0.66103 -4.387058,-0.0461 -9.179323,0.001 -10.649478,0.10561 l -2.6730095,0.18951 v 24.01974 24.01975 l 1.0796105,0.1824 c 0.5937858,0.10032 1.5888631,0.10603 2.211283,0.0127 1.031519,-0.15469 1.234524,-0.084 2.293827,0.79869 1.039598,0.86627 1.428639,1.42705 2.646855,3.81523 0.716067,1.40377 1.028375,1.5875 2.698519,1.5875 1.285862,0 1.752515,0.12574 2.454881,0.66146 0.476969,0.3638 1.043823,0.66146 1.259677,0.66146 0.215853,0 0.629796,0.32581 0.919874,0.72402 0.50497,0.69321 0.549018,0.70447 1.035089,0.26458 0.767665,-0.69473 2.346501,-0.57075 4.260077,0.33452 2.109985,0.99819 2.66292,0.99447 3.630908,-0.0244 1.283754,-1.35128 3.777722,-2.37456 4.559183,-1.87064 0.188373,0.12147 0.376006,0.78972 0.416964,1.48501 0.05733,0.97315 0.222108,1.37764 0.715839,1.75716 0.352753,0.27116 0.767922,0.49567 0.922597,0.4989 0.35317,0.007 1.536041,1.26212 1.952698,2.07133 0.540033,1.04882 1.989794,1.29603 2.849323,0.48585 z m -6.377858,-6.93856 c -0.08833,-0.23018 -0.160599,-0.80344 -0.160599,-1.27391 0,-0.71866 -0.149467,-0.92667 -0.935018,-1.30128 -1.269508,-0.60538 -1.52158,-0.57037 -2.504565,0.34787 -0.641936,0.59966 -1.100823,0.79375 -1.876641,0.79375 h -1.02693 l 0.03689,-1.65364 c 0.02029,-0.90951 -0.173536,-3.0824 -0.43072,-4.82865 -0.257184,-1.74625 -0.522569,-4.81909 -0.589746,-6.82853 -0.101181,-3.02665 -0.05056,-3.76276 0.295006,-4.29017 0.229429,-0.35015 0.417143,-0.9742 0.417143,-1.38678 0,-1.03606 0.444411,-1.38514 1.763399,-1.38514 0.844826,0 1.19723,0.12861 1.402292,0.51177 0.403104,0.75321 0.334104,1.62898 -0.172441,2.18871 -0.420248,0.46437 -0.414772,0.52475 0.09371,1.03324 l 0.540044,0.54004 0.148943,-1.64256 c 0.168176,-1.85469 1.361999,-4.46422 2.222563,-4.85822 0.535062,-0.24497 1.145239,-1.93878 1.145239,-3.1791 0,-1.21366 0.255576,-1.47305 1.451416,-1.47305 0.989962,0 1.164318,0.0903 1.405002,0.7276 0.151131,0.40019 0.344927,1.32292 0.430658,2.05052 0.160482,1.36202 0.641131,1.98438 1.532542,1.98438 0.596103,0 0.852579,0.64373 1.287336,3.23112 0.313531,1.86592 0.301221,2.06282 -0.172701,2.76244 -0.430753,0.63589 -0.510296,1.2276 -0.510296,3.79602 0,1.67349 -0.02976,4.62324 -0.06614,6.55499 -0.06548,3.4767 -0.07285,3.51482 -0.727605,3.76376 -0.607874,0.23112 -0.661786,0.38598 -0.665509,1.91168 -0.0049,2.00569 -0.210766,2.39137 -1.215283,2.2767 -0.744055,-0.0849 -0.763459,-0.12544 -0.707398,-1.4764 0.04908,-1.18261 -0.01315,-1.38906 -0.418643,-1.38906 -0.415554,0 -0.460898,0.18555 -0.355608,1.45521 l 0.120677,1.45521 h -0.798206 c -0.483784,0 -0.861468,-0.16486 -0.958805,-0.41852 z m -2.012682,-16.63149 c 0,-0.2097 -0.119063,-0.45485 -0.264584,-0.54479 -0.14552,-0.0899 -0.264583,0.0816 -0.264583,0.38126 0,0.29963 0.119063,0.54479 0.264583,0.54479 0.145521,0 0.264584,-0.17157 0.264584,-0.38126 z m -15.941145,15.44131 c -0.519925,-0.30283 -0.616642,-1.30685 -0.169008,-1.75448 0.663458,-0.66346 0.394796,-10.23403 -0.29933,-10.66303 -0.132396,-0.0818 -0.380178,-0.79904 -0.550627,-1.59382 -0.397649,-1.85417 -0.185828,-10.47584 0.278701,-11.34382 0.177128,-0.33097 0.966813,-0.8869 1.754856,-1.23541 1.569138,-0.69395 1.563261,-0.68166 1.136581,-2.37616 -0.394471,-1.56658 -0.05992,-1.96833 1.639087,-1.96833 2.513276,0 3.578981,1.18762 2.254352,2.51225 -0.718001,0.718 -0.924469,1.71825 -0.356071,1.72502 0.181902,0.002 0.780118,0.38911 1.32937,0.85989 l 0.99864,0.85596 0.39092,3.83646 c 0.215005,2.11005 0.528904,4.38889 0.697553,5.06408 0.437668,1.75222 -0.09793,3.63398 -1.147023,4.02997 l -0.748105,0.28238 v 4.04562 c 0,3.71821 0.04283,4.0823 0.529166,4.49872 1.441765,1.23447 -0.33002,3.41669 -2.489549,3.06624 l -0.950034,-0.15416 v -1.70623 c 0,-1.74314 -0.460037,-6.50457 -0.697613,-7.22037 -0.326069,-0.98243 -0.694487,0.81381 -0.941154,4.58863 -0.228862,3.50235 -0.329711,4.06898 -0.796164,4.47335 -0.600132,0.52026 -1.180852,0.57546 -1.864548,0.17724 z m 13.361457,-29.2697 c -0.375069,-0.0722 -0.595312,-0.30588 -0.595312,-0.63152 0,-0.48228 0.04177,-0.4895 0.624177,-0.10789 1.252086,0.8204 2.208858,-0.32437 1.067375,-1.27711 -1.865398,-1.55694 -2.035381,-1.91304 -1.275778,-2.67264 0.514772,-0.51478 2.494642,-0.57194 2.494642,-0.072 0,0.23706 -0.287418,0.31019 -0.926041,0.23564 -0.803898,-0.0939 -0.926042,-0.0333 -0.926042,0.45892 0,0.36779 0.326024,0.7594 0.927824,1.11447 1.282135,0.75648 1.492076,1.71475 0.552694,2.52277 -0.71718,0.6169 -0.834955,0.64292 -1.943539,0.42939 z m 4.455774,-0.0917 c -0.973622,-0.40458 -1.329279,-1.0544 -1.338505,-2.4456 -0.01152,-1.73775 0.794285,-2.56766 2.4931,-2.56766 1.656292,0 2.260985,0.63291 2.260985,2.3665 0,2.1151 -1.638858,3.38507 -3.41558,2.64676 z m 1.927352,-0.59077 c 0.678639,-0.49623 0.870261,-2.39501 0.325592,-3.22628 -0.5144,-0.78507 -1.748021,-0.90754 -2.310696,-0.22939 -0.594311,0.71627 -0.418398,2.73935 0.287928,3.31129 0.707456,0.57287 1.069111,0.60363 1.697176,0.14438 z m 3.434767,0.60682 c -1.525972,-0.6158 -1.940612,-3.11099 -0.719835,-4.33177 0.562437,-0.56244 0.946777,-0.69754 1.984375,-0.69754 0.944043,0 1.286837,0.10156 1.286837,0.38126 0,0.48415 -0.451198,0.77869 -0.583738,0.38107 -0.150204,-0.45061 -1.520089,-0.35939 -2.013559,0.13408 -0.693251,0.69325 -0.572289,2.48719 0.210445,3.12101 0.614924,0.49793 1.07441,0.51717 2.254561,0.0944 0.407199,-0.14588 0.35806,-0.0318 -0.213192,0.49514 -0.774489,0.71434 -1.254564,0.80626 -2.205894,0.42235 z m 3.60971,-2.51577 c 0,-2.21746 0.05454,-2.51354 0.463021,-2.51354 0.40848,0 0.463021,0.29608 0.463021,2.51354 0,2.21746 -0.05454,2.51355 -0.463021,2.51355 -0.408479,0 -0.463021,-0.29609 -0.463021,-2.51355 z m 1.852084,0.0132 v -2.52675 h 1.322916 c 0.908663,0 1.322917,0.10764 1.322917,0.34375 0,0.23706 -0.287419,0.31019 -0.926042,0.23564 -0.882966,-0.10309 -0.926041,-0.0698 -0.926041,0.71458 0,0.76644 0.0644,0.8227 0.941656,0.8227 0.560397,0 0.87545,0.10712 0.778135,0.26458 -0.08994,0.14552 -0.520869,0.26459 -0.957628,0.26459 -0.755844,0 -0.79015,0.0478 -0.711989,0.99218 0.08759,1.05836 0.40616,1.19278 1.767067,0.74566 0.470754,-0.15467 0.597177,-0.1167 0.508263,0.15262 -0.07657,0.23192 -0.64811,0.38651 -1.618804,0.43784 l -1.50045,0.0794 z m 5.027083,0.2183 v -2.28203 l -0.815012,0.16301 c -0.585432,0.11708 -0.784178,0.0705 -0.705555,-0.16537 0.07623,-0.2287 0.825533,-0.32837 2.468657,-0.32837 h 2.359201 l 0.568456,1.12605 0.568456,1.12605 0.489877,-1.1912 c 0.333094,-0.80997 0.647804,-1.19152 0.983328,-1.1922 0.537922,-0.001 0.601986,-0.16497 -0.755856,1.93362 -0.265233,0.40993 -0.492596,1.27121 -0.506361,1.91816 -0.01984,0.93234 -0.120352,1.1742 -0.488004,1.17425 -0.367441,5e-5 -0.464221,-0.23206 -0.468832,-1.12441 -0.0032,-0.61847 -0.2355,-1.6305 -0.516231,-2.24896 -0.437205,-0.96319 -0.625407,-1.12448 -1.312064,-1.12448 -0.992869,0 -1.219295,0.67614 -0.983119,2.93576 0.150154,1.43659 0.121071,1.56216 -0.361831,1.56216 -0.48317,0 -0.52511,-0.18227 -0.52511,-2.28204 z m -36.705663,-5.03865 c -0.907737,-0.18934 -1.658917,-1.33266 -1.658917,-2.52493 0,-0.80002 0.180177,-1.22318 0.773397,-1.8164 0.669903,-0.66991 0.970853,-0.7734 2.248958,-0.7734 1.307675,0 1.475561,0.0613 1.475561,0.53847 0,0.45039 -0.08372,0.49367 -0.511773,0.26459 -0.281475,-0.15064 -0.858334,-0.27389 -1.281909,-0.27389 -2.249798,0 -2.362153,3.53239 -0.130172,4.09258 0.863292,0.21668 1.190442,-0.23889 0.991431,-1.38061 -0.128765,-0.73871 -0.07362,-0.85989 0.391267,-0.85989 0.472998,0 0.541156,0.16662 0.541156,1.32292 0,0.94608 -0.103629,1.32291 -0.363802,1.32291 -0.200091,0 -0.706107,0.0474 -1.124479,0.10536 -0.418373,0.058 -1.026196,0.05 -1.350718,-0.0177 z m 25.617167,-0.10147 c -0.973623,-0.40458 -1.329279,-1.0544 -1.338505,-2.4456 -0.01152,-1.73775 0.794285,-2.56766 2.4931,-2.56766 1.656292,0 2.260985,0.63291 2.260985,2.36649 0,2.11511 -1.638858,3.38507 -3.41558,2.64677 z m 1.927352,-0.59077 c 0.678639,-0.49624 0.870261,-2.39501 0.325592,-3.22628 -0.514401,-0.78508 -1.748021,-0.90755 -2.310696,-0.2294 -0.594312,0.71628 -0.418399,2.73935 0.287928,3.3113 0.707455,0.57286 1.06911,0.60363 1.697176,0.14438 z m 3.940895,0.69224 c -0.907737,-0.18934 -1.658918,-1.33266 -1.658918,-2.52493 0,-0.80002 0.180178,-1.22318 0.773398,-1.8164 0.669903,-0.66991 0.970853,-0.7734 2.248958,-0.7734 1.307675,0 1.475561,0.0613 1.475561,0.53847 0,0.45039 -0.08372,0.49367 -0.511773,0.26459 -0.281475,-0.15064 -0.858334,-0.27389 -1.281909,-0.27389 -2.249798,0 -2.362153,3.53239 -0.130173,4.09258 0.863293,0.21668 1.190443,-0.23889 0.991431,-1.38061 -0.128764,-0.73871 -0.07362,-0.85989 0.391268,-0.85989 0.472998,0 0.541156,0.16662 0.541156,1.32292 0,0.94608 -0.103629,1.32291 -0.363802,1.32291 -0.200091,0 -0.706107,0.0474 -1.124479,0.10536 -0.418373,0.058 -1.026196,0.05 -1.350718,-0.0177 z m 6.902204,-0.0854 c -1.525972,-0.61581 -1.940612,-3.111 -0.719834,-4.33177 0.562436,-0.56244 0.946777,-0.69754 1.984375,-0.69754 0.944042,0 1.286837,0.10156 1.286837,0.38126 0,0.48414 -0.451198,0.77869 -0.583739,0.38106 -0.150203,-0.45061 -1.520088,-0.35939 -2.013559,0.13408 -0.693251,0.69325 -0.572288,2.4872 0.210445,3.12102 0.614924,0.49793 1.07441,0.51717 2.254561,0.0944 0.407199,-0.14587 0.358061,-0.0317 -0.213192,0.49515 -0.774489,0.71434 -1.254563,0.80626 -2.205894,0.42235 z m -34.490286,-2.50257 v -2.52674 h 1.322917 c 0.908663,0 1.322916,0.10764 1.322916,0.34375 0,0.23705 -0.287419,0.31019 -0.926041,0.23563 -0.882967,-0.10308 -0.926042,-0.0698 -0.926042,0.71459 0,0.76643 0.0644,0.8227 0.941657,0.8227 0.560396,0 0.875449,0.10712 0.778135,0.26458 -0.08994,0.14552 -0.52087,0.26458 -0.957629,0.26458 -0.755844,0 -0.79015,0.0478 -0.711989,0.99219 0.08759,1.05835 0.40616,1.19278 1.767067,0.74566 0.470754,-0.15467 0.597177,-0.11671 0.508263,0.15262 -0.07657,0.23192 -0.648109,0.38651 -1.618803,0.43784 l -1.500451,0.0794 z m 3.571875,-0.0132 c 0,-2.33864 0.03682,-2.51323 0.529166,-2.50909 0.362472,0.003 0.924334,0.60732 1.783612,1.91823 l 1.254445,1.91378 0.0023,-1.91823 c 0.0019,-1.5845 0.0763,-1.91823 0.427508,-1.91823 0.279009,0 0.36997,0.14388 0.264583,0.41851 -0.08833,0.23019 -0.160599,1.36128 -0.160599,2.51355 0,1.5031 -0.09344,2.09318 -0.330729,2.08851 -0.181901,-0.004 -0.966242,-0.92632 -1.74298,-2.05052 l -1.412251,-2.04401 0.09448,2.05052 c 0.0783,1.69941 0.02564,2.05052 -0.307541,2.05052 -0.331421,0 -0.402016,-0.44138 -0.402016,-2.51354 z m 5.159374,0.002 v -2.51579 h 1.322917 c 0.908663,0 1.322916,0.10764 1.322916,0.34375 0,0.23705 -0.287418,0.31019 -0.926041,0.23563 -0.882966,-0.10308 -0.926042,-0.0698 -0.926042,0.71459 0,0.76643 0.0644,0.8227 0.941657,0.8227 0.560396,0 0.875449,0.10712 0.778135,0.26458 -0.08994,0.14552 -0.513682,0.26458 -0.941657,0.26458 -0.714225,0 -0.778135,0.0767 -0.778135,0.93435 0,1.08062 0.38581,1.32432 1.453775,0.91828 0.573539,-0.21806 0.800625,-0.20579 0.959856,0.0519 0.210974,0.34136 1.596111,-2.37671 1.969679,-3.86512 0.130765,-0.52101 0.322086,-0.69187 0.709044,-0.63322 0.394704,0.0598 0.713969,0.58676 1.250974,2.0647 0.39656,1.0914 0.811154,2.19273 0.921319,2.44739 0.151846,0.35101 0.07569,0.46302 -0.314824,0.46302 -0.366377,0 -0.615984,-0.3056 -0.864407,-1.05833 -0.313639,-0.95034 -0.438372,-1.05833 -1.222353,-1.05833 -0.785366,0 -0.904076,0.10348 -1.181711,1.03014 l -0.30864,1.03015 -2.083231,0.0304 -2.083231,0.0304 z m 6.2058,-0.46527 c -0.302838,-1.00236 -0.570719,-1.06983 -0.867499,-0.21848 -0.267787,0.76817 -0.246382,0.81379 0.381834,0.81379 0.567076,0 0.638918,-0.0881 0.485665,-0.59531 z m 2.52545,0.46302 c 0,-2.21745 0.05454,-2.51355 0.46302,-2.51358 0.411944,-3e-5 0.452739,0.24783 0.36981,2.24688 -0.101117,2.4375 0.137393,2.86463 1.263161,2.26214 0.445748,-0.23856 0.549842,-0.21737 0.549842,0.11192 0,0.31103 -0.309905,0.40618 -1.322917,0.40618 h -1.322916 z m 13.758332,0 c 0,-2.21746 0.05454,-2.51354 0.46302,-2.51354 0.40848,0 0.463021,0.29608 0.463021,2.51354 0,2.21746 -0.05454,2.51354 -0.463021,2.51354 -0.408479,0 -0.46302,-0.29608 -0.46302,-2.51354 z m 6.656858,1.01836 c 0.414802,-0.82235 0.893159,-1.95903 1.063016,-2.52597 0.237849,-0.79386 0.427567,-1.01272 0.825425,-0.95221 0.378246,0.0575 0.709687,0.61 1.237612,2.06295 0.39656,1.0914 0.811153,2.19273 0.921319,2.44739 0.151846,0.35101 0.07569,0.46302 -0.314825,0.46302 -0.366376,0 -0.615984,-0.3056 -0.864406,-1.05833 -0.31364,-0.95034 -0.438372,-1.05833 -1.222353,-1.05833 -0.789348,0 -0.903479,0.10149 -1.190156,1.05833 -0.20709,0.6912 -0.471927,1.05833 -0.763451,1.05833 -0.382451,0 -0.338375,-0.21409 0.307819,-1.49518 z m 2.194774,-1.48138 c -0.302838,-1.00236 -0.570719,-1.06983 -0.867499,-0.21848 -0.267787,0.76817 -0.246381,0.81379 0.381834,0.81379 0.567076,0 0.638919,-0.0881 0.485665,-0.59531 z m 2.52545,0.46302 c 0,-2.21745 0.05454,-2.51355 0.463021,-2.51358 0.411943,-3e-5 0.452738,0.24783 0.36981,2.24688 -0.101117,2.4375 0.137393,2.86463 1.263161,2.26214 0.445747,-0.23856 0.549841,-0.21737 0.549841,0.11192 0,0.31103 -0.309904,0.40618 -1.322916,0.40618 H 61.65874 Z m -49.717659,-4.90861 c -0.973622,-0.40458 -1.329279,-1.05441 -1.338505,-2.4456 -0.01152,-1.73776 0.794285,-2.56766 2.4931,-2.56766 1.656292,0 2.260985,0.63291 2.260985,2.36649 0,2.1151 -1.638858,3.38507 -3.41558,2.64677 z m 1.927352,-0.59078 c 0.678639,-0.49623 0.870261,-2.39501 0.325592,-3.22628 -0.514401,-0.78507 -1.748021,-0.90754 -2.310696,-0.22939 -0.594311,0.71627 -0.418398,2.73935 0.287928,3.3113 0.707456,0.57286 1.06911,0.60363 1.697176,0.14437 z m 10.508064,0.59078 c -0.973623,-0.40458 -1.329279,-1.05441 -1.338506,-2.4456 -0.01152,-1.73776 0.794286,-2.56766 2.493101,-2.56766 1.656292,0 2.260984,0.63291 2.260984,2.36649 0,2.1151 -1.638857,3.38507 -3.415579,2.64677 z m 1.927351,-0.59078 c 0.67864,-0.49623 0.870262,-2.39501 0.325592,-3.22628 -0.5144,-0.78507 -1.748021,-0.90754 -2.310696,-0.22939 -0.594311,0.71627 -0.418398,2.73935 0.287929,3.3113 0.707455,0.57286 1.06911,0.60363 1.697175,0.14437 z m -9.888854,-1.90894 c 0,-2.2953 0.04376,-2.51354 0.50399,-2.51354 0.435258,0 0.484631,0.14433 0.362037,1.05833 l -0.141952,1.05833 h 1.093171 1.09317 v -1.05833 c 0,-0.83155 0.09922,-1.05833 0.463021,-1.05833 0.40848,0 0.463021,0.29608 0.463021,2.51354 0,2.21746 -0.05454,2.51354 -0.463021,2.51354 -0.372376,0 -0.463021,-0.23309 -0.463021,-1.19063 v -1.19062 h -1.092743 -1.092742 l 0.1342,1.19062 c 0.116764,1.03593 0.06967,1.19063 -0.362465,1.19063 -0.450979,0 -0.496666,-0.23122 -0.496666,-2.51354 z m 4.7625,0 c 0,-2.21746 0.05454,-2.51354 0.46302,-2.51354 0.40848,0 0.463021,0.29608 0.463021,2.51354 0,2.21746 -0.05454,2.51354 -0.463021,2.51354 -0.408479,0 -0.46302,-0.29608 -0.46302,-2.51354 z"
         id="path6" /><path
         style="fill:#93763e"
         d="m 37.581659,310.81051 c -1.091406,-0.11362 -2.936875,-0.27461 -4.101042,-0.35776 -4.00688,-0.2862 -4.793707,-0.54502 -3.478519,-1.14426 0.665752,-0.30334 0.698834,-0.47402 1.130952,-5.83508 0.169095,-2.09787 0.151385,-2.20405 -0.391307,-2.34596 -0.312629,-0.0818 -0.568417,-0.32192 -0.568417,-0.5337 0,-0.30837 0.276635,-0.3533 1.389062,-0.2256 4.916213,0.56436 10.110347,0.90255 10.25547,0.66773 0.172867,-0.2797 5.284946,-1.07734 5.619529,-0.87681 0.364227,0.21829 0.204321,0.55361 -0.330729,0.69353 -0.655601,0.17144 -0.673455,0.81019 -0.125482,4.48914 0.510017,3.42413 0.580125,3.63628 1.201645,3.63628 0.870524,0 0.581556,0.75797 -0.348559,0.91428 -1.515237,0.25464 -4.292941,0.66916 -4.497916,0.67122 -0.381266,0.004 -0.19416,-0.57822 0.325929,-1.01392 0.52272,-0.43791 0.5227,-0.45048 -0.0064,-4.00438 -0.291947,-1.9608 -0.638258,-3.67254 -0.769578,-3.80386 -0.288358,-0.28836 -1.280328,-0.0674 -1.973407,0.43949 -0.422696,0.30917 -0.555044,0.9477 -0.809809,3.90701 -0.304058,3.53189 -0.303584,3.53831 0.302533,4.10004 0.333887,0.30944 0.529629,0.64005 0.434982,0.7347 -0.19142,0.19142 -0.418302,0.18362 -3.258891,-0.11209 z m -1.537533,-1.10489 c 0.234584,-0.18663 0.480569,-0.9261 0.564606,-1.69729 0.165608,-1.51974 0.02221,-1.67614 -1.536718,-1.67614 -0.871784,0 -0.879621,0.0112 -0.972422,1.38718 -0.128778,1.90945 0.821302,2.87991 1.944534,1.98625 z m 0.843002,-4.99401 c 0.09095,-0.45475 0.165364,-1.29202 0.165364,-1.86061 0,-0.82527 -0.118084,-1.07746 -0.585445,-1.25035 -1.360933,-0.50344 -2.060388,0.33976 -2.060388,2.48383 0,1.14263 0.01268,1.15876 0.992187,1.26122 0.545704,0.0571 1.066602,0.1238 1.157552,0.14826 0.09095,0.0245 0.239779,-0.32759 0.33073,-0.78235 z m 16.136851,3.48451 c -2.506719,-0.59586 -4.282006,-3.85624 -3.559907,-6.53791 0.806542,-2.99527 5.284217,-4.76176 8.093627,-3.19303 2.022332,1.12925 3.167715,4.77617 2.130182,6.78254 -1.084969,2.0981 -4.284922,3.5139 -6.663902,2.9484 z m 3.338983,-1.33257 c 0.269647,-0.14431 0.565327,-0.60413 0.657067,-1.02182 0.29643,-1.34963 -0.885473,-5.03373 -1.959415,-6.10767 -0.736115,-0.73612 -2.020206,-0.72182 -2.420934,0.0269 -0.452349,0.84523 -0.129435,3.12213 0.707168,4.98633 0.961932,2.14347 1.828765,2.75167 3.016114,2.11622 z m -35.613308,0.68515 c -2.743669,-1.27752 -3.697199,-3.89066 -2.464939,-6.75512 0.875519,-2.0352 2.195669,-2.92888 4.321539,-2.92548 1.732438,0.003 3.860422,0.79548 4.712711,1.75554 0.638726,0.7195 1.266861,2.31961 1.266861,3.2272 0,1.88317 -1.32784,4.10571 -2.963423,4.96018 -1.113897,0.58192 -3.313971,0.46349 -4.872749,-0.26232 z m 3.130056,-1.77208 c 0.725873,-0.97882 1.531117,-3.53252 1.531117,-4.85568 0,-0.99258 -0.115346,-1.26672 -0.691947,-1.64452 -0.620658,-0.40667 -0.763767,-0.41309 -1.389062,-0.0623 -1.434196,0.80461 -3.091825,5.34555 -2.45864,6.73524 0.619188,1.35897 1.928385,1.28379 3.008532,-0.17276 z m 16.017053,-6.21035 c -0.400182,-0.2171 -0.727604,-0.49368 -0.727604,-0.61462 0,-0.12093 -1.16086,-0.30255 -2.579688,-0.40358 -3.089789,-0.22003 -6.618258,-0.92683 -9.326561,-1.86824 -1.091406,-0.37937 -2.520156,-0.81954 -3.175,-0.97815 -0.654844,-0.15861 -1.605217,-0.57006 -2.11194,-0.91435 -0.506723,-0.34429 -1.063134,-0.62598 -1.23647,-0.62598 -0.173336,0 -0.690718,-0.31601 -1.149739,-0.70225 -0.66285,-0.55775 -1.219831,-0.73757 -2.706794,-0.87387 -1.676517,-0.15367 -1.944797,-0.25855 -2.566653,-1.00343 -0.381944,-0.45751 -0.833938,-1.35339 -1.004432,-1.99085 -0.23776,-0.88895 -0.605906,-1.39105 -1.58,-2.15488 l -1.270013,-0.99587 -2.6458326,0.0903 -2.6458331,0.0903 -0.1322917,-4.7625 c -0.1246622,-4.48784 -0.1732813,-4.84714 -0.8430392,-6.23005 -1.1353712,-2.34431 -2.2227944,-5.53044 -2.8970451,-8.48829 -0.56208582,-2.4658 -0.6245966,-3.36146 -0.61623739,-8.82958 0.009077,-5.93786 0.0296463,-6.16673 0.84830389,-9.43881 0.8929719,-3.56912 2.1298036,-7.01325 3.4767747,-9.68159 0.4537462,-0.89887 0.8249931,-1.93535 0.8249931,-2.3033 0,-0.41364 0.1491619,-0.66901 0.3907755,-0.66901 0.2149265,0 0.6018796,-0.32737 0.8598958,-0.7275 0.5739037,-0.88999 0.6811256,-1.02841 2.7156859,-3.50583 2.1388112,-2.60437 3.5712272,-4.10774 4.7390862,-4.97386 0.523516,-0.38825 1.487629,-1.14282 2.142472,-1.67681 2.5681,-2.09416 7.645782,-4.73029 10.847916,-5.63181 0.945885,-0.2663 2.076979,-0.63238 2.513541,-0.81351 2.238338,-0.92869 11.563155,-1.15025 15.924306,-0.37836 1.785178,0.31597 5.494584,1.5362 8.152776,2.6819 1.590777,0.68564 6.08688,3.21989 6.482291,3.65377 0.07276,0.0798 0.727604,0.61029 1.455208,1.17877 0.727604,0.56848 1.929696,1.61387 2.671315,2.32308 l 1.348398,1.28948 1.100758,-0.57375 c 1.682034,-0.87673 1.890987,-0.65719 1.890987,1.98675 0,1.2415 0.111039,2.25727 0.246753,2.25727 0.135715,0 0.318562,0.22624 0.406327,0.50277 0.08777,0.27652 0.649412,1.25879 1.248104,2.18281 2.277745,3.51548 4.569895,8.8946 5.225669,12.26337 0.169965,0.87313 0.418806,1.82563 0.552981,2.11667 0.408669,0.88645 0.730354,7.75767 0.50786,10.84792 -0.364363,5.06066 -1.405754,9.39572 -3.286144,13.67942 -2.70115,6.15347 -6.460836,11.10964 -11.913008,15.7042 -1.690241,1.42438 -5.304246,3.5852 -8.168064,4.88372 -2.063413,0.9356 -6.607134,2.27689 -8.576447,2.53175 -0.994012,0.12864 -1.478607,0.33036 -1.674942,0.69721 -0.294165,0.54965 -1.757114,1.27216 -2.540276,1.25456 -0.259336,-0.006 -0.798941,-0.18822 -1.199123,-0.40532 z m 2.635853,-1.00154 c 0.491962,-0.46372 1.700023,-4.10977 1.852125,-5.58991 0.09061,-0.88172 0.301046,-1.43476 0.634933,-1.66862 0.274674,-0.19239 0.630775,-0.87151 0.791336,-1.50915 0.160561,-0.63765 0.517765,-1.36374 0.793788,-1.61353 0.276023,-0.2498 0.50186,-0.79292 0.50186,-1.20692 0,-0.62654 0.110901,-0.75275 0.661458,-0.75275 0.363802,0 0.899583,0.23813 1.190625,0.52917 1.019574,1.01957 1.72467,0.54909 2.002268,-1.33604 0.09537,-0.64763 0.457777,-1.62143 0.805355,-2.16402 0.347578,-0.54258 0.63196,-1.10813 0.63196,-1.25677 0,-0.14864 0.230884,-0.27025 0.513075,-0.27025 0.282191,0 1.062389,-0.47543 1.733773,-1.05651 1.538481,-1.33155 1.894769,-1.5185 3.58449,-1.88088 1.646418,-0.35309 3.139823,-1.58969 3.956023,-3.27573 0.306825,-0.63382 0.740737,-1.30417 0.964248,-1.48967 0.848578,-0.70425 2.383567,-5.39317 3.281608,-10.0243 0.183421,-0.94588 0.446491,-1.86522 0.584601,-2.04297 0.266929,-0.34354 0.657875,-31.55911 0.395249,-31.55911 -0.296493,0 -3.24231,1.16889 -3.371401,1.33776 -0.07276,0.0952 -0.598854,0.32523 -1.169097,0.51122 -0.570243,0.186 -2.280164,0.97567 -3.799824,1.75484 -2.147009,1.10082 -3.298194,1.91681 -5.163464,3.66001 -2.125921,1.98679 -2.538605,2.25991 -3.608509,2.38812 -0.664435,0.0796 -2.220094,0.38248 -3.457021,0.67302 -1.236927,0.29054 -2.503481,0.52706 -2.814565,0.5256 -0.311084,-0.001 -1.343425,0.36133 -2.294091,0.8062 l -1.728484,0.80886 -1.335134,-0.67657 c -1.56035,-0.79069 -2.234264,-0.83168 -4.027939,-0.245 -1.202522,0.39333 -1.394482,0.39482 -2.166381,0.0169 -0.465821,-0.22809 -1.063657,-0.48129 -1.328525,-0.56268 -0.318709,-0.0979 -0.452931,-0.3497 -0.396874,-0.74446 0.06491,-0.45713 0.301067,-0.62741 1.010744,-0.72879 l 0.926042,-0.13229 -0.926042,-0.69863 c -0.509323,-0.38425 -1.318182,-0.7818 -1.797465,-0.88345 -0.479283,-0.10165 -1.134127,-0.44454 -1.455209,-0.76197 -0.569898,-0.56341 -0.773518,-0.57913 -8.560253,-0.66103 -4.387058,-0.0461 -9.179323,0.001 -10.649478,0.10561 l -2.6730095,0.18951 v 24.01974 24.01975 l 1.0796105,0.1824 c 0.5937858,0.10032 1.5888631,0.10603 2.211283,0.0127 1.031519,-0.15469 1.234524,-0.084 2.293827,0.79869 1.039598,0.86627 1.428639,1.42705 2.646855,3.81523 0.716067,1.40377 1.028375,1.5875 2.698519,1.5875 1.285862,0 1.752515,0.12574 2.454881,0.66146 0.476969,0.3638 1.043823,0.66146 1.259677,0.66146 0.215853,0 0.629796,0.32581 0.919874,0.72402 0.50497,0.69321 0.549018,0.70447 1.035089,0.26458 0.767665,-0.69473 2.346501,-0.57075 4.260077,0.33452 2.109985,0.99819 2.66292,0.99447 3.630908,-0.0244 1.283754,-1.35128 3.777722,-2.37456 4.559183,-1.87064 0.188373,0.12147 0.376006,0.78972 0.416964,1.48501 0.05733,0.97315 0.222108,1.37764 0.715839,1.75716 0.352753,0.27116 0.767922,0.49567 0.922597,0.4989 0.35317,0.007 1.536041,1.26212 1.952698,2.07133 0.540033,1.04882 1.989794,1.29603 2.849323,0.48585 z m -6.377858,-6.93856 c -0.08833,-0.23018 -0.160599,-0.80344 -0.160599,-1.27391 0,-0.71866 -0.149467,-0.92667 -0.935018,-1.30128 -1.269508,-0.60538 -1.52158,-0.57037 -2.504565,0.34787 -0.641936,0.59966 -1.100823,0.79375 -1.876641,0.79375 h -1.02693 l 0.03689,-1.65364 c 0.02029,-0.90951 -0.173536,-3.0824 -0.43072,-4.82865 -0.257184,-1.74625 -0.522569,-4.81909 -0.589746,-6.82853 -0.101181,-3.02665 -0.05056,-3.76276 0.295006,-4.29017 0.229429,-0.35015 0.417143,-0.9742 0.417143,-1.38678 0,-1.03606 0.444411,-1.38514 1.763399,-1.38514 0.844826,0 1.19723,0.12861 1.402292,0.51177 0.403104,0.75321 0.334104,1.62898 -0.172441,2.18871 -0.420248,0.46437 -0.414772,0.52475 0.09371,1.03324 l 0.540044,0.54004 0.148943,-1.64256 c 0.168176,-1.85469 1.361999,-4.46422 2.222563,-4.85822 0.535062,-0.24497 1.145239,-1.93878 1.145239,-3.1791 0,-1.21366 0.255576,-1.47305 1.451416,-1.47305 0.989962,0 1.164318,0.0903 1.405002,0.7276 0.151131,0.40019 0.344927,1.32292 0.430658,2.05052 0.160482,1.36202 0.641131,1.98438 1.532542,1.98438 0.596103,0 0.852579,0.64373 1.287336,3.23112 0.313531,1.86592 0.301221,2.06282 -0.172701,2.76244 -0.430753,0.63589 -0.510296,1.2276 -0.510296,3.79602 0,1.67349 -0.02976,4.62324 -0.06614,6.55499 -0.06548,3.4767 -0.07285,3.51482 -0.727605,3.76376 -0.607874,0.23112 -0.661786,0.38598 -0.665509,1.91168 -0.0049,2.00569 -0.210766,2.39137 -1.215283,2.2767 -0.744055,-0.0849 -0.763459,-0.12544 -0.707398,-1.4764 0.04908,-1.18261 -0.01315,-1.38906 -0.418643,-1.38906 -0.415554,0 -0.460898,0.18555 -0.355608,1.45521 l 0.120677,1.45521 h -0.798206 c -0.483784,0 -0.861468,-0.16486 -0.958805,-0.41852 z m 1.162317,-1.59824 v -1.45635 l 0.859896,0.0829 c 0.763932,0.0737 0.858523,0.1715 0.847596,0.87666 -0.0068,0.43657 -0.09961,1.04755 -0.206322,1.35773 -0.141774,0.41211 -0.06909,0.61192 0.269903,0.74201 0.769835,0.29541 1.197525,-0.58257 1.022838,-2.09974 -0.160786,-1.39642 -0.02888,-1.78842 0.691015,-2.05353 0.374081,-0.13776 0.464121,-0.72591 0.584365,-3.81716 0.07818,-2.00987 0.144682,-5.01151 0.147779,-6.67031 0.0045,-2.43358 0.09047,-3.10974 0.444958,-3.50145 0.34713,-0.38357 0.406828,-0.80562 0.284469,-2.01108 -0.250039,-2.46333 -0.64323,-3.50935 -1.320912,-3.51406 -0.900314,-0.006 -1.181453,-0.30506 -1.365926,-1.45176 -0.09359,-0.58175 -0.300336,-1.57 -0.459439,-2.19612 -0.268561,-1.05685 -0.346736,-1.13265 -1.091538,-1.05833 -0.777897,0.0776 -0.814899,0.14352 -1.218491,2.17002 -0.328463,1.64927 -0.535551,2.1432 -0.982086,2.34239 -0.81202,0.36224 -1.953495,2.79409 -2.134444,4.54731 -0.142135,1.37717 -0.108138,1.51299 0.412807,1.64922 0.671157,0.17551 0.773076,1.17441 0.170824,1.67424 -0.316631,0.26278 -0.477118,0.26278 -0.79375,0 -0.218281,-0.18116 -0.396874,-0.47264 -0.396874,-0.64774 0,-0.17509 -0.297657,-0.59799 -0.661459,-0.93976 -0.719558,-0.67599 -0.830991,-1.32322 -0.358169,-2.08032 0.168616,-0.27 0.225121,-0.79709 0.127251,-1.18704 -0.345999,-1.37857 -2.547207,-0.69578 -2.547207,0.79011 0,0.36297 -0.138918,0.91953 -0.308707,1.23678 -0.416439,0.77812 -0.543813,5.39647 -0.19246,6.97823 0.309623,1.39389 0.660185,4.29095 0.931455,7.69758 0.09594,1.2048 0.286632,2.25988 0.423763,2.34464 0.347889,0.215 2.056366,-0.74524 2.056366,-1.15577 0,-0.444 2.035969,-0.44807 2.987895,-0.006 0.513086,0.23828 0.71272,0.52929 0.714207,1.04111 0.0029,0.98376 0.475261,2.13356 0.795319,1.93576 0.145793,-0.0901 0.265078,-0.81919 0.265078,-1.62019 z m -3.174999,-15.03325 c 0,-0.2097 -0.119063,-0.45485 -0.264584,-0.54479 -0.14552,-0.0899 -0.264583,0.0816 -0.264583,0.38126 0,0.29963 0.119063,0.54479 0.264583,0.54479 0.145521,0 0.264584,-0.17157 0.264584,-0.38126 z m -15.941145,15.44131 c -0.519925,-0.30283 -0.616642,-1.30685 -0.169008,-1.75448 0.663458,-0.66346 0.394796,-10.23403 -0.29933,-10.66303 -0.132396,-0.0818 -0.380178,-0.79904 -0.550627,-1.59382 -0.397649,-1.85417 -0.185828,-10.47584 0.278701,-11.34382 0.177128,-0.33097 0.966813,-0.8869 1.754856,-1.23541 1.569138,-0.69395 1.563261,-0.68166 1.136581,-2.37616 -0.394471,-1.56658 -0.05992,-1.96833 1.639087,-1.96833 2.513276,0 3.578981,1.18762 2.254352,2.51225 -0.718001,0.718 -0.924469,1.71825 -0.356071,1.72502 0.181902,0.002 0.780118,0.38911 1.32937,0.85989 l 0.99864,0.85596 0.39092,3.83646 c 0.215005,2.11005 0.528904,4.38889 0.697553,5.06408 0.437668,1.75222 -0.09793,3.63398 -1.147023,4.02997 l -0.748105,0.28238 v 4.04562 c 0,3.71821 0.04283,4.0823 0.529166,4.49872 1.441765,1.23447 -0.33002,3.41669 -2.489549,3.06624 l -0.950034,-0.15416 v -1.70623 c 0,-1.74314 -0.460037,-6.50457 -0.697613,-7.22037 -0.326069,-0.98243 -0.694487,0.81381 -0.941154,4.58863 -0.228862,3.50235 -0.329711,4.06898 -0.796164,4.47335 -0.600132,0.52026 -1.180852,0.57546 -1.864548,0.17724 z m 1.625868,-0.4852 c 0.270042,-0.171 0.425979,-1.25275 0.58105,-4.03085 0.265964,-4.76476 0.376649,-5.25234 1.192323,-5.25234 0.782983,0 0.8239,0.1798 1.120942,4.92578 0.128577,2.05434 0.317139,3.87004 0.419026,4.0349 0.259206,0.4194 0.983512,0.37334 1.98492,-0.12623 1.117904,-0.55768 1.31519,-1.12457 0.594471,-1.70817 -0.547053,-0.44298 -0.573211,-0.66811 -0.571615,-4.91973 l 0.0017,-4.45551 0.725931,-0.41747 c 0.891246,-0.51255 1.546789,-2.36218 1.119898,-3.15983 -0.151796,-0.28364 -0.468224,-2.33321 -0.703175,-4.55462 -0.23495,-2.2214 -0.520825,-4.29203 -0.635276,-4.60141 -0.114451,-0.30938 -0.752435,-0.82601 -1.417742,-1.14808 -1.441515,-0.69783 -1.537484,-1.22749 -0.494974,-2.73184 l 0.714675,-1.03127 -0.648529,-0.49842 c -0.807702,-0.62075 -2.444118,-0.66117 -3.030429,-0.0749 -0.246733,0.24674 -0.326269,0.50464 -0.183593,0.59532 0.138451,0.088 0.332216,0.64178 0.430587,1.23064 0.204416,1.22365 -0.113656,1.64611 -1.747118,2.32048 -1.818313,0.75068 -1.943964,1.21258 -1.899274,6.98178 0.03509,4.52933 0.0972,5.20133 0.552002,5.97216 0.281856,0.47771 0.606952,1.22222 0.722434,1.65445 0.306374,1.14673 0.184444,9.33891 -0.14825,9.96055 -0.536528,1.00251 0.31576,1.67048 1.320043,1.03457 z m 11.735589,-28.7845 c -0.390398,-0.0752 -0.595312,-0.30459 -0.595312,-0.66643 0,-0.51779 0.0298,-0.5248 0.483854,-0.11389 0.652149,0.59019 1.288751,0.5516 1.637063,-0.0992 0.24036,-0.44911 0.172316,-0.63333 -0.415343,-1.12448 -1.882224,-1.57309 -2.050832,-1.9241 -1.2898,-2.68513 0.514772,-0.51478 2.494642,-0.57194 2.494642,-0.072 0,0.23427 -0.282895,0.31072 -0.888316,0.24004 -1.180479,-0.13782 -1.481638,0.54058 -0.53157,1.19743 1.87723,1.29785 2.131867,2.06179 0.98733,2.96208 -0.702076,0.55225 -0.797629,0.57061 -1.882548,0.36164 z m 4.455774,-0.0987 c -0.9712,-0.39283 -1.329264,-1.04516 -1.338505,-2.43855 -0.01152,-1.73775 0.794285,-2.56766 2.4931,-2.56766 1.656292,0 2.260985,0.63291 2.260985,2.3665 0,0.9857 -0.146745,1.46999 -0.595312,1.96468 -0.686372,0.75694 -1.899739,1.04736 -2.820268,0.67503 z m 2.092663,-0.77287 c 0.6464,-0.6464 0.707635,-2.2733 0.117289,-3.11613 -0.494526,-0.70604 -1.738152,-0.78857 -2.267704,-0.1505 -0.199719,0.24065 -0.363126,0.96554 -0.363126,1.61088 0,0.91388 0.138117,1.28517 0.624624,1.67912 0.794376,0.64325 1.227656,0.63789 1.888917,-0.0234 z m 3.269456,0.80167 c -1.527916,-0.63194 -1.940325,-3.11698 -0.719835,-4.33747 0.562437,-0.56244 0.946777,-0.69754 1.984375,-0.69754 0.944043,0 1.286837,0.10156 1.286837,0.38126 0,0.48415 -0.451198,0.77869 -0.583738,0.38107 -0.150204,-0.45061 -1.520089,-0.35939 -2.013559,0.13408 -0.693251,0.69325 -0.572289,2.48719 0.210445,3.12101 0.619305,0.50148 1.112613,0.51917 2.254561,0.0808 l 0.529166,-0.20311 -0.529166,0.54928 c -0.638577,0.66285 -1.648319,0.90936 -2.419086,0.59057 z m 3.60971,-2.52147 c 0,-2.21746 0.05454,-2.51354 0.463021,-2.51354 0.40848,0 0.463021,0.29608 0.463021,2.51354 0,2.21746 -0.05454,2.51355 -0.463021,2.51355 -0.408479,0 -0.463021,-0.29609 -0.463021,-2.51355 z m 1.852084,0.0132 v -2.52675 h 1.322916 c 0.908663,0 1.322917,0.10764 1.322917,0.34375 0,0.23706 -0.287419,0.31019 -0.926042,0.23564 -0.882966,-0.10309 -0.926041,-0.0698 -0.926041,0.71458 0,0.76644 0.0644,0.8227 0.941656,0.8227 0.560397,0 0.87545,0.10712 0.778135,0.26458 -0.08994,0.14552 -0.520869,0.26459 -0.957628,0.26459 -0.755844,0 -0.79015,0.0478 -0.711989,0.99218 0.07187,0.86838 0.164658,0.98898 0.743576,0.96645 0.363802,-0.0142 0.886063,-0.12243 1.160581,-0.2406 0.371032,-0.15972 0.467518,-0.11916 0.375972,0.15803 -0.08218,0.24882 -0.622395,0.3993 -1.623603,0.45224 l -1.50045,0.0794 z m 5.027083,0.22135 v -2.27899 l -0.800873,0.11754 c -0.500993,0.0735 -0.765182,0.0105 -0.705555,-0.16841 0.05879,-0.17637 0.999377,-0.28595 2.454518,-0.28595 h 2.359201 l 0.568456,1.12605 0.568456,1.12605 0.489877,-1.1912 c 0.330841,-0.80449 0.64863,-1.19153 0.978881,-1.1922 0.4584,-9.3e-4 0.453165,0.0528 -0.08364,0.85891 -0.930465,1.3972 -1.385055,2.62335 -1.268082,3.42034 0.08613,0.58686 0.0061,0.74685 -0.373728,0.74685 -0.391339,0 -0.484449,-0.21405 -0.489154,-1.12448 -0.0032,-0.61847 -0.2355,-1.6305 -0.516231,-2.24896 -0.437205,-0.96319 -0.625407,-1.12448 -1.312064,-1.12448 -0.992869,0 -1.219295,0.67614 -0.983119,2.93576 0.150154,1.43659 0.121071,1.56216 -0.361831,1.56216 -0.483116,0 -0.52511,-0.18226 -0.52511,-2.27899 z m -36.705663,-5.0417 c -0.907737,-0.18934 -1.658917,-1.33266 -1.658917,-2.52493 0,-0.80002 0.180177,-1.22318 0.773397,-1.8164 0.669903,-0.66991 0.970853,-0.7734 2.248958,-0.7734 1.307675,0 1.475561,0.0613 1.475561,0.53847 0,0.45039 -0.08372,0.49367 -0.511773,0.26459 -0.281475,-0.15064 -0.858334,-0.27389 -1.281909,-0.27389 -2.249798,0 -2.362153,3.53239 -0.130172,4.09258 0.863292,0.21668 1.190442,-0.23889 0.991431,-1.38061 -0.128765,-0.73871 -0.07362,-0.85989 0.391267,-0.85989 0.472998,0 0.541156,0.16662 0.541156,1.32292 0,0.94608 -0.103629,1.32291 -0.363802,1.32291 -0.200091,0 -0.706107,0.0474 -1.124479,0.10536 -0.418373,0.058 -1.026196,0.05 -1.350718,-0.0177 z m 25.617167,-0.10852 c -0.971201,-0.39283 -1.329264,-1.04517 -1.338505,-2.43855 -0.01152,-1.73775 0.794285,-2.56766 2.4931,-2.56766 1.656292,0 2.260985,0.63291 2.260985,2.36649 0,0.9857 -0.146745,1.47 -0.595313,1.96469 -0.686372,0.75694 -1.899739,1.04736 -2.820267,0.67503 z m 2.092663,-0.77288 c 0.646399,-0.6464 0.707634,-2.27329 0.117289,-3.11613 -0.494527,-0.70603 -1.738152,-0.78857 -2.267704,-0.15049 -0.19972,0.24064 -0.363126,0.96554 -0.363126,1.61087 0,0.91389 0.138117,1.28518 0.624624,1.67913 0.794376,0.64325 1.227655,0.63788 1.888917,-0.0234 z m 3.775584,0.8814 c -0.907737,-0.18934 -1.658918,-1.33266 -1.658918,-2.52493 0,-0.80002 0.180178,-1.22318 0.773398,-1.8164 0.669903,-0.66991 0.970853,-0.7734 2.248958,-0.7734 1.307675,0 1.475561,0.0613 1.475561,0.53847 0,0.45039 -0.08372,0.49367 -0.511773,0.26459 -0.281475,-0.15064 -0.858334,-0.27389 -1.281909,-0.27389 -2.249798,0 -2.362153,3.53239 -0.130173,4.09258 0.863293,0.21668 1.190443,-0.23889 0.991431,-1.38061 -0.128764,-0.73871 -0.07362,-0.85989 0.391268,-0.85989 0.472998,0 0.541156,0.16662 0.541156,1.32292 0,0.94608 -0.103629,1.32291 -0.363802,1.32291 -0.200091,0 -0.706107,0.0474 -1.124479,0.10536 -0.418373,0.058 -1.026196,0.05 -1.350718,-0.0177 z m 6.902204,-0.0797 c -1.527916,-0.63195 -1.940325,-3.11698 -0.719834,-4.33747 0.562436,-0.56244 0.946777,-0.69754 1.984375,-0.69754 0.944042,0 1.286837,0.10156 1.286837,0.38126 0,0.48414 -0.451198,0.77869 -0.583739,0.38106 -0.150203,-0.45061 -1.520088,-0.35939 -2.013559,0.13408 -0.693251,0.69325 -0.572288,2.4872 0.210445,3.12102 0.619305,0.50148 1.112613,0.51917 2.254561,0.0808 l 0.529166,-0.20312 -0.529166,0.54929 c -0.638577,0.66285 -1.648319,0.90936 -2.419086,0.59057 z M 19.060827,251.1798 v -2.52674 h 1.322917 c 0.908663,0 1.322916,0.10764 1.322916,0.34375 0,0.23705 -0.287419,0.31019 -0.926041,0.23563 -0.882967,-0.10308 -0.926042,-0.0698 -0.926042,0.71459 0,0.76643 0.0644,0.8227 0.941657,0.8227 0.560396,0 0.875449,0.10712 0.778135,0.26458 -0.08994,0.14552 -0.52087,0.26458 -0.957629,0.26458 -0.755844,0 -0.79015,0.0478 -0.711989,0.99219 0.07187,0.86838 0.164659,0.98897 0.743576,0.96644 0.363802,-0.0142 0.886064,-0.12243 1.160581,-0.2406 0.371032,-0.15971 0.467519,-0.11915 0.375972,0.15804 -0.08217,0.24882 -0.622395,0.39929 -1.623602,0.45224 l -1.500451,0.0794 z m 3.571875,-0.0132 c 0,-2.33864 0.03682,-2.51323 0.529166,-2.50909 0.362472,0.003 0.924334,0.60732 1.783612,1.91823 l 1.254445,1.91378 0.0023,-1.91823 c 0.0016,-1.35664 0.09915,-1.9184 0.333055,-1.91882 0.247324,-4.5e-4 0.309469,0.63343 0.246427,2.51354 -0.05757,1.71679 -0.183432,2.51099 -0.396875,2.50422 -0.171915,-0.005 -0.946704,-0.92818 -1.721753,-2.05052 l -1.40918,-2.04061 0.09141,2.05052 c 0.07569,1.69806 0.0223,2.05052 -0.310612,2.05052 -0.331421,0 -0.402016,-0.44138 -0.402016,-2.51354 z m 5.159374,0.002 v -2.51579 h 1.322917 c 0.908663,0 1.322916,0.10764 1.322916,0.34375 0,0.23705 -0.287418,0.31019 -0.926041,0.23563 -0.882966,-0.10308 -0.926042,-0.0698 -0.926042,0.71459 0,0.76643 0.0644,0.8227 0.941657,0.8227 0.560396,0 0.875449,0.10712 0.778135,0.26458 -0.08994,0.14552 -0.513682,0.26458 -0.941657,0.26458 -0.714225,0 -0.778135,0.0767 -0.778135,0.93435 0,1.09366 0.497571,1.40221 1.514244,0.93898 0.541981,-0.24694 0.731146,-0.24107 0.897357,0.0279 0.212082,0.34316 1.594747,-2.35989 1.96815,-3.84765 0.202773,-0.80791 1.110016,-0.96839 1.336116,-0.23635 0.128814,0.41706 1.432178,3.86592 1.648369,4.36178 0.04851,0.11125 -0.141007,0.20228 -0.421141,0.20228 -0.364988,0 -0.599197,-0.29993 -0.826419,-1.05833 -0.289597,-0.96659 -0.395521,-1.05833 -1.221885,-1.05833 -0.822237,0 -0.932963,0.094 -1.213439,1.03014 l -0.30864,1.03015 -2.083231,0.0304 -2.083231,0.0304 z m 6.2058,-0.46527 c -0.302838,-1.00236 -0.570719,-1.06983 -0.867499,-0.21848 -0.267787,0.76817 -0.246382,0.81379 0.381834,0.81379 0.567076,0 0.638918,-0.0881 0.485665,-0.59531 z m 2.52545,0.46302 c 0,-2.21745 0.05454,-2.51355 0.46302,-2.51358 0.411944,-3e-5 0.452739,0.24783 0.36981,2.24688 -0.101117,2.4375 0.137393,2.86463 1.263161,2.26214 0.445748,-0.23856 0.549842,-0.21737 0.549842,0.11192 0,0.31103 -0.309905,0.40618 -1.322917,0.40618 h -1.322916 z m 13.758332,0 c 0,-2.21746 0.05454,-2.51354 0.46302,-2.51354 0.40848,0 0.463021,0.29608 0.463021,2.51354 0,2.21746 -0.05454,2.51354 -0.463021,2.51354 -0.408479,0 -0.46302,-0.29608 -0.46302,-2.51354 z m 6.656858,1.01836 c 0.414802,-0.82235 0.891483,-1.95344 1.059293,-2.51354 0.328276,-1.09569 1.171874,-1.42118 1.439298,-0.55534 0.128815,0.41706 1.432178,3.86592 1.648369,4.36178 0.04851,0.11125 -0.141006,0.20228 -0.42114,0.20228 -0.364988,0 -0.599198,-0.29993 -0.82642,-1.05833 -0.289596,-0.96659 -0.39552,-1.05833 -1.221884,-1.05833 -0.826364,0 -0.932288,0.0917 -1.221884,1.05833 -0.20709,0.6912 -0.471927,1.05833 -0.763451,1.05833 -0.382451,0 -0.338375,-0.21409 0.307819,-1.49518 z m 2.194774,-1.48138 c -0.302838,-1.00236 -0.570719,-1.06983 -0.867499,-0.21848 -0.267787,0.76817 -0.246381,0.81379 0.381834,0.81379 0.567076,0 0.638919,-0.0881 0.485665,-0.59531 z m 2.52545,0.46302 c 0,-2.21745 0.05454,-2.51355 0.463021,-2.51358 0.411943,-3e-5 0.452738,0.24783 0.36981,2.24688 -0.101117,2.4375 0.137393,2.86463 1.263161,2.26214 0.445747,-0.23856 0.549841,-0.21737 0.549841,0.11192 0,0.31103 -0.309904,0.40618 -1.322916,0.40618 H 61.65874 Z m -49.717659,-4.91567 c -0.9712,-0.39282 -1.329264,-1.04516 -1.338505,-2.43854 -0.01152,-1.73776 0.794285,-2.56766 2.4931,-2.56766 1.656292,0 2.260985,0.63291 2.260985,2.36649 0,0.9857 -0.146745,1.47 -0.595313,1.96468 -0.686371,0.75694 -1.899738,1.04736 -2.820267,0.67503 z m 2.092663,-0.77287 c 0.646399,-0.6464 0.707634,-2.27329 0.117289,-3.11613 -0.494526,-0.70604 -1.738152,-0.78857 -2.267704,-0.1505 -0.19972,0.24065 -0.363126,0.96554 -0.363126,1.61088 0,0.91389 0.138117,1.28518 0.624624,1.67913 0.794376,0.64324 1.227656,0.63788 1.888917,-0.0234 z m 10.342753,0.77287 c -0.971201,-0.39282 -1.329265,-1.04516 -1.338506,-2.43854 -0.01152,-1.73776 0.794286,-2.56766 2.493101,-2.56766 1.656292,0 2.260984,0.63291 2.260984,2.36649 0,0.9857 -0.146744,1.47 -0.595312,1.96468 -0.686372,0.75694 -1.899739,1.04736 -2.820267,0.67503 z m 2.092663,-0.77287 c 0.646399,-0.6464 0.707634,-2.27329 0.117288,-3.11613 -0.494526,-0.70604 -1.738151,-0.78857 -2.267704,-0.1505 -0.199719,0.24065 -0.363126,0.96554 -0.363126,1.61088 0,0.91389 0.138117,1.28518 0.624624,1.67913 0.794377,0.64324 1.227656,0.63788 1.888918,-0.0234 z m -10.054166,-1.71979 c 0,-2.2953 0.04376,-2.51354 0.50399,-2.51354 0.435258,0 0.484631,0.14433 0.362037,1.05833 l -0.141952,1.05833 h 1.093171 1.09317 v -1.05833 c 0,-0.83155 0.09922,-1.05833 0.463021,-1.05833 0.40848,0 0.463021,0.29608 0.463021,2.51354 0,2.21746 -0.05454,2.51354 -0.463021,2.51354 -0.372376,0 -0.463021,-0.23309 -0.463021,-1.19063 v -1.19062 h -1.092743 -1.092742 l 0.1342,1.19062 c 0.116764,1.03593 0.06967,1.19063 -0.362465,1.19063 -0.450979,0 -0.496666,-0.23122 -0.496666,-2.51354 z m 4.7625,0 c 0,-2.21746 0.05454,-2.51354 0.46302,-2.51354 0.40848,0 0.463021,0.29608 0.463021,2.51354 0,2.21746 -0.05454,2.51354 -0.463021,2.51354 -0.408479,0 -0.46302,-0.29608 -0.46302,-2.51354 z m 61.482175,16.80489 c -1.548977,-0.6255 -2.226295,-2.88996 -1.555047,-5.19897 0.305607,-1.05125 0.355299,-1.56595 0.157552,-1.63186 -0.158869,-0.053 -0.288852,-0.26496 -0.288852,-0.47111 0,-0.28459 0.410295,-0.37483 1.704176,-0.37483 1.965338,0 2.411513,0.35012 1.129038,0.88597 -1.38839,0.58011 -2.079233,1.63808 -1.985715,3.04097 0.09019,1.35298 0.692414,1.95524 1.467605,1.46768 0.254661,-0.16017 0.93927,-1.21139 1.521354,-2.33605 0.61309,-1.18457 1.33661,-2.19848 1.719791,-2.41004 2.768887,-1.52872 5.461153,1.82562 4.093146,5.09972 -0.364435,0.87222 -0.36388,0.99164 0.0056,1.19839 0.747512,0.41833 0.124855,0.72628 -1.468492,0.72628 -1.611467,0 -2.059178,-0.35403 -0.976572,-0.77223 1.588527,-0.61363 2.438924,-2.65824 1.558065,-3.74606 l -0.515402,-0.63649 -0.58147,0.52622 c -0.319808,0.28943 -0.908781,1.2481 -1.308827,2.13038 -0.400047,0.88228 -1.058768,1.86484 -1.463824,2.18346 -0.768049,0.60414 -2.162427,0.74244 -3.21209,0.31857 z m -92.835298,-0.38033 c -2.336261,-1.04714 -3.341215,-3.39338 -2.627362,-6.13405 0.317509,-1.219 0.328985,-1.55858 0.05833,-1.72585 -0.256666,-0.15863 -0.263428,-0.28178 -0.02838,-0.51683 0.32481,-0.32481 3.267851,-0.10794 3.2492857,0.23943 -0.00527,0.0987 -0.5103847,0.41753 -1.1224687,0.70857 -2.060706,0.97985 -1.907288,3.10281 0.290592,4.02114 0.7002554,0.29259 1.5517752,0.37136 3.0665064,0.28367 1.8767179,-0.10864 2.1618823,-0.19677 2.7141277,-0.83879 0.8631979,-1.00353 0.7921788,-2.05755 -0.2160042,-3.20581 -0.6171153,-0.70286 -0.7559173,-1.026 -0.5354184,-1.2465 0.7265261,-0.72652 2.4152143,1.998 2.4152143,3.89671 0,1.1935 -0.7169552,2.94854 -1.4820485,3.62793 -1.3461684,1.19536 -4.1415722,1.6258 -5.7823713,0.89038 z m 90.642468,-9.87613 c -0.748412,-2.83102 -1.656035,-7.25223 -1.517282,-7.39099 0.08715,-0.0872 0.369787,0.10177 0.628087,0.4198 l 0.469636,0.57826 3.571875,-0.82352 c 1.964531,-0.45293 3.669423,-0.91884 3.788648,-1.03535 0.119225,-0.11652 0.249638,-0.43577 0.289806,-0.70945 0.168171,-1.14582 0.59956,-0.19908 1.363025,2.99135 0.446198,1.86462 0.892011,3.70592 0.990694,4.09179 0.169918,0.6644 0.108655,0.71855 -1.156281,1.022 -0.734638,0.17624 -1.405151,0.25099 -1.490029,0.16611 -0.08488,-0.0849 0.225673,-0.50929 0.690113,-0.94315 0.75655,-0.70672 0.825642,-0.89341 0.663845,-1.79372 -0.282479,-1.57184 -0.328875,-1.59746 -2.160599,-1.1927 -1.500605,0.33159 -1.62628,0.41099 -1.379753,0.87163 0.187124,0.34964 0.555506,0.5068 1.187965,0.5068 0.591785,0 0.916732,0.12621 0.916732,0.35606 0,0.22808 -0.716002,0.5134 -1.991894,0.79375 -2.78494,0.61195 -3.085544,0.57577 -2.043001,-0.24588 1.107644,-0.87296 1.185458,-1.78108 0.132291,-1.5439 -2.992734,0.674 -3.023646,0.70479 -2.343053,2.33368 0.427217,1.02247 1.340228,1.74587 2.203487,1.74587 0.359244,0 0.602587,0.16027 0.602587,0.39688 0,0.30839 -0.351645,0.39687 -1.577302,0.39687 h -1.577301 z m -84.0519752,0.502 c 0.3826909,-0.6192 -0.7140548,-1.13203 -4.0718857,-1.90398 l -3.5668091,-0.82 -0.474702,0.58624 c -0.261086,0.32242 -0.541547,0.51938 -0.623247,0.43768 -0.155249,-0.15525 1.4732,-7.6818 1.763758,-8.15193 0.112099,-0.18138 0.5704763,-0.1681 1.3990377,0.0405 1.2155354,0.30607 1.6772436,0.77664 0.7620186,0.77664 -0.8118984,0 -1.6188733,0.77287 -1.9455933,1.86336 -0.1731,0.57776 -0.247982,1.11722 -0.166403,1.19879 0.08158,0.0816 0.8088406,0.30187 1.6161391,0.48953 1.2330701,0.28664 1.4902124,0.28284 1.6078579,-0.0237 0.1430342,-0.37274 -0.5696637,-1.25497 -1.1774868,-1.45757 -0.185539,-0.0619 -0.2897187,-0.2384 -0.2315104,-0.39234 0.1289743,-0.34108 4.471458,0.61889 4.471458,0.98849 0,0.13414 -0.2459523,0.2439 -0.5465607,0.2439 -0.7458244,0 -1.5701058,0.47206 -1.5701058,0.8992 0,0.46551 3.0905059,1.14321 3.4722989,0.76142 0.1483032,-0.14831 0.2909085,-0.83048 0.3169006,-1.51594 0.04174,-1.10076 -0.053148,-1.33601 -0.8126373,-2.01467 -0.4729426,-0.42261 -0.8598957,-0.82959 -0.8598957,-0.90441 0,-0.29647 0.8389261,-0.10719 1.9782466,0.44633 0.8251653,0.4009 1.1593511,0.71005 1.07252,0.99219 -0.1739553,0.56523 -1.7278501,7.33705 -1.7278501,7.52992 0,0.0858 -0.1856204,0.15596 -0.4124898,0.15596 -0.2268695,0 -0.3497459,-0.10152 -0.2730587,-0.22561 z M 77.45963,240.01704 c -0.550083,-1.40184 -0.937766,-2.61117 -0.861518,-2.68742 0.07625,-0.0763 0.379333,0.0792 0.673522,0.34543 0.521762,0.47219 0.614341,0.45279 3.771934,-0.79061 3.743753,-1.47421 3.898503,-1.57111 3.898503,-2.44108 0,-1.22169 0.593239,-0.45921 1.594935,2.04995 0.960323,2.40553 0.995858,3.14663 0.10832,2.25909 -0.229974,-0.22997 -0.476334,-0.41813 -0.547466,-0.41813 -0.296186,0 -6.099405,2.44862 -6.654756,2.80792 -0.332298,0.21499 -0.570422,0.58154 -0.529167,0.81456 0.04125,0.23301 -0.04405,0.46538 -0.189573,0.51637 -0.145521,0.051 -0.714651,-1.05425 -1.264734,-2.45608 z m -78.6013047,1.75681 c -0.076687,-0.21828 -0.1764822,-0.62817 -0.2217674,-0.91086 -0.057698,-0.36018 -1.0866853,-1.03009 -3.4386391,-2.23869 -3.2022806,-1.64556 -3.3792901,-1.70391 -3.8572297,-1.27138 -0.88186,0.79808 -0.8547541,0.17418 0.072423,-1.66695 l 0.9021679,-1.79146 1.9295456,-0.42191 c 1.06125,-0.23205 2.5838737,-0.55893 3.3836081,-0.7264 l 1.45406256,-0.30449 -1.92229916,-0.95057 c -1.6800869,-0.83079 -1.991564,-0.90731 -2.4720147,-0.60726 -0.8448465,0.52762 -0.9108299,0.16505 -0.2332423,-1.28163 0.6807142,-1.45335 1.3198474,-1.75978 1.2400759,-0.59454 -0.046654,0.68148 0.1849848,0.84751 3.65435487,2.61934 3.60333323,1.84024 4.22457213,2.35823 3.51707643,2.9325 -0.2687102,0.21812 -8.2591489,2.14366 -9.1320831,2.20066 -0.431601,0.0282 4.8481735,2.60618 5.36365253,2.61895 0.29831768,0.007 0.68328639,-0.12745 0.85548603,-0.29965 0.66612979,-0.66613 0.58719573,0.0634 -0.16700003,1.54339 -0.5046979,0.99041 -0.83895903,1.4049 -0.92817743,1.15095 z m 75.3279357,-8.26823 c -1.142064,-1.78263 -3.002319,-4.27399 -4.1339,-5.53637 -1.131581,-1.26237 -1.94348,-2.36564 -1.80422,-2.45171 0.13926,-0.0861 0.327986,-0.0355 0.419389,0.11241 0.399129,0.64581 1.239827,0.099 3.805223,-2.4752 2.476577,-2.48504 2.706311,-2.79728 2.433359,-3.3073 -0.640179,-1.19618 0.464837,-0.54413 2.206285,1.3019 1.636294,1.73456 2.124822,2.77564 0.96158,2.04918 -0.428075,-0.26734 -0.768732,-0.0593 -2.567421,1.56793 -3.221604,2.9145 -3.571475,3.33752 -3.478488,4.20583 0.05572,0.5203 0.311965,0.87816 0.805533,1.12496 0.695714,0.34789 0.84469,0.28111 3.836458,-1.71979 2.788953,-1.86525 3.107458,-2.1574 3.062826,-2.80934 -0.0274,-0.40018 0.06458,-0.7276 0.204383,-0.7276 0.340354,0 3.233878,4.50495 3.026636,4.71219 -0.08941,0.0894 -0.398017,0.0155 -0.685792,-0.16419 -0.621736,-0.38828 -0.631778,-0.38365 -4.261264,1.96408 -2.809848,1.81756 -3.149277,2.37609 -1.929634,3.17523 0.506616,0.33195 1.023121,0.40266 2.116667,0.2898 0.805446,-0.0831 1.446524,-0.0422 1.446524,0.0924 0,0.20132 -2.914975,1.83678 -3.273786,1.83678 -0.06263,0 -1.048293,-1.45852 -2.190358,-3.24115 z M 4.709478,230.77729 c -0.1078781,-0.10975 -0.068708,-0.35309 0.087046,-0.54076 0.4354525,-0.52469 0.046156,-0.99733 -2.9550388,-3.5877 l -2.74944963,-2.37309 -0.46664477,0.57629 c -0.5681132,0.70159 -0.5841386,1.05493 -0.078184,1.72386 0.88620927,1.17167 0.1217376,1.23863 -1.1312817,0.0991 l -0.875113,-0.79586 0.6105297,-0.72292 c 3.1638697,-3.74631 5.104999,-5.87193 5.36227,-5.87193 0.3874786,0 1.8757557,1.53049 1.6793073,1.72694 -0.079727,0.0797 -0.4531226,0.005 -0.8297686,-0.16707 -0.5622064,-0.25616 -0.8051751,-0.23315 -1.3571076,0.12849 -0.3697632,0.24228 -0.6722967,0.55431 -0.6722967,0.69341 0,0.25098 4.9703383,4.68713 5.7366811,5.12013 0.2404486,0.13585 0.5160896,0.10949 0.6917343,-0.0661 0.3881069,-0.38811 0.7166004,-0.37019 0.709977,0.0387 -0.0079,0.48764 -3.5328641,4.25233 -3.7626597,4.01854 z m 60.988103,-7.19551 c -2.207134,-1.5391 -2.691309,-2.10026 -1.569098,-1.8186 0.727215,0.18251 1.288798,-0.36215 3.224742,-3.12761 l 1.287608,-1.83932 -1.043651,0.63594 c -0.574008,0.34977 -1.817557,1.1277 -2.763442,1.72874 -2.318512,1.47325 -2.88184,1.75973 -3.142932,1.59837 -0.121869,-0.0753 0.158644,-1.86677 0.623362,-3.98099 0.464718,-2.11422 0.814926,-3.84404 0.778239,-3.84404 -0.108422,0 -2.906158,4.04542 -3.267552,4.72476 -0.239959,0.45107 -0.251782,0.70374 -0.04271,0.91281 0.159002,0.159 0.289094,0.38435 0.289094,0.50076 0,0.39164 -0.558602,0.21615 -1.43169,-0.44979 -0.476969,-0.3638 -1.009191,-0.66146 -1.182715,-0.66146 -0.839233,0 -5.058511,-1.48232 -5.058511,-1.77716 0,-0.1879 0.259675,-0.30577 0.595313,-0.27024 0.536521,0.0568 0.595312,-0.0517 0.595312,-1.09839 0,-1.13816 -0.02256,-1.16809 -1.126016,-1.4939 -1.095744,-0.32353 -1.1402,-0.31255 -1.653645,0.40852 -0.647641,0.90952 -0.660996,1.21983 -0.06681,1.55235 0.924551,0.5174 0.02347,0.64465 -1.396143,0.19715 -1.302561,-0.41059 -1.751339,-0.95791 -0.78545,-0.95791 0.200562,0 1.685239,-1.60243 3.299282,-3.56096 1.614043,-1.95853 3.047802,-3.63091 3.186132,-3.7164 0.13833,-0.0855 0.479438,-0.0335 0.758018,0.11563 0.452026,0.24192 0.527422,0.7173 0.700929,4.41944 0.248363,5.29937 0.299009,5.49113 1.454585,5.50759 0.849106,0.0121 1.016292,-0.152 2.952085,-2.89759 1.990619,-2.82336 2.356586,-3.62795 1.805161,-3.96875 -0.348498,-0.21539 -0.33978,-0.66146 0.01293,-0.66146 0.152631,0 0.986068,0.49969 1.852083,1.11042 1.793968,1.26514 1.782533,1.21698 1.054017,4.43918 -0.278833,1.23328 -0.459202,2.29009 -0.40082,2.34847 0.05838,0.0584 1.191018,-0.56811 2.516968,-1.39221 l 2.410818,-1.49835 1.700961,1.21378 c 1.834893,1.30935 2.131622,1.78911 0.961856,1.55516 -0.691406,-0.13828 -0.872654,0.0428 -2.808446,2.80596 -2.159029,3.08181 -2.511598,3.79115 -2.031749,4.08772 0.326695,0.20191 0.389555,0.67671 0.0892,0.67373 -0.10914,-0.001 -1.178927,-0.68569 -2.377304,-1.52135 z M 53.456657,211.59105 v -1.07863 l -0.704903,0.83773 c -0.57616,0.68473 -0.636565,0.88099 -0.330729,1.07458 0.761386,0.48196 1.035632,0.26119 1.035632,-0.83368 z m -43.327962,11.25347 c -0.3207656,-0.22467 -1.3681695,-1.53436 -2.3275646,-2.91041 -1.5281574,-2.19183 -1.8402869,-2.50192 -2.51837,-2.50192 -0.9193765,0 -0.9713101,-0.24663 -0.1703884,-0.80916 3.0529057,-2.1442 3.9260931,-2.68682 4.0784741,-2.53444 0.097577,0.0976 0.036522,0.31831 -0.1356779,0.4905 -0.5450513,0.54506 -0.3512148,1.08268 1.1724088,3.2518 2.614618,3.72231 3.11099,4.06074 4.431944,3.02167 1.164482,-0.91598 0.955384,-1.88644 -1.021708,-4.74193 -1.886575,-2.72475 -2.075799,-2.90777 -2.808357,-2.7162 -0.8921368,0.2333 -0.529426,-0.41441 0.70934,-1.2667 1.278559,-0.87968 1.776137,-0.85622 1.205918,0.0568 -0.308329,0.49371 -0.179369,0.78562 1.277204,2.891 0.891089,1.28802 1.797595,2.76651 2.014459,3.28553 0.362099,0.86663 0.351842,1.03967 -0.125614,2.11903 -0.971474,2.19618 -4.160453,3.50021 -5.782068,2.36438 z m 8.402965,-4.00244 c 0,-0.0977 0.199347,-0.39788 0.442992,-0.6671 0.417549,-0.46139 0.367044,-0.69053 -0.879362,-3.98959 -1.220519,-3.23054 -1.378097,-3.50664 -2.046178,-3.58531 -1.28171,-0.15093 -0.593067,-0.68039 2.370307,-1.82238 3.683915,-1.41967 5.056063,-1.49259 6.041846,-0.32105 0.816747,0.97065 0.877568,2.04475 0.16694,2.94817 l -0.518039,0.65858 1.698979,1.36147 c 0.934439,0.74882 1.874905,1.36148 2.089924,1.36148 1.00896,0 0.521209,0.53917 -1.060605,1.17241 l -1.744519,0.69838 -1.627496,-1.41718 c -2.283021,-1.988 -2.384224,-2.00703 -1.632409,-0.30704 0.366504,0.82872 0.66637,1.55149 0.66637,1.60615 0,0.0546 0.297656,0.0994 0.661458,0.0994 1.255245,0 0.653526,0.47756 -1.799075,1.42787 -2.570443,0.99596 -2.831133,1.06739 -2.831133,0.77577 z m 3.439583,-7.60123 c 0,-1.02555 -0.873946,-2.27533 -1.591088,-2.27533 -0.773184,0 -0.783579,0.28021 -0.0759,2.04584 0.586868,1.46421 0.717284,1.61881 1.163954,1.37976 0.339715,-0.18181 0.503032,-0.55527 0.503032,-1.15027 z m 7.672916,3.59002 c 0,-0.13887 0.178594,-0.32102 0.396875,-0.40478 0.419118,-0.16083 0.521077,-1.33384 0.238672,-2.74586 -0.183937,-0.91968 -3.637614,-5.09596 -4.214231,-5.09596 -0.214536,0 -0.390065,-0.15538 -0.390065,-0.34528 0,-0.2257 0.710199,-0.4604 2.05052,-0.67766 1.127787,-0.1828 2.258881,-0.39264 2.513542,-0.4663 0.533769,-0.15438 0.662191,0.58499 0.132292,0.76165 -0.213062,0.071 0.08079,0.64369 0.825925,1.60955 0.636161,0.82461 1.190777,1.49929 1.232481,1.49929 0.187513,0 1.155887,-3.26898 1.029131,-3.47408 -0.07821,-0.12655 -0.313772,-0.23009 -0.523465,-0.23009 -0.6413,0 -0.423463,-0.51032 0.280198,-0.65642 0.363802,-0.0755 0.951818,-0.1973 1.306702,-0.27059 0.770601,-0.15915 1.087968,0.21212 0.557585,0.6523 -0.208364,0.17293 -0.696178,1.26728 -1.08403,2.43189 -0.591554,1.77628 -0.67686,2.38198 -0.529402,3.75893 0.201852,1.88487 0.340903,2.18644 1.072062,2.32514 0.952202,0.18062 0.457386,0.6163 -1.049388,0.92398 -2.645974,0.54029 -3.845404,0.66639 -3.845404,0.40429 z m 13.096874,-0.40854 c -2.17137,-0.30512 -2.473753,-0.53383 -1.408195,-1.06506 0.537309,-0.26788 0.647345,-0.61655 0.928811,-2.94313 0.175612,-1.45159 0.385659,-3.08055 0.466772,-3.61993 0.118118,-0.78545 0.03254,-1.08776 -0.429867,-1.51856 -0.31754,-0.29583 -0.518916,-0.59631 -0.447503,-0.66772 0.119597,-0.1196 6.205715,0.52909 7.570711,0.80692 0.47684,0.097 0.595312,0.30015 0.595312,1.02053 0,1.04593 -0.221673,1.73639 -0.557474,1.73639 -0.129951,0 -0.236276,-0.17196 -0.236276,-0.38212 0,-0.69362 -1.163897,-1.67723 -2.151712,-1.81841 -0.934383,-0.13354 -0.965546,-0.11039 -1.121567,0.83315 -0.304893,1.84385 -0.2149,2.42571 0.375169,2.42571 0.324623,0 0.721975,-0.31721 0.992187,-0.79208 0.247894,-0.43564 0.553883,-0.79283 0.679976,-0.79375 0.218465,-0.002 0.01872,3.0584 -0.263272,4.03323 -0.203058,0.70196 -0.542897,0.55504 -0.715795,-0.30945 -0.142799,-0.714 -1.053841,-1.34854 -1.416077,-0.9863 -0.0779,0.0779 -0.203255,0.90934 -0.278573,1.84764 -0.125927,1.56879 -0.09165,1.72039 0.426153,1.88473 0.309702,0.0983 0.563095,0.28976 0.563095,0.42548 0,0.2992 -0.793524,0.27315 -3.571875,-0.11727 z"
         id="path5" /><path
         style="fill:#1d4745"
         d="m 40.227492,310.92908 c -0.218281,-0.0375 -1.438672,-0.14534 -2.711979,-0.23963 -1.273307,-0.0943 -2.315104,-0.27981 -2.315104,-0.41227 0,-0.13245 0.164015,-0.24083 0.364478,-0.24083 0.623671,0 0.987095,-0.70096 1.142104,-2.20284 l 0.149203,-1.44565 -1.339008,-0.094 -1.339008,-0.094 -0.182845,1.57757 c -0.165068,1.42418 -0.128236,1.61383 0.378823,1.9505 0.779063,0.51728 0.701818,0.84677 -0.165934,0.70781 -0.400183,-0.0641 -1.650339,-0.19033 -2.778125,-0.28054 -2.052322,-0.16417 -2.601005,-0.45252 -1.423453,-0.74806 0.734335,-0.18431 0.847233,-0.68933 1.123822,-5.02717 0.180064,-2.824 0.17153,-2.88793 -0.452955,-3.39337 l -0.636477,-0.51515 2.772348,0.1685 c 1.524791,0.0927 2.831031,0.22718 2.902754,0.29891 0.126028,0.12602 -0.385179,0.53006 -0.898182,0.70988 -0.202725,0.0711 -0.707023,3.33352 -0.549708,3.55623 0.02465,0.0349 0.631421,0.0944 1.348384,0.1323 l 1.303571,0.0688 0.07788,-1.77034 c 0.0688,-1.56397 0.01396,-1.80456 -0.470432,-2.0638 -0.959062,-0.51328 -0.363591,-0.69343 1.631402,-0.49358 1.064883,0.10668 2.263572,0.20133 2.663754,0.21033 0.742403,0.0167 1.057515,0.54552 0.325057,0.54552 -0.627746,0 -0.86495,0.92268 -1.186616,4.61572 l -0.298328,3.42509 0.609064,0.45941 c 0.639627,0.48248 0.622661,0.70924 -0.04449,0.59459 z m 3.41829,-1.13202 0.640165,-0.49211 -0.460974,-3.40461 c -0.577092,-4.26222 -0.58722,-4.29551 -1.366157,-4.49101 -0.354104,-0.0889 -0.643824,-0.2485 -0.643824,-0.35471 0,-0.24212 5.259906,-0.9278 5.474107,-0.7136 0.08641,0.0864 -0.09676,0.36844 -0.407028,0.62674 l -0.564133,0.46963 0.499625,3.5122 c 0.490993,3.45152 0.787388,4.29301 1.512117,4.29301 0.200463,0 0.364478,0.10102 0.364478,0.22449 0,0.2222 -3.751355,0.8403 -5.027083,0.8283 l -0.661458,-0.006 z m -21.720477,-1.87183 c -3.272788,-0.98802 -4.704338,-3.38357 -3.826497,-6.40324 0.93582,-3.2191 4.006239,-4.51304 7.190539,-3.03024 3.140811,1.46256 4.066188,4.74755 2.150014,7.63233 -1.06965,1.61034 -3.50789,2.40679 -5.514056,1.80115 z m 1.645329,-1.60577 c 1.662716,-1.77995 2.580976,-6.19827 1.458894,-7.01965 -1.36566,-0.99968 -2.946166,0.32535 -3.840021,3.21931 -0.689675,2.23291 -0.693103,3.39656 -0.01201,4.07765 0.747319,0.74732 1.519586,0.65783 2.39314,-0.27731 z m 28.695399,1.49131 c -2.454932,-1.0911 -3.654794,-5.12652 -2.176517,-7.32014 1.294562,-1.921 4.207273,-3.01084 6.343278,-2.37345 2.018982,0.60247 3.638446,2.9228 3.638446,5.21308 0,1.1443 -1.065134,3.04656 -2.085543,3.72463 -1.68671,1.12083 -4.162408,1.44801 -5.719664,0.75588 z m 4.410936,-1.12272 c 1.02927,-0.93147 0.122305,-5.13563 -1.472771,-6.8269 -1.05097,-1.11436 -1.542329,-1.16656 -2.448718,-0.26017 -0.603663,0.60366 -0.657102,0.81064 -0.492568,1.90783 0.257932,1.72001 1.112761,3.89278 1.899278,4.8275 0.754041,0.89613 1.758063,1.03656 2.514779,0.35174 z m -17.243227,-7.63191 c -0.539331,-0.57409 -0.851207,-0.66215 -2.361225,-0.66669 -0.956899,-0.003 -2.573254,-0.12286 -3.5919,-0.26661 -2.112211,-0.29806 -7.139593,-1.66712 -8.251387,-2.24702 -0.409445,-0.21356 -1.008201,-0.38902 -1.330569,-0.38992 -0.322368,-9e-4 -1.14935,-0.35882 -1.837738,-0.79538 -0.688387,-0.43656 -1.45185,-0.79375 -1.696583,-0.79375 -0.244733,0 -0.608376,-0.19704 -0.808095,-0.43786 -0.544422,-0.65647 -1.923826,-1.14964 -3.215543,-1.14964 -1.430062,0 -2.359002,-0.87254 -2.88863,-2.71324 -0.293145,-1.01882 -0.624142,-1.45503 -1.740702,-2.29399 l -1.378726,-1.03596 -2.5150746,0.15005 -2.5150744,0.15005 v -4.35423 -4.35423 L 4.4026909,276.02151 C 3.9077987,275.0116 3.3511717,273.64953 3.165742,272.99469 2.9803123,272.33984 2.7384591,271.68253 2.6282904,271.534 c -0.1101686,-0.14854 -0.5094119,-1.51775 -0.8872073,-3.04271 -2.35205278,-9.49397 -1.18040902,-19.8728 3.2860326,-29.10883 0.588021,-1.21595 1.0691292,-2.4116 1.0691292,-2.65698 0,-0.24539 0.2375241,-0.50827 0.5278313,-0.58419 0.2903072,-0.0759 0.6077449,-0.3577 0.705417,-0.62617 0.4656026,-1.27983 6.7677128,-8.55793 7.4103138,-8.55793 0.08571,0 0.61047,-0.38696 1.166124,-0.8599 2.785383,-2.37077 7.039177,-4.76948 10.430937,-5.88199 2.882552,-0.94549 4.931961,-1.47716 6.614583,-1.71599 2.706671,-0.3842 9.957879,-0.32994 12.569594,0.094 3.872121,0.62859 9.276183,2.70752 12.834237,4.93728 2.171911,1.3611 5.785011,4.2336 6.781486,5.39144 0.673714,0.78281 0.733115,0.79986 1.5875,0.4557 2.130136,-0.85806 2.078221,-0.89926 2.078221,1.64961 0,1.25389 0.09831,2.27981 0.218474,2.27981 0.233888,0 3.192295,4.85471 4.180641,6.86039 2.57145,5.21831 3.795435,10.30603 3.982789,16.55523 0.235943,7.86988 -1.082735,13.84986 -4.609234,20.90208 -2.086246,4.17204 -6.064376,8.99258 -10.76245,13.0415 -1.141486,0.98377 -5.417061,3.59657 -7.298047,4.45984 -2.501545,1.14808 -6.854753,2.47141 -9.462019,2.87637 -0.732856,0.11383 -1.397662,0.44489 -1.897876,0.9451 -1.042335,1.04233 -2.795676,1.09343 -3.721025,0.10844 z m 3.002551,-0.46302 c 0.756125,-0.69164 1.761885,-3.4505 1.95222,-5.35504 0.08563,-0.85689 0.351147,-1.58067 0.756622,-2.06255 0.343579,-0.40832 0.746381,-1.19433 0.895115,-1.74669 0.148735,-0.55236 0.509053,-1.22024 0.800709,-1.48419 0.291655,-0.26394 0.530282,-0.69957 0.530282,-0.96805 0,-0.60803 1.105868,-0.67162 1.5875,-0.0913 0.464197,0.55932 1.517076,0.49368 1.842774,-0.1149 0.150641,-0.28147 0.274338,-0.90655 0.274882,-1.38906 0.0017,-1.46466 0.760931,-2.44866 3.627828,-4.70153 1.421481,-1.11703 3.699364,-2.12888 4.79253,-2.12888 0.467421,0 2.399583,-2.20062 2.947143,-3.35663 0.288566,-0.60922 0.71021,-1.21151 0.936987,-1.33842 0.226777,-0.12691 0.711753,-1.11674 1.077725,-2.19962 0.365972,-1.08288 0.771302,-2.207 0.900735,-2.49804 0.129432,-0.29104 0.292567,-0.94589 0.362521,-1.45521 0.151868,-1.10573 0.793707,-3.73632 1.22656,-5.02708 0.380343,-1.13419 0.737013,-32.27925 0.369656,-32.27904 -0.333282,1.9e-4 -2.729824,0.93327 -3.674967,1.43083 -0.436563,0.22982 -0.955182,0.4186 -1.152488,0.41949 -0.197306,9e-4 -1.295359,0.52835 -2.440119,1.17212 -1.144759,0.64376 -2.352545,1.25391 -2.68397,1.35589 -0.547328,0.1684 -1.802025,1.22369 -4.866199,4.09283 -0.947923,0.88758 -1.306957,1.04341 -2.778125,1.20579 -0.929233,0.10255 -1.960408,0.28708 -2.291501,0.41006 -0.331093,0.12297 -1.362372,0.34506 -2.291732,0.49352 -0.92936,0.14847 -2.325341,0.56583 -3.10218,0.92747 -1.772561,0.82518 -2.321749,0.82536 -3.869844,0.001 -1.407912,-0.74949 -2.012253,-0.81101 -2.984183,-0.30381 -1.232113,0.64298 -2.083845,0.74133 -2.69754,0.31148 -0.317662,-0.2225 -0.7892,-0.40454 -1.047863,-0.40454 -0.326501,0 -0.470295,-0.20427 -0.470295,-0.66807 0,-0.53064 0.163291,-0.70074 0.79375,-0.82683 0.436562,-0.0873 0.79375,-0.24054 0.79375,-0.3405 0,-0.36064 -1.60162,-1.35553 -2.444974,-1.51877 -0.474274,-0.0918 -1.146444,-0.44623 -1.493709,-0.78762 l -0.631392,-0.62071 H 17.452863 c -5.792401,0 -10.5851833,0.0893 -10.6506272,0.19844 -0.065444,0.10914 -0.2069176,10.95706 -0.3143862,24.10648 -0.1649929,20.18789 -0.1386151,23.94401 0.1695198,24.13918 0.2007044,0.12712 1.3517829,0.23295 2.5579521,0.23518 2.1815135,0.004 2.1985945,0.009 3.2511935,1.02083 0.581986,0.55922 1.506923,1.89867 2.055413,2.97656 l 0.997256,1.95979 1.882726,0.13229 c 1.471829,0.10342 2.020821,0.26222 2.515478,0.7276 0.348014,0.32743 0.846068,0.59532 1.106788,0.59532 0.260719,0 0.708171,0.29765 0.994338,0.66145 0.607438,0.77224 0.892325,0.818 1.473616,0.23671 0.573562,-0.57356 2.50869,-0.31153 4.151985,0.56222 1.631922,0.8677 2.906766,0.86905 3.47378,0.004 0.648961,-0.99044 2.696052,-2.03327 3.80772,-1.93972 0.900983,0.0758 0.936663,0.11872 0.947147,1.13913 0.01373,1.33654 0.172638,1.58396 1.580226,2.46039 0.629458,0.39192 1.576212,1.27814 2.103898,1.96937 1.095937,1.43558 1.844998,1.60765 2.879407,0.66145 z m -6.168242,-7.06021 c -0.150641,-0.28147 -0.273892,-0.8712 -0.273892,-1.3105 0,-0.6436 -0.167015,-0.87556 -0.859896,-1.19432 -0.472942,-0.21758 -1.217083,-0.44345 -1.653646,-0.50194 -0.722621,-0.0968 -0.706761,-0.1099 0.176996,-0.14599 0.53391,-0.0218 1.336829,0.16872 1.784265,0.42338 0.662577,0.37711 0.814581,0.63484 0.819243,1.38906 0.0077,1.23808 0.321811,1.68822 1.022922,1.4657 0.333519,-0.10586 0.562199,-0.0636 0.562199,0.10397 0,0.49621 -1.290233,0.3087 -1.578191,-0.22936 z m 2.438087,0.33655 c -0.373872,-0.15086 -0.405724,-1.01861 -0.06641,-1.80915 0.171424,-0.39938 0.215531,-0.27211 0.179841,0.51896 -0.03768,0.83516 0.05379,1.06893 0.450175,1.15051 0.719127,0.14801 0.949113,-0.3959 0.953694,-2.25547 0.0034,-1.39371 0.08816,-1.68935 0.555879,-1.93967 0.303505,-0.16243 0.625727,-0.22143 0.71605,-0.1311 0.09032,0.0903 -0.09847,0.23291 -0.419536,0.31687 -0.519431,0.13584 -0.583758,0.32611 -0.583758,1.7267 0,2.25827 -0.502722,2.94014 -1.785937,2.42235 z M 18.261771,290.3185 c -0.184076,-0.2218 -0.258186,-0.47977 -0.164689,-0.57326 0.0935,-0.0935 0.169995,-0.0438 0.169995,0.11037 0,0.50497 0.855154,0.6222 1.492489,0.2046 0.534484,-0.3502 0.631031,-0.64572 0.671868,-2.05652 0.04554,-1.57315 0.05225,-1.5886 0.148774,-0.34216 0.136547,1.76335 -0.05816,2.38312 -0.864028,2.7503 -0.882838,0.40224 -1.052136,0.39138 -1.454409,-0.0933 z m 4.399238,-0.54441 c -0.08833,-0.23018 -0.138417,-1.33151 -0.111306,-2.4474 l 0.04929,-2.02888 0.149144,2.24896 0.149145,2.24896 1.121708,-0.0226 c 1.862171,-0.0376 2.791016,-1.32576 1.656417,-2.29723 -0.48897,-0.41867 -0.529167,-0.78051 -0.529167,-4.7633 v -4.3102 l 0.727604,-0.27629 c 0.96618,-0.36687 1.593011,-2.31359 1.15216,-3.57822 -0.160745,-0.46111 -0.280077,-1.08851 -0.265181,-1.39422 0.04432,-0.90955 0.569629,1.17518 0.559974,2.2223 -0.01639,1.778 -0.336744,2.60779 -1.144859,2.9655 l -0.765114,0.33867 v 4.15944 c 0,3.88865 0.03445,4.17787 0.529166,4.44264 0.881293,0.47165 0.703462,1.75359 -0.330729,2.38415 -1.054721,0.64307 -2.719484,0.70392 -2.948255,0.10775 z m 7.215962,0.22008 c -0.01748,-0.10915 -0.04724,-1.05452 -0.06615,-2.10085 -0.02247,-1.24369 0.04031,-1.70175 0.181328,-1.32291 0.118636,0.31871 0.178167,1.1748 0.132291,1.9024 -0.07566,1.19995 -0.02812,1.33077 0.511446,1.40741 0.32717,0.0465 0.952248,-0.17 1.389062,-0.48104 0.436814,-0.31104 0.794207,-0.45205 0.794207,-0.31336 0,0.69508 -2.836142,1.57068 -2.942188,0.90835 z m 7.440104,-0.59532 c 0,-0.29104 0.107916,-0.52916 0.239814,-0.52916 0.131897,0 0.177542,0.23812 0.101433,0.52916 -0.07611,0.29104 -0.184025,0.52917 -0.239814,0.52917 -0.05579,0 -0.101433,-0.23813 -0.101433,-0.52917 z m -19.165279,-0.60672 c 0.09936,-0.26094 0.247304,-0.40778 0.328766,-0.32632 0.08146,0.0815 1.68e-4,0.29496 -0.180653,0.47443 -0.261307,0.25936 -0.291698,0.22897 -0.148113,-0.14811 z m 0.441249,-1.50994 c 0,-0.50933 0.05445,-0.71769 0.120999,-0.46302 0.06655,0.25466 0.06655,0.67138 0,0.92604 -0.06655,0.25466 -0.120999,0.0463 -0.120999,-0.46302 z m 10.858594,-2.91042 c 0,-0.65484 0.0516,-0.92274 0.114662,-0.59531 0.06307,0.32742 0.06307,0.8632 0,1.19062 -0.06306,0.32742 -0.114662,0.0595 -0.114662,-0.59531 z m -7.143749,-0.26458 c 0,-0.65485 0.0516,-0.92274 0.114662,-0.59532 0.06306,0.32743 0.06306,0.86321 0,1.19063 -0.06306,0.32742 -0.114662,0.0595 -0.114662,-0.59531 z m -1.632688,-0.92605 c -0.01316,-0.29104 0.102077,-0.98291 0.256079,-1.5375 0.200606,-0.72241 0.405642,-0.98413 0.72309,-0.923 0.243698,0.0469 0.462101,0.29466 0.48534,0.5505 0.03245,0.35722 0.01265,0.36847 -0.08533,0.0485 -0.23221,-0.75845 -0.740061,-0.23159 -1.049929,1.08923 -0.167931,0.71581 -0.316095,1.06335 -0.329253,0.7723 z m -2.064255,-1.19062 c 0,-0.80037 0.0496,-1.12779 0.110222,-0.7276 0.06062,0.40018 0.06062,1.05502 0,1.4552 -0.06062,0.40019 -0.110222,0.0728 -0.110222,-0.7276 z m 10.393263,-0.8599 c -0.09488,-0.32742 -0.219891,-1.7264 -0.277814,-3.10885 l -0.105314,-2.51354 0.206951,2.24896 c 0.113823,1.23692 0.293944,2.63591 0.40027,3.10885 0.218137,0.97029 0.041,1.17944 -0.224093,0.26458 z m 12.67849,-3.19165 c 0,-2.5847 0.102493,-3.92619 0.320059,-4.18912 0.176032,-0.21274 0.436376,-0.67804 0.578541,-1.034 0.158563,-0.39702 0.264966,-0.48201 0.275254,-0.21987 0.0092,0.23504 -0.231283,0.74269 -0.534461,1.12812 -0.507056,0.64462 -0.538429,0.92842 -0.391486,3.54141 0.08786,1.56235 0.06802,3.23104 -0.04408,3.70821 -0.12617,0.53703 -0.203826,-0.58108 -0.203827,-2.93475 z m -23.388569,1.53801 c -0.02475,-0.29104 -0.275054,-1.00542 -0.55622,-1.5875 -0.281167,-0.58209 -0.503292,-1.35599 -0.493612,-1.71979 0.01291,-0.48536 0.08011,-0.39614 0.252384,0.33512 0.12913,0.54811 0.42401,1.28537 0.655287,1.63834 0.231277,0.35298 0.368004,0.91655 0.303837,1.25238 -0.09948,0.52066 -0.123298,0.53266 -0.161676,0.0815 z m 15.054195,-4.25947 c 0,-0.23266 -0.357188,-0.75668 -0.79375,-1.16449 -0.879594,-0.82166 -0.994174,-1.35637 -0.396875,-1.85208 0.468371,-0.38872 0.539368,0.0163 0.08288,0.47274 -0.242272,0.24227 -0.168546,0.46882 0.322764,0.9918 0.480799,0.51178 0.671112,0.58711 0.777017,0.30754 0.113871,-0.30059 0.232607,-0.28141 0.63116,0.10198 0.477292,0.45913 0.475955,0.46832 -0.04822,0.33124 -0.446826,-0.11684 -0.513591,-0.0434 -0.389985,0.42932 0.08973,0.34312 0.293383,0.51495 0.51124,0.43135 0.199157,-0.0764 0.362103,-0.0236 0.362103,0.11733 0,0.14095 -0.238125,0.25628 -0.529167,0.25628 -0.308513,0 -0.529166,-0.17639 -0.529167,-0.42301 z m -4.586111,-0.018 c -0.305252,-0.30525 -0.173567,-1.78012 0.220486,-2.46945 0.207968,-0.3638 0.382343,-1.04422 0.3875,-1.51204 0.02051,-1.86117 3.415484,-1.93571 3.436643,-0.0755 0.0025,0.21828 -0.145274,0.0992 -0.328348,-0.26458 -0.235004,-0.467 -0.588971,-0.68621 -1.204008,-0.74566 -1.09458,-0.10579 -1.630329,0.32684 -1.630329,1.31653 0,0.42387 -0.19172,1.06327 -0.426046,1.42089 -0.262184,0.40015 -0.384379,1.00714 -0.317712,1.57819 0.118044,1.01114 0.118561,1.00832 -0.138186,0.75158 z m -11.684491,-5.20776 c 0.10913,-5.0327 0.128265,-5.08463 2.245598,-6.0938 0.910347,-0.43389 1.228144,-0.75158 1.357758,-1.35729 l 0.169222,-0.79081 0.0313,0.87446 c 0.02903,0.81091 -0.07041,0.91944 -1.368347,1.49345 -0.769808,0.34044 -1.549471,0.79951 -1.732584,1.02015 -0.214761,0.25877 -0.415758,1.98258 -0.566278,4.85655 l -0.233344,4.45539 z m 9.46711,1.01852 c 0.002,-0.7276 0.05337,-0.99386 0.114186,-0.59167 0.06081,0.40218 0.05919,0.99749 -0.0036,1.32291 -0.0628,0.32542 -0.11256,-0.004 -0.110574,-0.73124 z m 15.778032,0.0661 c -0.01171,-0.32743 -0.16054,-1.11686 -0.33073,-1.75429 -0.262846,-0.98448 -0.448714,-1.20358 -1.234478,-1.45521 -0.821638,-0.26312 -0.948545,-0.42933 -1.135296,-1.48686 -0.555088,-3.14335 -0.501232,-3.0357 -1.562863,-3.12394 -0.945821,-0.0786 -0.982691,-0.0487 -1.14231,0.92604 -0.326462,1.99365 -0.446167,2.49838 -0.564469,2.38007 -0.06614,-0.0661 0.01695,-0.90808 0.18463,-1.871 l 0.30488,-1.75075 h 1.142946 c 1.059548,0 1.161989,0.0627 1.403951,0.85989 0.143553,0.47295 0.332297,1.44875 0.419431,2.16846 0.166607,1.37615 0.44575,1.72344 1.390602,1.7301 0.41357,0.003 0.652588,0.24524 0.852147,0.86394 0.376843,1.16836 0.663318,3.10886 0.458959,3.10886 -0.09136,0 -0.175689,-0.26789 -0.1874,-0.59531 z m -8.709957,-0.45356 c 0,-0.64688 1.450413,-2.89303 2.042252,-3.16269 0.33197,-0.15126 0.603581,-0.18674 0.603581,-0.0788 0,0.10789 -0.255937,0.3137 -0.56875,0.45735 -0.312813,0.14364 -0.908125,0.90273 -1.322917,1.68685 -0.414791,0.78412 -0.754166,1.27792 -0.754166,1.09733 z m -7.33627,-2.39071 c 0,-0.65485 0.0516,-0.92274 0.114663,-0.59532 0.06306,0.32743 0.06306,0.86321 0,1.19063 -0.06306,0.32742 -0.114663,0.0595 -0.114663,-0.59531 z m -0.300614,-1.89897 c -0.02364,-0.4647 -0.377303,-0.99903 -1.028219,-1.55347 l -0.992188,-0.84513 0.883319,0.49514 c 1.036373,0.58093 1.442731,1.22243 1.285993,2.03014 -0.09613,0.49536 -0.11822,0.47656 -0.148905,-0.12668 z m -2.800435,-2.57675 c -0.08239,-0.13331 -0.03167,-0.55309 0.11272,-0.93286 0.296269,-0.77924 1.328767,-1.98589 1.328767,-1.55288 0,0.15514 -0.190998,0.44059 -0.424438,0.63433 -0.657396,0.54559 -0.986556,1.61014 -0.578004,1.86935 0.241693,0.15334 0.249226,0.21752 0.02587,0.22039 -0.173313,0.002 -0.382524,-0.10502 -0.464914,-0.23833 z m -2.97455,-2.83629 c -0.311277,-0.81117 0.293657,-1.28253 1.755373,-1.36776 1.376748,-0.0803 2.660664,0.4135 2.660664,1.02326 0,0.14783 -0.260576,0.026 -0.579057,-0.27069 -0.412047,-0.38388 -0.936876,-0.53947 -1.819687,-0.53947 -1.326179,0 -1.955976,0.43414 -1.678555,1.15709 0.09084,0.23672 0.08916,0.43041 -0.0037,0.43041 -0.0929,0 -0.243646,-0.19478 -0.334999,-0.43284 z m 10.942425,-0.008 c -0.35017,-0.35017 -0.167137,-0.67448 0.205923,-0.36487 0.515976,0.42822 1.481788,0.25299 1.839625,-0.33378 0.24582,-0.40309 0.114407,-0.63157 -0.836971,-1.45521 -1.707004,-1.47781 -1.384123,-2.69684 0.714306,-2.69684 0.587041,0 0.811144,0.12427 0.811144,0.44979 0,0.34984 -0.07055,0.37924 -0.3175,0.1323 -0.423772,-0.42378 -1.134964,-0.40214 -1.506751,0.0458 -0.423414,0.51018 -0.163307,0.99632 0.904019,1.68961 1.079849,0.70142 1.291433,1.9631 0.40846,2.43565 -0.573962,0.30718 -1.952116,0.36765 -2.222255,0.0975 z m 4.284693,-0.3294 c -0.510816,-0.41364 -0.624624,-0.75527 -0.624624,-1.875 0,-1.17216 0.106833,-1.46109 0.742358,-2.00775 1.588905,-1.36672 3.88785,-0.41128 3.88785,1.61578 0,1.04057 -0.377905,1.9288 -1.035405,2.43361 -0.646837,0.49663 -2.263059,0.40595 -2.970179,-0.16664 z m 2.74936,-0.22182 c 0.733223,-0.82145 0.69668,-2.74236 -0.06669,-3.50573 -1.128736,-1.12873 -2.645833,-0.23894 -2.645833,1.55182 0,1.89573 1.682605,3.10776 2.712526,1.95391 z m 2.797423,0.45294 c -0.6085,-0.35505 -1.090351,-1.94143 -0.880248,-2.89803 0.238567,-1.08618 1.294824,-1.85439 2.54973,-1.85439 0.786107,0 1.022652,0.10404 1.022652,0.44979 0,0.34984 -0.07056,0.37924 -0.3175,0.1323 -0.501755,-0.50176 -1.391385,-0.37175 -2.017629,0.29486 -0.761067,0.81012 -0.764893,2.25934 -0.0081,3.07165 0.470938,0.50549 0.751536,0.58441 1.653646,0.46507 0.989959,-0.13095 1.040845,-0.11009 0.572875,0.23485 -0.586466,0.43228 -1.920371,0.48609 -2.575418,0.1039 z m 4.147342,-2.10658 c 0,-1.72862 0.09064,-2.38125 0.330729,-2.38125 0.240085,0 0.330729,0.65263 0.330729,2.38125 0,1.72861 -0.09064,2.38125 -0.330729,2.38125 -0.240085,0 -0.330729,-0.65264 -0.330729,-2.38125 z m 1.852083,0.0136 c 0,-2.14389 0.05002,-2.38114 0.529167,-2.50993 0.847013,-0.22768 1.984375,-0.17123 1.984375,0.0985 0,0.13637 -0.416719,0.18033 -0.926042,0.0977 l -0.926041,-0.15027 v 1.07455 c 0,0.90398 0.09449,1.09275 0.595312,1.18921 l 0.595312,0.11466 -0.595312,0.036 c -0.51549,0.0312 -0.595312,0.18261 -0.595312,1.12921 v 1.09317 l 1.058333,-0.14196 c 0.582083,-0.0781 1.058333,-0.0342 1.058333,0.0975 0,0.13167 -0.625078,0.23941 -1.389062,0.23941 h -1.389063 z m 5.11961,0.1375 0.09253,-2.23027 -0.886277,-0.10868 c -0.487452,-0.0598 -0.11237,-0.11152 0.833515,-0.11499 0.945885,-0.003 1.443419,0.0464 1.105631,0.11082 -0.592984,0.11309 -0.61123,0.19398 -0.529167,2.34584 0.07027,1.84265 0.01625,2.2286 -0.311881,2.22812 -0.328673,-4.8e-4 -0.380974,-0.38384 -0.304348,-2.23084 z m 3.59053,0.97323 c -0.02165,-1.28873 -0.53183,-2.56233 -1.361785,-3.39953 -0.449274,-0.45319 -0.448617,-0.46549 0.01547,-0.28965 0.266563,0.101 0.581057,0.18364 0.698875,0.18364 0.117819,0 0.404773,0.47625 0.637677,1.05833 0.232903,0.58208 0.481536,1.05833 0.552517,1.05833 0.07098,0 0.372022,-0.47625 0.668978,-1.05833 0.296957,-0.58208 0.658058,-1.05833 0.802447,-1.05833 0.144389,0 -0.05694,0.50601 -0.447397,1.12447 -0.41479,0.65701 -0.760146,1.64695 -0.830732,2.38125 -0.158282,1.6466 -0.70839,1.64646 -0.736052,-1.8e-4 z m -41.379449,-6.67381 c -1.223285,-1.22329 -0.85216,-3.49521 0.6752,-4.13338 1.224832,-0.51177 2.757654,-0.49236 2.757654,0.0349 0,0.3196 -0.1091,0.3478 -0.511773,0.13229 -0.82765,-0.44294 -1.584673,-0.31816 -2.278379,0.37554 -1.363539,1.36354 -0.423919,3.84849 1.455208,3.84849 0.763684,0 0.805777,-0.0553 0.805777,-1.05833 0,-0.67352 0.12095,-1.05834 0.332636,-1.05834 0.231874,0 0.303951,0.36066 0.237941,1.19063 l -0.09469,1.19062 H 16.25606 c -1.069654,0 -1.559822,-0.13125 -1.951003,-0.52243 z m 4.888062,-1.84526 c 0,-2.14388 0.05002,-2.38113 0.529166,-2.50993 0.847014,-0.22767 1.984375,-0.17123 1.984375,0.0985 0,0.13637 -0.416719,0.18032 -0.926041,0.0977 l -0.926042,-0.15028 v 1.07455 c 0,0.90399 0.0945,1.09276 0.595312,1.18922 l 0.595313,0.11466 -0.595313,0.036 c -0.51549,0.0312 -0.595312,0.18261 -0.595312,1.1292 v 1.09317 l 1.058333,-0.14195 c 0.582084,-0.0781 1.058333,-0.0342 1.058333,0.0975 0,0.13167 -0.625078,0.2394 -1.389062,0.2394 h -1.389062 z m 3.603179,1.77238 c 0.01722,-0.32742 0.122192,-0.9525 0.233279,-1.38906 0.172642,-0.67848 0.206521,-0.59202 0.233279,0.59531 0.01737,0.77052 -0.08651,1.38906 -0.233279,1.38906 -0.145521,0 -0.250497,-0.26789 -0.233279,-0.59531 z m 1.969141,-1.52135 c -0.815753,-1.16417 -1.59957,-2.11667 -1.741816,-2.11667 -0.142246,0 -0.25863,-0.11906 -0.25863,-0.26458 0,-0.14553 0.220657,-0.26459 0.490348,-0.26459 0.313595,0 0.955755,0.69146 1.781477,1.91823 1.417895,2.10657 1.574248,2.03551 1.389308,-0.63142 -0.04909,-0.70792 3.9e-5,-1.28706 0.10918,-1.28697 0.10914,9e-5 0.198437,1.07172 0.198437,2.38141 0,1.30969 -0.109151,2.38125 -0.242558,2.38125 -0.133407,0 -0.909993,-0.9525 -1.725746,-2.11666 z m 3.158929,-0.25103 c 0,-2.14388 0.05002,-2.38113 0.529167,-2.50993 0.847013,-0.22767 1.984374,-0.17123 1.984374,0.0985 0,0.13637 -0.416718,0.18032 -0.926041,0.0977 l -0.926042,-0.15028 v 1.07455 c 0,0.90399 0.09449,1.09276 0.595313,1.18922 l 0.595312,0.11466 -0.595312,0.036 c -0.515491,0.0312 -0.595313,0.18261 -0.595313,1.1292 v 1.09317 l 1.058333,-0.14195 c 0.582084,-0.0781 1.058334,-0.0342 1.058334,0.0975 0,0.13167 -0.625078,0.2394 -1.389063,0.2394 h -1.389062 z m 3.365213,2.16925 c 0.355765,-0.692 1.740877,-3.71784 1.877299,-4.10104 0.316849,-0.89001 0.926032,-0.4833 1.387078,0.92604 0.249925,0.76399 0.683835,1.84575 0.964244,2.40392 0.469103,0.93377 0.473361,1.00775 0.0533,0.92604 -0.251096,-0.0488 -0.596763,-0.50553 -0.768149,-1.01485 -0.285133,-0.84735 -0.399538,-0.92604 -1.34634,-0.92604 -0.975722,0 -1.048704,0.0566 -1.279828,0.99218 -0.138401,0.56027 -0.407156,0.99219 -0.617361,0.99219 -0.204743,0 -0.326351,-0.0893 -0.270241,-0.19844 z m 2.852495,-2.43017 c 0,-0.13604 -0.128034,-0.58253 -0.284519,-0.99218 l -0.284519,-0.74483 -0.367564,0.66146 c -0.540073,0.9719 -0.467069,1.32291 0.275143,1.32291 0.363803,0 0.661459,-0.11131 0.661459,-0.24736 z m 2.513541,0.24736 c 0,-1.72861 0.09064,-2.38125 0.330729,-2.38125 0.239037,0 0.330729,0.63311 0.330729,2.28358 v 2.28358 l 0.926042,-0.15028 c 0.509323,-0.0827 0.926042,-0.0387 0.926042,0.0977 0,0.13638 -0.565547,0.24795 -1.256771,0.24795 h -1.256771 z m 3.535041,1.87546 c -0.510817,-0.41363 -0.624624,-0.75526 -0.624624,-1.87499 0,-1.17216 0.106833,-1.4611 0.742358,-2.00775 1.588904,-1.36672 3.88785,-0.41129 3.88785,1.61577 0,1.04058 -0.377905,1.92881 -1.035406,2.43362 -0.646837,0.49662 -2.263058,0.40594 -2.970178,-0.16665 z m 2.749359,-0.22181 c 0.733224,-0.82145 0.696681,-2.74236 -0.06669,-3.50573 -1.128736,-1.12874 -2.645833,-0.23894 -2.645833,1.55182 0,1.89573 1.682605,3.10776 2.712525,1.95391 z m 2.850454,0.20517 c -1.223285,-1.22329 -0.852161,-3.49521 0.6752,-4.13338 1.224832,-0.51177 2.757653,-0.49236 2.757653,0.0349 0,0.3196 -0.109099,0.3478 -0.511772,0.13229 -0.82765,-0.44294 -1.584673,-0.31816 -2.278379,0.37554 -1.363539,1.36354 -0.423919,3.84849 1.455208,3.84849 0.763684,0 0.805777,-0.0553 0.805777,-1.05833 0,-0.67352 0.120949,-1.05834 0.332636,-1.05834 0.231874,0 0.303951,0.36066 0.237941,1.19063 l -0.09469,1.19062 h -1.428567 c -1.069654,0 -1.559823,-0.13125 -1.951003,-0.52243 z m 4.623478,-1.85882 c 0,-1.72861 0.09064,-2.38125 0.330729,-2.38125 0.240085,0 0.33073,0.65264 0.33073,2.38125 0,1.72861 -0.09065,2.38125 -0.33073,2.38125 -0.240084,0 -0.330729,-0.65264 -0.330729,-2.38125 z m 2.731825,2.10658 c -0.608501,-0.35504 -1.090352,-1.94143 -0.880248,-2.89802 0.238566,-1.08619 1.294823,-1.85439 2.549729,-1.85439 0.786107,0 1.022652,0.10404 1.022652,0.44979 0,0.34984 -0.07055,0.37924 -0.3175,0.13229 -0.501755,-0.50175 -1.391385,-0.37174 -2.017629,0.29487 -0.761067,0.81012 -0.764892,2.25933 -0.0081,3.07165 0.470938,0.50549 0.751537,0.58441 1.653646,0.46507 0.989959,-0.13096 1.040846,-0.11009 0.572876,0.23485 -0.586467,0.43228 -1.920372,0.48609 -2.575418,0.10389 z m 3.279221,0.0762 c 0.355765,-0.692 1.740878,-3.71784 1.877299,-4.10104 0.316849,-0.89001 0.926033,-0.4833 1.387078,0.92604 0.249926,0.76399 0.683836,1.84575 0.964245,2.40392 0.469102,0.93377 0.47336,1.00775 0.0533,0.92604 -0.251095,-0.0488 -0.596762,-0.50553 -0.768149,-1.01485 -0.285133,-0.84735 -0.399537,-0.92604 -1.346339,-0.92604 -0.975722,0 -1.048704,0.0566 -1.279828,0.99218 -0.138402,0.56027 -0.407156,0.99219 -0.617361,0.99219 -0.204743,0 -0.326352,-0.0893 -0.270242,-0.19844 z m 2.852495,-2.43017 c 0,-0.13604 -0.128033,-0.58253 -0.284519,-0.99218 l -0.284518,-0.74483 -0.367564,0.66146 c -0.540074,0.9719 -0.467069,1.32291 0.275143,1.32291 0.363802,0 0.661458,-0.11131 0.661458,-0.24736 z m 2.513542,0.24736 c 0,-1.72861 0.09064,-2.38125 0.330729,-2.38125 0.239037,0 0.330729,0.63311 0.330729,2.28358 v 2.28358 l 0.926042,-0.15028 c 0.509322,-0.0827 0.926041,-0.0387 0.926041,0.0977 0,0.13638 -0.565547,0.24795 -1.256771,0.24795 h -1.25677 z m -50.439955,-5.53287 c -0.510817,-0.41364 -0.624624,-0.75526 -0.624624,-1.87499 0,-1.17216 0.106833,-1.4611 0.742358,-2.00775 1.588905,-1.36672 3.88785,-0.41129 3.88785,1.61577 0,1.04058 -0.377905,1.9288 -1.035405,2.43361 -0.646837,0.49663 -2.263059,0.40595 -2.970179,-0.16664 z m 2.74936,-0.22182 c 0.733223,-0.82145 0.69668,-2.74235 -0.06669,-3.50572 -1.128736,-1.12874 -2.645833,-0.23894 -2.645833,1.55181 0,1.89574 1.682605,3.10776 2.712526,1.95391 z m 2.446849,-1.65364 c 0,-1.72861 0.09064,-2.38125 0.330729,-2.38125 0.240085,0 0.330729,0.65264 0.330729,2.38125 0,1.72861 -0.09064,2.38125 -0.330729,2.38125 -0.240085,0 -0.330729,-0.65264 -0.330729,-2.38125 z m 2.910416,2.9e-4 c 0,-1.65194 0.09553,-2.38118 0.311952,-2.38133 0.210177,-1.4e-4 0.339658,0.77687 0.396875,2.38165 0.07055,1.97873 0.01775,2.38176 -0.311952,2.38133 -0.323339,-4.3e-4 -0.396875,-0.44172 -0.396875,-2.38165 z m 1.852083,-2.9e-4 c 0,-1.72861 0.09064,-2.38125 0.330729,-2.38125 0.240085,0 0.330729,0.65264 0.330729,2.38125 0,1.72861 -0.09064,2.38125 -0.330729,2.38125 -0.240084,0 -0.330729,-0.65264 -0.330729,-2.38125 z m 2.476707,1.87546 c -0.510816,-0.41364 -0.624624,-0.75526 -0.624624,-1.87499 0,-1.17216 0.106833,-1.4611 0.742359,-2.00775 1.588904,-1.36672 3.887849,-0.41129 3.887849,1.61577 0,1.04058 -0.377905,1.9288 -1.035405,2.43361 -0.646837,0.49663 -2.263058,0.40595 -2.970179,-0.16664 z m 2.74936,-0.22182 c 0.733223,-0.82145 0.69668,-2.74235 -0.06669,-3.50572 -1.128737,-1.12874 -2.645833,-0.23894 -2.645833,1.55181 0,1.89574 1.682605,3.10776 2.712525,1.95391 z m 56.656729,15.10009 c -0.307376,-0.0617 -0.882471,-0.45 -1.277988,-0.86283 -0.898945,-0.9383 -1.134516,-2.47309 -0.67414,-4.39215 0.277214,-1.15556 0.278182,-1.5032 0.0051,-1.83224 -0.297209,-0.35812 -0.130016,-0.40609 1.415161,-0.40609 0.963704,0 1.752189,0.0539 1.752189,0.11987 0,0.0659 -0.414842,0.31674 -0.921871,0.55734 -1.765956,0.838 -2.571178,3.23807 -1.459379,4.34987 0.291042,0.29104 0.627475,0.52917 0.747629,0.52917 0.423645,0 1.357059,-1.22074 2.229513,-2.91579 1.101886,-2.14082 2.269386,-2.87104 3.788635,-2.36964 1.747283,0.57665 2.424579,2.76563 1.652778,5.34167 -0.25867,0.86336 -0.247242,1.0851 0.06615,1.28342 0.251044,0.15886 -0.15668,0.24077 -1.20866,0.2428 l -1.5875,0.003 0.84552,-0.51555 c 1.191653,-0.7266 1.717905,-1.63959 1.619053,-2.80889 -0.09702,-1.14766 -0.750725,-1.72006 -1.472386,-1.28927 -0.254661,0.15202 -0.821456,1.01315 -1.259543,1.91363 -1.230958,2.53021 -2.462794,3.41257 -4.260259,3.05162 z m -92.5358415,-0.37773 c -2.8984795,-0.68102 -4.3110985,-3.62825 -3.2145615,-6.70673 0.268598,-0.75408 0.293258,-1.14208 0.08828,-1.38906 -0.227106,-0.27365 0.01536,-0.34271 1.203181,-0.34271 0.818183,0 1.4876053,0.11906 1.4876053,0.26458 0,0.14552 -0.2218893,0.26459 -0.4930873,0.26459 -1.31716,0 -2.318593,2.14093 -1.615736,3.45423 0.993737,1.85682 7.0616486,1.93948 7.7653019,0.10579 0.3506215,-0.91371 0.1436732,-2.08198 -0.5238236,-2.95712 -0.7785772,-1.02076 -0.6604464,-1.4768 0.1844769,-0.71215 0.9028157,0.81704 1.3730461,1.98941 1.3730461,3.42326 0,2.23341 -1.2146185,3.86206 -3.3540774,4.49741 -1.4622839,0.43426 -1.4682517,0.43446 -2.9006074,0.0979 z M 79.878938,247.28155 c -0.897687,-3.90633 -1.00816,-4.83113 -0.460125,-3.85185 0.342968,0.61285 0.978999,0.58327 4.37532,-0.2035 3.632271,-0.84143 4.056352,-1.02679 4.0664,-1.7774 0.01541,-1.15116 0.43929,0.11391 1.294471,3.86336 0.460458,2.01882 0.797775,3.71001 0.749594,3.75819 -0.04818,0.0482 -0.618913,0.16954 -1.268293,0.26969 l -1.180692,0.18208 0.762161,-0.71853 c 0.700926,-0.66079 0.749416,-0.82614 0.603529,-2.05793 -0.08725,-0.73667 -0.210286,-1.39106 -0.273419,-1.45419 -0.188613,-0.18861 -3.341521,0.50213 -3.505884,0.76808 -0.275504,0.44577 0.752914,1.27033 1.594724,1.2786 1.154969,0.0113 0.423177,0.3821 -1.55557,0.78811 -0.869389,0.17838 -1.732592,0.38262 -1.918229,0.45385 -0.185636,0.0712 -0.33752,-0.002 -0.33752,-0.16337 0,-0.16109 0.16014,-0.29289 0.355868,-0.29289 0.492388,0 1.231632,-0.86782 1.231632,-1.44586 0,-0.41152 -0.159248,-0.45632 -1.142873,-0.3215 -1.95882,0.26849 -2.561416,0.60507 -2.560305,1.43008 0.0016,1.20575 0.883647,2.34931 2.160128,2.80066 l 1.146175,0.40526 -1.058334,0.0245 c -0.582083,0.0135 -1.303391,0.0903 -1.602908,0.17077 -0.505458,0.13577 -0.611468,-0.14481 -1.47585,-3.90621 z m -83.3076923,3.28578 c 0,-0.75674 -0.3878416,-0.93039 -3.9075624,-1.74956 -3.4239943,-0.7969 -4.2505033,-0.8519 -4.4634233,-0.29704 -0.08376,0.21828 -0.247316,0.39687 -0.363454,0.39687 -0.116137,0 -0.05366,-0.62508 0.138835,-1.38906 0.192497,-0.76398 0.615458,-2.56233 0.939914,-3.99633 l 0.58992,-2.60727 1.0854899,0.17342 c 1.3672728,0.21843 1.8967644,0.67549 0.7825384,0.67549 -0.4431127,0 -0.9908729,0.20836 -1.2172449,0.46302 -0.4441784,0.49969 -1.0472354,2.41073 -0.8575774,2.71761 0.151523,0.24517 3.3135858,0.86655 3.4936044,0.68653 0.3267474,-0.32675 -0.2342641,-1.42123 -0.8790949,-1.71504 -1.1892802,-0.54187 -0.5300264,-0.60718 1.5158539,-0.15018 2.1505655,0.4804 2.9274135,0.90848 1.6486252,0.90848 -0.766678,0 -1.9464031,0.88155 -1.6185166,1.20943 0.3512452,0.35125 3.4792926,0.91045 3.723999,0.66575 0.1410906,-0.14109 0.3141932,-0.85666 0.3846724,-1.59015 0.1190593,-1.23908 0.066944,-1.39079 -0.7351141,-2.14003 -0.4747921,-0.44352 -0.8142725,-0.85539 -0.754401,-0.91526 0.099128,-0.0991 2.3225155,0.80748 2.558143,1.0431 0.055153,0.0552 -0.2885614,1.80578 -0.7638109,3.89028 -0.8232755,3.61099 -1.3013957,4.97766 -1.3013957,3.71994 z M 77.72826,240.31864 c -1.04274,-2.49273 -1.200443,-3.09613 -0.670771,-2.56645 0.526474,0.52647 1.286414,0.37321 4.456485,-0.89877 3.410286,-1.36836 3.627267,-1.50212 3.745021,-2.30868 0.05571,-0.38157 0.422509,0.2611 1.0863,1.90331 0.98623,2.43993 1.114134,3.0847 0.454166,2.28949 -0.483433,-0.5825 -0.734147,-0.5327 -4.171151,0.82852 -3.622873,1.43485 -3.7143,1.49287 -3.822095,2.42559 -0.06502,0.56264 -0.286637,0.21869 -1.077955,-1.67301 z m -78.8798454,0.99219 c 0.17575791,-0.7334 -0.1100349,-0.96143 -3.3573783,-2.67878 -3.1197704,-1.64988 -3.8587194,-1.8676 -4.4231234,-1.3032 -0.5454984,0.5455 -0.3361195,-0.12345 0.5498348,-1.75669 l 0.8524567,-1.57149 2.7781248,-0.60789 c 1.5279686,-0.33434 3.0757809,-0.68033 3.439583,-0.76887 0.58808041,-0.14312 0.44132468,-0.27413 -1.3229166,-1.18097 -2.3168789,-1.19089 -2.2202643,-1.16936 -2.7718251,-0.6178 -0.7437777,0.74378 -0.7296319,0.20395 0.033069,-1.26196 0.6528735,-1.25482 0.7476631,-1.34034 0.835662,-0.75391 0.1544236,1.02908 0.5685663,1.33651 4.26613462,3.16687 1.90178578,0.94142 3.45596918,1.77485 3.45374088,1.85208 -0.01654,0.57324 -0.9591059,0.91865 -4.7741495,1.74954 -2.3924578,0.52106 -4.528517,1.00783 -4.7467982,1.08171 -0.3815185,0.12913 4.7993604,2.95493 5.47120488,2.98415 0.17150668,0.007 0.49892853,-0.17353 0.7276041,-0.40221 0.58116405,-0.58116 0.51795609,-0.0733 -0.16611522,1.33474 -0.58166045,1.19723 -1.05445766,1.60825 -0.84510846,0.73468 z m 75.5919164,-7.58461 c -1.920247,-2.95949 -2.636646,-4.32541 -1.9197,-3.66018 0.636732,0.5908 1.239353,0.36144 4.340508,-1.65201 2.861404,-1.85779 3.053849,-2.03688 3.053849,-2.84191 0,-0.80987 0.08353,-0.73443 1.455209,1.31437 1.354615,2.02331 1.935853,3.30301 1.137708,2.50486 -0.174625,-0.17462 -0.518366,-0.3175 -0.76387,-0.3175 -0.603642,0 -6.591546,3.94863 -6.591546,4.34669 0,0.51256 1.017155,1.45373 1.777274,1.64451 0.387363,0.0972 1.157973,0.0557 1.712469,-0.0923 1.493718,-0.3987 1.225278,-0.0329 -0.645473,0.87953 l -1.653645,0.80655 z M 4.9208398,230.03345 c 0.1694309,-0.67507 -0.1111674,-0.9825 -3.98396947,-4.36505 l -1.85208317,-1.61763 -0.48480106,0.58338 c -0.4798348,0.57739 -0.4909972,1.3606 -0.034747,2.43799 0.1706375,0.40295 0.00973,0.34666 -0.7563223,-0.26458 -0.5351899,-0.42703 -0.973076,-0.86024 -0.9730803,-0.9627 -4.3e-6,-0.10246 1.259193,-1.61966 2.79821611,-3.37157 L 2.4322765,219.288 3.338219,219.979 c 0.9733322,0.74239 1.241183,1.35539 0.3941699,0.90208 -0.8095877,-0.43328 -1.4660743,-0.32348 -2.0999332,0.35124 l -0.5872804,0.62513 2.9621545,2.57499 c 2.6398977,2.29486 3.0465323,2.55812 3.7377464,2.41987 l 0.7755917,-0.15511 -0.7202294,0.85759 c -1.6222339,1.93165 -2.7065737,3.10656 -2.8670703,3.10656 -0.093567,0 -0.099205,-0.28255 -0.012528,-0.6279 z m 65.1313242,-2.22301 c -0.978363,-0.98592 -1.778841,-1.87591 -1.778841,-1.97776 0,-0.10185 0.358458,-0.11349 0.796574,-0.0259 0.73057,0.14612 1.017137,-0.0572 3.458437,-2.45401 2.449947,-2.40527 2.649304,-2.67651 2.504115,-3.40701 -0.144132,-0.72518 0.01409,-0.62299 1.83323,1.184 1.095037,1.08773 1.990976,2.0199 1.990976,2.07148 0,0.0516 -0.359064,0.0149 -0.797919,-0.0815 -0.732636,-0.16091 -1.008643,0.0238 -3.373438,2.25739 -2.967094,2.8025 -3.161817,3.06799 -2.742579,3.7393 0.60607,0.97047 -0.149318,0.44862 -1.890555,-1.30606 z m -4.292383,-4.3136 c -2.028718,-1.4495 -2.341516,-1.82621 -1.360683,-1.63871 0.534484,0.10217 0.821737,-0.11856 1.680697,-1.29146 1.898613,-2.59254 2.808201,-4.01214 2.432771,-3.79683 -0.204344,0.11719 -1.689869,1.02853 -3.301165,2.02521 -2.763987,1.70968 -3.568698,2.07644 -3.54062,1.6137 0.0066,-0.10914 0.403737,-1.95461 0.882478,-4.10104 0.47874,-2.14644 0.839235,-3.90261 0.8011,-3.90261 -0.03814,0 -0.911501,1.1947 -1.940811,2.65489 -1.880851,2.6682 -2.140296,3.32046 -1.553974,3.90678 0.57874,0.57874 -0.07289,0.32918 -1.243542,-0.47625 -0.634522,-0.43656 -1.369943,-0.79375 -1.634269,-0.79375 -0.264326,0 -1.433499,-0.32581 -2.598162,-0.72403 -1.668086,-0.57034 -1.963125,-0.74255 -1.389964,-0.81132 0.680654,-0.0817 0.727604,-0.16931 0.727604,-1.35826 v -1.27095 l -1.200448,-0.33611 c -1.092636,-0.30592 -1.235611,-0.29118 -1.591968,0.16405 -0.83694,1.06917 -0.925054,1.3751 -0.514351,1.7858 0.636575,0.63658 0.47665,0.67576 -0.926566,0.22703 -1.313707,-0.4201 -1.748487,-0.85121 -0.858466,-0.85121 0.276065,0 1.64436,-1.44684 3.373437,-3.56709 3.504295,-4.29707 3.865508,-4.43541 4.157589,-1.59229 0.104648,1.01865 0.283242,3.2169 0.396875,4.88501 l 0.206606,3.03293 0.85609,0.17402 c 0.502345,0.10212 1.006391,0.0515 1.219828,-0.12251 0.439218,-0.35807 4.084693,-5.52842 4.307711,-6.10959 0.08682,-0.22626 0.0085,-0.59134 -0.174024,-0.81129 -0.66799,-0.80488 -0.08148,-0.58183 1.551874,0.59018 1.355983,0.97298 1.646721,1.30768 1.533437,1.76531 -0.642883,2.59703 -1.134932,5.1949 -0.983939,5.1949 0.101048,0 1.241192,-0.66394 2.533653,-1.47542 2.633181,-1.65327 2.502429,-1.65384 4.765785,0.0209 1.042437,0.77136 1.176526,0.94608 0.632447,0.82409 -0.831711,-0.18647 -0.964254,-0.0531 -3.429259,3.45136 -1.864694,2.65098 -2.078361,3.17823 -1.515896,3.7407 0.246945,0.24694 0.232245,0.31523 -0.06615,0.30731 -0.211005,-0.006 -1.217083,-0.60568 -2.235729,-1.33349 z m -12.045699,-11.95163 -0.0072,-1.38907 -0.970546,1.04468 -0.970545,1.04468 0.779267,0.33245 c 1.154571,0.49256 1.176743,0.47298 1.168983,-1.03274 z m -42.987629,11.45394 c -0.694286,-0.28907 -1.6044741,-1.3146 -3.1796574,-3.58259 -1.5070988,-2.16996 -1.6563534,-2.29915 -2.4427381,-2.11426 -0.3274219,0.077 -0.5953125,0.0864 -0.5953125,0.0209 0,-0.24722 4.2706443,-3.11686 4.4185056,-2.969 0.085149,0.0851 7.41e-4,0.34047 -0.1875745,0.56738 -0.2911496,0.35081 -0.069108,0.81184 1.4836509,3.08053 2.237426,3.26903 2.75582,3.72685 3.805559,3.36091 1.023055,-0.35664 1.671235,-1.38185 1.465598,-2.31811 -0.149639,-0.6813 -2.449848,-4.21709 -3.494064,-5.37094 -0.305762,-0.33786 -0.657965,-0.45463 -1.063954,-0.35273 -0.903728,0.22682 -0.719127,-0.16311 0.465018,-0.98224 1.09072,-0.75451 1.971962,-1.01981 1.36226,-0.41011 -0.537019,0.53702 -0.376493,0.94337 1.401252,3.54708 2.342271,3.43052 2.471972,4.19797 1.00425,5.94226 -1.183759,1.40682 -3.166476,2.11237 -4.442793,1.58096 z m 8.281457,-4.56155 c 0.520907,-0.52091 0.374282,-1.33885 -0.7807,-4.35513 -1.196865,-3.12566 -1.575,-3.72278 -2.435159,-3.8454 -0.349421,-0.0498 0.602173,-0.53693 2.475026,-1.26695 3.62865,-1.41442 5.299163,-1.57045 6.108793,-0.5706 0.619986,0.76565 0.654074,2.21039 0.07307,3.09711 -0.237993,0.36322 -0.386821,0.69491 -0.330729,0.73707 0.05609,0.0422 0.797509,0.63377 1.647594,1.31466 0.850084,0.6809 1.772818,1.23799 2.05052,1.23799 0.97175,0 0.491357,0.46972 -1.082263,1.05821 l -1.587175,0.59357 -1.225498,-1.02433 c -3.086752,-2.58004 -3.08632,-2.57994 -2.305982,-0.56666 0.604082,1.55854 1.11507,2.10046 1.789286,1.89759 1.354487,-0.40756 -0.142296,0.45211 -2.088878,1.19974 -2.282015,0.87646 -2.802431,0.98765 -2.30791,0.49313 z m 2.821393,-6.28642 c 0.883974,-0.97678 -0.122581,-3.18566 -1.451659,-3.18566 -0.433208,0 -0.788855,0.0893 -0.790328,0.19844 -0.0081,0.60143 1.206222,3.50573 1.465808,3.50573 0.168816,0 0.518097,-0.23333 0.776179,-0.51851 z M 30.16146,214.32 c 0.512358,-0.41489 0.555218,-0.62245 0.388321,-1.88057 -0.163808,-1.23485 -0.417893,-1.69365 -2.003286,-3.61733 -0.998626,-1.2117 -2.062122,-2.28132 -2.363324,-2.37692 -0.781981,-0.24819 -0.593742,-0.33191 1.758319,-0.78198 2.073172,-0.39671 3.239771,-0.49988 2.562565,-0.22662 -0.181901,0.0734 -0.330729,0.31108 -0.330729,0.52817 0,0.52527 2.185744,3.30823 2.404471,3.06144 0.2567,-0.28962 1.035112,-2.73511 1.035112,-3.25195 0,-0.24814 -0.26789,-0.5375 -0.595312,-0.64301 -0.565832,-0.18234 -0.556005,-0.20197 0.198437,-0.39643 0.436563,-0.11252 1.057625,-0.21868 1.380139,-0.23589 0.586264,-0.0313 0.586285,-0.0311 0.09587,0.82859 -0.269789,0.47294 -0.750542,1.65999 -1.068341,2.63789 -0.536734,1.65159 -0.552956,1.9051 -0.228157,3.56567 0.278319,1.42293 0.477103,1.85088 0.974286,2.09747 0.566674,0.28106 0.578948,0.32323 0.132291,0.45448 -0.852394,0.25048 -3.604571,0.70334 -4.274405,0.70334 H 29.58554 Z m 12.231539,-0.069 c -1.347884,-0.19627 -2.169954,-0.52295 -1.31596,-0.52295 0.758964,0 0.986207,-0.68661 1.441216,-4.35461 l 0.453639,-3.65695 -0.607763,-0.49214 c -0.779822,-0.63146 -0.709496,-0.63237 4.038685,-0.0525 l 3.661784,0.44721 -0.156055,0.78027 c -0.08583,0.42915 -0.156054,1.00351 -0.156054,1.27636 0,0.27286 -0.119062,0.4961 -0.264583,0.4961 -0.145521,0 -0.264584,-0.2792 -0.264584,-0.62045 0,-0.89158 -0.854275,-1.53822 -2.238221,-1.69421 l -1.201362,-0.13541 -0.0029,0.8943 c -0.0016,0.49187 -0.07671,1.34079 -0.16691,1.8865 -0.146681,0.88741 -0.104465,0.99218 0.399787,0.99218 0.577254,0 1.45429,-0.70573 1.685115,-1.35598 0.07103,-0.2001 0.188677,-0.30428 0.261443,-0.23152 0.219553,0.21954 -0.368312,4.23334 -0.620019,4.23334 -0.128473,0 -0.233587,-0.29491 -0.233587,-0.65536 0,-0.72148 -1.192464,-1.71118 -1.568984,-1.3022 -0.120392,0.13077 -0.297643,0.97181 -0.39389,1.86898 -0.160584,1.4969 -0.125699,1.66575 0.423645,2.05053 0.582973,0.40833 0.567672,0.41843 -0.584712,0.38629 -0.650843,-0.0182 -1.816216,-0.12516 -2.589718,-0.23779 z"
         id="path4" /></g></g></svg>
