<?xml version="1.0" encoding="UTF-8" standalone="no"?>
<!-- Created with Inkscape (http://www.inkscape.org/) -->

<svg
   width="71.020714mm"
   height="94.141022mm"
   viewBox="0 0 71.020714 94.141022"
   version="1.1"
   id="svg1"
   xml:space="preserve"
   inkscape:version="1.3.2 (091e20e, 2023-11-25)"
   sodipodi:docname="sip-logo.svg"
   xmlns:inkscape="http://www.inkscape.org/namespaces/inkscape"
   xmlns:sodipodi="http://sodipodi.sourceforge.net/DTD/sodipodi-0.dtd"
   xmlns="http://www.w3.org/2000/svg"
   xmlns:svg="http://www.w3.org/2000/svg"><sodipodi:namedview
     id="namedview1"
     pagecolor="#505050"
     bordercolor="#ffffff"
     borderopacity="1"
     inkscape:showpageshadow="0"
     inkscape:pageopacity="0"
     inkscape:pagecheckerboard="1"
     inkscape:deskcolor="#d1d1d1"
     inkscape:document-units="mm"
     inkscape:zoom="1.8525748"
     inkscape:cx="137.10648"
     inkscape:cy="190.27572"
     inkscape:window-width="1472"
     inkscape:window-height="920"
     inkscape:window-x="0"
     inkscape:window-y="36"
     inkscape:window-maximized="0"
     inkscape:current-layer="g6" /><defs
     id="defs1" /><g
     inkscape:label="Layer 1"
     inkscape:groupmode="layer"
     id="layer1"
     transform="translate(-49.618179,-83.89152)"><g
       id="g6"><path
         id="path8-0"
         style="display:inline;fill:#f8f8f8;fill-opacity:1"
         d="m 50.241377,83.89152 -0.303341,0.463021 c -0.26047,0.397533 -0.305086,1.536216 -0.316776,8.056873 -0.02505,13.973516 0.106649,36.721446 0.249597,47.932996 0.04765,3.73718 0.09633,6.19229 0.141076,6.61354 4e-6,4e-5 -3e-6,4.9e-4 0,5.2e-4 0.0035,0.0325 0.01137,0.0651 0.01499,0.0977 0.04774,0.42047 0.119743,0.89533 0.214974,1.40457 0.06428,0.3545 0.144344,0.70867 0.227376,1.06298 0.28898,1.29884 0.643379,2.57575 0.93431,3.21427 0.07867,0.17267 0.141136,0.2646 0.200504,0.31058 0.185179,0.44959 0.368721,0.89952 0.583944,1.34669 0.02016,0.0419 0.03364,0.065 0.05323,0.10542 0.367854,0.85275 0.898608,1.80872 1.239717,2.10323 0.08456,0.10806 0.179963,0.22072 0.276469,0.33228 0.01505,0.0894 0.438107,0.57703 1.034046,1.17925 1.006021,1.01665 1.333629,1.27751 1.061434,0.93328 0.829324,0.75571 1.661182,1.41781 2.516642,2.0128 0.164105,0.11561 0.30884,0.21892 0.498161,0.34313 0.120895,0.0792 0.244685,0.15386 0.366902,0.23048 0.607145,0.38312 1.253556,0.76563 1.801957,1.03249 0.228775,0.11133 0.443524,0.1987 0.663009,0.29869 0.237245,0.10995 0.475374,0.22035 0.72037,0.32453 0.06663,0.0276 0.140917,0.0572 0.208256,0.0842 0.268094,0.11131 0.533877,0.22382 0.812353,0.32918 0.08913,0.0337 0.415872,0.12238 0.56379,0.17002 0.299925,0.0987 0.682491,0.20685 1.027844,0.30902 0.264824,0.076 0.389208,0.11977 0.697115,0.20464 0.902796,0.25226 1.925678,0.52268 3.277836,0.85834 2.068807,0.51357 3.746093,0.96003 4.609021,1.20665 0.696983,0.20539 1.2878,0.40003 1.778703,0.60151 0.544436,0.23298 1.135008,0.51583 1.722376,0.81391 3.497187,1.79492 5.793862,4.08134 6.808886,6.75204 0.05552,0.15416 0.141031,0.35455 0.186552,0.49506 0.111765,0.35503 0.201846,0.71648 0.269235,1.08417 0.01181,0.0616 0.03479,0.13112 0.04496,0.19224 0.02584,0.1417 0.05671,0.26186 0.0863,0.39532 0.08292,0.45504 0.201526,0.88607 0.296106,1.00097 0.110522,0.13428 0.349041,0.24443 0.5302,0.24443 0.633187,0 0.937386,-0.48801 1.151867,-1.84691 0.295786,-1.874 1.19687,-3.59403 2.738851,-5.22862 2.717743,-2.88095 5.810692,-4.40561 11.552271,-5.69423 1.16844,-0.26224 2.20027,-0.51407 3.13883,-0.77101 0.79265,-0.21694 1.49201,-0.44258 2.17712,-0.67593 0.12339,-0.042 0.27134,-0.0791 0.39223,-0.12196 0.28505,-0.10118 0.54335,-0.22408 0.81752,-0.33124 0.49167,-0.19204 0.99082,-0.3765 1.46451,-0.59376 3.4e-4,-1.6e-4 6.9e-4,-3.6e-4 0.001,-5.2e-4 0.1233,-0.0566 0.25098,-0.13151 0.37414,-0.19017 0.60542,-0.2884 1.20654,-0.58486 1.83503,-0.93328 0.002,-9.1e-4 0.003,-0.002 0.005,-0.003 0.008,-0.005 0.0163,-0.008 0.0248,-0.0124 0.0364,-0.0202 0.0808,-0.0539 0.11782,-0.0749 1.14887,-0.64919 2.19681,-1.38674 3.14709,-2.19935 0.84749,-0.69286 1.49986,-1.32075 1.70016,-1.67121 0.17258,-0.19251 0.35585,-0.37777 0.51883,-0.57671 0.0286,-0.0228 0.0392,-0.0232 0.0729,-0.0527 0.27922,-0.24491 0.41462,-0.47791 0.40049,-0.5824 0.0773,-0.1038 0.15415,-0.20778 0.22893,-0.31316 0.006,-0.008 0.011,-0.0131 0.016,-0.0222 0.25256,-0.35714 0.48919,-0.72339 0.71262,-1.09812 0.1191,-0.12105 0.30534,-0.47001 0.50074,-0.85938 0.0142,-0.0274 0.0278,-0.0552 0.0419,-0.0827 0.14295,-0.29063 0.27962,-0.59488 0.4315,-0.95705 0.31713,-0.72961 0.60296,-1.47549 0.81804,-2.25568 0.19421,-0.7045 0.34148,-1.29906 0.46767,-1.96112 0.12629,-0.65996 0.23147,-1.38941 0.30024,-2.5001 0.019,-0.30699 0.0283,-0.77739 0.0434,-1.14257 0.0545,-1.31482 0.0898,-2.97026 0.10077,-5.34903 6.4e-4,-0.14069 0.004,-0.21797 0.004,-0.36328 v -0.004 c 0.006,-1.64312 0.003,-3.585 -0.006,-5.89731 v -0.002 c -0.15834,-38.357269 -0.49336,-48.485665 -0.51832,-48.71692 -0.0294,-0.272628 -0.0619,-0.429884 -0.0997,-0.529684 -0.0378,-0.0998 -0.0806,-0.141712 -0.12919,-0.183968 -0.37092,-0.322757 -2.32124,-0.342098 -35.016472,-0.342098 z"
         sodipodi:nodetypes="ccsssccccscscccsccccscccscccsccccccccssssscsccscccccccccccccccccscscsssssssccc"
         inkscape:label="Background" /><path
         id="path8"
         style="display:inline;fill:#fcc609"
         d="m 50.241378,83.89152 -0.303341,0.463021 c -0.26047,0.397533 -0.305086,1.536216 -0.316776,8.056873 -0.02505,13.973516 0.106649,36.721446 0.249597,47.932996 0.04765,3.73718 0.09633,6.19229 0.141076,6.61354 4e-6,4e-5 -3e-6,4.9e-4 0,5.2e-4 0.0035,0.0325 0.01137,0.0651 0.01499,0.0977 0.04774,0.42047 0.119743,0.89533 0.214974,1.40457 0.06428,0.3545 0.144344,0.70867 0.227376,1.06298 0.28898,1.29884 0.643379,2.57575 0.93431,3.21427 0.07867,0.17267 0.141136,0.2646 0.200504,0.31058 0.185179,0.44959 0.368721,0.89952 0.583944,1.34669 0.02016,0.0419 0.03364,0.065 0.05323,0.10542 0.367854,0.85275 0.898608,1.80872 1.239717,2.10323 0.08456,0.10806 0.179963,0.22072 0.276469,0.33228 0.01505,0.0894 0.438107,0.57703 1.034046,1.17925 1.006021,1.01665 1.333629,1.27751 1.061434,0.93328 0.829324,0.75571 1.661182,1.41781 2.516642,2.0128 0.164105,0.11561 0.30884,0.21892 0.498161,0.34313 0.120895,0.0792 0.244685,0.15386 0.366902,0.23048 0.607145,0.38312 1.253556,0.76563 1.801957,1.03249 0.228775,0.11133 0.443524,0.1987 0.663009,0.29869 0.237245,0.10995 0.475374,0.22035 0.72037,0.32453 0.06663,0.0276 0.140917,0.0572 0.208256,0.0842 0.268094,0.11131 0.533877,0.22382 0.812353,0.32918 0.08913,0.0337 0.415872,0.12238 0.56379,0.17002 0.299925,0.0987 0.682491,0.20685 1.027844,0.30902 0.264824,0.076 0.389208,0.11977 0.697115,0.20464 0.902796,0.25226 1.925678,0.52268 3.277836,0.85834 2.068807,0.51357 3.746093,0.96003 4.609021,1.20665 0.696983,0.20539 1.2878,0.40003 1.778703,0.60151 0.544436,0.23298 1.135008,0.51583 1.722376,0.81391 3.497187,1.79492 5.793862,4.08134 6.808886,6.75204 0.05552,0.15416 0.141031,0.35455 0.186552,0.49506 0.111765,0.35503 0.201846,0.71648 0.269235,1.08417 0.01181,0.0616 0.03479,0.13112 0.04496,0.19224 0.02584,0.1417 0.05671,0.26186 0.0863,0.39532 0.08292,0.45504 0.201526,0.88607 0.296106,1.00097 0.110522,0.13428 0.349041,0.24443 0.5302,0.24443 0.633187,0 0.937386,-0.48801 1.151867,-1.84691 0.295786,-1.874 1.19687,-3.59403 2.738851,-5.22862 2.717743,-2.88095 5.810692,-4.40561 11.55227,-5.69423 1.16844,-0.26224 2.20027,-0.51407 3.13883,-0.77101 0.79265,-0.21694 1.49201,-0.44258 2.17712,-0.67593 0.12339,-0.042 0.27134,-0.0791 0.39223,-0.12196 0.28505,-0.10118 0.54335,-0.22408 0.81752,-0.33124 0.49167,-0.19204 0.99082,-0.3765 1.46451,-0.59376 3.4e-4,-1.6e-4 6.9e-4,-3.6e-4 0.001,-5.2e-4 0.1233,-0.0566 0.25098,-0.13151 0.37414,-0.19017 0.60542,-0.2884 1.20654,-0.58486 1.83503,-0.93328 0.002,-9.1e-4 0.003,-0.002 0.005,-0.003 0.008,-0.005 0.0163,-0.008 0.0248,-0.0124 0.0364,-0.0202 0.0808,-0.0539 0.11782,-0.0749 1.14887,-0.64919 2.19681,-1.38674 3.14709,-2.19935 0.84749,-0.69286 1.49986,-1.32075 1.70016,-1.67121 0.17258,-0.19251 0.35585,-0.37777 0.51883,-0.57671 0.0286,-0.0228 0.0392,-0.0232 0.0729,-0.0527 0.27922,-0.24491 0.41462,-0.47791 0.40049,-0.5824 0.0773,-0.1038 0.15415,-0.20778 0.22893,-0.31316 0.006,-0.008 0.011,-0.0131 0.016,-0.0222 0.25256,-0.35714 0.48919,-0.72339 0.71262,-1.09812 0.1191,-0.12105 0.30534,-0.47001 0.50074,-0.85938 0.0142,-0.0274 0.0278,-0.0552 0.0419,-0.0827 0.14295,-0.29063 0.27962,-0.59488 0.4315,-0.95705 0.31713,-0.72961 0.60296,-1.47549 0.81804,-2.25568 0.19421,-0.7045 0.34148,-1.29906 0.46767,-1.96112 0.12629,-0.65996 0.23147,-1.38941 0.30024,-2.5001 0.019,-0.30699 0.0283,-0.77739 0.0434,-1.14257 0.0545,-1.31482 0.0898,-2.97026 0.10077,-5.34903 6.4e-4,-0.14069 0.004,-0.21797 0.004,-0.36328 v -0.004 c 0.006,-1.64312 0.003,-3.585 -0.006,-5.89731 v -0.002 c -0.0191,-4.62677 -0.0656,-10.7378 -0.12712,-18.91305 -0.16853,-22.386978 -0.21479,-28.169148 -0.3912,-29.80387 -0.0294,-0.272628 -0.0619,-0.429884 -0.0997,-0.529684 -0.0378,-0.0998 -0.0806,-0.141712 -0.12919,-0.183968 -0.37092,-0.322757 -2.32124,-0.342098 -35.016471,-0.342098 z m 34.936885,2.393136 33.475477,0.04909 v 5.467884 5.468917 l -33.642908,0.04961 c -18.173309,0.02667 -32.92956,-0.01593 -33.46049,-0.09405 -0.0096,-0.0014 -0.189578,-0.0027 -0.189653,-0.0041 -0.0042,-0.08026 -0.05177,-2.48323 -0.105936,-5.339726 -5e-6,-2.61e-4 5e-6,-2.56e-4 0,-5.17e-4 -0.06115,-3.224221 -0.05969,-4.555031 0.04031,-5.098397 0.03337,-0.180982 0.07777,-0.274466 0.134359,-0.321427 0.205724,-0.17076 8.55378,-0.21442 33.748844,-0.17725 z m 30.534567,1.491898 c -0.49055,-0.04965 -1.07206,0.103477 -1.43557,0.49041 -1.00364,1.068322 -0.64401,2.915866 0.7922,4.070036 0.41379,0.332526 0.75241,0.754732 0.75241,0.938444 0,0.511286 -0.54968,0.854828 -1.28778,0.805118 -0.61125,-0.04117 -0.66559,2.49e-4 -0.66559,0.50798 0,0.304145 0.1057,0.658643 0.23461,0.787548 0.0645,0.06445 0.19713,0.122885 0.35915,0.165365 0.16203,0.04248 0.35296,0.06873 0.53434,0.06873 1.25053,0 2.26263,-1.631317 1.90738,-3.074748 -0.0729,-0.296116 -0.62203,-0.996195 -1.2206,-1.555977 l -1.08831,-1.018026 0.3328,-0.507979 c 0.20955,-0.319817 0.49101,-0.49575 0.75964,-0.47439 0.1959,0.01558 0.35135,0.0231 0.47388,0.01809 0.36757,-0.01503 0.44131,-0.141691 0.44131,-0.494544 0,-0.423726 -0.39932,-0.676401 -0.88987,-0.726054 z m -22.854932,0.05633 c -0.314363,0.0095 -0.539315,0.179647 -1.037146,0.677478 -0.859551,0.85955 -1.192175,1.805445 -1.192175,3.38894 0,1.555751 0.302309,2.423341 1.083654,3.109371 0.799629,0.702082 1.195201,0.74111 2.215369,0.220658 0.87624,-0.447024 1.288623,-1.216538 1.470195,-2.745052 0.269936,-2.272378 -0.703519,-4.330026 -2.182296,-4.613155 -0.138156,-0.02645 -0.252813,-0.04139 -0.357601,-0.03824 z m 17.869712,0.077 c -1.49381,-0.02147 -1.54668,0.114643 -1.54668,3.994588 0,1.787734 0.0586,3.309062 0.13023,3.380672 0.16128,0.161285 0.33563,0.163767 0.73277,0.01137 0.23674,-0.09084 0.30902,-0.407567 0.30902,-1.355473 0,-0.680408 0.0801,-1.286805 0.17777,-1.347205 0.54113,-0.334439 1.18959,0.609737 1.18959,1.732194 0,0.714165 0.41471,1.196757 0.87643,1.019576 0.38371,-0.147254 0.37347,-0.826928 -0.0341,-2.292883 -0.30549,-1.09876 -0.30629,-1.246521 -0.0114,-2.042253 0.66501,-1.794276 -0.0886,-3.075645 -1.82366,-3.100585 z m -37.374981,0.09198 c -0.639138,0.01465 -0.695048,0.638695 -0.695048,3.905188 0,2.597595 0.06144,3.500312 0.243912,3.573942 0.351866,0.141981 0.468545,0.143577 0.814421,0.01085 0.255943,-0.09822 0.309025,-0.488867 0.309025,-2.278414 0,-1.18805 0.05747,-2.102607 0.128158,-2.031918 0.07069,0.07069 0.370186,0.878761 0.665075,1.795757 0.66646,2.072439 1.041477,2.677323 1.611271,2.596223 0.42211,-0.06009 0.427364,-0.104004 0.427364,-3.771862 v -3.710885 h -0.488342 c -0.485218,0 -0.488831,0.01375 -0.587561,2.148706 -0.05465,1.18164 -0.15014,2.016317 -0.21239,1.855184 -0.06225,-0.161133 -0.265921,-0.732065 -0.452686,-1.269173 -0.842666,-2.423378 -1.00386,-2.733529 -1.452107,-2.798279 -0.116647,-0.01685 -0.219787,-0.02742 -0.311092,-0.02532 z m 12.371337,0 c -0.497038,-0.0099 -0.951195,0.06391 -1.11311,0.225826 -0.252864,0.252863 -0.349895,6.811942 -0.104386,7.05745 0.07161,0.07162 0.33536,0.129708 0.58601,0.129708 0.361341,0 0.460691,-0.111053 0.479041,-0.536918 0.01273,-0.29541 0.0058,-0.658476 -0.01499,-0.807186 -0.103424,-0.741183 0.206062,-1.184775 0.970483,-1.390613 0.927429,-0.249731 1.318504,-0.777546 1.487248,-2.008663 0.07786,-0.568074 0.03238,-1.071166 -0.125057,-1.480013 -0.07865,-0.204384 -0.185104,-0.384799 -0.318327,-0.538468 -0.133223,-0.15367 -0.293016,-0.280542 -0.478007,-0.376205 -0.332116,-0.171742 -0.87187,-0.26503 -1.368909,-0.274918 z m -19.374011,0.02067 c -0.172957,-0.04532 -0.30384,0.04556 -0.523999,0.313676 -0.323854,0.394366 -0.358195,0.781702 -0.325045,3.672127 0.0299,2.607641 0.09285,3.266586 0.325562,3.413746 0.158599,0.100291 0.387372,0.183918 0.508496,0.185518 0.576433,0.0078 0.667423,-0.571974 0.614433,-3.908289 -0.04782,-3.011201 -0.0915,-3.39412 -0.407727,-3.587378 -0.07177,-0.04386 -0.134067,-0.07429 -0.19172,-0.0894 z m 30.54749,0.0026 c -0.255987,-0.03625 -0.5399,0.05166 -0.63097,0.195337 -0.194328,0.30659 -0.232838,7.068008 -0.04134,7.259505 0.200048,0.200048 0.547864,0.155452 0.807186,-0.10387 0.152435,-0.152434 0.234611,-0.949359 0.234611,-2.27893 0,-1.124348 0.06521,-1.979116 0.144694,-1.899626 0.07949,0.07948 0.496824,1.038968 0.927592,2.13217 0.659326,1.673235 0.857086,1.998131 1.249536,2.053621 0.256406,0.03625 0.540386,-0.05166 0.631486,-0.195337 0.0911,-0.143676 0.16646,-1.722668 0.16846,-3.508829 0.002,-2.638729 -0.0513,-3.292794 -0.28732,-3.488676 -0.159753,-0.132595 -0.433478,-0.185916 -0.608227,-0.118856 -0.270388,0.103759 -0.307007,0.405104 -0.246497,2.023649 0.04065,1.087495 -0.0077,1.928248 -0.113171,1.963188 -0.101406,0.03361 -0.369733,-0.493884 -0.596346,-1.172022 -0.67118,-2.008507 -1.117849,-2.787424 -1.639693,-2.861324 z m -27.355437,0.0047 c -0.0893,0.02638 -0.168299,0.08848 -0.242879,0.187585 -0.07458,0.0991 -0.145163,0.235454 -0.217041,0.410828 -0.0983,0.239846 -0.234081,0.752313 -0.380855,1.392163 -0.440321,1.91955 -0.975982,4.984139 -0.868681,5.263761 0.223598,0.582686 0.671817,0.346497 1.142049,-0.601513 0.568927,-1.146985 1.068183,-1.329192 1.530139,-0.549321 0.06599,0.11141 0.130755,0.242594 0.195337,0.393258 0.100795,0.235145 0.204932,0.432966 0.310059,0.591695 0.31538,0.476188 0.640269,0.600999 0.913122,0.328145 0.157804,-0.157802 0.100877,-0.70413 -0.211356,-2.027783 -0.235069,-0.996532 -0.567261,-2.494745 -0.73794,-3.328996 -0.223583,-1.092833 -0.425869,-1.597799 -0.723986,-1.806608 -0.309575,-0.216834 -0.529371,-0.305972 -0.707968,-0.253214 z m 37.522262,0.0026 c -0.74441,-0.03524 -1.34767,0.03281 -1.51361,0.170532 -0.21811,0.180993 -0.27595,0.931977 -0.27595,3.583761 0,2.00468 0.0797,3.434547 0.19792,3.552754 0.17989,0.179894 2.29196,0.158237 2.87838,-0.02945 0.28947,-0.09266 0.32709,-0.797167 0.0517,-0.967383 -0.10578,-0.06537 -0.56708,-0.182273 -1.02526,-0.259933 -0.72499,-0.122874 -0.84127,-0.21186 -0.89607,-0.685746 -0.081,-0.701205 0.26434,-1.106909 0.94206,-1.106909 0.65911,0 1.05179,-0.43065 0.8816,-0.966866 -0.12049,-0.379647 -0.39156,-0.482569 -1.09606,-0.415479 -0.45882,0.04369 -0.7994,-0.469475 -0.7276,-1.096057 0.0482,-0.419935 0.17783,-0.561751 0.55138,-0.60358 1.1784,-0.131959 1.39347,-0.242858 1.33067,-0.684713 -0.0551,-0.387112 -0.19141,-0.438486 -1.29914,-0.490926 z m -4.00441,5.16e-4 c -0.81677,-0.03555 -1.4429,0.03028 -1.61127,0.170016 -0.21639,0.179562 -0.27544,0.911129 -0.27544,3.411678 0,1.75052 0.0531,3.321858 0.11834,3.491777 0.0454,0.118281 0.14758,0.195213 0.35605,0.242879 0.20848,0.04766 0.52337,0.06615 0.99529,0.06615 0.38218,0 0.68916,-0.0075 0.93431,-0.02739 0.73544,-0.05953 0.91622,-0.231271 0.91622,-0.652157 0,-0.381997 -0.13014,-0.459782 -0.95704,-0.569474 -0.57446,-0.07621 -1.00177,-0.242699 -1.06867,-0.417029 -0.19992,-0.520972 0.22354,-1.246624 0.7984,-1.367875 1.55497,-0.327973 1.676,-1.409035 0.17105,-1.527555 -1.54614,-0.121764 -1.45618,-1.463985 0.11214,-1.673283 0.74278,-0.09913 0.84645,-0.173148 0.84645,-0.601514 0,-0.467573 -0.0565,-0.49053 -1.33583,-0.54622 z m -23.175847,0.01189 c -0.123056,-4.88e-4 -0.244747,0.06343 -0.437183,0.191203 -0.329062,0.21849 -0.492038,0.617848 -0.667143,1.634525 -0.12744,0.73994 -0.383457,2.192842 -0.568957,3.228744 -0.185504,1.035901 -0.283271,2.024688 -0.217041,2.197282 0.03311,0.0863 0.08155,0.164814 0.132808,0.221692 0.05126,0.05688 0.105207,0.09198 0.149862,0.09198 0.281379,0 0.630969,-0.454382 0.630969,-0.820105 0,-0.419794 0.667491,-1.132748 1.060401,-1.132748 0.429172,0 0.892968,0.561321 0.892968,1.081071 0,0.520663 0.583813,0.935612 1.059884,0.752926 0.376664,-0.144538 0.388587,-0.57552 0.04289,-1.565279 -0.145414,-0.416338 -0.472506,-1.800136 -0.72657,-3.075265 -0.380749,-1.91095 -0.54038,-2.370027 -0.908472,-2.61121 -0.197359,-0.12932 -0.321362,-0.194332 -0.444417,-0.19482 z m -18.088302,0.0078 c -0.395048,-0.01878 -0.585094,0.05954 -0.801501,0.275952 -0.320408,0.320407 -0.351451,0.680423 -0.306441,3.573425 0.02753,1.769242 0.09666,3.338035 0.153479,3.486092 0.155428,0.405041 2.220141,0.207958 2.886645,-0.275435 0.288968,-0.209579 0.713083,-0.760426 0.942578,-1.224215 0.354954,-0.717335 0.404469,-1.090066 0.330729,-2.494938 -0.122782,-2.339316 -0.6706,-2.998483 -2.733683,-3.290755 -0.185736,-0.02631 -0.340123,-0.04387 -0.471806,-0.05013 z m 27.468091,0.0021 c -0.106998,-0.02381 -0.213822,-0.02291 -0.295072,0.0083 -0.249076,0.09558 -0.29559,0.683824 -0.29559,3.746024 v 3.632337 l 0.536919,-0.06201 0.537434,-0.0615 0.05323,-3.439583 c 0.04448,-2.874192 0.0046,-3.479495 -0.241845,-3.684013 -0.08109,-0.06727 -0.188075,-0.115713 -0.295073,-0.139526 z m -30.197123,0.01809 c -0.468599,-0.01086 -0.667143,0.68819 -0.667143,2.278414 0,0.959123 -0.06696,1.743563 -0.148828,1.743563 -0.08187,0 -0.407689,-0.769 -0.724504,-1.70894 -0.316813,-0.939941 -0.656089,-1.818575 -0.753959,-1.952852 -0.155271,-0.213043 -0.810436,-0.293961 -1.128096,-0.205155 -0.05294,0.0148 -0.09626,0.03399 -0.126607,0.05839 -0.03034,0.0244 -0.04754,0.05402 -0.04754,0.08837 0,0.102186 -0.01799,1.663686 -0.03979,3.470072 -0.0218,1.806385 0.0277,3.392408 0.109554,3.52485 0.170119,0.275261 0.639239,0.321149 0.790133,0.077 0.05583,-0.09033 0.12705,-1.101425 0.15813,-2.246374 0.03108,-1.14495 0.114842,-2.081457 0.186552,-2.081527 0.07171,-7.1e-5 0.40832,0.83321 0.747758,1.852084 0.728163,2.185687 1.107562,2.74882 1.721859,2.553849 0.419128,-0.133012 0.427364,-0.204858 0.427364,-3.715019 0,-2.970061 -0.0489,-3.59769 -0.287321,-3.68918 -0.07818,-0.03 -0.150615,-0.04599 -0.217558,-0.04754 z m -5.842538,0.213424 -0.05374,3.392558 c -0.03687,2.336227 0.01631,3.475963 0.170532,3.661792 0.123168,0.148407 0.334396,0.269751 0.469222,0.269751 0.604977,0 0.692758,-0.540771 0.639238,-3.931543 l -0.05374,-3.392558 h -0.585494 z m 57.656429,0.735356 c 0.31413,-0.04954 0.5902,0.148553 0.79788,0.581876 0.18676,0.389739 0.19915,0.634708 0.046,0.920874 -0.26819,0.50112 -0.8364,0.803942 -1.14722,0.611849 -0.3563,-0.220233 -0.37354,-1.756733 -0.0222,-1.982308 0.11206,-0.07195 0.22085,-0.115778 0.32556,-0.132291 z m -48.643542,0.133325 c 0.149555,0.0079 0.341446,0.09025 0.587044,0.221692 0.715153,0.382737 1.044381,1.172621 1.044381,2.506307 0,1.035515 -0.07185,1.256971 -0.606165,1.865519 -0.567448,0.646291 -1.110254,0.861719 -1.4118,0.560172 -0.07162,-0.07161 -0.130224,-1.216824 -0.130224,-2.545064 0,-1.987129 0.0681,-2.632265 0.516764,-2.608626 z m 23.779944,0.04289 c 0.155323,-0.02784 0.34995,0.04944 0.591178,0.225826 0.417302,0.305138 0.475772,1.35424 0.100769,1.806092 -0.243301,0.293159 -1.079313,0.384195 -1.219047,0.132808 -0.04478,-0.08057 -0.02809,-0.584978 0.03721,-1.120862 0.08032,-0.659171 0.231022,-0.997471 0.489893,-1.043864 z m 6.891569,0.0083 c 0.346504,-0.0056 0.686641,0.316102 1.031461,0.968934 0.45506,0.861541 0.469419,0.984126 0.259933,2.2071 -0.121987,0.712149 -0.327522,1.422404 -0.45682,1.578198 -0.338271,0.407593 -1.043965,0.348559 -1.470711,-0.12299 -0.547328,-0.60474 -0.545132,-3.661077 0.0031,-4.268473 0.214898,-0.238089 0.425134,-0.359395 0.633037,-0.362769 z m -12.994039,1.172022 c 0.329548,-0.06347 0.524415,0.759174 0.395325,1.668115 -0.09046,0.636962 -0.773365,0.581248 -0.938444,-0.07648 -0.163512,-0.651483 0.130303,-1.512134 0.543119,-1.591635 z m -10.085173,0.364319 c 0.10808,0.03845 0.19172,0.311732 0.19172,0.798917 0,0.477248 -0.101316,0.847843 -0.24443,0.895553 -0.338044,0.112682 -0.452126,-0.319792 -0.286287,-1.084172 0.09813,-0.452275 0.230918,-0.64875 0.338997,-0.610298 z m -2.016414,8.8222 15.684314,0.04961 0.151412,7.129284 c 0.0735,3.46585 0.17849,5.97431 0.28112,6.97321 0.0097,0.0856 0.02363,0.48672 0.03204,0.49558 0.0067,0.007 0.03036,-0.002 0.03979,0.003 8.8e-4,0.002 0.0017,0.017 0.0026,0.0186 0.127259,0.22486 0.254466,1.28485 0.31936,2.2412 0.04833,0.87889 0.04177,1.59189 -0.02842,1.59474 -3.43e-4,2e-5 -1.71e-4,0.002 -5.17e-4,0.002 -0.03871,-1.6e-4 -0.145428,-0.0552 -0.286804,-0.14366 -0.141333,-0.0885 -0.316947,-0.21041 -0.492993,-0.34469 -0.186714,-0.14241 -0.360611,-0.25341 -0.516248,-0.33176 -1.77e-4,-9e-5 -3.39e-4,9e-5 -5.16e-4,0 -0.467164,-0.23509 -0.770537,-0.1784 -0.767912,0.18552 0.0014,0.18799 0.261294,0.85137 0.577226,1.47433 0.266449,0.52538 0.399341,0.88029 0.38809,1.07383 -0.01875,0.32259 -0.438397,0.19636 -1.308448,-0.33899 -0.46174,-0.28411 -0.83238,-0.46106 -1.107426,-0.53744 -2.05e-4,-6e-5 -3.11e-4,6e-5 -5.16e-4,0 -0.825252,-0.22896 -0.788153,0.44602 0.238228,1.83503 0.762321,1.03166 0.292478,1.30962 -1.086755,0.64337 -1.89e-4,-9e-5 -3.28e-4,9e-5 -5.17e-4,0 -1.464772,-0.7077 -1.698061,-0.40131 -0.736389,0.96687 0.379711,0.54022 0.690397,1.07124 0.690397,1.17977 0,0.29271 -0.651482,0.23904 -1.085722,-0.0894 -0.20852,-0.15772 -0.664771,-0.29 -1.013892,-0.293 -0.166776,-0.002 -0.287848,0.0213 -0.38809,0.0558 -0.04398,0.0151 -0.09392,0.0268 -0.125057,0.0491 -0.01877,0.0134 -0.02312,0.0351 -0.03721,0.0512 -0.02409,0.0275 -0.05316,0.0521 -0.06356,0.0873 -0.0086,0.029 2.91e-4,0.0679 10e-4,0.10232 6.54e-4,0.0322 -0.0072,0.0592 0.0016,0.0961 0.0024,0.0101 0.01094,0.0237 0.01395,0.0341 0.01984,0.0689 0.04718,0.14224 0.09353,0.22686 0.05313,0.097 0.124316,0.20484 0.21239,0.32297 0.174907,0.2346 0.417778,0.51095 0.731222,0.83199 0.0037,0.004 0.0061,0.007 0.0098,0.0103 0.0023,0.002 0.0034,0.004 0.0057,0.007 0.6107,0.62674 1.034639,1.21974 0.977201,1.36942 -0.0208,0.0542 -0.0484,0.0849 -0.07441,0.12144 -0.190089,0.098 -0.534999,0.0623 -0.922941,-0.13797 -0.0087,-0.004 -0.01337,-0.006 -0.02222,-0.0103 -0.307689,-0.16047 -0.971449,-0.29234 -1.475362,-0.293 -0.191448,-2.6e-4 -0.357315,0.009 -0.499194,0.0253 -0.261249,0.0224 -0.473735,0.0651 -0.5271,0.15141 -0.0051,0.008 -0.004,0.0245 -0.0083,0.0341 -0.08712,0.0866 -0.08455,0.20181 -0.01033,0.33951 0.0055,0.0216 0.0031,0.0457 0.01085,0.0656 0.02069,0.0533 0.126605,0.14256 0.221691,0.22686 0.008,0.008 0.01335,0.0145 0.0217,0.0222 0.151565,0.1299 0.341836,0.26875 0.569991,0.41289 0.115003,0.0791 0.176137,0.14247 0.315226,0.22841 l 1.016992,0.62891 -0.137459,5.1e-4 c -0.304002,-0.0399 -0.749664,-0.0475 -1.423169,-0.0222 -0.114994,0.004 -0.120987,0.0131 -0.221175,0.0176 -0.858177,-0.0103 -1.464464,-0.0852 -1.604554,-0.22531 -0.0041,-0.004 -0.02621,-0.007 -0.03256,-0.0114 -0.01979,-0.0367 -0.04239,-0.0688 -0.07183,-0.0873 -0.0089,-0.006 -0.439956,-0.007 -0.500745,-0.0119 -0.482391,-0.0377 -1.639377,-0.0543 -2.883028,-0.0672 -0.530231,-0.004 -1.393582,0.002 -2.016931,5.1e-4 -1.660063,-0.005 -3.002127,-0.0158 -5.867859,0.001 -6.412319,0.0376 -9.505452,0.0241 -10.744047,-0.062 -9.23e-4,-6e-5 -6.29e-4,7e-5 -0.0016,0 -0.411719,-0.0288 -0.618258,-0.0654 -0.673344,-0.1111 -0.247502,-0.20541 -0.286804,-2.14191 -0.286804,-14.07459 0,-13.50705 0.0089,-13.840946 0.379822,-14.039455 0.256533,-0.137296 5.475116,-0.187229 16.064652,-0.153479 z m 7.350456,3.042704 c -0.366667,0.007 -0.649989,0.2128 -1.03973,0.6196 l -0.526583,0.54932 -0.971,-0.50384 c -0.898747,-0.46628 -1.024654,-0.48473 -1.690336,-0.24236 -0.435037,0.15841 -1.452921,0.25294 -2.575037,0.23874 -1.745005,-0.022 -1.951196,0.0196 -3.464905,0.70022 -1.049196,0.47177 -1.610071,0.83357 -1.611271,1.03921 -9.89e-4,0.1735 -0.199617,0.56695 -0.441316,0.87437 -0.37696,0.47946 -0.441423,0.80358 -0.453203,2.27841 -0.01252,1.56738 -0.05385,1.74712 -0.465604,2.03553 -0.416734,0.29171 -0.521386,0.29147 -1.353406,-0.007 -2.041261,-0.73156 -2.986653,-0.24949 -3.248897,1.65726 -0.1535,1.11608 0.131652,1.5786 1.11466,1.80712 0.694039,0.16135 0.859354,-0.14978 0.28112,-0.52865 -0.34485,-0.22596 -0.493469,-0.55545 -0.594796,-1.31929 -0.190971,-1.43961 0.113708,-1.66276 0.934827,-0.68472 l 0.640271,0.76275 0.66921,-0.339 c 0.556088,-0.28161 1.098092,-0.32804 3.208073,-0.27544 2.483587,0.062 2.540491,0.0542 2.599841,-0.36276 0.078,-0.54787 -0.343385,-0.76026 -1.790072,-0.90228 -0.628984,-0.0617 -1.183999,-0.15253 -1.232999,-0.20153 -0.049,-0.049 -0.139759,-0.57858 -0.201538,-1.17719 -0.08499,-0.82348 -0.0341,-1.20755 0.207739,-1.57665 0.175798,-0.2683 0.31936,-0.61636 0.31936,-0.7736 0,-0.41532 0.549926,-0.89968 1.021126,-0.89968 0.389531,0 0.391888,0.0162 0.06563,0.37672 -0.384865,0.42527 -0.292352,0.95205 0.31936,1.82056 0.862958,1.22523 1.492276,0.1215 0.671793,-1.17822 -0.271167,-0.42956 -0.439647,-0.83419 -0.374137,-0.89969 0.189726,-0.18973 1.802809,-0.13807 2.192114,0.0703 0.383064,0.20501 0.98702,1.52858 0.98702,2.16266 0,0.21507 -0.361746,0.78313 -0.803568,1.26245 -1.106832,1.20077 -0.750383,2.02945 0.462504,1.07539 0.556559,-0.43779 0.79802,-0.29093 1.027844,0.62477 0.188625,0.75154 -0.269891,3.28129 -0.619084,3.41529 -0.155612,0.0597 -0.506472,-0.10076 -0.779797,-0.35605 l -0.497127,-0.46405 0.0677,0.48834 c 0.04534,0.32828 0.272674,0.57849 0.693498,0.76378 0.776161,0.34174 0.897029,0.63876 0.643371,1.58078 -0.325718,1.20958 -1.308804,1.20316 -1.732194,-0.0114 -0.115941,-0.33259 -0.295872,-0.55212 -0.399975,-0.48782 -0.116085,0.0717 -0.06607,0.44931 0.129191,0.97616 0.264087,0.71253 0.274643,0.91178 0.06253,1.16737 -0.387877,0.46736 -1.105775,0.37221 -1.561145,-0.2067 -0.474811,-0.60363 -0.498734,-0.88031 -0.13901,-1.59474 0.432734,-0.85943 0.558759,-1.60145 0.272335,-1.60145 -0.140425,0 -0.355303,0.44225 -0.489376,1.00666 -0.131526,0.5537 -0.275823,1.04319 -0.320393,1.08779 -0.200096,0.2001 -0.920818,-0.49076 -1.11001,-1.06402 -0.369931,-1.1209 -0.191963,-1.46453 1.088822,-2.10271 0.897837,-0.44737 1.073115,-0.59826 0.748792,-0.64596 -0.232822,-0.0343 -0.862806,0.16036 -1.399915,0.43253 -1.406898,0.71293 -2.412433,0.83065 -3.375504,0.39636 -0.675236,-0.30446 -0.81346,-0.31516 -0.965316,-0.0749 -0.09751,0.15427 -0.151483,0.36353 -0.119373,0.46509 0.09772,0.30908 1.15719,0.51699 2.022616,0.39687 0.940328,-0.13052 1.095341,0.0404 1.309481,1.44126 0.188246,1.2315 0.605801,1.91207 1.540474,2.51251 0.453547,0.29136 1.113202,0.77483 1.466061,1.07383 0.176429,0.1495 0.360672,0.28542 0.515214,0.38396 0.154541,0.0985 0.2794,0.15968 0.337447,0.15968 0.116093,0 0.532752,-0.35166 0.925525,-0.78135 0.458101,-0.50116 0.887379,-0.78355 1.197859,-0.78755 0.570032,-0.007 1.013702,-0.31277 1.337903,-0.92139 0.32334,-0.607 0.648,-0.55759 0.489376,0.0744 -0.152098,0.60599 0.257577,0.58023 0.592212,-0.0372 0.813882,-1.50172 1.477622,-2.36863 2.233455,-2.91714 0.609001,-0.44195 0.970669,-0.89465 1.190108,-1.48983 0.246232,-0.66785 0.452488,-0.89954 0.943095,-1.05936 0.474125,-0.15447 0.820543,-0.52453 1.414901,-1.50999 0.432961,-0.71786 0.843156,-1.59229 0.911056,-1.94355 0.0679,-0.35126 0.363914,-0.91686 0.658357,-1.25677 0.294444,-0.33991 0.642434,-0.95531 0.77308,-1.36736 0.130647,-0.41205 0.367347,-0.85207 0.526066,-0.97824 0.572886,-0.45538 0.223125,-0.90961 -0.731738,-0.94981 -0.58789,-0.0248 -1.330738,-0.27199 -2.194182,-0.73019 -0.723857,-0.38414 -1.173807,-0.57435 -1.540474,-0.56689 z m -3.381706,1.60507 c 0.440574,0.0347 0.826185,0.22788 1.137915,0.57775 0.449959,0.50504 0.658548,0.58601 1.509985,0.58601 0.543343,0 1.157435,0.0911 1.364775,0.20205 0.294505,0.15761 0.505894,0.1066 0.965316,-0.23306 0.776433,-0.57405 1.066997,-0.30328 0.877466,0.81856 -0.112683,0.66696 -0.246049,0.86508 -0.695048,1.03456 -0.515759,0.19468 -0.547661,0.26716 -0.445451,1.01286 0.103252,0.75331 0.04454,0.88096 -0.953947,2.06034 -0.585414,0.69145 -1.166574,1.44922 -1.291394,1.68413 -0.147233,0.27708 -0.449313,0.44864 -0.859896,0.48834 -0.545904,0.0528 -0.69625,0.19531 -1.094507,1.03767 -0.524646,1.10966 -0.750734,1.31016 -1.288293,1.14256 -0.266324,-0.083 -0.503377,0.0376 -0.796851,0.40566 -0.374184,0.46927 -0.445089,0.49198 -0.675411,0.21446 -0.203532,-0.24524 -0.210591,-0.46635 -0.03307,-1.05885 0.434465,-1.45012 0.08596,-4.70285 -0.804085,-7.50239 -0.365292,-1.14897 -0.383757,-1.35407 -0.136426,-1.5105 0.410385,-0.25954 0.978294,-0.22858 0.920874,0.0501 -0.02685,0.13035 0.148975,0.32669 0.390674,0.43666 0.450106,0.2048 0.594126,0.49816 0.244429,0.49816 -0.260046,0 -0.251057,0.52841 0.01189,0.69092 0.114191,0.0706 0.36326,-0.0118 0.552938,-0.18345 0.189677,-0.17166 0.442244,-0.31213 0.561723,-0.31213 0.398595,0 0.47804,-0.4109 0.149345,-0.77411 -0.178678,-0.19744 -0.649088,-0.42015 -1.044898,-0.49454 l -0.719336,-0.13488 0.683679,-0.36432 c 0.531914,-0.28337 1.027037,-0.40731 1.467611,-0.37259 z m -5.264795,1.58027 c -0.160495,0.0274 -0.303207,0.14212 -0.359151,0.35605 -0.07067,0.27026 0.03069,0.49736 0.308508,0.69195 0.49331,0.34553 0.781667,0.13089 0.690397,-0.51418 -0.05416,-0.3828 -0.372262,-0.57948 -0.639754,-0.53382 z m 7.502901,2.12235 c -0.253442,0 -0.622499,0.9465 -0.467155,1.19786 0.189215,0.30615 0.66766,-0.21927 0.66766,-0.73329 0,-0.2554 -0.09042,-0.46457 -0.200505,-0.46457 z m -9.772013,0.46715 c -0.272828,0.0279 -0.596176,0.31631 -0.463021,0.53176 0.148659,0.24059 0.61953,0.2167 0.77773,-0.0393 0.07218,-0.11678 0.03748,-0.30616 -0.07751,-0.42116 -0.06093,-0.0609 -0.146253,-0.0806 -0.237195,-0.0713 z m 10.688753,0.50953 c -0.330334,0 -0.80574,0.8698 -0.630452,1.15342 0.198607,0.32135 0.462235,0.25866 0.68833,-0.16381 0.280021,-0.52322 0.252698,-0.98961 -0.05788,-0.98961 z m -3.95428,0.4315 c -0.06322,0.0317 -0.142195,0.0972 -0.238745,0.19379 -0.254837,0.25484 -0.315908,0.98633 -0.100253,1.20199 0.278642,0.27864 0.50064,-0.0124 0.54312,-0.7121 0.03472,-0.57192 -0.01445,-0.77885 -0.204122,-0.68368 z m 1.870686,1.42421 c -0.373845,0 -0.495696,0.80941 -0.179317,1.19062 0.331135,0.39899 0.615772,0.0646 0.536402,-0.62994 -0.03884,-0.33988 -0.179558,-0.56068 -0.357085,-0.56068 z m -1.769401,1.85983 c -0.329845,-0.0592 -0.769462,0.48001 -0.769462,1.15445 0,0.22191 0.08124,0.40359 0.180868,0.40359 0.311116,0 0.974548,-0.98735 0.861446,-1.28209 -0.06519,-0.16987 -0.162903,-0.25621 -0.272852,-0.27595 z m -12.676228,1.60869 c -0.179773,-0.0698 -0.350444,0.0223 -0.594796,0.24339 -0.257835,0.23332 -0.447855,0.25087 -0.921391,0.0858 -0.48066,-0.16756 -0.743613,-0.1383 -1.350822,0.14934 -0.748876,0.35474 -0.75323,0.3637 -0.691431,1.38028 0.08314,1.36749 -0.396119,2.94194 -1.459859,4.79609 -0.482762,0.84148 -0.829919,1.65444 -0.771529,1.80661 v 5.1e-4 c 0.05839,0.15217 0.176643,0.27647 0.263033,0.27647 0.304227,0 2.301472,-1.407 2.704745,-1.90531 0.500935,-0.61899 0.915015,-0.50304 1.36219,0.38137 0.37463,0.74094 0.793101,1.22772 1.217497,1.42472 0.141465,0.0657 0.28394,0.0992 0.425297,0.0992 0.905469,0 1.036084,-0.37456 0.38809,-1.11259 -0.658433,-0.74991 -0.692405,-0.8937 -0.290421,-1.22732 0.230864,-0.1916 0.453634,-0.16165 1.122928,0.1509 0.501536,0.23421 1.478555,0.43945 2.446363,0.51315 1.502593,0.11445 1.611271,0.0973 1.611271,-0.25322 0,-0.35821 -1.122827,-1.19579 -1.603003,-1.19579 -0.352528,0 -2.107882,-1.9482 -2.107882,-2.33939 0,-0.50003 -0.201597,-0.98082 -0.411344,-0.98082 -0.09593,0 -0.174666,0.31229 -0.174666,0.69401 0,0.93269 0.799522,1.91365 2.099613,2.57607 0.563964,0.28735 1.02526,0.58993 1.02526,0.67283 0,0.5756 -2.492842,0.19497 -3.684529,-0.56276 -0.413797,-0.26314 -0.494364,-0.26166 -0.77308,0.0171 -0.269516,0.26951 -0.278804,0.43335 -0.0677,1.22266 0.285468,1.06734 0.05124,1.51234 -0.432531,0.82166 -0.173565,-0.2478 -0.315227,-0.55624 -0.315227,-0.68523 0,-0.29703 -0.949337,-1.43609 -1.196826,-1.43609 -0.102029,0 -0.643736,0.43917 -1.203544,0.97617 -0.559808,0.537 -1.078671,0.97657 -1.152901,0.97668 -0.389719,5.9e-4 -0.31201,-0.47781 0.197921,-1.21905 0.713617,-1.03732 1.206644,-2.45996 1.206644,-3.48195 0,-0.71192 0.03352,-0.76354 0.377755,-0.5793 0.611906,0.32748 1.773398,0.23251 2.477368,-0.20257 0.403389,-0.2493 0.805553,-0.35647 1.047998,-0.27957 0.133404,0.0423 0.231424,0.0546 0.293522,0.0346 0.186295,-0.0598 0.05067,-0.41001 -0.413928,-1.11207 -0.281328,-0.42512 -0.470317,-0.65682 -0.650089,-0.72657 z m -1.020093,0.82785 c 1.035933,-0.0757 1.32025,0.34848 0.603581,0.89969 -0.565208,0.43458 -1.446786,0.46011 -2.178679,0.0631 -0.748828,-0.40625 -0.698617,-0.86035 0.09767,-0.88315 0.34912,-0.01 1.013747,-0.0457 1.477429,-0.0796 z m 32.101916,5.39916 c 0.08465,0.0125 0.180938,0.0407 0.298173,0.0816 0.371491,0.1299 0.563264,0.34566 0.599964,0.67541 0.04605,0.41379 -0.08443,0.54192 -0.892969,0.8754 -0.733105,0.30237 -1.495676,0.96761 -3.374471,2.94504 -2.089949,2.19966 -2.559165,2.81731 -3.377572,4.44365 -0.522752,1.03882 -1.071963,1.88878 -1.220597,1.88878 -0.466711,0 -0.297598,-0.66269 0.51108,-2.0035 0.429687,-0.71243 0.780831,-1.39741 0.780831,-1.52187 0,-0.50076 1.443262,-2.92727 2.338358,-3.93154 0.524201,-0.58814 1.465211,-1.40923 2.090829,-1.8247 0.625618,-0.41547 1.331072,-0.97636 1.567863,-1.24643 0.277307,-0.31629 0.424567,-0.41938 0.678511,-0.38189 z m 1.085722,1.73323 c 0.0039,3e-5 0.0095,0.006 0.01344,0.007 0.29363,0.0239 0.850667,0.91995 1.321366,1.91668 0.04211,0.0938 0.08156,0.1853 0.120923,0.28009 0.110149,0.2473 0.190221,0.47706 0.280087,0.71623 0.105109,0.32933 0.187736,0.64441 0.214457,0.90331 0.02905,0.28145 0.08501,0.51368 0.147794,0.72657 -0.03886,0.16181 0.08313,0.42942 0.290422,0.61701 0.192935,0.17461 0.31933,0.41526 0.371037,0.6811 0.0184,0.0946 0.01533,0.19441 0.01447,0.29352 -5.01e-4,0.0416 0.0085,0.0816 0.0047,0.12351 -0.01274,0.1388 -0.04395,0.2785 -0.09612,0.41444 -0.06917,0.17991 -0.327166,0.24317 -0.781348,0.19017 -0.544968,-0.0636 -0.677995,-0.0124 -0.677995,0.26149 0,0.18742 0.225962,0.55001 0.501778,0.80563 0.647557,0.60013 0.588691,1.3308 -0.107486,1.3348 -0.297026,0.002 -0.509534,0.13047 -0.548804,0.33177 -0.04793,0.24569 0.0989,0.34375 0.582393,0.39015 0.5382,0.0517 0.656801,0.15079 0.707451,0.58963 0.04935,0.42758 -0.09456,0.63965 -0.761711,1.12293 -0.822275,0.59593 -0.823566,0.59615 -3.478857,0.59015 -2.685328,-0.006 -3.04489,-0.083 -3.866948,-0.82683 -0.326202,-0.29518 -0.402243,-0.52611 -0.315743,-0.9586 0.08536,-0.42679 0.0031,-0.68725 -0.327112,-1.03869 -0.574931,-0.61199 -0.413294,-1.32989 0.372071,-1.6552 0.315807,-0.13081 0.814989,-0.58582 1.109493,-1.01079 0.294502,-0.42497 0.886036,-1.01036 1.314648,-1.30069 1.157025,-0.78376 1.482411,-1.34161 1.664498,-2.85409 0.145438,-1.20807 0.237115,-1.41795 0.874365,-2.00195 0.391536,-0.35881 0.867217,-0.65105 1.056783,-0.64905 z m 0.770496,3.35225 c -0.68854,0.006 -2.059095,0.902 -1.813326,1.29966 0.206466,0.33407 0.412196,0.28368 1.05885,-0.26045 0.31916,-0.26855 0.721005,-0.48834 0.893485,-0.48834 0.35429,0 0.419969,-0.30194 0.107487,-0.49506 -0.06384,-0.0395 -0.148133,-0.0567 -0.246496,-0.0558 z m 0.180867,0.94154 c -0.448442,0 -0.803882,0.42137 -0.560689,0.66456 0.06421,0.0643 0.321407,0.11679 0.572058,0.11679 0.325521,0 0.455786,-0.11166 0.455786,-0.39068 0,-0.2818 -0.129978,-0.39067 -0.467155,-0.39067 z m 2.693376,2.15336 c 0.157495,-0.0311 0.357093,0.10323 0.525032,0.41703 l 0.225827,0.42168 11.884549,-0.13643 11.88506,-0.13643 0.11937,0.47646 c 0.0657,0.26185 0.0808,4.28633 0.0336,8.94312 -0.0353,3.47922 -0.0636,5.71731 -0.15089,7.33186 -0.004,0.0787 -0.0115,0.13507 -0.016,0.21084 -0.026,0.43479 -0.0549,0.84112 -0.092,1.19631 -0.024,0.22743 -0.0567,0.42034 -0.0863,0.62425 -0.0234,0.16327 -0.0429,0.3413 -0.0703,0.49351 -0.0524,0.28825 -0.11597,0.55844 -0.185,0.82837 -0.0133,0.0522 -0.0232,0.10771 -0.0372,0.15968 -0.14738,0.54748 -0.35732,1.13678 -0.59221,1.79317 -0.0532,0.14434 -0.0967,0.26952 -0.15503,0.4253 -0.2026,0.54105 -0.43442,1.0636 -0.69556,1.57148 -0.20111,0.38524 -0.43348,0.76219 -0.67335,1.13688 -0.0665,0.10474 -0.12017,0.21473 -0.18965,0.31833 -0.65449,0.97038 -1.44329,1.89732 -2.34456,2.76934 -0.029,0.0281 -0.0524,0.0589 -0.0816,0.0868 -9.1e-4,8.7e-4 -0.002,0.002 -0.003,0.003 -0.41611,0.3974 -0.84592,0.77172 -1.28881,1.12293 -0.44383,0.35195 -0.90094,0.68071 -1.37201,0.9865 -0.47107,0.30579 -0.95604,0.58868 -1.45469,0.84853 -0.49882,0.25993 -1.01099,0.49701 -1.53738,0.71106 -1.91685,0.77949 -6.84111,2.25171 -9.540498,2.85254 -1.281575,0.28525 -3.0019,0.77565 -3.823023,1.08986 -0.256488,0.0981 -0.532721,0.21876 -0.822172,0.3576 -0.289126,0.13859 -0.591374,0.29513 -0.900203,0.46561 -5.65e-4,3.1e-4 -9.86e-4,7.2e-4 -0.0016,0.001 -0.617183,0.34076 -1.260798,0.73655 -1.882055,1.15445 -1.059974,0.71187 -2.030012,1.47674 -2.696477,2.1394 -0.125148,0.12332 -0.259269,0.24923 -0.362251,0.36484 -0.590516,0.66293 -1.162398,1.15044 -1.271241,1.08314 -0.128049,-0.0791 -0.210557,-3.48917 -0.235644,-9.69553 -8.3e-5,-0.0204 -4.36e-4,-0.0266 -5.17e-4,-0.047 -1.8e-5,-0.005 1.9e-5,-0.008 0,-0.0129 -0.02983,-7.51165 -0.143996,-20.01085 -0.190686,-20.87314 -0.004,-0.0733 -0.183065,-0.18915 -0.397908,-0.25735 -0.08043,-0.0255 -0.144648,-0.0573 -0.196371,-0.10232 -0.01284,-0.0112 -0.01868,-0.0325 -0.02997,-0.0455 -0.03473,-0.0403 -0.06873,-0.0805 -0.09043,-0.14366 -0.0021,-0.006 -0.0026,-0.0174 -0.0047,-0.0238 -0.02519,-0.0805 -0.04329,-0.17671 -0.05374,-0.30541 -0.01044,-0.12844 -0.0139,-0.29164 -0.01447,-0.48214 0.0017,-0.52162 0.07408,-0.94826 0.163815,-0.94826 0.09077,0 0.683936,0.33585 1.318265,0.74621 0.175612,0.1136 0.363649,0.27224 0.54777,0.41651 0.131007,0.10393 0.245004,0.17428 0.386023,0.29972 7.46e-4,6.7e-4 0.0013,8.9e-4 0.0021,0.002 0.0055,0.005 0.01105,0.0117 0.01654,0.0165 0.616286,0.55053 1.309831,1.29189 1.961637,2.08618 0.319407,0.3957 0.64134,0.8162 0.963249,1.26762 8.84e-4,10e-4 0.0012,10e-4 0.0021,0.003 0.02774,0.0396 0.06167,0.0788 0.08888,0.11834 0.203665,0.29602 0.369542,0.47617 0.516247,0.60307 0.290895,0.27104 0.450648,0.24731 0.454236,-0.13901 0.0052,-0.0457 0.02325,-0.0633 0.02325,-0.12041 0,-0.0262 -0.04598,-0.20154 -0.05219,-0.25011 -0.04619,-0.37096 -0.150711,-0.87726 -0.323494,-1.54513 -0.408153,-1.57765 -0.455207,-2.05413 -0.425297,-4.31705 l 0.02015,-1.49706 1.159103,-0.84698 c 1.323948,-0.96664 1.491425,-1.42778 1.214913,-3.34657 -0.143928,-0.99875 -0.120352,-1.15547 0.19637,-1.32498 0.224806,-0.12031 0.359151,-0.4092 0.359151,-0.77153 0,-0.3469 0.115357,-0.54308 0.272852,-0.57412 z m 15.151018,4.79092 c -1.97564,0.0162 -2.90185,0.55475 -3.95325,2.29908 -0.79677,1.32189 -1.00429,1.50955 -3.66748,3.32073 -3.064874,2.08437 -4.38995,2.82782 -4.625039,2.59416 -0.08292,-0.0824 -0.194854,-0.99972 -0.248564,-2.03864 -0.09609,-1.85864 -0.105568,-1.88929 -0.58601,-1.88929 -0.428999,0 -0.503978,0.10682 -0.619601,0.87902 -0.07238,0.4834 -0.08655,1.15375 -0.03152,1.48983 0.104054,0.63544 -0.311738,1.68492 -0.779281,1.96732 -0.662169,0.39996 -1.153418,1.4008 -1.153418,2.34921 0,1.01654 0.216364,1.51842 1.317232,3.05305 0.530075,0.73892 0.680579,1.13889 0.680579,1.8066 0,0.71868 0.06161,0.85732 0.379305,0.85732 0.525027,0 0.666124,-0.30679 0.641304,-1.3963 -0.01175,-0.51587 0.06299,-0.9903 0.166398,-1.0542 0.137819,-0.0852 3.117255,1.24393 4.070555,1.81591 0.0448,0.0269 0.0181,0.11162 -0.0589,0.18862 -0.0385,0.0385 -0.1797,0.0359 -0.3762,5.1e-4 -0.1965,-0.0354 -0.44833,-0.10363 -0.707965,-0.19585 -1.129845,-0.4013 -2.623753,-0.45545 -2.50424,-0.091 0.139693,0.42604 1.556691,0.78724 3.295405,0.83974 0.96656,0.0292 1.92219,0.16951 2.24586,0.33022 0.30991,0.15387 1.05603,0.47477 1.65778,0.71313 1.17022,0.46355 2.74405,1.84994 2.28875,2.0159 -0.14197,0.0518 -1.66399,-0.19884 -3.38274,-0.55707 -1.71875,-0.35824 -4.135898,-0.79376 -5.371249,-0.96739 -2.285489,-0.32125 -3.389354,-0.74737 -4.169772,-1.60972 -0.471125,-0.52059 -0.266556,-0.8139 0.567924,-0.8139 0.467184,0 0.672311,-0.0894 0.672311,-0.29301 0,-0.18753 -0.188499,-0.29249 -0.523482,-0.29249 -0.287837,0 -1.090722,-0.19167 -1.783871,-0.42581 -1.226605,-0.4143 -1.267009,-0.41608 -1.527038,-0.0605 -0.146941,0.20095 -0.267168,0.42494 -0.267168,0.49764 0,0.0727 0.83418,0.98308 1.854151,2.02314 l 1.854667,1.89084 -0.409277,0.80253 c -0.225121,0.44128 -0.542182,1.24974 -0.70435,1.79679 -0.162168,0.54705 -0.461048,1.32073 -0.664042,1.71928 -0.494501,0.97088 -0.465545,1.29047 0.14211,1.56734 0.44619,0.2033 0.55457,0.17994 0.850077,-0.185 0.186219,-0.22997 0.711927,-1.47362 1.168404,-2.76366 0.456479,-1.29003 0.986014,-2.48671 1.176673,-2.65926 0.319606,-0.28924 0.642127,-0.25921 4.131012,0.38653 2.08127,0.38521 3.95504,0.7696 4.16409,0.8537 0.29133,0.11725 0.436,0.48552 0.62011,1.5782 0.25824,1.53261 0.45575,1.88713 0.94568,1.69912 0.25954,-0.0996 0.29043,-0.32633 0.18552,-1.35031 -0.13582,-1.32569 0.11907,-1.84275 0.7829,-1.58801 0.34467,0.13226 1.26298,1.81741 1.66295,3.05201 0.12996,0.40115 0.46113,0.90641 0.73639,1.12293 0.62133,0.48876 0.77226,0.49185 1.02526,0.0191 0.15469,-0.28905 0.0705,-0.68019 -0.36794,-1.70791 -0.63413,-1.48648 -0.54738,-1.94281 0.30696,-1.61799 0.26723,0.10163 0.96042,0.185 1.54047,0.185 0.86614,0 1.09328,-0.072 1.27073,-0.40359 0.3411,-0.63736 -0.2619,-1.43618 -0.9524,-1.26194 -1.625,0.41005 -2.04941,0.0115 -0.69091,-0.64854 1.57987,-0.76757 2.19512,-1.37123 2.89594,-2.84065 1.23973,-2.59937 1.56836,-4.02948 1.55236,-6.75928 -0.0221,-3.75918 -0.95001,-6.68742 -2.71869,-8.57829 -1.12895,-1.20693 -2.26583,-1.67931 -4.00544,-1.66501 z m -25.134388,0.98082 c 0.165034,-0.063 0.423333,0.0383 0.859896,0.27233 0.616477,0.33039 1.102124,0.39636 2.925403,0.39636 0.593709,0 1.073868,0.0133 1.456758,0.0465 1.148672,0.0996 1.423421,0.3772 1.273824,1.00666 -0.381984,1.60729 -0.33867,2.81847 0.173633,4.85965 0.21989,0.87611 -0.217956,0.62794 -1.283642,-0.72812 -1.07335,-1.36581 -2.627778,-2.51782 -4.331002,-3.20911 -1.191963,-0.48379 -1.519038,-0.94248 -1.374077,-1.92908 0.06238,-0.42452 0.134173,-0.65218 0.299207,-0.7152 z m 26.269718,1.48053 c 0.14314,-0.0163 0.32085,0.0338 0.54157,0.13436 0.7396,0.33699 0.75506,0.65602 0.10128,2.1456 -0.33021,0.75235 -0.60048,1.50744 -0.60048,1.67742 0,0.16998 -0.13186,0.30902 -0.293,0.30902 -0.24066,0 -0.29301,-0.34495 -0.29301,-1.92959 0,-1.64532 0.11419,-2.28802 0.54364,-2.33681 z m -2.17455,0.077 c 0.14705,-0.008 0.26965,0.0154 0.33487,0.0806 0.22493,0.22494 0.48024,1.84648 0.50074,3.18068 0.0179,1.16542 -0.42358,1.26359 -0.8785,0.19534 -0.70535,-1.65631 -1.0604,-2.61674 -1.0604,-2.86856 0,-0.26466 0.66214,-0.56477 1.10329,-0.58807 z m -2.0407,1.50068 c 0.11659,0.0389 0.45182,0.69433 0.74466,1.45676 0.29284,0.76242 0.67339,1.58735 0.84542,1.83296 0.23112,0.32999 0.2566,0.51358 0.0987,0.70383 -0.28673,0.3455 -0.38714,0.32433 -0.88057,-0.18551 -0.23204,-0.23976 -0.69333,-0.68331 -1.02526,-0.98547 -0.41713,-0.37973 -0.60358,-0.72953 -0.60358,-1.13275 0,-0.70479 0.52602,-1.78802 0.82062,-1.68982 z m 6.36447,0.39119 c 0.12372,-0.0412 0.39832,0.21006 0.6103,0.55862 0.47102,0.77454 0.32796,1.12027 -0.80357,1.93993 -1.47458,1.06818 -1.71001,0.62444 -0.67024,-1.26348 0.35139,-0.63802 0.73979,-1.19387 0.86351,-1.23507 z m -9.16275,0.92707 c 0.17792,-0.0214 0.22724,0.0904 0.12661,0.34469 -0.3223,0.8145 -0.63461,2.80489 -0.66921,4.26485 -0.0442,1.86693 0.36064,3.98891 1.04696,5.48804 0.27187,0.59383 0.44533,1.15819 0.38603,1.25419 h 5.1e-4 c -0.15676,0.25365 -0.3006,0.22042 -1.06143,-0.24547 -0.37598,-0.23024 -1.80434,-0.98398 -3.17397,-1.67535 -1.369618,-0.69137 -2.490285,-1.34206 -2.490285,-1.4459 0,-0.10384 0.139437,-0.45864 0.310059,-0.78859 0.30831,-0.59628 0.303883,-1.89026 -0.0098,-2.82825 -0.119304,-0.35672 0.03679,-0.54046 1.033012,-1.21698 0.645315,-0.43822 1.830674,-1.32587 2.634464,-1.97249 0.916,-0.73688 1.57055,-1.14312 1.86707,-1.17874 z m 10.02833,2.16783 c 0.38025,-0.0272 0.54312,0.3879 0.54312,1.27382 0,0.54212 -0.0974,0.70944 -0.50126,0.863 -0.73683,0.28015 -1.71475,0.23219 -2.14716,-0.10542 -0.37223,-0.29063 -0.37067,-0.30199 0.0744,-0.63459 0.24934,-0.18632 0.74452,-0.5805 1.10019,-0.87591 0.39621,-0.32909 0.70254,-0.5046 0.93069,-0.5209 z m -8.18141,0.0548 c 0.13787,0.0528 0.32061,0.22294 0.64544,0.54777 0.38844,0.38845 0.64607,0.80342 0.57257,0.92242 v 5.2e-4 c -0.15805,0.25541 -0.41162,0.25393 -1.12706,-0.008 -0.66455,-0.24308 -0.89232,-0.8807 -0.46664,-1.30638 0.14483,-0.14483 0.23781,-0.20942 0.37569,-0.15658 z m -9.318298,1.75958 c 1.037035,-0.0795 1.689613,2.23521 0.766362,3.15846 -0.263672,0.26367 -0.575276,0.47956 -0.692464,0.47956 -0.491798,0 -1.171505,-0.96382 -1.171505,-1.66088 0,-0.81357 0.4319,-1.7539 0.885734,-1.92805 0.0722,-0.0277 0.142738,-0.0438 0.211873,-0.0491 z m -38.678259,0.52038 c 0.150049,0.0138 0.275952,0.10869 0.275952,0.2744 0,0.1548 -0.07036,0.32424 -0.156063,0.37724 -0.249861,0.15442 -0.688287,-0.2036 -0.541052,-0.44183 0.09689,-0.15678 0.271114,-0.22365 0.421163,-0.20981 z m 48.236337,0.42272 c 0.43594,-0.032 1.0455,0.0381 1.35443,0.15554 l 0.56173,0.21342 -1.05834,0.9679 c -0.58199,0.53225 -1.1147,0.96739 -1.1839,0.96739 -0.33968,0 -0.5816,-0.64355 -0.5271,-1.40147 0.0602,-0.83594 0.0685,-0.84518 0.85318,-0.90278 z m -9.462993,0.3514 c -0.446566,0 -0.660548,0.4536 -0.357084,0.75705 0.373675,0.37368 0.72657,0.24333 0.72657,-0.26871 0,-0.34887 -0.105317,-0.48834 -0.369486,-0.48834 z m 16.166453,0.28783 c 0.18762,0.0197 0.39444,0.0613 0.61237,0.12661 0.93107,0.27897 1.28316,0.7646 0.97358,1.34307 -0.25305,0.47282 -0.29231,0.47294 -1.24075,-5.2e-4 -0.95688,-0.47766 -1.29811,-0.76257 -1.29811,-1.08417 0,-0.30375 0.39006,-0.444 0.95291,-0.38499 z m -5.13922,1.38493 c 0.30302,-0.0408 0.21367,0.54092 -0.25321,1.76734 -0.31826,0.836 -0.65841,1.54608 -0.75551,1.57768 -0.20707,0.0674 -0.8599,-1.01508 -0.8599,-1.42576 0,-0.15525 0.40335,-0.6855 0.89607,-1.17822 0.46793,-0.46793 0.79074,-0.71655 0.97255,-0.74104 z m 4.75682,1.05523 c 0.17372,0.0637 0.49323,0.33511 0.96531,0.80719 0.63814,0.6381 0.76294,0.87127 0.61444,1.14877 -0.3997,0.74685 -0.74825,0.60373 -1.26194,-0.51832 -0.4918,-1.07423 -0.60735,-1.54389 -0.31781,-1.43764 z m -1.74925,0.0341 c 0.0559,-0.006 0.10411,0.005 0.13126,0.032 0.28625,0.28626 1.62253,3.70542 1.51567,3.87832 -0.069,0.11163 -0.41935,0.32628 -0.77877,0.47645 -0.786,0.3284 -0.80345,0.32917 -0.97048,0.0589 -0.23595,-0.38173 -0.30197,-4.24287 -0.0749,-4.38319 0.0576,-0.0357 0.12134,-0.057 0.17725,-0.0625 z m -1.65313,0.24495 c 0.19656,0.0445 0.27912,0.72269 0.30747,2.26601 0.0321,1.74918 -0.009,2.05995 -0.27698,2.11305 -0.41345,0.0818 -1.30018,-0.81511 -1.30018,-1.31517 0,-0.45565 0.73909,-2.53504 1.03301,-2.90576 0.0931,-0.1174 0.17116,-0.17297 0.23668,-0.15813 z"
         sodipodi:nodetypes="ccsssccccscscccsccccscccscccsccccccccssssscsccsccsssccccscccccccscsssssssscsssccccccsssccscsssssssssscccssssssssssssssssscsssssssssssssscsssssssssssssscssssssscsssssssssssscssssssssssssssssssssssssssscssscscssssssssssssssssssssssssssssssssssssssssssscccsssssssssssssssssssssccssccccssssssssssssssssssssssscsssssssssssccccscccsccsscssssscsscssscsssscscsssscscscscsccsccccccscscscccsscssscscccscsssscsssssccccssssssssssssssssscccssscsssssscsscscssssssssssssssssssssssssssssssssssssssssssssssssscccssssssssssscsssssssssssssssssssssssssssccssssssssssssssssssssssssssssscssccsscssssssssssssssccccscsscccssscsssccssssssssscsssscscsssscccccssccccsscscccsscsssssscscccsssscssscssscsscscccscsccscscccsssscssssssssssssssssssssssssssssscsscccssssssscsssssssssssssscscssssssssssssssssssssssssssssssscssscssssccsssssssssssssssssccssssssssssscsssccsscssssssssssssscsssssssssssssssssssss" /><path
         style="display:inline;fill:#3853a6"
         d="m 83.898969,170.70303 c -0.203971,-0.37875 -0.949055,-1.15296 -1.655743,-1.72046 -3.505652,-2.81521 -6.138614,-4.04253 -10.561337,-4.92303 -2.258676,-0.44967 -6.466456,-1.69593 -8.515076,-2.522 -5.135707,-2.07089 -8.982393,-5.86493 -10.411124,-10.26864 -0.892037,-2.74948 -0.999393,-3.86929 -1.196036,-12.47556 -0.136667,-5.9814 -0.129659,-8.35371 0.02523,-8.54034 0.172414,-0.20775 2.432914,-0.26889 11.529666,-0.31182 12.249589,-0.0578 11.681224,-0.005 11.688456,-1.08671 0.0029,-0.43449 0.04931,-0.44572 1.614319,-0.39062 1.502267,0.0529 1.615552,0.0865 1.67374,0.49618 0.05223,0.36778 -0.02863,0.43945 -0.495778,0.43945 -0.982294,0 -2.684825,0.70457 -2.751848,1.13882 -0.07051,0.45681 0.330195,0.62316 1.915683,0.79532 0.59082,0.0642 1.062906,0.20319 1.049079,0.30897 -0.01383,0.10578 -0.472749,0.42362 -1.019828,0.70632 -0.547079,0.28269 -1.232982,0.67012 -1.524228,0.86095 l -0.529538,0.34697 0.463409,0.37524 c 0.323258,0.26176 0.732771,0.36622 1.354054,0.34538 0.489855,-0.0164 1.000509,-0.0221 1.134786,-0.0125 0.485661,0.0345 0.228431,0.52291 -0.474382,0.90067 -1.112178,0.59781 -1.625227,1.06331 -1.625227,1.47461 0,0.32284 0.142795,0.37645 1.00273,0.37645 0.551502,0 1.33592,-0.0998 1.743151,-0.22183 1.419453,-0.42528 1.457764,-0.14114 0.214916,1.594 -0.623441,0.87038 -1.284117,1.83744 -1.468167,2.14901 -0.324363,0.54911 -0.320932,0.58021 0.111756,1.01289 0.263128,0.26313 0.446395,0.68283 0.446395,1.02229 0,0.43647 0.160671,0.68472 0.663649,1.02539 0.917608,0.62151 1.118308,0.57215 1.547364,-0.38058 0.205602,-0.45654 0.834443,-1.35141 1.397424,-1.9886 0.562981,-0.63718 1.316725,-1.80174 1.674986,-2.58789 0.706774,-1.55091 1.01467,-1.7268 1.950011,-1.11394 0.402925,0.26401 0.48141,0.47099 0.48141,1.26954 0,0.70769 -0.07389,0.9541 -0.286097,0.9541 -0.70459,0 -0.723388,0.48588 -0.627806,16.22699 0.05148,8.4775 0.03448,15.41363 -0.03777,15.41363 -0.07225,0 -0.298254,-0.30989 -0.502225,-0.68864 z M 73.2566,158.49403 c 0.677604,-0.36264 1.398223,-2.10881 1.570871,-3.80646 0.208899,-2.0541 0.76544,-3.8081 1.703644,-5.3692 0.736727,-1.22586 1.736867,-2.14545 2.33337,-2.14545 0.159381,0 0.685292,0.39551 1.16869,0.87891 0.879336,0.87933 1.279923,1.05765 1.516411,0.675 0.339955,-0.55006 -1.665615,-2.52423 -3.505833,-3.45095 -0.749293,-0.37734 -1.674455,-0.93373 -2.055914,-1.23642 -1.020635,-0.80989 -3.343811,-1.94261 -3.986476,-1.94371 -0.421376,-7.2e-4 -0.829067,-0.27675 -1.660156,-1.124 -0.673331,-0.68643 -1.620077,-1.38267 -2.435172,-1.79082 -1.184351,-0.59306 -1.498897,-0.66567 -2.811338,-0.64891 -1.903149,0.0243 -4.043503,0.54758 -4.689872,1.14662 -0.600122,0.55617 -0.542756,0.55204 -1.298432,0.0935 -0.334945,-0.20325 -0.894635,-0.42996 -1.243756,-0.5038 -0.571771,-0.12092 -0.635474,-0.0891 -0.641897,0.32073 -0.0051,0.32251 -0.262623,0.6169 -0.884656,1.01113 -1.032582,0.65444 -1.747209,1.86631 -1.559412,2.64448 0.169217,0.70117 0.170166,0.66352 -0.07152,2.83674 -0.187498,1.68597 -0.17502,1.99726 0.09669,2.41194 0.252027,0.38464 0.439734,0.46121 0.976914,0.3985 0.629508,-0.0735 0.671038,-0.0407 0.779279,0.6154 0.241105,1.46145 0.559812,1.56428 1.391208,0.44889 0.720841,-0.96707 0.90955,-1.08111 1.070219,-0.64678 0.07379,0.19947 0.232876,0.42368 0.353529,0.49825 0.154305,0.0954 0.17542,0.66609 0.07119,1.92428 -0.303544,3.66421 -0.05496,4.86299 1.162313,5.60521 0.809288,0.49345 0.889571,0.48358 1.126054,-0.13842 0.236882,-0.62304 -0.01728,-1.49698 -0.622822,-2.14155 -0.223935,-0.23837 -0.348815,-0.52779 -0.27751,-0.64317 0.258039,-0.41751 0.640392,-0.19383 0.988597,0.57835 0.379683,0.84199 1.547844,2.01859 2.214027,2.23003 0.64071,0.20335 1.200843,-0.21005 1.200843,-0.88628 0,-0.77307 -0.481732,-1.68185 -0.97442,-1.83822 -0.746123,-0.23681 -0.456643,-0.68427 0.442681,-0.68427 0.465574,0 1.042398,-0.14496 1.302893,-0.32742 0.257095,-0.18007 0.883846,-0.39323 1.392781,-0.47368 0.508934,-0.0805 1.277762,-0.3795 1.708507,-0.66456 1.389414,-0.91947 1.927637,-0.1011 1.40784,2.14061 -0.124287,0.53601 -0.451827,1.02298 -1.069559,1.59015 -0.930728,0.85456 -1.013245,1.04668 -0.700523,1.63101 0.319862,0.59767 0.79037,0.63103 1.665625,0.11809 0.795707,-0.46631 1.032517,-0.80876 1.729193,-2.50053 0.294958,-0.71627 0.578035,-0.91216 0.799738,-0.55343 0.156722,0.25358 -0.268345,2.17801 -0.595269,2.69499 -0.412051,0.65161 -0.351096,1.22758 0.129916,1.22758 0.221906,0 0.573587,-0.091 0.781514,-0.20233 z m 20.690021,-30.34909 c 0,-0.26032 -0.219727,-0.73443 -0.488281,-1.05359 -0.332729,-0.39542 -0.488282,-0.81593 -0.488282,-1.31996 0,-0.4772 -0.306249,-1.36821 -0.863004,-2.51087 -0.474653,-0.97416 -1.173368,-2.66791 -1.552701,-3.7639 -0.831554,-2.40256 -1.110425,-2.97206 -2.114304,-4.31773 -0.581531,-0.77952 -0.878973,-1.02199 -1.197971,-0.97656 -0.546906,0.0779 -0.662076,0.91125 -0.24224,1.75283 0.635171,1.27323 0.112646,1.29087 -1.174755,0.0397 -0.790687,-0.76846 -0.984517,-0.87112 -1.287456,-0.68193 -0.307278,0.19189 -0.356631,0.15925 -0.356631,-0.23587 0,-0.29962 0.169256,-0.5357 0.488281,-0.68106 0.268555,-0.12236 0.499967,-0.37817 0.51425,-0.56846 0.01428,-0.19029 0.0045,-3.38414 -0.0217,-7.09745 -0.04317,-6.11458 -0.01656,-6.782559 0.282058,-7.08118 0.305005,-0.305006 1.562196,-0.325981 16.769745,-0.27979 l 16.44002,0.04993 0.10483,13.57422 c 0.0576,7.46582 0.0733,13.67615 0.0347,13.80074 -0.0386,0.12458 -0.27643,0.27829 -0.52859,0.34158 -0.25215,0.0633 -5.52796,0.11674 -11.724,0.11878 -7.256963,0.002 -11.397642,0.0744 -11.636784,0.2024 -0.210628,0.11273 -0.371239,0.40696 -0.371239,0.68009 0,0.29771 -0.111792,0.48141 -0.292968,0.48141 -0.179818,0 -0.292969,-0.18279 -0.292969,-0.47329 z m 9.113709,-7.74517 c 0.94863,-0.45922 2.54835,-2.13219 2.72968,-2.85466 0.0661,-0.26352 0.006,-0.71434 -0.13268,-1.00183 -0.13911,-0.28749 -0.49051,-1.65041 -0.78088,-3.02872 -0.62852,-2.9833 -0.49917,-3.23539 0.95045,-1.85229 0.50198,0.47895 1.39609,1.25357 1.98691,1.72137 0.59082,0.46781 1.53113,1.28897 2.08957,1.82482 0.90087,0.86441 1.05241,0.94351 1.34396,0.70154 0.72906,-0.60506 2.62116,-3.31009 2.62116,-3.74732 0,-0.35677 -0.33347,-0.69055 -1.45366,-1.45501 -0.79951,-0.54561 -1.50264,-0.94304 -1.5625,-0.88318 -0.0599,0.0599 -0.10884,0.35489 -0.10884,0.65561 0,0.61447 -0.56605,1.9272 -0.831,1.9272 -0.15282,0 -0.81443,-0.55032 -3.44466,-2.86525 -0.38692,-0.34053 -0.64702,-0.67562 -0.57801,-0.74463 0.069,-0.069 2.52966,-1.22757 5.46809,-2.57456 2.93843,-1.347 5.45247,-2.53879 5.58675,-2.64843 0.52175,-0.42601 0.0609,-1.90932 -0.59325,-1.90932 -0.21123,0 -1.01011,0.34261 -1.77529,0.76137 -0.76517,0.41875 -2.54461,1.2512 -3.9543,1.84988 -1.40969,0.59869 -3.38085,1.48654 -4.38036,1.97301 -0.9995,0.48647 -1.96836,0.88449 -2.153,0.88449 -0.18465,0 -1.85411,-1.27442 -3.70991,-2.83203 -1.855802,-1.55762 -3.531742,-2.83203 -3.724314,-2.83203 -0.192572,0 -0.446533,0.18012 -0.564357,0.40028 -0.484246,0.90482 -0.186662,1.34276 2.571555,3.7844 1.465226,1.29706 2.719786,2.48086 2.787916,2.63067 0.0681,0.14981 -0.0219,0.43345 -0.20005,0.63031 -0.30313,0.33495 -0.35843,0.33753 -0.86184,0.0402 -0.759698,-0.44876 -1.247326,-0.21938 -1.099965,0.51742 0.151704,0.75853 -0.171195,0.92697 -0.835476,0.43585 -0.579787,-0.42865 -0.80851,-0.37161 -1.155856,0.2883 -0.308322,0.58576 -0.305655,0.59397 0.410214,1.26178 l 0.634765,0.59216 -0.547462,0.42222 c -0.301104,0.23223 -1.575518,0.96704 -2.832031,1.63293 -1.292445,0.68493 -2.313771,1.35151 -2.351813,1.53493 -0.03698,0.17833 0.06882,0.6882 0.235113,1.13305 0.166297,0.44485 0.49034,1.31906 0.720097,1.9427 0.229758,0.62364 0.521324,1.10704 0.647926,1.07422 0.126602,-0.0328 0.75567,-0.63759 1.397928,-1.34395 4.41683,-4.85761 4.6226,-5.06337 5.06378,-5.06337 0.78387,0 0.95815,0.431 0.7203,1.7813 -0.31143,1.76802 -0.60743,2.12495 -1.762176,2.12495 -0.761078,0 -1.045829,0.1004 -1.460341,0.51491 -1.024166,1.02417 -0.50512,2.24726 1.145242,2.69867 1.467125,0.4013 2.773945,0.36501 3.742615,-0.10392 z m -2.22821,-0.72315 c -0.18713,-0.48765 0.66423,-1.01932 1.63223,-1.01932 0.61621,0 0.85727,0.0791 0.85727,0.28144 0,0.3785 -0.31144,0.55628 -1.43154,0.81713 -0.80294,0.18699 -0.96031,0.1752 -1.05796,-0.0793 z m -2.000582,-0.33319 c -0.303472,-0.36567 -0.110357,-1.18874 0.317424,-1.35289 0.425007,-0.16309 1.047658,0.41287 1.047658,0.9691 0,0.66318 -0.91882,0.9215 -1.365082,0.38379 z m -4.797227,-1.55877 c -0.559167,-1.33827 -0.299582,-1.96575 1.138749,-2.75261 0.622789,-0.3407 0.921998,-0.23336 0.921998,0.33078 0,0.73604 0.666689,0.29662 1.269532,-0.83677 0.674626,-1.26834 1.217113,-1.92345 1.592771,-1.92345 0.525165,0 0.236516,0.60844 -1.04003,2.19227 -2.050976,2.54469 -3.071088,3.66197 -3.345911,3.66464 -0.139758,0.001 -0.381458,-0.30233 -0.537109,-0.67486 z m 7.748049,-0.17358 c -0.19935,-0.24021 -0.10855,-0.85826 0.49023,-3.33677 0.78936,-3.26736 0.92456,-3.637 1.21806,-3.33023 0.20078,0.20987 1.19816,4.94721 1.19816,5.69101 0,0.33538 -0.18039,0.52983 -0.68844,0.74211 -1.15245,0.48153 -1.94327,0.56492 -2.21801,0.23388 z m 8.47654,-3.05128 c -0.33878,-0.37434 -0.32828,-0.41908 0.33213,-1.41601 0.37507,-0.56621 0.83575,-1.28219 1.02371,-1.59108 l 0.34176,-0.56162 0.60102,0.60102 c 0.53647,0.53647 0.57668,0.65443 0.37441,1.09837 -0.29652,0.65079 -1.7803,2.25588 -2.08538,2.25588 -0.1308,0 -0.39525,-0.17395 -0.58765,-0.38656 z m -2.17165,-1.73763 c -0.41895,-0.30893 -1.06934,-0.88602 -1.44532,-1.28242 -0.37597,-0.3964 -0.96923,-0.89788 -1.31836,-1.11439 -0.68027,-0.4219 -0.82375,-0.88749 -0.33168,-1.07631 0.20333,-0.078 0.83005,0.39416 1.90429,1.43474 0.88067,0.85308 1.8085,1.69217 2.06185,1.86464 0.25334,0.17247 0.40197,0.4085 0.33027,0.52451 -0.19475,0.31511 -0.36575,0.26517 -1.20105,-0.35077 z m -7.27452,-0.71799 c 0.0371,-0.19146 0.18574,-0.38749 0.33028,-0.43562 0.16809,-0.056 0.23847,0.0379 0.19531,0.2606 -0.0371,0.19146 -0.18574,0.38749 -0.33027,0.43562 -0.1681,0.056 -0.23848,-0.0379 -0.19532,-0.2606 z m -0.62014,-6.04799 c -1.192777,-1.02241 -2.376844,-1.99531 -2.631258,-2.16201 -0.56742,-0.37179 -1.129996,-1.19587 -0.909441,-1.33218 0.227557,-0.14064 6.306119,4.95607 6.171199,5.17438 -0.20924,0.33856 -0.46865,0.17286 -2.6305,-1.68019 z m 5.86341,1.51021 c 0,-0.27664 2.51461,-1.41136 2.6483,-1.19504 0.16274,0.26331 0.17848,0.25187 -1.15893,0.84209 -1.21417,0.53583 -1.48937,0.60105 -1.48937,0.35295 z m 4.6875,-2.17605 c 0,-0.0995 0.27717,-0.31928 0.61594,-0.48828 1.12206,-0.55976 1.60877,-0.27668 0.57462,0.33421 -0.61931,0.36583 -1.19056,0.43976 -1.19056,0.15407 z m 3.75354,-1.60698 c 0.10138,-0.30412 0.53833,-0.35738 0.55365,-0.0675 0.006,0.10742 -0.13629,0.22568 -0.31546,0.26279 -0.20366,0.0422 -0.29295,-0.031 -0.23819,-0.19531 z m -29.886357,14.63955 c -0.131007,-0.13101 -0.226672,-0.71245 -0.21691,-1.31836 l 0.01746,-1.08398 0.261887,0.8789 c 0.144037,0.4834 0.322211,1.07666 0.39594,1.31836 0.145472,0.47689 -0.08394,0.57952 -0.458381,0.20508 z"
         id="path6"
         sodipodi:nodetypes="ssssssssssssscssscsccssscsssssssssssssssssssssssssssssscsssssssssssssssssssscsssssssssssssssssssssssscssccsscssssscccssssssssssssssssssssssssscsssscsssssscssssscccsssccsssssssssscsssssssssscsssssscsssssssssssssssssssssssscssssscssss" /></g></g></svg>
