<?xml version="1.0" encoding="UTF-8" standalone="no"?>
<!-- Created with Inkscape (http://www.inkscape.org/) -->
<svg
   xmlns:dc="http://purl.org/dc/elements/1.1/"
   xmlns:cc="http://web.resource.org/cc/"
   xmlns:rdf="http://www.w3.org/1999/02/22-rdf-syntax-ns#"
   xmlns:svg="http://www.w3.org/2000/svg"
   xmlns="http://www.w3.org/2000/svg"
   xmlns:xlink="http://www.w3.org/1999/xlink"
   xmlns:sodipodi="http://sodipodi.sourceforge.net/DTD/sodipodi-0.dtd"
   xmlns:inkscape="http://www.inkscape.org/namespaces/inkscape"
   version="1.0"
   width="1800.0001"
   height="1650.0002"
   id="svg2"
   sodipodi:version="0.32"
   inkscape:version="0.45.1"
   sodipodi:docname="Quartering_demo.svg"
   inkscape:output_extension="org.inkscape.output.svg.inkscape"
   sodipodi:docbase="C:\Documents and Settings\taku.oshino\My Documents\Personal\Wikipedia\SVG">
  <metadata
     id="metadata150">
    <rdf:RDF>
      <cc:Work
         rdf:about="">
        <dc:format>image/svg+xml</dc:format>
        <dc:type
           rdf:resource="http://purl.org/dc/dcmitype/StillImage" />
      </cc:Work>
    </rdf:RDF>
  </metadata>
  <sodipodi:namedview
     inkscape:window-height="948"
     inkscape:window-width="840"
     inkscape:pageshadow="2"
     inkscape:pageopacity="0"
     guidetolerance="10.0"
     gridtolerance="10.0"
     objecttolerance="10.0"
     borderopacity="1.0"
     bordercolor="#666666"
     pagecolor="#000000"
     id="base"
     inkscape:zoom="0.40390796"
     inkscape:cx="896.14798"
     inkscape:cy="853.96093"
     inkscape:window-x="278"
     inkscape:window-y="-14"
     inkscape:current-layer="svg2" />
  <desc
     id="desc4">Flag of Canton of Valais (Wallis)</desc>
  <defs
     id="defs6">
    <linearGradient
       id="linearGradient2893">
      <stop
         style="stop-color:#ffffff;stop-opacity:0.3137255"
         offset="0"
         id="stop2895" />
      <stop
         style="stop-color:#ffffff;stop-opacity:0.25098041"
         offset="0.19"
         id="stop2897" />
      <stop
         style="stop-color:#6b6b6b;stop-opacity:0.1254902"
         offset="0.60000002"
         id="stop2901" />
      <stop
         style="stop-color:#000000;stop-opacity:0.1254902"
         offset="1"
         id="stop2899" />
    </linearGradient>
    <radialGradient
       cx="221.44487"
       cy="226.33101"
       r="300"
       fx="221.44487"
       fy="226.33101"
       id="radialGradient3163"
       xlink:href="#linearGradient2893"
       gradientUnits="userSpaceOnUse"
       gradientTransform="matrix(1.353218,0,0,1.348928,-77.62935,-85.74693)" />
    <radialGradient
       inkscape:collect="always"
       xlink:href="#linearGradient2893"
       id="radialGradient2432"
       gradientUnits="userSpaceOnUse"
       gradientTransform="matrix(1.353218,0,0,1.348928,-77.62935,-85.74693)"
       cx="221.44487"
       cy="226.33101"
       fx="221.44487"
       fy="226.33101"
       r="300" />
    <radialGradient
       inkscape:collect="always"
       xlink:href="#linearGradient2893"
       id="radialGradient2651"
       gradientUnits="userSpaceOnUse"
       gradientTransform="matrix(1.353218,0,0,1.348928,-77.62935,-85.74693)"
       cx="221.44487"
       cy="226.33101"
       fx="221.44487"
       fy="226.33101"
       r="300" />
  </defs>
  <g
     id="g3285"
     transform="translate(1199.1465,-0.2226906)">
    <g
       id="layer3"
       style="display:inline">
      <rect
         id="rect2438"
         style="fill:#e20909;fill-opacity:1;stroke:none;stroke-width:3.42591333;stroke-miterlimit:4;stroke-dasharray:none;stroke-opacity:1"
         transform="matrix(0.6732193,-0.7394429,0.6732193,0.7394429,0,0)"
         y="224.50752"
         x="-223.78918"
         height="440.59592"
         width="445.68408" />
    </g>
    <path
       id="rect2302"
       d="M 202.0625,110.0625 L 102.0625,219.90625 L 398.6875,545.71875 L 498.6875,435.875 L 202.0625,110.0625 z "
       style="fill:#ffffff;fill-opacity:1;stroke:none;stroke-width:3.42591333;stroke-miterlimit:4;stroke-dasharray:none;stroke-opacity:1;display:inline" />
    <g
       id="layer4">
      <rect
         id="rect4977"
         style="fill:none;fill-opacity:1;stroke:#000000;stroke-width:3.42591333;stroke-miterlimit:4;stroke-dasharray:none;stroke-opacity:1;display:inline"
         transform="matrix(0.6732193,-0.7394429,0.6732193,0.7394429,0,0)"
         y="225.99292"
         x="-222.30379"
         height="440.59592"
         width="445.68408" />
    </g>
    <g
       id="layer2"
       style="display:inline">
      <path
         id="path2875"
         style="opacity:1;fill:url(#radialGradient3163);fill-opacity:1;fill-rule:evenodd;stroke:none;stroke-width:1px;stroke-linecap:butt;stroke-linejoin:miter;stroke-opacity:1"
         d="M 300.00001,658.5 L 598.50001,326.72817 L 302.88361,2.1764865 L 1.5,330.72817 L 300.00001,658.5 z " />
    </g>
    <g
       id="layer1">
      <rect
         id="rect3409"
         style="fill:none;fill-opacity:1;stroke:#000000;stroke-width:3.42591333;stroke-miterlimit:4;stroke-dasharray:none;stroke-opacity:1;display:inline"
         transform="matrix(0.6732193,-0.7394429,0.6732193,0.7394429,0,0)"
         y="225.99292"
         x="-222.30379"
         height="440.59592"
         width="445.68408" />
    </g>
  </g>
  <g
     id="g9475"
     transform="translate(1200.7187,50.660965)">
    <rect
       y="239.11203"
       x="-549.63019"
       height="14.85487"
       width="497.63812"
       id="rect6562"
       style="fill:#000000;fill-opacity:1;stroke:none;stroke-width:3;stroke-miterlimit:4;stroke-dasharray:none;stroke-opacity:1" />
    <rect
       style="fill:#000000;fill-opacity:1;stroke:none;stroke-width:3;stroke-miterlimit:4;stroke-dasharray:none;stroke-opacity:1"
       id="rect9471"
       width="497.63812"
       height="14.85487"
       x="-549.63019"
       y="303.48312" />
  </g>
  <rect
     style="fill:#000000;fill-opacity:1;stroke:none;stroke-width:3;stroke-miterlimit:4;stroke-dasharray:none;stroke-opacity:1"
     id="rect9473"
     width="497.63812"
     height="14.85487"
     x="430.68042"
     y="-907.33496"
     transform="matrix(0,1,-1,0,0,0)" />
  <g
     id="g2636"
     transform="translate(2.3841859e-7,1.3270392e-6)">
    <path
       id="path2638"
       style="fill:#ffffff;fill-opacity:1;fill-rule:evenodd;stroke:none;stroke-width:1px;stroke-linecap:butt;stroke-linejoin:miter;stroke-opacity:1"
       d="M 300,658.5 C 300,658.5 598.50001,546.17969 598.50001,260.72817 C 598.50001,-24.723354 598.50001,2.1764765 598.50001,2.1764765 L 1.5,2.1764765 L 1.5,260.72817 C 1.5,546.17969 300,658.5 300,658.5 z " />
    <g
       id="g2640"
       transform="translate(-676.52949,57.269657)" />
    <path
       id="path3284"
       style="fill:#e20909;fill-opacity:1;fill-rule:evenodd;stroke:none;stroke-width:1px;stroke-linecap:butt;stroke-linejoin:miter;stroke-opacity:1"
       d="M 1.7021204,192.07162 L 1.8568587,269.7502 C 1.4055706,279.50515 1.4033999,289.18525 3.4042409,298.53151 C 5.6965649,326.20101 11.844776,353.38853 20.734922,380.2333 L 579.57201,380.2333 C 583.82368,366.51318 588.14299,352.79305 590.79053,339.07293 C 594.1413,323.85637 596.71605,308.38114 597.59901,292.34198 L 598.52744,257.37115 L 598.52744,192.07162 L 1.7021204,192.07162 z " />
    <g
       id="g2643"
       style="display:inline">
      <path
         id="path2645"
         style="opacity:1;fill:none;fill-opacity:1;fill-rule:evenodd;stroke:#000000;stroke-width:3.00000048;stroke-linecap:butt;stroke-linejoin:miter;stroke-miterlimit:4;stroke-dasharray:none;stroke-opacity:1"
         d="M 299.99999,658.50028 C 299.99999,658.50028 1.5,546.17992 1.5,260.72828 C 1.5,-24.723336 1.5,2.1764957 1.5,2.1764957 L 598.49999,2.1764957 L 598.49999,260.72828 C 598.49999,546.17992 299.99999,658.50028 299.99999,658.50028 z " />
    </g>
    <g
       id="g2647"
       style="display:inline"
       transform="translate(-0.2862147,0.3633835)">
      <path
         id="path2649"
         style="opacity:1;fill:url(#radialGradient2651);fill-opacity:1;fill-rule:evenodd;stroke:none;stroke-width:1px;stroke-linecap:butt;stroke-linejoin:miter;stroke-opacity:1"
         d="M 300.00001,658.5 C 300.00001,658.5 598.50001,546.17969 598.50001,260.72817 C 598.50001,-24.723334 598.50001,2.1764865 598.50001,2.1764865 L 1.5,2.1764865 L 1.5,260.72817 C 1.5,546.17969 300.00001,658.5 300.00001,658.5 z " />
    </g>
  </g>
  <g
     id="g3648">
    <g
       transform="translate(599.90752,989.99999)"
       style="display:inline"
       inkscape:label="Contour final"
       id="g2424">
      <path
         inkscape:export-ydpi="144"
         inkscape:export-xdpi="144"
         id="path2426"
         style="opacity:1;fill:#ffffff;fill-opacity:1;fill-rule:evenodd;stroke:none;stroke-width:3.00000048;stroke-linecap:butt;stroke-linejoin:miter;stroke-miterlimit:4;stroke-dasharray:none;stroke-opacity:1"
         d="M 299.99999,658.50028 C 299.99999,658.50028 1.5,546.17992 1.5,260.72828 C 1.5,-24.723336 1.5,1.5577773 1.5,1.5577773 L 598.49999,1.4991835 L 598.49999,260.72828 C 598.49999,546.17992 299.99999,658.50028 299.99999,658.50028 z "
         sodipodi:nodetypes="cccccc" />
    </g>
    <g
       transform="translate(599.90752,989.99999)"
       style="display:inline"
       inkscape:label="Fond écu"
       id="g2413">
      <g
         id="g3819">
        <path
           style="fill:#e20909;fill-opacity:1;fill-rule:evenodd;stroke:none;stroke-width:1px;stroke-linecap:butt;stroke-linejoin:miter;stroke-opacity:1;display:inline"
           d="M 300,300 L 300,660 C 300,660 27.698488,557.61656 2,300 L 300,300 z "
           id="path6098" />
        <path
           style="fill:#e20909;fill-opacity:1;fill-rule:evenodd;stroke:none;stroke-width:1px;stroke-linecap:butt;stroke-linejoin:miter;stroke-opacity:1;display:inline"
           d="M 600,1.1574364 L 600,261.58766 C 600,275.1671 599.32769,288.34942 598.05277,301.15744 L 300,301.15744 L 300,1.1574364 L 600,1.1574364 z "
           id="path6100" />
        <path
           style="opacity:1;fill:#e20909;fill-opacity:1;fill-rule:evenodd;stroke:none;stroke-width:1;stroke-linecap:butt;stroke-linejoin:miter;marker:none;marker-start:none;marker-mid:none;marker-end:none;stroke-miterlimit:4;stroke-dasharray:none;stroke-dashoffset:0;stroke-opacity:1;visibility:visible;display:inline;overflow:visible;enable-background:accumulate"
           d="M 300,113.65744 L 300,188.65744 L 1.9445435,188.65744 L 1.9445435,113.65744 L 300,113.65744 z "
           id="path3030" />
        <path
           style="opacity:1;fill:#e20909;fill-opacity:1;fill-rule:evenodd;stroke:none;stroke-width:1;stroke-linecap:butt;stroke-linejoin:miter;marker:none;marker-start:none;marker-mid:none;marker-end:none;stroke-miterlimit:4;stroke-dasharray:none;stroke-dashoffset:0;stroke-opacity:1;visibility:visible;display:inline;overflow:visible;enable-background:accumulate"
           d="M 563.375,422.56369 C 549.6139,448.52628 533.69964,473.2585 517.03808,497.56369 L 239.625,497.56369 L 239.625,422.56369 L 563.375,422.56369 z "
           id="path3032"
           sodipodi:nodetypes="ccccc" />
        <path
           style="opacity:1;fill:#ffffff;fill-opacity:1;fill-rule:evenodd;stroke:none;stroke-width:1;stroke-linecap:butt;stroke-linejoin:miter;marker:none;marker-start:none;marker-mid:none;marker-end:none;stroke-miterlimit:4;stroke-dasharray:none;stroke-dashoffset:0;stroke-opacity:1;visibility:visible;display:inline;overflow:visible;enable-background:accumulate"
           d="M 300,1.75 L 300,50.1875 L 551.5625,301.75 L 598.0625,301.75 C 599.33742,288.94198 600,275.73568 600,262.15625 L 600,251.75 L 351.1875,1.75 L 300,1.75 z "
           transform="translate(-2.3841858e-7,-0.5777328)"
           id="path3034" />
        <path
           style="opacity:1;fill:#ffffff;fill-opacity:1;fill-rule:evenodd;stroke:none;stroke-width:1;stroke-linecap:butt;stroke-linejoin:miter;marker:none;marker-start:none;marker-mid:none;marker-end:none;stroke-miterlimit:4;stroke-dasharray:none;stroke-dashoffset:0;stroke-opacity:1;visibility:visible;display:inline;overflow:visible;enable-background:accumulate"
           d="M 2,300.5625 C 3.5894153,316.49572 6.1467149,331.83564 9.5,346.59375 L 300,636.5 L 300,540 L 61.46875,300.5625 L 2,300.5625 z "
           transform="translate(-2.3841858e-7,-0.5777328)"
           id="path3038" />
      </g>
    </g>
    <g
       transform="translate(599.90752,989.99999)"
       style="display:inline"
       inkscape:label="Reflet final"
       id="g2428">
      <path
         sodipodi:nodetypes="cccccc"
         d="M 299.99999,658.50028 C 299.99999,658.50028 1.5,546.17992 1.5,260.72828 C 1.5,-24.723336 1.5,1.5577773 1.5,1.5577773 L 598.49999,1.4991835 L 598.49999,260.72828 C 598.49999,546.17992 299.99999,658.50028 299.99999,658.50028 z "
         style="opacity:1;fill:none;fill-opacity:1;fill-rule:evenodd;stroke:#000000;stroke-width:3;stroke-linecap:butt;stroke-linejoin:miter;stroke-miterlimit:4;stroke-dasharray:none;stroke-opacity:1"
         id="path3645"
         inkscape:export-xdpi="144"
         inkscape:export-ydpi="144" />
      <path
         inkscape:export-ydpi="144"
         inkscape:export-xdpi="144"
         id="path2430"
         style="opacity:1;fill:url(#radialGradient2432);fill-opacity:1;fill-rule:evenodd;stroke:none;stroke-width:1px;stroke-linecap:butt;stroke-linejoin:miter;stroke-opacity:1"
         d="M 300.00001,658.5 C 300.00001,658.5 598.50001,546.17969 598.50001,260.72817 C 598.50001,-24.723334 598.50001,2.1764865 598.50001,2.1764865 L 1.5,2.1764865 L 1.5,260.72817 C 1.5,546.17969 300.00001,658.5 300.00001,658.5 z "
         sodipodi:nodetypes="cccccc" />
    </g>
  </g>
</svg>
