<?xml version="1.0" encoding="UTF-8" standalone="no"?>
<!-- Created with Inkscape (http://www.inkscape.org/) -->

<svg
   xmlns:dc="http://purl.org/dc/elements/1.1/"
   xmlns:cc="http://creativecommons.org/ns#"
   xmlns:rdf="http://www.w3.org/1999/02/22-rdf-syntax-ns#"
   xmlns:svg="http://www.w3.org/2000/svg"
   xmlns="http://www.w3.org/2000/svg"
   xmlns:sodipodi="http://sodipodi.sourceforge.net/DTD/sodipodi-0.dtd"
   xmlns:inkscape="http://www.inkscape.org/namespaces/inkscape"
   version="1.0"
   width="560"
   height="560"
   viewBox="0 0 559.99999 560"
   id="svg2380"
   xml:space="preserve"
   inkscape:version="0.47 r22583"
   sodipodi:docname="Goshichi_no_kiri_inverted.svg"><metadata
   id="metadata20"><rdf:RDF><cc:Work
       rdf:about=""><dc:format>image/svg+xml</dc:format><dc:type
         rdf:resource="http://purl.org/dc/dcmitype/StillImage" /></cc:Work></rdf:RDF></metadata><sodipodi:namedview
   pagecolor="#ffffff"
   bordercolor="#666666"
   borderopacity="1"
   objecttolerance="10"
   gridtolerance="10"
   guidetolerance="10"
   inkscape:pageopacity="0"
   inkscape:pageshadow="2"
   inkscape:window-width="1280"
   inkscape:window-height="975"
   id="namedview18"
   showgrid="false"
   inkscape:zoom="1.2431706"
   inkscape:cx="347.21167"
   inkscape:cy="291.99533"
   inkscape:window-x="-4"
   inkscape:window-y="-4"
   inkscape:window-maximized="1"
   inkscape:current-layer="svg2380" /><defs
   id="defs2400"><inkscape:perspective
   sodipodi:type="inkscape:persp3d"
   inkscape:vp_x="0 : 256 : 1"
   inkscape:vp_y="0 : 1000 : 0"
   inkscape:vp_z="775.99951 : 256 : 1"
   inkscape:persp3d-origin="387.99976 : 170.66667 : 1"
   id="perspective22" />
			 
		</defs>
	
		<rect
   id="rect2385"
   y="0"
   x="-3.1581412e-06"
   height="560"
   width="560" />
		<g
   id="Ebene_7"
   transform="translate(-107.99937,18.500738)">
			<path
   d="m 245.74219,212.58203 c 6.1792,-4.7168 8.3667,-5.44238 15.84912,-5.25586 3.74756,0.0928 7.15381,0.45215 7.56933,0.79785 1.93897,1.60743 14.42872,3.69629 18.50733,3.09473 3.15967,-0.46875 6.78076,-3.00977 8.64844,-6.07422 1.55908,-2.55762 1.70312,-7.56055 0.28662,-10.03515 -1.30616,-2.28614 -1.27491,-5.15625 0.0967,-8.98536 1.44482,-4.03027 0.92041,-6.08593 -2.49903,-9.79687 -2.02929,-2.19922 -3.71289,-3.23731 -6.74902,-4.15527 -3.97314,-1.20411 -4.10937,-1.2002 -7.92725,0.22753 -4.80615,1.79883 -5.93457,1.8086 -9.31836,0.083 -5.29345,-2.70117 -12.82275,-1.17187 -16.65673,3.38281 -2.07813,2.47071 -2.28321,4.55274 -1.14014,11.6084 1.08008,6.65235 -1.27637,12.0459 -6.49023,14.8545 -4.60743,2.47949 -5.87403,-0.90821 -5.88086,-15.70997 -0.003,-11.97949 0.61816,-14.59765 4.41552,-18.59765 4.11573,-4.33496 9.03565,-6.04688 15.9253,-5.54102 16.66064,1.22656 18.91894,1.17969 22.12695,-0.45117 4.77002,-2.42187 5.80176,-4.33691 5.67529,-10.5332 -0.0801,-3.91992 0.23242,-5.97852 1.24512,-8.19824 1.91748,-4.20997 1.77978,-8.94825 -0.35303,-12.08497 -1.99609,-2.94043 -7.55273,-5.35546 -12.32129,-5.35546 -2.00927,0 -4.38134,-0.70704 -7.19091,-2.14454 -3.25684,-1.66699 -4.77247,-2.06738 -6.80225,-1.79589 -3.3794,0.4541 -8.01758,3.40234 -9.69824,6.16699 -1.93213,3.17773 -3.42237,10.58984 -3.4419,17.10742 -0.0146,6.45508 -1.24658,9.95215 -4.61719,13.11719 -1.48144,1.39062 -2.61865,1.875 -4.02197,1.71484 -1.6875,-0.19433 -2.02148,-0.60156 -2.4375,-2.96777 -0.79297,-4.49414 -0.54199,-22.40528 0.34815,-24.78809 1.04882,-2.82422 5.53076,-7.77148 9.22265,-10.18652 1.78272,-1.16504 4.27198,-3.91699 6.3418,-7.01367 3.104,-4.64063 3.40771,-5.44727 3.40771,-9.05078 0,-5.2168 -1.80615,-7.94727 -7.06787,-10.670903 -2.1831,-1.132812 -4.80078,-3.138672 -5.81689,-4.458008 -2.9419,-3.820312 -5.77686,-6.147461 -8.36768,-6.867187 -5.34375,-1.484375 -7.73584,-0.514649 -12.55224,5.08789 -1.84619,2.147461 -4.1045,4.029297 -5.14307,4.285157 -7.09912,1.752929 -12.89941,11.333981 -10.54394,17.423831 1.02636,2.65429 7.23388,9.13476 11.40185,11.90039 8.95752,5.94531 12.03565,13.04785 12.03565,27.77051 0,10.50195 -0.90625,11.5996 -5.9878,7.25195 -3.74609,-3.20899 -5.5332,-7.15332 -6.38672,-14.11035 -0.93457,-7.60743 -2.458,-12.91114 -4.32714,-15.06934 -0.83545,-0.96484 -2.99415,-2.46777 -4.79834,-3.34082 -4.09913,-1.98437 -6.80225,-1.70117 -13.21094,1.38086 -3.41309,1.64355 -5.94727,2.34668 -9.17285,2.5498 -3.64551,0.22754 -4.81055,0.60938 -6.40332,2.09278 -4.32032,4.02441 -4.88526,7.7334 -2.06104,13.50586 1.81934,3.71386 1.8208,3.72461 0.5835,6.4707 -1.18897,2.63477 -1.19043,2.86328 -0.0332,5.43164 0.71289,1.57813 2.5044,3.61231 4.35987,4.94238 2.73535,1.96582 3.64599,2.24707 6.98242,2.1543 2.10742,-0.0586 4.67627,-0.42578 5.70654,-0.81836 1.03076,-0.3916 5.646,-0.91406 10.25537,-1.16015 7.68897,-0.41114 8.64991,-0.3252 11.65039,1.04199 4.08887,1.86133 9.29248,7.2998 11.0752,11.56836 1.1543,2.76757 1.34277,4.72754 1.28027,13.30957 -0.0855,11.43066 -0.72803,13.79785 -3.84472,14.15527 -4.03565,0.46484 -6.49268,-4.34473 -7.36914,-14.41602 -0.41602,-4.80371 -1.08838,-7.91503 -2.26319,-10.47851 -1.5083,-3.29883 -2.09082,-3.84766 -6.12207,-5.77051 -6.47754,-3.0918 -7.85693,-2.88867 -15.91162,2.3457 -2.90869,1.89063 -4.21826,2.2754 -8.63867,2.54102 -5.88721,0.35254 -7.77051,1.36719 -10.12354,5.45703 -1.99951,3.47363 -1.84277,6.02149 0.68018,11.02051 2.04883,4.05859 2.11035,4.40332 1.30176,7.55176 -1.12744,4.39941 -0.46387,7.37597 2.26904,10.18066 2.79199,2.86328 7.47314,4.33106 13.52734,4.24317 3.80323,-0.0557 5.29395,-0.47364 9.59912,-2.69434 4.64844,-2.39649 5.58204,-2.62988 10.58497,-2.64356 5.68505,-0.0156 6.76757,0.37793 11.43359,4.1543 1.62891,1.32031 2.64746,1.48242 9.13379,1.45899 7.13525,-0.0244 7.36523,-0.0762 10.16504,-2.21192 z"
   style="fill:#ffffff"
   id="path2319" />
			<path
   d="m 456.31787,196.26172 c -2.18359,-2.9834 -2.20703,-3.09375 -1.76953,-8.5459 0.38672,-4.88574 0.27344,-5.78418 -0.99023,-7.78613 -1.84375,-2.92676 -6.10547,-5.25684 -9.5625,-5.22656 -1.48829,0.0137 -5.16797,0.37792 -8.1709,0.80859 -4.91407,0.70605 -5.88965,0.64453 -9.74707,-0.61914 l -4.29004,-1.40235 -4.66699,1.43653 c -3.73243,1.14648 -5.21485,2.03613 -7.37793,4.4248 -4.48731,4.95508 -5.88672,10.14649 -8.83008,32.76074 -0.86621,6.66114 -1.95313,8.93067 -4.28125,8.95118 -3.97168,0.0352 -4.65137,-3.42969 -4.04981,-20.61621 0.59375,-16.90918 1.39551,-20.39356 5.85645,-25.44532 3.60058,-4.07715 10.25879,-8 14.44238,-8.51074 1.69727,-0.20703 8.1709,-0.75683 14.38867,-1.22266 15.14649,-1.13574 20.24219,-3.1416 23.24219,-9.14843 1.73242,-3.47657 1.69727,-4.13867 -0.56445,-10.35547 -1.79883,-4.94336 -1.85157,-5.41113 -1.01563,-9.03613 0.72656,-3.15528 0.72071,-4.21973 -0.0351,-6.08399 -1.31641,-3.25488 -3.96094,-5.81738 -7.27539,-7.0498 -2.57813,-0.95996 -3.19922,-0.96289 -5.8711,-0.0342 -2.76758,0.96289 -3.24023,0.93945 -6.43945,-0.32325 -5.04297,-1.99023 -6.00488,-2.07324 -9.58399,-0.82324 -7.52441,2.62989 -11.36035,8.19629 -13.20019,19.16114 -0.66113,3.94238 -1.05176,8.53418 -0.86621,10.20214 0.41992,3.78223 -1.1875,7.20899 -4.41211,9.40528 -2.98535,2.03222 -4.50879,2.0039 -6.67969,-0.12989 l -1.75781,-1.72949 0.1123,-13.51269 c 0.11328,-13.38867 0.13282,-13.54492 2.0127,-16.80957 3.34961,-5.81348 13.39453,-12.61524 23.20508,-15.71485 5.56152,-1.75488 8.1582,-1.86621 12.0957,-0.5166 1.68945,0.5791 5.30176,0.98047 8.56445,0.95215 4.73633,-0.042 6.00977,-0.30273 7.94727,-1.63281 1.26562,-0.87207 2.70117,-2.34961 3.18359,-3.28516 1.35742,-2.61816 0.57031,-7.13086 -1.73633,-9.970702 -3.58984,-4.425781 -3.95898,-5.475586 -2.76757,-7.916016 3.36718,-6.90332 -1.25,-14.269531 -8.90332,-14.202148 -2.71582,0.02441 -3.55176,-0.328125 -5.76954,-2.426758 -5.29394,-5.007812 -8.56542,-6.032227 -12.54882,-3.926758 -4.69629,2.481446 -6.98047,7.889649 -10.15918,24.046875 -2.23828,11.383787 -3.92383,15.558597 -7.61328,18.857427 -2.59961,2.32226 -3.75293,2.62304 -5.85352,1.52441 -1.93066,-1.0127 -2.26953,-4.18457 -1.6582,-15.545899 0.74023,-13.802735 1.53418,-15.554688 11.59765,-25.675781 9.07813,-9.128907 11.07813,-12.800782 10.99707,-20.199219 -0.042,-4.030274 -0.32519,-5.063477 -2.06152,-7.523438 -1.22852,-1.740234 -3.30078,-3.475586 -5.3125,-4.453125 -2.00977,-0.976562 -5.07227,-3.542968 -7.84863,-6.577148 -2.50098,-2.737305 -5.48731,-5.293945 -6.63574,-5.681641 -1.89649,-0.642578 -3.78125,-0.803711 -5.65821,-0.499023 -1.87597,-0.304688 -3.76172,-0.143555 -5.65771,0.499023 -1.14844,0.387696 -4.13428,2.944336 -6.63477,5.681641 -2.77685,3.03418 -5.83984,5.600586 -7.85058,6.577148 -2.01123,0.977539 -4.08301,2.712891 -5.31153,4.453125 -1.73633,2.459961 -2.02051,3.493164 -2.06152,7.523438 -0.0811,7.398437 1.91846,11.070312 10.99805,20.199219 10.0625,10.121093 10.85644,11.873047 11.59619,25.675781 0.61084,11.361329 0.27295,14.533199 -1.65772,15.545899 -2.10156,1.09863 -3.25439,0.79785 -5.85302,-1.52441 -3.69043,-3.29883 -5.37696,-7.47364 -7.61426,-18.857427 -3.17871,-16.157226 -5.46192,-21.565429 -10.15869,-24.046875 -3.98487,-2.105469 -7.25586,-1.081054 -12.54932,3.926758 -2.21729,2.098633 -3.05371,2.451172 -5.76904,2.426758 -7.65235,-0.06738 -12.271,7.298828 -8.9043,14.202148 1.19043,2.44043 0.82275,3.490235 -2.76709,7.916016 -2.30713,2.839842 -3.09326,7.352542 -1.73633,9.970702 0.48291,0.93555 1.91699,2.41309 3.1836,3.28516 1.9375,1.33008 3.21142,1.59082 7.94677,1.63281 3.26319,0.0283 6.87598,-0.37305 8.56494,-0.95215 3.9375,-1.34961 6.53467,-1.23828 12.0962,0.5166 9.81054,3.09961 19.85546,9.90137 23.20459,15.71485 1.88037,3.26465 1.8999,3.4209 2.0122,16.80957 l 0.11475,13.51269 -1.75977,1.72949 c -2.17138,2.13379 -3.69336,2.16211 -6.6792,0.12989 -3.22412,-2.19629 -4.83203,-5.62305 -4.41211,-9.40528 0.18555,-1.66796 -0.20507,-6.25976 -0.86621,-10.20214 -1.83984,-10.96485 -5.67578,-16.53125 -13.20019,-19.16114 -3.57959,-1.25 -4.54053,-1.16699 -9.58447,0.82324 -3.19874,1.2627 -3.67139,1.28614 -6.43995,0.32325 -2.67041,-0.92871 -3.29101,-0.92578 -5.8706,0.0342 -3.31397,1.23242 -5.95899,3.79492 -7.27588,7.0498 -0.75537,1.86426 -0.76221,2.92871 -0.0356,6.08399 0.83789,3.625 0.78466,4.09277 -1.01514,9.03613 -2.26074,6.2168 -2.29639,6.8789 -0.56348,10.35547 2.99903,6.00683 8.09473,8.01269 23.24121,9.14843 6.21875,0.46583 12.69287,1.01563 14.38965,1.22266 4.18457,0.51074 10.84131,4.43359 14.44238,8.51074 4.46143,5.05176 5.26221,8.53614 5.85596,25.44532 0.60254,17.18652 -0.0776,20.65136 -4.05029,20.61621 -2.32764,-0.0205 -3.41504,-2.29004 -4.28125,-8.95118 -2.9419,-22.61425 -4.34131,-27.80566 -8.8291,-32.76074 -2.16407,-2.38867 -3.64698,-3.27832 -7.37745,-4.4248 l -4.66845,-1.43653 -4.28906,1.40235 c -3.8584,1.26367 -4.8335,1.32519 -9.74707,0.61914 -3.00342,-0.43067 -6.6836,-0.79492 -8.17237,-0.80859 -3.45654,-0.0303 -7.71728,2.2998 -9.56299,5.22656 -1.26123,2.00195 -1.37597,2.90039 -0.98828,7.78613 0.43701,5.45215 0.4126,5.5625 -1.77002,8.5459 -3.10791,4.24707 -3.62842,6.45703 -2.47119,10.48144 1.60205,5.58204 9.31543,11.12793 16.94043,12.18457 1.85596,0.25684 3.70508,0.67579 4.10547,0.93262 0.40234,0.25586 5.50977,0.6836 11.354,0.94922 9.46045,0.42871 11.03662,0.67676 14.38526,2.25879 4.05029,1.91602 6.85888,4.31348 9.83349,8.40332 0.20362,0.2793 2.07129,2.65039 3.38819,4.30664 2.99511,-2.28418 6.72412,-3.65723 10.78271,-3.65723 4.07422,0 7.81738,1.38379 10.81934,3.68555 1.14746,-1.44043 3.02539,-3.88769 3.35254,-4.33496 2.97265,-4.08984 5.7832,-6.4873 9.83398,-8.40332 3.34766,-1.58203 4.92383,-1.83008 14.38477,-2.25879 5.84277,-0.26562 10.95117,-0.69336 11.35351,-0.94922 0.40039,-0.25683 2.25,-0.67578 4.10547,-0.93262 7.625,-1.05664 15.33789,-6.60253 16.94141,-12.18457 1.15625,-4.02441 0.63476,-6.23437 -2.47266,-10.48144 z"
   style="fill:#ffffff"
   id="path2321" />
			<path
   d="m 530.25537,212.58203 c -6.17969,-4.7168 -8.36523,-5.44238 -15.84766,-5.25586 -3.74804,0.0928 -7.15429,0.45215 -7.57031,0.79785 -1.9375,1.60743 -14.42773,3.69629 -18.50586,3.09473 -3.16015,-0.46875 -6.78125,-3.00977 -8.65039,-6.07422 -1.55859,-2.55762 -1.70117,-7.56055 -0.28515,-10.03515 1.30468,-2.28614 1.27539,-5.15625 -0.0977,-8.98536 -1.44336,-4.03027 -0.91992,-6.08593 2.5,-9.79687 2.0293,-2.19922 3.71289,-3.23731 6.74805,-4.15527 3.97461,-1.20411 4.11133,-1.2002 7.92773,0.22753 4.80664,1.79883 5.93555,1.8086 9.31836,0.083 5.29492,-2.70117 12.82227,-1.17187 16.65625,3.38281 2.08008,2.47071 2.28516,4.55274 1.14063,11.6084 -1.08008,6.65235 1.27734,12.0459 6.49023,14.8545 4.60742,2.47949 5.87305,-0.90821 5.88086,-15.70997 0.004,-11.97949 -0.61914,-14.59765 -4.41602,-18.59765 -4.11523,-4.33496 -9.03515,-6.04688 -15.92382,-5.54102 -16.66211,1.22656 -18.91993,1.17969 -22.12891,-0.45117 -4.76758,-2.42187 -5.80078,-4.33691 -5.67383,-10.5332 0.0801,-3.91992 -0.23242,-5.97852 -1.24609,-8.19824 -1.91602,-4.20997 -1.7793,-8.94825 0.35351,-12.08497 1.9961,-2.94043 7.55274,-5.35546 12.32227,-5.35546 2.00976,0 4.38086,-0.70704 7.18945,-2.14454 3.25781,-1.66699 4.77344,-2.06738 6.80274,-1.79589 3.3789,0.4541 8.01757,3.40234 9.69922,6.16699 1.93164,3.17773 3.42187,10.58984 3.4414,17.10742 0.0137,6.45508 1.2461,9.95215 4.61719,13.11719 1.48047,1.39062 2.61719,1.875 4.02148,1.71484 1.6875,-0.19433 2.02149,-0.60156 2.4375,-2.96777 0.79297,-4.49414 0.54102,-22.40528 -0.34765,-24.78809 -1.05078,-2.82422 -5.53125,-7.77148 -9.22266,-10.18652 -1.7832,-1.16504 -4.27148,-3.91699 -6.34375,-7.01367 -3.10351,-4.64063 -3.40625,-5.44727 -3.40625,-9.05078 0,-5.2168 1.80664,-7.94727 7.06641,-10.670903 2.18359,-1.132812 4.80273,-3.138672 5.81836,-4.458008 2.9414,-3.820312 5.77734,-6.147461 8.36718,-6.867187 5.34375,-1.484375 7.73633,-0.514649 12.55274,5.08789 1.8457,2.147461 4.10547,4.029297 5.14258,4.285157 7.09961,1.752929 12.90039,11.333981 10.54492,17.423831 -1.02735,2.65429 -7.23438,9.13476 -11.40235,11.90039 -8.95703,5.94531 -12.03515,13.04785 -12.03515,27.77051 0,10.50195 0.90625,11.5996 5.98828,7.25195 3.74414,-3.20899 5.53125,-7.15332 6.38477,-14.11035 0.93554,-7.60743 2.45898,-12.91114 4.32812,-15.06934 0.83398,-0.96484 2.99414,-2.46777 4.79883,-3.34082 4.09961,-1.98437 6.80273,-1.70117 13.21094,1.38086 3.41211,1.64355 5.94531,2.34668 9.17187,2.5498 3.64649,0.22754 4.81055,0.60938 6.4043,2.09278 4.31836,4.02441 4.88476,7.7334 2.05859,13.50586 -1.81836,3.71386 -1.82031,3.72461 -0.58203,6.4707 1.1875,2.63477 1.18945,2.86328 0.0332,5.43164 -0.71289,1.57813 -2.50586,3.61231 -4.35937,4.94238 -2.73438,1.96582 -3.64649,2.24707 -6.98242,2.1543 -2.10743,-0.0586 -4.67578,-0.42578 -5.70703,-0.81836 -1.03125,-0.3916 -5.64454,-0.91406 -10.25586,-1.16015 -7.6875,-0.41114 -8.65039,-0.3252 -11.65039,1.04199 -4.08594,1.86133 -9.29102,7.2998 -11.07422,11.56836 -1.1543,2.76757 -1.34375,4.72754 -1.28125,13.30957 0.0859,11.43066 0.72851,13.79785 3.8457,14.15527 4.03516,0.46484 6.49219,-4.34473 7.36914,-14.41602 0.41602,-4.80371 1.08789,-7.91503 2.26172,-10.47851 1.50976,-3.29883 2.0918,-3.84766 6.12305,-5.77051 6.47851,-3.0918 7.85742,-2.88867 15.91015,2.3457 2.91016,1.89063 4.22071,2.2754 8.64063,2.54102 5.88672,0.35254 7.76953,1.36719 10.12304,5.45703 2,3.47363 1.8418,6.02149 -0.68164,11.02051 -2.04687,4.05859 -2.10742,4.40332 -1.30078,7.55176 1.12891,4.39941 0.46485,7.37597 -2.26953,10.18066 -2.79101,2.86328 -7.47266,4.33106 -13.52539,4.24317 -3.80273,-0.0557 -5.29492,-0.47364 -9.59961,-2.69434 -4.64844,-2.39649 -5.58203,-2.62988 -10.58398,-2.64356 -5.68555,-0.0156 -6.76953,0.37793 -11.43555,4.1543 -1.62891,1.32031 -2.64648,1.48242 -9.13281,1.45899 -7.13477,-0.0244 -7.36524,-0.0762 -10.16602,-2.21192 z"
   style="fill:#ffffff"
   id="path2323" />
			<circle
   cx="387.99951"
   cy="249.93848"
   r="14.206055"
   style="fill:#ffffff"
   id="circle35"
   sodipodi:cx="387.99951"
   sodipodi:cy="249.93848"
   sodipodi:rx="14.206055"
   sodipodi:ry="14.206055"
   d="m 402.20557,249.93848 c 0,7.84578 -6.36027,14.20605 -14.20606,14.20605 -7.84579,0 -14.20605,-6.36027 -14.20605,-14.20605 0,-7.84579 6.36026,-14.20606 14.20605,-14.20606 7.84579,0 14.20606,6.36027 14.20606,14.20606 z" /> 
			<path
   d="m 391.64014,265.71387 c -0.48047,5.27539 -0.95118,10.76953 -1.167,16.02441 23.64161,12.38379 45.67383,28.62012 61.45801,50.37891 15.5293,23.67969 27.8125,52.31152 23.95313,81.35156 -2.00391,-10.38281 -2.63672,-20.77344 -4.91797,-31.15625 -10.47852,-41.78223 -41.9668,-75.72363 -79.89844,-95.10645 -0.22949,5.47559 -0.18066,10.94629 -0.13476,16.41993 20.07812,11.60156 38.0039,27.5957 50.48632,47.46386 16.93164,28.04786 21.6211,64.40235 9.02344,95.43848 2.58203,-18.08496 3.79297,-36.43457 1.72461,-54.47754 -6.04687,-35.25586 -29.57422,-66.24805 -61.18359,-82.67871 -0.21387,7.39453 -0.1543,14.50879 -0.36426,21.89844 16.22754,9.43945 30.8457,23 38.66113,40.44824 12.27539,27.53711 12.28906,61.2002 -1.44043,88.41309 3.90723,-23.29883 9.72363,-47.16016 2.68653,-70.36036 -4.84571,-22.66992 -20.33594,-41.96972 -40.4043,-52.4746 0.32617,6.01464 -1.52442,13.42382 2.89746,18.58203 25.42969,29.89062 30.47168,75.55078 13.80176,110.7207 1.26562,-12.32422 4.72168,-24.39063 4.61425,-36.9834 1.70801,-24.36816 -4.53222,-50.3125 -21.1123,-68.78516 -0.28027,31.20118 0.53125,62.39551 0.24805,93.32227 -0.23242,4.92773 -1.01367,9.58594 -2.3418,14.25195 -0.0923,-0.40332 -0.14502,-0.80957 -0.229,-1.21386 -0.085,0.40429 -0.13526,0.81054 -0.22705,1.21386 -1.33252,-4.66601 -2.10791,-9.32422 -2.34375,-14.25195 -0.28321,-30.92676 0.52734,-62.12109 0.24951,-93.32227 -16.57862,18.47266 -22.82227,44.417 -21.11475,68.78516 -0.10596,12.59277 3.34619,24.65918 4.61279,36.9834 -16.66503,-35.16992 -11.62353,-80.83008 13.8042,-110.7207 4.4209,-5.15821 2.57129,-12.56739 2.896,-18.58203 -20.06592,10.50488 -35.55811,29.80468 -40.40527,52.4746 -7.03321,23.2002 -1.21778,47.06153 2.69043,70.36036 -13.73291,-27.21289 -13.71729,-60.87598 -1.44483,-88.41309 7.81592,-17.44824 22.43897,-31.00879 38.66309,-40.44824 -0.21338,-7.38965 -0.14893,-14.50391 -0.36377,-21.89844 -31.60645,16.43066 -55.13623,47.42285 -61.18604,82.67871 -2.06738,18.04297 -0.85498,36.39258 1.72998,54.47754 -12.60205,-31.03613 -7.91113,-67.39062 9.01807,-95.43848 12.48877,-19.86816 30.41357,-35.8623 50.48779,-47.46386 0.0488,-5.47364 0.0923,-10.94434 -0.13525,-16.41993 -37.9292,19.38282 -69.41699,53.32422 -79.896,95.10645 -2.27783,10.38281 -2.91113,20.77344 -4.91845,31.15625 -3.85987,-29.04004 8.42138,-57.67187 23.95361,-81.35156 15.78516,-21.75879 37.81689,-37.99512 61.46094,-50.37891 -0.22168,-5.25488 -0.6919,-10.74902 -1.16748,-16.02441 -63.85889,22.23437 -107.29248,90.15234 -104.8501,156.88769 1.01806,9.03418 8.3501,15.12305 15.42676,19.83203 4.36328,2.2295 4.58349,7.70508 6.75,11.82813 7.49462,19.22168 31.21582,29.27539 50.42382,23.41894 9.90821,8.74903 22.08887,17.2461 35.88575,16.81641 13.79541,0.42969 25.979,-8.06738 35.8833,-16.81641 19.20898,5.85645 42.93164,-4.19726 50.43164,-23.41894 2.15625,-4.12305 2.38281,-9.59863 6.74219,-11.82813 7.07617,-4.70898 14.4121,-10.79785 15.43164,-19.83203 2.43945,-66.73535 -40.99414,-134.65332 -104.84961,-156.88769 z"
   style="fill:#ffffff"
   id="path16" />
			<path
   d="m 446.19482,269.21875 c -7.41015,-2.6709 -14.82128,-5.34375 -22.23535,-8.01758 2.79785,7.09473 4.23633,15.29102 8.93848,21.27051 7.99805,6.77246 15.98828,13.54785 23.44141,21.14941 -3.92969,-11.46386 -7.03516,-22.93066 -10.14454,-34.40234 z"
   style="fill:#ffffff"
   id="path18" />
			<path
   d="m 614.97803,292.41504 c 3.97265,-15.35938 3.00976,-32.04395 -6.40625,-45.09961 -11.91797,-17.96191 -34.4043,-22.96973 -54.14844,-27.45508 -50.67578,-7.73144 -104.57031,1.38672 -152.37695,19.37695 2.26855,2.97266 3.62988,6.67383 3.62988,10.70118 0,0.40527 -0.0342,0.80175 -0.0596,1.19922 3.95019,1.58007 10.32812,3.64746 14.19531,4.89941 28.05469,-15.83789 60.53125,-26.51367 93.13672,-21.86621 29.32031,4.4043 58.96875,15.09863 80.76563,35.98633 -26.95508,-15.91895 -55.8125,-30.17578 -87.57227,-31.82227 -27.66602,-2.77539 -54.68359,5.93848 -78.6582,19.00586 7.13867,2.67383 14.01562,6.72363 21.95898,7.47461 5.74024,-0.86816 11.19141,-3.37988 16.65234,-5.06641 48.84766,-16.28906 106.4961,4.56934 136.4043,45.6377 -6.06054,-4.60449 -11.31054,-10.30469 -17.0957,-15.17969 -19.29492,-15.98144 -43.19141,-25.9082 -67.58594,-30.35254 -21.10156,-3.65136 -42.41406,0.63477 -62.33008,7.91602 5.77735,3.23926 11.28321,7.02637 17.59766,9.43262 18.05664,-0.70118 37.18555,-3.87305 54.48437,3.09472 29.92774,10.96485 57.47266,32.08008 72.21875,60.68848 -16.02148,-17.65137 -31.23242,-36.40625 -52.67578,-47.71778 -19.5332,-12.14843 -43.65429,-16.32421 -66.33593,-12.57226 9.36328,6.76172 18.4707,15.71973 30.79101,16.15723 35.89453,5.4414 64.88281,35.02539 73.38867,69.98828 -8.02148,-10.33496 -12.23632,-23.16016 -20.80468,-32.94141 -13.28125,-17.39746 -33.09375,-29.82617 -55.01172,-32.64746 27.86914,26.58691 53.06054,60.58105 53.94726,100.5293 -9.06836,-36.59766 -26.89062,-72.57032 -56.91797,-96.125 7.89453,27.57812 25.60547,50.41113 39.5,75.20215 -7.71875,-6.23243 -12.98828,-14.94239 -18.53125,-23.1045 -10.8164,-16.60742 -20.81836,-34.03515 -26.99804,-52.86523 -2.55469,-10.65235 -14.35352,-14.38574 -22.33594,-20.06152 5.38672,22.39257 14.87305,43.66015 25.99219,63.81933 10.00781,18.52051 24.10547,34.82129 35.47851,52.79297 -32.83789,-32.0166 -55.9082,-73.69629 -66.95898,-118.20801 -4.4336,-6.25879 -13.75586,-8.09375 -20.35547,-11.86914 4.53711,18.57324 9.35351,37.6875 20.43359,53.46485 9.70313,14.69824 16.95899,31.05664 24.75782,46.86328 5.56445,10.90332 13.58203,20.41113 19.14843,31.58398 -7.71484,-6.23242 -12.71289,-14.94531 -19.07422,-22.55566 1.74024,11.48437 3.48243,23.23242 4.40625,34.99707 8.77539,2.11133 18.375,4.76562 27.10157,1.13574 5.73828,-1.14356 11.17187,-5.56738 16.9375,-3.43262 8.22851,2.12305 17.00195,3.96094 25.18554,0.88281 19.11719,-4.8125 31.54297,-23.80175 32.20313,-42.96484 15.00586,-5.60254 27.75976,-18.02441 30.63476,-34.19824 3.6836,-16.99707 -4.94921,-34.71192 -18.71679,-44.72461 z"
   style="fill:#ffffff"
   id="path24" />
			<path
   d="m 399.66943,263.19434 c 7.52735,3.98046 16.78809,9.19628 24.14649,13.05664 -1.69141,-5.45703 -3.65332,-11.18653 -5.61914,-16.917 -3.72949,-0.96093 -9.23145,-2.86621 -13.29688,-4.208 -0.96875,3.16211 -2.81054,5.93554 -5.23047,8.06836 z"
   style="fill:#ffffff"
   id="path26" />
			<path
   d="m 373.99463,239.18359 c -47.85449,-18.04101 -101.66943,-27.0664 -152.41406,-19.32324 -19.74805,4.48535 -42.22901,9.49317 -54.14844,27.45508 -9.41748,13.05566 -10.38379,29.74023 -6.40576,45.09961 -13.76905,10.01269 -22.40381,27.72754 -18.72412,44.72461 2.87646,16.17383 15.63427,28.5957 30.64111,34.19824 0.6543,19.16309 13.08447,38.15234 32.19922,42.96484 8.18701,3.07813 16.95801,1.24024 25.18701,-0.88281 5.7666,-2.13476 11.19824,2.28906 16.93555,3.43262 8.72802,3.62988 18.33252,0.97559 27.10351,-1.13574 0.92334,-11.76465 2.66992,-23.5127 4.40528,-34.99707 -6.35645,7.61035 -11.3545,16.32324 -19.07129,22.55566 5.56689,-11.17285 13.58349,-20.68066 19.15088,-31.58398 7.79492,-15.80664 15.04687,-32.16504 24.75146,-46.86328 11.08398,-15.77735 15.89648,-34.89161 20.43164,-53.46485 -6.59961,3.77539 -15.91748,5.61035 -20.35351,11.86914 -11.04932,44.51172 -34.11426,86.19141 -66.96094,118.20801 11.37744,-17.97168 25.47314,-34.27246 35.48047,-52.79297 11.12011,-20.15918 20.60986,-41.42676 26,-63.81933 -7.98731,5.67578 -19.78418,9.40917 -22.33985,20.06152 -6.17968,18.83008 -16.18115,36.25781 -26.99609,52.86523 -5.54492,8.16211 -10.81348,16.87207 -18.53711,23.1045 13.896,-24.79102 31.60889,-47.62403 39.50439,-75.20215 -30.03027,23.55468 -47.85449,59.52734 -56.91748,96.125 0.88282,-39.94825 26.07666,-73.94239 53.94776,-100.5293 -21.91895,2.82129 -41.73242,15.25 -55.01612,32.64746 -8.56347,9.78125 -12.77783,22.60645 -20.80127,32.94141 8.50635,-34.96289 37.49561,-64.54688 73.39014,-69.98828 12.31445,-0.4375 21.42725,-9.39551 30.78858,-16.15723 -22.68018,-3.75195 -46.79981,0.42383 -66.34131,12.57226 -21.43604,11.31153 -36.64746,30.06641 -52.67383,47.71778 14.75146,-28.6084 42.29394,-49.72363 72.22217,-60.68848 17.30029,-6.96777 36.42871,-3.7959 54.48193,-3.09473 6.31641,-2.40625 11.82471,-6.19335 17.59863,-9.43261 -19.91162,-7.28125 -41.22754,-11.56739 -62.32714,-7.91602 -24.39698,4.44434 -48.29493,14.3711 -67.58838,30.35254 -5.7876,4.875 -11.0337,10.5752 -17.09229,15.17969 29.90772,-41.06836 87.55567,-61.92676 136.40039,-45.6377 5.45996,1.68653 10.9126,4.19825 16.65137,5.06641 7.9458,-0.75098 14.82129,-4.80078 21.96338,-7.47461 -23.97901,-13.06738 -50.9961,-21.78125 -78.66016,-19.00586 -31.76416,1.64649 -60.61816,15.90332 -87.57666,31.82227 21.79736,-20.8877 51.44922,-31.58203 80.77197,-35.98633 32.60547,-4.64746 65.08204,6.02832 93.13672,21.86621 4.1167,-1.33399 9.91553,-3.20703 13.7583,-4.81445 0.15186,-0.20801 0.26905,-0.41309 0.40577,-0.61914 -0.008,-0.22168 -0.0347,-0.44043 -0.0347,-0.66504 0,-4.05078 1.37939,-7.77442 3.67285,-10.75489 z"
   style="fill:#ffffff"
   id="path28" />
			<path
   d="m 371.12939,255.23047 c -4.07031,1.32519 -9.57617,3.13769 -13.32861,4.10351 -1.96387,5.73047 -3.9209,11.45997 -5.61572,16.917 7.50195,-3.93555 16.58984,-9.03907 24.16992,-13.03418 -2.40625,-2.11231 -4.24365,-4.85645 -5.22559,-7.98633 z"
   style="fill:#ffffff"
   id="path30" />
			<path
   d="m 319.65918,303.62109 c 7.46045,-7.60156 15.44775,-14.37695 23.44189,-21.14941 4.70655,-5.97949 6.14454,-14.17578 8.94141,-21.27051 -7.41113,2.67383 -14.82812,5.34668 -22.23242,8.01758 -3.11035,11.47168 -6.22266,22.93848 -10.15088,34.40234 z"
   style="fill:#ffffff"
   id="path32" />
		</g>
	</svg>