<?xml version="1.0" encoding="UTF-8" standalone="no"?>
<!-- Created with Inkscape (http://www.inkscape.org/) -->

<svg
   width="159.59328mm"
   height="77.318848mm"
   viewBox="0 0 159.59328 77.318848"
   version="1.1"
   id="svg1"
   xml:space="preserve"
   inkscape:version="1.3.2 (091e20e, 2023-11-25)"
   sodipodi:docname="vidame-coronet-encyclopedia-americana.svg"
   xmlns:inkscape="http://www.inkscape.org/namespaces/inkscape"
   xmlns:sodipodi="http://sodipodi.sourceforge.net/DTD/sodipodi-0.dtd"
   xmlns="http://www.w3.org/2000/svg"
   xmlns:svg="http://www.w3.org/2000/svg"><sodipodi:namedview
     id="namedview1"
     pagecolor="#505050"
     bordercolor="#ffffff"
     borderopacity="1"
     inkscape:showpageshadow="0"
     inkscape:pageopacity="0"
     inkscape:pagecheckerboard="1"
     inkscape:deskcolor="#d1d1d1"
     inkscape:document-units="mm"
     inkscape:zoom="0.84096521"
     inkscape:cx="184.31202"
     inkscape:cy="188.47391"
     inkscape:window-width="1472"
     inkscape:window-height="892"
     inkscape:window-x="0"
     inkscape:window-y="64"
     inkscape:window-maximized="0"
     inkscape:current-layer="layer1" /><defs
     id="defs1" /><g
     inkscape:label="Layer 1"
     inkscape:groupmode="layer"
     id="layer1"
     transform="translate(-25.1195,-112.35608)"><path
       style="display:inline;fill:#000000"
       d="m 111.13412,189.3442 c 0.0606,-0.1819 0.38806,-0.33073 0.7276,-0.33073 0.33955,0 0.66697,0.14883 0.72761,0.33073 0.0727,0.21817 -0.17492,0.33073 -0.72761,0.33073 -0.55268,0 -0.80032,-0.11256 -0.7276,-0.33073 z m -22.880916,-2.32602 c -0.251612,-0.15056 -2.870987,-0.3394 -5.820833,-0.41964 -2.949846,-0.0802 -5.729231,-0.25658 -6.17641,-0.39189 -0.44718,-0.1353 -2.114055,-0.30143 -3.704167,-0.36917 -5.185331,-0.2209 -7.854383,-0.43501 -8.504658,-0.68225 -0.351237,-0.13354 -1.357816,-0.2428 -2.236843,-0.2428 -0.879027,0 -2.27026,-0.16641 -3.09163,-0.3698 -0.82137,-0.20338 -2.752328,-0.44391 -4.291018,-0.5345 -1.538691,-0.0906 -3.622285,-0.40464 -4.630209,-0.69789 -1.007924,-0.29326 -2.78509,-0.71674 -3.949256,-0.94107 -3.113215,-0.5999 -4.401989,-2.3498 -3.57533,-4.85461 0.379418,-1.14964 0.183031,-2.39171 -0.378161,-2.39171 -0.53466,0 -1.952609,-1.25826 -2.406013,-2.13505 -0.277359,-0.53635 -0.387372,-1.65637 -0.387372,-3.94378 0,-3.06805 -0.0236,-3.20386 -0.595312,-3.42609 -1.67652,-0.65169 -2.959103,-3.10992 -2.700888,-5.1766 0.14788,-1.18359 0.04973,-1.58333 -0.878557,-3.57807 -0.574769,-1.23509 -1.252395,-2.84093 -1.505834,-3.56854 -0.452093,-1.29792 -1.056335,-2.63625 -3.583704,-7.9375 -1.501546,-3.14955 -3.171122,-7.08853 -3.171122,-7.48153 0,-0.15444 -0.167203,-0.61786 -0.371562,-1.02984 -1.848115,-3.72567 -1.551095,-5.48363 1.142059,-6.75942 0.958675,-0.45414 2.885097,-1.52002 4.280938,-2.36861 3.843589,-2.33667 5.479672,-1.6086 4.040901,1.79824 -0.538859,1.27595 -0.696549,9.92195 -0.190208,10.42894 0.227988,0.22828 0.884104,-0.0884 2.645833,-1.27689 2.494425,-1.68284 2.957002,-2.18915 4.283094,-4.68797 2.022762,-3.81159 4.277279,-4.42434 4.277279,-1.16252 0,0.64739 0.161701,1.41192 0.359335,1.69896 0.197634,0.28704 0.440211,0.96335 0.539059,1.50291 0.09885,0.53955 0.353133,1.31346 0.565077,1.71979 0.211944,0.40633 0.386086,1.00892 0.386983,1.33909 8.96e-4,0.33017 0.353417,1.25955 0.78338,2.06528 0.776426,1.45499 1.864083,4.92254 1.864083,5.94287 0,0.95774 -1.137905,1.12839 -3.362263,0.50424 -1.634398,-0.45862 -2.191644,-0.50821 -3.210315,-0.28571 -0.677946,0.14808 -1.70888,0.34002 -2.290964,0.42653 -2.28037,0.3389 -2.513541,0.43009 -2.513541,0.98299 0,0.76134 2.817155,3.38653 4.604739,4.29097 0.820584,0.41517 1.555988,0.85845 1.634231,0.98504 0.213035,0.3447 1.129825,0.27777 1.92229,-0.14034 2.180139,-1.15026 4.355352,-1.85727 6.645717,-2.16006 2.526154,-0.33396 5.212854,-1.02787 5.685002,-1.46829 0.138245,-0.12895 0.495433,-0.23519 0.79375,-0.23609 0.298318,-8.9e-4 0.840053,-0.15628 1.203855,-0.3453 0.363802,-0.18902 1.256771,-0.49812 1.984375,-0.68689 0.727604,-0.18877 2.074089,-0.58121 2.99219,-0.87209 0.9181,-0.29089 1.88362,-0.47283 2.1456,-0.40432 0.261979,0.0685 1.475338,-0.10673 2.696351,-0.38943 1.221014,-0.28269 3.232057,-0.67012 4.468984,-0.86095 3.160357,-0.48757 5.38924,-0.93074 7.557502,-1.50266 1.027928,-0.27114 2.262393,-0.49298 2.743256,-0.49298 4.388344,0 10.027158,-2.53508 10.756775,-4.83599 0.102542,-0.32338 0.466703,-1.03208 0.809246,-1.5749 1.257802,-1.99317 0.58661,-2.47082 -2.482252,-1.76645 -3.084635,0.70799 -4.306722,1.15927 -5.857409,2.16297 -3.953367,2.55886 -4.887036,1.06229 -4.748763,-7.61175 0.111214,-6.97658 0.01084,-6.85616 4.433456,-5.31906 2.178162,0.75703 7.506706,0.86108 8.347837,0.163 1.262563,-1.04784 0.687203,-4.71989 -1.501737,-9.58436 -1.447041,-3.21575 -1.283695,-3.50827 1.849896,-3.31277 1.249596,0.078 2.520414,0.0473 2.824044,-0.0681 0.30362,-0.11544 3.04584,-0.25253 6.09381,-0.30466 6.45467,-0.11037 6.89702,0.0949 5.26937,2.44568 -3.22275,4.65449 -4.84106,9.38424 -3.62645,10.59885 0.58091,0.58091 5.33756,0.25996 6.71667,-0.45321 0.4073,-0.21063 0.97841,-0.38296 1.26913,-0.38296 0.29071,0 1.25321,-0.60305 2.13889,-1.34012 1.95959,-1.63079 2.82642,-1.70999 2.70745,-0.24738 -0.21486,2.64155 -0.37268,6.14493 -0.45718,10.14872 -0.10678,5.05896 -0.73354,6.73698 -1.84477,4.93898 -0.54616,-0.88371 -3.52544,-2.08452 -5.56023,-2.24106 -1.16416,-0.0896 -2.8075,-0.29586 -3.65185,-0.45842 -1.97537,-0.38031 -2.2605,-0.15262 -1.78864,1.42832 0.65905,2.20815 1.13773,3.05901 2.42161,4.30447 0.7145,0.69312 1.29909,1.34517 1.29909,1.44901 0,0.41301 1.43407,0.80347 2.98901,0.81384 2.11662,0.0141 8.76619,0.65823 9.13252,0.88463 0.15462,0.0956 1.21123,0.28205 2.34803,0.41442 1.13679,0.13238 2.60268,0.36284 3.25752,0.51216 0.65485,0.14931 2.10561,0.27666 3.22393,0.28299 1.11831,0.006 2.36847,0.14474 2.77812,0.30755 1.47187,0.58497 4.4699,1.28249 5.53143,1.28694 0.59533,0.002 1.66689,0.18399 2.38125,0.40333 1.61905,0.49712 4.20941,1.1367 6.45819,1.59456 0.94589,0.19259 2.25557,0.47253 2.91042,0.62209 0.65484,0.14956 1.6821,0.27711 2.28279,0.28345 0.60069,0.006 1.5196,0.19012 2.04202,0.4084 0.52242,0.21828 1.28111,0.39628 1.68596,0.39556 0.40486,-7.2e-4 1.28427,0.19515 1.95425,0.43526 1.83646,0.65815 2.43999,0.37703 5.09278,-2.37223 4.42412,-4.58497 4.5178,-4.47446 -3.69847,-4.36297 -7.68193,0.10423 -7.28828,0.43002 -5.81326,-4.81125 0.22524,-0.80036 0.60829,-2.22911 0.85121,-3.175 0.24293,-0.94588 0.54026,-1.95791 0.66074,-2.24896 0.8498,-2.05288 1.2468,-3.37202 1.40533,-4.66954 0.34567,-2.82908 1.90072,-3.07862 3.98462,-0.6394 0.65653,0.76849 1.1937,1.51874 1.1937,1.66724 0,0.26492 2.25303,2.81012 4.92088,5.55901 2.14488,2.21004 2.56726,1.93527 2.94725,-1.91731 0.25154,-2.55034 0.0631,-6.37945 -0.34659,-7.04233 -1.78837,-2.89364 -10e-4,-6.02998 2.29628,-4.02995 0.43078,0.375 3.14807,1.41499 3.69709,1.41499 0.16443,0 0.82822,0.35719 1.47508,0.79375 0.64687,0.43657 1.39758,0.79375 1.66826,0.79375 2.32922,0 3.71008,2.76212 2.64825,5.29726 -0.45584,1.08833 -0.91911,2.33684 -1.02947,2.77446 -0.11037,0.43762 -0.32127,1.03294 -0.46867,1.32292 -0.29905,0.58832 -0.67174,1.40407 -2.05407,4.49599 -0.52047,1.16416 -1.06566,2.29526 -1.21154,2.51354 -0.14587,0.21828 -0.4132,0.69453 -0.59406,1.05833 -0.18087,0.3638 -0.63496,1.13771 -1.00909,1.71979 -0.37413,0.58209 -0.81971,1.46446 -0.99017,1.96083 -0.17047,0.49637 -0.58946,1.27027 -0.9311,1.71979 -0.34163,0.44951 -0.83348,1.23402 -1.09298,1.74334 -0.25951,0.50933 -0.87982,1.54476 -1.37848,2.30097 -0.78321,1.18773 -0.87606,1.49391 -0.68206,2.24895 0.48448,1.88551 -0.58768,5.73843 -1.87963,6.75467 -0.75606,0.59472 -0.94182,2.0308 -0.43508,3.36361 0.32165,0.84602 -0.04,1.75797 -1.23966,3.12579 -0.51158,0.5833 -0.87086,1.27959 -0.87086,1.68773 0,0.42239 -0.36304,1.09662 -0.92604,1.71979 -0.8209,0.90864 -0.92604,1.18958 -0.92604,2.47445 0,1.36432 -0.21584,1.99781 -1.84943,5.42821 -0.27466,0.57677 -1.19109,0.62948 -1.97817,0.11377 -0.6032,-0.39523 -0.73771,-0.4024 -1.14012,-0.0608 -0.56746,0.48178 -3.05261,1.53448 -3.62249,1.53448 -0.23228,0 -1.16152,0.24902 -2.06499,0.55337 -0.90347,0.30436 -2.28538,0.65798 -3.07092,0.78583 -0.78554,0.12785 -1.62016,0.40055 -1.85472,0.60599 -0.29966,0.26248 -1.18139,0.37967 -2.96549,0.39414 -1.66358,0.0135 -2.98639,0.17643 -3.83646,0.47255 -0.73718,0.2568 -1.98292,0.43733 -2.88492,0.41807 -3.53574,-0.0755 -13.14038,1.00158 -13.3038,1.49186 -0.1461,0.43831 -1.2567,0.37647 -1.64516,-0.0916 -0.38982,-0.4697 -1.52223,-0.51428 -2.56247,-0.10087 -0.47704,0.18958 -3.74122,0.32487 -9.0792,0.37631 -4.58391,0.0442 -9.76312,0.19767 -11.50937,0.34112 -1.74625,0.14344 -4.127505,0.16892 -5.291672,0.0566 -2.082761,-0.20092 -7.696032,0.0236 -8.73125,0.34924 -0.291042,0.0915 -0.735031,0.0433 -0.986644,-0.1073 z m -0.600856,-2.10575 c 0,-0.79716 -1.15703,-1.07496 -1.70869,-0.41025 -0.481012,0.57958 0.121208,1.25624 1.024584,1.15123 0.532118,-0.0619 0.684106,-0.22648 0.684106,-0.74098 z m 5.106458,0.47625 c 0.546082,-0.54608 0.350071,-0.94057 -0.531637,-1.06998 -1.26516,-0.18569 -2.179969,0.13957 -2.278119,0.80998 -0.09751,0.66602 2.19189,0.87787 2.809756,0.26 z m 4.531613,-0.15823 c 1.494526,-0.74216 1.341734,-1.11177 -0.45959,-1.11177 -1.667154,0 -2.255026,0.44698 -1.610024,1.22416 0.392221,0.4726 0.952907,0.44215 2.069614,-0.11239 z m 3.979381,-0.30196 c 0.1642,-0.30681 0.17652,-0.57373 0.0306,-0.66389 -0.26674,-0.16486 -1.08038,0.53652 -1.08038,0.93131 0,0.44977 0.77103,0.25334 1.04974,-0.26742 z M 81.946081,184.8015 c 0.385118,-0.46404 -0.313335,-0.94967 -1.078188,-0.74965 -0.571047,0.14933 -0.617395,0.36436 -0.174087,0.80766 0.421866,0.42187 0.871287,0.40105 1.252275,-0.058 z m 24.055329,0.085 c 1.4332,-0.49962 0.76879,-1.38212 -0.84357,-1.12047 -1.07114,0.17383 -1.35994,0.43552 -1.13307,1.02673 0.17586,0.45831 0.84043,0.48982 1.97664,0.0937 z m -27.591197,-0.26828 c 0.401099,-0.64899 -1.196885,-0.96501 -3.027918,-0.59881 -0.910302,0.18206 -1.084472,0.52226 -0.363802,0.71059 0.946099,0.24724 3.216068,0.17243 3.39172,-0.11178 z m 34.900827,-0.18276 c 0.54366,-1.41676 -1.90117,-1.95667 -3.73319,-0.82442 -1.5425,0.95332 -1.24336,1.17341 1.62916,1.19864 1.49196,0.0131 1.98934,-0.0754 2.10403,-0.37422 z m 4.23709,-0.0994 c 1.00602,-0.45837 0.74411,-1.12553 -0.48155,-1.22667 -1.11971,-0.0924 -1.76527,0.28854 -1.76527,1.04166 0,0.5891 1.15179,0.68394 2.24682,0.18501 z m 6.55083,-0.69538 c 1.18241,-1.18241 -0.45849,-1.86444 -2.26235,-0.94032 -1.05994,0.54301 -1.29771,0.90205 -0.90818,1.3714 0.43713,0.52671 2.49215,0.24729 3.17053,-0.43108 z m 3.7966,0.33398 c 0.94276,-0.19732 2.28527,-1.22191 1.9891,-1.51807 -0.44713,-0.44713 -2.56585,-0.29789 -3.28891,0.23167 -1.20202,0.88036 -1.22188,1.80911 -0.0334,1.56365 0.35489,-0.0733 0.95485,-0.19806 1.33325,-0.27725 z m 7.2495,-0.57005 c 1.39583,-0.61798 2.17592,-1.4093 1.81638,-1.84252 -0.66956,-0.80677 -3.17369,-0.10405 -4.52836,1.27078 -1.23853,1.25695 0.38922,1.60012 2.71198,0.57174 z m -67.687761,-0.4239 c 1.458968,-1.11279 1.502016,-1.65154 0.128471,-1.60784 -1.56596,0.0498 -3.613631,1.10661 -3.613631,1.86497 0,1.02293 2.000388,0.87535 3.48516,-0.25713 z m -4.927735,-0.3559 c 0.941291,-1.01567 0.893035,-1.6985 -0.08237,-1.16555 -0.252687,0.13806 -1.008901,0.32154 -1.680476,0.40773 -2.569327,0.32974 -2.688605,1.44577 -0.155383,1.45386 1.035815,0.003 1.388798,-0.12478 1.918229,-0.69604 z m 10.754916,0.003 c 1.002256,-0.69456 1.281834,-1.28332 0.701292,-1.47683 -0.721061,-0.24036 -2.925848,0.26056 -3.448846,0.78356 -1.386069,1.38607 0.911351,1.96576 2.747554,0.69327 z m 17.607741,-0.17321 c 0.991779,-0.99178 0.607293,-1.22081 -1.830638,-1.09047 -2.242754,0.11991 -2.864444,0.37552 -2.864444,1.17772 0,1.07013 3.604689,1.00314 4.695082,-0.0872 z m -34.111576,-0.12154 c 0.09509,-0.66957 -0.475135,-0.78579 -1.654824,-0.33727 -1.161186,0.44148 -0.86771,1.10898 0.445797,1.01395 0.934779,-0.0676 1.138742,-0.18179 1.209027,-0.67668 z m 23.49311,0.0579 c 0.537333,-0.82007 0.541695,-0.81562 -1.088074,-1.1103 -2.002636,-0.3621 -4.270527,0.59905 -3.677518,1.55855 0.376024,0.60842 4.31606,0.23782 4.765592,-0.44825 z m 4.203593,-0.12403 c 0,-0.83246 -0.999358,-1.04886 -1.741611,-0.37713 -0.876133,0.79289 -0.64557,1.2113 0.617132,1.11995 1.001359,-0.0725 1.124479,-0.15379 1.124479,-0.74282 z m 17.015912,0.0844 c 0.87311,-0.54623 0.58677,-0.98496 -0.76557,-1.17302 -1.75701,-0.24433 -3.344127,0.54849 -2.98283,1.49001 0.174734,0.45535 2.87946,0.22662 3.7484,-0.31699 z m 39.18564,-0.39843 c 0.38886,-1.11549 0.0119,-1.50082 -0.89005,-0.90983 -0.78593,0.51497 -0.8683,1.085 -0.21202,1.46725 0.6937,0.40405 0.78257,0.3591 1.10207,-0.55742 z m -44.561174,0.16287 c 0.452827,-0.34219 0.471636,-0.43446 0.132292,-0.64899 -0.942518,-0.59585 -3.028748,-0.084 -2.738676,0.67189 0.199071,0.51877 1.909472,0.50375 2.606384,-0.0229 z m 13.132114,0.13299 c 0.36496,-0.19532 0.50275,-0.49786 0.44563,-0.9784 -0.0734,-0.61784 0.0626,-0.74777 1.21608,-1.16155 2.27094,-0.81464 2.26017,-1.53363 -0.0231,-1.542 -1.30729,-0.005 -2.00123,0.56116 -1.88553,1.53776 0.0713,0.60205 -0.0417,0.70672 -0.97306,0.90125 -1.23907,0.2588 -1.5891,0.54247 -1.37093,1.11103 0.1866,0.48627 1.77746,0.56727 2.59093,0.13191 z m -56.43965,-0.57714 c 0.06511,-0.34161 -0.0862,-0.46303 -0.576995,-0.46303 -0.723282,0 -1.093477,0.36544 -0.819414,0.80889 0.265964,0.43033 1.297148,0.17493 1.396409,-0.34586 z m 61.66512,0.35625 c 0.62557,-0.39623 0.0504,-0.81946 -1.10785,-0.81522 -1.24408,0.005 -1.92901,0.31887 -1.65631,0.76011 0.21468,0.34736 2.23904,0.38772 2.76416,0.0551 z m 6.32664,-0.53188 c 1.19288,-0.61531 3.07132,-2.80638 2.86558,-3.34252 -0.53503,-1.39426 -5.72039,1.65645 -5.72039,3.36549 0,0.66338 1.54836,0.65093 2.85481,-0.023 z m 7.21889,-1.49726 c 1.75483,-1.72844 1.73549,-2.23098 -0.0857,-2.22567 -1.62959,0.005 -1.65201,0.0169 -3.06138,1.6541 -2.17633,2.52818 0.64107,3.03988 3.14706,0.57157 z m 17.99694,1.19659 c 0.68707,-0.36771 0.39729,-0.78048 -0.54795,-0.78048 -1.3833,0 -2.16493,0.60563 -1.1305,0.87595 0.8028,0.2098 1.14435,0.19037 1.67845,-0.0955 z m 5.91332,-0.31018 c 0.51337,-0.73294 0.52069,-0.99946 0.0275,-0.99946 -0.75343,0 -1.73224,0.62202 -1.73224,1.1008 0,0.70632 1.18857,0.63566 1.70479,-0.10134 z m -19.95316,-0.12744 c 1.23736,-0.43947 2.59735,-2.14764 2.20952,-2.77517 -0.36949,-0.59784 -2.12113,-0.18611 -3.31276,0.77867 -2.65738,2.15148 -2.11199,3.13845 1.10324,1.9965 z m -72.088369,-0.16455 c 1.435016,-0.54876 2.428719,-1.44455 1.965901,-1.7722 -1.01735,-0.72022 -4.228602,0.43913 -4.231661,1.52775 -0.0019,0.68643 0.865314,0.77999 2.26576,0.24445 z m 6.178934,-0.5987 c 1.002303,-0.84338 1.017811,-1.06647 0.08651,-1.24449 -1.159071,-0.22157 -3.518711,1.00183 -3.133729,1.62475 0.357834,0.57898 2.177006,0.35197 3.047215,-0.38026 z m 4.981238,-0.059 c 0.623319,-0.78305 0.390159,-1.10816 -0.79375,-1.10678 -1.358414,0.002 -3.007325,1.11454 -2.321034,1.56662 0.547772,0.36082 2.71637,0.0407 3.114784,-0.45984 z m 22.820313,-0.22121 c 0.927068,-0.89507 0.360075,-1.20957 -1.925044,-1.06779 -1.797184,0.1115 -2.837456,0.62351 -2.837456,1.39657 0,0.83622 3.829678,0.57184 4.7625,-0.32878 z m 23.684284,0.13238 c 0.6284,-0.55175 0.92172,-1.02055 0.8691,-1.38906 -0.19333,-1.35391 -3.69413,-0.2515 -3.86547,1.21724 -0.0831,0.7119 -0.0142,0.7504 1.72632,0.965 0.17684,0.0218 0.74836,-0.33513 1.27005,-0.79318 z m -70.43822,0.26227 c 0.314432,-0.16828 0.931683,-0.39594 1.371669,-0.50593 0.439986,-0.10998 1.216693,-0.34747 1.726016,-0.52775 2.531775,-0.89615 3.684522,-1.26121 4.894792,-1.5501 0.727604,-0.17368 1.680104,-0.50081 2.116666,-0.72695 0.991473,-0.5136 3.80778,-1.40566 4.446288,-1.40837 0.477245,-0.002 2.29783,-0.71864 3.711092,-1.46077 0.411975,-0.21633 0.983435,-0.39333 1.26991,-0.39333 0.286475,0 0.858216,-0.17445 1.270535,-0.38767 1.175785,-0.60802 6.168751,-2.25402 6.843961,-2.2562 0.334649,-0.001 0.929961,-0.16355 1.322917,-0.36105 0.859868,-0.43217 1.885767,-0.64551 4.670676,-0.97131 1.15727,-0.13539 2.943208,-0.47728 3.96875,-0.75977 3.686828,-1.01553 5.223092,-1.14552 14.973279,-1.2669 7.760629,-0.0966 10.215079,-0.0409 12.435419,0.28234 1.52149,0.2215 4.37369,0.48038 6.33822,0.5753 1.96453,0.0949 4.08205,0.33893 4.7056,0.54225 0.62355,0.20332 1.95597,0.36968 2.96095,0.36968 1.00497,0 1.89655,0.11218 1.98129,0.24929 0.0847,0.13711 0.71685,0.33194 1.40468,0.43294 0.68783,0.101 1.51718,0.28303 1.84299,0.4045 0.32582,0.12147 1.93316,0.34696 3.57188,0.50107 1.63871,0.15412 3.51526,0.39113 4.17011,0.52671 0.65484,0.13557 2.55984,0.48859 4.23333,0.7845 3.8155,0.67465 6.54921,1.33118 7.40695,1.77885 0.36456,0.19028 0.89258,0.34669 1.17336,0.34759 0.56715,0.002 3.50801,0.89744 4.85627,1.47896 0.47788,0.20611 1.12335,0.37475 1.43438,0.37475 0.31102,0 0.75347,0.16655 0.98321,0.37012 0.91568,0.81135 3.41534,1.19671 4.12772,0.63634 1.50544,-1.18417 1.30032,-3.61507 -0.30768,-3.64641 -0.16601,-0.003 -0.82086,-0.24139 -1.45521,-0.52924 -0.63436,-0.28784 -1.51056,-0.52975 -1.94712,-0.53758 -0.43657,-0.008 -1.02487,-0.18903 -1.30734,-0.40268 -0.28248,-0.21366 -0.75873,-0.38788 -1.05834,-0.38716 -0.6441,0.002 -2.73232,-0.6527 -4.32213,-1.35414 -0.62236,-0.27458 -1.44166,-0.49925 -1.82068,-0.49925 -0.37902,0 -1.71529,-0.33912 -2.96949,-0.75361 -3.21086,-1.06113 -5.8017,-1.67143 -10.35015,-2.43807 -0.94588,-0.15943 -2.37463,-0.45976 -3.175,-0.66741 -1.80861,-0.46922 -4.8545,-0.83847 -9.65729,-1.17075 -2.03729,-0.14095 -4.01885,-0.36595 -4.40347,-0.5 -0.38462,-0.13405 -1.25315,-0.19199 -1.93007,-0.12876 -0.67692,0.0632 -2.26723,-0.0845 -3.53403,-0.3282 -1.26679,-0.24374 -2.6385,-0.42269 -3.04822,-0.39766 -0.40973,0.025 -1.23536,-0.0865 -1.83473,-0.24793 -2.11101,-0.56844 -12.276642,-0.70605 -14.882815,-0.20147 -0.727604,0.14087 -2.619074,0.36628 -4.203267,0.50091 -1.715508,0.14579 -3.21351,0.42021 -3.704167,0.67859 -0.453099,0.2386 -1.895379,0.53038 -3.205067,0.6484 -4.019461,0.36222 -7.578577,0.96668 -9.657292,1.64014 -1.091406,0.35359 -3.175,0.90958 -4.630208,1.23553 -5.559238,1.24519 -10.211783,2.56255 -12.700001,3.59597 -0.436562,0.18131 -1.27,0.44643 -1.852083,0.58916 -1.524899,0.37389 -5.028167,1.63896 -6.916994,2.4978 -0.893929,0.40647 -1.75299,0.73903 -1.909022,0.73903 -0.920139,0 -2.670119,2.43691 -2.681884,3.73463 -0.01033,1.13896 2.008558,1.91592 3.25084,1.25107 z m 9.051246,-0.28935 c 1.189649,-0.77059 1.163356,-0.99219 -0.117725,-0.99219 -0.976807,0 -1.867086,0.65888 -1.867086,1.38179 0,0.40678 1.083772,0.19404 1.984811,-0.3896 z m 18.869529,-0.15301 c 0.06355,-0.43188 -0.05146,-0.57459 -0.463021,-0.57459 -0.354586,0 -0.547568,0.17095 -0.547568,0.48507 0,1.00584 0.864488,1.08242 1.010589,0.0895 z m 8.227288,0.15301 c 0.339937,-0.89945 0.15598,-0.99219 -1.968141,-0.99219 -1.972317,0 -2.87876,0.50773 -2.371565,1.32839 0.367504,0.59463 4.097107,0.3057 4.339706,-0.3362 z m 4.445835,-0.1196 c 0.458164,-0.59909 0.183804,-0.87259 -0.875339,-0.87259 -0.964926,0 -1.355596,0.44905 -1.060257,1.21869 0.199707,0.52043 1.442902,0.29813 1.935596,-0.3461 z m 10.656975,0.0545 c 0.713149,-0.75911 0.694673,-0.80169 -0.454665,-1.04787 -0.855583,-0.18326 -2.190188,0.68914 -2.190188,1.43168 0,0.5894 2.003732,0.29863 2.644853,-0.38381 z m 5.170657,0.37916 c 0.27395,-0.44326 -0.68245,-1.30625 -1.44765,-1.30625 -0.82846,0 -1.86994,0.67149 -1.86994,1.20563 0,0.4628 3.03683,0.5549 3.31759,0.10062 z m 35.81779,-0.52628 c 1.54587,-1.11983 1.39074,-1.68061 -0.49455,-1.78778 -2.22601,-0.12654 -3.45125,0.66155 -3.45125,2.21988 0,0.77336 2.68808,0.47899 3.9458,-0.4321 z m 17.46705,0.16566 c 0.73256,-0.77977 0.51425,-1.27442 -0.46083,-1.04416 -0.72947,0.17225 -1.90202,1.07698 -1.90202,1.46757 0,0.51732 1.77849,0.19862 2.36285,-0.42341 z m -13.22341,-0.79987 c 0.75564,-0.80435 0.56792,-1.59097 -0.31678,-1.32745 -0.81748,0.2435 -1.89275,1.3261 -1.67195,1.68335 0.31215,0.50507 1.35525,0.3184 1.98873,-0.3559 z m 5.34868,-0.22444 c 1.94099,-1.48044 1.6956,-2.49991 -0.48897,-2.0314 -1.50363,0.32247 -3.18488,1.76277 -2.90599,2.48952 0.29519,0.76925 2.10617,0.52487 3.39496,-0.45812 z m 4.64113,-0.51663 c 1.01468,-0.68503 1.0978,-1.60251 0.15732,-1.73633 -0.70701,-0.1006 -2.64144,1.56197 -2.35557,2.02452 0.29892,0.48365 1.23719,0.36065 2.19825,-0.28819 z M 78.811936,177.8035 c 0.610919,-0.4947 0.610919,-0.4947 -0.02819,-0.69754 -0.935626,-0.29696 -2.629842,-0.24745 -2.963898,0.0866 -0.953836,0.95384 1.859278,1.52823 2.992088,0.61094 z m -5.343931,-0.13167 c 0.504562,-0.60796 -0.302451,-1.04104 -1.547829,-0.83063 -1.23845,0.20923 -1.53795,0.51814 -0.875998,0.90351 0.674004,0.39239 2.072589,0.35034 2.423827,-0.0729 z m 12.014378,-0.0888 c 0.513752,-0.30575 -0.495709,-0.87238 -1.554149,-0.87238 -1.701479,0 -3.10421,0.75045 -2.162866,1.15711 0.355964,0.15378 3.367859,-0.0769 3.717015,-0.28473 z m 19.389877,0.22154 c -0.0778,-0.12595 0.46049,-0.60324 1.19629,-1.06064 1.60342,-0.99674 1.56359,-1.45983 -0.13504,-1.56997 -1.60807,-0.10427 -2.10552,0.27928 -1.88523,1.45357 0.13071,0.69675 0.0773,0.87687 -0.25997,0.87687 -0.23347,0 -0.3509,0.11906 -0.26096,0.26458 0.0899,0.14552 0.46118,0.26458 0.82498,0.26458 0.3638,0 0.59777,-0.10304 0.51993,-0.22899 z m -41.090333,-0.43246 c -0.127044,-0.58035 -2.720205,-0.43625 -2.720205,0.15116 0,0.16354 0.558045,0.24124 1.389062,0.19339 0.763985,-0.044 1.362999,-0.19903 1.331143,-0.34455 z m 4.688129,0.13733 c 0,-0.33007 -1.200476,-0.64111 -1.576779,-0.40854 -0.156165,0.0965 -0.215436,0.28631 -0.131714,0.42178 0.203208,0.3288 1.708493,0.31713 1.708493,-0.0132 z m 21.537505,-0.31274 c 0.760104,-1.0852 -0.170207,-1.38251 -1.457584,-0.46582 -0.898912,0.64008 -0.78634,1.0381 0.293608,1.0381 0.482362,0 0.91061,-0.21055 1.163976,-0.57228 z m 6.184874,0.1604 c 0.613173,-0.42948 0.785007,-1.28724 0.315947,-1.57713 -1.09417,-0.67624 -4.754992,0.54954 -4.754992,1.59214 0,0.5738 3.615858,0.56158 4.439045,-0.015 z m 4.536485,-0.2731 c 0.94533,-0.79544 1.09168,-1.69627 0.27558,-1.69627 -1.071015,0 -2.632202,1.48151 -2.236272,2.12214 0.284011,0.45954 1.125722,0.27672 1.960692,-0.42587 z m 13.54903,0.18433 c 2.29938,-0.85621 3.39952,-3.34316 1.35606,-3.06549 -1.85878,0.25257 -2.14121,0.36619 -2.32137,0.93384 -0.09,0.2836 -0.27645,0.51564 -0.4143,0.51564 -0.34103,0 -1.30835,1.62645 -1.13456,1.90765 0.13351,0.21603 1.61111,0.0446 2.51417,-0.29164 z m -4.01285,-0.81335 c 0.82922,-0.81059 1.01432,-1.43451 0.51679,-1.74199 -0.67028,-0.41426 -2.21872,1.78591 -1.65419,2.35044 0.25393,0.25393 0.25674,0.25243 1.1374,-0.60845 z m 10.94681,-0.24157 c 2.40976,-2.22422 1.61953,-3.59167 -1.01934,-1.76393 -2.25641,1.56284 -2.60377,1.89978 -2.42875,2.35588 0.25727,0.67044 2.49696,0.28594 3.44809,-0.59195 z m 14.3128,0.76837 c 1.30427,-0.49588 0.6863,-1.3948 -0.73803,-1.07357 -1.20003,0.27066 -1.34357,0.38714 -1.13782,0.92332 0.17932,0.46731 0.89182,0.52438 1.87585,0.15025 z m -5.50349,-0.20904 c 0.16507,-0.10691 0.34494,-0.4307 0.39972,-0.71952 0.0697,-0.36763 0.38151,-0.57097 1.03943,-0.67791 2.08908,-0.33957 3.29981,-2.28528 1.36727,-2.19727 -1.31683,0.06 -3.35301,1.22361 -3.46139,1.97814 -0.0497,0.34563 -0.26529,0.82444 -0.4792,1.06401 -0.51786,0.57998 0.40081,1.02755 1.13417,0.55255 z m 11.73842,-0.35853 c 1.25668,-0.65858 2.0133,-1.3423 2.22559,-2.01117 0.28137,-0.88654 -0.22623,-0.91778 -1.04398,-0.0642 -0.64635,0.67464 -0.94598,0.78434 -2.1424,0.78434 -1.49009,0 -3.0332,0.90451 -2.63693,1.54567 0.28546,0.46189 2.5342,0.30274 3.59772,-0.25461 z m -71.175714,-0.62623 c 0.527798,-0.63596 0.119348,-1.194 -0.873934,-1.194 -1.065456,0 -1.946585,0.77502 -1.447991,1.27361 0.441873,0.44188 1.931519,0.3908 2.321925,-0.0796 z m 5.178878,-0.25632 c 0.588152,-0.89763 0.280798,-1.25546 -0.897235,-1.04458 -2.048911,0.36679 -2.607624,1.6944 -0.713071,1.6944 0.965875,0 1.26312,-0.11995 1.610306,-0.64982 z m 6.213946,-0.16109 c 0.642444,-0.85171 0.447344,-1.04117 -1.072138,-1.04117 -1.435308,0 -2.920623,0.92743 -2.520964,1.5741 0.375062,0.60686 3.030435,0.21302 3.593102,-0.53293 z m 4.690162,0.41539 c 0.476656,-0.0351 1.109624,-0.28374 1.406596,-0.5525 1.068171,-0.96668 -0.610634,-1.39871 -2.935357,-0.7554 -0.521617,0.14435 -1.122306,1.12022 -0.905485,1.47104 0.09876,0.15979 0.463231,0.1967 0.868859,0.088 0.384307,-0.103 1.088731,-0.21601 1.565387,-0.25113 z m 40.449178,-0.84288 c 1.12219,-1.31049 1.10419,-1.40743 -0.26133,-1.40743 -1.41362,0 -3.31082,1.41579 -2.99613,2.23587 0.33155,0.86401 2.2193,0.38392 3.25746,-0.82844 z m 19.56599,0.62028 c 1.06993,-0.92032 0.16885,-1.64811 -1.32892,-1.07336 -0.49636,0.19047 -0.56204,1.32489 -0.0878,1.51625 0.56515,0.22805 0.67754,0.19291 1.41671,-0.44289 z m -54.960939,-0.41468 c 0.421036,-0.26668 0.175097,-0.81928 -0.364626,-0.81928 -0.454058,0 -0.747602,0.44031 -0.529167,0.79375 0.199094,0.32214 0.415732,0.32833 0.893793,0.0255 z m 12.696629,-1.65982 c 0.93448,-0.76016 1.35854,-1.29875 1.35854,-1.72546 0,-0.40495 0.22967,-0.72499 0.66146,-0.92173 0.85192,-0.38816 0.84687,-0.7456 -0.0105,-0.7456 -1.10097,0 -2.62472,0.94655 -3.81792,2.3717 -1.89467,2.26297 -0.60992,2.98837 1.80847,1.02109 z m 34.29322,0.54611 c 0.92319,-0.88988 -1.83024,-1.74865 -2.79814,-0.87271 -1.08345,0.98051 -0.66885,1.51287 1.01815,1.30735 0.83674,-0.10193 1.63774,-0.29752 1.77999,-0.43464 z m -93.432238,-1.13688 c 2.971702,-2.07859 3.083657,-2.21841 3.491895,-4.36092 0.429373,-2.25344 0.442298,-2.21727 -1.153787,-3.22947 -0.944141,-0.59876 -1.51992,-0.76788 -2.614231,-0.76788 -1.492032,0 -1.842766,-0.37523 -0.741949,-0.79375 1.04564,-0.39756 0.82569,-0.88964 -0.314913,-0.70455 -3.113332,0.50523 -3.101547,4.00633 0.01436,4.26588 3.448191,0.28723 4.456657,4.34288 1.087029,4.37159 -0.295042,0.003 -0.771292,0.16541 -1.058333,0.36198 -0.287041,0.19657 -0.849314,0.43696 -1.249497,0.5342 -0.873117,0.21217 -0.939595,0.78199 -0.155319,1.33132 0.641818,0.44954 0.5742,0.47485 2.694746,-1.0084 z m 63.286348,1.01164 c 1.25237,-0.59429 1.89916,-1.62036 1.36077,-2.15874 -0.5648,-0.56481 -1.64868,-0.23107 -2.58739,0.79669 -1.41405,1.54818 -0.74087,2.29568 1.22662,1.36205 z m -8.48625,-0.36423 c 0.84484,-0.93354 0.3425,-1.41499 -1.331571,-1.27616 -1.810705,0.15016 -2.669828,0.80713 -1.85009,1.41477 0.769433,0.57035 2.612733,0.49005 3.181661,-0.13861 z m -21.367798,-0.10849 c 0.385155,-0.38515 -0.238557,-0.95941 -1.038421,-0.95608 -1.767134,0.007 -2.849716,0.78733 -1.595804,1.14974 0.537639,0.15539 2.423841,0.0167 2.634225,-0.19366 z m 15.553668,-0.21112 c 0.333326,-0.30674 -0.309112,-0.73895 -1.106653,-0.74452 -0.670733,-0.005 -0.987385,0.38111 -0.772474,0.94116 0.157857,0.41137 1.354483,0.28615 1.879127,-0.19664 z m -9.700142,-0.58651 c 0.07662,-0.67107 0.01708,-0.74563 -0.489652,-0.61312 -0.317285,0.083 -0.867601,0.0184 -1.222925,-0.1435 -0.780346,-0.35555 -1.875065,0.50341 -1.589616,1.24728 0.333825,0.86993 3.195389,0.44475 3.302193,-0.49066 z m 5.818838,0.28837 c 0.08126,-0.4261 -0.09717,-0.46741 -1.714321,-0.39688 -1.490419,0.065 -1.820836,0.16163 -1.895732,0.55434 -0.08126,0.42611 0.09717,0.46742 1.714321,0.39688 1.490419,-0.065 1.820836,-0.16163 1.895732,-0.55434 z m 22.950224,-0.0419 c 0.48107,-0.73421 0.32145,-1.20226 -0.40999,-1.20226 -0.5506,0 -1.66532,1.25334 -1.43958,1.61859 0.29777,0.48181 1.42774,0.22745 1.84957,-0.41633 z m 4.68815,0.29338 c 2.15563,-0.75067 1.97509,-1.64469 -0.28503,-1.41143 -1.5582,0.16082 -2.34407,0.67031 -2.08306,1.35048 0.19427,0.50627 1.02768,0.52772 2.36809,0.0609 z m 7.17959,-0.78553 c 0.68605,-0.50165 0.43641,-1.35366 -0.42591,-1.4536 -1.16296,-0.13477 -2.84656,0.91614 -2.4627,1.53724 0.23782,0.3848 2.33086,0.3242 2.88861,-0.0836 z m 5.30466,-0.1986 c 0.49997,-0.49996 -0.2553,-1.17521 -1.2787,-1.14322 -1.44804,0.0453 -2.4671,1.22286 -1.29218,1.49319 0.69862,0.16074 2.27472,-0.0538 2.57088,-0.34997 z m -77.910985,-0.89026 c 0.654844,-0.19577 1.964531,-0.5955 2.910417,-0.88829 0.945885,-0.29279 2.761588,-0.85245 4.034896,-1.24369 3.014533,-0.92626 3.082616,-1.36186 0.348345,-2.22877 -1.96676,-0.62356 -1.96676,-0.62356 -3.051942,0.30531 -1.351128,1.15652 -3.093193,1.47213 -4.815202,0.87238 -1.5316,-0.53344 -1.493952,-0.54641 -1.698844,0.58524 -0.0988,0.54571 -0.342324,1.3137 -0.541156,1.70666 -0.842348,1.66474 -0.323641,1.82904 2.813486,0.89116 z m 38.496876,-0.0181 c 0,-0.14552 -0.386953,-0.30189 -0.859896,-0.34749 -0.839202,-0.0809 -1.188653,0.29816 -0.529166,0.57403 0.509042,0.21294 1.389062,0.0694 1.389062,-0.22654 z M 43.19518,171.01251 c 2.787335,-0.8103 2.812006,-1.99245 0.04923,-2.35895 -1.574229,-0.20883 -2.291022,0.28282 -2.291022,1.57141 0,1.3423 0.150994,1.39535 2.241792,0.78754 z m 118.64011,0.0487 c 0.22761,-0.27425 0.11306,-0.62848 -0.49196,-1.52135 -0.43375,-0.64013 -0.79081,-1.37223 -0.79346,-1.62689 -0.006,-0.53108 -0.88277,-0.61909 -1.98683,-0.19933 -0.94134,0.3579 -1.97205,-0.20408 -2.62371,-1.43052 -0.56914,-1.07114 -1.04885,-1.17159 -2.00885,-0.42067 -0.36381,0.28457 -0.92233,0.52005 -1.24116,0.52329 -0.31883,0.003 -0.65212,0.12306 -0.74063,0.26627 -0.0885,0.14322 -0.54202,0.35915 -1.0078,0.47984 -0.939,0.24332 -1.14376,0.92468 -0.31771,1.05721 0.29105,0.0467 0.88636,0.24391 1.32292,0.43827 0.86352,0.38444 2.35834,0.80202 4.63021,1.29345 0.80036,0.17312 1.71527,0.46192 2.03313,0.64176 0.31785,0.17985 0.87637,0.327 1.24115,0.327 0.36478,0 0.73682,0.11906 0.82676,0.26458 0.23136,0.37435 0.80859,0.32804 1.15794,-0.0929 z m -50.289,-0.75753 c 0.0568,-0.29955 -0.1362,-0.50934 -0.56838,-0.61781 -0.78051,-0.1959 -1.76202,0.26718 -1.76202,0.83131 0,0.6091 2.21286,0.40636 2.3304,-0.2135 z m 4.15189,-0.0756 c 0,-0.43031 -0.14771,-0.5131 -0.7906,-0.44313 -1.67559,0.18234 -1.84531,1.192 -0.17701,1.05295 0.76434,-0.0637 0.96761,-0.19182 0.96761,-0.60982 z m 5.04537,0.36729 c 0.26158,-0.42325 -0.39709,-0.75543 -1.50724,-0.76012 -0.92208,-0.004 -1.73731,0.51795 -1.37507,0.88019 0.293,0.293 2.6887,0.1932 2.88231,-0.12007 z m 45.49731,0.0178 c 0.0939,-0.15198 -0.31173,-0.79979 -0.90146,-1.43957 -2.06802,-2.24354 -1.52008,-4.05838 1.42326,-4.71395 2.35885,-0.52538 2.36837,-2.28082 0.0105,-1.93742 -3.11664,0.45391 -3.75201,0.79956 -4.62664,2.517 -1.29633,2.5455 2.64764,7.91474 4.09433,5.57394 z M 97.838807,169.5666 c 0,-0.14552 -0.178594,-0.26458 -0.396875,-0.26458 -0.218282,0 -0.396875,0.11906 -0.396875,0.26458 0,0.14552 0.178593,0.26458 0.396875,0.26458 0.218281,0 0.396875,-0.11906 0.396875,-0.26458 z m 70.081653,-1.86413 c 0.92012,-1.24453 0.6798,-1.95425 -0.69542,-2.05373 -1.57923,-0.11423 -2.24969,2.10267 -0.8101,2.6786 0.6776,0.27108 0.91639,0.17197 1.50552,-0.62487 z M 55.15769,166.61006 c 0.810001,-0.76096 0.775692,-1.63908 -0.09067,-2.32056 -1.577989,-1.24125 -4.149222,0.95188 -2.827836,2.41199 0.616895,0.68167 2.146593,0.63374 2.918503,-0.0914 z m 14.013343,-0.51002 c 0.269306,-0.23197 0.718891,-0.50366 0.999077,-0.60377 6.477323,-2.31427 3.900855,-8.64889 -3.552138,-8.73345 -5.767896,-0.0654 -10.904921,5.10636 -7.791851,7.84459 2.155534,1.89599 8.768834,2.8502 10.344912,1.49263 z m -3.479103,-0.48805 c -6.091642,-0.6249 -7.116476,-5.98649 -1.362878,-7.13012 3.621005,-0.71975 8.109754,0.81723 8.109754,2.77683 0,1.23617 -0.694609,1.25978 -1.505315,0.0512 -1.727176,-2.57493 -8.529625,-2.28428 -8.544801,0.36509 -0.01192,2.08167 3.723502,3.29814 6.125928,1.99497 1.807125,-0.98025 2.53712,0.12727 0.815333,1.237 -1.270488,0.81886 -1.706025,0.90327 -3.638021,0.70508 z m 93.75205,0.39862 c 0.9739,-0.95201 0.25455,-3.58776 -0.97918,-3.58776 -1.16376,0 -2.08049,3.62166 -1.0286,4.06361 0.47031,0.19759 1.59043,-0.0679 2.00778,-0.47585 z m -10.15929,-0.0243 c 0.28248,-0.21365 0.85659,-0.38846 1.2758,-0.38846 4.01336,0 4.04112,-4.60632 0.0458,-7.60295 -1.20834,-0.9063 -4.28434,-2.18663 -5.25339,-2.18663 -0.31737,0 -0.72575,-0.14883 -0.9075,-0.33073 -0.22321,-0.2234 -1.24936,-0.33073 -3.16177,-0.33073 -8.33581,0 -8.2462,7.737 0.11658,10.06509 3.90629,1.08745 7.06091,1.3973 7.88445,0.77441 z m -5.93755,-2.084 c -3.25538,-0.60929 -5.47846,-2.65605 -4.79851,-4.41791 0.80568,-2.08768 4.39395,-3.26034 6.55208,-2.14125 0.27246,0.14128 1.13302,0.53481 1.91234,0.8745 6.63414,2.89165 3.91767,7.10404 -3.66591,5.68466 z m 5.2157,-1.53816 c 1.29554,-1.2043 -2.71587,-4.16794 -5.64854,-4.17316 -0.92368,-0.002 -2.74216,1.60253 -2.74216,2.419 0,0.54161 1.20765,1.54828 1.85739,1.54828 0.25471,0 0.84861,0.16209 1.31978,0.3602 1.41074,0.59317 4.50804,0.5015 5.21353,-0.15432 z m -97.404545,1.51391 c 0.987199,-0.90424 1.214037,-0.97092 3.553427,-1.04455 0.509018,-0.016 0.799758,-0.29431 1.26156,-1.20756 0.54877,-1.08523 3.323381,-3.9656 3.82,-3.9656 0.115559,0 0.210107,-0.17859 0.210107,-0.39688 0,-0.49491 0.133811,-0.50377 -2.431049,0.16107 -1.183844,0.30687 -2.711905,0.90218 -3.39569,1.32292 -0.683785,0.42073 -1.408671,0.76876 -1.610858,0.77339 -0.202186,0.005 -0.598728,0.18322 -0.881203,0.39687 -0.282474,0.21365 -0.758724,0.38901 -1.058333,0.38969 -0.565795,0.001 -2.822714,0.87506 -4.315055,1.67062 -0.995147,0.53051 -1.145411,1.23644 -0.264584,1.243 0.327422,0.002 1.250157,0.34829 2.050521,0.76857 1.869431,0.98164 1.867603,0.98171 3.061157,-0.11154 z m 85.171965,0.67023 c 0.087,-0.14069 -0.37994,-0.94437 -1.03755,-1.78594 -0.6576,-0.84157 -1.41831,-1.82054 -1.69046,-2.1755 -0.43664,-0.56948 -0.67245,-0.63714 -2.00558,-0.57538 -1.8671,0.0865 -2.65896,-0.37386 -3.3568,-1.95146 -0.41306,-0.93377 -0.60651,-1.11684 -1.05598,-0.9993 -0.81917,0.21422 -0.91216,0.81117 -0.23814,1.52863 1.33308,1.41901 -0.20436,4.3252 -2.30227,4.35192 -0.46435,0.006 -0.9157,0.12633 -1.003,0.26758 -0.18655,0.30185 0.67561,0.51226 1.97958,0.48313 3.03093,-0.0677 7.61027,0.31281 8.33437,0.69257 0.88977,0.46665 2.13556,0.55252 2.37583,0.16375 z m -60.269811,-0.29667 c 0.158342,-0.15834 1.223951,-0.34891 2.368021,-0.42348 2.112708,-0.13772 3.270753,-0.58507 3.270753,-1.26348 0,-0.63457 -0.402796,-0.672 -1.411818,-0.1312 -1.316079,0.70537 -1.854502,0.65452 -2.913384,-0.27519 -1.151974,-1.01145 -1.08382,-1.03144 -1.878583,0.5509 -0.869489,1.73111 -0.535479,2.64294 0.565011,1.54245 z m -35.371644,-1.4319 c 0.717928,-0.3638 1.535177,-0.66145 1.816108,-0.66145 0.280931,0 1.386218,-0.43235 2.456192,-0.96077 2.408589,-1.18951 2.884705,-1.39028 6.178742,-2.60547 1.455208,-0.53684 3.330181,-1.32327 4.166606,-1.74762 0.933385,-0.47355 1.933053,-0.77156 2.588185,-0.77156 0.587078,0 1.487232,-0.17541 2.000343,-0.3898 0.513112,-0.2144 1.551085,-0.46789 2.306607,-0.56332 0.755521,-0.0954 1.775169,-0.33673 2.265884,-0.53624 0.490714,-0.1995 1.145558,-0.36214 1.455208,-0.36142 0.575899,0.001 1.353165,-0.22341 5.060917,-1.46343 1.288144,-0.43081 3.411234,-0.84869 5.423959,-1.06758 1.81901,-0.19783 3.783542,-0.50064 4.365625,-0.67291 0.582083,-0.17226 2.606146,-0.33875 4.497917,-0.36995 1.947982,-0.0321 4.300123,-0.24226 5.423958,-0.48453 1.091407,-0.23528 2.69875,-0.48684 3.571875,-0.55901 0.873125,-0.0722 2.202502,-0.24871 2.95417,-0.3923 0.954634,-0.18236 1.871976,-0.16822 3.042709,0.0469 0.92182,0.16938 2.21182,0.2856 2.86666,0.25825 0.65485,-0.0273 2.71955,-0.12134 4.58822,-0.20887 2.27748,-0.10668 3.63624,-0.0603 4.12146,0.14068 0.42799,0.17728 3.6942,0.38832 7.99122,0.51633 6.24543,0.18605 7.39595,0.28428 8.18168,0.69849 0.57842,0.30493 2.08067,0.60158 4.0893,0.80753 4.61671,0.47334 6.50706,0.81462 7.82558,1.4128 0.83465,0.37866 1.74312,0.53258 3.16786,0.53672 1.09868,0.003 2.11741,0.12563 2.26385,0.27206 0.41866,0.41866 2.95709,1.07453 5.14347,1.32894 1.09813,0.12778 2.34828,0.41571 2.77813,0.63986 0.42984,0.22414 0.97084,0.40826 1.20222,0.40916 0.62488,0.002 4.38332,0.99276 4.98045,1.31233 0.28446,0.15224 0.82859,0.2768 1.20919,0.2768 0.38059,0 1.01362,0.16632 1.40673,0.36961 0.3931,0.20328 1.4008,0.45532 2.23931,0.56009 0.83852,0.10476 1.58956,0.29563 1.66899,0.42414 0.0794,0.12851 0.45075,0.23366 0.82517,0.23366 0.37442,0 1.07996,0.24672 1.56787,0.54827 1.5628,0.96585 2.34482,0.32048 2.63839,-2.17739 0.16918,-1.43947 -0.63806,-2.33963 -2.09813,-2.33963 -0.1853,0 -1.13547,-0.40178 -2.11148,-0.89283 -0.976,-0.49106 -2.27886,-0.97209 -2.89524,-1.06896 -1.38346,-0.21743 -3.85223,-0.91196 -4.5527,-1.28079 -0.28688,-0.15106 -1.47751,-0.37588 -2.64584,-0.4996 -1.16833,-0.12373 -3.01721,-0.46506 -4.10861,-0.75852 -1.09141,-0.29346 -2.87735,-0.70591 -3.96875,-0.91657 -1.09141,-0.21065 -3.05594,-0.63594 -4.36563,-0.94508 -1.30968,-0.30914 -3.6314,-0.65843 -5.15937,-0.77621 -1.52797,-0.11778 -3.13531,-0.35669 -3.57188,-0.53092 -0.43656,-0.17422 -1.92484,-0.41434 -3.30729,-0.53361 -2.52222,-0.21758 -4.02261,-0.49606 -6.48229,-1.20312 -0.7276,-0.20915 -2.33159,-0.50933 -3.5644,-0.66706 -1.23282,-0.15773 -2.33171,-0.34253 -2.44197,-0.41068 -0.11026,-0.0681 -1.95909,-0.22904 -4.10851,-0.35754 -2.14942,-0.1285 -4.50335,-0.36432 -5.23095,-0.52405 -1.06163,-0.23304 -1.50582,-0.21426 -2.24896,0.0951 -0.63341,0.26366 -2.34742,0.42657 -5.42396,0.51552 -2.47386,0.0715 -4.852461,0.26582 -5.28579,0.43177 -0.43333,0.16595 -2.450784,0.41355 -4.483231,0.55021 -3.849327,0.25882 -6.039831,0.58283 -8.140071,1.20402 -0.682187,0.20177 -1.520375,0.36686 -1.86264,0.36686 -0.342266,0 -1.331926,0.18844 -2.199244,0.41876 -0.867319,0.23032 -2.708037,0.52047 -4.090485,0.64478 -2.711353,0.2438 -5.078134,0.73992 -6.001877,1.2581 -0.317855,0.1783 -1.423007,0.32419 -2.455894,0.32419 -1.032886,0 -2.273231,0.16515 -2.756321,0.367 -0.48309,0.20184 -1.397422,0.45469 -2.031848,0.56187 -0.634427,0.10719 -1.336675,0.29038 -1.560552,0.4071 -0.784868,0.40919 -6.823947,2.20631 -10.593509,3.15243 -1.398769,0.35107 -3.185255,1.04503 -3.801534,1.47668 -0.302248,0.21171 -0.701326,0.38492 -0.88684,0.38492 -0.185513,0 -1.141287,0.36398 -2.123941,0.80884 -0.982654,0.44486 -2.287145,1.03595 -2.898869,1.31352 -0.611725,0.27758 -1.302601,0.79524 -1.535281,1.15035 -0.23268,0.35512 -0.743017,0.72597 -1.134082,0.82412 -0.924324,0.23199 -1.096174,0.54803 -0.925099,1.7013 0.250125,1.68617 0.852676,1.89616 2.722313,0.94874 z m 46.235939,-0.56281 c 1.476651,-0.93123 0.314036,-2.68468 -1.391332,-2.0984 -1.617661,0.55612 -2.022445,1.36791 -1.084412,2.17478 0.779517,0.67051 1.317723,0.65391 2.475744,-0.0764 z m 35.520316,0.53486 c 0,-0.0881 -0.29766,-0.51399 -0.66146,-0.94634 -0.99694,-1.1848 -0.93528,-2.90846 0.13229,-3.69775 0.97276,-0.71919 0.98254,-0.92278 0.0891,-1.8553 -1.31266,-1.37012 1.49067,-4.82356 3.01895,-3.71908 0.25509,0.18435 0.84105,0.50893 1.30214,0.72129 0.54396,0.25052 1.00317,0.75966 1.30769,1.44989 0.50031,1.13398 0.99273,1.31488 1.83829,0.67533 0.63124,-0.47745 2.59528,-0.52496 3.08262,-0.0746 1.52134,1.406 1.3986,1.38058 2.64136,0.54702 0.62679,-0.42041 1.36978,-0.88714 1.6511,-1.03718 1.60972,-0.85856 1.07593,-1.68221 -1.09435,-1.6886 -0.75714,-0.002 -1.65011,-0.12342 -1.98438,-0.26932 -0.33426,-0.14589 -1.97698,-0.37839 -3.65047,-0.51666 -1.67349,-0.13826 -3.81661,-0.37754 -4.7625,-0.53173 -3.12481,-0.50938 -10.7312,-0.60097 -11.11885,-0.13389 -1.42307,1.7147 -0.41348,3.54396 1.45218,2.63118 1.49411,-0.731 2.83766,-0.64758 3.52649,0.21897 2.23578,2.81263 -1.87522,6.43433 -4.29943,3.7877 -1.0632,-1.16074 -1.46664,-1.06559 -1.46664,0.34589 0,0.60933 -0.21082,1.27505 -0.53382,1.68568 -0.41138,0.52299 -0.4569,0.72791 -0.19844,0.89343 0.59966,0.38404 2.1714,0.87227 2.84893,0.88497 0.3638,0.007 0.89257,0.1872 1.17505,0.40085 0.5129,0.38795 5.70412,0.59564 5.70412,0.22822 z m 33.60208,-0.0657 c 0,-1.56922 2.96061,-2.14581 4.27404,-0.83239 0.96355,0.96355 1.20715,0.97478 2.86971,0.13229 0.71793,-0.3638 1.71143,-0.66145 2.20777,-0.66145 0.9602,0 1.87253,-0.68771 1.19547,-0.90114 -1.44876,-0.4567 -3.45158,-0.9442 -4.40698,-1.07269 -0.62482,-0.084 -1.3392,-0.26598 -1.5875,-0.40432 -0.44914,-0.25022 -2.70641,-0.88595 -4.63994,-1.30676 -0.5574,-0.12132 -1.14676,-0.35387 -1.30968,-0.51679 -0.31215,-0.31215 -2.3661,-0.41357 -2.64887,-0.1308 -0.091,0.091 0.48449,0.78001 1.27882,1.53117 0.87954,0.83173 1.44425,1.58856 1.44425,1.93562 0,0.31344 0.10368,0.63397 0.2304,0.71229 0.12673,0.0783 0.30235,0.50207 0.39026,0.94166 0.14109,0.70544 0.70225,1.16356 0.70225,0.57331 z m -62.573959,-1.26972 c 1.322917,-0.51248 1.322917,-0.51248 1.517388,-3.94018 0.308134,-5.43111 0.476052,-5.6168 5.383751,-5.95362 3.03099,-0.20802 3.56262,-0.32778 3.17497,-0.71522 -0.44956,-0.44931 -9.764584,-0.2136 -10.658282,0.26969 -0.584261,0.31596 -1.450311,0.45791 -2.793701,0.45791 -2.394192,0 -2.998318,0.34206 -2.754776,1.55977 0.093,0.46499 0.02371,1.38898 -0.153972,2.05332 -1.009886,3.77585 -5.357045,2.95374 -5.357045,-1.01309 0,-1.67396 0,-1.67396 -1.5875,-1.59635 -2.053895,0.1004 -7.019953,0.84294 -7.568451,1.13165 -0.233586,0.12296 -1.245617,0.35375 -2.248959,0.51288 -3.028879,0.48038 -3.335579,1.39109 -0.573406,1.70267 1.731209,0.19528 3.040474,0.82341 3.843067,1.84374 1.105894,1.40592 2.518769,1.41148 2.870192,0.0113 0.611955,-2.43823 6.079185,-1.7973 6.174232,0.72381 0.02471,0.65544 0.482633,0.83343 1.289607,0.50127 0.391399,-0.16111 1.42601,-0.38107 2.299135,-0.4888 1.5875,-0.19587 1.5875,-0.19587 1.722196,-1.53223 0.327751,-3.25174 2.766233,-4.53366 4.758227,-2.50143 2.396068,2.44447 0.943267,5.42587 -2.643964,5.42587 -1.122033,0 -1.195744,0.045 -1.279469,0.7807 -0.177156,1.55673 1.725763,1.87467 4.58676,0.76634 z m 18.121749,-0.34945 c 0.28224,-0.17844 0.31338,-0.33079 0.10933,-0.53485 -0.36206,-0.36206 -5.63939,-0.24142 -5.73076,0.13101 -0.12328,0.50256 4.89504,0.86307 5.62143,0.40384 z m 13.87104,-0.0906 c 0.69629,-0.50915 0.41226,-1.30702 -0.64312,-1.80655 -1.0033,-0.47488 -1.64242,-0.31242 -2.09456,0.53242 -0.64101,1.19773 1.48744,2.18832 2.73768,1.27413 z m -44.992031,-0.71718 c 0.790859,-0.93988 0.65623,-1.66176 -0.433196,-2.32278 -1.628578,-0.98817 -2.99535,0.77373 -1.89864,2.44752 0.600264,0.91612 1.496346,0.86818 2.331836,-0.12474 z m 16.868467,-1.64658 c 0.08525,-2.23733 0.233156,-3.52578 0.488974,-4.25962 0.32543,-0.93353 0.09688,-1.26054 -0.673717,-0.96397 -0.624396,0.2403 -1.523712,3.63086 -1.267499,4.77867 0.265849,1.19098 0.342798,1.30481 0.882005,1.30481 0.423267,0 0.544433,-0.18271 0.570237,-0.85989 z m 34.546754,-0.57965 c 0.98265,-0.85482 0.12867,-2.04312 -1.14275,-1.5901 -1.14063,0.40641 -1.41233,1.11023 -0.66527,1.7233 0.79715,0.65418 0.91269,0.64567 1.80802,-0.1332 z m -39.89039,-0.31593 c 0.914006,-1.16197 0.386263,-2.74244 -0.915742,-2.74244 -1.197676,0 -2.043107,2.04903 -1.195256,2.89688 0.734849,0.73485 1.452799,0.68232 2.110998,-0.15444 z m 13.44681,0.004 c 2.54865,-0.15101 3.49782,-0.53625 2.37902,-0.96557 -0.58537,-0.22463 -7.19536,0.10805 -7.52267,0.37862 -0.706057,0.58364 -0.0559,1.06909 1.21229,0.90521 0.67066,-0.0867 2.43977,-0.22989 3.93136,-0.31826 z m 6.83827,0.12306 c 0.50809,-0.8221 0.41219,-4.41674 -0.12551,-4.7045 -1.08364,-0.57995 -1.63719,-0.37574 -1.2086,0.44587 0.21689,0.41577 0.38026,1.47414 0.38119,2.46945 8.9e-4,0.95801 0.081,1.82121 0.17802,1.91823 0.26359,0.26359 0.56305,0.21373 0.7749,-0.12905 z M 40.646812,156.8666 c 0.879897,-0.43656 1.792912,-0.79375 2.028922,-0.79375 2.146806,0 1.741834,-1.16619 -1.060888,-3.05501 -4.337985,-2.92347 -5.532855,-6.73457 -2.111445,-6.73457 0.488391,0 1.699044,-0.18933 2.69034,-0.42074 0.991295,-0.2314 2.792927,-0.4219 4.003625,-0.42333 2.412826,-0.003 2.80251,-0.25293 2.055662,-1.3192 -0.23126,-0.33017 -0.420473,-0.82766 -0.420473,-1.10552 0,-0.27787 -0.225282,-0.87645 -0.500625,-1.33019 -0.275344,-0.45374 -0.587955,-1.23695 -0.694692,-1.74047 -0.106736,-0.50352 -0.432464,-1.45602 -0.72384,-2.11667 -0.291376,-0.66065 -0.608724,-1.55836 -0.705218,-1.99493 -0.230825,-1.0443 -0.809133,-1.0061 -1.471198,0.0972 -1.58306,2.63807 -7.632966,6.99368 -9.077385,6.53524 -1.727729,-0.54836 -1.875258,-1.61367 -1.558972,-11.25736 0.06128,-1.86844 -0.318394,-1.96516 -2.531829,-0.64497 -3.391066,2.02257 -3.824039,3.79821 -1.596794,6.54853 0.440677,0.54417 0.595449,1.05279 0.565036,1.85685 -0.02304,0.60906 0.07778,1.34337 0.224036,1.63179 0.393752,0.77649 1.300571,2.75853 1.813594,3.96398 0.247725,0.58209 0.593831,1.23693 0.769126,1.45521 0.175295,0.21828 0.583918,1.05172 0.908052,1.85209 0.649025,1.6026 1.223716,2.91166 1.78077,4.05633 0.200487,0.41198 0.364522,0.86089 0.364522,0.99758 0,0.1367 0.477397,1.25814 1.060882,2.4921 1.251165,2.64598 1.561456,2.75338 4.188792,1.44982 z m 77.422298,0.11092 c 0.53956,-0.82348 0.38673,-1.33396 -0.52355,-1.74871 -1.01249,-0.46132 -2.22902,0.74778 -1.76876,1.75795 0.42728,0.93776 1.6751,0.93273 2.29231,-0.009 z m 7.76337,-1.48328 c 0.11978,-0.63244 -1.1057,-1.37227 -1.93029,-1.16531 -0.71929,0.18053 -0.88361,0.88869 -0.33379,1.43851 0.48146,0.48146 2.1595,0.27898 2.26408,-0.2732 z m -41.222841,-0.34743 c 0.138318,-0.3638 0.436764,-0.66146 0.663214,-0.66146 0.557907,0 0.826604,-0.7903 0.367528,-1.08099 -1.148429,-0.72718 -2.544998,0.3588 -2.204756,1.71443 0.219557,0.87478 0.846387,0.88974 1.174014,0.028 z m 23.134571,0.24325 c 0.79768,-0.79767 0.19604,-0.97062 -2.72923,-0.78455 -3.27181,0.20812 -3.73659,0.31058 -3.73659,0.82371 0,0.58341 5.87886,0.54781 6.46582,-0.0392 z m 63.26412,-2.16148 c 0.5012,-0.54571 0.91185,-1.07552 0.91255,-1.17736 6.9e-4,-0.10185 0.36962,-0.73097 0.81983,-1.39806 1.64559,-2.4383 8.16072,-15.78274 8.87746,-18.18301 0.20454,-0.68497 0.48786,-1.31707 0.6296,-1.40467 0.62805,-0.38816 0.26518,-1.84048 -0.604,-2.41737 -1.39758,-0.92761 -5.34644,-2.85774 -6.88737,-3.36643 -0.56912,-0.18788 -0.9291,0.52299 -0.48814,0.96395 0.16484,0.16485 0.29972,0.64579 0.29972,1.06878 0,0.42298 0.19615,1.84119 0.43589,3.15159 0.4048,2.21259 0.4048,2.48117 0,3.76534 -0.23974,0.76055 -0.43589,1.70568 -0.43589,2.1003 0,1.43522 -1.51013,3.60163 -2.51057,3.60163 -1.13344,0 -6.43191,-5.10317 -8.52411,-8.20991 -1.41777,-2.10527 -2.0239,-1.82164 -2.27839,1.06616 -0.0577,0.65484 -0.23359,1.54781 -0.39086,1.98437 -0.26005,0.72191 -1.63419,5.21894 -2.04528,6.69343 -0.34857,1.25024 0.10781,1.37613 4.99983,1.37923 8.9474,0.006 9.71572,1.41407 3.94081,7.22392 -2.21901,2.23244 -2.237,2.7976 -0.10329,3.24385 0.38178,0.0798 0.9918,0.31329 1.35561,0.51877 0.9245,0.52217 0.97614,0.50653 1.9966,-0.60451 z m -60.93994,-0.28364 c 0.34537,-0.34538 -5.99693,-0.67911 -8.05858,-0.42404 -0.9116,0.11278 -1.92535,0.17568 -2.252774,0.13977 -0.592214,-0.0649 -0.775506,0.22299 -0.396875,0.62344 0.272167,0.28785 10.402059,-0.033 10.708229,-0.33917 z m -1.32077,-1.53898 c 1.40688,-0.23256 1.0157,-0.53284 -0.97139,-0.74564 -1.64883,-0.17658 -3.24302,0.16062 -2.26451,0.47898 0.21828,0.071 0.57547,0.18869 0.79375,0.26149 0.57013,0.19015 1.31363,0.19172 2.44215,0.005 z m 3.90785,-0.3885 c 0,-0.12995 -0.35718,-0.23628 -0.79375,-0.23628 -0.85482,0 -1.09135,0.42426 -0.33073,0.59323 0.57774,0.12834 1.12448,-0.0452 1.12448,-0.35695 z M 99.594098,143.1298 c 1.190492,-0.72592 2.198722,-2.16535 2.610762,-3.72732 0.35968,-1.3635 1.03808,-2.64768 1.39473,-2.64016 0.55175,0.0116 0.90799,0.56892 1.03007,1.61146 0.31797,2.71524 1.08268,3.71431 3.22927,4.21896 1.51035,0.35506 2.30322,-0.70602 1.20722,-1.61562 -0.70066,-0.5815 -2.11861,-4.10647 -2.61797,-6.50819 -0.27568,-1.32588 0.67935,-1.87109 1.95703,-1.11724 0.58046,0.34248 1.74353,0.64279 3.05665,0.78924 4.6726,0.52114 6.03733,0.7558 6.45032,1.10913 1.53475,1.313 2.63822,0.0911 1.88771,-2.09033 -0.16984,-0.49367 -0.18185,-1.9931 -0.0337,-4.20667 0.26441,-3.95045 0.21419,-4.07763 -1.33312,-3.37669 -2.42162,1.09701 -4.74102,1.72365 -5.83614,1.57677 -0.58972,-0.0791 -1.33423,-0.0442 -1.65446,0.0775 -0.60877,0.23146 -2.96067,-0.14569 -3.47329,-0.55697 -0.66858,-0.53641 -0.66257,-4.34893 0.009,-5.57574 0.34335,-0.62741 0.71025,-1.42748 0.81534,-1.77793 0.10509,-0.35046 0.71401,-1.49854 1.35316,-2.55131 1.84843,-3.04461 1.53152,-3.2024 -5.89339,-2.93418 -5.742216,0.20743 -6.73037,0.53079 -5.285793,1.72968 0.200143,0.1661 0.50638,0.86529 0.680527,1.55375 0.174146,0.68846 0.509872,1.90659 0.746058,2.70695 1.318398,4.46767 0.458208,7.14375 -2.296257,7.14375 -0.960672,0 -2.116467,0.10606 -2.568433,0.23568 -1.063612,0.30504 -6.107796,-0.26264 -6.921886,-0.779 -0.977329,-0.6199 -1.108303,-0.009 -1.108303,5.17353 0,5.45997 0.05968,5.66874 1.498874,5.24366 1.872034,-0.55291 5.767171,-1.98346 6.0621,-2.22639 1.185379,-0.9764 6.257473,-1.72767 6.526803,-0.96675 0.62908,1.77727 -1.05202,5.88103 -3.422664,8.35518 -0.622399,0.64957 -1.068807,1.28269 -0.992018,1.40694 0.252979,0.40933 2.077136,0.23345 2.92201,-0.28173 z m 4.577692,-0.53459 c 0.45339,-0.28689 -0.0488,-1.07444 -0.68514,-1.07444 -0.52761,0 -0.77104,0.80082 -0.32859,1.08098 0.46041,0.29153 0.54354,0.29099 1.01373,-0.007 z"
       id="path1" /></g></svg>
